G04*
G04 #@! TF.GenerationSoftware,Altium Limited,Altium Designer,24.9.1 (31)*
G04*
G04 Layer_Physical_Order=1*
G04 Layer_Color=255*
%FSLAX44Y44*%
%MOMM*%
G71*
G04*
G04 #@! TF.SameCoordinates,3E31175B-2F74-4D0F-94E8-FEE4F86157FB*
G04*
G04*
G04 #@! TF.FilePolarity,Positive*
G04*
G01*
G75*
%ADD11C,0.1500*%
G04:AMPARAMS|DCode=13|XSize=1.1mm|YSize=1mm|CornerRadius=0.25mm|HoleSize=0mm|Usage=FLASHONLY|Rotation=180.000|XOffset=0mm|YOffset=0mm|HoleType=Round|Shape=RoundedRectangle|*
%AMROUNDEDRECTD13*
21,1,1.1000,0.5000,0,0,180.0*
21,1,0.6000,1.0000,0,0,180.0*
1,1,0.5000,-0.3000,0.2500*
1,1,0.5000,0.3000,0.2500*
1,1,0.5000,0.3000,-0.2500*
1,1,0.5000,-0.3000,-0.2500*
%
%ADD13ROUNDEDRECTD13*%
G04:AMPARAMS|DCode=14|XSize=0.65mm|YSize=0.6mm|CornerRadius=0.15mm|HoleSize=0mm|Usage=FLASHONLY|Rotation=180.000|XOffset=0mm|YOffset=0mm|HoleType=Round|Shape=RoundedRectangle|*
%AMROUNDEDRECTD14*
21,1,0.6500,0.3000,0,0,180.0*
21,1,0.3500,0.6000,0,0,180.0*
1,1,0.3000,-0.1750,0.1500*
1,1,0.3000,0.1750,0.1500*
1,1,0.3000,0.1750,-0.1500*
1,1,0.3000,-0.1750,-0.1500*
%
%ADD14ROUNDEDRECTD14*%
G04:AMPARAMS|DCode=15|XSize=0.65mm|YSize=0.6mm|CornerRadius=0.15mm|HoleSize=0mm|Usage=FLASHONLY|Rotation=90.000|XOffset=0mm|YOffset=0mm|HoleType=Round|Shape=RoundedRectangle|*
%AMROUNDEDRECTD15*
21,1,0.6500,0.3000,0,0,90.0*
21,1,0.3500,0.6000,0,0,90.0*
1,1,0.3000,0.1500,0.1750*
1,1,0.3000,0.1500,-0.1750*
1,1,0.3000,-0.1500,-0.1750*
1,1,0.3000,-0.1500,0.1750*
%
%ADD15ROUNDEDRECTD15*%
G04:AMPARAMS|DCode=16|XSize=1.1mm|YSize=1mm|CornerRadius=0.25mm|HoleSize=0mm|Usage=FLASHONLY|Rotation=90.000|XOffset=0mm|YOffset=0mm|HoleType=Round|Shape=RoundedRectangle|*
%AMROUNDEDRECTD16*
21,1,1.1000,0.5000,0,0,90.0*
21,1,0.6000,1.0000,0,0,90.0*
1,1,0.5000,0.2500,0.3000*
1,1,0.5000,0.2500,-0.3000*
1,1,0.5000,-0.2500,-0.3000*
1,1,0.5000,-0.2500,0.3000*
%
%ADD16ROUNDEDRECTD16*%
%ADD17C,0.2000*%
G04:AMPARAMS|DCode=18|XSize=1.5mm|YSize=0.4mm|CornerRadius=0.1mm|HoleSize=0mm|Usage=FLASHONLY|Rotation=0.000|XOffset=0mm|YOffset=0mm|HoleType=Round|Shape=RoundedRectangle|*
%AMROUNDEDRECTD18*
21,1,1.5000,0.2000,0,0,0.0*
21,1,1.3000,0.4000,0,0,0.0*
1,1,0.2000,0.6500,-0.1000*
1,1,0.2000,-0.6500,-0.1000*
1,1,0.2000,-0.6500,0.1000*
1,1,0.2000,0.6500,0.1000*
%
%ADD18ROUNDEDRECTD18*%
G04:AMPARAMS|DCode=19|XSize=1.5mm|YSize=0.45mm|CornerRadius=0.1125mm|HoleSize=0mm|Usage=FLASHONLY|Rotation=0.000|XOffset=0mm|YOffset=0mm|HoleType=Round|Shape=RoundedRectangle|*
%AMROUNDEDRECTD19*
21,1,1.5000,0.2250,0,0,0.0*
21,1,1.2750,0.4500,0,0,0.0*
1,1,0.2250,0.6375,-0.1125*
1,1,0.2250,-0.6375,-0.1125*
1,1,0.2250,-0.6375,0.1125*
1,1,0.2250,0.6375,0.1125*
%
%ADD19ROUNDEDRECTD19*%
G04:AMPARAMS|DCode=20|XSize=1.1mm|YSize=0.6mm|CornerRadius=0.05mm|HoleSize=0mm|Usage=FLASHONLY|Rotation=180.000|XOffset=0mm|YOffset=0mm|HoleType=Round|Shape=RoundedRectangle|*
%AMROUNDEDRECTD20*
21,1,1.1000,0.5000,0,0,180.0*
21,1,1.0000,0.6000,0,0,180.0*
1,1,0.1000,-0.5000,0.2500*
1,1,0.1000,0.5000,0.2500*
1,1,0.1000,0.5000,-0.2500*
1,1,0.1000,-0.5000,-0.2500*
%
%ADD20ROUNDEDRECTD20*%
G04:AMPARAMS|DCode=21|XSize=0.975mm|YSize=1.7mm|CornerRadius=0.05mm|HoleSize=0mm|Usage=FLASHONLY|Rotation=180.000|XOffset=0mm|YOffset=0mm|HoleType=Round|Shape=RoundedRectangle|*
%AMROUNDEDRECTD21*
21,1,0.9750,1.6000,0,0,180.0*
21,1,0.8750,1.7000,0,0,180.0*
1,1,0.1000,-0.4375,0.8000*
1,1,0.1000,0.4375,0.8000*
1,1,0.1000,0.4375,-0.8000*
1,1,0.1000,-0.4375,-0.8000*
%
%ADD21ROUNDEDRECTD21*%
%ADD22R,1.1000X0.6000*%
G04:AMPARAMS|DCode=23|XSize=0.95mm|YSize=0.85mm|CornerRadius=0.2125mm|HoleSize=0mm|Usage=FLASHONLY|Rotation=90.000|XOffset=0mm|YOffset=0mm|HoleType=Round|Shape=RoundedRectangle|*
%AMROUNDEDRECTD23*
21,1,0.9500,0.4250,0,0,90.0*
21,1,0.5250,0.8500,0,0,90.0*
1,1,0.4250,0.2125,0.2625*
1,1,0.4250,0.2125,-0.2625*
1,1,0.4250,-0.2125,-0.2625*
1,1,0.4250,-0.2125,0.2625*
%
%ADD23ROUNDEDRECTD23*%
%ADD24R,0.1778X0.6096*%
%ADD25R,0.6096X0.1778*%
%ADD26R,1.4478X1.4478*%
G04:AMPARAMS|DCode=27|XSize=0.3mm|YSize=0.66mm|CornerRadius=0.075mm|HoleSize=0mm|Usage=FLASHONLY|Rotation=270.000|XOffset=0mm|YOffset=0mm|HoleType=Round|Shape=RoundedRectangle|*
%AMROUNDEDRECTD27*
21,1,0.3000,0.5100,0,0,270.0*
21,1,0.1500,0.6600,0,0,270.0*
1,1,0.1500,-0.2550,-0.0750*
1,1,0.1500,-0.2550,0.0750*
1,1,0.1500,0.2550,0.0750*
1,1,0.1500,0.2550,-0.0750*
%
%ADD27ROUNDEDRECTD27*%
G04:AMPARAMS|DCode=28|XSize=0.3mm|YSize=0.66mm|CornerRadius=0.075mm|HoleSize=0mm|Usage=FLASHONLY|Rotation=0.000|XOffset=0mm|YOffset=0mm|HoleType=Round|Shape=RoundedRectangle|*
%AMROUNDEDRECTD28*
21,1,0.3000,0.5100,0,0,0.0*
21,1,0.1500,0.6600,0,0,0.0*
1,1,0.1500,0.0750,-0.2550*
1,1,0.1500,-0.0750,-0.2550*
1,1,0.1500,-0.0750,0.2550*
1,1,0.1500,0.0750,0.2550*
%
%ADD28ROUNDEDRECTD28*%
%ADD29R,0.6500X0.8500*%
%ADD30R,1.6000X0.8000*%
%ADD31R,3.0000X2.1000*%
%ADD43C,0.8000*%
%ADD46C,0.1800*%
%ADD47C,0.1800*%
%ADD48C,0.3200*%
%ADD49C,0.4000*%
%ADD50C,0.5000*%
%ADD51C,0.2000*%
%ADD52C,0.3000*%
%ADD53C,0.2200*%
%ADD54C,4.0000*%
%ADD55C,0.4000*%
G36*
X36326Y463729D02*
X37947Y459816D01*
X40300Y456295D01*
X43295Y453300D01*
X46816Y450947D01*
X50729Y449326D01*
X54882Y448500D01*
X59118D01*
X63271Y449326D01*
X67184Y450947D01*
X70705Y453300D01*
X73700Y456295D01*
X76053Y459816D01*
X76131Y460005D01*
X77574Y459567D01*
X77361Y458500D01*
Y456500D01*
X85000D01*
Y455500D01*
X86000D01*
Y447361D01*
X87500D01*
X89466Y447752D01*
X91134Y448866D01*
X92248Y450533D01*
X93803Y451077D01*
X94474Y450792D01*
X94592Y450510D01*
X94441Y449750D01*
Y446250D01*
X94674Y445079D01*
X95183Y444318D01*
X95130Y443733D01*
X95038Y443395D01*
X94732Y442687D01*
X93762Y442285D01*
X93048Y441572D01*
X92811Y441561D01*
X91854Y441778D01*
X91485Y441969D01*
X91268Y443061D01*
X90384Y444384D01*
X89061Y445268D01*
X87500Y445578D01*
X82500D01*
X80939Y445268D01*
X79616Y444384D01*
X78732Y443061D01*
X78422Y441500D01*
Y435500D01*
X78732Y433939D01*
X79616Y432616D01*
X80939Y431732D01*
X81932Y431535D01*
Y427990D01*
X81932Y427990D01*
X82242Y426429D01*
X83127Y425106D01*
X85500Y422732D01*
Y421906D01*
X86292Y419995D01*
X86294Y419753D01*
X85807Y418294D01*
X85017Y417967D01*
X83368Y417813D01*
X80913Y420268D01*
X79954Y420909D01*
X79262Y421047D01*
X78686Y421432D01*
X77554Y421657D01*
X75680D01*
X75058Y423157D01*
X75322Y423420D01*
X75855Y424707D01*
Y426099D01*
X75322Y427385D01*
X74337Y428370D01*
X73602Y428674D01*
X72698Y429150D01*
X72227Y429193D01*
X69389Y432474D01*
X68478Y433183D01*
X67697Y434658D01*
Y436051D01*
X67164Y437337D01*
X66180Y438322D01*
X64893Y438854D01*
X63501D01*
X62215Y438322D01*
X61230Y437337D01*
X60476Y437677D01*
X59454Y437962D01*
X58798Y438801D01*
X57794Y439370D01*
X56739Y439717D01*
X55997Y439809D01*
X55890Y439830D01*
X55281Y439957D01*
X55279Y439957D01*
X55265Y439954D01*
X55252Y439957D01*
X46005D01*
X46005Y439957D01*
X46005Y439957D01*
X44580Y439957D01*
X43448Y439732D01*
X42673Y439214D01*
X42622Y439207D01*
X40798Y438451D01*
X40757Y438420D01*
X39842Y438238D01*
X38883Y437597D01*
X35981Y434695D01*
X34816Y435651D01*
X35161Y436168D01*
X35440Y437572D01*
X35287Y438342D01*
Y439683D01*
X35008Y441088D01*
X34212Y442279D01*
X31823Y444668D01*
X31955Y446274D01*
X32617Y446888D01*
X33164Y446869D01*
X33193Y446858D01*
X34017Y446033D01*
X35304Y445500D01*
X36696D01*
X37983Y446033D01*
X38967Y447017D01*
X39500Y448304D01*
Y449696D01*
X38967Y450983D01*
X37983Y451967D01*
X36696Y452500D01*
X35965D01*
X32002Y456464D01*
X31869Y457128D01*
X31372Y457872D01*
X30628Y458369D01*
X29750Y458544D01*
X24650D01*
X23772Y458369D01*
X23028Y457872D01*
X22531Y457128D01*
X22356Y456250D01*
Y454750D01*
X22531Y453872D01*
X22726Y453579D01*
X22601Y452013D01*
X22478Y451691D01*
X22227Y451523D01*
X16511Y445807D01*
X14691Y446100D01*
X14349Y446785D01*
X14437Y446948D01*
X14449Y446966D01*
X14655Y448000D01*
X8800D01*
Y450000D01*
X14655D01*
X14449Y451034D01*
X13722Y452122D01*
X13469Y453872D01*
X13644Y454750D01*
Y456250D01*
X13469Y457128D01*
X12972Y457872D01*
X12228Y458369D01*
X11824Y458450D01*
Y460847D01*
X11544Y462252D01*
X11378Y462500D01*
X12180Y464000D01*
X36272D01*
X36326Y463729D01*
D02*
G37*
G36*
X240000Y443000D02*
X274000D01*
Y321137D01*
X272540Y321040D01*
X272500Y321040D01*
X256467D01*
X255347Y322540D01*
X255425Y322802D01*
X255983Y323033D01*
X256967Y324017D01*
X257500Y325304D01*
Y326696D01*
X256967Y327983D01*
X255983Y328967D01*
X254696Y329500D01*
X253304D01*
X252017Y328967D01*
X251033Y327983D01*
X250500Y326696D01*
Y326476D01*
X249828Y325804D01*
X210487D01*
X209913Y326663D01*
X208920Y327326D01*
X207750Y327559D01*
X204250D01*
X203079Y327326D01*
X202087Y326663D01*
X201859Y326322D01*
X200141D01*
X199913Y326663D01*
X198920Y327326D01*
X197750Y327559D01*
X194250D01*
X193079Y327326D01*
X192087Y326663D01*
X191424Y325671D01*
X191191Y324500D01*
Y321500D01*
X191424Y320330D01*
X192027Y319427D01*
X192087Y319291D01*
Y317708D01*
X192027Y317573D01*
X191424Y316670D01*
X191418Y316638D01*
X191177Y316590D01*
X190267Y315983D01*
X186499Y312214D01*
X185681Y312446D01*
X185051Y312888D01*
Y313865D01*
X185078Y314000D01*
Y322709D01*
X185326Y323079D01*
X185559Y324250D01*
Y327750D01*
X185326Y328921D01*
X184663Y329913D01*
X185322Y331277D01*
X185413Y331337D01*
X186306Y332674D01*
X186619Y334250D01*
Y335000D01*
X181000D01*
Y336000D01*
X180000D01*
Y341869D01*
X179500D01*
X177924Y341556D01*
X177255Y341109D01*
X175755Y341911D01*
Y342894D01*
X175840Y343322D01*
X175561Y344726D01*
X176589Y345888D01*
X177052Y346198D01*
X177835Y347369D01*
X178109Y348750D01*
X157891D01*
X158016Y348118D01*
X156666Y347216D01*
X156405Y347391D01*
X155000Y347671D01*
X153595Y347391D01*
X152404Y346595D01*
X151969Y345943D01*
X151805Y345779D01*
X151009Y344588D01*
X150730Y343184D01*
Y340656D01*
X150330Y340576D01*
X149337Y339913D01*
X148674Y338921D01*
X148441Y337750D01*
Y337550D01*
X148119Y337335D01*
X147424Y337527D01*
X146551Y338091D01*
X146306Y339326D01*
X145413Y340663D01*
X144076Y341556D01*
X142500Y341869D01*
X142000D01*
Y336000D01*
X140000D01*
Y341869D01*
X139500D01*
X137924Y341556D01*
X136587Y340663D01*
X135694Y339326D01*
X135449Y338091D01*
X134576Y337527D01*
X133881Y337335D01*
X133559Y337550D01*
Y337750D01*
X133326Y338921D01*
X132663Y339913D01*
X131671Y340576D01*
X130500Y340809D01*
X127500D01*
X126329Y340576D01*
X125337Y339913D01*
X124449Y340609D01*
X124413Y340663D01*
X123076Y341556D01*
X121500Y341869D01*
X121000D01*
Y336000D01*
X120000D01*
Y335000D01*
X114381D01*
Y334250D01*
X114694Y332674D01*
X115426Y331578D01*
X115154Y330668D01*
X114772Y330078D01*
X113000D01*
X113000Y330078D01*
X111439Y329768D01*
X110116Y328884D01*
X110116Y328884D01*
X103284Y322052D01*
X100345Y324990D01*
X99022Y325874D01*
X97461Y326185D01*
X97461Y326185D01*
X79516D01*
X79061Y327685D01*
X79663Y328087D01*
X80326Y329080D01*
X80432Y329613D01*
X81125D01*
X82530Y329893D01*
X83721Y330689D01*
X85596Y332563D01*
X86391Y333754D01*
X86458Y334089D01*
X88039Y335193D01*
X88170Y335196D01*
X88500Y335131D01*
X89000D01*
Y341000D01*
X90000D01*
Y342000D01*
X95619D01*
Y342750D01*
X95306Y344326D01*
X94413Y345663D01*
X94322Y345723D01*
X93946Y346501D01*
X94485Y347446D01*
X96105Y347434D01*
X96337Y347087D01*
X97330Y346424D01*
X98500Y346191D01*
X98791D01*
X99332Y345651D01*
X99516Y344723D01*
X100400Y343400D01*
X101723Y342516D01*
X103284Y342206D01*
X104534D01*
X104534Y342206D01*
X106095Y342516D01*
X107418Y343400D01*
X110209Y346191D01*
X110500D01*
X111671Y346424D01*
X112663Y347087D01*
X113551Y346391D01*
X113587Y346337D01*
X114924Y345444D01*
X116500Y345131D01*
X117000D01*
Y351000D01*
X118000D01*
Y352000D01*
X123619D01*
Y352750D01*
X123403Y353837D01*
X123996Y353955D01*
X125320Y354839D01*
X126204Y356162D01*
X126238Y356334D01*
X133233Y363329D01*
X136098D01*
X137079Y362674D01*
X138250Y362441D01*
X141750D01*
X142921Y362674D01*
X143913Y363337D01*
X144141Y363678D01*
X145859D01*
X146087Y363337D01*
X147079Y362674D01*
X148250Y362441D01*
X150176D01*
X150967Y360941D01*
X150609Y360405D01*
X150330Y359000D01*
X150609Y357595D01*
X151404Y356404D01*
X152595Y355609D01*
X154000Y355330D01*
X154216D01*
X155621Y355609D01*
X156812Y356404D01*
X157451Y357044D01*
X158951Y356422D01*
Y355250D01*
X159145Y354275D01*
X158952Y353305D01*
X158948Y353302D01*
X158165Y352131D01*
X157891Y350750D01*
X178109D01*
X177920Y351703D01*
X178055Y353259D01*
X179245Y354054D01*
X181442Y356251D01*
X181928Y356978D01*
X181967Y357017D01*
X181988Y357068D01*
X182238Y357442D01*
X182326Y357883D01*
X182500Y358304D01*
Y358759D01*
X182517Y358847D01*
X182500Y358935D01*
Y359696D01*
X181967Y360983D01*
X180983Y361967D01*
X179696Y362500D01*
X178935D01*
X178847Y362517D01*
X178759Y362500D01*
X178304D01*
X177281Y363275D01*
X177049Y363642D01*
Y363750D01*
X176855Y364725D01*
X176302Y365552D01*
Y366448D01*
X176855Y367275D01*
X177049Y368250D01*
Y370250D01*
X177040Y370297D01*
X178140Y371797D01*
X182918D01*
X183740Y371247D01*
X185145Y370968D01*
X185362D01*
X186766Y371247D01*
X187957Y372043D01*
X188753Y373234D01*
X189032Y374638D01*
X188961Y374997D01*
X190116Y376497D01*
X196584D01*
X197000Y376414D01*
X198405Y376693D01*
X199596Y377489D01*
X200391Y378680D01*
X200671Y380084D01*
X200391Y381489D01*
X199596Y382680D01*
X199513Y382763D01*
X198322Y383558D01*
X196917Y383838D01*
X183420D01*
X182813Y384445D01*
X181622Y385241D01*
X180217Y385521D01*
X177821D01*
X177345Y386138D01*
X176904Y387020D01*
X177049Y387750D01*
Y389750D01*
X176855Y390725D01*
X177048Y391695D01*
X177052Y391698D01*
X177835Y392869D01*
X178109Y394250D01*
X157891D01*
X157922Y394094D01*
X157864Y394025D01*
X156557Y393267D01*
X156073Y393590D01*
X155000Y393804D01*
X154487D01*
X153913Y394663D01*
X152921Y395326D01*
X151750Y395559D01*
X148250D01*
X147079Y395326D01*
X146087Y394663D01*
X145859Y394322D01*
X144141D01*
X143913Y394663D01*
X143206Y395135D01*
X142858Y396328D01*
X142824Y396875D01*
X142967Y397017D01*
X143500Y398304D01*
Y398359D01*
X145000Y399521D01*
X145500Y399422D01*
X151500D01*
X153061Y399732D01*
X154384Y400616D01*
X155268Y401939D01*
X155578Y403500D01*
Y408500D01*
X155268Y410061D01*
X154384Y411384D01*
X153061Y412268D01*
X151500Y412578D01*
X147910D01*
X144588Y415900D01*
Y421000D01*
X146000D01*
Y430000D01*
X139943D01*
X139500Y430088D01*
X139000D01*
X138557Y430000D01*
X132000D01*
Y421000D01*
X135412D01*
Y414987D01*
X134610Y413801D01*
X133954Y413639D01*
X132500D01*
Y406000D01*
Y398361D01*
X134500D01*
X135000Y398461D01*
X136500Y398304D01*
X137033Y397017D01*
X137176Y396875D01*
X137142Y396328D01*
X136794Y395135D01*
X136098Y394670D01*
X133587D01*
X132182Y394391D01*
X130991Y393596D01*
X129117Y391721D01*
X128321Y390530D01*
X128042Y389126D01*
Y388218D01*
X127666Y388078D01*
X126542Y387968D01*
X125912Y388912D01*
X124721Y389707D01*
X123316Y389987D01*
X121911Y389707D01*
X120721Y388912D01*
X120285Y388259D01*
X120055Y388029D01*
X119259Y386838D01*
X118994Y385508D01*
X118079Y385326D01*
X117087Y384663D01*
X115723Y385322D01*
X115663Y385413D01*
X114326Y386306D01*
X112750Y386619D01*
X112000D01*
Y381000D01*
X111000D01*
Y380000D01*
X105131D01*
Y379500D01*
X105444Y377924D01*
X106337Y376587D01*
Y376413D01*
X105444Y375076D01*
X105131Y373500D01*
Y373000D01*
X111000D01*
Y371000D01*
X105131D01*
Y370500D01*
X105444Y368924D01*
X105995Y368099D01*
X105942Y366942D01*
X105598Y366382D01*
X104210Y365798D01*
X103076Y366556D01*
X101500Y366869D01*
X101000D01*
Y361000D01*
X99000D01*
Y366869D01*
X98500D01*
X96924Y366556D01*
X96894Y366536D01*
X95391Y366405D01*
X95024Y366953D01*
X94595Y367595D01*
X94533Y367637D01*
X94422Y367918D01*
X94448Y369498D01*
X94967Y370017D01*
X95467Y371223D01*
X95614Y371473D01*
X96304Y372500D01*
X97696D01*
X98983Y373033D01*
X99967Y374017D01*
X100500Y375304D01*
Y376696D01*
X99967Y377983D01*
X99957Y377993D01*
Y381161D01*
X99732Y382293D01*
X99108Y383226D01*
X99055Y383354D01*
X99079Y383445D01*
X100184Y384550D01*
X100304Y384500D01*
X101696D01*
X102983Y385033D01*
X103967Y386017D01*
X104500Y387304D01*
Y388696D01*
X104159Y389518D01*
X104153Y389552D01*
X104133Y389581D01*
X103967Y389983D01*
X103660Y390290D01*
X103512Y390512D01*
X103290Y390660D01*
X102983Y390967D01*
X102581Y391133D01*
X102552Y391153D01*
X102518Y391160D01*
X102449Y391188D01*
Y392812D01*
X102983Y393033D01*
X103967Y394017D01*
X104500Y395304D01*
Y396696D01*
X103967Y397983D01*
X102983Y398967D01*
X101696Y399500D01*
X100894D01*
X100748Y399552D01*
X100732Y399562D01*
X100277Y400041D01*
X99899Y400583D01*
X99786Y400886D01*
X99957Y401746D01*
Y406007D01*
X99967Y406017D01*
X99979Y406045D01*
X101501Y406322D01*
X101694Y406266D01*
X102924Y405444D01*
X104500Y405131D01*
X105000D01*
Y411000D01*
X107000D01*
Y405131D01*
X107500D01*
X109076Y405444D01*
X110413Y406337D01*
X110587D01*
X111924Y405444D01*
X113500Y405131D01*
X114000D01*
Y411000D01*
X115000D01*
Y412000D01*
X120619D01*
Y412750D01*
X120306Y414326D01*
X119413Y415663D01*
X119322Y415723D01*
X118663Y417087D01*
X119326Y418079D01*
X119559Y419250D01*
Y422750D01*
X119326Y423921D01*
X118663Y424913D01*
X118078Y425303D01*
Y425632D01*
X118078Y425632D01*
X117768Y427193D01*
X116884Y428516D01*
X116884Y428516D01*
X116200Y429200D01*
X114877Y430084D01*
X113316Y430395D01*
X111755Y430084D01*
X110432Y429200D01*
X109548Y427877D01*
X109345Y426855D01*
X109267Y426707D01*
X109179Y426673D01*
X107781Y426534D01*
X107195Y427411D01*
X106757Y427849D01*
Y429074D01*
X107000Y429698D01*
Y430262D01*
X107059Y430560D01*
X107059Y430561D01*
Y434000D01*
X109000D01*
Y430583D01*
X110005Y430999D01*
X111001Y431995D01*
X111540Y433296D01*
Y434704D01*
X111698Y434941D01*
X114533D01*
X114732Y433939D01*
X115616Y432616D01*
X116939Y431732D01*
X118500Y431422D01*
X123500D01*
X125061Y431732D01*
X126384Y432616D01*
X126588Y432922D01*
X130000D01*
X131561Y433232D01*
X132884Y434116D01*
X133768Y435439D01*
X134078Y437000D01*
X133780Y438500D01*
X133773Y438570D01*
X134610Y440000D01*
X146000D01*
Y449000D01*
X132000D01*
Y442141D01*
X130500Y440979D01*
X130000Y441078D01*
X127578D01*
Y441500D01*
X127268Y443061D01*
X126384Y444384D01*
X125061Y445268D01*
X123500Y445578D01*
X118500D01*
X116939Y445268D01*
X115616Y444384D01*
X114732Y443061D01*
X114422Y441500D01*
Y441059D01*
X111059D01*
Y443302D01*
X111671Y443424D01*
X112663Y444087D01*
X113326Y445079D01*
X113559Y446250D01*
Y448123D01*
X114254Y448518D01*
X115059Y448738D01*
X116533Y447752D01*
X118500Y447361D01*
X120000D01*
Y455500D01*
X121000D01*
Y456500D01*
X128639D01*
Y458500D01*
X128247Y460466D01*
X127134Y462134D01*
X126585Y462500D01*
X127040Y464000D01*
X240000D01*
Y443000D01*
D02*
G37*
G36*
X15000Y392131D02*
X15500D01*
X17076Y392444D01*
X18413Y393337D01*
X18587D01*
X19924Y392444D01*
X20407Y390819D01*
X10767Y381179D01*
X10160Y380270D01*
X9946Y379197D01*
Y348250D01*
X10160Y347177D01*
X10767Y346267D01*
X17918Y339116D01*
X17179Y337734D01*
X16500Y337869D01*
X16000D01*
Y332000D01*
X14000D01*
Y337869D01*
X13500D01*
X11924Y337556D01*
X10587Y336663D01*
X9694Y335326D01*
X9381Y333750D01*
Y332406D01*
X7881Y331495D01*
X7000Y331670D01*
X5595Y331391D01*
X4405Y330596D01*
X3969Y329943D01*
X1500Y327474D01*
X0Y328096D01*
Y391926D01*
X1500Y392728D01*
X1924Y392444D01*
X3500Y392131D01*
X4000D01*
Y398000D01*
X6000D01*
Y392131D01*
X6500D01*
X8076Y392444D01*
X9413Y393337D01*
X9587D01*
X10924Y392444D01*
X12500Y392131D01*
X13000D01*
Y398000D01*
X15000D01*
Y392131D01*
D02*
G37*
G36*
X30743Y391103D02*
Y390395D01*
X30745Y390388D01*
X30743Y390381D01*
X30743Y389027D01*
X30968Y387896D01*
X31486Y387121D01*
X31493Y387070D01*
X32249Y385245D01*
X32268Y385221D01*
X32451Y384301D01*
X33092Y383342D01*
X47223Y369210D01*
X48182Y368569D01*
X49102Y368387D01*
X49126Y368368D01*
X50951Y367612D01*
X51002Y367605D01*
X51777Y367087D01*
X52909Y366862D01*
X54200Y366862D01*
X67339D01*
X69103Y365760D01*
X70182Y365352D01*
X70377Y365358D01*
X70517Y365219D01*
X71583Y364781D01*
X71839Y364731D01*
X72301Y364732D01*
X72747Y364643D01*
X74408D01*
X75540Y364868D01*
X76116Y365253D01*
X76808Y365391D01*
X77767Y366032D01*
X79913Y368178D01*
X80097Y368315D01*
X81807Y368243D01*
X82017Y368033D01*
X83304Y367500D01*
X84696D01*
X85983Y368033D01*
X86967Y369017D01*
X87395Y370051D01*
X88303Y370247D01*
X88957Y370200D01*
X89033Y370017D01*
X89552Y369498D01*
X89578Y367918D01*
X89467Y367637D01*
X89404Y367595D01*
X88969Y366943D01*
X87404Y365379D01*
X86609Y364188D01*
X86329Y362784D01*
Y354901D01*
X85674Y353921D01*
X85648Y353791D01*
X85120D01*
X83716Y353511D01*
X82525Y352716D01*
X81235Y351426D01*
X79735Y352047D01*
Y352936D01*
X79456Y354340D01*
X78660Y355531D01*
X73595Y360595D01*
X72405Y361391D01*
X71000Y361670D01*
X69595Y361391D01*
X68405Y360595D01*
X67609Y359405D01*
X67330Y358000D01*
X67609Y356595D01*
X68405Y355405D01*
X71274Y352536D01*
X70652Y351035D01*
X70268D01*
X68982Y350503D01*
X67997Y349518D01*
X67464Y348232D01*
Y347651D01*
X66622Y346809D01*
X65500D01*
X64362Y346582D01*
X64329Y346576D01*
X62862Y347400D01*
Y350784D01*
X62862Y350784D01*
X62552Y352345D01*
X61668Y353668D01*
X61668Y353668D01*
X56168Y359168D01*
X54845Y360052D01*
X53284Y360362D01*
X53284Y360362D01*
X52034D01*
X50473Y360052D01*
X49150Y359168D01*
X49150Y359168D01*
X45791Y355809D01*
X45500D01*
X44330Y355576D01*
X43337Y354913D01*
X41663D01*
X40670Y355576D01*
X39500Y355809D01*
X39209D01*
X36873Y358145D01*
X36168Y359200D01*
X34845Y360084D01*
X34645Y360429D01*
X34431Y361696D01*
X36168Y363432D01*
X37052Y364755D01*
X37362Y366316D01*
X37052Y367877D01*
X36168Y369200D01*
X34845Y370084D01*
X33952Y370262D01*
X33017Y370955D01*
X32619Y371792D01*
Y372000D01*
X27000D01*
Y373000D01*
X26000D01*
Y378869D01*
X25500D01*
X23924Y378556D01*
X22587Y377663D01*
X22413D01*
X21076Y378556D01*
X19500Y378869D01*
X18509D01*
X17888Y380369D01*
X29243Y391725D01*
X30743Y391103D01*
D02*
G37*
G36*
X60658Y320471D02*
X60545Y318462D01*
X60349Y318267D01*
X59816Y316980D01*
Y315588D01*
X60349Y314301D01*
X61333Y313317D01*
X62620Y312784D01*
X64012D01*
X65299Y313317D01*
X66283Y314301D01*
X66816Y315588D01*
Y316980D01*
X67516Y318028D01*
X69116D01*
X69816Y316980D01*
Y315588D01*
X70349Y314301D01*
X71333Y313317D01*
X72620Y312784D01*
X74012D01*
X75299Y313317D01*
X76283Y314301D01*
X76816Y315588D01*
Y316980D01*
X77516Y318028D01*
X95772D01*
X100400Y313400D01*
X100400Y313400D01*
X101723Y312516D01*
X103284Y312206D01*
X104845Y312516D01*
X106168Y313400D01*
X107449Y314681D01*
X108948Y314060D01*
Y312625D01*
X109152Y311601D01*
X109631Y310500D01*
X109152Y309399D01*
X108948Y308375D01*
Y306125D01*
X109152Y305101D01*
X109631Y304000D01*
X109152Y302899D01*
X108948Y301875D01*
Y299625D01*
X109152Y298601D01*
X109631Y297500D01*
X109152Y296399D01*
X108948Y295375D01*
Y293125D01*
X109152Y292101D01*
X109631Y291000D01*
X109152Y289899D01*
X108948Y288875D01*
Y286625D01*
X109152Y285601D01*
X109631Y284500D01*
X109152Y283399D01*
X108948Y282375D01*
Y280125D01*
X109152Y279101D01*
X109631Y278000D01*
X109152Y276899D01*
X108948Y275875D01*
Y273625D01*
X109152Y272601D01*
X109178Y272543D01*
X108382Y271054D01*
X105193D01*
X96264Y279983D01*
X95354Y280590D01*
X94281Y280804D01*
X49161D01*
X37233Y292733D01*
X37201Y292754D01*
X34753Y295201D01*
X34733Y295233D01*
X31870Y298095D01*
Y311404D01*
X33316Y312646D01*
X34721Y312925D01*
X34864Y313021D01*
X35152Y313078D01*
X36343Y313874D01*
X38632Y316163D01*
X39500D01*
X40422Y316346D01*
X41338Y315879D01*
X41922Y315428D01*
Y310657D01*
X40432Y309168D01*
X39548Y307845D01*
X39238Y306284D01*
X39238Y306284D01*
Y303434D01*
X39238Y303434D01*
X39548Y301873D01*
X40432Y300550D01*
X44191Y296791D01*
Y296500D01*
X44424Y295329D01*
X45087Y294337D01*
X46080Y293674D01*
X47250Y293441D01*
X50750D01*
X51920Y293674D01*
X52913Y294337D01*
X54277Y293678D01*
X54337Y293587D01*
X55674Y292694D01*
X57250Y292381D01*
X58000D01*
Y298000D01*
X59000D01*
Y299000D01*
X64869D01*
Y299500D01*
X64556Y301076D01*
X64341Y301398D01*
X64957Y303175D01*
X65299Y303317D01*
X66283Y304301D01*
X66816Y305588D01*
Y306980D01*
X66283Y308267D01*
X65299Y309251D01*
X64012Y309784D01*
X62620D01*
X61333Y309251D01*
X60349Y308267D01*
X59816Y306980D01*
Y305588D01*
X60010Y305119D01*
X59071Y303619D01*
X57561D01*
X56894Y304359D01*
X56579Y305015D01*
X56816Y305588D01*
Y306980D01*
X56283Y308267D01*
X55299Y309251D01*
X54012Y309784D01*
X52620D01*
X51578Y309352D01*
X50639Y309730D01*
X50078Y310117D01*
Y312451D01*
X50639Y312838D01*
X51578Y313215D01*
X52620Y312784D01*
X54012D01*
X55299Y313317D01*
X56283Y314301D01*
X56816Y315588D01*
Y316980D01*
X56283Y318267D01*
X55299Y319251D01*
X54479Y319590D01*
X54033Y320891D01*
X54040Y321272D01*
X56216Y323448D01*
X57616Y323512D01*
X60658Y320471D01*
D02*
G37*
G36*
X237460Y309000D02*
X255000D01*
Y308000D01*
X256000D01*
Y294960D01*
X272500D01*
X272540Y294960D01*
X274000Y294863D01*
Y145136D01*
X272540Y145040D01*
X272500Y145040D01*
X256000D01*
Y132000D01*
Y118960D01*
X272500D01*
X272540Y118960D01*
X274000Y118863D01*
Y95000D01*
X239000D01*
Y0D01*
X226345D01*
X226197Y1500D01*
X227467Y1752D01*
X229134Y2866D01*
X230248Y4534D01*
X230639Y6500D01*
Y8000D01*
X222500D01*
Y9000D01*
X221500D01*
Y16639D01*
X219500D01*
X217900Y16321D01*
X217842Y16380D01*
X217109Y17631D01*
X217576Y18329D01*
X217809Y19500D01*
Y22500D01*
X217576Y23670D01*
X216913Y24663D01*
X215921Y25326D01*
X214750Y25559D01*
X211250D01*
X210079Y25326D01*
X209087Y24663D01*
X208859Y24322D01*
X207141D01*
X206913Y24663D01*
X205921Y25326D01*
X204750Y25559D01*
X203132D01*
X194540Y34151D01*
X193349Y34947D01*
X191944Y35226D01*
X191000D01*
Y37000D01*
X177000D01*
Y28540D01*
X175960D01*
Y24000D01*
X184000D01*
Y22000D01*
X175960D01*
Y17460D01*
X177000D01*
Y9000D01*
X185809D01*
X188405Y6405D01*
X189595Y5609D01*
X191000Y5329D01*
X198654D01*
X198732Y4939D01*
X199616Y3616D01*
X200939Y2732D01*
X202500Y2422D01*
X208500D01*
X210061Y2732D01*
X211384Y3616D01*
X212268Y4939D01*
X212578Y6500D01*
Y9651D01*
X212861Y9840D01*
X214361Y9038D01*
Y6500D01*
X214753Y4534D01*
X215866Y2866D01*
X217533Y1752D01*
X218803Y1500D01*
X218655Y0D01*
X185571D01*
X184950Y1500D01*
X185467Y2017D01*
X186000Y3304D01*
Y4696D01*
X185467Y5983D01*
X184483Y6967D01*
X183196Y7500D01*
X181804D01*
X180517Y6967D01*
X179533Y5983D01*
X179000Y4696D01*
Y3304D01*
X179533Y2017D01*
X180050Y1500D01*
X179429Y0D01*
X83603D01*
X83469Y155D01*
X82939Y1500D01*
X83326Y2079D01*
X83559Y3250D01*
Y6750D01*
X83326Y7921D01*
X82663Y8913D01*
X82322Y9141D01*
Y10859D01*
X82663Y11087D01*
X83326Y12079D01*
X83559Y13250D01*
Y16750D01*
X83326Y17921D01*
X82663Y18913D01*
X81671Y19576D01*
X80500Y19809D01*
X77500D01*
X76329Y19576D01*
X75337Y18913D01*
X73983Y18967D01*
X72696Y19500D01*
X71304D01*
X70017Y18967D01*
X69033Y17983D01*
X68500Y16696D01*
Y16219D01*
X67044Y15198D01*
X66667Y15354D01*
X65275D01*
X64559Y16681D01*
Y16750D01*
X64326Y17921D01*
X63663Y18913D01*
X62670Y19576D01*
X61500Y19809D01*
X58500D01*
X57330Y19576D01*
X56338Y18913D01*
X56168Y19168D01*
X54845Y20052D01*
X53695Y20281D01*
X53641Y20421D01*
X53502Y21819D01*
X54379Y22405D01*
X55227Y23252D01*
X55879Y23688D01*
X56675Y24879D01*
X56954Y26284D01*
X56675Y27689D01*
X55879Y28879D01*
X54689Y29675D01*
X53284Y29954D01*
X53067D01*
X51663Y29675D01*
X50472Y28879D01*
X50263Y28671D01*
X48618D01*
X48204Y30034D01*
X48322Y30277D01*
X48413Y30337D01*
X49306Y31674D01*
X49619Y33250D01*
Y34000D01*
X44000D01*
X38381D01*
Y33250D01*
X38694Y31674D01*
X39587Y30337D01*
X39678Y30277D01*
X40337Y28913D01*
X39674Y27921D01*
X39441Y26750D01*
Y23250D01*
X39674Y22080D01*
X40189Y21309D01*
X39938Y20438D01*
X39550Y19809D01*
X37500D01*
X37463Y19801D01*
X34053D01*
X33284Y19954D01*
X31879Y19675D01*
X30689Y18879D01*
X29893Y17689D01*
X29613Y16284D01*
X29893Y14879D01*
X30689Y13688D01*
X30842Y13535D01*
X32032Y12740D01*
X33437Y12460D01*
X34598D01*
X34674Y12079D01*
X35337Y11087D01*
X34678Y9723D01*
X34587Y9663D01*
X33694Y8326D01*
X33381Y6750D01*
Y6000D01*
X39000D01*
Y4000D01*
X33381D01*
Y3250D01*
X33694Y1674D01*
X33811Y1500D01*
X33009Y0D01*
X22111D01*
X21708Y772D01*
X21521Y1500D01*
X22306Y2674D01*
X22619Y4250D01*
Y5000D01*
X17000D01*
X11381D01*
Y4250D01*
X11694Y2674D01*
X12479Y1500D01*
X12292Y772D01*
X11889Y0D01*
X0D01*
Y25013D01*
X1500Y25468D01*
X1587Y25337D01*
X2924Y24444D01*
X4500Y24131D01*
X5000D01*
Y30000D01*
X7000D01*
Y24131D01*
X7500D01*
X8582Y24346D01*
X9076Y24444D01*
X10572Y23863D01*
X10689Y23688D01*
X13046Y21331D01*
X13337Y19913D01*
X12674Y18921D01*
X12441Y17750D01*
Y14250D01*
X12674Y13080D01*
X13337Y12087D01*
X12678Y10723D01*
X12587Y10663D01*
X11694Y9326D01*
X11381Y7750D01*
Y7000D01*
X17000D01*
X22619D01*
Y7750D01*
X22306Y9326D01*
X21413Y10663D01*
X21322Y10723D01*
X20663Y12087D01*
X21326Y13079D01*
X21565Y13207D01*
X22588Y12784D01*
X23980D01*
X25266Y13317D01*
X26251Y14301D01*
X26784Y15588D01*
Y16980D01*
X26251Y18267D01*
X25266Y19251D01*
X23980Y19784D01*
X22588D01*
X22303Y19666D01*
X20812Y20672D01*
Y22426D01*
X20533Y23830D01*
X19737Y25021D01*
X15879Y28879D01*
X14689Y29675D01*
X13284Y29954D01*
X13119Y29922D01*
X11619Y31153D01*
Y31750D01*
X11306Y33326D01*
X10413Y34663D01*
X10322Y34723D01*
X9663Y36087D01*
X10326Y37080D01*
X10559Y38250D01*
Y41750D01*
X10326Y42920D01*
X9663Y43913D01*
X9078Y44303D01*
Y45507D01*
X9502Y46626D01*
X10522Y46929D01*
X15297D01*
X15800Y46829D01*
X17205Y47109D01*
X17724Y47456D01*
X18350D01*
X19228Y47631D01*
X19972Y48128D01*
X20469Y48872D01*
X20644Y49750D01*
Y51250D01*
X20469Y52128D01*
X19972Y52872D01*
Y54628D01*
X20469Y55372D01*
X20644Y56250D01*
Y57750D01*
X20469Y58628D01*
X20105Y59174D01*
X19978Y59736D01*
X19988Y60441D01*
X20096Y61005D01*
X20891Y62195D01*
X21170Y63600D01*
Y63680D01*
X22820Y65329D01*
X27410D01*
X28090Y64500D01*
X34200D01*
X40055D01*
X39849Y65534D01*
X39122Y66622D01*
X38034Y67349D01*
X36750Y67604D01*
X35755D01*
X35181Y68990D01*
X39595Y73405D01*
X40391Y74595D01*
X40670Y76000D01*
Y82020D01*
X42171Y82970D01*
X42620Y82784D01*
X44012D01*
X45299Y83317D01*
X46283Y84301D01*
X46816Y85588D01*
Y86980D01*
X46283Y88266D01*
X45299Y89251D01*
X44012Y89784D01*
X42620D01*
X42171Y89598D01*
X40670Y90548D01*
Y92351D01*
X40391Y93756D01*
X39595Y94947D01*
X39451Y95091D01*
X40000Y96184D01*
Y102000D01*
X34497D01*
X34712Y101200D01*
X33629Y99914D01*
X33584Y99895D01*
X33284Y99954D01*
X31879Y99675D01*
X30689Y98879D01*
X29893Y97689D01*
X29743Y96934D01*
X28685Y96738D01*
X28184Y96786D01*
X27384Y97984D01*
X27384Y97984D01*
X26168Y99200D01*
X24845Y100084D01*
X23673Y100317D01*
X23060Y101708D01*
X23782Y102745D01*
X24689Y102925D01*
X25879Y103721D01*
X26675Y104911D01*
X26955Y106316D01*
X26801Y107086D01*
Y111463D01*
X26809Y111500D01*
Y114500D01*
X26576Y115670D01*
X25913Y116663D01*
X24920Y117326D01*
X23750Y117559D01*
X20250D01*
X19079Y117326D01*
X18087Y116663D01*
X16723Y117322D01*
X16663Y117413D01*
X15326Y118306D01*
X13750Y118619D01*
X13000D01*
Y113000D01*
X11000D01*
Y118619D01*
X10250D01*
X8674Y118306D01*
X7491Y117516D01*
X6788Y117692D01*
X5991Y118098D01*
Y122720D01*
X6255Y122931D01*
X7491Y123385D01*
X7872Y123131D01*
X8750Y122956D01*
X10250D01*
X11128Y123131D01*
X12878Y122878D01*
X13966Y122151D01*
X15000Y121945D01*
Y127800D01*
Y133655D01*
X14974Y133650D01*
X13737Y134725D01*
X13671Y134918D01*
Y135000D01*
X13391Y136405D01*
X12595Y137596D01*
X11405Y138391D01*
X10000Y138671D01*
X8595Y138391D01*
X7491Y137654D01*
X7021Y137754D01*
X5991Y138180D01*
Y141121D01*
X6255Y141331D01*
X7491Y141785D01*
X7872Y141531D01*
X8750Y141356D01*
X10250D01*
X11128Y141531D01*
X11872Y142028D01*
X13628D01*
X14372Y141531D01*
X15250Y141356D01*
X16750D01*
X17628Y141531D01*
X18372Y142028D01*
X20128D01*
X20872Y141531D01*
X21750Y141356D01*
X23250D01*
X24128Y141531D01*
X24872Y142028D01*
X25369Y142772D01*
X25544Y143650D01*
Y144276D01*
X25891Y144795D01*
X26170Y146200D01*
Y163180D01*
X27695Y164705D01*
X28491Y165895D01*
X28770Y167300D01*
Y202898D01*
X28670Y203401D01*
Y204285D01*
X29243Y204704D01*
X30164Y204407D01*
X30743Y203944D01*
Y169001D01*
X30968Y167869D01*
X31602Y166921D01*
X31631Y166776D01*
X31706Y166663D01*
X31930Y165540D01*
X32571Y164581D01*
X43057Y154094D01*
X43058Y154094D01*
X46345Y150806D01*
X47081Y150315D01*
X47710Y149713D01*
X47971Y149547D01*
X47667Y147962D01*
X46689Y147768D01*
X46376Y147559D01*
X45250D01*
X44079Y147326D01*
X43087Y146663D01*
X41723Y147322D01*
X41663Y147413D01*
X40326Y148306D01*
X38750Y148619D01*
X38000D01*
Y143000D01*
X37000D01*
Y142000D01*
X31131D01*
Y141500D01*
X31444Y139924D01*
X31585Y139714D01*
X32287Y138500D01*
X31585Y137286D01*
X31444Y137076D01*
X31131Y135500D01*
Y135000D01*
X37000D01*
Y133000D01*
X31131D01*
Y132500D01*
X31444Y130924D01*
X32337Y129587D01*
Y129413D01*
X31444Y128076D01*
X31131Y126500D01*
Y126000D01*
X37000D01*
Y124000D01*
X31131D01*
Y123500D01*
X31444Y121924D01*
X32337Y120587D01*
Y120413D01*
X31444Y119076D01*
X31131Y117500D01*
Y117000D01*
X37000D01*
Y115000D01*
X31131D01*
Y114500D01*
X31444Y112924D01*
X32337Y111587D01*
X33674Y110694D01*
X35250Y110381D01*
X37704D01*
X38106Y108881D01*
X36984Y108233D01*
X35767Y107016D01*
X34906Y105524D01*
X34497Y104000D01*
X41000D01*
X47503D01*
X47094Y105524D01*
X46233Y107016D01*
X45016Y108233D01*
X43524Y109094D01*
X41861Y109540D01*
X41298D01*
X40844Y111040D01*
X41663Y111587D01*
X41723Y111678D01*
X43087Y112337D01*
X44079Y111674D01*
X45250Y111441D01*
X48750D01*
X49921Y111674D01*
X50913Y112337D01*
X51576Y113329D01*
X51809Y114500D01*
Y114618D01*
X52382Y114732D01*
X53705Y115616D01*
X57422Y119333D01*
X58922Y118712D01*
Y108343D01*
X58922Y108343D01*
X59232Y106782D01*
X60116Y105459D01*
X62459Y103116D01*
X62459Y103116D01*
X63782Y102232D01*
X65343Y101922D01*
X75311D01*
X83800Y93432D01*
X83800Y93432D01*
X85123Y92548D01*
X86684Y92238D01*
X101177D01*
X102053Y90738D01*
X101723Y90052D01*
X100400Y89168D01*
X99516Y87845D01*
X99206Y86284D01*
X99516Y84723D01*
X99960Y84059D01*
X99250Y82559D01*
X98080Y82326D01*
X97087Y81663D01*
X96424Y80671D01*
X96191Y79500D01*
Y78826D01*
X95509Y77805D01*
X95230Y76400D01*
Y72000D01*
X88000D01*
Y63540D01*
X86960D01*
Y59000D01*
X95000D01*
X103370D01*
X104540Y59355D01*
X104866Y58866D01*
X106533Y57752D01*
X108500Y57361D01*
X110000D01*
Y65500D01*
X111000D01*
Y66500D01*
X118639D01*
Y68500D01*
X118247Y70466D01*
X117134Y72134D01*
X116092Y72829D01*
X116547Y74330D01*
X126000D01*
X127405Y74609D01*
X128596Y75405D01*
X129391Y76595D01*
X129670Y78000D01*
X129391Y79405D01*
X128596Y80596D01*
X128595D01*
X127405Y81391D01*
X126000Y81671D01*
X114901D01*
X113920Y82326D01*
X112750Y82559D01*
X109250D01*
X108079Y82326D01*
X107775Y82123D01*
X106544Y82320D01*
X106475Y83104D01*
X106918Y83400D01*
X108959Y85441D01*
X109750D01*
X110921Y85674D01*
X111913Y86337D01*
X113277Y85678D01*
X113337Y85587D01*
X114674Y84694D01*
X116250Y84381D01*
X117000D01*
Y90000D01*
X119000D01*
Y84381D01*
X119750D01*
X121326Y84694D01*
X122663Y85587D01*
X123556Y86924D01*
X123575Y87024D01*
X125168Y87340D01*
X125337Y87087D01*
X126329Y86424D01*
X127500Y86191D01*
X127791D01*
X128616Y85366D01*
X129939Y84482D01*
X131500Y84172D01*
X131500Y84172D01*
X137000D01*
Y82500D01*
X146500D01*
Y94000D01*
X145828D01*
Y98000D01*
X146500D01*
Y109500D01*
X137000D01*
Y98000D01*
X137672D01*
Y94000D01*
X137000D01*
Y92328D01*
X133559D01*
Y92750D01*
X133326Y93921D01*
X132663Y94913D01*
X133322Y96277D01*
X133413Y96337D01*
X134306Y97674D01*
X134619Y99250D01*
Y100000D01*
X129000D01*
Y101000D01*
X128000D01*
Y106869D01*
X127500D01*
X125924Y106556D01*
X125101Y106006D01*
X123751Y106905D01*
X123869Y107500D01*
Y108000D01*
X118000D01*
Y110000D01*
X123869D01*
Y110500D01*
X123615Y111777D01*
X124239Y112732D01*
X124655Y113131D01*
X125000D01*
Y119000D01*
X127000D01*
Y113131D01*
X127500D01*
X129076Y113444D01*
X130413Y114337D01*
X130587D01*
X131924Y113444D01*
X133500Y113131D01*
X134000D01*
Y119000D01*
X136000D01*
Y113131D01*
X136500D01*
X138076Y113444D01*
X138286Y113585D01*
X139500Y114287D01*
X140714Y113585D01*
X140924Y113444D01*
X142500Y113131D01*
X143000D01*
Y119000D01*
X144000D01*
Y120000D01*
X149619D01*
Y120518D01*
X150116Y120842D01*
X151086Y121023D01*
X151762Y120012D01*
X153305Y118981D01*
X155125Y118619D01*
X156250D01*
Y125000D01*
X150369D01*
Y123435D01*
X150280Y123344D01*
X148939Y122876D01*
X148413Y123663D01*
X148322Y123723D01*
X147663Y125087D01*
X148326Y126080D01*
X148559Y127250D01*
Y130750D01*
X148326Y131920D01*
X147670Y132901D01*
Y134000D01*
X147391Y135405D01*
X146595Y136595D01*
X145405Y137391D01*
X144000Y137670D01*
X142595Y137391D01*
X141404Y136595D01*
X140609Y135405D01*
X140428Y134498D01*
X139257Y133907D01*
X139032Y133887D01*
X138640Y134152D01*
X138391Y135405D01*
X137596Y136595D01*
X138010Y138122D01*
X140824Y138440D01*
X141923Y138790D01*
X142805Y139534D01*
X142816Y139556D01*
X143429Y139810D01*
X144850Y140900D01*
X145940Y142321D01*
X146625Y143975D01*
X146723Y144722D01*
X146747Y144745D01*
X147222Y145796D01*
X147258Y146949D01*
X148074Y147912D01*
X150429D01*
Y151592D01*
X150646Y151863D01*
X151929Y152657D01*
X152500Y152543D01*
X154637D01*
X155140Y152643D01*
X181771D01*
X181771Y152643D01*
X181771Y152643D01*
X182488Y152643D01*
X183619Y152868D01*
X184395Y153386D01*
X184445Y153393D01*
X186270Y154149D01*
X186311Y154180D01*
X187225Y154362D01*
X188185Y155003D01*
X196204Y163022D01*
X197120Y163022D01*
X197127Y163023D01*
X197133Y163022D01*
X199983D01*
X202670Y162766D01*
X202677Y162745D01*
X203021Y161226D01*
X202508Y160458D01*
X202326Y159541D01*
X202300Y159508D01*
X201544Y157683D01*
X201287Y155725D01*
X201544Y153767D01*
X202046Y152556D01*
X202179Y151471D01*
X202747Y150467D01*
X205369Y147424D01*
X205505Y147317D01*
X205533Y147276D01*
X205500Y147196D01*
Y145804D01*
X206033Y144517D01*
X206972Y143578D01*
X206961Y143333D01*
X206609Y142078D01*
X203291D01*
X202920Y142326D01*
X201750Y142559D01*
X198250D01*
X197079Y142326D01*
X196087Y141663D01*
X195859Y141322D01*
X194141D01*
X193913Y141663D01*
X192920Y142326D01*
X191750Y142559D01*
X188250D01*
X187080Y142326D01*
X186087Y141663D01*
X185424Y140670D01*
X185191Y139500D01*
Y139459D01*
X184366Y138634D01*
X183482Y137311D01*
X183172Y135750D01*
X183172Y135750D01*
Y131679D01*
X182512Y131238D01*
X181710Y130039D01*
X181429Y128625D01*
Y123375D01*
X181710Y121961D01*
X182512Y120761D01*
X183711Y119960D01*
X185125Y119679D01*
X189375D01*
X190789Y119960D01*
X191989Y120761D01*
X192790Y121961D01*
X193071Y123375D01*
Y128625D01*
X192790Y130039D01*
X191989Y131238D01*
X191328Y131679D01*
Y133441D01*
X191750D01*
X192920Y133674D01*
X193913Y134337D01*
X194141Y134678D01*
X195859D01*
X196087Y134337D01*
X197079Y133674D01*
X197083Y133673D01*
X197400Y132081D01*
X197262Y131988D01*
X196231Y130445D01*
X195869Y128625D01*
Y127000D01*
X202750D01*
X209631D01*
Y128625D01*
X209269Y130445D01*
X208238Y131988D01*
X207488Y132489D01*
X207805Y134082D01*
X208561Y134232D01*
X209884Y135116D01*
X210768Y136439D01*
X211078Y138000D01*
X210768Y139561D01*
X209884Y140884D01*
X208962Y141500D01*
X209417Y143000D01*
X209696D01*
X210983Y143533D01*
X211967Y144517D01*
X212500Y145804D01*
Y147196D01*
X211967Y148483D01*
X211950Y148500D01*
X211997Y148898D01*
X212584Y149824D01*
X212878Y150075D01*
X213983Y150533D01*
X214967Y151517D01*
X215084Y151798D01*
X216500Y152000D01*
X216791Y152000D01*
X235500D01*
Y158972D01*
X235614Y159143D01*
X238981D01*
X239033Y159017D01*
X240017Y158033D01*
X241304Y157500D01*
X242696D01*
X243983Y158033D01*
X244967Y159017D01*
X245500Y160304D01*
Y161696D01*
X244967Y162983D01*
X244200Y163750D01*
X244967Y164517D01*
X245500Y165804D01*
Y167196D01*
X244967Y168483D01*
X243983Y169467D01*
X242696Y170000D01*
X241304D01*
X240017Y169467D01*
X239033Y168483D01*
X238981Y168357D01*
X235614D01*
X235500Y168528D01*
Y175500D01*
X217623Y175500D01*
X217675Y175865D01*
X218543Y177000D01*
X235500D01*
Y183818D01*
X235571Y183889D01*
X239161D01*
X240017Y183033D01*
X241304Y182500D01*
X242696D01*
X243983Y183033D01*
X244967Y184017D01*
X245500Y185304D01*
Y186696D01*
X244967Y187983D01*
X244200Y188750D01*
X244967Y189517D01*
X245500Y190804D01*
Y192196D01*
X244967Y193483D01*
X243983Y194467D01*
X242696Y195000D01*
X241304D01*
X240017Y194467D01*
X239033Y193483D01*
X238882Y193118D01*
X236077D01*
X235500Y193695D01*
Y200500D01*
X216500D01*
Y189500D01*
X228997D01*
X229414Y188764D01*
X228975Y188000D01*
X216500D01*
X216500Y188000D01*
Y188000D01*
X215000Y187874D01*
X214696Y188000D01*
X213304D01*
X212017Y187467D01*
X211807Y187256D01*
X210642Y188213D01*
X213293Y192169D01*
X213736Y193234D01*
X213737Y194286D01*
X213907Y194696D01*
X213914Y194747D01*
X214432Y195522D01*
X214657Y196654D01*
Y197644D01*
X214655Y197651D01*
X214657Y197657D01*
Y207341D01*
X214432Y208472D01*
X213791Y209431D01*
X213934Y210657D01*
X215228Y211456D01*
X216500Y210929D01*
Y202000D01*
X235500D01*
Y208972D01*
X235614Y209143D01*
X238981D01*
X239033Y209017D01*
X240017Y208033D01*
X241304Y207500D01*
X242696D01*
X243983Y208033D01*
X244967Y209017D01*
X245500Y210304D01*
Y211696D01*
X244967Y212983D01*
X244200Y213750D01*
X244967Y214517D01*
X245500Y215804D01*
Y217196D01*
X244967Y218483D01*
X243983Y219467D01*
X242696Y220000D01*
X241304D01*
X240017Y219467D01*
X239033Y218483D01*
X238981Y218357D01*
X236929D01*
X235500Y219809D01*
X235500Y224891D01*
X236540Y225960D01*
X236540Y226569D01*
Y231500D01*
X226000D01*
X215460D01*
Y225960D01*
X216500Y224891D01*
X216500Y224460D01*
Y218071D01*
X215000Y217450D01*
X214983Y217467D01*
X213696Y218000D01*
X212500Y218804D01*
Y220196D01*
X211967Y221483D01*
X210983Y222467D01*
X209696Y223000D01*
X208304D01*
X207017Y222467D01*
X206033Y221483D01*
X205500Y220196D01*
Y218804D01*
X205696Y218330D01*
X205683Y217906D01*
X204583Y216472D01*
X203827Y214647D01*
X203569Y212689D01*
X203712Y211603D01*
X203528Y210505D01*
X203788Y209381D01*
X205016Y206654D01*
X205443Y206055D01*
Y197658D01*
X205443Y197657D01*
X205443Y197006D01*
X202095Y192010D01*
X200480Y191757D01*
X173843D01*
X172712Y191532D01*
X172135Y191147D01*
X171443Y191009D01*
X170484Y190368D01*
X159473Y179357D01*
X155140D01*
X154637Y179457D01*
X152500D01*
X152029Y179363D01*
X151290Y180746D01*
X158091Y187546D01*
X158732Y188505D01*
X158957Y189637D01*
Y202007D01*
X158967Y202017D01*
X159500Y203304D01*
Y204696D01*
X158967Y205983D01*
X158377Y206573D01*
X158127Y207500D01*
X158377Y208427D01*
X158967Y209017D01*
X159500Y210304D01*
Y210535D01*
X162683Y213717D01*
X163290Y214627D01*
X163504Y215700D01*
Y217571D01*
X164890Y218145D01*
X174042Y208992D01*
X174033Y208983D01*
X173500Y207696D01*
Y206304D01*
X174033Y205017D01*
X175017Y204033D01*
X176304Y203500D01*
X177696D01*
X178983Y204033D01*
X179967Y205017D01*
X180500Y206304D01*
Y207696D01*
X179967Y208983D01*
X179799Y209151D01*
Y210005D01*
X179585Y211078D01*
X178977Y211988D01*
X167804Y223161D01*
Y237518D01*
X169304Y238512D01*
X169625Y238449D01*
X182375D01*
X183399Y238652D01*
X183866Y238964D01*
X189448D01*
X190077Y238839D01*
X191751D01*
X192087Y238337D01*
X192714Y237918D01*
Y235213D01*
X192500Y234696D01*
Y233304D01*
X193033Y232017D01*
X194017Y231033D01*
X195304Y230500D01*
X196696D01*
X197983Y231033D01*
X198967Y232017D01*
X199500Y233304D01*
Y234696D01*
X199036Y235817D01*
Y237751D01*
X199913Y238337D01*
X200141Y238678D01*
X201859D01*
X202087Y238337D01*
X203079Y237674D01*
X204250Y237441D01*
X207750D01*
X208920Y237674D01*
X209913Y238337D01*
X210576Y239329D01*
X210809Y240500D01*
Y243500D01*
X210576Y244671D01*
X210328Y245041D01*
Y246922D01*
X211000D01*
X212561Y247232D01*
X213884Y248116D01*
X214768Y249439D01*
X215078Y251000D01*
X214768Y252561D01*
X213884Y253884D01*
X212561Y254768D01*
X211000Y255078D01*
X210729D01*
X210347Y255668D01*
X210074Y256578D01*
X210576Y257330D01*
X210809Y258500D01*
Y260343D01*
X213960Y263495D01*
X215460Y263460D01*
X216500Y262391D01*
X216500Y261960D01*
Y252000D01*
X235500D01*
Y253482D01*
X261231D01*
X262000Y253330D01*
X263405Y253609D01*
X264596Y254405D01*
X265391Y255595D01*
X265671Y257000D01*
X265391Y258405D01*
X264596Y259595D01*
X264442Y259748D01*
X263252Y260544D01*
X261847Y260824D01*
X236561D01*
X235500Y261884D01*
X235500Y262391D01*
X236540Y263460D01*
X236540Y264069D01*
Y269000D01*
X226000D01*
Y271000D01*
X236540D01*
Y275114D01*
X237084D01*
X238839Y275463D01*
X240328Y276458D01*
X241323Y277946D01*
X241672Y279702D01*
Y280403D01*
X243058Y280977D01*
X250017Y274017D01*
X250927Y273410D01*
X252000Y273196D01*
X259000D01*
X260073Y273410D01*
X260983Y274017D01*
X264361Y277396D01*
X264969Y278306D01*
X265182Y279379D01*
Y280621D01*
X264969Y281694D01*
X264361Y282604D01*
X256500Y290465D01*
Y290696D01*
X255967Y291983D01*
X254983Y292967D01*
X253696Y293500D01*
X253793Y294960D01*
X254000D01*
Y307000D01*
X237460D01*
Y300465D01*
X236074Y299891D01*
X234733Y301233D01*
X233823Y301840D01*
X232750Y302054D01*
X213240D01*
X212167Y301840D01*
X211849Y301628D01*
X211347Y301905D01*
X210634Y302620D01*
X210809Y303500D01*
Y306500D01*
X210576Y307670D01*
X210328Y308041D01*
Y310959D01*
X210576Y311329D01*
X210809Y312500D01*
Y315500D01*
X210576Y316670D01*
X209913Y317663D01*
Y318934D01*
X211057Y320196D01*
X237460D01*
Y309000D01*
D02*
G37*
G36*
X27747Y290046D02*
X27767Y290014D01*
X32014Y285767D01*
X32046Y285746D01*
X43352Y274440D01*
X42779Y273054D01*
X36965D01*
X35892Y272840D01*
X34982Y272233D01*
X1500Y238750D01*
X0Y239372D01*
Y276995D01*
X1500Y277143D01*
X1609Y276595D01*
X2404Y275405D01*
X2504Y275305D01*
X3695Y274509D01*
X5100Y274230D01*
X5726D01*
X6128Y273628D01*
X6872Y273131D01*
X7750Y272956D01*
X9250D01*
X10128Y273131D01*
X11878Y272878D01*
X12966Y272151D01*
X14000Y271945D01*
Y277800D01*
X16000D01*
Y271945D01*
X17034Y272151D01*
X17052Y272163D01*
X18250Y272809D01*
X19448Y272163D01*
X19466Y272151D01*
X20500Y271945D01*
Y277800D01*
X21500D01*
Y278800D01*
X25605D01*
Y280350D01*
X25349Y281634D01*
X24622Y282722D01*
X23534Y283449D01*
X22577Y283639D01*
X22127Y284513D01*
X22021Y285205D01*
X24095Y287279D01*
X24891Y288470D01*
X25171Y289874D01*
Y290662D01*
X26556Y291236D01*
X27747Y290046D01*
D02*
G37*
G36*
X156196Y318700D02*
Y307000D01*
X156410Y305927D01*
X157017Y305017D01*
X163267Y298767D01*
X164177Y298160D01*
X165250Y297946D01*
X165268D01*
X166101Y296446D01*
X165888Y295375D01*
Y295250D01*
X176000D01*
Y293250D01*
X165888D01*
Y293125D01*
X166173Y291695D01*
X166983Y290483D01*
X167369Y290224D01*
X167152Y289899D01*
X166949Y288875D01*
Y286625D01*
X167152Y285601D01*
X167631Y284500D01*
X167152Y283399D01*
X166949Y282375D01*
Y280125D01*
X167152Y279101D01*
X167631Y278000D01*
X167152Y276899D01*
X166949Y275875D01*
Y273625D01*
X167152Y272601D01*
X167631Y271500D01*
X167152Y270399D01*
X166949Y269375D01*
Y267125D01*
X167152Y266101D01*
X167732Y265233D01*
Y264767D01*
X167152Y263899D01*
X166949Y262875D01*
Y260625D01*
X167152Y259601D01*
X167631Y258500D01*
X167152Y257399D01*
X166949Y256375D01*
Y254138D01*
X166920Y254110D01*
X165563Y253402D01*
X135733Y283233D01*
X135413Y283446D01*
X135868Y284946D01*
X145750D01*
X146823Y285160D01*
X147733Y285767D01*
X151465Y289500D01*
X151696D01*
X152983Y290033D01*
X153967Y291017D01*
X154500Y292304D01*
Y293696D01*
X153967Y294983D01*
X152983Y295967D01*
X151696Y296500D01*
X150304D01*
X149017Y295967D01*
X148033Y294983D01*
X147500Y293696D01*
Y293465D01*
X144589Y290554D01*
X142368D01*
X141913Y292054D01*
X142233Y292267D01*
X148465Y298500D01*
X148696D01*
X149983Y299033D01*
X150967Y300017D01*
X151500Y301304D01*
Y302696D01*
X150967Y303983D01*
X149983Y304967D01*
X148696Y305500D01*
X147304D01*
X146017Y304967D01*
X145019Y306054D01*
X152983Y314017D01*
X153590Y314927D01*
X153804Y316000D01*
Y318624D01*
X154340Y319427D01*
X154374Y319598D01*
X154696Y319724D01*
X156196Y318700D01*
D02*
G37*
G36*
X157896Y246492D02*
Y242572D01*
X156396Y242117D01*
X155884Y242884D01*
X154561Y243768D01*
X153000Y244078D01*
X151439Y243768D01*
X150116Y242884D01*
X149282Y241636D01*
X148733Y241561D01*
X148267D01*
X147718Y241636D01*
X146884Y242884D01*
X145561Y243768D01*
X144000Y244078D01*
X142439Y243768D01*
X141250Y242973D01*
X140061Y243768D01*
X138500Y244078D01*
X136939Y243768D01*
X135616Y242884D01*
X133116Y240384D01*
X132232Y239061D01*
X131922Y237500D01*
X131922Y237500D01*
Y235693D01*
X130523Y235060D01*
X129881Y235434D01*
X128576Y236306D01*
X127000Y236619D01*
X126928D01*
X126473Y238119D01*
X127017Y238483D01*
X127827Y239695D01*
X128112Y241125D01*
Y241250D01*
X119000D01*
Y237388D01*
X120844D01*
X121299Y235888D01*
X120587Y235413D01*
X120527Y235322D01*
X119163Y234663D01*
X118171Y235326D01*
X117000Y235559D01*
X113500D01*
X112330Y235326D01*
X111337Y234663D01*
X110674Y233671D01*
X110441Y232500D01*
Y229500D01*
X110674Y228330D01*
X111172Y227585D01*
Y225415D01*
X110674Y224671D01*
X110441Y223500D01*
Y220500D01*
X110674Y219329D01*
X110742Y219228D01*
X109577Y218271D01*
X101257Y226592D01*
X101257Y229221D01*
X101032Y230352D01*
X100513Y231128D01*
X100507Y231178D01*
X100405Y231425D01*
X100433Y232430D01*
X100021Y233508D01*
X97701Y237200D01*
X97557Y237353D01*
X97465Y237541D01*
X97298Y237762D01*
X96436Y238528D01*
X95967Y238691D01*
X96219Y240191D01*
X97500D01*
X98671Y240424D01*
X99663Y241087D01*
X100326Y242080D01*
X100408Y242493D01*
X103163D01*
X104568Y242772D01*
X105758Y243568D01*
X105912Y243721D01*
X106707Y244911D01*
X108117Y244527D01*
X107888Y243375D01*
Y243250D01*
X128112D01*
Y243375D01*
X127827Y244805D01*
X127017Y246017D01*
X126630Y246276D01*
X126848Y246601D01*
X127051Y247625D01*
Y249875D01*
X126848Y250899D01*
X126369Y252000D01*
X126848Y253101D01*
X127051Y254125D01*
Y256375D01*
X126848Y257399D01*
X126369Y258500D01*
X126848Y259601D01*
X127051Y260625D01*
Y262875D01*
X126848Y263899D01*
X126369Y265000D01*
X126848Y266101D01*
X127051Y267125D01*
Y269375D01*
X126848Y270399D01*
X126822Y270457D01*
X127618Y271946D01*
X132442D01*
X157896Y246492D01*
D02*
G37*
G36*
X52071Y232855D02*
X53340Y231784D01*
X53381Y231181D01*
Y231000D01*
X59000D01*
Y230000D01*
X60000D01*
Y224131D01*
X60500D01*
X62076Y224444D01*
X63413Y225337D01*
X64243Y226580D01*
X64353Y226596D01*
X65743Y225787D01*
Y219422D01*
X64893Y218855D01*
X63501D01*
X62215Y218322D01*
X61230Y217337D01*
X60399Y217714D01*
X59453Y217965D01*
X58852Y218749D01*
X57853Y219326D01*
X56737Y219704D01*
X55977Y219804D01*
X55849Y219830D01*
X55241Y219957D01*
X55238Y219957D01*
X55225Y219954D01*
X55211Y219957D01*
X45113D01*
X43981Y219732D01*
X43206Y219214D01*
X43155Y219207D01*
X41330Y218451D01*
X41289Y218420D01*
X40375Y218238D01*
X39415Y217597D01*
X38284Y216465D01*
X36784Y217012D01*
X36251Y218299D01*
X36378Y219859D01*
X41233Y224714D01*
X41321Y224847D01*
X41924Y224444D01*
X43500Y224131D01*
X44000D01*
Y230000D01*
X45000D01*
Y231000D01*
X50619D01*
Y231750D01*
X50578Y231958D01*
X51879Y232893D01*
X52071Y232855D01*
D02*
G37*
G36*
X18906Y246105D02*
X18729Y245216D01*
Y244655D01*
X18329Y244576D01*
X17337Y243913D01*
X16674Y242920D01*
X16441Y241750D01*
Y238250D01*
X16674Y237080D01*
X17337Y236087D01*
X16678Y234723D01*
X16587Y234663D01*
X15694Y233326D01*
X15381Y231750D01*
Y231000D01*
X21000D01*
Y229000D01*
X15381D01*
Y228250D01*
X15694Y226674D01*
X16137Y226012D01*
X16140Y225968D01*
X15486Y224407D01*
X15079Y224326D01*
X14087Y223663D01*
X12723Y224322D01*
X12663Y224413D01*
X11326Y225306D01*
X9750Y225619D01*
X9000D01*
Y220000D01*
X7000D01*
Y225619D01*
X6250D01*
X6213Y225612D01*
X5054Y226563D01*
Y234374D01*
X17524Y246844D01*
X18906Y246105D01*
D02*
G37*
G36*
X92043Y228885D02*
X92043Y226112D01*
X92268Y224981D01*
X92786Y224205D01*
X92793Y224155D01*
X93549Y222330D01*
X93580Y222289D01*
X93696Y221707D01*
X93698Y221685D01*
X93157Y220581D01*
X92801Y220113D01*
X89051Y219749D01*
X87947Y219415D01*
X87097Y218720D01*
X86035Y218279D01*
X84468Y217077D01*
X83266Y215511D01*
X82510Y213686D01*
X82393Y212799D01*
X80810Y212261D01*
X74957Y218114D01*
Y231743D01*
X77100Y231743D01*
X90237D01*
X92043Y228885D01*
D02*
G37*
G36*
X149924Y215444D02*
X151500Y215131D01*
X153205D01*
X153681Y213631D01*
X153033Y212983D01*
X152500Y211696D01*
Y210304D01*
X153033Y209017D01*
X153623Y208427D01*
X153873Y207500D01*
X153623Y206573D01*
X153033Y205983D01*
X152500Y204696D01*
Y203304D01*
X153033Y202017D01*
X153043Y202007D01*
Y190862D01*
X150000Y187819D01*
X148500Y188440D01*
Y188696D01*
X147967Y189983D01*
X146983Y190967D01*
X145696Y191500D01*
X144304D01*
X143017Y190967D01*
X142769Y190718D01*
X141567Y190837D01*
X138713Y193691D01*
X139334Y195191D01*
X141500D01*
X142670Y195424D01*
X143663Y196087D01*
X144326Y197080D01*
X144494Y197926D01*
X146597D01*
X148002Y198206D01*
X149192Y199002D01*
X149345Y199154D01*
X150141Y200345D01*
X150421Y201750D01*
X150141Y203155D01*
X149345Y204345D01*
X148155Y205141D01*
X146750Y205420D01*
X146199Y205311D01*
X145775Y205695D01*
X145326Y206632D01*
X145324Y206768D01*
X145619Y208250D01*
Y209000D01*
X140000D01*
Y211000D01*
X145619D01*
Y211750D01*
X145306Y213326D01*
X145102Y213631D01*
X145280Y214300D01*
X145857Y215202D01*
X147076Y215444D01*
X148413Y216337D01*
X148587D01*
X149924Y215444D01*
D02*
G37*
G36*
X92033Y157445D02*
X94290Y156882D01*
X102284Y148888D01*
X103244Y148247D01*
X103244Y148247D01*
X104230Y147958D01*
X104599Y147590D01*
X104994Y147105D01*
X105266Y146225D01*
X105907Y145266D01*
X112069Y139103D01*
X113029Y138462D01*
X113943Y138280D01*
X113984Y138249D01*
X115808Y137493D01*
X115859Y137486D01*
X116635Y136968D01*
X117766Y136743D01*
X119200Y136743D01*
X119215Y136746D01*
X119230Y136743D01*
X119747Y136745D01*
X120776Y135460D01*
X120076Y134556D01*
X118500Y134869D01*
X118000D01*
Y129000D01*
X116000D01*
Y134869D01*
X115500D01*
X113924Y134556D01*
X112587Y133663D01*
X112413D01*
X111076Y134556D01*
X109500Y134869D01*
X109000D01*
Y129000D01*
X107000D01*
Y134869D01*
X106500D01*
X104924Y134556D01*
X103587Y133663D01*
X102694Y132326D01*
X102381Y130750D01*
Y129415D01*
X100881Y128803D01*
X99995Y129395D01*
X98434Y129705D01*
X96874Y129395D01*
X96174Y128927D01*
X94926Y129195D01*
X94528Y129387D01*
X94458Y129447D01*
X93913Y130263D01*
X93795Y130341D01*
Y133259D01*
X93913Y133337D01*
X94576Y134330D01*
X94809Y135500D01*
Y135752D01*
X94887Y135870D01*
X96200Y137182D01*
X96200Y137182D01*
X97084Y138505D01*
X97395Y140066D01*
Y146316D01*
X97084Y147877D01*
X96200Y149200D01*
X94877Y150084D01*
X93316Y150394D01*
X91755Y150084D01*
X90432Y149200D01*
X89548Y147877D01*
X89238Y146316D01*
Y141755D01*
X89041Y141559D01*
X88250D01*
X87079Y141326D01*
X86087Y140663D01*
X84723Y141322D01*
X84663Y141413D01*
X83326Y142306D01*
X81750Y142619D01*
X81000D01*
Y137000D01*
X80000D01*
Y136000D01*
X74131D01*
Y135500D01*
X74444Y133924D01*
X75337Y132587D01*
X76102Y132077D01*
X76237Y130436D01*
X76204Y130341D01*
X76087Y130263D01*
X75424Y129271D01*
X73984Y129381D01*
X73696Y129500D01*
X72304D01*
X71017Y128967D01*
X70033Y127983D01*
X69500Y126696D01*
Y125304D01*
X70033Y124017D01*
X71017Y123033D01*
X72304Y122500D01*
X73696D01*
X74983Y123033D01*
X76087Y122937D01*
X76542Y122633D01*
X76543Y122629D01*
X76543Y120971D01*
X76542Y120967D01*
X76087Y120663D01*
X75615Y119957D01*
X73993D01*
X73983Y119967D01*
X72696Y120500D01*
X71304D01*
X70017Y119967D01*
X69033Y118983D01*
X68500Y117696D01*
X67078Y117885D01*
Y128861D01*
X67078Y128861D01*
X66768Y130422D01*
X65884Y131745D01*
X65884Y131745D01*
X58745Y138884D01*
X57422Y139768D01*
X55861Y140078D01*
X55861Y140078D01*
X54903D01*
X54640Y140419D01*
X54377Y141674D01*
X55238Y142535D01*
X56122Y143858D01*
X56433Y145419D01*
X56421Y145476D01*
X57663Y146921D01*
X61437Y146751D01*
X61619Y146779D01*
X61800Y146743D01*
X66988Y146743D01*
X69782Y145384D01*
X70898Y145092D01*
X71426Y145164D01*
X71869Y144868D01*
X73000Y144643D01*
X74854D01*
X75986Y144868D01*
X76562Y145253D01*
X77254Y145391D01*
X78213Y146032D01*
X79868Y147687D01*
X80018Y147911D01*
X81796Y148207D01*
X81867Y148183D01*
X82017Y148033D01*
X83304Y147500D01*
X84696D01*
X85983Y148033D01*
X86967Y149017D01*
X87500Y150304D01*
Y151696D01*
X87493Y151712D01*
X88496Y153212D01*
X88729D01*
Y156912D01*
X89976Y157850D01*
X90229Y157895D01*
X92033Y157445D01*
D02*
G37*
G36*
X4017Y100017D02*
X4927Y99410D01*
X6000Y99196D01*
X8811D01*
X9323Y98238D01*
X9480Y97696D01*
X9206Y96316D01*
Y94966D01*
X9205Y94966D01*
X9516Y93405D01*
X10400Y92082D01*
X13441Y89041D01*
Y88250D01*
X13674Y87079D01*
X14337Y86087D01*
X13678Y84723D01*
X13587Y84663D01*
X12694Y83326D01*
X12381Y81750D01*
Y81000D01*
X18000D01*
Y80000D01*
X19000D01*
Y74131D01*
X19500D01*
X21076Y74444D01*
X22413Y75337D01*
X23587D01*
X24924Y74444D01*
X26301Y74170D01*
X26153Y72670D01*
X21300D01*
X19895Y72391D01*
X18705Y71595D01*
X14905Y67796D01*
X14224Y66776D01*
X13876Y66544D01*
X13250D01*
X12372Y66369D01*
X11628Y65872D01*
X11131Y65128D01*
X10956Y64250D01*
Y62750D01*
X10990Y62578D01*
X10080Y61208D01*
X9876Y61078D01*
X7222D01*
X5661Y60768D01*
X4338Y59884D01*
X4338Y59884D01*
X1500Y57046D01*
X0Y57667D01*
Y101968D01*
X341Y102212D01*
X1500Y102535D01*
X4017Y100017D01*
D02*
G37*
%LPC*%
G36*
X84000Y454500D02*
X77361D01*
Y452500D01*
X77752Y450533D01*
X78866Y448866D01*
X80534Y447752D01*
X82500Y447361D01*
X84000D01*
Y454500D01*
D02*
G37*
G36*
X192000Y460588D02*
X181250D01*
X181102Y460559D01*
X179250D01*
X178079Y460326D01*
X177087Y459663D01*
X176859Y459322D01*
X175141D01*
X174913Y459663D01*
X173921Y460326D01*
X172750Y460559D01*
X169250D01*
X168079Y460326D01*
X167087Y459663D01*
X166424Y458671D01*
X166191Y457500D01*
Y456826D01*
X165509Y455805D01*
X165229Y454400D01*
Y449000D01*
X158000D01*
Y440540D01*
X156960D01*
Y436000D01*
X165000D01*
X173040D01*
Y436900D01*
X174540Y437355D01*
X174866Y436866D01*
X176534Y435752D01*
X178500Y435361D01*
X180000D01*
Y443500D01*
X181000D01*
Y444500D01*
X188639D01*
Y446500D01*
X188248Y448466D01*
X187282Y449912D01*
X187533Y450783D01*
X187921Y451412D01*
X192000D01*
X193756Y451761D01*
X195244Y452756D01*
X196239Y454244D01*
X196588Y456000D01*
X196239Y457756D01*
X195244Y459244D01*
X193756Y460239D01*
X192000Y460588D01*
D02*
G37*
G36*
X128639Y454500D02*
X122000D01*
Y447361D01*
X123500D01*
X125466Y447752D01*
X127134Y448866D01*
X128247Y450533D01*
X128639Y452500D01*
Y454500D01*
D02*
G37*
G36*
X188639Y442500D02*
X182000D01*
Y435361D01*
X183500D01*
X185466Y435752D01*
X187134Y436866D01*
X188248Y438534D01*
X188639Y440500D01*
Y442500D01*
D02*
G37*
G36*
X217118Y460500D02*
X212882D01*
X208729Y459674D01*
X204816Y458053D01*
X201295Y455700D01*
X198300Y452705D01*
X195947Y449184D01*
X194326Y445271D01*
X193500Y441118D01*
Y436882D01*
X194326Y432729D01*
X195947Y428816D01*
X198300Y425295D01*
X201295Y422300D01*
X204816Y419947D01*
X208729Y418326D01*
X212882Y417500D01*
X217118D01*
X221271Y418326D01*
X225184Y419947D01*
X228705Y422300D01*
X231700Y425295D01*
X234053Y428816D01*
X235674Y432729D01*
X236500Y436882D01*
Y441118D01*
X235674Y445271D01*
X234053Y449184D01*
X231700Y452705D01*
X228705Y455700D01*
X225184Y458053D01*
X221271Y459674D01*
X217118Y460500D01*
D02*
G37*
G36*
X173040Y434000D02*
X165000D01*
X156960D01*
Y429460D01*
X158000D01*
Y421000D01*
X164557D01*
X165000Y420912D01*
X167500D01*
X167943Y421000D01*
X172000D01*
Y421912D01*
X174750D01*
X175616Y420616D01*
X176412Y420084D01*
Y419000D01*
X176761Y417244D01*
X177756Y415756D01*
X179244Y414761D01*
X181000Y414412D01*
X182756Y414761D01*
X184244Y415756D01*
X185239Y417244D01*
X185588Y419000D01*
Y420084D01*
X186384Y420616D01*
X187268Y421939D01*
X187578Y423500D01*
Y429500D01*
X187268Y431061D01*
X186384Y432384D01*
X185061Y433268D01*
X183500Y433578D01*
X178500D01*
X176939Y433268D01*
X175616Y432384D01*
X174750Y431088D01*
X173040D01*
Y434000D01*
D02*
G37*
G36*
X245094Y423500D02*
X242906D01*
X240884Y422663D01*
X239337Y421115D01*
X238500Y419094D01*
Y416906D01*
X239337Y414884D01*
X239922Y414300D01*
Y411461D01*
X238701Y410839D01*
X238422Y410796D01*
X237013Y411076D01*
X236955Y411134D01*
X235632Y412018D01*
X234071Y412328D01*
X234071Y412328D01*
X226000D01*
X224439Y412018D01*
X224112Y411799D01*
X219500D01*
X218525Y411605D01*
X217698Y411052D01*
X217145Y410225D01*
X216951Y409250D01*
Y407250D01*
X217145Y406274D01*
X217698Y405448D01*
Y404552D01*
X217145Y403725D01*
X216951Y402750D01*
Y400750D01*
X217145Y399775D01*
X217698Y398948D01*
Y398052D01*
X217145Y397225D01*
X216951Y396250D01*
Y394250D01*
X217145Y393274D01*
X217698Y392448D01*
Y391552D01*
X217145Y390725D01*
X216951Y389750D01*
Y387750D01*
X217096Y387020D01*
X216655Y386139D01*
X216179Y385521D01*
X214066D01*
X212662Y385241D01*
X211471Y384445D01*
X211057Y384031D01*
X210405Y383595D01*
X209609Y382405D01*
X209329Y381000D01*
X209609Y379595D01*
X210405Y378405D01*
X211546Y377642D01*
X211598Y377600D01*
X212020Y375995D01*
X210057Y374031D01*
X209405Y373595D01*
X208609Y372405D01*
X208330Y371000D01*
X208609Y369595D01*
X209405Y368405D01*
X210595Y367609D01*
X212000Y367329D01*
X212216D01*
X213621Y367609D01*
X214812Y368405D01*
X214917Y368510D01*
X216532Y368032D01*
X216778Y367272D01*
X215899Y366021D01*
X215566D01*
X214162Y365741D01*
X212971Y364945D01*
X212057Y364031D01*
X211405Y363595D01*
X210609Y362405D01*
X210329Y361000D01*
X209116Y359571D01*
X207712Y359291D01*
X206521Y358495D01*
X206057Y358031D01*
X205404Y357595D01*
X204609Y356405D01*
X204329Y355000D01*
X204609Y353595D01*
X205404Y352405D01*
X206595Y351609D01*
X208000Y351329D01*
X208216D01*
X209621Y351609D01*
X210550Y352229D01*
X215815D01*
X216951Y350750D01*
Y348750D01*
X217145Y347775D01*
X217698Y346948D01*
X218525Y346395D01*
X219500Y346201D01*
X226222D01*
X226875Y346071D01*
X240485D01*
X241080Y345674D01*
X242250Y345441D01*
X245750D01*
X246921Y345674D01*
X247913Y346337D01*
X248141Y346678D01*
X249859D01*
X250087Y346337D01*
X251080Y345674D01*
X252250Y345441D01*
X255750D01*
X256921Y345674D01*
X257913Y346337D01*
X258576Y347329D01*
X258809Y348500D01*
Y351500D01*
X258576Y352671D01*
X257913Y353663D01*
X257796Y353741D01*
Y359875D01*
X257771Y360000D01*
X257796Y360125D01*
Y363259D01*
X257913Y363337D01*
X258576Y364329D01*
X258809Y365500D01*
Y368500D01*
X258576Y369670D01*
X257913Y370663D01*
X256921Y371326D01*
X255750Y371559D01*
X252250D01*
X251079Y371326D01*
X250087Y370663D01*
X249859Y370322D01*
X248141D01*
X247913Y370663D01*
X246921Y371326D01*
X245750Y371559D01*
X242250D01*
X241080Y371326D01*
X240087Y370663D01*
X239973Y370492D01*
X238209Y370352D01*
X237733Y370829D01*
X236823Y371437D01*
X235750Y371650D01*
X235060D01*
X234590Y372455D01*
X234387Y373074D01*
X234855Y373774D01*
X235049Y374750D01*
Y376503D01*
X235639Y376926D01*
X236493Y377180D01*
X236764Y376909D01*
X237723Y376268D01*
X238854Y376043D01*
X239615D01*
X240087Y375337D01*
X241080Y374674D01*
X242250Y374441D01*
X245750D01*
X246921Y374674D01*
X247913Y375337D01*
X248141Y375678D01*
X249859D01*
X250087Y375337D01*
X251079Y374674D01*
X252250Y374441D01*
X255750D01*
X256921Y374674D01*
X257291Y374922D01*
X260507D01*
X260674Y374080D01*
X260922Y373709D01*
Y369000D01*
X261232Y367439D01*
X262116Y366116D01*
X263439Y365232D01*
X265000Y364922D01*
X266561Y365232D01*
X267884Y366116D01*
X268768Y367439D01*
X269078Y369000D01*
Y373709D01*
X269326Y374080D01*
X269559Y375250D01*
Y378750D01*
X269326Y379921D01*
X268663Y380913D01*
X268322Y381141D01*
Y382859D01*
X268663Y383087D01*
X269326Y384079D01*
X269559Y385250D01*
Y388750D01*
X269326Y389921D01*
X268663Y390913D01*
X267670Y391576D01*
X266500Y391809D01*
X263500D01*
X262330Y391576D01*
X261369Y390934D01*
X260472D01*
X259634Y391101D01*
X258288D01*
X257913Y391663D01*
Y393224D01*
X259031Y394259D01*
X259054Y394250D01*
X260446D01*
X260928Y394450D01*
X263458D01*
X263500Y394441D01*
X266500D01*
X267670Y394674D01*
X268663Y395337D01*
X269326Y396329D01*
X269559Y397500D01*
Y401000D01*
X269326Y402170D01*
X268663Y403163D01*
X268322Y403391D01*
Y405109D01*
X268663Y405337D01*
X269326Y406329D01*
X269559Y407500D01*
Y411000D01*
X269326Y412170D01*
X269078Y412541D01*
Y417000D01*
X268768Y418561D01*
X267884Y419884D01*
X266561Y420768D01*
X265000Y421078D01*
X263439Y420768D01*
X262116Y419884D01*
X261232Y418561D01*
X260922Y417000D01*
Y412541D01*
X260674Y412170D01*
X260441Y411000D01*
Y410451D01*
X258941Y409996D01*
X258663Y410413D01*
X257326Y411306D01*
X255750Y411619D01*
X255000D01*
Y406000D01*
X253000D01*
Y411619D01*
X252250D01*
X250674Y411306D01*
X249578Y410574D01*
X248668Y410846D01*
X248078Y411228D01*
Y414300D01*
X248663Y414884D01*
X249500Y416906D01*
Y419094D01*
X248663Y421115D01*
X247115Y422663D01*
X245094Y423500D01*
D02*
G37*
G36*
X174500Y412859D02*
X169000D01*
Y409250D01*
X178109D01*
X177835Y410631D01*
X177052Y411802D01*
X175881Y412584D01*
X174500Y412859D01*
D02*
G37*
G36*
X167000D02*
X161500D01*
X160119Y412584D01*
X158948Y411802D01*
X158165Y410631D01*
X157891Y409250D01*
X167000D01*
Y412859D01*
D02*
G37*
G36*
X130500Y413639D02*
X128500D01*
X126533Y413248D01*
X124866Y412134D01*
X123752Y410466D01*
X123361Y408500D01*
Y407000D01*
X130500D01*
Y413639D01*
D02*
G37*
G36*
X120619Y410000D02*
X116000D01*
Y405131D01*
X116500D01*
X118076Y405444D01*
X119413Y406337D01*
X120306Y407674D01*
X120619Y409250D01*
Y410000D01*
D02*
G37*
G36*
X178109Y407250D02*
X157891D01*
X158165Y405869D01*
X158746Y405000D01*
X158165Y404131D01*
X157891Y402750D01*
X178109D01*
X177835Y404131D01*
X177254Y405000D01*
X177835Y405869D01*
X178109Y407250D01*
D02*
G37*
G36*
X130500Y405000D02*
X123361D01*
Y403500D01*
X123752Y401534D01*
X124866Y399866D01*
X126533Y398752D01*
X128500Y398361D01*
X130500D01*
Y405000D01*
D02*
G37*
G36*
X178109Y400750D02*
X157891D01*
X158165Y399369D01*
X158746Y398500D01*
X158165Y397631D01*
X157891Y396250D01*
X178109D01*
X177835Y397631D01*
X177254Y398500D01*
X177835Y399369D01*
X178109Y400750D01*
D02*
G37*
G36*
X110000Y386619D02*
X109250D01*
X107674Y386306D01*
X106337Y385413D01*
X105444Y384076D01*
X105131Y382500D01*
Y382000D01*
X110000D01*
Y386619D01*
D02*
G37*
G36*
X123619Y350000D02*
X119000D01*
Y345131D01*
X119500D01*
X121076Y345444D01*
X122413Y346337D01*
X123306Y347674D01*
X123619Y349250D01*
Y350000D01*
D02*
G37*
G36*
X182500Y341869D02*
X182000D01*
Y337000D01*
X186619D01*
Y337750D01*
X186306Y339326D01*
X185413Y340663D01*
X184076Y341556D01*
X182500Y341869D01*
D02*
G37*
G36*
X119000D02*
X118500D01*
X116924Y341556D01*
X115587Y340663D01*
X114694Y339326D01*
X114381Y337750D01*
Y337000D01*
X119000D01*
Y341869D01*
D02*
G37*
G36*
X95619Y340000D02*
X91000D01*
Y335131D01*
X91500D01*
X93076Y335444D01*
X94413Y336337D01*
X95306Y337674D01*
X95619Y339250D01*
Y340000D01*
D02*
G37*
G36*
X28500Y378869D02*
X28000D01*
Y374000D01*
X32619D01*
Y374750D01*
X32306Y376326D01*
X31413Y377663D01*
X30076Y378556D01*
X28500Y378869D01*
D02*
G37*
G36*
X103284Y310362D02*
X101723Y310052D01*
X100400Y309168D01*
X97311Y306078D01*
X95291D01*
X94921Y306326D01*
X93750Y306559D01*
X90250D01*
X89080Y306326D01*
X88087Y305663D01*
X86723Y306322D01*
X86663Y306413D01*
X85326Y307306D01*
X83750Y307619D01*
X83000D01*
Y302000D01*
Y296381D01*
X83750D01*
X85326Y296694D01*
X86663Y297587D01*
X86723Y297678D01*
X87397Y298004D01*
X88829Y297087D01*
Y295608D01*
X88337Y295116D01*
X87500Y293094D01*
Y290906D01*
X88337Y288885D01*
X89885Y287337D01*
X91906Y286500D01*
X94094D01*
X96116Y287337D01*
X97663Y288885D01*
X98500Y290906D01*
Y293094D01*
X97663Y295116D01*
X96356Y296422D01*
X96620Y297922D01*
X99000D01*
X99000Y297922D01*
X100561Y298232D01*
X101884Y299116D01*
X106168Y303400D01*
X107052Y304723D01*
X107362Y306284D01*
X107052Y307845D01*
X106168Y309168D01*
X104845Y310052D01*
X103284Y310362D01*
D02*
G37*
G36*
X74012Y309784D02*
X72620D01*
X71333Y309251D01*
X70349Y308267D01*
X69816Y306980D01*
Y305588D01*
X70349Y304301D01*
X71333Y303317D01*
X72620Y302784D01*
X74012D01*
X74631Y303040D01*
X76097Y302208D01*
X76131Y302161D01*
Y300500D01*
X76444Y298924D01*
X77337Y297587D01*
X78674Y296694D01*
X80250Y296381D01*
X81000D01*
Y302000D01*
Y307619D01*
X80250D01*
X78674Y307306D01*
X78288Y307048D01*
X78084Y307038D01*
X76528Y307676D01*
X76283Y308267D01*
X75299Y309251D01*
X74012Y309784D01*
D02*
G37*
G36*
X64869Y297000D02*
X60000D01*
Y292381D01*
X60750D01*
X62326Y292694D01*
X63663Y293587D01*
X64556Y294924D01*
X64869Y296500D01*
Y297000D01*
D02*
G37*
G36*
X235500Y250500D02*
X216500D01*
X216500Y240109D01*
X215460Y239040D01*
X215460Y238431D01*
Y233500D01*
X226000D01*
X236540D01*
Y239040D01*
X235772Y239830D01*
X236029Y240798D01*
X236561Y241329D01*
X262000D01*
X263405Y241609D01*
X264596Y242404D01*
X265391Y243595D01*
X265671Y245000D01*
X265391Y246405D01*
X264596Y247595D01*
X263405Y248391D01*
X262000Y248671D01*
X235500D01*
Y250500D01*
D02*
G37*
G36*
X36000Y148619D02*
X35250D01*
X33674Y148306D01*
X32337Y147413D01*
X31444Y146076D01*
X31131Y144500D01*
Y144000D01*
X36000D01*
Y148619D01*
D02*
G37*
G36*
X171500Y142559D02*
X168000D01*
X166829Y142326D01*
X165837Y141663D01*
X165609Y141322D01*
X163891D01*
X163663Y141663D01*
X162671Y142326D01*
X161500Y142559D01*
X158000D01*
X156830Y142326D01*
X155849Y141671D01*
X154750D01*
X153345Y141391D01*
X152155Y140596D01*
X151359Y139405D01*
X151080Y138000D01*
X151359Y136595D01*
X152155Y135405D01*
X153345Y134609D01*
X153476Y134583D01*
X153476Y133054D01*
X153305Y133019D01*
X151762Y131988D01*
X150731Y130445D01*
X150369Y128625D01*
Y127000D01*
X157250D01*
X164131D01*
Y128625D01*
X163769Y130445D01*
X162738Y131988D01*
X162542Y132119D01*
X162620Y133061D01*
X162793Y133756D01*
X163663Y134337D01*
X163891Y134678D01*
X165609D01*
X165837Y134337D01*
X166829Y133674D01*
X168000Y133441D01*
X168672D01*
Y131679D01*
X168011Y131238D01*
X167210Y130039D01*
X166929Y128625D01*
Y123375D01*
X167210Y121961D01*
X168011Y120761D01*
X169211Y119960D01*
X170625Y119679D01*
X174875D01*
X176289Y119960D01*
X177488Y120761D01*
X178290Y121961D01*
X178571Y123375D01*
Y128625D01*
X178290Y130039D01*
X177488Y131238D01*
X176828Y131679D01*
Y135500D01*
X176828Y135500D01*
X176518Y137061D01*
X175634Y138384D01*
X175634Y138384D01*
X174559Y139459D01*
Y139500D01*
X174326Y140671D01*
X173663Y141663D01*
X172670Y142326D01*
X171500Y142559D01*
D02*
G37*
G36*
X23980Y139816D02*
X22588D01*
X21301Y139283D01*
X20317Y138299D01*
X19784Y137012D01*
Y135620D01*
X19909Y135317D01*
X19354Y133649D01*
X18327Y133289D01*
X18052Y133437D01*
X18034Y133449D01*
X17000Y133655D01*
Y127800D01*
Y121945D01*
X18034Y122151D01*
X18052Y122163D01*
X19250Y122809D01*
X20448Y122163D01*
X20466Y122151D01*
X21500Y121945D01*
Y127800D01*
X22500D01*
Y128800D01*
X26604D01*
Y130350D01*
X26349Y131634D01*
X26014Y132136D01*
X25633Y132754D01*
X26114Y134197D01*
X26251Y134333D01*
X26784Y135620D01*
Y137012D01*
X26251Y138299D01*
X25266Y139283D01*
X23980Y139816D01*
D02*
G37*
G36*
X254000Y145040D02*
X237460D01*
Y133000D01*
X254000D01*
Y145040D01*
D02*
G37*
G36*
X26604Y126800D02*
X23500D01*
Y121945D01*
X24534Y122151D01*
X25622Y122878D01*
X26349Y123966D01*
X26604Y125250D01*
Y126800D01*
D02*
G37*
G36*
X254000Y131000D02*
X237460D01*
Y118960D01*
X254000D01*
Y131000D01*
D02*
G37*
G36*
X164131Y125000D02*
X158250D01*
Y118619D01*
X159375D01*
X161195Y118981D01*
X162738Y120012D01*
X163769Y121555D01*
X164131Y123375D01*
Y125000D01*
D02*
G37*
G36*
X209631D02*
X202750D01*
X195869D01*
Y123375D01*
X196231Y121555D01*
X197262Y120012D01*
X198688Y119059D01*
X198700Y118951D01*
X198250Y117559D01*
X197079Y117326D01*
X196087Y116663D01*
X195859Y116322D01*
X194141D01*
X193913Y116663D01*
X192920Y117326D01*
X191750Y117559D01*
X188250D01*
X187080Y117326D01*
X186098Y116671D01*
X183000D01*
X181595Y116391D01*
X180404Y115596D01*
X179609Y114405D01*
X179329Y113000D01*
X179609Y111595D01*
X180404Y110405D01*
X181595Y109609D01*
X182824Y109365D01*
X183006Y108853D01*
X183021Y107830D01*
X181762Y106988D01*
X180731Y105445D01*
X180369Y103625D01*
Y102000D01*
X187250D01*
X194131D01*
Y103625D01*
X193769Y105445D01*
X192738Y106988D01*
X192600Y107081D01*
X192917Y108673D01*
X192920Y108674D01*
X193913Y109337D01*
X194141Y109678D01*
X195859D01*
X196087Y109337D01*
X197079Y108674D01*
X198250Y108441D01*
X198672D01*
Y106679D01*
X198011Y106238D01*
X197210Y105039D01*
X196929Y103625D01*
Y98375D01*
X197210Y96961D01*
X198011Y95761D01*
X199211Y94960D01*
X200625Y94679D01*
X204875D01*
X206289Y94960D01*
X207488Y95761D01*
X208290Y96961D01*
X208571Y98375D01*
Y103625D01*
X208290Y105039D01*
X207488Y106238D01*
X206828Y106679D01*
Y110500D01*
X206518Y112061D01*
X205634Y113384D01*
X205634Y113384D01*
X204887Y114130D01*
X204809Y114248D01*
Y114500D01*
X204576Y115670D01*
X203913Y116663D01*
X203231Y117119D01*
X203525Y118619D01*
X204875D01*
X206695Y118981D01*
X208238Y120012D01*
X209269Y121555D01*
X209631Y123375D01*
Y125000D01*
D02*
G37*
G36*
X149619Y118000D02*
X145000D01*
Y113131D01*
X145500D01*
X147076Y113444D01*
X148413Y114337D01*
X149306Y115674D01*
X149619Y117250D01*
Y118000D01*
D02*
G37*
G36*
X258000Y110503D02*
Y105000D01*
X263503D01*
X263094Y106524D01*
X262233Y108016D01*
X261016Y109233D01*
X259524Y110094D01*
X258000Y110503D01*
D02*
G37*
G36*
X256000Y110503D02*
X254476Y110094D01*
X252984Y109233D01*
X251767Y108016D01*
X250906Y106524D01*
X250497Y105000D01*
X256000D01*
Y110503D01*
D02*
G37*
G36*
X130500Y106869D02*
X130000D01*
Y102000D01*
X134619D01*
Y102750D01*
X134306Y104326D01*
X133413Y105663D01*
X132076Y106556D01*
X130500Y106869D01*
D02*
G37*
G36*
X171000Y116671D02*
X169595Y116391D01*
X168405Y115596D01*
X167609Y114405D01*
X167330Y113000D01*
Y108902D01*
X166674Y107921D01*
X166441Y106750D01*
Y103250D01*
X166674Y102079D01*
X167337Y101087D01*
X166744Y99679D01*
X166178Y99257D01*
X165831Y99360D01*
X163441Y101750D01*
X163291Y102505D01*
X163000Y102940D01*
Y109500D01*
X153500D01*
Y103857D01*
X153329Y103000D01*
X153500Y102143D01*
Y98000D01*
X156973D01*
X157305Y97505D01*
X158383Y96426D01*
X157809Y95040D01*
X152460D01*
Y89250D01*
X164040D01*
Y90142D01*
X165200Y91093D01*
X165245Y91084D01*
X167341D01*
X168330Y90424D01*
X169500Y90191D01*
X172500D01*
X173671Y90424D01*
X174663Y91087D01*
X175326Y92079D01*
X175559Y93250D01*
Y96750D01*
X175326Y97921D01*
X174663Y98913D01*
X174322Y99141D01*
Y100859D01*
X174663Y101087D01*
X175326Y102079D01*
X175559Y103250D01*
Y106750D01*
X175326Y107921D01*
X174671Y108902D01*
Y113000D01*
X174391Y114405D01*
X173595Y115596D01*
X172405Y116391D01*
X171000Y116671D01*
D02*
G37*
G36*
X256000Y103000D02*
X250497D01*
X250906Y101476D01*
X251767Y99984D01*
X252984Y98767D01*
X254476Y97906D01*
X256000Y97497D01*
Y103000D01*
D02*
G37*
G36*
X263503D02*
X258000D01*
Y97497D01*
X259524Y97906D01*
X261016Y98767D01*
X262233Y99984D01*
X263094Y101476D01*
X263503Y103000D01*
D02*
G37*
G36*
X47503Y102000D02*
X42000D01*
Y96497D01*
X43524Y96906D01*
X45016Y97767D01*
X46233Y98984D01*
X47094Y100476D01*
X47503Y102000D01*
D02*
G37*
G36*
X194131Y100000D02*
X188250D01*
Y93619D01*
X189375D01*
X191195Y93981D01*
X192738Y95012D01*
X193769Y96555D01*
X194131Y98375D01*
Y100000D01*
D02*
G37*
G36*
X186250D02*
X180369D01*
Y98375D01*
X180731Y96555D01*
X181762Y95012D01*
X183305Y93981D01*
X185125Y93619D01*
X186250D01*
Y100000D01*
D02*
G37*
G36*
X74012Y99784D02*
X72620D01*
X71334Y99251D01*
X70349Y98266D01*
X69816Y96980D01*
Y95588D01*
X70349Y94301D01*
X71334Y93317D01*
X72620Y92784D01*
X74012D01*
X75299Y93317D01*
X76283Y94301D01*
X76816Y95588D01*
Y96980D01*
X76283Y98266D01*
X75299Y99251D01*
X74012Y99784D01*
D02*
G37*
G36*
X64012D02*
X62620D01*
X61333Y99251D01*
X60349Y98266D01*
X59816Y96980D01*
Y95588D01*
X60349Y94301D01*
X61333Y93317D01*
X62620Y92784D01*
X64012D01*
X65299Y93317D01*
X66283Y94301D01*
X66816Y95588D01*
Y96980D01*
X66283Y98266D01*
X65299Y99251D01*
X64012Y99784D01*
D02*
G37*
G36*
X54012D02*
X52620D01*
X51333Y99251D01*
X50349Y98266D01*
X49816Y96980D01*
Y95588D01*
X50349Y94301D01*
X51333Y93317D01*
X52620Y92784D01*
X54012D01*
X55299Y93317D01*
X56283Y94301D01*
X56816Y95588D01*
Y96980D01*
X56283Y98266D01*
X55299Y99251D01*
X54012Y99784D01*
D02*
G37*
G36*
X221094Y109500D02*
X218906D01*
X216884Y108663D01*
X215337Y107115D01*
X214500Y105094D01*
Y102906D01*
X215337Y100885D01*
X215529Y100692D01*
Y96720D01*
X207387Y88578D01*
X202500D01*
X200939Y88268D01*
X200929Y88261D01*
X192181D01*
X191913Y88663D01*
X190921Y89326D01*
X189750Y89559D01*
X186250D01*
X185079Y89326D01*
X184087Y88663D01*
X183859Y88322D01*
X182141D01*
X181913Y88663D01*
X180921Y89326D01*
X179750Y89559D01*
X176250D01*
X175079Y89326D01*
X174087Y88663D01*
X173424Y87670D01*
X173191Y86500D01*
Y83500D01*
X173424Y82330D01*
X174087Y81337D01*
X175079Y80674D01*
X175084Y80673D01*
Y75720D01*
X175324Y74515D01*
X175124Y74021D01*
X174372Y73099D01*
X171375D01*
Y62000D01*
Y50901D01*
X174750D01*
X175461Y51042D01*
X176687Y50317D01*
X176961Y50017D01*
Y50000D01*
X177116Y49220D01*
X177558Y48558D01*
X178220Y48116D01*
X179000Y47961D01*
X189000D01*
X189780Y48116D01*
X190442Y48558D01*
X190884Y49220D01*
X191039Y50000D01*
Y50379D01*
X192158Y51139D01*
X193500Y50523D01*
Y47882D01*
X194326Y43729D01*
X195947Y39816D01*
X198300Y36295D01*
X201295Y33300D01*
X204816Y30947D01*
X208729Y29326D01*
X212882Y28500D01*
X217118D01*
X221271Y29326D01*
X225184Y30947D01*
X228705Y33300D01*
X231700Y36295D01*
X234053Y39816D01*
X235674Y43729D01*
X236500Y47882D01*
Y52118D01*
X235674Y56271D01*
X234053Y60184D01*
X231700Y63705D01*
X228705Y66700D01*
X225184Y69053D01*
X221271Y70674D01*
X217118Y71500D01*
X212882D01*
X208729Y70674D01*
X204816Y69053D01*
X201295Y66700D01*
X198300Y63705D01*
X197706Y62817D01*
X196271Y63252D01*
Y71080D01*
X196834Y71643D01*
X196834Y71644D01*
X198473Y73282D01*
X198473Y73282D01*
X200676Y75485D01*
X201668D01*
X201925Y75536D01*
X202500Y75422D01*
X208500D01*
X210061Y75732D01*
X211384Y76616D01*
X212268Y77939D01*
X212578Y79500D01*
Y82164D01*
X212861Y82353D01*
X214361Y81551D01*
Y79500D01*
X214753Y77533D01*
X215866Y75866D01*
X217533Y74752D01*
X219500Y74361D01*
X221500D01*
Y82000D01*
Y89639D01*
X220951D01*
X220330Y91139D01*
X221796Y92605D01*
X222591Y93795D01*
X222871Y95200D01*
Y99236D01*
X223116Y99337D01*
X224663Y100885D01*
X225500Y102906D01*
Y105094D01*
X224663Y107115D01*
X223116Y108663D01*
X221094Y109500D01*
D02*
G37*
G36*
X225500Y89639D02*
X223500D01*
Y83000D01*
X230639D01*
Y84500D01*
X230248Y86467D01*
X229134Y88134D01*
X227467Y89248D01*
X225500Y89639D01*
D02*
G37*
G36*
X74012Y89784D02*
X72620D01*
X71334Y89251D01*
X70349Y88266D01*
X69816Y86980D01*
Y85588D01*
X70349Y84301D01*
X71334Y83317D01*
X72620Y82784D01*
X74012D01*
X75299Y83317D01*
X76283Y84301D01*
X76816Y85588D01*
Y86980D01*
X76283Y88266D01*
X75299Y89251D01*
X74012Y89784D01*
D02*
G37*
G36*
X64012D02*
X62620D01*
X61333Y89251D01*
X60349Y88266D01*
X59816Y86980D01*
Y85588D01*
X60349Y84301D01*
X61333Y83317D01*
X62620Y82784D01*
X64012D01*
X65299Y83317D01*
X66283Y84301D01*
X66816Y85588D01*
Y86980D01*
X66283Y88266D01*
X65299Y89251D01*
X64012Y89784D01*
D02*
G37*
G36*
X54012D02*
X52620D01*
X51333Y89251D01*
X50349Y88266D01*
X49816Y86980D01*
Y85588D01*
X50349Y84301D01*
X51333Y83317D01*
X52620Y82784D01*
X54012D01*
X55299Y83317D01*
X56283Y84301D01*
X56816Y85588D01*
Y86980D01*
X56283Y88266D01*
X55299Y89251D01*
X54012Y89784D01*
D02*
G37*
G36*
X157250Y87250D02*
X152460D01*
Y81460D01*
X157250D01*
Y87250D01*
D02*
G37*
G36*
X164040D02*
X159250D01*
Y81460D01*
X162731D01*
X163607Y81460D01*
X164727Y80245D01*
X164712Y80209D01*
X164500Y79696D01*
Y78304D01*
X165033Y77017D01*
X166017Y76033D01*
X167304Y75500D01*
X168696D01*
X169983Y76033D01*
X170967Y77017D01*
X171500Y78304D01*
Y79696D01*
X170967Y80983D01*
X169983Y81967D01*
X168696Y82500D01*
X167304D01*
X166017Y81967D01*
X165540Y81490D01*
X164040Y82111D01*
X164040Y82781D01*
Y87250D01*
D02*
G37*
G36*
X230639Y81000D02*
X223500D01*
Y74361D01*
X225500D01*
X227467Y74752D01*
X229134Y75866D01*
X230248Y77533D01*
X230639Y79500D01*
Y81000D01*
D02*
G37*
G36*
X142000Y79639D02*
X140500D01*
X138533Y79248D01*
X136866Y78134D01*
X135752Y76466D01*
X135361Y74500D01*
Y72500D01*
X142000D01*
Y79639D01*
D02*
G37*
G36*
X52000Y73639D02*
X50500D01*
X48534Y73248D01*
X46866Y72134D01*
X45752Y70466D01*
X45361Y68500D01*
Y66500D01*
X52000D01*
Y73639D01*
D02*
G37*
G36*
X142000Y70500D02*
X135361D01*
Y68500D01*
X135752Y66533D01*
X136866Y64866D01*
X138533Y63752D01*
X140500Y63361D01*
X142000D01*
Y70500D01*
D02*
G37*
G36*
X145500Y79639D02*
X144000D01*
Y71500D01*
Y63361D01*
X145500D01*
X147466Y63752D01*
X149134Y64866D01*
X150248Y66533D01*
X150291Y66754D01*
X150679Y67000D01*
X151931Y67309D01*
X152220Y67116D01*
X153000Y66961D01*
X162901D01*
Y63000D01*
X169375D01*
Y73099D01*
X166000D01*
X164955Y74421D01*
X164884Y74780D01*
X164442Y75442D01*
X163780Y75884D01*
X163000Y76039D01*
X153000D01*
X152220Y75884D01*
X151931Y75691D01*
X150679Y76000D01*
X150291Y76246D01*
X150248Y76466D01*
X149134Y78134D01*
X147466Y79248D01*
X145500Y79639D01*
D02*
G37*
G36*
X40055Y62500D02*
X34200D01*
X28345D01*
X28551Y61466D01*
X28563Y61448D01*
X29209Y60250D01*
X28563Y59052D01*
X28551Y59034D01*
X28345Y58000D01*
X34200D01*
X40055D01*
X39849Y59034D01*
X39837Y59052D01*
X39191Y60250D01*
X39837Y61448D01*
X39849Y61466D01*
X40055Y62500D01*
D02*
G37*
G36*
X118639Y64500D02*
X112000D01*
Y57361D01*
X113500D01*
X115466Y57752D01*
X117134Y58866D01*
X118247Y60533D01*
X118639Y62500D01*
Y64500D01*
D02*
G37*
G36*
X55500Y73639D02*
X54000D01*
Y65500D01*
Y57361D01*
X55500D01*
X57467Y57752D01*
X59134Y58866D01*
X60248Y60533D01*
X60639Y62500D01*
Y62665D01*
X62000Y63000D01*
X62139Y63000D01*
X76000D01*
Y72000D01*
X62000D01*
Y69345D01*
X60500Y69197D01*
X60248Y70466D01*
X59134Y72134D01*
X57467Y73248D01*
X55500Y73639D01*
D02*
G37*
G36*
X52000Y64500D02*
X45361D01*
Y62500D01*
X45752Y60533D01*
X46866Y58866D01*
X48534Y57752D01*
X50500Y57361D01*
X52000D01*
Y64500D01*
D02*
G37*
G36*
X128094Y70500D02*
X125906D01*
X123884Y69663D01*
X122337Y68116D01*
X121500Y66094D01*
Y63906D01*
X122337Y61884D01*
X123884Y60337D01*
X124400Y60124D01*
X124247Y58564D01*
X123379Y58391D01*
X122188Y57595D01*
X119280Y54687D01*
X115930D01*
X115061Y55268D01*
X113500Y55578D01*
X108500D01*
X106939Y55268D01*
X105616Y54384D01*
X104732Y53061D01*
X104540Y52990D01*
X103040Y54033D01*
Y57000D01*
X95000D01*
X86960D01*
Y52460D01*
X88000D01*
Y44000D01*
X102000D01*
Y44830D01*
X104555D01*
X104732Y43939D01*
X105616Y42616D01*
X106939Y41732D01*
X108500Y41422D01*
X112810D01*
X112957Y39922D01*
X111879Y39707D01*
X110688Y38911D01*
X110547Y38770D01*
X109751Y37579D01*
X109471Y36174D01*
Y28003D01*
X109337Y27913D01*
X108674Y26920D01*
X108441Y25750D01*
Y22250D01*
X108674Y21079D01*
X109337Y20087D01*
X108678Y18723D01*
X108587Y18663D01*
X108139Y17992D01*
X107715Y17904D01*
X106427Y18059D01*
X105879Y18879D01*
X100163Y24595D01*
X98973Y25391D01*
X97568Y25670D01*
X95618D01*
X95204Y27034D01*
X95322Y27277D01*
X95413Y27337D01*
X96306Y28674D01*
X96619Y30250D01*
Y31000D01*
X91000D01*
Y32000D01*
X90000D01*
Y37869D01*
X89500D01*
X88225Y37616D01*
X86675Y37721D01*
X85879Y38911D01*
X84689Y39707D01*
X83284Y39987D01*
X81879Y39707D01*
X80688Y38911D01*
X80535Y38758D01*
X79740Y37568D01*
X79460Y36163D01*
Y34651D01*
X79368Y34559D01*
X78250D01*
X77079Y34326D01*
X76087Y33663D01*
X74723Y34322D01*
X74663Y34413D01*
X73326Y35306D01*
X71750Y35619D01*
X71000D01*
Y30000D01*
Y24381D01*
X71750D01*
X73326Y24694D01*
X74663Y25587D01*
X74723Y25678D01*
X76087Y26337D01*
X77079Y25674D01*
X78250Y25441D01*
X81750D01*
X82921Y25674D01*
X83913Y26337D01*
X84576Y27329D01*
X84625Y27575D01*
X86217Y27891D01*
X86587Y27337D01*
X86678Y27277D01*
X87337Y25913D01*
X86674Y24920D01*
X86441Y23750D01*
Y20250D01*
X86674Y19080D01*
X87337Y18087D01*
X88329Y17424D01*
X89500Y17191D01*
X92500D01*
X93671Y17424D01*
X94663Y18087D01*
X96206Y18171D01*
X100688Y13688D01*
X101879Y12893D01*
X103284Y12613D01*
X104689Y12893D01*
X105879Y13688D01*
X105881Y13691D01*
X107381Y13236D01*
Y12250D01*
X107694Y10674D01*
X108587Y9337D01*
X109924Y8444D01*
X111500Y8131D01*
X112000D01*
Y14000D01*
X114000D01*
Y8131D01*
X114500D01*
X116076Y8444D01*
X117413Y9337D01*
X117587D01*
X118924Y8444D01*
X120500Y8131D01*
X121000D01*
Y14000D01*
X123000D01*
Y8131D01*
X123500D01*
X125076Y8444D01*
X126413Y9337D01*
X126587D01*
X127924Y8444D01*
X129500Y8131D01*
X130000D01*
Y14000D01*
X132000D01*
Y8131D01*
X132500D01*
X134076Y8444D01*
X135413Y9337D01*
X135705Y9776D01*
X137510D01*
X137616Y9616D01*
X138939Y8732D01*
X140500Y8422D01*
X145500D01*
X147061Y8732D01*
X148384Y9616D01*
X149194Y10829D01*
X151000D01*
Y9000D01*
X165000D01*
Y18000D01*
X160671D01*
Y20000D01*
X160391Y21405D01*
X159595Y22596D01*
X158405Y23391D01*
X157000Y23670D01*
X151000D01*
X150231Y23517D01*
X148318D01*
X147863Y25017D01*
X149134Y25866D01*
X149905Y27021D01*
X150623Y27663D01*
X151602Y28000D01*
X151870Y28000D01*
X165000D01*
Y34297D01*
X165304Y34500D01*
X166696D01*
X167983Y35033D01*
X168967Y36017D01*
X169500Y37304D01*
Y38696D01*
X168967Y39983D01*
X167983Y40967D01*
X166696Y41500D01*
X165304D01*
X164017Y40967D01*
X163033Y39983D01*
X162500Y38696D01*
Y38416D01*
X161126Y37000D01*
X151602Y37000D01*
X150623Y37337D01*
X149905Y37979D01*
X149134Y39134D01*
X147466Y40248D01*
X145500Y40639D01*
X144000D01*
Y32500D01*
X142000D01*
Y40639D01*
X140500D01*
X138533Y40248D01*
X136866Y39134D01*
X136171Y38092D01*
X134670Y38547D01*
Y38600D01*
X134391Y40005D01*
X133595Y41196D01*
X125943Y48848D01*
X125911Y48885D01*
X125759Y50785D01*
X126943Y51969D01*
X127596Y52404D01*
X128391Y53595D01*
X128671Y55000D01*
X128418Y56270D01*
X128486Y56355D01*
X130126Y56683D01*
X132943Y53866D01*
X134133Y53071D01*
X135538Y52791D01*
X136422D01*
Y51500D01*
X136732Y49939D01*
X137616Y48616D01*
X138939Y47732D01*
X140500Y47422D01*
X145500D01*
X147061Y47732D01*
X148184Y48482D01*
X149230D01*
X150000Y48330D01*
X150770Y48482D01*
X151671D01*
X152220Y48116D01*
X153000Y47961D01*
X163000D01*
X163780Y48116D01*
X164442Y48558D01*
X164884Y49220D01*
X164955Y49579D01*
X166000Y50901D01*
X169375D01*
Y61000D01*
X162901D01*
Y57039D01*
X153000D01*
X152220Y56884D01*
X151558Y56442D01*
X151534Y56406D01*
X149866Y56499D01*
X149578Y57178D01*
Y57500D01*
X149268Y59061D01*
X148384Y60384D01*
X147061Y61268D01*
X145500Y61578D01*
X140500D01*
X138939Y61268D01*
X137616Y60384D01*
X136211Y60980D01*
X132500Y64691D01*
Y66094D01*
X131663Y68116D01*
X130115Y69663D01*
X128094Y70500D01*
D02*
G37*
G36*
X40055Y56000D02*
X34200D01*
X28345D01*
X28551Y54966D01*
X29278Y53878D01*
X29531Y52128D01*
X29356Y51250D01*
Y49750D01*
X29531Y48872D01*
X30028Y48128D01*
X30772Y47631D01*
X31650Y47456D01*
X32276D01*
X32624Y47224D01*
X33305Y46205D01*
X34176Y45333D01*
Y45153D01*
X34456Y43748D01*
X35252Y42558D01*
X35405Y42405D01*
X36595Y41609D01*
X38000Y41329D01*
X39405Y41609D01*
X40595Y42405D01*
X41391Y43595D01*
X41670Y45000D01*
X41518Y45770D01*
Y46853D01*
X41238Y48258D01*
X40442Y49448D01*
X39571Y50320D01*
Y50400D01*
X39291Y51805D01*
X39114Y52069D01*
X39122Y53878D01*
X39849Y54966D01*
X40055Y56000D01*
D02*
G37*
G36*
X55500Y55578D02*
X50500D01*
X48939Y55268D01*
X47616Y54384D01*
X46732Y53061D01*
X46422Y51500D01*
Y45500D01*
X46732Y43939D01*
X47616Y42616D01*
X47589Y41880D01*
X46113Y40747D01*
X45500Y40869D01*
X45000D01*
Y36000D01*
X49619D01*
Y36043D01*
X51065Y36881D01*
X51244Y36761D01*
X53000Y36412D01*
X54756Y36761D01*
X56244Y37756D01*
X57239Y39244D01*
X57588Y41000D01*
Y42084D01*
X58384Y42616D01*
X59250Y43912D01*
X69000D01*
X69443Y44000D01*
X76000D01*
Y53000D01*
X69443D01*
X69000Y53088D01*
X59250D01*
X58384Y54384D01*
X57061Y55268D01*
X55500Y55578D01*
D02*
G37*
G36*
X29800Y42169D02*
X29300D01*
Y37300D01*
X33919D01*
Y38050D01*
X33606Y39626D01*
X32713Y40963D01*
X31376Y41856D01*
X29800Y42169D01*
D02*
G37*
G36*
X27300D02*
X26800D01*
X25224Y41856D01*
X23887Y40963D01*
X22994Y39626D01*
X22681Y38050D01*
Y37300D01*
X27300D01*
Y42169D01*
D02*
G37*
G36*
X43000Y40869D02*
X42500D01*
X40924Y40556D01*
X39587Y39663D01*
X38694Y38326D01*
X38381Y36750D01*
Y36000D01*
X43000D01*
Y40869D01*
D02*
G37*
G36*
X92500Y37869D02*
X92000D01*
Y33000D01*
X96619D01*
Y33750D01*
X96306Y35326D01*
X95413Y36663D01*
X94076Y37556D01*
X92500Y37869D01*
D02*
G37*
G36*
X69000Y35619D02*
X68250D01*
X66674Y35306D01*
X65337Y34413D01*
X64444Y33076D01*
X64131Y31500D01*
Y31000D01*
X69000D01*
Y35619D01*
D02*
G37*
G36*
Y29000D02*
X64131D01*
Y28500D01*
X64444Y26924D01*
X65337Y25587D01*
X66674Y24694D01*
X68250Y24381D01*
X69000D01*
Y29000D01*
D02*
G37*
G36*
X33919Y35300D02*
X28300D01*
X22681D01*
Y34550D01*
X22994Y32974D01*
X23887Y31637D01*
X23978Y31577D01*
X24637Y30213D01*
X23974Y29220D01*
X23741Y28050D01*
Y24550D01*
X23974Y23379D01*
X24637Y22387D01*
X25629Y21724D01*
X26800Y21491D01*
X29800D01*
X30971Y21724D01*
X31963Y22387D01*
X32120Y22621D01*
X33244D01*
X33284Y22613D01*
X34689Y22893D01*
X35879Y23688D01*
X36675Y24879D01*
X36954Y26284D01*
X36675Y27689D01*
X35879Y28879D01*
X35871Y28887D01*
X34681Y29683D01*
X33276Y29962D01*
X32906D01*
X32496Y31315D01*
X32622Y31577D01*
X32713Y31637D01*
X33606Y32974D01*
X33919Y34550D01*
Y35300D01*
D02*
G37*
G36*
X225500Y16639D02*
X223500D01*
Y10000D01*
X230639D01*
Y11500D01*
X230248Y13467D01*
X229134Y15134D01*
X227467Y16248D01*
X225500Y16639D01*
D02*
G37*
G36*
X172696Y14684D02*
X171304D01*
X170017Y14151D01*
X169033Y13167D01*
X168500Y11880D01*
Y10488D01*
X169033Y9201D01*
X170017Y8217D01*
X171304Y7684D01*
X172696D01*
X173983Y8217D01*
X174967Y9201D01*
X175500Y10488D01*
Y11880D01*
X174967Y13167D01*
X173983Y14151D01*
X172696Y14684D01*
D02*
G37*
G36*
X25605Y276800D02*
X22500D01*
Y271945D01*
X23534Y272151D01*
X24622Y272878D01*
X25349Y273966D01*
X25605Y275250D01*
Y276800D01*
D02*
G37*
G36*
X10000Y264503D02*
Y259000D01*
X15503D01*
X15094Y260524D01*
X14233Y262016D01*
X13016Y263233D01*
X11524Y264094D01*
X10000Y264503D01*
D02*
G37*
G36*
X8000D02*
X6476Y264094D01*
X4984Y263233D01*
X3767Y262016D01*
X2906Y260524D01*
X2497Y259000D01*
X8000D01*
Y264503D01*
D02*
G37*
G36*
X15503Y257000D02*
X10000D01*
Y251497D01*
X11524Y251906D01*
X13016Y252767D01*
X14233Y253984D01*
X15094Y255476D01*
X15503Y257000D01*
D02*
G37*
G36*
X8000D02*
X2497D01*
X2906Y255476D01*
X3767Y253984D01*
X4984Y252767D01*
X6476Y251906D01*
X8000Y251497D01*
Y257000D01*
D02*
G37*
G36*
X117000Y241250D02*
X107888D01*
Y241125D01*
X108173Y239695D01*
X108983Y238483D01*
X110195Y237673D01*
X111625Y237388D01*
X117000D01*
Y241250D01*
D02*
G37*
G36*
X58000Y229000D02*
X53381D01*
Y228250D01*
X53694Y226674D01*
X54587Y225337D01*
X55924Y224444D01*
X57500Y224131D01*
X58000D01*
Y229000D01*
D02*
G37*
G36*
X50619D02*
X46000D01*
Y224131D01*
X46500D01*
X48076Y224444D01*
X49413Y225337D01*
X50306Y226674D01*
X50619Y228250D01*
Y229000D01*
D02*
G37*
G36*
X79000Y142619D02*
X78250D01*
X76674Y142306D01*
X75337Y141413D01*
X74444Y140076D01*
X74131Y138500D01*
Y138000D01*
X79000D01*
Y142619D01*
D02*
G37*
G36*
X17000Y79000D02*
X12381D01*
Y78250D01*
X12694Y76674D01*
X13587Y75337D01*
X14924Y74444D01*
X16500Y74131D01*
X17000D01*
Y79000D01*
D02*
G37*
%LPD*%
D11*
X63667Y12333D02*
X65493D01*
X65971Y11854D01*
X62787Y13213D02*
X63667Y12333D01*
X62037Y13213D02*
X62787D01*
X60000Y15250D02*
X62037Y13213D01*
X239019Y388000D02*
X244000D01*
X233019Y394000D02*
X239019Y388000D01*
X167454Y368704D02*
X168000Y369250D01*
X157871Y367125D02*
X159450Y368704D01*
X167454D01*
X150375Y367125D02*
X157871D01*
X155000Y391000D02*
X158125Y387875D01*
X167125D01*
X217718Y289400D02*
X238985D01*
X212779Y284461D02*
X217718Y289400D01*
X238985D02*
X241834Y286552D01*
Y286166D02*
X252000Y276000D01*
X241834Y286166D02*
Y286552D01*
X252000Y276000D02*
X259000D01*
X151000Y319750D02*
X151750Y320500D01*
Y324750D01*
X153000Y326000D01*
X151000Y316000D02*
Y319750D01*
X135750Y300750D02*
X151000Y316000D01*
X120000Y300750D02*
X135750D01*
X118000D02*
X120000D01*
X165000Y222000D02*
Y250000D01*
X133750Y281250D02*
X165000Y250000D01*
Y222000D02*
X176995Y210005D01*
X156000Y211000D02*
X160700Y215700D01*
Y247653D01*
X5500Y174500D02*
X17056D01*
X3187Y172188D02*
X5500Y174500D01*
X17056D02*
X21250Y178694D01*
Y201303D01*
X21150Y208172D02*
X27534Y214556D01*
X21150Y201403D02*
Y208172D01*
Y201403D02*
X21250Y201303D01*
X33997Y287750D02*
X34007D01*
X29750Y291997D02*
X33997Y287750D01*
X32750Y293240D02*
X35240Y290750D01*
X35250D02*
X48000Y278000D01*
X26066Y295691D02*
X29750Y292007D01*
X34007Y287750D02*
X46757Y275000D01*
X29066Y296934D02*
X32750Y293250D01*
Y293240D02*
Y293250D01*
X29750Y291997D02*
Y292007D01*
X35240Y290750D02*
X35250D01*
X12750Y348250D02*
Y379197D01*
Y348250D02*
X23250Y337750D01*
X29250Y318447D02*
Y335553D01*
X27053Y337750D02*
X29250Y335553D01*
X23250Y337750D02*
X27053D01*
X241000Y294000D02*
X253000Y282000D01*
X238000Y294000D02*
X241000D01*
X232750Y299250D02*
X238000Y294000D01*
X259000Y276000D02*
X262379Y279379D01*
X253000Y290000D02*
X262379Y280621D01*
Y279379D02*
Y280621D01*
X213240Y299250D02*
X232750D01*
X253990Y326000D02*
X254000D01*
X206250Y323000D02*
X250990D01*
X253990Y326000D01*
X206500Y260000D02*
X212779Y266279D01*
X206906Y287000D02*
X209156Y289250D01*
X209250D02*
X215000Y295000D01*
X209156Y289250D02*
X209250D01*
X206250Y287000D02*
X206906D01*
X206250Y296000D02*
X208010Y297760D01*
X211750D02*
X213240Y299250D01*
X208010Y297760D02*
X211750D01*
X212779Y266279D02*
Y284461D01*
X206250Y260000D02*
X206500D01*
X226000Y395250D02*
X231635D01*
X232885Y394000D01*
X233019D01*
X176995Y207005D02*
X177000Y207000D01*
X176995Y207005D02*
Y210005D01*
X235750Y368846D02*
X237596Y367000D01*
X243750D01*
X226404Y368846D02*
X235750D01*
X226000Y369250D02*
X226404Y368846D01*
X242625Y348875D02*
X243750Y350000D01*
X226875Y348875D02*
X242625D01*
X226000Y349750D02*
X226875Y348875D01*
X167125Y387875D02*
X168000Y388750D01*
X150250Y391000D02*
X155000D01*
X150250Y367000D02*
X150375Y367125D01*
X236346Y397000D02*
X244000D01*
X226000Y401750D02*
X231596D01*
X236346Y397000D01*
X118000Y287750D02*
X145750D01*
X151000Y293000D01*
Y293000D01*
X140250Y294250D02*
X148000Y302000D01*
X118000Y294250D02*
X140250D01*
X35500Y449000D02*
X36000D01*
X29000Y455500D02*
X35500Y449000D01*
X27200Y455500D02*
X29000D01*
X8750Y290250D02*
X9000Y290000D01*
X8750Y290250D02*
Y295950D01*
X8500Y296200D02*
X8750Y295950D01*
X118000Y281250D02*
X133750D01*
X133603Y274750D02*
X160700Y247653D01*
X118000Y274750D02*
X133603D01*
X29637Y221637D02*
X34190D01*
X27534Y219534D02*
X29637Y221637D01*
X27534Y214556D02*
Y219534D01*
X34190Y221637D02*
X39250Y226697D01*
X3187Y104812D02*
Y172188D01*
X39250Y226697D02*
Y246360D01*
X18968Y102000D02*
X23284Y106316D01*
X6000Y102000D02*
X18968D01*
X3187Y104812D02*
X6000Y102000D01*
X26066Y295691D02*
Y308138D01*
X46757Y275000D02*
X59204D01*
X29066Y296934D02*
Y318263D01*
X48000Y278000D02*
X94281D01*
X59204Y275000D02*
X93039D01*
X106289Y261750D01*
X94281Y278000D02*
X104031Y268250D01*
X26066Y308138D02*
Y314257D01*
X24000Y316324D02*
X26066Y314257D01*
X24000Y316324D02*
Y317000D01*
X28250Y394697D02*
Y430961D01*
X29066Y318263D02*
X29250Y318447D01*
X22319Y436892D02*
X28250Y430961D01*
X12750Y379197D02*
X28250Y394697D01*
X33806Y250566D02*
X35044D01*
X29034Y254556D02*
X33024Y250566D01*
X33806D01*
X29034Y254556D02*
Y258076D01*
X35044Y250566D02*
X39250Y246360D01*
X29034Y258076D02*
X38207Y267250D01*
X33806Y250566D02*
X33806Y250566D01*
X2250Y235535D02*
X36965Y270250D01*
X2250Y216947D02*
Y223053D01*
X17718Y210750D02*
X23284Y216316D01*
X2250Y223053D02*
X2250Y223053D01*
X2250Y216947D02*
X8447Y210750D01*
X2250Y223053D02*
Y235535D01*
X92303Y267250D02*
X109535Y250019D01*
X93546Y270250D02*
X108250Y255546D01*
X106289Y261750D02*
X118000D01*
X38207Y267250D02*
X92303D01*
X36965Y270250D02*
X93546D01*
X8447Y210750D02*
X17718D01*
X117704Y255546D02*
X118000Y255250D01*
X108250Y255546D02*
X117704D01*
X104031Y268250D02*
X118000D01*
X109535Y250019D02*
X116731D01*
X118000Y248750D01*
X163000Y311000D02*
X166750Y307250D01*
X176000D01*
X163000Y311000D02*
Y316500D01*
X159000Y307000D02*
X165250Y300750D01*
X176000D01*
X159000Y307000D02*
Y321750D01*
X126871Y313871D02*
X129000Y316000D01*
Y325750D01*
X120121Y313871D02*
X126871D01*
X120000Y313750D02*
X120121Y313871D01*
X118000Y313750D02*
X120000D01*
X176000Y274750D02*
X191844D01*
X176000Y281250D02*
X185750D01*
X186000Y307750D02*
X192250Y314000D01*
X195750D01*
X176000Y268250D02*
X195000D01*
X176000Y287750D02*
X177076Y288826D01*
X184197D01*
X186000Y290629D01*
Y307750D01*
X195000Y268250D02*
X195750Y269000D01*
X172000Y325500D02*
Y325750D01*
X163000Y316500D02*
X172000Y325500D01*
X192250Y296000D02*
X195750D01*
X190000Y293750D02*
X192250Y296000D01*
X190000Y285500D02*
Y293750D01*
X185750Y281250D02*
X190000Y285500D01*
X195094Y278000D02*
X195750D01*
X191844Y274750D02*
X195094Y278000D01*
X159000Y321750D02*
X163000Y325750D01*
X195750Y314000D02*
Y323000D01*
Y296000D02*
Y305000D01*
Y260000D02*
Y269000D01*
Y278000D02*
Y287000D01*
X72000Y16000D02*
X72375Y15625D01*
X78625D01*
X79000Y15250D01*
D13*
X148500Y406000D02*
D03*
X131500D02*
D03*
X205500Y82000D02*
D03*
X222500D02*
D03*
Y9000D02*
D03*
X205500D02*
D03*
D14*
X12000Y113000D02*
D03*
X22000D02*
D03*
X188000Y85000D02*
D03*
X178000D02*
D03*
X171000Y456000D02*
D03*
X181000D02*
D03*
X111000Y78000D02*
D03*
X101000D02*
D03*
X213000Y21000D02*
D03*
X203000D02*
D03*
X140000Y391000D02*
D03*
X150000D02*
D03*
X80000Y117000D02*
D03*
X90000D02*
D03*
X140000Y367000D02*
D03*
X150000D02*
D03*
X53000Y262000D02*
D03*
X43000D02*
D03*
X83250D02*
D03*
X73250D02*
D03*
X244000Y350000D02*
D03*
X254000D02*
D03*
X254000Y367000D02*
D03*
X244000D02*
D03*
X254000Y379000D02*
D03*
X244000D02*
D03*
X90000Y126600D02*
D03*
X80000D02*
D03*
X200000Y113000D02*
D03*
X190000D02*
D03*
X159750Y138000D02*
D03*
X169750D02*
D03*
X190000Y138000D02*
D03*
X200000D02*
D03*
X206000Y242000D02*
D03*
X196000D02*
D03*
Y251000D02*
D03*
X206000D02*
D03*
Y269000D02*
D03*
X196000D02*
D03*
Y278000D02*
D03*
X206000D02*
D03*
Y305000D02*
D03*
X196000D02*
D03*
Y314000D02*
D03*
X206000D02*
D03*
Y260000D02*
D03*
X196000D02*
D03*
Y287000D02*
D03*
X206000D02*
D03*
Y296000D02*
D03*
X196000D02*
D03*
Y323000D02*
D03*
X206000D02*
D03*
X244000Y397000D02*
D03*
X254000D02*
D03*
Y388000D02*
D03*
X244000D02*
D03*
X18000Y220000D02*
D03*
X8000D02*
D03*
X118000Y100000D02*
D03*
X108000D02*
D03*
X118000Y109000D02*
D03*
X108000D02*
D03*
X37000Y134000D02*
D03*
X47000D02*
D03*
X125250Y231000D02*
D03*
X115250D02*
D03*
X125250Y222000D02*
D03*
X115250D02*
D03*
X47000Y125000D02*
D03*
X37000D02*
D03*
X59000Y298000D02*
D03*
X49000D02*
D03*
X111000Y381000D02*
D03*
X121000D02*
D03*
X37000Y116000D02*
D03*
X47000D02*
D03*
X111000Y372000D02*
D03*
X121000D02*
D03*
X118000Y90000D02*
D03*
X108000D02*
D03*
X80000Y30000D02*
D03*
X70000D02*
D03*
X47000Y143000D02*
D03*
X37000D02*
D03*
X90000Y137000D02*
D03*
X80000D02*
D03*
X76000Y247000D02*
D03*
X86000D02*
D03*
X53000Y253000D02*
D03*
X43000D02*
D03*
X92000Y302000D02*
D03*
X82000D02*
D03*
X60000Y410000D02*
D03*
X50000D02*
D03*
Y190000D02*
D03*
X60000D02*
D03*
X10000Y308000D02*
D03*
X20000D02*
D03*
X244000Y406000D02*
D03*
X254000D02*
D03*
D15*
X24000Y322000D02*
D03*
Y332000D02*
D03*
X15000Y419000D02*
D03*
Y429000D02*
D03*
X171000Y105000D02*
D03*
Y95000D02*
D03*
X99000Y448000D02*
D03*
Y458000D02*
D03*
X265000Y409250D02*
D03*
Y399250D02*
D03*
Y387000D02*
D03*
Y377000D02*
D03*
X60000Y5000D02*
D03*
Y15000D02*
D03*
X79000D02*
D03*
Y5000D02*
D03*
X76000Y332000D02*
D03*
Y342000D02*
D03*
X67000D02*
D03*
Y332000D02*
D03*
X129000Y326000D02*
D03*
Y336000D02*
D03*
X172000D02*
D03*
Y326000D02*
D03*
X163000D02*
D03*
Y336000D02*
D03*
X153000Y326000D02*
D03*
Y336000D02*
D03*
X18000Y80000D02*
D03*
Y90000D02*
D03*
X44000Y25000D02*
D03*
Y35000D02*
D03*
X131000Y24000D02*
D03*
Y14000D02*
D03*
X17000Y16000D02*
D03*
Y6000D02*
D03*
X7000Y198000D02*
D03*
Y188000D02*
D03*
X144000Y129000D02*
D03*
Y119000D02*
D03*
X45000Y230000D02*
D03*
Y240000D02*
D03*
X15000Y322000D02*
D03*
Y332000D02*
D03*
X120000Y336000D02*
D03*
Y326000D02*
D03*
X21000Y240000D02*
D03*
Y230000D02*
D03*
X153000Y231000D02*
D03*
Y221000D02*
D03*
X14000Y398000D02*
D03*
Y408000D02*
D03*
X5000D02*
D03*
Y398000D02*
D03*
X18000Y363000D02*
D03*
Y373000D02*
D03*
X47000Y341000D02*
D03*
Y351000D02*
D03*
X106000Y421000D02*
D03*
Y411000D02*
D03*
X117000Y129000D02*
D03*
Y119000D02*
D03*
X108000D02*
D03*
Y129000D02*
D03*
X144000Y231000D02*
D03*
Y221000D02*
D03*
X34000Y230000D02*
D03*
Y240000D02*
D03*
X59000D02*
D03*
Y230000D02*
D03*
X96000Y255000D02*
D03*
Y245000D02*
D03*
X38000Y351000D02*
D03*
Y341000D02*
D03*
X109000Y351000D02*
D03*
Y361000D02*
D03*
X100000D02*
D03*
Y351000D02*
D03*
X135000Y129000D02*
D03*
Y119000D02*
D03*
X28000Y90000D02*
D03*
Y80000D02*
D03*
X113000Y14000D02*
D03*
Y24000D02*
D03*
X28300Y36300D02*
D03*
Y26300D02*
D03*
X126000Y119000D02*
D03*
Y129000D02*
D03*
X16000Y188000D02*
D03*
Y198000D02*
D03*
X140000Y200000D02*
D03*
Y210000D02*
D03*
X135000Y221000D02*
D03*
Y231000D02*
D03*
X23000Y398000D02*
D03*
Y408000D02*
D03*
X27000Y373000D02*
D03*
Y363000D02*
D03*
X118000Y361000D02*
D03*
Y351000D02*
D03*
X90000Y341000D02*
D03*
Y351000D02*
D03*
X39000Y15000D02*
D03*
Y5000D02*
D03*
X91000Y32000D02*
D03*
Y22000D02*
D03*
X48000Y15000D02*
D03*
Y5000D02*
D03*
X122000Y14000D02*
D03*
Y24000D02*
D03*
X124000Y186000D02*
D03*
Y196000D02*
D03*
X115000Y421000D02*
D03*
Y411000D02*
D03*
X129000Y101000D02*
D03*
Y91000D02*
D03*
X16000Y159000D02*
D03*
Y169000D02*
D03*
X6000Y30000D02*
D03*
Y40000D02*
D03*
X5000Y429000D02*
D03*
Y419000D02*
D03*
X141000Y326000D02*
D03*
Y336000D02*
D03*
X181000D02*
D03*
Y326000D02*
D03*
X109000Y458000D02*
D03*
Y448000D02*
D03*
X38000Y320972D02*
D03*
Y330972D02*
D03*
D16*
X121000Y438500D02*
D03*
Y455500D02*
D03*
X85000Y438500D02*
D03*
Y455500D02*
D03*
X181000Y426500D02*
D03*
Y443500D02*
D03*
X143000Y54500D02*
D03*
Y71500D02*
D03*
X53000Y65500D02*
D03*
X143000Y32500D02*
D03*
X111000Y65500D02*
D03*
Y48500D02*
D03*
X143000Y15500D02*
D03*
X53000Y48500D02*
D03*
D17*
X104000Y438000D02*
D03*
X100000Y434000D02*
D03*
X104000D02*
D03*
X100000Y438000D02*
D03*
X108000D02*
D03*
Y434000D02*
D03*
D18*
X226000Y408250D02*
D03*
Y401750D02*
D03*
Y395250D02*
D03*
Y388750D02*
D03*
Y382250D02*
D03*
Y375750D02*
D03*
Y369250D02*
D03*
Y362750D02*
D03*
Y356250D02*
D03*
Y349750D02*
D03*
X168000Y356250D02*
D03*
Y362750D02*
D03*
Y369250D02*
D03*
Y375750D02*
D03*
Y382250D02*
D03*
Y388750D02*
D03*
Y349750D02*
D03*
Y395250D02*
D03*
Y401750D02*
D03*
Y408250D02*
D03*
D19*
X176000Y313750D02*
D03*
X118000Y300750D02*
D03*
Y294250D02*
D03*
Y287750D02*
D03*
Y281250D02*
D03*
Y274750D02*
D03*
Y268250D02*
D03*
Y261750D02*
D03*
Y255250D02*
D03*
Y248750D02*
D03*
X176000Y242250D02*
D03*
Y248750D02*
D03*
Y255250D02*
D03*
Y261750D02*
D03*
Y268250D02*
D03*
Y274750D02*
D03*
Y281250D02*
D03*
Y287750D02*
D03*
Y300750D02*
D03*
Y307250D02*
D03*
X118000Y313750D02*
D03*
Y307250D02*
D03*
X176000Y294250D02*
D03*
X118000Y242250D02*
D03*
D20*
X184000Y71500D02*
D03*
X158000D02*
D03*
Y52500D02*
D03*
X184000D02*
D03*
Y62000D02*
D03*
D21*
X170375D02*
D03*
D22*
X165000Y435000D02*
D03*
X184000Y23000D02*
D03*
X95000Y58000D02*
D03*
X184000Y13500D02*
D03*
X95000Y48500D02*
D03*
X165000Y425500D02*
D03*
X158000Y13500D02*
D03*
X139000Y425500D02*
D03*
Y444500D02*
D03*
X165000D02*
D03*
X158000Y32500D02*
D03*
X184000D02*
D03*
X95000Y67500D02*
D03*
X69000D02*
D03*
Y48500D02*
D03*
D23*
X157250Y126000D02*
D03*
X202750D02*
D03*
X187250Y101000D02*
D03*
X172750Y126000D02*
D03*
X187250D02*
D03*
X202750Y101000D02*
D03*
D24*
X147000Y153500D02*
D03*
X85300Y158800D02*
D03*
Y378800D02*
D03*
Y403800D02*
D03*
Y183800D02*
D03*
X147000Y178500D02*
D03*
X71300Y183800D02*
D03*
X74800D02*
D03*
X78300D02*
D03*
X81800D02*
D03*
Y158800D02*
D03*
X78300D02*
D03*
X74800D02*
D03*
X71300D02*
D03*
X133000Y178500D02*
D03*
X136500D02*
D03*
X140000D02*
D03*
X143500D02*
D03*
Y153500D02*
D03*
X140000D02*
D03*
X136500D02*
D03*
X133000D02*
D03*
X71300Y403800D02*
D03*
X74800D02*
D03*
X78300D02*
D03*
X81800D02*
D03*
Y378800D02*
D03*
X78300D02*
D03*
X74800D02*
D03*
X71300D02*
D03*
D25*
X152500Y166000D02*
D03*
X127500D02*
D03*
Y155500D02*
D03*
X90800Y171300D02*
D03*
X65800D02*
D03*
Y160800D02*
D03*
X90800Y391300D02*
D03*
X65800D02*
D03*
Y380800D02*
D03*
X127500Y176500D02*
D03*
X65800Y181800D02*
D03*
Y401800D02*
D03*
Y164300D02*
D03*
Y167800D02*
D03*
Y174800D02*
D03*
Y178300D02*
D03*
X90800Y181800D02*
D03*
Y178300D02*
D03*
Y174800D02*
D03*
Y167800D02*
D03*
Y164300D02*
D03*
Y160800D02*
D03*
X127500Y159000D02*
D03*
Y162500D02*
D03*
Y169500D02*
D03*
Y173000D02*
D03*
X152500Y176500D02*
D03*
Y173000D02*
D03*
Y169500D02*
D03*
Y162500D02*
D03*
Y159000D02*
D03*
Y155500D02*
D03*
X65800Y384300D02*
D03*
Y387800D02*
D03*
Y394800D02*
D03*
Y398300D02*
D03*
X90800Y401800D02*
D03*
Y398300D02*
D03*
Y394800D02*
D03*
Y387800D02*
D03*
Y384300D02*
D03*
Y380800D02*
D03*
D26*
X140000Y166000D02*
D03*
X78300Y171300D02*
D03*
Y391300D02*
D03*
D27*
X8800Y442500D02*
D03*
Y449000D02*
D03*
X34200Y57000D02*
D03*
Y63500D02*
D03*
X15800Y50500D02*
D03*
X27200Y449000D02*
D03*
X15800Y57000D02*
D03*
X27200Y455500D02*
D03*
X8800D02*
D03*
X27200Y442500D02*
D03*
X15800Y63500D02*
D03*
X34200Y50500D02*
D03*
D28*
X16000Y127800D02*
D03*
X22500D02*
D03*
X15000Y277800D02*
D03*
X21500D02*
D03*
X16000Y146200D02*
D03*
X15000Y296200D02*
D03*
X9500Y146200D02*
D03*
X8500Y296200D02*
D03*
X22500Y146200D02*
D03*
X9500Y127800D02*
D03*
X21500Y296200D02*
D03*
X8500Y277800D02*
D03*
D29*
X158250Y88250D02*
D03*
X141750D02*
D03*
Y103750D02*
D03*
X158250D02*
D03*
D30*
X226000Y232500D02*
D03*
Y270000D02*
D03*
Y282500D02*
D03*
Y245000D02*
D03*
Y257500D02*
D03*
Y157500D02*
D03*
Y170000D02*
D03*
Y182500D02*
D03*
Y195000D02*
D03*
Y207500D02*
D03*
Y220000D02*
D03*
D31*
X255000Y132000D02*
D03*
Y308000D02*
D03*
D43*
X257000Y104000D02*
D03*
X9000Y258000D02*
D03*
X41000Y103000D02*
D03*
X220000Y104000D02*
D03*
X127000Y65000D02*
D03*
X91000Y423000D02*
D03*
X93000Y292000D02*
D03*
X150000Y377000D02*
D03*
X139000D02*
D03*
X25000Y347000D02*
D03*
X244000Y418000D02*
D03*
D46*
X204802Y177989D02*
G03*
X205361Y178078I0J1800D01*
G01*
X211832Y179783D02*
G03*
X211813Y179785I-253J-3290D01*
G01*
X211832Y179783D02*
G03*
X213765Y181440I138J1795D01*
G01*
X211579Y176493D02*
G03*
X210871Y176406I-138J-1795D01*
G01*
X186434Y177989D02*
G03*
X182828Y176495I0J-5100D01*
G01*
X213235Y174560D02*
G03*
X211579Y176493I-1795J138D01*
G01*
X186434Y174689D02*
G03*
X185162Y174162I0J-1800D01*
G01*
X204802Y174689D02*
G03*
X206385Y174941I0J5100D01*
G01*
X211813Y179785D02*
G03*
X209845Y179542I-373J-5086D01*
G01*
X184006Y173006D02*
G03*
X184013Y173013I-2333J2333D01*
G01*
X203053Y189167D02*
G03*
X204270Y189943I-279J1778D01*
G01*
X200584Y185500D02*
G03*
X200645Y185500I0J3300D01*
G01*
X208095Y195652D02*
G03*
X208400Y196654I-1495J1002D01*
G01*
X200584Y188800D02*
G03*
X200849Y188822I-13J1800D01*
G01*
X200645Y185500D02*
G03*
X201360Y185561I-75J5099D01*
G01*
X211700Y197644D02*
G03*
X211700Y197657I-3300J13D01*
G01*
X210837Y193815D02*
G03*
X211700Y196654I-4237J2839D01*
G01*
X203563Y185907D02*
G03*
X207011Y188106I-789J5038D01*
G01*
X200096Y169279D02*
G03*
X200048Y169279I-48J-3300D01*
G01*
X200538Y169254D02*
G03*
X200096Y169279I-499J-5076D01*
G01*
X200218Y165970D02*
G03*
X200048Y165979I-180J-1791D01*
G01*
X210541Y159962D02*
G03*
X207377Y168602I-3648J3564D01*
G01*
X210506Y159926D02*
G03*
X210541Y159962I-2333J2333D01*
G01*
X208173Y162259D02*
G03*
X207064Y165317I-1279J1266D01*
G01*
X195725Y165979D02*
G03*
X194452Y165452I0J-1800D01*
G01*
X197120Y165979D02*
G03*
X197133Y165979I13J3300D01*
G01*
X195725Y169279D02*
G03*
X192118Y167785I0J-5100D01*
G01*
X152699Y162511D02*
G03*
X152500Y162500I0J-1800D01*
G01*
X155953Y162511D02*
G03*
X157221Y163034I0J1800D01*
G01*
X159283Y164350D02*
G03*
X158015Y163827I0J-1800D01*
G01*
X173238Y164350D02*
G03*
X176844Y165844I-0J5100D01*
G01*
X234888Y165400D02*
G03*
X234875Y165400I-13J-3300D01*
G01*
X239496D02*
G03*
X239483Y165400I0J-3300D01*
G01*
X239504D02*
G03*
X240346Y165613I-8J1800D01*
G01*
X156865Y168966D02*
G03*
X155597Y169489I-1268J-1277D01*
G01*
X157657Y168174D02*
G03*
X158927Y167650I1270J1276D01*
G01*
X152500Y169500D02*
G03*
X152699Y169489I199J1789D01*
G01*
X159952Y176400D02*
G03*
X161220Y176923I0J1800D01*
G01*
X173843Y188800D02*
G03*
X172575Y188277I0J-1800D01*
G01*
X162354Y173100D02*
G03*
X163623Y173623I0J1800D01*
G01*
X176245Y185500D02*
G03*
X174977Y184977I0J-1800D01*
G01*
X173238Y167650D02*
G03*
X174510Y168177I-0J1800D01*
G01*
X181179Y159000D02*
G03*
X181761Y158900I591J1700D01*
G01*
X182488Y158900D02*
G03*
X183760Y159427I-0J1800D01*
G01*
X182488Y155600D02*
G03*
X186094Y157094I-0J5100D01*
G01*
X114142Y169945D02*
G03*
X113505Y169947I-336J-4387D01*
G01*
X106556Y171608D02*
G03*
X107062Y169408I5100J16D01*
G01*
X140493Y141378D02*
G03*
X144342Y146464I-493J4372D01*
G01*
X123997Y147452D02*
G03*
X121000Y146108I-1197J-1345D01*
G01*
X117030Y143162D02*
G03*
X117766Y143000I746J1638D01*
G01*
X119207D02*
G03*
X121000Y144800I-7J1800D01*
G01*
X98487Y161534D02*
G03*
X96115Y162876I-3606J-3606D01*
G01*
X114160Y141194D02*
G03*
X117766Y139700I3606J3606D01*
G01*
X95903Y162929D02*
G03*
X94013Y164083I-2055J-1239D01*
G01*
X110030Y150086D02*
G03*
X107074Y153037I-6714J-3770D01*
G01*
X107151Y148473D02*
G03*
X105456Y150161I-3835J-2157D01*
G01*
X73800Y234700D02*
G03*
X72000Y232900I0J-1800D01*
G01*
X68700Y217635D02*
G03*
X70194Y214029I5100J0D01*
G01*
X73800Y238000D02*
G03*
X68700Y232900I0J-5100D01*
G01*
X94940Y235978D02*
G03*
X90900Y238000I-4067J-3078D01*
G01*
X92948Y190529D02*
G03*
X92421Y191802I-1800J-0D01*
G01*
X96248Y190529D02*
G03*
X94754Y194135I-5100J-0D01*
G01*
X99977Y170977D02*
G03*
X103000Y178262I-7362J7325D01*
G01*
X108811Y181417D02*
G03*
X106555Y175972I5445J-5445D01*
G01*
X97799Y216139D02*
G03*
X94097Y217269I-3228J-3948D01*
G01*
X109855Y171625D02*
G03*
X111778Y169829I1800J0D01*
G01*
X89337Y216806D02*
G03*
X86205Y208128I480J-5077D01*
G01*
X111144Y179083D02*
G03*
X109855Y175972I3111J-3111D01*
G01*
X103000Y193804D02*
G03*
X101518Y197399I-5100J0D01*
G01*
X89643Y213520D02*
G03*
X88543Y210457I174J-1792D01*
G01*
X99178Y177014D02*
G03*
X99700Y178281I-1278J1267D01*
G01*
X94811Y174800D02*
G03*
X96587Y175140I0J4801D01*
G01*
X98300Y229243D02*
G03*
X97518Y231934I-5100J-22D01*
G01*
X98300Y229221D02*
G03*
X98300Y229243I-3300J-0D01*
G01*
X95000Y226112D02*
G03*
X96494Y222506I5100J0D01*
G01*
X110282Y208718D02*
G03*
X113183Y207273I3606J3606D01*
G01*
X128861Y208806D02*
G03*
X125254Y210300I-3606J-3606D01*
G01*
X134511Y201775D02*
G03*
X133528Y204138I-3355J-9D01*
G01*
X131000Y185941D02*
G03*
X131374Y184842I1800J0D01*
G01*
X132268Y183669D02*
G03*
X132590Y183219I3732J2331D01*
G01*
X132268Y183669D02*
G03*
X132171Y183807I-1523J-960D01*
G01*
X140393Y185745D02*
G03*
X140058Y187702I-4393J255D01*
G01*
X94010Y178516D02*
G03*
X96248Y180911I-161J2395D01*
G01*
X78300Y189266D02*
G03*
X77869Y191173I-4438J0D01*
G01*
X111799Y179739D02*
G03*
X111809Y179748I-2324J2343D01*
G01*
X110506Y183112D02*
G03*
X110970Y183937I-1282J1264D01*
G01*
X112880Y180820D02*
G03*
X114170Y183131I-3656J3556D01*
G01*
X114577Y197306D02*
G03*
X113080Y200915I-5100J0D01*
G01*
X85503Y412118D02*
G03*
X85502Y412118I1597J-830D01*
G01*
D02*
G03*
X85300Y411289I1598J-829D01*
G01*
X37527Y206860D02*
G03*
X37000Y205588I1273J-1273D01*
G01*
X35194Y209194D02*
G03*
X33700Y205588I3606J-3606D01*
G01*
X72351Y425409D02*
G03*
X71495Y426198I-1582J-858D01*
G01*
X72354Y425403D02*
G03*
X71859Y426314I-1762J-367D01*
G01*
X207579Y156998D02*
G03*
X207580Y157000I-2339J2328D01*
G01*
X207573Y156993D02*
G03*
X208619Y153940I1278J-1268D01*
G01*
X207609Y149354D02*
G03*
X207692Y149264I1364J1175D01*
G01*
X205240Y159326D02*
G03*
X204987Y152396I3611J-3601D01*
G01*
X205246Y159333D02*
G03*
X205245Y159332I2327J-2340D01*
G01*
X233100Y166900D02*
G03*
X234875Y165400I1775J300D01*
G01*
Y162100D02*
G03*
X234888Y162100I0J3300D01*
G01*
X234875Y162100D02*
G03*
X233100Y160600I0J-1800D01*
G01*
X240347Y161886D02*
G03*
X239496Y162100I-850J-1586D01*
G01*
X240585Y186672D02*
G03*
X239813Y186846I-772J-1626D01*
G01*
X235092D02*
G03*
X233821Y186321I0J-1800D01*
G01*
X239320Y190161D02*
G03*
X240266Y190429I0J1800D01*
G01*
X234330Y190684D02*
G03*
X235598Y190161I1268J1277D01*
G01*
X239496Y215400D02*
G03*
X239483Y215400I0J-3300D01*
G01*
X240347Y211886D02*
G03*
X239496Y212100I-850J-1586D01*
G01*
X234888Y215400D02*
G03*
X234875Y215400I-13J-3300D01*
G01*
X233100Y216900D02*
G03*
X234875Y215400I1775J300D01*
G01*
X239504Y215400D02*
G03*
X240346Y215613I-8J1800D01*
G01*
X234875Y212100D02*
G03*
X233100Y210600I0J-1800D01*
G01*
X234875Y212100D02*
G03*
X234888Y212100I0J3300D01*
G01*
X211700Y207341D02*
G03*
X211188Y208598I-1800J0D01*
G01*
X207948Y216672D02*
G03*
X208578Y217672I-1124J1406D01*
G01*
X210919Y208887D02*
G03*
X211188Y208598I1443J1076D01*
G01*
X207712Y207868D02*
G03*
X208274Y206914I4650J2094D01*
G01*
X208357Y206789D02*
G03*
X208281Y206904I-1535J-940D01*
G01*
X211124Y214489D02*
G03*
X210010Y214095I10J-1800D01*
G01*
Y214095D02*
G03*
X210009Y214094I1125J-1406D01*
G01*
X210004Y214090D02*
G03*
X210009Y214094I-2055J2582D01*
G01*
X210004Y214090D02*
G03*
X209493Y211950I1130J-1401D01*
G01*
X210721Y209223D02*
G03*
X210919Y208887I1641J739D01*
G01*
X207948Y216672D02*
G03*
X206484Y210595I3186J-3982D01*
G01*
X86098Y189462D02*
G03*
X85300Y186534I5006J-2937D01*
G01*
X74278Y153277D02*
G03*
X74800Y154546I-1277J1268D01*
G01*
X81811Y158604D02*
G03*
X81800Y158799I-1800J-3D01*
G01*
X81811Y154530D02*
G03*
X82169Y153453I1800J0D01*
G01*
X116705Y173523D02*
G03*
X117973Y173000I1268J1277D01*
G01*
X113806Y165557D02*
G03*
X121187Y162500I7381J7381D01*
G01*
X132477Y150477D02*
G03*
X133000Y151746I-1277J1268D01*
G01*
X143500Y178500D02*
G03*
X143511Y178699I-1789J199D01*
G01*
X143587Y183282D02*
G03*
X143511Y182765I1724J-516D01*
G01*
X117633Y169711D02*
G03*
X117866Y169701I340J5089D01*
G01*
X114157Y169943D02*
G03*
X114168Y169943I131J1795D01*
G01*
X110170Y162967D02*
G03*
X110508Y162492I1617J791D01*
G01*
X113474Y159525D02*
G03*
X114746Y159000I1271J1274D01*
G01*
X143716Y150290D02*
G03*
X143744Y150058I2395J161D01*
G01*
X119200Y139700D02*
G03*
X119219Y139700I0J1800D01*
G01*
X129719Y139739D02*
G03*
X130852Y139871I-19J5100D01*
G01*
X134370Y140688D02*
G03*
X134171Y140654I202J-1789D01*
G01*
X127075Y144713D02*
G03*
X127145Y144652I2925J3287D01*
G01*
X133411Y143865D02*
G03*
X134708Y145074I-419J1750D01*
G01*
X128538Y143464D02*
G03*
X130113Y143087I1162J1375D01*
G01*
X136178Y149730D02*
G03*
X136256Y150058I-2289J722D01*
G01*
X136500Y153500D02*
G03*
X136493Y153421I1789J-199D01*
G01*
X136256Y150058D02*
G03*
X136284Y150292I-2367J394D01*
G01*
X116497Y143524D02*
G03*
X117030Y143162I1261J1284D01*
G01*
X106703Y153318D02*
G03*
X107074Y153037I1263J1282D01*
G01*
X110030Y150086D02*
G03*
X110331Y149690I1570J880D01*
G01*
X104375Y150979D02*
G03*
X105456Y150161I3591J3622D01*
G01*
X107151Y148473D02*
G03*
X107997Y147356I4449J2493D01*
G01*
X96154Y159200D02*
G03*
X95316Y159674I-1273J-1273D01*
G01*
X72000Y217635D02*
G03*
X72527Y216362I1800J0D01*
G01*
X71151Y213071D02*
G03*
X71160Y213062I2343J2324D01*
G01*
X92395Y233862D02*
G03*
X90901Y234700I-1522J-962D01*
G01*
X95197Y235627D02*
G03*
X95107Y235757I-1525J-956D01*
G01*
X96248Y189162D02*
G03*
X96248Y189175I-3300J0D01*
G01*
X99975Y170975D02*
G03*
X99977Y170977I-7360J7327D01*
G01*
X96054Y167800D02*
G03*
X97323Y168323I0J1800D01*
G01*
X96587Y175140D02*
G03*
X96940Y175331I-673J1670D01*
G01*
X106555Y175058D02*
Y175057D01*
X95843Y213464D02*
G03*
X94411Y213983I-1272J-1274D01*
G01*
X99700Y193804D02*
G03*
X99177Y195073I-1800J0D01*
G01*
X98183Y215817D02*
G03*
X98069Y215918I-1253J-1292D01*
G01*
X98607Y176484D02*
G03*
X98851Y176687I-1027J1478D01*
G01*
X95000Y229221D02*
G03*
X94724Y230178I-1800J-0D01*
G01*
X112615Y211052D02*
G03*
X113639Y210542I1273J1273D01*
G01*
X115249Y210317D02*
G03*
X115479Y210300I249J1783D01*
G01*
X114793Y207049D02*
G03*
X115397Y207001I705J5051D01*
G01*
X98300Y226112D02*
G03*
X98827Y224840I1800J0D01*
G01*
X115397Y207001D02*
G03*
X115479Y207000I82J3299D01*
G01*
X127481Y205519D02*
G03*
X127494Y205506I2346J2321D01*
G01*
X126527Y206473D02*
G03*
X125254Y207000I-1273J-1273D01*
G01*
X134511Y194457D02*
G03*
X135034Y193189I1800J0D01*
G01*
X131000Y201254D02*
G03*
X130477Y202523I-1800J0D01*
G01*
X132989Y178689D02*
G03*
X133000Y178500I1800J10D01*
G01*
X132989Y182099D02*
G03*
X132590Y183219I-1800J-10D01*
G01*
X140391Y185717D02*
G03*
X140393Y185745I-4391J283D01*
G01*
X140222Y183094D02*
G03*
X140217Y183010I5089J-329D01*
G01*
X139860Y188173D02*
G03*
X139476Y188746I-1660J-696D01*
G01*
X67056Y210643D02*
G03*
X64708Y210801I-1266J-1280D01*
G01*
X64696Y210792D02*
G03*
X64708Y210801I-3054J4084D01*
G01*
X62724Y213438D02*
G03*
X63106Y213829I-1082J1438D01*
G01*
X60283Y213695D02*
G03*
X62724Y213438I1359J1181D01*
G01*
X55787Y216905D02*
G03*
X55214Y217000I-578J-1705D01*
G01*
X45149Y213700D02*
G03*
X45113Y213700I-36J-1800D01*
G01*
X57792Y211531D02*
G03*
X64687Y210785I3850J3345D01*
G01*
D02*
G03*
X64696Y210792I-1963J2653D01*
G01*
X56612Y212888D02*
G03*
X55299Y213496I-1349J-1192D01*
G01*
X59098Y215059D02*
G03*
X56902Y216526I-3834J-3363D01*
G01*
X45113Y213700D02*
G03*
X43840Y213173I0J-1800D01*
G01*
X45113Y217000D02*
G03*
X41506Y215506I0J-5100D01*
G01*
X71300Y185954D02*
G03*
X70777Y187223I-1800J0D01*
G01*
X74800Y183807D02*
G03*
X74800Y183800I1800J7D01*
G01*
X74789Y186876D02*
G03*
X74398Y189139I-6742J0D01*
G01*
D02*
G03*
X73955Y189823I-1693J-610D01*
G01*
X72814Y191643D02*
G03*
X73955Y189823I4186J1357D01*
G01*
X73468Y198532D02*
G03*
X74373Y198043I1273J1273D01*
G01*
X80097Y196125D02*
G03*
X77899Y197307I-3097J-3125D01*
G01*
X81800Y192069D02*
G03*
X80135Y196087I-5683J0D01*
G01*
X61006Y199223D02*
G03*
X64170Y198104I3189J3980D01*
G01*
X62395Y203171D02*
G03*
X64194Y201404I1800J33D01*
G01*
X69757Y197577D02*
G03*
X68484Y198104I-1273J-1273D01*
G01*
X71569Y195485D02*
G03*
X71147Y196186I-1712J-555D01*
G01*
X72090Y199910D02*
G03*
X68484Y201404I-3606J-3606D01*
G01*
X54760Y204240D02*
G03*
X54899Y204116I1266J1280D01*
G01*
X54225Y205520D02*
G03*
X54748Y204252I1800J0D01*
G01*
X47570Y206430D02*
G03*
X46505Y206941I-1268J-1277D01*
G01*
X47889Y203556D02*
G03*
X47898Y206102I-1268J1277D01*
G01*
X41664Y197331D02*
G03*
X40700Y195005I2336J-2331D01*
G01*
X50592Y199056D02*
G03*
X48056Y199056I-1268J-1277D01*
G01*
X40700Y174277D02*
G03*
X40764Y173501I5100J26D01*
G01*
X46426Y167202D02*
G03*
X47254Y167000I828J1598D01*
G01*
X44000Y174290D02*
G03*
X44022Y174020I1800J13D01*
G01*
X40943Y172376D02*
G03*
X43632Y168650I5037J802D01*
G01*
X44203Y172886D02*
G03*
X47239Y171892I1776J292D01*
G01*
X47254Y167000D02*
G03*
X48523Y167523I0J1800D01*
G01*
X49027Y168027D02*
G03*
X49267Y168329I-1281J1265D01*
G01*
X54916Y170053D02*
G03*
X53854Y170400I-1062J-1453D01*
G01*
X50390Y169542D02*
G03*
X49267Y168329I2610J-3542D01*
G01*
X52146Y170400D02*
G03*
X51078Y170049I0J-1800D01*
G01*
X49157Y178380D02*
G03*
X48600Y177036I1346J-1346D01*
G01*
X55837Y169364D02*
G03*
X55609Y169543I-2837J-3364D01*
G01*
X57188Y168231D02*
G03*
X58341Y167811I1156J1380D01*
G01*
X60000Y159414D02*
G03*
X58206Y161196I-1800J-18D01*
G01*
X56750Y164766D02*
G03*
X58201Y164513I1594J4845D01*
G01*
X57806Y161198D02*
G03*
X56000Y159414I-6J-1800D01*
G01*
X52523Y181000D02*
G03*
X51255Y180477I0J-1800D01*
G01*
X58177Y178823D02*
G03*
X59446Y178300I1268J1277D01*
G01*
X56522Y180478D02*
G03*
X55254Y181000I-1267J-1278D01*
G01*
X33700Y169001D02*
G03*
X34661Y166672I3300J-1D01*
G01*
X47488Y158511D02*
G03*
X47482Y158518I-2340J-2327D01*
G01*
X50766Y155234D02*
G03*
X51069Y154992I1269J1277D01*
G01*
X48436Y152897D02*
G03*
X49297Y152208I3598J3614D01*
G01*
X53224Y153621D02*
G03*
X55985Y155137I961J1522D01*
G01*
X51458Y150833D02*
G03*
X53955Y150048I2727J4310D01*
G01*
X61571Y149705D02*
G03*
X61800Y149700I229J5095D01*
G01*
X74854Y147600D02*
G03*
X76123Y148123I0J1800D01*
G01*
X77777Y149777D02*
G03*
X78300Y151046I-1277J1268D01*
G01*
X71076Y148043D02*
G03*
X73000Y147600I1924J3957D01*
G01*
X67254Y153000D02*
G03*
X68857Y153980I0J1800D01*
G01*
X68042Y149519D02*
G03*
X67254Y149700I-787J-1619D01*
G01*
X60000Y154800D02*
G03*
X61800Y153000I1800J0D01*
G01*
X112840Y180779D02*
G03*
X112880Y180820I-2333J2333D01*
G01*
X109475Y182081D02*
G03*
X109466Y182072I2333J-2333D01*
G01*
X111277Y197306D02*
G03*
X110743Y198586I-1800J0D01*
G01*
X114577Y185932D02*
G03*
X114706Y185261I1800J0D01*
G01*
X108832Y205165D02*
G03*
X108923Y205067I1364J1174D01*
G01*
X99054Y394800D02*
G03*
X100323Y395323I0J1800D01*
G01*
X72408Y367632D02*
G03*
X72747Y367600I340J1768D01*
G01*
X77962Y370408D02*
G03*
X78484Y371676I-1277J1268D01*
G01*
X74408Y367600D02*
G03*
X75676Y368123I0J1800D01*
G01*
X70669Y368268D02*
G03*
X72153Y367682I2331J3732D01*
G01*
X78484Y378016D02*
G03*
X78300Y378800I-1800J-10D01*
G01*
X68624Y369546D02*
G03*
X67670Y369819I-954J-1527D01*
G01*
X49314Y371301D02*
G03*
X52909Y369819I3595J3618D01*
G01*
X66580Y373119D02*
G03*
X67848Y373642I0J1800D01*
G01*
X51640Y373642D02*
G03*
X52704Y373132I1268J1278D01*
G01*
X52704Y373132D02*
G03*
X52909Y373119I214J1787D01*
G01*
X54200D02*
G03*
X55466Y373649I-10J1800D01*
G01*
X55466Y373649D02*
G03*
X56000Y374928I-1266J1279D01*
G01*
X62467Y374572D02*
G03*
X62886Y373898I1700J592D01*
G01*
X70777Y376571D02*
G03*
X71300Y377839I-1277J1268D01*
G01*
X61411Y377604D02*
G03*
X60988Y378280I-1700J-592D01*
G01*
X59158Y380111D02*
G03*
X57890Y380633I-1268J-1277D01*
G01*
X57800D02*
G03*
X56000Y378833I0J-1800D01*
G01*
X58487Y388217D02*
G03*
X59324Y388011I837J1594D01*
G01*
X55125Y389983D02*
G03*
X54652Y390152I-837J-1594D01*
G01*
X54177Y384823D02*
G03*
X55446Y384300I1268J1277D01*
G01*
X47390Y388265D02*
G03*
X47773Y388317I-1069J9379D01*
G01*
D02*
G03*
X49121Y388629I-1453J9327D01*
G01*
D02*
G03*
X49857Y389079I-543J1716D01*
G01*
X53889Y390309D02*
G03*
X49857Y389079I-889J-4309D01*
G01*
X53189Y400396D02*
G03*
X52519Y400374I-189J-4396D01*
G01*
X51611Y400274D02*
G03*
X50539Y399762I197J-1789D01*
G01*
X57008Y399762D02*
G03*
X55818Y400283I-1268J-1277D01*
G01*
X49883Y399106D02*
G03*
X48600Y396000I3117J-3106D01*
G01*
X47361Y391729D02*
G03*
X48600Y393439I-561J1710D01*
G01*
X43160Y418827D02*
G03*
X43154Y418821I2333J-2333D01*
G01*
X42194Y417861D02*
G03*
X40700Y414254I3606J-3606D01*
G01*
Y393111D02*
G03*
X47390Y388265I5100J0D01*
G01*
X45487Y416487D02*
G03*
X45494Y416494I-2327J2340D01*
G01*
X44527Y415527D02*
G03*
X44000Y414254I1273J-1273D01*
G01*
Y393111D02*
G03*
X46361Y391401I1800J0D01*
G01*
X50695Y419159D02*
G03*
X48159Y419159I-1268J-1277D01*
G01*
X47808Y426430D02*
G03*
X46723Y426943I-1268J-1277D01*
G01*
X48017Y423684D02*
G03*
X48017Y426220I-1277J1268D01*
G01*
X33700Y389027D02*
G03*
X35182Y385433I5100J0D01*
G01*
X33700Y390395D02*
G03*
X33700Y390382I3300J0D01*
G01*
X37000Y389027D02*
G03*
X37523Y387759I1800J0D01*
G01*
X35181Y429714D02*
G03*
X33700Y426120I3619J-3594D01*
G01*
X44580Y433700D02*
G03*
X43307Y433173I0J-1800D01*
G01*
X37527Y427393D02*
G03*
X37000Y426120I1273J-1273D01*
G01*
X45918Y433684D02*
G03*
X45704Y433700I-238J-1784D01*
G01*
X33700Y424766D02*
G03*
X33700Y424753I3300J-13D01*
G01*
X67152Y430540D02*
G03*
X64708Y430801I-1361J-1177D01*
G01*
X57755Y431574D02*
G03*
X64687Y430785I3887J3302D01*
G01*
X56628Y432901D02*
G03*
X55301Y433518I-1357J-1183D01*
G01*
X64696Y430792D02*
G03*
X64708Y430801I-3054J4084D01*
G01*
X60270Y433711D02*
G03*
X62724Y433438I1372J1165D01*
G01*
X62724Y433438D02*
G03*
X63106Y433829I-1082J1438D01*
G01*
X64687Y430785D02*
G03*
X64696Y430792I-1963J2653D01*
G01*
X59142Y435038D02*
G03*
X56868Y436562I-3871J-3320D01*
G01*
X70280Y426924D02*
G03*
X70901Y426460I1362J1177D01*
G01*
X55069Y424295D02*
G03*
X55398Y423259I1800J0D01*
G01*
X55069Y425628D02*
G03*
X54547Y426896I-1800J0D01*
G01*
X59132Y417995D02*
G03*
X64155Y415400I5023J3563D01*
G01*
X62354Y420500D02*
G03*
X64155Y418700I1800J0D01*
G01*
X67442Y415400D02*
G03*
X67455Y415400I13J3300D01*
G01*
X72636Y412440D02*
G03*
X73868Y409910I4364J560D01*
G01*
X70728Y414877D02*
G03*
X69460Y415400I-1268J-1277D01*
G01*
X74789Y403989D02*
G03*
X74800Y403800I1800J10D01*
G01*
X72636Y412440D02*
G03*
X72118Y413488I-1785J-231D01*
G01*
X74789Y408235D02*
G03*
X74275Y409494I-1800J0D01*
G01*
X71300Y405954D02*
G03*
X70777Y407223I-1800J0D01*
G01*
X78300Y410954D02*
G03*
X77777Y412223I-1800J0D01*
G01*
X81800Y414454D02*
G03*
X81277Y415723I-1800J0D01*
G01*
X78823Y418177D02*
G03*
X77554Y418700I-1268J-1277D01*
G01*
X93566Y398311D02*
G03*
X94341Y398487I0J1800D01*
G01*
X96654Y400684D02*
G03*
X97000Y401746I-1454J1061D01*
G01*
X94883Y398745D02*
G03*
X95787Y399496I-1035J2165D01*
G01*
X90999Y398311D02*
G03*
X90800Y398300I0J-1800D01*
G01*
X96384Y383418D02*
G03*
X94845Y384300I-1548J-918D01*
G01*
X97000Y381161D02*
G03*
X96384Y383418I-4438J0D01*
G01*
X55910Y394914D02*
G03*
X56539Y394800I630J1686D01*
G01*
X74277Y373277D02*
G03*
X74800Y374546I-1277J1268D01*
G01*
X81800Y373946D02*
G03*
X82323Y372677I1800J0D01*
G01*
X44580Y437000D02*
G03*
X40974Y435506I0J-5100D01*
G01*
X55813Y436909D02*
G03*
X55255Y437000I-564J-1709D01*
G01*
X232847Y387712D02*
X237800Y382758D01*
X238854Y379000D02*
X243750D01*
X237800Y380054D02*
X238854Y379000D01*
X237800Y380054D02*
Y382758D01*
X65800Y380800D02*
X66911Y379689D01*
X65800Y160800D02*
X66911Y159689D01*
X206385Y174941D02*
X210871Y176406D01*
X213765Y181440D02*
X214000Y184500D01*
X181673Y175340D02*
X182828Y176495D01*
X213000Y171500D02*
X213235Y174560D01*
X213000Y171500D02*
X213000Y171500D01*
X205361Y178078D02*
X209845Y179542D01*
X186434Y174689D02*
X204802Y174689D01*
X184013Y173013D02*
X185162Y174162D01*
X174510Y168177D02*
X181673Y175340D01*
X186434Y177989D02*
X204802Y177989D01*
X176844Y165844D02*
X184006Y173006D01*
X207011Y188106D02*
X210837Y193815D01*
X176245Y185500D02*
X200584D01*
X204270Y189943D02*
X208095Y195652D01*
X208400Y196654D02*
X208400Y197657D01*
X208400D02*
Y206719D01*
X211700Y196654D02*
Y197644D01*
X211700Y197657D02*
Y207341D01*
X201360Y185561D02*
X203563Y185907D01*
X200849Y188822D02*
X203053Y189167D01*
X173843Y188800D02*
X200584D01*
X197133Y169279D02*
X200048D01*
X197133Y165979D02*
X200048D01*
X200218Y165970D02*
X207064Y165317D01*
X200538Y169254D02*
X207377Y168602D01*
X200048Y165979D02*
X200048Y165979D01*
X200048Y165979D02*
X200048D01*
X205246Y159333D02*
X208173Y162259D01*
X195725Y165979D02*
X197120Y165979D01*
X186094Y157094D02*
X194452Y165452D01*
X195725Y169279D02*
X197133Y169279D01*
X183760Y159427D02*
X192118Y167785D01*
X152699Y162511D02*
X155953D01*
X157221Y163034D02*
X158015Y163827D01*
X159283Y164350D02*
X171884D01*
X173238Y164350D01*
X234888Y165400D02*
X239483D01*
X239496D02*
X239504Y165400D01*
X240346Y165613D02*
X242000Y166500D01*
X156865Y168966D02*
X157657Y168174D01*
X152699Y169489D02*
X155597D01*
X171871Y167650D02*
X173237Y167650D01*
X158927Y167650D02*
X171871D01*
X154737Y176400D02*
X159952D01*
X161220Y176923D02*
X172575Y188277D01*
X163623Y173623D02*
X174977Y184977D01*
X154737Y173100D02*
X162354D01*
X154637Y173000D02*
X154737Y173100D01*
X154637Y176500D02*
X154737Y176400D01*
X152500Y173000D02*
X154637D01*
X152500Y176500D02*
X154637D01*
X181771Y155600D02*
X182488Y155600D01*
X181761Y158900D02*
X181771D01*
X181771Y158900D02*
X182488Y158900D01*
X152500Y159000D02*
X181179D01*
X154737Y155600D02*
X181771D01*
X72527Y216362D02*
X73494Y215396D01*
X72000Y217635D02*
Y232900D01*
X73000Y152000D02*
X74278Y153277D01*
X74800Y154546D02*
Y158800D01*
X81811Y158604D02*
X81811Y154530D01*
X82169Y153453D02*
X84000Y151000D01*
X117866Y169701D02*
X127500Y169500D01*
X114168Y169943D02*
X117633Y169711D01*
X107062Y169408D02*
X109923Y163479D01*
X114746Y159000D02*
X127500D01*
X110508Y162492D02*
X113474Y159525D01*
X143500Y153500D02*
X143716Y150290D01*
X143744Y150058D02*
X144342Y146464D01*
X130871Y139875D02*
X134163Y140652D01*
X134370Y140688D02*
X140493Y141378D01*
X119219Y139700D02*
X129719Y139739D01*
X134708Y145074D02*
X136178Y149730D01*
X123997Y147452D02*
X127075Y144713D01*
X127145Y144652D02*
X128538Y143464D01*
X130113Y143087D02*
X133405Y143864D01*
X121000Y144800D02*
Y146108D01*
X117766Y143000D02*
X119207Y143000D01*
X98487Y161534D02*
X106703Y153318D01*
X90800Y160800D02*
X92749Y160314D01*
X95316Y159674D01*
X110331Y149690D02*
X116494Y143527D01*
X96154Y159200D02*
X104375Y150979D01*
X107997Y147356D02*
X114160Y141194D01*
X90800Y164300D02*
X94010Y164083D01*
X68700Y217635D02*
Y232900D01*
X73800Y234700D02*
X77100Y234700D01*
X73800Y238000D02*
X77100Y238000D01*
X73494Y215396D02*
X94754Y194135D01*
X77100Y238000D02*
X90887D01*
X71160Y213062D02*
X92421Y191802D01*
X77100Y234700D02*
X90887D01*
Y238000D02*
X90900Y238000D01*
X92395Y233862D02*
X94724Y230178D01*
X96248Y180911D02*
Y189162D01*
X92948Y190529D02*
X92948Y189162D01*
X92948Y181811D02*
Y189162D01*
X89643Y213520D02*
X94403Y213983D01*
X88546Y210454D02*
X101518Y197399D01*
X106555Y175057D02*
X106555Y171624D01*
X103000Y178262D02*
X103000Y193804D01*
X111778Y169829D02*
X113505Y169947D01*
X111144Y179083D02*
X111799Y179739D01*
X86205Y208128D02*
X99177Y195073D01*
X109855Y175057D02*
X109855Y175972D01*
X97323Y168323D02*
X99975Y170975D01*
X90800Y167800D02*
X96054D01*
X88543Y210457D02*
X88546Y210454D01*
X98851Y176687D02*
X99178Y177014D01*
X106555Y171624D02*
X106556Y171608D01*
X90800Y174800D02*
X94811D01*
X109855Y175057D02*
X109855Y171625D01*
X89337Y216806D02*
X94084Y217267D01*
X99700Y179896D02*
X99700Y193804D01*
X99700Y178281D02*
Y179896D01*
X96940Y175331D02*
X98607Y176484D01*
X95197Y235627D02*
X97518Y231934D01*
X98300Y229221D02*
X98300Y226112D01*
X95000Y229221D02*
X95000Y226112D01*
X113639Y210542D02*
X115249Y210317D01*
X98827Y224840D02*
X112615Y211052D01*
X96494Y222506D02*
X110282Y208718D01*
X115479Y207000D02*
X125254Y207000D01*
X113183Y207273D02*
X114793Y207049D01*
X115479Y210300D02*
X125254D01*
X126527Y206473D02*
X127481Y205519D01*
X127494Y205506D02*
X129506Y203494D01*
X129827Y207840D02*
X133528Y204138D01*
X136005Y192218D02*
X139476Y188746D01*
X134511Y201775D02*
X134511Y194457D01*
X135034Y193189D02*
X136005Y192218D01*
X129506Y203494D02*
X130477Y202523D01*
X131000Y185941D02*
Y201254D01*
X132989Y178689D02*
Y182099D01*
X131374Y184842D02*
X132171Y183807D01*
X140222Y183094D02*
X140391Y185717D01*
X140000Y178500D02*
X140217Y183010D01*
X90800Y178300D02*
X94010Y178516D01*
X67000Y191000D02*
X70777Y187223D01*
X78300Y189266D02*
X78300Y183800D01*
X77000Y193000D02*
X77869Y191173D01*
X53000Y166000D02*
X56750Y164766D01*
X58201Y164513D02*
X65800Y164300D01*
X55742Y175000D02*
X59436D01*
X55163Y175579D02*
X55742Y175000D01*
X59436D02*
X59636Y174800D01*
X65800D01*
X110970Y183937D02*
X111277Y185156D01*
X109475Y182081D02*
X110506Y183112D01*
X114170Y183131D02*
X114706Y185261D01*
X106474Y202848D02*
X106591Y202732D01*
X111276Y185932D02*
Y197306D01*
X106591Y202732D02*
X110743Y198586D01*
X108923Y205067D02*
X113080Y200915D01*
X98194Y215806D02*
X108812Y205188D01*
X114577Y185932D02*
Y197306D01*
X95843Y213464D02*
X106474Y202848D01*
X111276Y185932D02*
X111277Y185261D01*
X226000Y388750D02*
X227038Y387712D01*
X232847D01*
X156000Y189637D02*
Y204000D01*
X147011Y180648D02*
X156000Y189637D01*
X85503Y412118D02*
X87000Y415000D01*
X85502Y412118D02*
X85503Y412118D01*
X85300Y403800D02*
Y411289D01*
X35194Y209194D02*
X41506Y215506D01*
X33700Y204221D02*
X33700Y205588D01*
X37000Y169000D02*
Y205588D01*
X37527Y206860D02*
X43840Y213173D01*
X33700Y169001D02*
Y204221D01*
X71859Y426314D02*
X72351Y425409D01*
X35182Y385433D02*
X49314Y371301D01*
X37523Y387759D02*
X51640Y373642D01*
X73000Y126000D02*
X73300Y126300D01*
X79450D01*
X79750Y126600D01*
X72000Y117000D02*
X79750D01*
X152500Y155500D02*
X154637D01*
X154737Y155600D01*
X226000Y207500D02*
X230000D01*
X226000Y220000D02*
X230000D01*
X226000Y182500D02*
X230000D01*
X226000Y157500D02*
X230000D01*
X226000Y170000D02*
X230000D01*
X208619Y153940D02*
X212000Y153500D01*
X207573Y156993D02*
X207579Y156998D01*
X207580Y157000D02*
X210506Y159926D01*
X209000Y146500D02*
Y147958D01*
X207692Y149264D02*
X209000Y147958D01*
X204987Y152396D02*
X207609Y149354D01*
X205240Y159326D02*
X205245Y159332D01*
X240347Y161886D02*
X242000Y161000D01*
X234888Y162100D02*
X239496D01*
X230000Y157500D02*
X233100Y160600D01*
X230000Y170000D02*
X233100Y166900D01*
X235092Y186846D02*
X239813D01*
X230000Y182500D02*
X233100Y185600D01*
X233821Y186321D01*
X240585Y186672D02*
X242000Y186000D01*
X240266Y190429D02*
X242000Y191500D01*
X226000Y195000D02*
X233100Y191913D01*
X235598Y190161D02*
X239320D01*
X233100Y191913D02*
X234330Y190684D01*
X230000Y207500D02*
X233100Y210600D01*
X234888Y212100D02*
X239496D01*
Y215400D02*
X239504Y215400D01*
X240347Y211886D02*
X242000Y211000D01*
X240346Y215613D02*
X242000Y216500D01*
X234888Y215400D02*
X239483D01*
X230000Y220000D02*
X233100Y216900D01*
X211124Y214489D02*
X213000Y214500D01*
X208357Y206789D02*
X208400Y206719D01*
X209493Y211950D02*
X210721Y209223D01*
X208578Y217672D02*
X209000Y219500D01*
X206484Y210595D02*
X207712Y207868D01*
X208274Y206914D02*
X208281Y206904D01*
X126000Y152000D02*
Y155489D01*
X126011Y155500D01*
X127500D01*
X147011Y151352D02*
X148826D01*
X147000Y151363D02*
Y153500D01*
X148826Y151352D02*
X149942Y150236D01*
X147000Y151363D02*
X147011Y151352D01*
X149942Y150236D02*
X150538D01*
X85289Y158811D02*
X85300Y158800D01*
X78300Y171300D02*
X90800D01*
X65800D02*
X78300D01*
X83284Y166316D02*
X85289Y164311D01*
Y158811D02*
Y164311D01*
X127500Y166000D02*
X140000D01*
X147000Y153500D02*
Y159000D01*
X140000Y166000D02*
X147000Y159000D01*
X140000Y166000D02*
X152500D01*
X85311Y156652D02*
X89348D01*
X85300Y156663D02*
Y158800D01*
X89348Y156652D02*
X91000Y155000D01*
X85300Y156663D02*
X85311Y156652D01*
X65800Y391300D02*
X78300D01*
X85300Y378800D02*
Y384300D01*
X83284Y386316D02*
X85300Y384300D01*
X78300Y391300D02*
X90800D01*
X127989Y176500D02*
X128000Y176511D01*
Y180500D01*
X127500Y176500D02*
X127989D01*
X64158Y181811D02*
Y185442D01*
Y181811D02*
X64169Y181800D01*
X65800D01*
X60250Y409925D02*
Y410000D01*
X64300Y401811D02*
Y405875D01*
X64311Y401800D02*
X65800D01*
X60250Y409925D02*
X64300Y405875D01*
Y401811D02*
X64311Y401800D01*
X85300Y186534D02*
X85300Y183800D01*
X86098Y189462D02*
X87000Y191000D01*
X70194Y214029D02*
X71151Y213071D01*
X81800Y158800D02*
X81800Y158799D01*
X140000Y145750D02*
Y153500D01*
X136500Y178500D02*
Y184905D01*
X136000Y185405D02*
Y186000D01*
Y185405D02*
X136500Y184905D01*
X143587Y183282D02*
X145000Y188000D01*
X143511Y178699D02*
Y182765D01*
X133000Y151746D02*
Y153500D01*
X130000Y148000D02*
X132477Y150477D01*
X121187Y162500D02*
X121204Y162500D01*
X127500D01*
X114255Y175972D02*
X116705Y173523D01*
X117973Y173000D02*
X127500D01*
X114142Y169945D02*
X114157Y169943D01*
X109923Y163479D02*
X110170Y162967D01*
X133405Y143864D02*
X133411Y143865D01*
X134163Y140652D02*
X134171Y140654D01*
X130852Y139871D02*
X130871Y139875D01*
X136500Y153500D02*
X136500Y153500D01*
X136284Y150292D02*
X136493Y153421D01*
X117030Y143162D02*
X117030Y143162D01*
X116494Y143527D02*
X116497Y143524D01*
X117766Y139700D02*
X119200Y139700D01*
X95903Y162929D02*
X96115Y162876D01*
X94010Y164083D02*
X94013Y164083D01*
X94940Y235978D02*
X95107Y235757D01*
X90887Y234700D02*
X90901Y234700D01*
X96248Y190529D02*
X96248Y189175D01*
X97799Y216139D02*
X98069Y215918D01*
X98183Y215817D02*
X98194Y215806D01*
X94403Y213983D02*
X94411Y213983D01*
X108811Y181417D02*
X109466Y182072D01*
X106555Y175058D02*
X106555Y175972D01*
X94084Y217267D02*
X94097Y217269D01*
X115479Y210300D02*
Y210300D01*
X128861Y208806D02*
X129827Y207840D01*
X139860Y188173D02*
X140058Y187702D01*
X92937Y181800D02*
X92948Y181811D01*
X90800Y181800D02*
X92937D01*
X63106Y213829D02*
X64197Y215354D01*
X59108Y215048D02*
X60283Y213695D01*
X67056Y210643D02*
X72354Y205403D01*
X55787Y216905D02*
X56902Y216526D01*
X45149Y213700D02*
X55299Y213496D01*
X56612Y212888D02*
X56617Y212883D01*
X59098Y215059D02*
X59108Y215048D01*
X55211Y217000D02*
X55214Y217000D01*
X56617Y212883D02*
X57792Y211531D01*
X45113Y213700D02*
X45113Y213700D01*
X45113Y217000D02*
X55211D01*
X71300Y183800D02*
Y185954D01*
X74789Y186876D02*
X74800Y183807D01*
X72753Y191832D02*
X72814Y191643D01*
X71569Y195485D02*
X72753Y191832D01*
X72090Y199910D02*
X73468Y198532D01*
X74373Y198043D02*
X77899Y197307D01*
X80126Y196096D02*
X80135Y196087D01*
X80097Y196125D02*
X80126Y196096D01*
X81800Y183800D02*
Y192069D01*
X54899Y204116D02*
X61006Y199223D01*
X64193Y198104D02*
X68484Y198104D01*
X69756Y197577D02*
X71139Y196194D01*
X71147Y196186D01*
X62354Y205403D02*
X62395Y203171D01*
X64170Y198104D02*
X64193Y198104D01*
X64194Y201404D02*
X68484Y201404D01*
X54748Y204252D02*
X54760Y204240D01*
X54225Y205520D02*
Y207177D01*
X47570Y206430D02*
X47898Y206102D01*
X40700Y195005D02*
X40700Y174277D01*
X44246Y207197D02*
X46505Y206941D01*
X44000Y174290D02*
Y195000D01*
X41664Y197331D02*
X47889Y203556D01*
X44000Y195000D02*
X48056Y199056D01*
X50592D02*
X52403Y197246D01*
X44022Y174020D02*
X44202Y172895D01*
X47239Y171892D02*
X48600Y173231D01*
X43632Y168650D02*
X46426Y167202D01*
X40763Y173501D02*
X40943Y172376D01*
X44202Y172895D02*
X44203Y172886D01*
X48600Y173231D02*
Y177036D01*
X48523Y167523D02*
X49027Y168027D01*
X52146Y170400D02*
X53854D01*
X50390Y169542D02*
X51078Y170049D01*
X54916Y170053D02*
X55609Y169543D01*
X55985Y155137D02*
X56000Y159414D01*
X57806Y161198D02*
X58206Y161196D01*
X55837Y169364D02*
X57188Y168231D01*
X60000Y159414D02*
X60000Y159405D01*
X58341Y167811D02*
X65800Y167800D01*
X60000Y154800D02*
Y159405D01*
X49157Y178380D02*
X51255Y180477D01*
X52523Y181000D02*
X55254D01*
X59446Y178300D02*
X65800D01*
X56522Y180478D02*
X58177Y178823D01*
X34661Y166672D02*
X45148Y156185D01*
X53955Y150048D02*
X61571Y149705D01*
X37000Y169000D02*
X40970Y165030D01*
X47488Y158511D02*
X50766Y155234D01*
X49297Y152208D02*
X51458Y150833D01*
X51069Y154992D02*
X53224Y153621D01*
X45148Y156185D02*
X48436Y152897D01*
X40970Y165030D02*
X47482Y158518D01*
X61800Y149700D02*
X67254Y149700D01*
X76123Y148123D02*
X77777Y149777D01*
X78300Y151046D02*
Y158800D01*
X73000Y147600D02*
X74854D01*
X68042Y149519D02*
X71076Y148043D01*
X61800Y153000D02*
X67254D01*
X68857Y153980D02*
X71300Y158800D01*
X53000Y176000D02*
X53421Y175579D01*
X55163D01*
X98194Y215806D02*
X98194D01*
X111809Y179748D02*
X112840Y180779D01*
X111277Y185156D02*
Y185261D01*
X108812Y205188D02*
X108832Y205165D01*
X73316Y96284D02*
Y96300D01*
Y86284D02*
X73800D01*
X63316D02*
Y86346D01*
Y96284D02*
Y96346D01*
X53316Y96284D02*
Y96578D01*
Y86284D02*
Y86598D01*
X90800Y394800D02*
X99054D01*
X100323Y395323D02*
X101000Y396000D01*
X90800Y387800D02*
X90811Y387811D01*
X100811D01*
X101000Y388000D01*
X53316Y316284D02*
Y316800D01*
Y306284D02*
Y306300D01*
X63316Y306284D02*
Y306300D01*
Y316284D02*
Y316300D01*
X73316Y316284D02*
Y316300D01*
Y306284D02*
Y306300D01*
X101000Y388000D02*
X101421Y388421D01*
X58470Y398300D02*
X65800D01*
X82323Y372677D02*
X84000Y371000D01*
X81800Y373946D02*
Y378800D01*
X74800Y374546D02*
Y378800D01*
X73000Y372000D02*
X74277Y373277D01*
X53000Y396000D02*
X55910Y394914D01*
X56539Y394800D02*
X65800D01*
X97000Y376000D02*
Y381161D01*
X90800Y384300D02*
X94845D01*
X91989Y380800D02*
X92000Y380789D01*
Y372000D02*
Y380789D01*
X90800Y380800D02*
X91989D01*
X90999Y398311D02*
X93566D01*
X90800Y401800D02*
X91989D01*
X92000Y401811D02*
Y412000D01*
X97000Y401746D02*
Y408000D01*
X91989Y401800D02*
X92000Y401811D01*
X95787Y399496D02*
X96654Y400684D01*
X94341Y398487D02*
X94883Y398745D01*
X81800Y403800D02*
Y414454D01*
X78823Y418177D02*
X81277Y415723D01*
X77000Y413000D02*
X77777Y412223D01*
X78300Y403800D02*
Y410954D01*
X67000Y411000D02*
X70777Y407223D01*
X71300Y403800D02*
Y405954D01*
X73868Y409910D02*
X74275Y409494D01*
X74789Y403989D02*
Y408235D01*
X70728Y414877D02*
X72118Y413488D01*
X67455Y415400D02*
X69460D01*
X67455Y418700D02*
X77554D01*
X62354Y420500D02*
Y425403D01*
X64155Y418700D02*
X67455D01*
X64155Y415400D02*
X67442D01*
X55398Y423259D02*
X59132Y417995D01*
X55069Y424295D02*
Y425628D01*
X54246Y427197D02*
X54547Y426896D01*
X70901Y426460D02*
X71495Y426198D01*
X59142Y435038D02*
X59149Y435030D01*
X67152Y430540D02*
X70280Y426924D01*
X59149Y435030D02*
X60270Y433711D01*
X63106Y433829D02*
X64197Y435354D01*
X56634Y432893D02*
X57755Y431574D01*
X56628Y432901D02*
X56634Y432893D01*
X44580Y433700D02*
X45692Y433700D01*
X46005Y433673D02*
X55301Y433518D01*
X33700Y424766D02*
X33700Y426120D01*
X37000Y424753D02*
Y426120D01*
X35181Y429714D02*
X40974Y435506D01*
X37527Y427393D02*
X43307Y433173D01*
X45692Y433700D02*
X45704Y433700D01*
X45918Y433684D02*
X46005Y433673D01*
X37000Y390395D02*
Y424753D01*
Y390394D02*
X37000Y389027D01*
X33700Y390395D02*
Y424753D01*
Y390382D02*
X33700Y389027D01*
X44246Y427197D02*
X46723Y426943D01*
X47808Y426430D02*
X48017Y426220D01*
X50695Y419159D02*
X52433Y417421D01*
X44527Y415527D02*
X45487Y416487D01*
X48600Y393439D02*
X48600Y396000D01*
X42194Y417861D02*
X43154Y418821D01*
X43160Y418827D02*
X48017Y423684D01*
X46361Y391401D02*
X47361Y391729D01*
X40700Y393111D02*
Y414254D01*
X45494Y416494D02*
X48159Y419159D01*
X44000Y393111D02*
Y414254D01*
X49883Y399106D02*
X50539Y399762D01*
X57979Y398791D02*
X58470Y398300D01*
X51611Y400274D02*
X52519Y400374D01*
X53189Y400396D02*
X55818Y400283D01*
X57008Y399762D02*
X57979Y398791D01*
X62909Y388011D02*
X63109Y387811D01*
X53889Y390309D02*
X54652Y390152D01*
X59324Y388011D02*
X62909D01*
X55125Y389983D02*
X58487Y388217D01*
X53000Y386000D02*
X54177Y384823D01*
X63109Y387811D02*
X65789D01*
X65800Y387800D01*
X55446Y384300D02*
X65800D01*
X59158Y380111D02*
X60988Y378280D01*
X57800Y380633D02*
X57890D01*
X71300Y377839D02*
Y378800D01*
X62886Y373898D02*
X62899Y373885D01*
X55466Y373649D02*
X55466Y373649D01*
X56000Y374928D02*
Y378833D01*
X63665Y373119D02*
X66580D01*
X52909Y373119D02*
X54200Y373119D01*
X62899Y373885D02*
X63665Y373119D01*
X61411Y377604D02*
X62467Y374572D01*
X67848Y373642D02*
X70777Y376571D01*
X52909Y369819D02*
X54200Y369819D01*
X67670D01*
X68624Y369546D02*
X70669Y368268D01*
X75676Y368123D02*
X77962Y370408D01*
X72747Y367600D02*
X74408D01*
X78484Y371676D02*
Y378016D01*
X72153Y367682D02*
X72408Y367632D01*
X55252Y437000D02*
X55255Y437000D01*
X55813Y436909D02*
X56868Y436562D01*
X46005Y437000D02*
X55252D01*
X44580Y437000D02*
X45692Y437000D01*
X46005Y437000D01*
D47*
X197133Y169279D02*
D03*
D48*
X176650Y356650D02*
X178847Y358847D01*
X168000Y356250D02*
X168400Y356650D01*
X176650D01*
X150847Y17250D02*
Y19847D01*
Y14847D02*
Y17250D01*
X157000D02*
Y20000D01*
Y14500D02*
Y17250D01*
X150847D02*
X157000D01*
X144750D02*
X150847D01*
X143000Y15500D02*
X144750Y17250D01*
X150500Y14500D02*
X157000D01*
X144000D02*
X150500D01*
X150847Y14847D01*
X151000Y20000D02*
X157000D01*
X194239Y74239D02*
Y79261D01*
X196031Y76031D02*
X199156Y79156D01*
X188409Y84591D02*
X202909D01*
X202000Y81985D02*
Y82000D01*
X202909Y84591D02*
X205500Y82000D01*
X188000Y85000D02*
X188409Y84591D01*
X202000Y79487D02*
Y81985D01*
X194239Y74239D02*
X195878Y75878D01*
X192600Y72600D02*
X194239Y74239D01*
X191847Y81653D02*
X194239Y79261D01*
X196031Y80814D02*
X196500Y81284D01*
Y81500D01*
X195878Y75878D02*
X196031Y76031D01*
Y80814D01*
X196500Y81500D02*
X196653Y81653D01*
X201668D01*
X202000Y81985D01*
X189900Y83600D02*
X191847Y81653D01*
X196347D01*
X196500Y81500D01*
X192600Y57169D02*
Y72600D01*
X201668Y79156D02*
X202000Y79487D01*
X199156Y79156D02*
X201668D01*
X202000Y82000D02*
X205500D01*
X236865Y284497D02*
X237018Y284650D01*
X227997Y284497D02*
X236865D01*
X226000Y282500D02*
X227997Y284497D01*
X141000Y318000D02*
Y326000D01*
X130900Y307900D02*
X141000Y318000D01*
X118650Y307900D02*
X130900D01*
X141000Y326250D02*
X144400Y329650D01*
X146895D02*
X149595Y332350D01*
X154400Y343184D02*
X155000Y343783D01*
X132405Y332350D02*
X135105Y329650D01*
X129000Y335750D02*
Y336000D01*
X153000Y335750D02*
Y336000D01*
X149600Y332350D02*
X153000Y335750D01*
X154400Y337400D02*
Y343184D01*
X137600Y329650D02*
X141000Y326250D01*
X132400Y332350D02*
X132405D01*
X149595D02*
X149600D01*
X135105Y329650D02*
X137600D01*
X129000Y335750D02*
X132400Y332350D01*
X155000Y343783D02*
Y344000D01*
X153000Y336000D02*
X154400Y337400D01*
X118000Y307250D02*
X118650Y307900D01*
X144400Y329650D02*
X146895D01*
X143000Y54500D02*
X145347Y52153D01*
X141038Y56462D02*
X143000Y54500D01*
X73000Y256032D02*
Y262000D01*
X63284Y246316D02*
X73000Y256032D01*
X164400Y341183D02*
X166000Y342784D01*
X164400Y337650D02*
Y341183D01*
X163000Y336250D02*
X164400Y337650D01*
X166000Y342784D02*
Y343000D01*
X92000Y302000D02*
X92500Y301500D01*
Y292500D02*
X93000Y292000D01*
X92500Y292500D02*
Y301500D01*
X9500Y408000D02*
X14000D01*
X5000D02*
X9500D01*
X25100Y167300D02*
Y202898D01*
X22500Y164700D02*
X25100Y167300D01*
X25000Y206577D02*
X31384Y212961D01*
X25000Y202998D02*
Y206577D01*
Y202998D02*
X25100Y202898D01*
X3100Y311509D02*
Y317515D01*
X3650Y318065D02*
Y324434D01*
X3100Y317515D02*
X3650Y318065D01*
Y288137D02*
Y310959D01*
X3100Y311509D02*
X3650Y310959D01*
X14456Y298344D02*
X15000Y297800D01*
X13702Y298976D02*
X14334Y298344D01*
X12448Y301332D02*
X13702Y300079D01*
X15000Y296200D02*
Y297800D01*
X12448Y301332D02*
Y301549D01*
X14334Y298344D02*
X14456D01*
X13702Y298976D02*
Y300079D01*
Y301702D02*
X18350Y306350D01*
X219200Y95200D02*
Y103200D01*
X220000Y104000D01*
X205500Y82000D02*
X206000D01*
X219200Y95200D01*
X170500Y456000D02*
X170750D01*
X165000Y444500D02*
X167500D01*
X168900Y445900D01*
Y454400D01*
X170500Y456000D01*
X135538Y56462D02*
X141038D01*
X127000Y65000D02*
X135538Y56462D01*
X33469Y316469D02*
X33747D01*
X38000Y320722D02*
Y320972D01*
X33747Y316469D02*
X38000Y320722D01*
X33316Y316316D02*
X33469Y316469D01*
X85120Y350120D02*
X89120D01*
X90000Y351000D01*
X83000Y348000D02*
X85120Y350120D01*
X77400Y333284D02*
X81125D01*
X83000Y335159D01*
Y348000D01*
X76000Y331750D02*
Y331884D01*
X77400Y333284D01*
X67000Y331750D02*
X76000D01*
X90125Y136875D02*
X90250Y137000D01*
X90125Y117125D02*
Y136875D01*
Y117125D02*
X90250Y117000D01*
X145347Y52153D02*
X149847D01*
X157653D02*
X158000Y52500D01*
X149847Y52153D02*
X150000Y52000D01*
X150153Y52153D02*
X157653D01*
X150000Y52000D02*
X150153Y52153D01*
X154750Y138000D02*
X159500D01*
X140000Y200197D02*
X141400Y201597D01*
X146597D02*
X146750Y201750D01*
X140000Y200000D02*
Y200197D01*
X141400Y201597D02*
X146597D01*
X254125Y350125D02*
Y359875D01*
X254000Y360000D02*
X254125Y359875D01*
Y350125D02*
X254250Y350000D01*
X254125Y366875D02*
X254250Y367000D01*
X254125Y360125D02*
Y366875D01*
X254000Y360000D02*
X254125Y360125D01*
X131713Y367000D02*
Y389126D01*
X133587Y391000D02*
X139750D01*
X131713Y389126D02*
X133587Y391000D01*
X131713Y367000D02*
X139750D01*
X122436Y357723D02*
X131713Y367000D01*
X143000Y15513D02*
X146332Y18844D01*
X147347Y19847D02*
X150847D01*
X151000Y20000D01*
X143000Y15500D02*
Y15513D01*
X146332Y18844D02*
X146344D01*
X147347Y19847D01*
X157000Y14500D02*
X158000Y13500D01*
X68000Y5000D02*
X68125Y4875D01*
X78875D02*
X79000Y4750D01*
X68125Y4875D02*
X78875D01*
X60125D02*
X67875D01*
X60000Y4750D02*
X60125Y4875D01*
X67875D02*
X68000Y5000D01*
X9000Y159000D02*
X16000D01*
X18350Y306600D02*
X19750Y308000D01*
X20000D01*
X18350Y306350D02*
Y306600D01*
X183000Y113000D02*
X189750D01*
X111250Y78000D02*
X126000D01*
X126000Y78000D01*
X120800Y51017D02*
X124783Y55000D01*
X111000Y48500D02*
X113516Y51017D01*
X120800D01*
X124783Y55000D02*
X125000D01*
X195000Y9000D02*
X205500D01*
X191000D02*
X195000D01*
X180217Y381850D02*
X181900Y380167D01*
X168400Y381850D02*
X180217D01*
X196917Y380167D02*
X197000Y380084D01*
X181900Y380167D02*
X196917D01*
X167950Y382300D02*
X168400Y381850D01*
X172000Y336250D02*
X172085Y336335D01*
Y343237D01*
X172170Y343322D01*
X255370Y398120D02*
X264120D01*
X216566Y375350D02*
X225600D01*
X226000Y375750D01*
X212000Y371000D02*
X212216D01*
X216566Y375350D01*
X185145Y374638D02*
X185362D01*
X184316Y375467D02*
X185145Y374638D01*
X168283Y375467D02*
X184316D01*
X168000Y375750D02*
X168283Y375467D01*
X157498Y373750D02*
X159098Y375350D01*
X167600D01*
X168000Y375750D01*
X154549Y373750D02*
X157498D01*
X151299Y377000D02*
X154549Y373750D01*
X150000Y377000D02*
X151299D01*
X213000Y381000D02*
X213216D01*
X214066Y381850D01*
X225600D01*
X226000Y382250D01*
X225600Y362350D02*
X226000Y362750D01*
X215566Y362350D02*
X225600D01*
X214216Y361000D02*
X215566Y362350D01*
X214000Y361000D02*
X214216D01*
X153900Y384100D02*
X155700Y382300D01*
X167950D01*
X146100Y384100D02*
X153900D01*
X139000Y377000D02*
X146100Y384100D01*
X208000Y355000D02*
X208216D01*
X209116Y355900D01*
X225650D01*
X226000Y356250D01*
X154216Y359000D02*
X157566Y362350D01*
X167600D01*
X168000Y362750D01*
X154000Y359000D02*
X154216D01*
X259634Y387430D02*
X259800Y387264D01*
X264986D02*
X265000Y387250D01*
X254570Y387430D02*
X259634D01*
X254000Y388000D02*
X254570Y387430D01*
X259800Y387264D02*
X264986D01*
X226000Y245000D02*
X262000D01*
X226347Y257153D02*
X261847D01*
X262000Y257000D01*
X226000Y257500D02*
X226347Y257153D01*
X184000Y32500D02*
X184944Y31556D01*
X191944D02*
X201500Y22000D01*
X184944Y31556D02*
X191944D01*
X7000Y327784D02*
Y328000D01*
X3650Y288137D02*
X6888Y284900D01*
X3650Y324434D02*
X7000Y327784D01*
X6888Y284900D02*
X16525D01*
X21500Y289874D01*
X15700Y50600D02*
X15800Y50500D01*
X9216Y51000D02*
X9617Y50600D01*
X9000Y51000D02*
X9216D01*
X9617Y50600D02*
X15700D01*
X15800Y63500D02*
X17400D01*
X17500Y65200D02*
X21300Y69000D01*
X17400Y63500D02*
X17500Y63600D01*
X21300Y69000D02*
X30000D01*
X17500Y63600D02*
Y65200D01*
X30000Y69000D02*
X37000Y76000D01*
X31384Y214200D02*
X33131Y215947D01*
Y216163D01*
X31384Y212961D02*
Y214200D01*
X14600Y199400D02*
X16000Y198000D01*
X14000Y205784D02*
X14600Y205184D01*
X14000Y205784D02*
Y206000D01*
X14600Y199400D02*
Y205184D01*
X7000Y198000D02*
Y206000D01*
X22500Y146200D02*
Y164700D01*
X10000Y134783D02*
Y135000D01*
X9600Y134383D02*
X10000Y134783D01*
X9600Y127900D02*
Y134383D01*
X9500Y127800D02*
X9600Y127900D01*
X37000Y76000D02*
Y92351D01*
X33284Y96067D02*
X37000Y92351D01*
X21500Y289874D02*
Y296200D01*
X33284Y256316D02*
X33500D01*
X35417Y254400D01*
X41600D01*
X43000Y253000D01*
X33284Y96067D02*
Y96284D01*
X8000Y461000D02*
X8153Y460847D01*
Y455600D02*
Y460847D01*
Y455600D02*
X8253Y455500D01*
X8800D01*
X5000Y278000D02*
X5100Y277900D01*
X8400D01*
X8500Y277800D01*
X37847Y45153D02*
X38000Y45000D01*
X37847Y45153D02*
Y46853D01*
X35900Y48800D02*
X37847Y46853D01*
X35900Y48800D02*
Y50400D01*
X35800Y50500D02*
X35900Y50400D01*
X34200Y50500D02*
X35800D01*
X171000Y105250D02*
Y113000D01*
X111000Y48500D02*
X111000Y48500D01*
X97193Y48500D02*
X111000D01*
X96489Y47796D02*
X97193Y48500D01*
X95785D02*
X96489Y47796D01*
X95000Y48500D02*
X95785D01*
X100500Y78000D02*
X100750D01*
X98900Y76400D02*
X100500Y78000D01*
X98900Y68900D02*
Y76400D01*
X97500Y67500D02*
X98900Y68900D01*
X95000Y67500D02*
X97500D01*
X159900Y100100D02*
Y101100D01*
Y100100D02*
X165245Y94755D01*
X158000Y103000D02*
X159900Y101100D01*
X157000Y103000D02*
X158000D01*
X165245Y94755D02*
X170995D01*
X171000Y94750D01*
X178755Y75720D02*
Y83995D01*
Y75720D02*
X180100Y74374D01*
Y72900D02*
Y74374D01*
X181500Y71500D02*
X184000D01*
X180100Y72900D02*
X181500Y71500D01*
X143000Y15500D02*
X144000Y14500D01*
X189331Y53900D02*
X192600Y57169D01*
X185400Y53900D02*
X189331D01*
X184000Y52500D02*
X185400Y53900D01*
X184000Y13500D02*
X186500D01*
X191000Y9000D01*
X205513D02*
X211600Y15087D01*
Y19600D01*
X213000Y21000D01*
X213250D01*
X144000Y129000D02*
Y134000D01*
X135000Y129000D02*
Y134000D01*
X80000Y30000D02*
X80250D01*
X81650Y31400D01*
Y31650D01*
X83131Y33131D01*
Y36163D01*
X83284Y36316D01*
X123316Y46284D02*
X131000Y38600D01*
Y24000D02*
Y38600D01*
X113000Y24000D02*
X113142Y24142D01*
Y36174D01*
X113284Y36316D01*
X123316Y36067D02*
Y36284D01*
X122000Y34751D02*
X123316Y36067D01*
X122000Y24000D02*
Y34751D01*
X97568Y22000D02*
X103284Y16284D01*
X91000Y22000D02*
X97568D01*
X37869Y16131D02*
X39000Y15000D01*
X48000D01*
X33284Y16284D02*
X33437Y16131D01*
X37869D01*
X33276Y26292D02*
X33284Y26284D01*
X28308Y26292D02*
X33276D01*
X28300Y26300D02*
X28308Y26292D01*
X53067Y26284D02*
X53284D01*
X51784Y25000D02*
X53067Y26284D01*
X44000Y25000D02*
X51784D01*
X17142Y16142D02*
Y22426D01*
X13284Y26284D02*
X17142Y22426D01*
X23131Y106469D02*
X23284Y106316D01*
X23131Y106469D02*
Y112119D01*
X22250Y113000D02*
X23131Y112119D01*
X22319Y436819D02*
Y436892D01*
X15000Y429500D02*
X22319Y436819D01*
X31617Y437725D02*
Y439683D01*
X28800Y442500D02*
X31617Y439683D01*
Y437725D02*
X31770Y437572D01*
X27200Y442500D02*
X28800D01*
X24000Y317000D02*
Y321750D01*
X103163Y246163D02*
X103316Y246316D01*
X97163Y246163D02*
X103163D01*
X96000Y245000D02*
X97163Y246163D01*
X27000Y373000D02*
X35000D01*
X92000Y364784D02*
Y365000D01*
X90000Y362784D02*
X92000Y364784D01*
X90000Y351000D02*
Y362784D01*
X71000Y358000D02*
X76064Y352936D01*
Y342314D02*
Y352936D01*
X76000Y342250D02*
X76064Y342314D01*
X103316Y426100D02*
Y426316D01*
Y426100D02*
X104600Y424816D01*
Y422400D02*
Y424816D01*
Y422400D02*
X106000Y421000D01*
X123316Y386100D02*
Y386316D01*
X122650Y385434D02*
X123316Y386100D01*
X122650Y382400D02*
Y385434D01*
X121250Y381000D02*
X122650Y382400D01*
X121000Y381000D02*
X121250D01*
X123316Y366284D02*
Y366500D01*
X122650Y367166D02*
X123316Y366500D01*
X122650Y367166D02*
Y370600D01*
X121250Y372000D02*
X122650Y370600D01*
X121000Y372000D02*
X121250D01*
X15000Y429250D02*
Y429500D01*
X16000Y146200D02*
Y159000D01*
X23131Y216469D02*
X23284Y216316D01*
X22031Y216469D02*
X23131D01*
X18500Y220000D02*
X22031Y216469D01*
X18250Y220000D02*
X18500D01*
X23284Y246100D02*
Y246316D01*
X22400Y245216D02*
X23284Y246100D01*
X22400Y241400D02*
Y245216D01*
X21000Y240000D02*
X22400Y241400D01*
X45000Y240000D02*
Y240250D01*
X50881Y246131D01*
X53131D01*
X53284Y246284D01*
Y236284D02*
X53437Y236437D01*
X55687D01*
X59000Y239750D01*
Y240000D01*
X33284Y246316D02*
X33437Y246163D01*
Y240563D02*
Y246163D01*
Y240563D02*
X34000Y240000D01*
X37979Y261011D02*
X41761D01*
X42750Y262000D01*
X33437Y256469D02*
X37979Y261011D01*
X264120Y398120D02*
X265000Y399000D01*
X254250Y397000D02*
X255370Y398120D01*
X201500Y22000D02*
X202000D01*
X177750Y85000D02*
X178755Y83995D01*
X60250Y190000D02*
X60500D01*
X64005Y185595D02*
X64158Y185442D01*
X64005Y185595D02*
Y186495D01*
X60500Y190000D02*
X64005Y186495D01*
X128000Y180500D02*
X128000D01*
X123375Y185125D02*
X128000Y180500D01*
X123375Y185125D02*
Y185125D01*
X124000Y185750D01*
D49*
X173250Y73454D02*
X173253Y73457D01*
X170375Y62000D02*
X173250Y64875D01*
Y73454D01*
X110750Y372000D02*
Y381000D01*
X96000Y255000D02*
Y255250D01*
Y254750D02*
Y255000D01*
X8800Y442500D02*
Y449000D01*
X236000Y308000D02*
X255000D01*
X257500D01*
X266000Y316500D01*
Y323000D01*
X148625Y212375D02*
Y221000D01*
X140000Y210000D02*
X147000D01*
X149000Y212000D01*
X148625Y221000D02*
X153000D01*
X144250D02*
X148625D01*
Y212375D02*
X149000Y212000D01*
X144000Y220750D02*
X144250Y221000D01*
X135000Y220750D02*
X138750Y217000D01*
X140000D01*
X135000Y220750D02*
Y221000D01*
X149000Y212000D02*
X152000Y215000D01*
Y220000D02*
X153000Y221000D01*
X152000Y215000D02*
Y220000D01*
X18000Y80000D02*
X28000D01*
X10000Y308000D02*
X11000Y309000D01*
Y314000D01*
X16000Y317000D02*
X18000Y315000D01*
X16000Y317000D02*
Y321000D01*
X15000Y322000D02*
X16000Y321000D01*
X89593Y253750D02*
X95000D01*
X86000Y247000D02*
X86250D01*
X87250Y248000D01*
Y251407D01*
X89593Y253750D01*
X95000D02*
X96000Y254750D01*
X76250Y247000D02*
X78875Y249625D01*
Y251907D01*
X83284Y256316D01*
X76000Y247000D02*
X76250D01*
X53000Y253000D02*
X60000D01*
X63270Y256270D02*
Y256298D01*
X60000Y253000D02*
X63270Y256270D01*
X83284Y256316D02*
Y261784D01*
X91000Y260250D02*
X96000Y255250D01*
X91000Y260250D02*
Y261000D01*
X54250Y263000D02*
X65000D01*
X53250Y262000D02*
X54250Y263000D01*
X14542Y418292D02*
X15000Y418750D01*
X5708Y418292D02*
X14542D01*
X5000Y419000D02*
X5708Y418292D01*
X38061Y331032D02*
X46968D01*
X38000Y330972D02*
X38061Y331032D01*
X47000Y331064D02*
Y341000D01*
X46968Y331032D02*
X47000Y331064D01*
X38000Y341000D02*
X47000D01*
X38000D02*
X38000Y341000D01*
Y330972D02*
Y341000D01*
X14000Y333000D02*
Y338000D01*
Y333000D02*
X15000Y332000D01*
X13000Y339000D02*
X14000Y338000D01*
X15000Y332000D02*
X15125Y332125D01*
X23875D02*
X24000Y332250D01*
X15125Y332125D02*
X23875D01*
X109000Y457750D02*
Y458000D01*
Y457750D02*
X110000Y456750D01*
X118750D01*
X120750Y454750D01*
X94000Y456000D02*
X95000Y457000D01*
X98000D01*
X99000Y458000D01*
Y458250D01*
X122500Y437000D02*
X130000D01*
X121000Y438500D02*
X122500Y437000D01*
X86010Y427990D02*
Y437490D01*
X85000Y438500D02*
X86010Y437490D01*
Y427990D02*
X91000Y423000D01*
X122500Y454000D02*
X131000D01*
X121000Y455500D02*
X122500Y454000D01*
X78000Y453000D02*
X82500D01*
X85000Y455500D01*
X9000Y169000D02*
X16000D01*
X11000Y179000D02*
X15072Y183072D01*
Y187072D02*
X16000Y188000D01*
X15072Y183072D02*
Y187072D01*
X7000Y188000D02*
X16000D01*
X7000D02*
X8000Y187000D01*
Y182000D02*
Y187000D01*
Y182000D02*
X11000Y179000D01*
X253000Y306000D02*
X255000Y308000D01*
X253000Y296000D02*
Y306000D01*
X233604Y266396D02*
X237073D01*
X230000Y270000D02*
X233604Y266396D01*
X226000Y270000D02*
X230000D01*
X228000Y272000D02*
X237000D01*
X226000Y270000D02*
X228000Y272000D01*
X230000Y232500D02*
X233413Y229087D01*
X242913D02*
X244000Y228000D01*
X228000Y232500D02*
X230000D01*
X233413Y229087D02*
X242913D01*
X228000Y232500D02*
X243500D01*
X226000D02*
X228000D01*
X244000Y228000D02*
Y233000D01*
X243500Y232500D02*
X244000Y233000D01*
X37000Y295000D02*
X41679D01*
X45179Y291500D01*
X55750Y295000D02*
X58750Y298000D01*
X59000D01*
X45179Y291500D02*
X52821D01*
X55750Y294429D02*
Y295000D01*
X52821Y291500D02*
X55750Y294429D01*
X79125Y297500D02*
Y299375D01*
X81750Y302000D02*
X82000D01*
X79125Y299375D02*
X81750Y302000D01*
X161000Y294000D02*
X161250Y294250D01*
X176000D01*
X106000Y410750D02*
X115000D01*
X106000Y411000D02*
Y411250D01*
Y410750D02*
Y411000D01*
X100000Y361250D02*
X109000D01*
X126000Y118750D02*
X144000D01*
X5000Y397750D02*
X23000D01*
X18000Y373250D02*
X27000D01*
X21000Y229750D02*
X27375D01*
X36750Y125000D02*
Y143000D01*
X47000Y64000D02*
X51500D01*
X34700D02*
X47000D01*
X48500Y65500D01*
X40500Y57500D02*
X47000Y64000D01*
X124000Y237000D02*
X125250Y235750D01*
Y231000D02*
Y235750D01*
X118000Y242250D02*
X122913D01*
X123163Y237837D02*
Y242000D01*
X122913Y242250D02*
X123163Y242000D01*
X125250Y222000D02*
Y231000D01*
X125750Y221500D02*
X134500D01*
X135000Y221000D01*
X125250Y222000D02*
X125750Y221500D01*
X135000Y221000D02*
X144000D01*
X143000Y219750D02*
X144000Y220750D01*
Y221000D01*
X140000Y210000D02*
Y217000D01*
X142750Y219750D01*
X143000D01*
X27375Y229750D02*
X33750D01*
X45000Y225000D02*
Y230000D01*
X59000Y225000D02*
Y230000D01*
X36750Y125000D02*
X37000D01*
X24500D02*
X36750D01*
X22500Y127000D02*
X24500Y125000D01*
X22500Y127000D02*
Y127800D01*
X37000Y116000D02*
Y125000D01*
X41000Y103000D02*
Y103191D01*
X37000Y107191D02*
Y116000D01*
Y107191D02*
X41000Y103191D01*
X16000Y127800D02*
X22500D01*
X15500Y124490D02*
Y127300D01*
X16000Y127800D01*
X11750Y113000D02*
Y120740D01*
X15500Y124490D01*
X248000Y104000D02*
X257000D01*
X255000Y132000D02*
X260000Y127000D01*
Y117000D02*
Y127000D01*
X223000Y82000D02*
X230000Y75000D01*
X222500Y82000D02*
X223000D01*
X224000Y10500D02*
Y19000D01*
X222500Y9000D02*
X224000Y10500D01*
X173000Y24000D02*
X174000Y23000D01*
X184000D01*
X17500Y5500D02*
X28000D01*
X38500D01*
X17000Y6000D02*
X17500Y5500D01*
X38500D02*
X39000Y5000D01*
X9000Y6000D02*
X17000D01*
X9000Y6000D02*
X9000Y6000D01*
X6000Y22000D02*
Y30000D01*
X13000Y106600D02*
X13284Y106316D01*
X11750Y113000D02*
X12000D01*
X13000Y112000D01*
Y106600D02*
Y112000D01*
X157250Y115250D02*
Y125568D01*
X157000Y115000D02*
X157250Y115250D01*
X181000Y101000D02*
X187250D01*
X215000Y126000D02*
X215536Y125464D01*
X202750Y126000D02*
X215000D01*
X144000Y119250D02*
X145000Y120250D01*
X151932D01*
X157250Y125568D01*
X144000Y119000D02*
Y119250D01*
X157250Y125568D02*
Y126000D01*
X88050Y61000D02*
X89500D01*
X92500Y58000D02*
X95000D01*
X86000Y63050D02*
Y63121D01*
X89500Y61000D02*
X92500Y58000D01*
X83240Y65881D02*
X86000Y63121D01*
Y63050D02*
X88050Y61000D01*
X96000Y59000D02*
X104729D01*
X111000Y65271D01*
X95000Y58000D02*
X96000Y59000D01*
X111000Y65271D02*
Y65500D01*
X118500Y100500D02*
X128500D01*
X118000Y100000D02*
X118500Y100500D01*
X128500D02*
X129000Y101000D01*
X118000Y100000D02*
Y109000D01*
X118000Y90000D02*
Y100000D01*
X118000Y100000D02*
X118000Y100000D01*
X98250Y30750D02*
X103000Y26000D01*
X91000Y31750D02*
Y32000D01*
Y31750D02*
X92000Y30750D01*
X98250D01*
X88000Y15000D02*
X94000Y9000D01*
X108250D02*
X113000Y13750D01*
X94000Y9000D02*
X108250D01*
X113000Y13750D02*
Y14000D01*
X122000D02*
X131000D01*
X119000D02*
X122000D01*
X113000D02*
X113000Y14000D01*
X119000D01*
X119000Y14000D01*
X9000Y258000D02*
X9765Y257235D01*
Y254235D02*
Y257235D01*
Y254235D02*
X11000Y253000D01*
X15000Y277800D02*
X21500D01*
X32200D02*
X34000Y276000D01*
X21500Y277800D02*
X32200D01*
X25000Y347000D02*
X25191D01*
X29191Y351000D02*
X38000D01*
X25191Y347000D02*
X29191Y351000D01*
X244000Y406000D02*
Y418000D01*
X237000Y407000D02*
X237500Y406500D01*
X243500D02*
X244000Y406000D01*
X226000Y408250D02*
X234071D01*
X235321Y407000D02*
X237000D01*
X234071Y408250D02*
X235321Y407000D01*
X237500Y406500D02*
X243500D01*
X265000Y409500D02*
Y417000D01*
Y369000D02*
Y377000D01*
X254250Y379000D02*
X263000D01*
X265000Y377000D01*
X60500Y326396D02*
Y326396D01*
X58362Y328534D02*
Y330638D01*
X46000Y319000D02*
X58000Y331000D01*
X58362Y328534D02*
X60500Y326396D01*
X58000Y331000D02*
X58362Y330638D01*
X60500Y326396D02*
X64790Y322106D01*
X97461D01*
X46000Y308968D02*
Y319000D01*
X43316Y306284D02*
X46000Y308968D01*
X58000Y331000D02*
X58784Y331784D01*
Y350784D01*
X47750Y299000D02*
X48000D01*
X43316Y303434D02*
Y306284D01*
X53284Y356284D02*
X58784Y350784D01*
X48000Y352250D02*
X52034Y356284D01*
X48000Y352000D02*
Y352250D01*
X63000Y108343D02*
X65343Y106000D01*
X63000Y108343D02*
Y128861D01*
X65343Y106000D02*
X77000D01*
X86684Y96316D01*
X200250Y138000D02*
X207000D01*
X55861Y136000D02*
X63000Y128861D01*
X53568Y136000D02*
X55861D01*
X53284Y136284D02*
X53568Y136000D01*
X55000Y122679D02*
Y125000D01*
X50821Y118500D02*
X55000Y122679D01*
X49750Y118500D02*
X50821D01*
X48250Y117000D02*
X49750Y118500D01*
X48000Y117000D02*
X48250D01*
X47000Y116000D02*
X48000Y117000D01*
X86684Y96316D02*
X103316D01*
X97461Y322106D02*
X103284Y316284D01*
X47000Y351000D02*
X48000Y352000D01*
X43316Y303434D02*
X47750Y299000D01*
X136625Y88250D02*
X141750D01*
X131500D02*
X136625D01*
X20500Y359100D02*
Y359407D01*
X18000Y362750D02*
X18000D01*
X19000Y361750D01*
X20500Y359100D02*
X23316Y356284D01*
X19000Y360907D02*
X20500Y359407D01*
X19000Y360907D02*
Y361750D01*
X104534Y346284D02*
X109000Y350750D01*
Y351000D01*
X103284Y346284D02*
X104534D01*
X100000Y350750D02*
X103284Y347466D01*
X100000Y350750D02*
Y351000D01*
X103284Y346284D02*
Y347466D01*
X33284Y355966D02*
Y356316D01*
X38000Y351000D02*
Y351250D01*
X33284Y355966D02*
X38000Y351250D01*
X5000Y41000D02*
X6000Y40000D01*
X5000Y41000D02*
Y46500D01*
X39000Y5000D02*
X48000D01*
X48000Y135000D02*
X52000D01*
X47000Y134000D02*
X48000Y135000D01*
X52000D02*
X53284Y136284D01*
X47000Y125000D02*
Y134000D01*
X104066Y96316D02*
X107750Y100000D01*
X103316Y96316D02*
X104066D01*
X107750Y100000D02*
X108000D01*
Y109000D01*
X48000Y15250D02*
X49000Y16250D01*
X49250D01*
X49284Y16284D01*
X48000Y15000D02*
Y15250D01*
X49284Y16284D02*
X53284D01*
X48500Y65500D02*
X53000D01*
X34200Y63500D02*
X34700Y64000D01*
X51500D02*
X53000Y65500D01*
X34700Y57500D02*
X40500D01*
X34200Y57000D02*
X34700Y57500D01*
X161000Y62000D02*
X170375D01*
X184000D01*
X7222Y57000D02*
X15800D01*
X3500Y53278D02*
X7222Y57000D01*
X3500Y48000D02*
Y53278D01*
Y48000D02*
X5000Y46500D01*
X103284Y316284D02*
X113000Y326000D01*
X120000D01*
X52034Y356284D02*
X53284D01*
X8000Y220000D02*
X11000Y217000D01*
Y215000D02*
Y217000D01*
X7750Y220000D02*
X8000D01*
X13284Y94966D02*
Y96316D01*
Y94966D02*
X18000Y90250D01*
Y90000D02*
Y90250D01*
X23284Y96316D02*
X24500Y95100D01*
Y93750D02*
Y95100D01*
Y93750D02*
X28000Y90250D01*
Y90000D02*
Y90250D01*
X141750Y88250D02*
Y103750D01*
X129000Y90750D02*
Y91000D01*
Y90750D02*
X131500Y88250D01*
X48000Y299000D02*
X49000Y298000D01*
X202750Y101000D02*
Y110500D01*
X200500Y113000D02*
X201500Y112000D01*
Y111750D02*
Y112000D01*
X200250Y113000D02*
X200500D01*
X201500Y111750D02*
X202750Y110500D01*
X189500Y138000D02*
X189750D01*
X187250Y135750D02*
X189500Y138000D01*
X187250Y126000D02*
Y135750D01*
X170000Y138000D02*
X170250D01*
X172750Y135500D01*
Y126000D02*
Y135500D01*
X206250Y251000D02*
X211000D01*
X206250Y242000D02*
Y251000D01*
Y273500D02*
Y273500D01*
Y273500D02*
Y278000D01*
Y309500D02*
Y314000D01*
Y269000D02*
Y273500D01*
Y305000D02*
Y309500D01*
X181000Y320000D02*
Y326000D01*
Y314000D02*
Y320000D01*
X180750Y313750D02*
X181000Y314000D01*
X176000Y313750D02*
X180750D01*
X153000Y231000D02*
Y240000D01*
X136000Y237500D02*
X138500Y240000D01*
X136000Y232000D02*
Y237500D01*
X135000Y231000D02*
X136000Y232000D01*
X27000Y363000D02*
Y363250D01*
X31218Y364250D02*
X33284Y366316D01*
X28000Y364250D02*
X31218D01*
X27000Y363250D02*
X28000Y364250D01*
X113316Y426316D02*
X114000Y425632D01*
Y422000D02*
Y425632D01*
Y422000D02*
X115000Y421000D01*
X7750Y220000D02*
X8303Y220553D01*
X20000Y228750D02*
X21000Y229750D01*
X11750Y228750D02*
X20000D01*
X8303Y220553D02*
Y225303D01*
X11750Y228750D01*
X21000Y229750D02*
Y230000D01*
X83284Y261784D02*
X83500Y262000D01*
X99000Y302000D02*
X103284Y306284D01*
X92000Y302000D02*
X99000D01*
X144000Y231000D02*
Y240000D01*
X108000Y119000D02*
X117000D01*
X108000D02*
Y119250D01*
X107000Y120250D02*
X108000Y119250D01*
X103811Y120250D02*
X107000D01*
X98434Y125627D02*
X103811Y120250D01*
X116000Y217000D02*
Y221250D01*
X115250Y222000D02*
X116000Y221250D01*
X115250Y222000D02*
Y231000D01*
X103284Y86284D02*
X104034D01*
X107750Y90000D01*
X108000D01*
X23284Y408284D02*
Y416284D01*
X23000Y408000D02*
X23284Y408284D01*
X33750Y229750D02*
X34000Y230000D01*
X49250Y185500D02*
Y189500D01*
X49750Y190000D01*
X124000Y196250D02*
Y201000D01*
X69750Y30000D02*
X70000D01*
X73000Y27000D01*
Y25000D02*
Y27000D01*
X49750Y410000D02*
X50000D01*
X51000Y406000D02*
X52000Y405000D01*
X51000Y406000D02*
Y409000D01*
X50000Y410000D02*
X51000Y409000D01*
X109000Y361250D02*
X109875Y362125D01*
Y371125D01*
X110750Y372000D01*
X112000Y387000D02*
X113000Y388000D01*
X112000Y382000D02*
Y387000D01*
X110750Y381000D02*
X111000D01*
X112000Y382000D01*
X126000Y129250D02*
Y135000D01*
X91500Y138250D02*
X93316Y140066D01*
X91500Y138000D02*
Y138250D01*
X90250Y137000D02*
X90500D01*
X93316Y140066D02*
Y146316D01*
X90500Y137000D02*
X91500Y138000D01*
X48250Y144000D02*
X50936D01*
X47250Y143000D02*
X48250Y144000D01*
X50936D02*
X52354Y145419D01*
X119000Y360000D02*
X120159D01*
X118000Y361000D02*
Y361250D01*
X120159Y360000D02*
X122436Y357723D01*
X118000Y361000D02*
X119000Y360000D01*
D50*
X237084Y279702D02*
Y284584D01*
X237018Y284650D02*
X237084Y284584D01*
X232798Y279702D02*
X237084D01*
X226000Y282500D02*
X230000D01*
X232798Y279702D01*
X140000Y414000D02*
X148000Y406000D01*
X148500D01*
X140000Y414000D02*
Y419000D01*
X139500Y425500D02*
X140000Y425000D01*
Y419000D02*
Y425000D01*
X139000Y425500D02*
X139500D01*
X181250Y456000D02*
X192000D01*
X181000Y419000D02*
Y426500D01*
X167500Y425500D02*
X168500Y426500D01*
X165000Y425500D02*
X167500D01*
X168500Y426500D02*
X181000D01*
X53000Y41000D02*
Y48500D01*
X53000Y48500D01*
X69000D01*
D51*
X120500Y438000D02*
X121000Y437500D01*
X119500Y426000D02*
Y427828D01*
X116996Y429000D02*
X118328D01*
X119500Y427828D01*
X111996Y434000D02*
X116996Y429000D01*
X108000Y434000D02*
X111996D01*
X100000Y433000D02*
Y434000D01*
X104000Y433000D02*
Y434000D01*
Y430560D02*
Y433000D01*
X98926Y432926D02*
X100000Y434000D01*
Y433000D02*
X104000D01*
X108000Y447000D02*
X109000Y448000D01*
X108000Y438000D02*
Y447000D01*
X103889Y440611D02*
Y442611D01*
X99000Y447500D02*
X103889Y442611D01*
X99000Y447500D02*
Y447750D01*
X103889Y440611D02*
X104000Y440500D01*
Y438000D02*
Y440500D01*
X90574Y432926D02*
X98926D01*
X100000Y430071D02*
Y432926D01*
X87000Y436500D02*
X90574Y432926D01*
X108000Y438000D02*
X120500D01*
X100000Y430071D02*
X103316Y426755D01*
Y426316D02*
Y426755D01*
X103699Y430259D02*
X104000Y430560D01*
X103699Y427138D02*
Y430259D01*
X103316Y426755D02*
X103699Y427138D01*
X95744Y439318D02*
X96127Y438936D01*
X99064D01*
X100000Y438000D01*
D52*
X4191Y429809D02*
Y435809D01*
X4000Y436000D02*
X4191Y435809D01*
Y429809D02*
X5000Y429000D01*
Y429250D02*
X24750Y449000D01*
X27200D01*
X5000Y429000D02*
Y429250D01*
D53*
X195875Y234125D02*
X196000Y234000D01*
X195875Y234125D02*
Y241875D01*
X195750Y242000D02*
X195875Y241875D01*
X9000Y153000D02*
X9250Y152750D01*
Y146450D02*
Y152750D01*
Y146450D02*
X9500Y146200D01*
X176000Y242250D02*
X178000D01*
X176000Y248750D02*
X178000D01*
X190572Y251000D02*
X195750D01*
X188800Y249228D02*
X190572Y251000D01*
X178478Y249228D02*
X188800D01*
X178000Y248750D02*
X178478Y249228D01*
X190077Y242000D02*
X195750D01*
X189952Y242125D02*
X190077Y242000D01*
X178125Y242125D02*
X189952D01*
X178000Y242250D02*
X178125Y242125D01*
X70620Y347191D02*
X70964Y347536D01*
X70620Y346337D02*
Y347191D01*
X67000Y342716D02*
X70620Y346337D01*
X67000Y342250D02*
Y342716D01*
D54*
X215000Y439000D02*
D03*
X57000Y470000D02*
D03*
X215000Y50000D02*
D03*
D55*
X195878Y75878D02*
D03*
X196500Y81500D02*
D03*
X237084Y279702D02*
D03*
X237018Y284650D02*
D03*
X181000Y419000D02*
D03*
X150000Y100000D02*
D03*
X149000Y212000D02*
D03*
X11000Y314000D02*
D03*
X18000Y315000D02*
D03*
X91000Y261000D02*
D03*
X63270Y256298D02*
D03*
X65000Y263000D02*
D03*
X6000Y14000D02*
D03*
X155000Y344000D02*
D03*
X10026Y418292D02*
D03*
X9500Y408000D02*
D03*
X130000Y437000D02*
D03*
X40000Y154000D02*
D03*
X11000Y179000D02*
D03*
X9000Y169000D02*
D03*
X132968Y415032D02*
D03*
X125968D02*
D03*
X202968Y333032D02*
D03*
X241968Y179032D02*
D03*
X238968Y153032D02*
D03*
X242000Y173000D02*
D03*
X197968Y160032D02*
D03*
Y152032D02*
D03*
X173253Y73457D02*
D03*
X232968Y15032D02*
D03*
Y7032D02*
D03*
X38968Y70032D02*
D03*
X10000Y79000D02*
D03*
X81968Y220032D02*
D03*
X51968Y223032D02*
D03*
X4968Y375032D02*
D03*
Y360032D02*
D03*
Y338032D02*
D03*
X46968Y331032D02*
D03*
X4968Y389032D02*
D03*
X16968Y449032D02*
D03*
Y455032D02*
D03*
X73968Y450032D02*
D03*
X141968Y457032D02*
D03*
X131968D02*
D03*
X254968Y425032D02*
D03*
X266968Y426032D02*
D03*
X254968Y435032D02*
D03*
X244968D02*
D03*
X266968D02*
D03*
X189569Y443988D02*
D03*
X187968Y436032D02*
D03*
X153000Y427000D02*
D03*
X152968Y436032D02*
D03*
X134968Y352032D02*
D03*
X102968Y381032D02*
D03*
X189968Y333032D02*
D03*
X160968Y277032D02*
D03*
Y262032D02*
D03*
X103968Y286032D02*
D03*
X39968Y275032D02*
D03*
X194968Y225032D02*
D03*
X189968Y205032D02*
D03*
X190000Y214000D02*
D03*
X199968Y197032D02*
D03*
Y205032D02*
D03*
Y214032D02*
D03*
X253000Y296000D02*
D03*
X237073Y266396D02*
D03*
X237000Y272000D02*
D03*
X244000Y228000D02*
D03*
Y233000D02*
D03*
X139968Y41032D02*
D03*
X147080Y41127D02*
D03*
X172968Y30032D02*
D03*
X45968Y108032D02*
D03*
X37000Y295000D02*
D03*
X79125Y297500D02*
D03*
X104000Y297000D02*
D03*
X161000Y294000D02*
D03*
X124000Y237000D02*
D03*
X27375Y229750D02*
D03*
X45000Y225000D02*
D03*
X59000D02*
D03*
X248000Y104000D02*
D03*
X260000Y117000D02*
D03*
X230000Y75000D02*
D03*
X224000Y19000D02*
D03*
X173000Y24000D02*
D03*
X28000Y5500D02*
D03*
X9000Y6000D02*
D03*
X157000Y115000D02*
D03*
X181000Y101000D02*
D03*
X215536Y125464D02*
D03*
X83240Y65881D02*
D03*
X88000Y15000D02*
D03*
X103000Y26000D02*
D03*
X98984Y40708D02*
D03*
X68372Y40470D02*
D03*
X78182Y45625D02*
D03*
X78312Y76201D02*
D03*
X88492Y76123D02*
D03*
X68418Y76975D02*
D03*
X58418D02*
D03*
X11000Y253000D02*
D03*
X34000Y276000D02*
D03*
X12448Y301549D02*
D03*
X237000Y407000D02*
D03*
X140000Y419000D02*
D03*
X166000Y343000D02*
D03*
X265000Y417000D02*
D03*
Y369000D02*
D03*
X94000Y456000D02*
D03*
X192000D02*
D03*
X207000Y138000D02*
D03*
X53000Y41000D02*
D03*
X136625Y88250D02*
D03*
X150000Y52000D02*
D03*
X154750Y138000D02*
D03*
X254000Y360000D02*
D03*
X151000Y20000D02*
D03*
X157000D02*
D03*
X68000Y5000D02*
D03*
X9000Y159000D02*
D03*
X4000Y436000D02*
D03*
X5000Y46500D02*
D03*
X183000Y113000D02*
D03*
X126000Y78000D02*
D03*
X125000Y55000D02*
D03*
X195000Y9000D02*
D03*
X161000Y62000D02*
D03*
X253000Y282000D02*
D03*
Y290000D02*
D03*
X254000Y326000D02*
D03*
X73000Y152000D02*
D03*
X73316Y96284D02*
D03*
X84000Y151000D02*
D03*
X63316Y96284D02*
D03*
X53316D02*
D03*
X53000Y166000D02*
D03*
X67000Y191000D02*
D03*
X77000Y193000D02*
D03*
X53000Y176000D02*
D03*
X73316Y86284D02*
D03*
X63316D02*
D03*
X53316D02*
D03*
X215000Y295000D02*
D03*
X177000Y207000D02*
D03*
X172170Y343322D02*
D03*
X259750Y397750D02*
D03*
X259787Y387277D02*
D03*
X262000Y245000D02*
D03*
Y257000D02*
D03*
X140000Y399000D02*
D03*
X188800Y249228D02*
D03*
X156000Y204000D02*
D03*
X196000Y234000D02*
D03*
X156000Y211000D02*
D03*
X179000Y359000D02*
D03*
X154000D02*
D03*
X151000Y293000D02*
D03*
X214000Y361000D02*
D03*
X208000Y355000D02*
D03*
X212000Y371000D02*
D03*
X213000Y381000D02*
D03*
X185362Y374638D02*
D03*
X197000Y380084D02*
D03*
X166000Y38000D02*
D03*
X182500Y4000D02*
D03*
X172000Y11184D02*
D03*
X168000Y79000D02*
D03*
X65971Y11854D02*
D03*
X36000Y449000D02*
D03*
X9000Y290000D02*
D03*
X148000Y302000D02*
D03*
X9000Y51000D02*
D03*
Y153000D02*
D03*
X14000Y206000D02*
D03*
X7000D02*
D03*
X10000Y135000D02*
D03*
X11000Y215000D02*
D03*
X8000Y461000D02*
D03*
X5000Y278000D02*
D03*
X38000Y45000D02*
D03*
X171000Y113000D02*
D03*
X211000Y251000D02*
D03*
X206250Y273500D02*
D03*
Y309500D02*
D03*
X181000Y320000D02*
D03*
X153000Y240000D02*
D03*
X138500D02*
D03*
X135000Y134000D02*
D03*
X144000D02*
D03*
X23284Y106316D02*
D03*
X22319Y436892D02*
D03*
X31770Y437572D02*
D03*
X24000Y317000D02*
D03*
X7000Y328000D02*
D03*
X35000Y373000D02*
D03*
X70964Y347536D02*
D03*
X95744Y439318D02*
D03*
X144000Y240000D02*
D03*
X72000Y16000D02*
D03*
X73000Y126000D02*
D03*
X72000Y117000D02*
D03*
X213000Y214500D02*
D03*
X209000Y219500D02*
D03*
X214000Y184500D02*
D03*
X213000Y171500D02*
D03*
X242000Y211000D02*
D03*
Y216500D02*
D03*
Y186000D02*
D03*
Y191500D02*
D03*
Y161000D02*
D03*
Y166500D02*
D03*
X209000Y146500D02*
D03*
X212000Y153500D02*
D03*
X103284Y36284D02*
D03*
X13284Y106316D02*
D03*
X116000Y217000D02*
D03*
X103284Y346284D02*
D03*
X33284Y356316D02*
D03*
X53284Y346284D02*
D03*
Y356284D02*
D03*
X71000Y358000D02*
D03*
X23316Y356284D02*
D03*
Y426316D02*
D03*
X103316D02*
D03*
X123316Y386316D02*
D03*
Y366284D02*
D03*
X103284Y306284D02*
D03*
Y316284D02*
D03*
X43316Y306284D02*
D03*
X103316Y246316D02*
D03*
X53284Y236284D02*
D03*
X63284Y246316D02*
D03*
X83284Y256316D02*
D03*
X33284D02*
D03*
Y246316D02*
D03*
X53284Y246284D02*
D03*
X23284Y246316D02*
D03*
X33284Y216316D02*
D03*
X23284D02*
D03*
X98434Y125627D02*
D03*
X43316Y86284D02*
D03*
X33284Y96284D02*
D03*
X123316Y46284D02*
D03*
Y36284D02*
D03*
X113284Y36316D02*
D03*
X103284Y16284D02*
D03*
X33284Y26284D02*
D03*
X53284D02*
D03*
X103316Y96316D02*
D03*
X23284D02*
D03*
X13284D02*
D03*
X23284Y136316D02*
D03*
X55000Y125000D02*
D03*
X53284Y136284D02*
D03*
X33284Y16284D02*
D03*
X53284D02*
D03*
X13284Y26284D02*
D03*
X23284Y16284D02*
D03*
X103316Y146316D02*
D03*
X113284Y136316D02*
D03*
X73284Y136284D02*
D03*
Y176284D02*
D03*
X83316D02*
D03*
X73316Y166316D02*
D03*
X83284D02*
D03*
X126000Y152000D02*
D03*
X150538Y150236D02*
D03*
X139000Y170000D02*
D03*
X145000D02*
D03*
X49250Y185500D02*
D03*
X65911Y158689D02*
D03*
X124000Y201000D02*
D03*
X73000Y25000D02*
D03*
X73316Y396284D02*
D03*
Y386316D02*
D03*
X83284D02*
D03*
Y396284D02*
D03*
X52000Y405000D02*
D03*
X65911Y378689D02*
D03*
X52354Y145419D02*
D03*
X126000Y135000D02*
D03*
X93316Y146316D02*
D03*
X128000Y180500D02*
D03*
X64158Y185442D02*
D03*
X146750Y201750D02*
D03*
X103284Y86284D02*
D03*
X83284Y36316D02*
D03*
X33316Y316316D02*
D03*
X113316Y426316D02*
D03*
X23284Y416284D02*
D03*
X122436Y357723D02*
D03*
X33284Y366316D02*
D03*
X64300Y405875D02*
D03*
X92000Y365000D02*
D03*
X87000Y191000D02*
D03*
Y415000D02*
D03*
X130000Y148000D02*
D03*
X140000Y145750D02*
D03*
X136000Y186000D02*
D03*
X145000Y188000D02*
D03*
X114255Y175972D02*
D03*
X113806Y165557D02*
D03*
X44246Y207197D02*
D03*
X72354Y205403D02*
D03*
X64197Y215354D02*
D03*
X62354Y205403D02*
D03*
X54246Y207197D02*
D03*
X52403Y197246D02*
D03*
X92000Y412000D02*
D03*
X97000Y408000D02*
D03*
X92000Y372000D02*
D03*
X97000Y376000D02*
D03*
X101000Y388000D02*
D03*
Y396000D02*
D03*
X44246Y427197D02*
D03*
X73000Y372000D02*
D03*
X73316Y306284D02*
D03*
X63316D02*
D03*
X53316D02*
D03*
X73316Y316284D02*
D03*
X63316D02*
D03*
X53316D02*
D03*
X64197Y435354D02*
D03*
X62354Y425403D02*
D03*
X54246Y427197D02*
D03*
X52403Y417245D02*
D03*
X53000Y386000D02*
D03*
X67000Y411000D02*
D03*
X77000Y413000D02*
D03*
X53000Y396000D02*
D03*
X84000Y371000D02*
D03*
X72354Y425403D02*
D03*
M02*
