G04*
G04 #@! TF.GenerationSoftware,Altium Limited,Altium Designer,24.9.1 (31)*
G04*
G04 Layer_Physical_Order=2*
G04 Layer_Color=12811406*
%FSLAX44Y44*%
%MOMM*%
G71*
G04*
G04 #@! TF.SameCoordinates,F6C7D1B7-5E70-41A8-93A8-01C2B61895AE*
G04*
G04*
G04 #@! TF.FilePolarity,Positive*
G04*
G01*
G75*
%ADD54C,4.0000*%
%ADD55C,0.4000*%
G36*
X240000Y443000D02*
X274000D01*
Y95000D01*
X239000D01*
Y0D01*
X185571D01*
X184950Y1500D01*
X185467Y2017D01*
X186000Y3304D01*
Y4696D01*
X185467Y5983D01*
X184483Y6967D01*
X183196Y7500D01*
X181804D01*
X180517Y6967D01*
X179533Y5983D01*
X179000Y4696D01*
Y3304D01*
X179533Y2017D01*
X180050Y1500D01*
X179429Y0D01*
X0D01*
Y432929D01*
X1500Y433550D01*
X2017Y433033D01*
X3304Y432500D01*
X4696D01*
X5983Y433033D01*
X6967Y434017D01*
X7500Y435304D01*
Y436696D01*
X6967Y437983D01*
X5983Y438967D01*
X4696Y439500D01*
X3304D01*
X2017Y438967D01*
X1500Y438450D01*
X0Y439071D01*
Y464000D01*
X3954D01*
X4210Y463759D01*
X4833Y462500D01*
X4500Y461696D01*
Y460304D01*
X5033Y459017D01*
X6017Y458033D01*
X7304Y457500D01*
X8696D01*
X9983Y458033D01*
X10967Y459017D01*
X11500Y460304D01*
Y461696D01*
X11167Y462500D01*
X11790Y463759D01*
X12046Y464000D01*
X36272D01*
X36326Y463729D01*
X37947Y459816D01*
X40300Y456295D01*
X43295Y453300D01*
X46816Y450947D01*
X50729Y449326D01*
X54882Y448500D01*
X59118D01*
X63271Y449326D01*
X67184Y450947D01*
X70705Y453300D01*
X73700Y456295D01*
X76053Y459816D01*
X77674Y463729D01*
X77728Y464000D01*
X240000D01*
Y443000D01*
D02*
G37*
%LPC*%
G36*
X192696Y459500D02*
X191304D01*
X190017Y458967D01*
X189033Y457983D01*
X188500Y456696D01*
Y455304D01*
X189033Y454017D01*
X190017Y453033D01*
X191304Y452500D01*
X192696D01*
X193983Y453033D01*
X194967Y454017D01*
X195500Y455304D01*
Y456696D01*
X194967Y457983D01*
X193983Y458967D01*
X192696Y459500D01*
D02*
G37*
G36*
X94696D02*
X93304D01*
X92017Y458967D01*
X91033Y457983D01*
X90500Y456696D01*
Y455304D01*
X91033Y454017D01*
X92017Y453033D01*
X93304Y452500D01*
X94696D01*
X95983Y453033D01*
X96967Y454017D01*
X97500Y455304D01*
Y456696D01*
X96967Y457983D01*
X95983Y458967D01*
X94696Y459500D01*
D02*
G37*
G36*
X36696Y452500D02*
X35304D01*
X34017Y451967D01*
X33033Y450983D01*
X32500Y449696D01*
Y448304D01*
X33033Y447017D01*
X34017Y446033D01*
X35304Y445500D01*
X36696D01*
X37983Y446033D01*
X38967Y447017D01*
X39500Y448304D01*
Y449696D01*
X38967Y450983D01*
X37983Y451967D01*
X36696Y452500D01*
D02*
G37*
G36*
X96440Y442818D02*
X95048D01*
X93762Y442285D01*
X92777Y441301D01*
X92244Y440014D01*
Y438622D01*
X92777Y437336D01*
X93762Y436351D01*
X95048Y435818D01*
X96440D01*
X97727Y436351D01*
X98712Y437336D01*
X99244Y438622D01*
Y440014D01*
X98712Y441301D01*
X97727Y442285D01*
X96440Y442818D01*
D02*
G37*
G36*
X32466Y441072D02*
X31074D01*
X29787Y440540D01*
X28803Y439555D01*
X28270Y438269D01*
Y436876D01*
X28803Y435590D01*
X29787Y434605D01*
X31074Y434072D01*
X32466D01*
X33752Y434605D01*
X34737Y435590D01*
X35270Y436876D01*
Y438269D01*
X34737Y439555D01*
X33752Y440540D01*
X32466Y441072D01*
D02*
G37*
G36*
X130696Y440500D02*
X129304D01*
X128017Y439967D01*
X127033Y438983D01*
X126500Y437696D01*
Y436304D01*
X127033Y435017D01*
X128017Y434033D01*
X129304Y433500D01*
X130696D01*
X131983Y434033D01*
X132967Y435017D01*
X133500Y436304D01*
Y437696D01*
X132967Y438983D01*
X131983Y439967D01*
X130696Y440500D01*
D02*
G37*
G36*
X23015Y440392D02*
X21623D01*
X20336Y439859D01*
X19352Y438874D01*
X18819Y437588D01*
Y436195D01*
X19352Y434909D01*
X20336Y433924D01*
X21623Y433392D01*
X23015D01*
X24302Y433924D01*
X25286Y434909D01*
X25819Y436195D01*
Y437588D01*
X25286Y438874D01*
X24302Y439859D01*
X23015Y440392D01*
D02*
G37*
G36*
X64893Y438854D02*
X63501D01*
X62215Y438322D01*
X61230Y437337D01*
X60697Y436051D01*
Y434658D01*
X61230Y433372D01*
X62215Y432387D01*
X63501Y431855D01*
X64893D01*
X66180Y432387D01*
X67164Y433372D01*
X67697Y434658D01*
Y436051D01*
X67164Y437337D01*
X66180Y438322D01*
X64893Y438854D01*
D02*
G37*
G36*
X44942Y430697D02*
X43549D01*
X42263Y430164D01*
X41278Y429180D01*
X40746Y427893D01*
Y426501D01*
X41278Y425215D01*
X42263Y424230D01*
X43549Y423697D01*
X44942D01*
X46228Y424230D01*
X47213Y425215D01*
X47745Y426501D01*
Y427893D01*
X47213Y429180D01*
X46228Y430164D01*
X44942Y430697D01*
D02*
G37*
G36*
X93696Y430500D02*
X92304D01*
X91017Y429967D01*
X90033Y428983D01*
X89500Y427696D01*
Y426304D01*
X90033Y425017D01*
X91017Y424033D01*
X92304Y423500D01*
X93696D01*
X94983Y424033D01*
X95967Y425017D01*
X96500Y426304D01*
Y427696D01*
X95967Y428983D01*
X94983Y429967D01*
X93696Y430500D01*
D02*
G37*
G36*
X114012Y429816D02*
X112620D01*
X111334Y429283D01*
X110349Y428299D01*
X109816Y427012D01*
Y425620D01*
X110349Y424333D01*
X111334Y423349D01*
X112620Y422816D01*
X114012D01*
X115299Y423349D01*
X116283Y424333D01*
X116816Y425620D01*
Y427012D01*
X116283Y428299D01*
X115299Y429283D01*
X114012Y429816D01*
D02*
G37*
G36*
X104012D02*
X102620D01*
X101334Y429283D01*
X100349Y428299D01*
X99816Y427012D01*
Y425620D01*
X100349Y424333D01*
X101334Y423349D01*
X102620Y422816D01*
X104012D01*
X105299Y423349D01*
X106283Y424333D01*
X106816Y425620D01*
Y427012D01*
X106283Y428299D01*
X105299Y429283D01*
X104012Y429816D01*
D02*
G37*
G36*
X24012D02*
X22620D01*
X21333Y429283D01*
X20349Y428299D01*
X19816Y427012D01*
Y425620D01*
X20349Y424333D01*
X21333Y423349D01*
X22620Y422816D01*
X24012D01*
X25299Y423349D01*
X26283Y424333D01*
X26816Y425620D01*
Y427012D01*
X26283Y428299D01*
X25299Y429283D01*
X24012Y429816D01*
D02*
G37*
G36*
X73051Y428903D02*
X71658D01*
X70372Y428370D01*
X69387Y427385D01*
X68854Y426099D01*
Y424707D01*
X69387Y423420D01*
X70372Y422436D01*
X71658Y421903D01*
X73051D01*
X74337Y422436D01*
X75322Y423420D01*
X75855Y424707D01*
Y426099D01*
X75322Y427385D01*
X74337Y428370D01*
X73051Y428903D01*
D02*
G37*
G36*
X54942Y430697D02*
X53549D01*
X52263Y430164D01*
X51278Y429180D01*
X50746Y427893D01*
Y426501D01*
X51278Y425215D01*
X52263Y424230D01*
X53549Y423697D01*
X54942D01*
X56228Y424230D01*
X57213Y425215D01*
X57354Y425557D01*
X58854Y425259D01*
Y424707D01*
X59387Y423420D01*
X60372Y422436D01*
X61658Y421903D01*
X63051D01*
X64337Y422436D01*
X65322Y423420D01*
X65855Y424707D01*
Y426099D01*
X65322Y427385D01*
X64337Y428370D01*
X63051Y428903D01*
X61658D01*
X60372Y428370D01*
X59387Y427385D01*
X59246Y427043D01*
X57745Y427341D01*
Y427893D01*
X57213Y429180D01*
X56228Y430164D01*
X54942Y430697D01*
D02*
G37*
G36*
X217118Y460500D02*
X212882D01*
X208729Y459674D01*
X204816Y458053D01*
X201295Y455700D01*
X198300Y452705D01*
X195947Y449184D01*
X194326Y445271D01*
X193500Y441118D01*
Y436882D01*
X194326Y432729D01*
X195947Y428816D01*
X198300Y425295D01*
X201295Y422300D01*
X204816Y419947D01*
X208729Y418326D01*
X212882Y417500D01*
X217118D01*
X221271Y418326D01*
X225184Y419947D01*
X228705Y422300D01*
X231700Y425295D01*
X234053Y428816D01*
X235674Y432729D01*
X236500Y436882D01*
Y441118D01*
X235674Y445271D01*
X234053Y449184D01*
X231700Y452705D01*
X228705Y455700D01*
X225184Y458053D01*
X221271Y459674D01*
X217118Y460500D01*
D02*
G37*
G36*
X181696Y422500D02*
X180304D01*
X179017Y421967D01*
X178033Y420983D01*
X177500Y419696D01*
Y418304D01*
X178033Y417017D01*
X179017Y416033D01*
X180304Y415500D01*
X181696D01*
X182983Y416033D01*
X183967Y417017D01*
X184500Y418304D01*
Y419696D01*
X183967Y420983D01*
X182983Y421967D01*
X181696Y422500D01*
D02*
G37*
G36*
X140696D02*
X139304D01*
X138017Y421967D01*
X137033Y420983D01*
X136500Y419696D01*
Y418304D01*
X137033Y417017D01*
X138017Y416033D01*
X139304Y415500D01*
X140696D01*
X141983Y416033D01*
X142967Y417017D01*
X143500Y418304D01*
Y419696D01*
X142967Y420983D01*
X141983Y421967D01*
X140696Y422500D01*
D02*
G37*
G36*
X53099Y420746D02*
X51707D01*
X50420Y420213D01*
X49436Y419228D01*
X48903Y417942D01*
Y416549D01*
X49436Y415263D01*
X50420Y414278D01*
X51707Y413745D01*
X53099D01*
X54385Y414278D01*
X55370Y415263D01*
X55903Y416549D01*
Y417942D01*
X55370Y419228D01*
X54385Y420213D01*
X53099Y420746D01*
D02*
G37*
G36*
X265696Y420500D02*
X264304D01*
X263017Y419967D01*
X262033Y418983D01*
X261500Y417696D01*
Y416304D01*
X262033Y415017D01*
X263017Y414033D01*
X264304Y413500D01*
X265696D01*
X266983Y414033D01*
X267967Y415017D01*
X268500Y416304D01*
Y417696D01*
X267967Y418983D01*
X266983Y419967D01*
X265696Y420500D01*
D02*
G37*
G36*
X23980Y419784D02*
X22588D01*
X21301Y419251D01*
X20317Y418266D01*
X19784Y416980D01*
Y415588D01*
X20317Y414301D01*
X21301Y413317D01*
X22588Y412784D01*
X23980D01*
X25266Y413317D01*
X26251Y414301D01*
X26784Y415588D01*
Y416980D01*
X26251Y418266D01*
X25266Y419251D01*
X23980Y419784D01*
D02*
G37*
G36*
X77696Y416500D02*
X76304D01*
X75017Y415967D01*
X74033Y414983D01*
X73500Y413696D01*
Y412304D01*
X74033Y411017D01*
X75017Y410033D01*
X76304Y409500D01*
X77696D01*
X78983Y410033D01*
X79967Y411017D01*
X80500Y412304D01*
Y413696D01*
X79967Y414983D01*
X78983Y415967D01*
X77696Y416500D01*
D02*
G37*
G36*
X87696Y418500D02*
X86304D01*
X85017Y417967D01*
X84033Y416983D01*
X83500Y415696D01*
Y414304D01*
X84033Y413017D01*
X85017Y412033D01*
X86304Y411500D01*
X87696D01*
X88011Y411630D01*
X88500Y411304D01*
X89033Y410017D01*
X90017Y409033D01*
X91304Y408500D01*
X92696D01*
X93500Y407304D01*
X94033Y406017D01*
X95017Y405033D01*
X96304Y404500D01*
X97696D01*
X98983Y405033D01*
X99967Y406017D01*
X100500Y407304D01*
Y408696D01*
X99967Y409983D01*
X98983Y410967D01*
X97696Y411500D01*
X96304D01*
X95500Y412696D01*
X94967Y413983D01*
X93983Y414967D01*
X92696Y415500D01*
X91304D01*
X90113Y416630D01*
X89967Y416983D01*
X88983Y417967D01*
X87696Y418500D01*
D02*
G37*
G36*
X10196Y411500D02*
X8804D01*
X7517Y410967D01*
X6533Y409983D01*
X6000Y408696D01*
Y407304D01*
X6533Y406017D01*
X7517Y405033D01*
X8804Y404500D01*
X10196D01*
X11483Y405033D01*
X12467Y406017D01*
X13000Y407304D01*
Y408696D01*
X12467Y409983D01*
X11483Y410967D01*
X10196Y411500D01*
D02*
G37*
G36*
X237696Y410500D02*
X236304D01*
X235017Y409967D01*
X234033Y408983D01*
X233500Y407696D01*
Y406304D01*
X234033Y405017D01*
X235017Y404033D01*
X236304Y403500D01*
X237696D01*
X238983Y404033D01*
X239967Y405017D01*
X240500Y406304D01*
Y407696D01*
X239967Y408983D01*
X238983Y409967D01*
X237696Y410500D01*
D02*
G37*
G36*
X67696Y414500D02*
X66304D01*
X65017Y413967D01*
X64033Y412983D01*
X63500Y411696D01*
Y410304D01*
X62458Y408900D01*
X62317Y408842D01*
X61333Y407858D01*
X60800Y406571D01*
Y405179D01*
X61333Y403893D01*
X62317Y402908D01*
X63604Y402375D01*
X64996D01*
X66283Y402908D01*
X67267Y403893D01*
X67800Y405179D01*
Y406571D01*
X68842Y407975D01*
X68983Y408033D01*
X69967Y409017D01*
X70500Y410304D01*
Y411696D01*
X69967Y412983D01*
X68983Y413967D01*
X67696Y414500D01*
D02*
G37*
G36*
X140696Y402500D02*
X139304D01*
X138017Y401967D01*
X137033Y400983D01*
X136500Y399696D01*
Y398304D01*
X137033Y397017D01*
X138017Y396033D01*
X139304Y395500D01*
X140696D01*
X141983Y396033D01*
X142967Y397017D01*
X143500Y398304D01*
Y399696D01*
X142967Y400983D01*
X141983Y401967D01*
X140696Y402500D01*
D02*
G37*
G36*
X260446Y401250D02*
X259054D01*
X257767Y400717D01*
X256783Y399733D01*
X256250Y398446D01*
Y397054D01*
X256783Y395767D01*
X257767Y394783D01*
X259054Y394250D01*
X260446D01*
X261733Y394783D01*
X262717Y395767D01*
X263250Y397054D01*
Y398446D01*
X262717Y399733D01*
X261733Y400717D01*
X260446Y401250D01*
D02*
G37*
G36*
X53696Y399500D02*
X52304D01*
X51017Y398967D01*
X50033Y397983D01*
X49500Y396696D01*
Y395304D01*
X50033Y394017D01*
X51017Y393033D01*
X52304Y392500D01*
X53696D01*
X54983Y393033D01*
X55967Y394017D01*
X56500Y395304D01*
Y396696D01*
X55967Y397983D01*
X54983Y398967D01*
X53696Y399500D01*
D02*
G37*
G36*
X101696Y399500D02*
X100304D01*
X99017Y398967D01*
X98033Y397983D01*
X97500Y396696D01*
Y395304D01*
X98033Y394017D01*
X99017Y393033D01*
X99551Y392812D01*
Y391188D01*
X99017Y390967D01*
X98033Y389983D01*
X97500Y388696D01*
Y387304D01*
X98033Y386017D01*
X99017Y385033D01*
X100304Y384500D01*
X101696D01*
X102983Y385033D01*
X103967Y386017D01*
X104500Y387304D01*
Y388696D01*
X103967Y389983D01*
X102983Y390967D01*
X102449Y391188D01*
Y392812D01*
X102983Y393033D01*
X103967Y394017D01*
X104500Y395304D01*
Y396696D01*
X103967Y397983D01*
X102983Y398967D01*
X101696Y399500D01*
D02*
G37*
G36*
X260483Y390777D02*
X259091D01*
X257804Y390244D01*
X256820Y389260D01*
X256287Y387974D01*
Y386581D01*
X256820Y385295D01*
X257804Y384310D01*
X259091Y383777D01*
X260483D01*
X261769Y384310D01*
X262754Y385295D01*
X263287Y386581D01*
Y387974D01*
X262754Y389260D01*
X261769Y390244D01*
X260483Y390777D01*
D02*
G37*
G36*
X124012Y389816D02*
X122620D01*
X121334Y389283D01*
X120349Y388299D01*
X119816Y387012D01*
Y385620D01*
X120349Y384333D01*
X121334Y383349D01*
X122620Y382816D01*
X124012D01*
X125299Y383349D01*
X126283Y384333D01*
X126816Y385620D01*
Y387012D01*
X126283Y388299D01*
X125299Y389283D01*
X124012Y389816D01*
D02*
G37*
G36*
X53696Y389500D02*
X52304D01*
X51017Y388967D01*
X50033Y387983D01*
X49500Y386696D01*
Y385304D01*
X50033Y384017D01*
X51017Y383033D01*
X52304Y382500D01*
X53696D01*
X54983Y383033D01*
X55967Y384017D01*
X56500Y385304D01*
Y386696D01*
X55967Y387983D01*
X54983Y388967D01*
X53696Y389500D01*
D02*
G37*
G36*
X213696Y384500D02*
X212304D01*
X211017Y383967D01*
X210033Y382983D01*
X209500Y381696D01*
Y380304D01*
X210033Y379017D01*
X211017Y378033D01*
X212304Y377500D01*
X213696D01*
X214983Y378033D01*
X215967Y379017D01*
X216500Y380304D01*
Y381696D01*
X215967Y382983D01*
X214983Y383967D01*
X213696Y384500D01*
D02*
G37*
G36*
X197696Y383584D02*
X196304D01*
X195017Y383051D01*
X194033Y382067D01*
X193500Y380780D01*
Y379388D01*
X194033Y378102D01*
X195017Y377117D01*
X196304Y376584D01*
X197696D01*
X198983Y377117D01*
X199967Y378102D01*
X200500Y379388D01*
Y380780D01*
X199967Y382067D01*
X198983Y383051D01*
X197696Y383584D01*
D02*
G37*
G36*
X97696Y379500D02*
X96304D01*
X95017Y378967D01*
X94033Y377983D01*
X93533Y376777D01*
X93386Y376527D01*
X92696Y375500D01*
X91304D01*
X90017Y374967D01*
X89033Y373983D01*
X88605Y372949D01*
X87697Y372753D01*
X87043Y372800D01*
X86967Y372983D01*
X85983Y373967D01*
X84696Y374500D01*
X83304D01*
X82017Y373967D01*
X81033Y372983D01*
X80500Y371696D01*
Y370304D01*
X81033Y369017D01*
X82017Y368033D01*
X83304Y367500D01*
X84696D01*
X85983Y368033D01*
X86967Y369017D01*
X87395Y370051D01*
X88303Y370247D01*
X88957Y370200D01*
X89033Y370017D01*
X89623Y369427D01*
X89873Y368500D01*
X89623Y367573D01*
X89033Y366983D01*
X88500Y365696D01*
Y364304D01*
X89033Y363017D01*
X90017Y362033D01*
X91304Y361500D01*
X92696D01*
X93983Y362033D01*
X94967Y363017D01*
X95500Y364304D01*
Y365696D01*
X94967Y366983D01*
X94377Y367573D01*
X94127Y368500D01*
X94377Y369427D01*
X94967Y370017D01*
X95467Y371223D01*
X95614Y371473D01*
X96304Y372500D01*
X97696D01*
X98983Y373033D01*
X99967Y374017D01*
X100500Y375304D01*
Y376696D01*
X99967Y377983D01*
X98983Y378967D01*
X97696Y379500D01*
D02*
G37*
G36*
X186058Y378138D02*
X184665D01*
X183379Y377606D01*
X182394Y376621D01*
X181862Y375335D01*
Y373942D01*
X182394Y372656D01*
X183379Y371671D01*
X184665Y371138D01*
X186058D01*
X187344Y371671D01*
X188329Y372656D01*
X188862Y373942D01*
Y375335D01*
X188329Y376621D01*
X187344Y377606D01*
X186058Y378138D01*
D02*
G37*
G36*
X73696Y375500D02*
X72304D01*
X71017Y374967D01*
X70033Y373983D01*
X69500Y372696D01*
Y371304D01*
X70033Y370017D01*
X71017Y369033D01*
X72304Y368500D01*
X73696D01*
X74983Y369033D01*
X75967Y370017D01*
X76500Y371304D01*
Y372696D01*
X75967Y373983D01*
X74983Y374967D01*
X73696Y375500D01*
D02*
G37*
G36*
X212696Y374500D02*
X211304D01*
X210017Y373967D01*
X209033Y372983D01*
X208500Y371696D01*
Y370304D01*
X209033Y369017D01*
X210017Y368033D01*
X211304Y367500D01*
X212696D01*
X213983Y368033D01*
X214967Y369017D01*
X215500Y370304D01*
Y371696D01*
X214967Y372983D01*
X213983Y373967D01*
X212696Y374500D01*
D02*
G37*
G36*
X265696Y372500D02*
X264304D01*
X263017Y371967D01*
X262033Y370983D01*
X261500Y369696D01*
Y368304D01*
X262033Y367017D01*
X263017Y366033D01*
X264304Y365500D01*
X265696D01*
X266983Y366033D01*
X267967Y367017D01*
X268500Y368304D01*
Y369696D01*
X267967Y370983D01*
X266983Y371967D01*
X265696Y372500D01*
D02*
G37*
G36*
X33980Y369816D02*
X32588D01*
X31301Y369283D01*
X30317Y368299D01*
X29784Y367012D01*
Y365620D01*
X30317Y364333D01*
X31301Y363349D01*
X32588Y362816D01*
X33980D01*
X35266Y363349D01*
X36251Y364333D01*
X36784Y365620D01*
Y367012D01*
X36251Y368299D01*
X35266Y369283D01*
X33980Y369816D01*
D02*
G37*
G36*
X124012Y369784D02*
X122620D01*
X121334Y369251D01*
X120349Y368266D01*
X119816Y366980D01*
Y365588D01*
X120349Y364301D01*
X121334Y363317D01*
X122620Y362784D01*
X124012D01*
X125299Y363317D01*
X126283Y364301D01*
X126816Y365588D01*
Y366980D01*
X126283Y368266D01*
X125299Y369251D01*
X124012Y369784D01*
D02*
G37*
G36*
X214696Y364500D02*
X213304D01*
X212017Y363967D01*
X211033Y362983D01*
X210500Y361696D01*
Y360304D01*
X211033Y359017D01*
X209982Y357967D01*
X208696Y358500D01*
X207304D01*
X206017Y357967D01*
X205033Y356983D01*
X204500Y355696D01*
Y354304D01*
X205033Y353017D01*
X206017Y352033D01*
X207304Y351500D01*
X208696D01*
X209983Y352033D01*
X210967Y353017D01*
X211500Y354304D01*
Y355696D01*
X210967Y356982D01*
X212017Y358033D01*
X213304Y357500D01*
X214696D01*
X215983Y358033D01*
X216967Y359017D01*
X217500Y360304D01*
Y361696D01*
X216967Y362983D01*
X215983Y363967D01*
X214696Y364500D01*
D02*
G37*
G36*
X254696Y363500D02*
X253304D01*
X252017Y362967D01*
X251033Y361983D01*
X250500Y360696D01*
Y359304D01*
X251033Y358017D01*
X252017Y357033D01*
X253304Y356500D01*
X254696D01*
X255983Y357033D01*
X256967Y358017D01*
X257500Y359304D01*
Y360696D01*
X256967Y361983D01*
X255983Y362967D01*
X254696Y363500D01*
D02*
G37*
G36*
X179696Y362500D02*
X178304D01*
X177017Y361967D01*
X176033Y360983D01*
X175500Y359696D01*
Y358304D01*
X176033Y357017D01*
X177017Y356033D01*
X178304Y355500D01*
X179696D01*
X180983Y356033D01*
X181967Y357017D01*
X182500Y358304D01*
Y359696D01*
X181967Y360983D01*
X180983Y361967D01*
X179696Y362500D01*
D02*
G37*
G36*
X154696D02*
X153304D01*
X152017Y361967D01*
X151033Y360983D01*
X150500Y359696D01*
Y358304D01*
X151033Y357017D01*
X152017Y356033D01*
X153304Y355500D01*
X154696D01*
X155983Y356033D01*
X156967Y357017D01*
X157500Y358304D01*
Y359696D01*
X156967Y360983D01*
X155983Y361967D01*
X154696Y362500D01*
D02*
G37*
G36*
X71696Y361500D02*
X70304D01*
X69017Y360967D01*
X68033Y359983D01*
X67500Y358696D01*
Y357304D01*
X68033Y356017D01*
X69017Y355033D01*
X70304Y354500D01*
X71696D01*
X72983Y355033D01*
X73967Y356017D01*
X74500Y357304D01*
Y358696D01*
X73967Y359983D01*
X72983Y360967D01*
X71696Y361500D01*
D02*
G37*
G36*
X123132Y361223D02*
X121740D01*
X120453Y360690D01*
X119469Y359706D01*
X118936Y358419D01*
Y357027D01*
X119469Y355741D01*
X120453Y354756D01*
X121740Y354223D01*
X123132D01*
X124418Y354756D01*
X125403Y355741D01*
X125936Y357027D01*
Y358419D01*
X125403Y359706D01*
X124418Y360690D01*
X123132Y361223D01*
D02*
G37*
G36*
X33980Y359816D02*
X32588D01*
X31301Y359283D01*
X30317Y358299D01*
X29784Y357012D01*
Y355620D01*
X30317Y354333D01*
X31301Y353349D01*
X32588Y352816D01*
X33980D01*
X35266Y353349D01*
X36251Y354333D01*
X36784Y355620D01*
Y357012D01*
X36251Y358299D01*
X35266Y359283D01*
X33980Y359816D01*
D02*
G37*
G36*
X53980Y359784D02*
X52588D01*
X51301Y359251D01*
X50317Y358266D01*
X49784Y356980D01*
Y355588D01*
X50317Y354301D01*
X51301Y353317D01*
X52588Y352784D01*
X53980D01*
X55266Y353317D01*
X56251Y354301D01*
X56784Y355588D01*
Y356980D01*
X56251Y358266D01*
X55266Y359251D01*
X53980Y359784D01*
D02*
G37*
G36*
X24012D02*
X22620D01*
X21333Y359251D01*
X20349Y358266D01*
X19816Y356980D01*
Y355588D01*
X20349Y354301D01*
X21333Y353317D01*
X22620Y352784D01*
X24012D01*
X25299Y353317D01*
X26283Y354301D01*
X26816Y355588D01*
Y356980D01*
X26283Y358266D01*
X25299Y359251D01*
X24012Y359784D01*
D02*
G37*
G36*
X172866Y346822D02*
X171474D01*
X170187Y346289D01*
X169203Y345304D01*
X167983Y345967D01*
X166696Y346500D01*
X165304D01*
X164017Y345967D01*
X163033Y344983D01*
X162500Y343696D01*
Y342304D01*
X163033Y341017D01*
X164017Y340033D01*
X165304Y339500D01*
X166696D01*
X167983Y340033D01*
X168967Y341017D01*
X170187Y340355D01*
X171474Y339822D01*
X172866D01*
X174153Y340355D01*
X175137Y341339D01*
X175670Y342626D01*
Y344018D01*
X175137Y345304D01*
X174153Y346289D01*
X172866Y346822D01*
D02*
G37*
G36*
X71661Y351035D02*
X70268D01*
X68982Y350503D01*
X67997Y349518D01*
X67464Y348232D01*
Y346839D01*
X67997Y345553D01*
X68982Y344568D01*
X70268Y344035D01*
X71661D01*
X72947Y344568D01*
X73932Y345553D01*
X74464Y346839D01*
Y348232D01*
X73932Y349518D01*
X72947Y350503D01*
X71661Y351035D01*
D02*
G37*
G36*
X103980Y349784D02*
X102588D01*
X101301Y349251D01*
X100317Y348266D01*
X99784Y346980D01*
Y345588D01*
X100317Y344301D01*
X101301Y343317D01*
X102588Y342784D01*
X103980D01*
X105267Y343317D01*
X106251Y344301D01*
X106784Y345588D01*
Y346980D01*
X106251Y348266D01*
X105267Y349251D01*
X103980Y349784D01*
D02*
G37*
G36*
X53980D02*
X52588D01*
X51301Y349251D01*
X50317Y348266D01*
X49784Y346980D01*
Y345588D01*
X50317Y344301D01*
X51301Y343317D01*
X52588Y342784D01*
X53980D01*
X55266Y343317D01*
X56251Y344301D01*
X56784Y345588D01*
Y346980D01*
X56251Y348266D01*
X55266Y349251D01*
X53980Y349784D01*
D02*
G37*
G36*
X155696Y347500D02*
X154304D01*
X153017Y346967D01*
X152033Y345983D01*
X151500Y344696D01*
Y343304D01*
X152033Y342017D01*
X153017Y341033D01*
X154304Y340500D01*
X155696D01*
X156983Y341033D01*
X157967Y342017D01*
X158500Y343304D01*
Y344696D01*
X157967Y345983D01*
X156983Y346967D01*
X155696Y347500D01*
D02*
G37*
G36*
X7696Y331500D02*
X6304D01*
X5017Y330967D01*
X4033Y329983D01*
X3500Y328696D01*
Y327304D01*
X4033Y326017D01*
X5017Y325033D01*
X6304Y324500D01*
X7696D01*
X8983Y325033D01*
X9967Y326017D01*
X10500Y327304D01*
Y328696D01*
X9967Y329983D01*
X8983Y330967D01*
X7696Y331500D01*
D02*
G37*
G36*
X254696Y329500D02*
X253304D01*
X252017Y328967D01*
X251033Y327983D01*
X250500Y326696D01*
Y325304D01*
X251033Y324017D01*
X252017Y323033D01*
X253304Y322500D01*
X254696D01*
X255983Y323033D01*
X256967Y324017D01*
X257500Y325304D01*
Y326696D01*
X256967Y327983D01*
X255983Y328967D01*
X254696Y329500D01*
D02*
G37*
G36*
X24696Y320500D02*
X23304D01*
X22017Y319967D01*
X21033Y318983D01*
X19983Y317967D01*
X18696Y318500D01*
X17304D01*
X16017Y317967D01*
X15033Y316983D01*
X14500Y315696D01*
Y314304D01*
X15033Y313017D01*
X16017Y312033D01*
X17304Y311500D01*
X18696D01*
X19983Y312033D01*
X20967Y313017D01*
X22017Y314033D01*
X23304Y313500D01*
X24696D01*
X25983Y314033D01*
X26967Y315017D01*
X27500Y316304D01*
Y317696D01*
X26967Y318983D01*
X25983Y319967D01*
X24696Y320500D01*
D02*
G37*
G36*
X181696Y323500D02*
X180304D01*
X179017Y322967D01*
X178033Y321983D01*
X177500Y320696D01*
Y319304D01*
X178033Y318017D01*
X179017Y317033D01*
X180304Y316500D01*
X181696D01*
X182983Y317033D01*
X183967Y318017D01*
X184500Y319304D01*
Y320696D01*
X183967Y321983D01*
X182983Y322967D01*
X181696Y323500D01*
D02*
G37*
G36*
X34012Y319816D02*
X32620D01*
X31333Y319283D01*
X30349Y318299D01*
X29816Y317012D01*
Y315620D01*
X30349Y314333D01*
X31333Y313349D01*
X32620Y312816D01*
X34012D01*
X35299Y313349D01*
X36283Y314333D01*
X36816Y315620D01*
Y317012D01*
X36283Y318299D01*
X35299Y319283D01*
X34012Y319816D01*
D02*
G37*
G36*
X74012Y319784D02*
X72620D01*
X71333Y319251D01*
X70349Y318267D01*
X69816Y316980D01*
Y315588D01*
X70349Y314301D01*
X71333Y313317D01*
X72620Y312784D01*
X74012D01*
X75299Y313317D01*
X76283Y314301D01*
X76816Y315588D01*
Y316980D01*
X76283Y318267D01*
X75299Y319251D01*
X74012Y319784D01*
D02*
G37*
G36*
X64012D02*
X62620D01*
X61333Y319251D01*
X60349Y318267D01*
X59816Y316980D01*
Y315588D01*
X60349Y314301D01*
X61333Y313317D01*
X62620Y312784D01*
X64012D01*
X65299Y313317D01*
X66283Y314301D01*
X66816Y315588D01*
Y316980D01*
X66283Y318267D01*
X65299Y319251D01*
X64012Y319784D01*
D02*
G37*
G36*
X54012D02*
X52620D01*
X51333Y319251D01*
X50349Y318267D01*
X49816Y316980D01*
Y315588D01*
X50349Y314301D01*
X51333Y313317D01*
X52620Y312784D01*
X54012D01*
X55299Y313317D01*
X56283Y314301D01*
X56816Y315588D01*
Y316980D01*
X56283Y318267D01*
X55299Y319251D01*
X54012Y319784D01*
D02*
G37*
G36*
X103980Y319784D02*
X102588D01*
X101301Y319251D01*
X100317Y318267D01*
X99784Y316980D01*
Y315588D01*
X100317Y314301D01*
X101301Y313317D01*
X102588Y312784D01*
X103980D01*
X105267Y313317D01*
X106251Y314301D01*
X106784Y315588D01*
Y316980D01*
X106251Y318267D01*
X105267Y319251D01*
X103980Y319784D01*
D02*
G37*
G36*
X206946Y313000D02*
X205554D01*
X204267Y312467D01*
X203283Y311483D01*
X202750Y310196D01*
Y308804D01*
X203283Y307517D01*
X204267Y306533D01*
X205554Y306000D01*
X206946D01*
X208232Y306533D01*
X209217Y307517D01*
X209750Y308804D01*
Y310196D01*
X209217Y311483D01*
X208232Y312467D01*
X206946Y313000D01*
D02*
G37*
G36*
X74012Y309784D02*
X72620D01*
X71333Y309251D01*
X70349Y308267D01*
X69816Y306980D01*
Y305588D01*
X70349Y304301D01*
X71333Y303317D01*
X72620Y302784D01*
X74012D01*
X75299Y303317D01*
X76283Y304301D01*
X76816Y305588D01*
Y306980D01*
X76283Y308267D01*
X75299Y309251D01*
X74012Y309784D01*
D02*
G37*
G36*
X64012D02*
X62620D01*
X61333Y309251D01*
X60349Y308267D01*
X59816Y306980D01*
Y305588D01*
X60349Y304301D01*
X61333Y303317D01*
X62620Y302784D01*
X64012D01*
X65299Y303317D01*
X66283Y304301D01*
X66816Y305588D01*
Y306980D01*
X66283Y308267D01*
X65299Y309251D01*
X64012Y309784D01*
D02*
G37*
G36*
X54012D02*
X52620D01*
X51333Y309251D01*
X50349Y308267D01*
X49816Y306980D01*
Y305588D01*
X50349Y304301D01*
X51333Y303317D01*
X52620Y302784D01*
X54012D01*
X55299Y303317D01*
X56283Y304301D01*
X56816Y305588D01*
Y306980D01*
X56283Y308267D01*
X55299Y309251D01*
X54012Y309784D01*
D02*
G37*
G36*
X103980Y309784D02*
X102588D01*
X101301Y309251D01*
X100317Y308267D01*
X99784Y306980D01*
Y305588D01*
X100317Y304301D01*
X101301Y303317D01*
X102588Y302784D01*
X103980D01*
X105267Y303317D01*
X106251Y304301D01*
X106784Y305588D01*
Y306980D01*
X106251Y308267D01*
X105267Y309251D01*
X103980Y309784D01*
D02*
G37*
G36*
X44012D02*
X42620D01*
X41333Y309251D01*
X40349Y308267D01*
X39816Y306980D01*
Y305588D01*
X40349Y304301D01*
X41333Y303317D01*
X42620Y302784D01*
X44012D01*
X45299Y303317D01*
X46283Y304301D01*
X46816Y305588D01*
Y306980D01*
X46283Y308267D01*
X45299Y309251D01*
X44012Y309784D01*
D02*
G37*
G36*
X148696Y305500D02*
X147304D01*
X146017Y304967D01*
X145033Y303983D01*
X144500Y302696D01*
Y301304D01*
X145033Y300017D01*
X146017Y299033D01*
X147304Y298500D01*
X148696D01*
X149983Y299033D01*
X150967Y300017D01*
X151500Y301304D01*
Y302696D01*
X150967Y303983D01*
X149983Y304967D01*
X148696Y305500D01*
D02*
G37*
G36*
X13144Y305049D02*
X11752D01*
X10466Y304516D01*
X9481Y303532D01*
X8948Y302245D01*
Y300853D01*
X9481Y299566D01*
X10466Y298582D01*
X11752Y298049D01*
X13144D01*
X14431Y298582D01*
X15415Y299566D01*
X15948Y300853D01*
Y302245D01*
X15415Y303532D01*
X14431Y304516D01*
X13144Y305049D01*
D02*
G37*
G36*
X215696Y298500D02*
X214304D01*
X213017Y297967D01*
X212033Y296983D01*
X211500Y295696D01*
Y294304D01*
X212033Y293017D01*
X213017Y292033D01*
X214304Y291500D01*
X215696D01*
X216983Y292033D01*
X217967Y293017D01*
X218500Y294304D01*
Y295696D01*
X217967Y296983D01*
X216983Y297967D01*
X215696Y298500D01*
D02*
G37*
G36*
X151696Y296500D02*
X150304D01*
X149017Y295967D01*
X148033Y294983D01*
X147500Y293696D01*
Y292304D01*
X148033Y291017D01*
X149017Y290033D01*
X150304Y289500D01*
X151696D01*
X152983Y290033D01*
X153967Y291017D01*
X154500Y292304D01*
Y293696D01*
X153967Y294983D01*
X152983Y295967D01*
X151696Y296500D01*
D02*
G37*
G36*
X9696Y293500D02*
X8304D01*
X7017Y292967D01*
X6033Y291983D01*
X5500Y290696D01*
Y289304D01*
X6033Y288017D01*
X7017Y287033D01*
X8304Y286500D01*
X9696D01*
X10983Y287033D01*
X11967Y288017D01*
X12500Y289304D01*
Y290696D01*
X11967Y291983D01*
X10983Y292967D01*
X9696Y293500D01*
D02*
G37*
G36*
X253696D02*
X252304D01*
X251017Y292967D01*
X250033Y291983D01*
X249500Y290696D01*
Y289304D01*
X250033Y288017D01*
X251017Y287033D01*
X251551Y286812D01*
Y285188D01*
X251017Y284967D01*
X250033Y283983D01*
X249500Y282696D01*
Y281304D01*
X250033Y280017D01*
X251017Y279033D01*
X252304Y278500D01*
X253696D01*
X254983Y279033D01*
X255967Y280017D01*
X256500Y281304D01*
Y282696D01*
X255967Y283983D01*
X254983Y284967D01*
X254449Y285188D01*
Y286812D01*
X254983Y287033D01*
X255967Y288017D01*
X256500Y289304D01*
Y290696D01*
X255967Y291983D01*
X254983Y292967D01*
X253696Y293500D01*
D02*
G37*
G36*
X237714Y288150D02*
X236322D01*
X235035Y287617D01*
X234051Y286633D01*
X233518Y285346D01*
Y283954D01*
X234051Y282668D01*
X234575Y282143D01*
X234116Y281685D01*
X233584Y280398D01*
Y279006D01*
X234116Y277719D01*
X235101Y276735D01*
X236388Y276202D01*
X237780D01*
X239066Y276735D01*
X240051Y277719D01*
X240584Y279006D01*
Y280398D01*
X240051Y281685D01*
X239527Y282209D01*
X239985Y282668D01*
X240518Y283954D01*
Y285346D01*
X239985Y286633D01*
X239000Y287617D01*
X237714Y288150D01*
D02*
G37*
G36*
X5696Y281500D02*
X4304D01*
X3017Y280967D01*
X2033Y279983D01*
X1500Y278696D01*
Y277304D01*
X2033Y276017D01*
X3017Y275033D01*
X4304Y274500D01*
X5696D01*
X6983Y275033D01*
X7967Y276017D01*
X8500Y277304D01*
Y278696D01*
X7967Y279983D01*
X6983Y280967D01*
X5696Y281500D01*
D02*
G37*
G36*
X206946Y277000D02*
X205554D01*
X204267Y276467D01*
X203283Y275483D01*
X202750Y274196D01*
Y272804D01*
X203283Y271517D01*
X204267Y270533D01*
X205554Y270000D01*
X206946D01*
X208232Y270533D01*
X209217Y271517D01*
X209750Y272804D01*
Y274196D01*
X209217Y275483D01*
X208232Y276467D01*
X206946Y277000D01*
D02*
G37*
G36*
X65696Y266500D02*
X64304D01*
X63017Y265967D01*
X62033Y264983D01*
X61500Y263696D01*
Y262304D01*
X62033Y261017D01*
X63017Y260033D01*
X64304Y259500D01*
X65696D01*
X66983Y260033D01*
X67967Y261017D01*
X68500Y262304D01*
Y263696D01*
X67967Y264983D01*
X66983Y265967D01*
X65696Y266500D01*
D02*
G37*
G36*
X262696Y260500D02*
X261304D01*
X260017Y259967D01*
X259033Y258983D01*
X258500Y257696D01*
Y256304D01*
X259033Y255017D01*
X260017Y254033D01*
X261304Y253500D01*
X262696D01*
X263983Y254033D01*
X264967Y255017D01*
X265500Y256304D01*
Y257696D01*
X264967Y258983D01*
X263983Y259967D01*
X262696Y260500D01*
D02*
G37*
G36*
X83980Y259816D02*
X82588D01*
X81301Y259283D01*
X80317Y258299D01*
X79784Y257012D01*
Y255620D01*
X80317Y254333D01*
X81301Y253349D01*
X82588Y252816D01*
X83980D01*
X85267Y253349D01*
X86251Y254333D01*
X86784Y255620D01*
Y257012D01*
X86251Y258299D01*
X85267Y259283D01*
X83980Y259816D01*
D02*
G37*
G36*
X33980D02*
X32588D01*
X31301Y259283D01*
X30317Y258299D01*
X29784Y257012D01*
Y255620D01*
X30317Y254333D01*
X31301Y253349D01*
X32588Y252816D01*
X33980D01*
X35266Y253349D01*
X36251Y254333D01*
X36784Y255620D01*
Y257012D01*
X36251Y258299D01*
X35266Y259283D01*
X33980Y259816D01*
D02*
G37*
G36*
X211696Y254500D02*
X210304D01*
X209017Y253967D01*
X208033Y252983D01*
X207500Y251696D01*
Y250304D01*
X208033Y249017D01*
X209017Y248033D01*
X210304Y247500D01*
X211696D01*
X212983Y248033D01*
X213967Y249017D01*
X214500Y250304D01*
Y251696D01*
X213967Y252983D01*
X212983Y253967D01*
X211696Y254500D01*
D02*
G37*
G36*
X189496Y252728D02*
X188104D01*
X186817Y252195D01*
X185833Y251211D01*
X185300Y249924D01*
Y248532D01*
X185833Y247245D01*
X186817Y246261D01*
X188104Y245728D01*
X189496D01*
X190783Y246261D01*
X191767Y247245D01*
X192300Y248532D01*
Y249924D01*
X191767Y251211D01*
X190783Y252195D01*
X189496Y252728D01*
D02*
G37*
G36*
X104012Y249816D02*
X102620D01*
X101334Y249283D01*
X100349Y248299D01*
X99816Y247012D01*
Y245620D01*
X100349Y244333D01*
X101334Y243349D01*
X102620Y242816D01*
X104012D01*
X105299Y243349D01*
X106283Y244333D01*
X106816Y245620D01*
Y247012D01*
X106283Y248299D01*
X105299Y249283D01*
X104012Y249816D01*
D02*
G37*
G36*
X63980D02*
X62588D01*
X61301Y249283D01*
X60317Y248299D01*
X59784Y247012D01*
Y245620D01*
X60317Y244333D01*
X61301Y243349D01*
X62588Y242816D01*
X63980D01*
X65266Y243349D01*
X66251Y244333D01*
X66784Y245620D01*
Y247012D01*
X66251Y248299D01*
X65266Y249283D01*
X63980Y249816D01*
D02*
G37*
G36*
X33980D02*
X32588D01*
X31301Y249283D01*
X30317Y248299D01*
X29784Y247012D01*
Y245620D01*
X30317Y244333D01*
X31301Y243349D01*
X32588Y242816D01*
X33980D01*
X35266Y243349D01*
X36251Y244333D01*
X36784Y245620D01*
Y247012D01*
X36251Y248299D01*
X35266Y249283D01*
X33980Y249816D01*
D02*
G37*
G36*
X23980D02*
X22588D01*
X21301Y249283D01*
X20317Y248299D01*
X19784Y247012D01*
Y245620D01*
X20317Y244333D01*
X21301Y243349D01*
X22588Y242816D01*
X23980D01*
X25266Y243349D01*
X26251Y244333D01*
X26784Y245620D01*
Y247012D01*
X26251Y248299D01*
X25266Y249283D01*
X23980Y249816D01*
D02*
G37*
G36*
X53980Y249784D02*
X52588D01*
X51301Y249251D01*
X50317Y248267D01*
X49784Y246980D01*
Y245588D01*
X50317Y244301D01*
X51301Y243317D01*
X52588Y242784D01*
X53980D01*
X55266Y243317D01*
X56251Y244301D01*
X56784Y245588D01*
Y246980D01*
X56251Y248267D01*
X55266Y249251D01*
X53980Y249784D01*
D02*
G37*
G36*
X144696Y243500D02*
X143304D01*
X142017Y242967D01*
X141250Y242200D01*
X140483Y242967D01*
X139196Y243500D01*
X137804D01*
X136517Y242967D01*
X135533Y241983D01*
X135000Y240696D01*
Y239304D01*
X135533Y238017D01*
X136517Y237033D01*
X137804Y236500D01*
X139196D01*
X140483Y237033D01*
X141250Y237800D01*
X142017Y237033D01*
X143304Y236500D01*
X144696D01*
X145983Y237033D01*
X146967Y238017D01*
X147500Y239304D01*
Y240696D01*
X146967Y241983D01*
X145983Y242967D01*
X144696Y243500D01*
D02*
G37*
G36*
X262696Y248500D02*
X261304D01*
X260017Y247967D01*
X259033Y246983D01*
X258500Y245696D01*
Y244304D01*
X259033Y243017D01*
X260017Y242033D01*
X261304Y241500D01*
X262696D01*
X263983Y242033D01*
X264967Y243017D01*
X265500Y244304D01*
Y245696D01*
X264967Y246983D01*
X263983Y247967D01*
X262696Y248500D01*
D02*
G37*
G36*
X153696Y243500D02*
X152304D01*
X151017Y242967D01*
X150033Y241983D01*
X149500Y240696D01*
Y239304D01*
X150033Y238017D01*
X151017Y237033D01*
X152304Y236500D01*
X153696D01*
X154983Y237033D01*
X155967Y238017D01*
X156500Y239304D01*
Y240696D01*
X155967Y241983D01*
X154983Y242967D01*
X153696Y243500D01*
D02*
G37*
G36*
X53980Y239784D02*
X52588D01*
X51301Y239251D01*
X50317Y238267D01*
X49784Y236980D01*
Y235588D01*
X50317Y234301D01*
X51301Y233317D01*
X52588Y232784D01*
X53980D01*
X55266Y233317D01*
X56251Y234301D01*
X56784Y235588D01*
Y236980D01*
X56251Y238267D01*
X55266Y239251D01*
X53980Y239784D01*
D02*
G37*
G36*
X196696Y237500D02*
X195304D01*
X194017Y236967D01*
X193033Y235983D01*
X192500Y234696D01*
Y233304D01*
X193033Y232017D01*
X194017Y231033D01*
X195304Y230500D01*
X196696D01*
X197983Y231033D01*
X198967Y232017D01*
X199500Y233304D01*
Y234696D01*
X198967Y235983D01*
X197983Y236967D01*
X196696Y237500D01*
D02*
G37*
G36*
X116696Y220500D02*
X115304D01*
X114017Y219967D01*
X113033Y218983D01*
X112500Y217696D01*
Y216304D01*
X113033Y215017D01*
X114017Y214033D01*
X115304Y213500D01*
X116696D01*
X117983Y214033D01*
X118967Y215017D01*
X119500Y216304D01*
Y217696D01*
X118967Y218983D01*
X117983Y219967D01*
X116696Y220500D01*
D02*
G37*
G36*
X33980Y219816D02*
X32588D01*
X31301Y219283D01*
X30317Y218299D01*
X29784Y217012D01*
Y215620D01*
X30317Y214333D01*
X31301Y213349D01*
X32588Y212816D01*
X33980D01*
X35266Y213349D01*
X36251Y214333D01*
X36784Y215620D01*
Y217012D01*
X36251Y218299D01*
X35266Y219283D01*
X33980Y219816D01*
D02*
G37*
G36*
X23980D02*
X22588D01*
X21301Y219283D01*
X20317Y218299D01*
X19784Y217012D01*
Y215620D01*
X20317Y214333D01*
X21301Y213349D01*
X22588Y212816D01*
X23980D01*
X25266Y213349D01*
X26251Y214333D01*
X26784Y215620D01*
Y217012D01*
X26251Y218299D01*
X25266Y219283D01*
X23980Y219816D01*
D02*
G37*
G36*
X64893Y218855D02*
X63501D01*
X62215Y218322D01*
X61230Y217337D01*
X60697Y216051D01*
Y214658D01*
X61230Y213372D01*
X62215Y212387D01*
X63501Y211854D01*
X64893D01*
X66180Y212387D01*
X67164Y213372D01*
X67697Y214658D01*
Y216051D01*
X67164Y217337D01*
X66180Y218322D01*
X64893Y218855D01*
D02*
G37*
G36*
X209696Y223000D02*
X208304D01*
X207017Y222467D01*
X206033Y221483D01*
X205500Y220196D01*
Y218804D01*
X206033Y217517D01*
X207017Y216533D01*
X208304Y216000D01*
X209500Y215196D01*
Y213804D01*
X210033Y212517D01*
X211017Y211533D01*
X212304Y211000D01*
X213696D01*
X214983Y211533D01*
X215967Y212517D01*
X216500Y213804D01*
Y215196D01*
X215967Y216483D01*
X214983Y217467D01*
X213696Y218000D01*
X212500Y218804D01*
Y220196D01*
X211967Y221483D01*
X210983Y222467D01*
X209696Y223000D01*
D02*
G37*
G36*
X14696Y209500D02*
X13304D01*
X12017Y208967D01*
X11427Y208377D01*
X10500Y208127D01*
X9573Y208377D01*
X8983Y208967D01*
X7696Y209500D01*
X6304D01*
X5017Y208967D01*
X4033Y207983D01*
X3500Y206696D01*
Y205304D01*
X4033Y204017D01*
X5017Y203033D01*
X6304Y202500D01*
X7696D01*
X8983Y203033D01*
X9573Y203623D01*
X10500Y203873D01*
X11427Y203623D01*
X12017Y203033D01*
X13304Y202500D01*
X14696D01*
X15983Y203033D01*
X16967Y204017D01*
X17500Y205304D01*
Y206696D01*
X16967Y207983D01*
X15983Y208967D01*
X14696Y209500D01*
D02*
G37*
G36*
X242696Y220000D02*
X241304D01*
X240017Y219467D01*
X239033Y218483D01*
X238500Y217196D01*
Y215804D01*
X239033Y214517D01*
X239800Y213750D01*
X239033Y212983D01*
X238500Y211696D01*
Y210304D01*
X239033Y209017D01*
X240017Y208033D01*
X241304Y207500D01*
X242696D01*
X243983Y208033D01*
X244967Y209017D01*
X245500Y210304D01*
Y211696D01*
X244967Y212983D01*
X244200Y213750D01*
X244967Y214517D01*
X245500Y215804D01*
Y217196D01*
X244967Y218483D01*
X243983Y219467D01*
X242696Y220000D01*
D02*
G37*
G36*
X44942Y210697D02*
X43549D01*
X42263Y210164D01*
X41278Y209180D01*
X40746Y207893D01*
Y206501D01*
X41278Y205215D01*
X42263Y204230D01*
X43549Y203697D01*
X44942D01*
X46228Y204230D01*
X47213Y205215D01*
X47745Y206501D01*
Y207893D01*
X47213Y209180D01*
X46228Y210164D01*
X44942Y210697D01*
D02*
G37*
G36*
X177696Y210500D02*
X176304D01*
X175017Y209967D01*
X174033Y208983D01*
X173500Y207696D01*
Y206304D01*
X174033Y205017D01*
X175017Y204033D01*
X176304Y203500D01*
X177696D01*
X178983Y204033D01*
X179967Y205017D01*
X180500Y206304D01*
Y207696D01*
X179967Y208983D01*
X178983Y209967D01*
X177696Y210500D01*
D02*
G37*
G36*
X73051Y208903D02*
X71658D01*
X70372Y208370D01*
X69387Y207385D01*
X68854Y206099D01*
Y204707D01*
X69387Y203420D01*
X70372Y202436D01*
X71658Y201903D01*
X73051D01*
X74337Y202436D01*
X75322Y203420D01*
X75855Y204707D01*
Y206099D01*
X75322Y207385D01*
X74337Y208370D01*
X73051Y208903D01*
D02*
G37*
G36*
X54942Y210697D02*
X53549D01*
X52263Y210164D01*
X51278Y209180D01*
X50746Y207893D01*
Y206501D01*
X51278Y205215D01*
X52263Y204230D01*
X53549Y203697D01*
X54942D01*
X56228Y204230D01*
X57213Y205215D01*
X57354Y205557D01*
X58854Y205259D01*
Y204707D01*
X59387Y203420D01*
X60372Y202436D01*
X61658Y201903D01*
X63051D01*
X64337Y202436D01*
X65322Y203420D01*
X65855Y204707D01*
Y206099D01*
X65322Y207385D01*
X64337Y208370D01*
X63051Y208903D01*
X61658D01*
X60372Y208370D01*
X59387Y207385D01*
X59246Y207043D01*
X57745Y207341D01*
Y207893D01*
X57213Y209180D01*
X56228Y210164D01*
X54942Y210697D01*
D02*
G37*
G36*
X156696Y214500D02*
X155304D01*
X154017Y213967D01*
X153033Y212983D01*
X152500Y211696D01*
Y210304D01*
X153033Y209017D01*
X153623Y208427D01*
X153873Y207500D01*
X153623Y206573D01*
X153033Y205983D01*
X152500Y204696D01*
Y203304D01*
X153033Y202017D01*
X154017Y201033D01*
X155304Y200500D01*
X156696D01*
X157983Y201033D01*
X158967Y202017D01*
X159500Y203304D01*
Y204696D01*
X158967Y205983D01*
X158377Y206573D01*
X158127Y207500D01*
X158377Y208427D01*
X158967Y209017D01*
X159500Y210304D01*
Y211696D01*
X158967Y212983D01*
X157983Y213967D01*
X156696Y214500D01*
D02*
G37*
G36*
X147446Y205250D02*
X146054D01*
X144767Y204717D01*
X143783Y203733D01*
X143250Y202446D01*
Y201054D01*
X143783Y199767D01*
X144767Y198783D01*
X146054Y198250D01*
X147446D01*
X148733Y198783D01*
X149717Y199767D01*
X150250Y201054D01*
Y202446D01*
X149717Y203733D01*
X148733Y204717D01*
X147446Y205250D01*
D02*
G37*
G36*
X53099Y200746D02*
X51707D01*
X50420Y200213D01*
X49436Y199228D01*
X48903Y197942D01*
Y196549D01*
X49436Y195263D01*
X50420Y194278D01*
X51707Y193745D01*
X53099D01*
X54385Y194278D01*
X55370Y195263D01*
X55903Y196549D01*
Y197942D01*
X55370Y199228D01*
X54385Y200213D01*
X53099Y200746D01*
D02*
G37*
G36*
X77696Y196500D02*
X76304D01*
X75017Y195967D01*
X74033Y194983D01*
X73500Y193696D01*
Y192304D01*
X74033Y191017D01*
X75017Y190033D01*
X76304Y189500D01*
X77696D01*
X78983Y190033D01*
X79967Y191017D01*
X80500Y192304D01*
Y193696D01*
X79967Y194983D01*
X78983Y195967D01*
X77696Y196500D01*
D02*
G37*
G36*
X87696Y194500D02*
X86304D01*
X85017Y193967D01*
X84033Y192983D01*
X83500Y191696D01*
Y190304D01*
X84033Y189017D01*
X85017Y188033D01*
X86304Y187500D01*
X87696D01*
X88983Y188033D01*
X89967Y189017D01*
X90500Y190304D01*
Y191696D01*
X89967Y192983D01*
X88983Y193967D01*
X87696Y194500D01*
D02*
G37*
G36*
X145696Y191500D02*
X144304D01*
X143017Y190967D01*
X142033Y189983D01*
X141500Y188696D01*
Y187304D01*
X142033Y186017D01*
X143017Y185033D01*
X144304Y184500D01*
X145696D01*
X146983Y185033D01*
X147967Y186017D01*
X148500Y187304D01*
Y188696D01*
X147967Y189983D01*
X146983Y190967D01*
X145696Y191500D01*
D02*
G37*
G36*
X136696Y189500D02*
X135304D01*
X134017Y188967D01*
X133033Y187983D01*
X132500Y186696D01*
Y185304D01*
X133033Y184017D01*
X134017Y183033D01*
X135304Y182500D01*
X136696D01*
X137983Y183033D01*
X138967Y184017D01*
X139500Y185304D01*
Y186696D01*
X138967Y187983D01*
X137983Y188967D01*
X136696Y189500D01*
D02*
G37*
G36*
X242696Y195000D02*
X241304D01*
X240017Y194467D01*
X239033Y193483D01*
X238500Y192196D01*
Y190804D01*
X239033Y189517D01*
X239800Y188750D01*
X239033Y187983D01*
X238500Y186696D01*
Y185304D01*
X239033Y184017D01*
X240017Y183033D01*
X241304Y182500D01*
X242696D01*
X243983Y183033D01*
X244967Y184017D01*
X245500Y185304D01*
Y186696D01*
X244967Y187983D01*
X244200Y188750D01*
X244967Y189517D01*
X245500Y190804D01*
Y192196D01*
X244967Y193483D01*
X243983Y194467D01*
X242696Y195000D01*
D02*
G37*
G36*
X67696Y194500D02*
X66304D01*
X65017Y193967D01*
X64033Y192983D01*
X63500Y191696D01*
Y190304D01*
X63461Y188942D01*
X62175Y188410D01*
X61191Y187425D01*
X60658Y186139D01*
Y184746D01*
X61191Y183460D01*
X62175Y182475D01*
X63461Y181942D01*
X64854D01*
X66140Y182475D01*
X67125Y183460D01*
X67658Y184746D01*
Y186139D01*
X67696Y187500D01*
X68983Y188033D01*
X69967Y189017D01*
X70500Y190304D01*
Y191696D01*
X69967Y192983D01*
X68983Y193967D01*
X67696Y194500D01*
D02*
G37*
G36*
X214696Y188000D02*
X213304D01*
X212017Y187467D01*
X211033Y186483D01*
X210500Y185196D01*
Y183804D01*
X211033Y182517D01*
X212017Y181533D01*
X213304Y181000D01*
X214696D01*
X215983Y181533D01*
X216967Y182517D01*
X217500Y183804D01*
Y185196D01*
X216967Y186483D01*
X215983Y187467D01*
X214696Y188000D01*
D02*
G37*
G36*
X128696Y184000D02*
X127304D01*
X126017Y183467D01*
X125033Y182483D01*
X124500Y181196D01*
Y179804D01*
X125033Y178517D01*
X126017Y177533D01*
X127304Y177000D01*
X128696D01*
X129983Y177533D01*
X130967Y178517D01*
X131500Y179804D01*
Y181196D01*
X130967Y182483D01*
X129983Y183467D01*
X128696Y184000D01*
D02*
G37*
G36*
X53696Y179500D02*
X52304D01*
X51017Y178967D01*
X50033Y177983D01*
X49500Y176696D01*
Y175304D01*
X50033Y174017D01*
X51017Y173033D01*
X52304Y172500D01*
X53696D01*
X54983Y173033D01*
X55967Y174017D01*
X56500Y175304D01*
Y176696D01*
X55967Y177983D01*
X54983Y178967D01*
X53696Y179500D01*
D02*
G37*
G36*
X114952Y179472D02*
X113559D01*
X112273Y178939D01*
X111288Y177955D01*
X110755Y176668D01*
Y175276D01*
X111288Y173989D01*
X112273Y173005D01*
X113559Y172472D01*
X114952D01*
X116238Y173005D01*
X117222Y173989D01*
X117755Y175276D01*
Y176668D01*
X117222Y177955D01*
X116238Y178939D01*
X114952Y179472D01*
D02*
G37*
G36*
X213696Y175000D02*
X212304D01*
X211017Y174467D01*
X210033Y173483D01*
X209500Y172196D01*
Y170804D01*
X210033Y169517D01*
X211017Y168533D01*
X212304Y168000D01*
X213696D01*
X214983Y168533D01*
X215967Y169517D01*
X216500Y170804D01*
Y172196D01*
X215967Y173483D01*
X214983Y174467D01*
X213696Y175000D01*
D02*
G37*
G36*
X53696Y169500D02*
X52304D01*
X51017Y168967D01*
X50033Y167983D01*
X49500Y166696D01*
Y165304D01*
X50033Y164017D01*
X51017Y163033D01*
X52304Y162500D01*
X53696D01*
X54983Y163033D01*
X55967Y164017D01*
X56500Y165304D01*
Y166696D01*
X55967Y167983D01*
X54983Y168967D01*
X53696Y169500D01*
D02*
G37*
G36*
X114502Y169058D02*
X113110D01*
X111824Y168525D01*
X110839Y167540D01*
X110306Y166254D01*
Y164861D01*
X110839Y163575D01*
X111824Y162590D01*
X113110Y162057D01*
X114502D01*
X115789Y162590D01*
X116773Y163575D01*
X117306Y164861D01*
Y166254D01*
X116773Y167540D01*
X115789Y168525D01*
X114502Y169058D01*
D02*
G37*
G36*
X242696Y170000D02*
X241304D01*
X240017Y169467D01*
X239033Y168483D01*
X238500Y167196D01*
Y165804D01*
X239033Y164517D01*
X239800Y163750D01*
X239033Y162983D01*
X238500Y161696D01*
Y160304D01*
X239033Y159017D01*
X240017Y158033D01*
X241304Y157500D01*
X242696D01*
X243983Y158033D01*
X244967Y159017D01*
X245500Y160304D01*
Y161696D01*
X244967Y162983D01*
X244200Y163750D01*
X244967Y164517D01*
X245500Y165804D01*
Y167196D01*
X244967Y168483D01*
X243983Y169467D01*
X242696Y170000D01*
D02*
G37*
G36*
X9696Y162500D02*
X8304D01*
X7017Y161967D01*
X6033Y160983D01*
X5500Y159696D01*
Y158304D01*
X6033Y157017D01*
X6070Y156980D01*
X6987Y156000D01*
X6070Y155020D01*
X6033Y154983D01*
X5500Y153696D01*
Y152304D01*
X6033Y151017D01*
X7017Y150033D01*
X8304Y149500D01*
X9696D01*
X10983Y150033D01*
X11967Y151017D01*
X12500Y152304D01*
Y153696D01*
X11967Y154983D01*
X11930Y155020D01*
X11013Y156000D01*
X11930Y156980D01*
X11967Y157017D01*
X12500Y158304D01*
Y159696D01*
X11967Y160983D01*
X10983Y161967D01*
X9696Y162500D01*
D02*
G37*
G36*
X73696Y155500D02*
X72304D01*
X71017Y154967D01*
X70033Y153983D01*
X69500Y152696D01*
Y151304D01*
X70033Y150017D01*
X71017Y149033D01*
X72304Y148500D01*
X73696D01*
X74983Y149033D01*
X75967Y150017D01*
X76500Y151304D01*
Y152696D01*
X75967Y153983D01*
X74983Y154967D01*
X73696Y155500D01*
D02*
G37*
G36*
X84696Y154500D02*
X83304D01*
X82017Y153967D01*
X81033Y152983D01*
X80500Y151696D01*
Y150304D01*
X81033Y149017D01*
X82017Y148033D01*
X83304Y147500D01*
X84696D01*
X85983Y148033D01*
X86967Y149017D01*
X87500Y150304D01*
Y151696D01*
X86967Y152983D01*
X85983Y153967D01*
X84696Y154500D01*
D02*
G37*
G36*
X130696Y151500D02*
X129304D01*
X128017Y150967D01*
X127033Y149983D01*
X126500Y148696D01*
Y147304D01*
X127033Y146017D01*
X128017Y145033D01*
X129304Y144500D01*
X130696D01*
X131983Y145033D01*
X132967Y146017D01*
X133500Y147304D01*
Y148696D01*
X132967Y149983D01*
X131983Y150967D01*
X130696Y151500D01*
D02*
G37*
G36*
X212696Y157000D02*
X211304D01*
X210017Y156467D01*
X209033Y155483D01*
X208500Y154196D01*
Y152804D01*
X209033Y151517D01*
X209050Y151500D01*
X208429Y150000D01*
X208304D01*
X207017Y149467D01*
X206033Y148483D01*
X205500Y147196D01*
Y145804D01*
X206033Y144517D01*
X207017Y143533D01*
X208304Y143000D01*
X209696D01*
X210983Y143533D01*
X211967Y144517D01*
X212500Y145804D01*
Y147196D01*
X211967Y148483D01*
X211950Y148500D01*
X212571Y150000D01*
X212696D01*
X213983Y150533D01*
X214967Y151517D01*
X215500Y152804D01*
Y154196D01*
X214967Y155483D01*
X213983Y156467D01*
X212696Y157000D01*
D02*
G37*
G36*
X94012Y149816D02*
X92620D01*
X91334Y149283D01*
X90349Y148299D01*
X89816Y147012D01*
Y145620D01*
X90349Y144333D01*
X91334Y143349D01*
X92620Y142816D01*
X94012D01*
X95299Y143349D01*
X96283Y144333D01*
X96816Y145620D01*
Y147012D01*
X96283Y148299D01*
X95299Y149283D01*
X94012Y149816D01*
D02*
G37*
G36*
X140696Y149250D02*
X139304D01*
X138017Y148717D01*
X137033Y147733D01*
X136500Y146446D01*
Y145054D01*
X137033Y143767D01*
X138017Y142783D01*
X139304Y142250D01*
X140696D01*
X141983Y142783D01*
X142967Y143767D01*
X143500Y145054D01*
Y146446D01*
X142967Y147733D01*
X141983Y148717D01*
X140696Y149250D01*
D02*
G37*
G36*
X53051Y148919D02*
X51658D01*
X50372Y148386D01*
X49387Y147402D01*
X48854Y146115D01*
Y144723D01*
X49387Y143436D01*
X50372Y142452D01*
X51658Y141919D01*
X53051D01*
X54337Y142452D01*
X55322Y143436D01*
X55855Y144723D01*
Y146115D01*
X55322Y147402D01*
X54337Y148386D01*
X53051Y148919D01*
D02*
G37*
G36*
X155446Y141500D02*
X154054D01*
X152767Y140967D01*
X151783Y139983D01*
X151250Y138696D01*
Y137304D01*
X151783Y136017D01*
X152767Y135033D01*
X154054Y134500D01*
X155446D01*
X156733Y135033D01*
X157717Y136017D01*
X158250Y137304D01*
Y138696D01*
X157717Y139983D01*
X156733Y140967D01*
X155446Y141500D01*
D02*
G37*
G36*
X207696Y141500D02*
X206304D01*
X205017Y140967D01*
X204033Y139983D01*
X203500Y138696D01*
Y137304D01*
X204033Y136017D01*
X205017Y135033D01*
X206304Y134500D01*
X207696D01*
X208983Y135033D01*
X209967Y136017D01*
X210500Y137304D01*
Y138696D01*
X209967Y139983D01*
X208983Y140967D01*
X207696Y141500D01*
D02*
G37*
G36*
X23980Y139816D02*
X22588D01*
X21301Y139283D01*
X20317Y138299D01*
X19784Y137012D01*
Y135620D01*
X20317Y134333D01*
X21301Y133349D01*
X22588Y132816D01*
X23980D01*
X25266Y133349D01*
X26251Y134333D01*
X26784Y135620D01*
Y137012D01*
X26251Y138299D01*
X25266Y139283D01*
X23980Y139816D01*
D02*
G37*
G36*
X53980Y139784D02*
X52588D01*
X51301Y139251D01*
X50317Y138266D01*
X49784Y136980D01*
Y135588D01*
X50317Y134301D01*
X51301Y133317D01*
X52588Y132784D01*
X53980D01*
X55266Y133317D01*
X56251Y134301D01*
X56784Y135588D01*
Y136980D01*
X56251Y138266D01*
X55266Y139251D01*
X53980Y139784D01*
D02*
G37*
G36*
X126696Y138500D02*
X125304D01*
X124017Y137967D01*
X123033Y136983D01*
X122500Y135696D01*
Y134304D01*
X123033Y133017D01*
X124017Y132033D01*
X125304Y131500D01*
X126696D01*
X127983Y132033D01*
X128967Y133017D01*
X129500Y134304D01*
Y135696D01*
X128967Y136983D01*
X127983Y137967D01*
X126696Y138500D01*
D02*
G37*
G36*
X10696D02*
X9304D01*
X8017Y137967D01*
X7033Y136983D01*
X6500Y135696D01*
Y134304D01*
X7033Y133017D01*
X8017Y132033D01*
X9304Y131500D01*
X10696D01*
X11983Y132033D01*
X12967Y133017D01*
X13500Y134304D01*
Y135696D01*
X12967Y136983D01*
X11983Y137967D01*
X10696Y138500D01*
D02*
G37*
G36*
X144696Y137500D02*
X143304D01*
X142017Y136967D01*
X141033Y135983D01*
X140500Y134696D01*
Y133304D01*
X141033Y132017D01*
X142017Y131033D01*
X143304Y130500D01*
X144696D01*
X145983Y131033D01*
X146967Y132017D01*
X147500Y133304D01*
Y134696D01*
X146967Y135983D01*
X145983Y136967D01*
X144696Y137500D01*
D02*
G37*
G36*
X135696D02*
X134304D01*
X133017Y136967D01*
X132033Y135983D01*
X131500Y134696D01*
Y133304D01*
X132033Y132017D01*
X133017Y131033D01*
X134304Y130500D01*
X135696D01*
X136983Y131033D01*
X137967Y132017D01*
X138500Y133304D01*
Y134696D01*
X137967Y135983D01*
X136983Y136967D01*
X135696Y137500D01*
D02*
G37*
G36*
X73696Y129500D02*
X72304D01*
X71017Y128967D01*
X70033Y127983D01*
X69500Y126696D01*
Y125304D01*
X70033Y124017D01*
X71017Y123033D01*
X72304Y122500D01*
X73696D01*
X74983Y123033D01*
X75967Y124017D01*
X76500Y125304D01*
Y126696D01*
X75967Y127983D01*
X74983Y128967D01*
X73696Y129500D01*
D02*
G37*
G36*
X99131Y129127D02*
X97738D01*
X96452Y128594D01*
X95467Y127610D01*
X94934Y126323D01*
Y124931D01*
X95467Y123645D01*
X96452Y122660D01*
X97738Y122127D01*
X99131D01*
X100417Y122660D01*
X101402Y123645D01*
X101934Y124931D01*
Y126323D01*
X101402Y127610D01*
X100417Y128594D01*
X99131Y129127D01*
D02*
G37*
G36*
X55696Y128500D02*
X54304D01*
X53017Y127967D01*
X52033Y126983D01*
X51500Y125696D01*
Y124304D01*
X52033Y123017D01*
X53017Y122033D01*
X54304Y121500D01*
X55696D01*
X56983Y122033D01*
X57967Y123017D01*
X58500Y124304D01*
Y125696D01*
X57967Y126983D01*
X56983Y127967D01*
X55696Y128500D01*
D02*
G37*
G36*
X72696Y120500D02*
X71304D01*
X70017Y119967D01*
X69033Y118983D01*
X68500Y117696D01*
Y116304D01*
X69033Y115017D01*
X70017Y114033D01*
X71304Y113500D01*
X72696D01*
X73983Y114033D01*
X74967Y115017D01*
X75500Y116304D01*
Y117696D01*
X74967Y118983D01*
X73983Y119967D01*
X72696Y120500D01*
D02*
G37*
G36*
X183696Y116500D02*
X182304D01*
X181017Y115967D01*
X180033Y114983D01*
X179500Y113696D01*
Y112304D01*
X180033Y111017D01*
X181017Y110033D01*
X182304Y109500D01*
X183696D01*
X184983Y110033D01*
X185967Y111017D01*
X186500Y112304D01*
Y113696D01*
X185967Y114983D01*
X184983Y115967D01*
X183696Y116500D01*
D02*
G37*
G36*
X171696D02*
X170304D01*
X169017Y115967D01*
X168033Y114983D01*
X167500Y113696D01*
Y112304D01*
X168033Y111017D01*
X169017Y110033D01*
X170304Y109500D01*
X171696D01*
X172983Y110033D01*
X173967Y111017D01*
X174500Y112304D01*
Y113696D01*
X173967Y114983D01*
X172983Y115967D01*
X171696Y116500D01*
D02*
G37*
G36*
X23980Y109816D02*
X22588D01*
X21301Y109283D01*
X20317Y108299D01*
X19784Y107012D01*
Y105620D01*
X20317Y104333D01*
X21301Y103349D01*
X22588Y102816D01*
X23980D01*
X25266Y103349D01*
X26251Y104333D01*
X26784Y105620D01*
Y107012D01*
X26251Y108299D01*
X25266Y109283D01*
X23980Y109816D01*
D02*
G37*
G36*
X104012Y99816D02*
X102620D01*
X101334Y99283D01*
X100349Y98299D01*
X99816Y97012D01*
Y95620D01*
X100349Y94333D01*
X101334Y93349D01*
X102620Y92816D01*
X104012D01*
X105299Y93349D01*
X106283Y94333D01*
X106816Y95620D01*
Y97012D01*
X106283Y98299D01*
X105299Y99283D01*
X104012Y99816D01*
D02*
G37*
G36*
X23980D02*
X22588D01*
X21301Y99283D01*
X20317Y98299D01*
X19784Y97012D01*
Y95620D01*
X20317Y94333D01*
X21301Y93349D01*
X22588Y92816D01*
X23980D01*
X25266Y93349D01*
X26251Y94333D01*
X26784Y95620D01*
Y97012D01*
X26251Y98299D01*
X25266Y99283D01*
X23980Y99816D01*
D02*
G37*
G36*
X13980D02*
X12588D01*
X11301Y99283D01*
X10317Y98299D01*
X9784Y97012D01*
Y95620D01*
X10317Y94333D01*
X11301Y93349D01*
X12588Y92816D01*
X13980D01*
X15266Y93349D01*
X16251Y94333D01*
X16784Y95620D01*
Y97012D01*
X16251Y98299D01*
X15266Y99283D01*
X13980Y99816D01*
D02*
G37*
G36*
X74012Y99784D02*
X72620D01*
X71334Y99251D01*
X70349Y98266D01*
X69816Y96980D01*
Y95588D01*
X70349Y94301D01*
X71334Y93317D01*
X72620Y92784D01*
X74012D01*
X75299Y93317D01*
X76283Y94301D01*
X76816Y95588D01*
Y96980D01*
X76283Y98266D01*
X75299Y99251D01*
X74012Y99784D01*
D02*
G37*
G36*
X64012D02*
X62620D01*
X61333Y99251D01*
X60349Y98266D01*
X59816Y96980D01*
Y95588D01*
X60349Y94301D01*
X61333Y93317D01*
X62620Y92784D01*
X64012D01*
X65299Y93317D01*
X66283Y94301D01*
X66816Y95588D01*
Y96980D01*
X66283Y98266D01*
X65299Y99251D01*
X64012Y99784D01*
D02*
G37*
G36*
X54012D02*
X52620D01*
X51333Y99251D01*
X50349Y98266D01*
X49816Y96980D01*
Y95588D01*
X50349Y94301D01*
X51333Y93317D01*
X52620Y92784D01*
X54012D01*
X55299Y93317D01*
X56283Y94301D01*
X56816Y95588D01*
Y96980D01*
X56283Y98266D01*
X55299Y99251D01*
X54012Y99784D01*
D02*
G37*
G36*
X33980D02*
X32588D01*
X31301Y99251D01*
X30317Y98266D01*
X29784Y96980D01*
Y95588D01*
X30317Y94301D01*
X31301Y93317D01*
X32588Y92784D01*
X33980D01*
X35266Y93317D01*
X36251Y94301D01*
X36784Y95588D01*
Y96980D01*
X36251Y98266D01*
X35266Y99251D01*
X33980Y99784D01*
D02*
G37*
G36*
X137321Y91750D02*
X135929D01*
X134642Y91217D01*
X133658Y90233D01*
X133125Y88946D01*
Y87554D01*
X133658Y86267D01*
X134642Y85283D01*
X135929Y84750D01*
X137321D01*
X138608Y85283D01*
X139592Y86267D01*
X140125Y87554D01*
Y88946D01*
X139592Y90233D01*
X138608Y91217D01*
X137321Y91750D01*
D02*
G37*
G36*
X103980Y89784D02*
X102588D01*
X101301Y89251D01*
X100317Y88266D01*
X99784Y86980D01*
Y85588D01*
X100317Y84301D01*
X101301Y83317D01*
X102588Y82784D01*
X103980D01*
X105267Y83317D01*
X106251Y84301D01*
X106784Y85588D01*
Y86980D01*
X106251Y88266D01*
X105267Y89251D01*
X103980Y89784D01*
D02*
G37*
G36*
X74012D02*
X72620D01*
X71334Y89251D01*
X70349Y88266D01*
X69816Y86980D01*
Y85588D01*
X70349Y84301D01*
X71334Y83317D01*
X72620Y82784D01*
X74012D01*
X75299Y83317D01*
X76283Y84301D01*
X76816Y85588D01*
Y86980D01*
X76283Y88266D01*
X75299Y89251D01*
X74012Y89784D01*
D02*
G37*
G36*
X64012D02*
X62620D01*
X61333Y89251D01*
X60349Y88266D01*
X59816Y86980D01*
Y85588D01*
X60349Y84301D01*
X61333Y83317D01*
X62620Y82784D01*
X64012D01*
X65299Y83317D01*
X66283Y84301D01*
X66816Y85588D01*
Y86980D01*
X66283Y88266D01*
X65299Y89251D01*
X64012Y89784D01*
D02*
G37*
G36*
X54012D02*
X52620D01*
X51333Y89251D01*
X50349Y88266D01*
X49816Y86980D01*
Y85588D01*
X50349Y84301D01*
X51333Y83317D01*
X52620Y82784D01*
X54012D01*
X55299Y83317D01*
X56283Y84301D01*
X56816Y85588D01*
Y86980D01*
X56283Y88266D01*
X55299Y89251D01*
X54012Y89784D01*
D02*
G37*
G36*
X44012D02*
X42620D01*
X41333Y89251D01*
X40349Y88266D01*
X39816Y86980D01*
Y85588D01*
X40349Y84301D01*
X41333Y83317D01*
X42620Y82784D01*
X44012D01*
X45299Y83317D01*
X46283Y84301D01*
X46816Y85588D01*
Y86980D01*
X46283Y88266D01*
X45299Y89251D01*
X44012Y89784D01*
D02*
G37*
G36*
X168696Y82500D02*
X167304D01*
X166017Y81967D01*
X165033Y80983D01*
X164500Y79696D01*
Y78304D01*
X165033Y77017D01*
X166017Y76033D01*
X167304Y75500D01*
X168696D01*
X169983Y76033D01*
X170967Y77017D01*
X171500Y78304D01*
Y79696D01*
X170967Y80983D01*
X169983Y81967D01*
X168696Y82500D01*
D02*
G37*
G36*
X126696Y81500D02*
X125304D01*
X124017Y80967D01*
X123033Y79983D01*
X122500Y78696D01*
Y77304D01*
X123033Y76017D01*
X124017Y75033D01*
X125304Y74500D01*
X126696D01*
X127983Y75033D01*
X128967Y76017D01*
X129500Y77304D01*
Y78696D01*
X128967Y79983D01*
X127983Y80967D01*
X126696Y81500D01*
D02*
G37*
G36*
X197196Y85000D02*
X195804D01*
X194517Y84467D01*
X193533Y83483D01*
X193000Y82196D01*
Y80804D01*
X193533Y79517D01*
X193612Y79438D01*
X193895Y78845D01*
X192911Y77860D01*
X192378Y76574D01*
Y75182D01*
X192911Y73895D01*
X193895Y72911D01*
X195182Y72378D01*
X196574D01*
X197860Y72911D01*
X198845Y73895D01*
X199378Y75182D01*
Y76574D01*
X198845Y77860D01*
X198766Y77940D01*
X198483Y78533D01*
X199467Y79517D01*
X200000Y80804D01*
Y82196D01*
X199467Y83483D01*
X198483Y84467D01*
X197196Y85000D01*
D02*
G37*
G36*
X125696Y58500D02*
X124304D01*
X123017Y57967D01*
X122033Y56983D01*
X121500Y55696D01*
Y54304D01*
X122033Y53017D01*
X123017Y52033D01*
X124304Y51500D01*
X125696D01*
X126983Y52033D01*
X127967Y53017D01*
X128500Y54304D01*
Y55696D01*
X127967Y56983D01*
X126983Y57967D01*
X125696Y58500D01*
D02*
G37*
G36*
X150696Y55500D02*
X149304D01*
X148017Y54967D01*
X147033Y53983D01*
X146500Y52696D01*
Y51304D01*
X147033Y50017D01*
X147550Y49500D01*
X146956Y48906D01*
X146424Y47620D01*
Y46227D01*
X146956Y44941D01*
X147941Y43956D01*
X149227Y43424D01*
X150620D01*
X151906Y43956D01*
X152891Y44941D01*
X153424Y46227D01*
Y47620D01*
X152891Y48906D01*
X152373Y49423D01*
X152967Y50017D01*
X153500Y51304D01*
Y52696D01*
X152967Y53983D01*
X151983Y54967D01*
X150696Y55500D01*
D02*
G37*
G36*
X9696Y54500D02*
X8304D01*
X7017Y53967D01*
X6033Y52983D01*
X5500Y51696D01*
Y50304D01*
X4399Y50000D01*
X4304D01*
X3017Y49467D01*
X2033Y48483D01*
X1500Y47196D01*
Y45804D01*
X2033Y44517D01*
X3017Y43533D01*
X4304Y43000D01*
X5696D01*
X6983Y43533D01*
X7967Y44517D01*
X8500Y45804D01*
Y47196D01*
X9601Y47500D01*
X9696D01*
X10983Y48033D01*
X11967Y49017D01*
X12500Y50304D01*
Y51696D01*
X11967Y52983D01*
X10983Y53967D01*
X9696Y54500D01*
D02*
G37*
G36*
X124012Y49784D02*
X122620D01*
X121334Y49251D01*
X120349Y48267D01*
X119816Y46980D01*
Y45588D01*
X120349Y44301D01*
X121334Y43317D01*
X122620Y42784D01*
X124012D01*
X125299Y43317D01*
X126283Y44301D01*
X126816Y45588D01*
Y46980D01*
X126283Y48267D01*
X125299Y49251D01*
X124012Y49784D01*
D02*
G37*
G36*
X38696Y48500D02*
X37304D01*
X36017Y47967D01*
X35033Y46983D01*
X34500Y45696D01*
Y44304D01*
X35033Y43017D01*
X36017Y42033D01*
X37304Y41500D01*
X38696D01*
X39983Y42033D01*
X40967Y43017D01*
X41500Y44304D01*
Y45696D01*
X40967Y46983D01*
X39983Y47967D01*
X38696Y48500D01*
D02*
G37*
G36*
X53696Y44500D02*
X52304D01*
X51017Y43967D01*
X50033Y42983D01*
X49500Y41696D01*
Y40304D01*
X50033Y39017D01*
X51017Y38033D01*
X52304Y37500D01*
X53696D01*
X54983Y38033D01*
X55967Y39017D01*
X56500Y40304D01*
Y41696D01*
X55967Y42983D01*
X54983Y43967D01*
X53696Y44500D01*
D02*
G37*
G36*
X166696Y41500D02*
X165304D01*
X164017Y40967D01*
X163033Y39983D01*
X162500Y38696D01*
Y37304D01*
X163033Y36017D01*
X164017Y35033D01*
X165304Y34500D01*
X166696D01*
X167983Y35033D01*
X168967Y36017D01*
X169500Y37304D01*
Y38696D01*
X168967Y39983D01*
X167983Y40967D01*
X166696Y41500D01*
D02*
G37*
G36*
X113980Y39816D02*
X112588D01*
X111301Y39283D01*
X110317Y38299D01*
X109784Y37012D01*
Y35620D01*
X110317Y34334D01*
X111301Y33349D01*
X112588Y32816D01*
X113980D01*
X115267Y33349D01*
X116251Y34334D01*
X116784Y35620D01*
Y37012D01*
X116251Y38299D01*
X115267Y39283D01*
X113980Y39816D01*
D02*
G37*
G36*
X83980D02*
X82588D01*
X81301Y39283D01*
X80317Y38299D01*
X79784Y37012D01*
Y35620D01*
X80317Y34334D01*
X81301Y33349D01*
X82588Y32816D01*
X83980D01*
X85267Y33349D01*
X86251Y34334D01*
X86784Y35620D01*
Y37012D01*
X86251Y38299D01*
X85267Y39283D01*
X83980Y39816D01*
D02*
G37*
G36*
X124012Y39784D02*
X122620D01*
X121334Y39251D01*
X120349Y38266D01*
X119816Y36980D01*
Y35588D01*
X120349Y34301D01*
X121334Y33317D01*
X122620Y32784D01*
X124012D01*
X125299Y33317D01*
X126283Y34301D01*
X126816Y35588D01*
Y36980D01*
X126283Y38266D01*
X125299Y39251D01*
X124012Y39784D01*
D02*
G37*
G36*
X217118Y71500D02*
X212882D01*
X208729Y70674D01*
X204816Y69053D01*
X201295Y66700D01*
X198300Y63705D01*
X195947Y60184D01*
X194326Y56271D01*
X193500Y52118D01*
Y47882D01*
X194326Y43729D01*
X195947Y39816D01*
X198300Y36295D01*
X201295Y33300D01*
X204816Y30947D01*
X208729Y29326D01*
X212882Y28500D01*
X217118D01*
X221271Y29326D01*
X225184Y30947D01*
X228705Y33300D01*
X231700Y36295D01*
X234053Y39816D01*
X235674Y43729D01*
X236500Y47882D01*
Y52118D01*
X235674Y56271D01*
X234053Y60184D01*
X231700Y63705D01*
X228705Y66700D01*
X225184Y69053D01*
X221271Y70674D01*
X217118Y71500D01*
D02*
G37*
G36*
X53980Y29784D02*
X52588D01*
X51301Y29251D01*
X50317Y28266D01*
X49784Y26980D01*
Y25588D01*
X50317Y24301D01*
X51301Y23317D01*
X52588Y22784D01*
X53980D01*
X55266Y23317D01*
X56251Y24301D01*
X56784Y25588D01*
Y26980D01*
X56251Y28266D01*
X55266Y29251D01*
X53980Y29784D01*
D02*
G37*
G36*
X33980D02*
X32588D01*
X31301Y29251D01*
X30317Y28266D01*
X29784Y26980D01*
Y25588D01*
X30317Y24301D01*
X31301Y23317D01*
X32588Y22784D01*
X33980D01*
X35266Y23317D01*
X36251Y24301D01*
X36784Y25588D01*
Y26980D01*
X36251Y28266D01*
X35266Y29251D01*
X33980Y29784D01*
D02*
G37*
G36*
X13980D02*
X12588D01*
X11301Y29251D01*
X10317Y28266D01*
X9784Y26980D01*
Y25588D01*
X10317Y24301D01*
X11301Y23317D01*
X12588Y22784D01*
X13980D01*
X15266Y23317D01*
X16251Y24301D01*
X16784Y25588D01*
Y26980D01*
X16251Y28266D01*
X15266Y29251D01*
X13980Y29784D01*
D02*
G37*
G36*
X157696Y23500D02*
X156304D01*
X155017Y22967D01*
X154980Y22930D01*
X154000Y22013D01*
X153020Y22930D01*
X152983Y22967D01*
X151696Y23500D01*
X150304D01*
X149017Y22967D01*
X148033Y21983D01*
X147500Y20696D01*
Y19304D01*
X148033Y18017D01*
X149017Y17033D01*
X150304Y16500D01*
X151696D01*
X152983Y17033D01*
X153020Y17070D01*
X154000Y17987D01*
X154980Y17070D01*
X155017Y17033D01*
X156304Y16500D01*
X157696D01*
X158983Y17033D01*
X159967Y18017D01*
X160500Y19304D01*
Y20696D01*
X159967Y21983D01*
X158983Y22967D01*
X157696Y23500D01*
D02*
G37*
G36*
X72696Y19500D02*
X71304D01*
X70017Y18967D01*
X69033Y17983D01*
X68500Y16696D01*
Y16219D01*
X67044Y15198D01*
X66667Y15354D01*
X65275D01*
X63989Y14821D01*
X63004Y13837D01*
X62471Y12550D01*
Y11158D01*
X63004Y9872D01*
X63989Y8887D01*
X64574Y8645D01*
X65030Y6995D01*
X65023Y6959D01*
X64500Y5696D01*
Y4304D01*
X65033Y3017D01*
X66017Y2033D01*
X67304Y1500D01*
X68696D01*
X69983Y2033D01*
X70967Y3017D01*
X71500Y4304D01*
Y5696D01*
X70967Y6983D01*
X69983Y7967D01*
X69398Y8209D01*
X68942Y9859D01*
X68948Y9895D01*
X69471Y11158D01*
Y11636D01*
X70928Y12656D01*
X71304Y12500D01*
X72696D01*
X73983Y13033D01*
X74967Y14017D01*
X75500Y15304D01*
Y16696D01*
X74967Y17983D01*
X73983Y18967D01*
X72696Y19500D01*
D02*
G37*
G36*
X103980Y19784D02*
X102588D01*
X101301Y19251D01*
X100317Y18267D01*
X99784Y16980D01*
Y15588D01*
X100317Y14301D01*
X101301Y13317D01*
X102588Y12784D01*
X103980D01*
X105267Y13317D01*
X106251Y14301D01*
X106784Y15588D01*
Y16980D01*
X106251Y18267D01*
X105267Y19251D01*
X103980Y19784D01*
D02*
G37*
G36*
X53980D02*
X52588D01*
X51301Y19251D01*
X50317Y18267D01*
X49784Y16980D01*
Y15588D01*
X50317Y14301D01*
X51301Y13317D01*
X52588Y12784D01*
X53980D01*
X55266Y13317D01*
X56251Y14301D01*
X56784Y15588D01*
Y16980D01*
X56251Y18267D01*
X55266Y19251D01*
X53980Y19784D01*
D02*
G37*
G36*
X33980D02*
X32588D01*
X31301Y19251D01*
X30317Y18267D01*
X29784Y16980D01*
Y15588D01*
X30317Y14301D01*
X31301Y13317D01*
X32588Y12784D01*
X33980D01*
X35266Y13317D01*
X36251Y14301D01*
X36784Y15588D01*
Y16980D01*
X36251Y18267D01*
X35266Y19251D01*
X33980Y19784D01*
D02*
G37*
G36*
X23980D02*
X22588D01*
X21301Y19251D01*
X20317Y18267D01*
X19784Y16980D01*
Y15588D01*
X20317Y14301D01*
X21301Y13317D01*
X22588Y12784D01*
X23980D01*
X25266Y13317D01*
X26251Y14301D01*
X26784Y15588D01*
Y16980D01*
X26251Y18267D01*
X25266Y19251D01*
X23980Y19784D01*
D02*
G37*
G36*
X172696Y14684D02*
X171304D01*
X170017Y14151D01*
X169033Y13167D01*
X168500Y11880D01*
Y10488D01*
X169033Y9201D01*
X170017Y8217D01*
X171304Y7684D01*
X172696D01*
X173983Y8217D01*
X174967Y9201D01*
X175500Y10488D01*
Y11880D01*
X174967Y13167D01*
X173983Y14151D01*
X172696Y14684D01*
D02*
G37*
G36*
X195696Y12500D02*
X194304D01*
X193017Y11967D01*
X192033Y10983D01*
X191500Y9696D01*
Y8304D01*
X192033Y7017D01*
X193017Y6033D01*
X194304Y5500D01*
X195696D01*
X196983Y6033D01*
X197967Y7017D01*
X198500Y8304D01*
Y9696D01*
X197967Y10983D01*
X196983Y11967D01*
X195696Y12500D01*
D02*
G37*
%LPD*%
D54*
X215000Y439000D02*
D03*
X57000Y470000D02*
D03*
X215000Y50000D02*
D03*
D55*
X149923Y46923D02*
D03*
X93000Y427000D02*
D03*
X195878Y75878D02*
D03*
X196500Y81500D02*
D03*
X237084Y279702D02*
D03*
X237018Y284650D02*
D03*
X181000Y419000D02*
D03*
X150000Y100000D02*
D03*
X149000Y212000D02*
D03*
X11000Y314000D02*
D03*
X18000Y315000D02*
D03*
X91000Y261000D02*
D03*
X63270Y256298D02*
D03*
X65000Y263000D02*
D03*
X6000Y14000D02*
D03*
X155000Y344000D02*
D03*
X10026Y418292D02*
D03*
X9500Y408000D02*
D03*
X130000Y437000D02*
D03*
X40000Y154000D02*
D03*
X11000Y179000D02*
D03*
X9000Y169000D02*
D03*
X132968Y415032D02*
D03*
X125968D02*
D03*
X202968Y333032D02*
D03*
X241968Y179032D02*
D03*
X238968Y153032D02*
D03*
X242000Y173000D02*
D03*
X197968Y160032D02*
D03*
Y152032D02*
D03*
X173253Y73457D02*
D03*
X232968Y15032D02*
D03*
Y7032D02*
D03*
X38968Y70032D02*
D03*
X10000Y79000D02*
D03*
X81968Y220032D02*
D03*
X51968Y223032D02*
D03*
X4968Y375032D02*
D03*
Y360032D02*
D03*
Y338032D02*
D03*
X46968Y331032D02*
D03*
X4968Y389032D02*
D03*
X16968Y449032D02*
D03*
Y455032D02*
D03*
X73968Y450032D02*
D03*
X141968Y457032D02*
D03*
X131968D02*
D03*
X254968Y425032D02*
D03*
X266968Y426032D02*
D03*
X254968Y435032D02*
D03*
X244968D02*
D03*
X266968D02*
D03*
X189569Y443988D02*
D03*
X187968Y436032D02*
D03*
X153000Y427000D02*
D03*
X152968Y436032D02*
D03*
X134968Y352032D02*
D03*
X102968Y381032D02*
D03*
X189968Y333032D02*
D03*
X160968Y277032D02*
D03*
Y262032D02*
D03*
X103968Y286032D02*
D03*
X39968Y275032D02*
D03*
X194968Y225032D02*
D03*
X189968Y205032D02*
D03*
X190000Y214000D02*
D03*
X199968Y197032D02*
D03*
Y205032D02*
D03*
Y214032D02*
D03*
X253000Y296000D02*
D03*
X237073Y266396D02*
D03*
X237000Y272000D02*
D03*
X244000Y228000D02*
D03*
Y233000D02*
D03*
X139968Y41032D02*
D03*
X147080Y41127D02*
D03*
X172968Y30032D02*
D03*
X45968Y108032D02*
D03*
X37000Y295000D02*
D03*
X79125Y297500D02*
D03*
X104000Y297000D02*
D03*
X161000Y294000D02*
D03*
X124000Y237000D02*
D03*
X27375Y229750D02*
D03*
X45000Y225000D02*
D03*
X59000D02*
D03*
X248000Y104000D02*
D03*
X260000Y117000D02*
D03*
X230000Y75000D02*
D03*
X224000Y19000D02*
D03*
X173000Y24000D02*
D03*
X28000Y5500D02*
D03*
X9000Y6000D02*
D03*
X157000Y115000D02*
D03*
X181000Y101000D02*
D03*
X215536Y125464D02*
D03*
X83240Y65881D02*
D03*
X88000Y15000D02*
D03*
X103000Y26000D02*
D03*
X98984Y40708D02*
D03*
X68372Y40470D02*
D03*
X78182Y45625D02*
D03*
X78312Y76201D02*
D03*
X88492Y76123D02*
D03*
X68418Y76975D02*
D03*
X58418D02*
D03*
X11000Y253000D02*
D03*
X34000Y276000D02*
D03*
X12448Y301549D02*
D03*
X237000Y407000D02*
D03*
X140000Y419000D02*
D03*
X166000Y343000D02*
D03*
X265000Y417000D02*
D03*
Y369000D02*
D03*
X94000Y456000D02*
D03*
X192000D02*
D03*
X207000Y138000D02*
D03*
X53000Y41000D02*
D03*
X136625Y88250D02*
D03*
X150000Y52000D02*
D03*
X154750Y138000D02*
D03*
X254000Y360000D02*
D03*
X151000Y20000D02*
D03*
X157000D02*
D03*
X68000Y5000D02*
D03*
X9000Y159000D02*
D03*
X4000Y436000D02*
D03*
X5000Y46500D02*
D03*
X183000Y113000D02*
D03*
X126000Y78000D02*
D03*
X125000Y55000D02*
D03*
X195000Y9000D02*
D03*
X161000Y62000D02*
D03*
X253000Y282000D02*
D03*
Y290000D02*
D03*
X254000Y326000D02*
D03*
X73000Y152000D02*
D03*
X73316Y96284D02*
D03*
X84000Y151000D02*
D03*
X63316Y96284D02*
D03*
X53316D02*
D03*
X53000Y166000D02*
D03*
X67000Y191000D02*
D03*
X77000Y193000D02*
D03*
X53000Y176000D02*
D03*
X73316Y86284D02*
D03*
X63316D02*
D03*
X53316D02*
D03*
X215000Y295000D02*
D03*
X177000Y207000D02*
D03*
X172170Y343322D02*
D03*
X259750Y397750D02*
D03*
X259787Y387277D02*
D03*
X262000Y245000D02*
D03*
Y257000D02*
D03*
X140000Y399000D02*
D03*
X188800Y249228D02*
D03*
X156000Y204000D02*
D03*
X196000Y234000D02*
D03*
X156000Y211000D02*
D03*
X179000Y359000D02*
D03*
X154000D02*
D03*
X151000Y293000D02*
D03*
X214000Y361000D02*
D03*
X208000Y355000D02*
D03*
X212000Y371000D02*
D03*
X213000Y381000D02*
D03*
X185362Y374638D02*
D03*
X197000Y380084D02*
D03*
X166000Y38000D02*
D03*
X182500Y4000D02*
D03*
X172000Y11184D02*
D03*
X168000Y79000D02*
D03*
X65971Y11854D02*
D03*
X36000Y449000D02*
D03*
X9000Y290000D02*
D03*
X148000Y302000D02*
D03*
X9000Y51000D02*
D03*
Y153000D02*
D03*
X14000Y206000D02*
D03*
X7000D02*
D03*
X10000Y135000D02*
D03*
X11000Y215000D02*
D03*
X8000Y461000D02*
D03*
X5000Y278000D02*
D03*
X38000Y45000D02*
D03*
X171000Y113000D02*
D03*
X211000Y251000D02*
D03*
X206250Y273500D02*
D03*
Y309500D02*
D03*
X181000Y320000D02*
D03*
X153000Y240000D02*
D03*
X138500D02*
D03*
X135000Y134000D02*
D03*
X144000D02*
D03*
X23284Y106316D02*
D03*
X22319Y436892D02*
D03*
X31770Y437572D02*
D03*
X24000Y317000D02*
D03*
X7000Y328000D02*
D03*
X35000Y373000D02*
D03*
X70964Y347536D02*
D03*
X95744Y439318D02*
D03*
X144000Y240000D02*
D03*
X72000Y16000D02*
D03*
X73000Y126000D02*
D03*
X72000Y117000D02*
D03*
X213000Y214500D02*
D03*
X209000Y219500D02*
D03*
X214000Y184500D02*
D03*
X213000Y171500D02*
D03*
X242000Y211000D02*
D03*
Y216500D02*
D03*
Y186000D02*
D03*
Y191500D02*
D03*
Y161000D02*
D03*
Y166500D02*
D03*
X209000Y146500D02*
D03*
X212000Y153500D02*
D03*
X103284Y36284D02*
D03*
X13284Y106316D02*
D03*
X116000Y217000D02*
D03*
X103284Y346284D02*
D03*
X33284Y356316D02*
D03*
X53284Y346284D02*
D03*
Y356284D02*
D03*
X71000Y358000D02*
D03*
X23316Y356284D02*
D03*
Y426316D02*
D03*
X103316D02*
D03*
X123316Y386316D02*
D03*
Y366284D02*
D03*
X103284Y306284D02*
D03*
Y316284D02*
D03*
X43316Y306284D02*
D03*
X103316Y246316D02*
D03*
X53284Y236284D02*
D03*
X63284Y246316D02*
D03*
X83284Y256316D02*
D03*
X33284D02*
D03*
Y246316D02*
D03*
X53284Y246284D02*
D03*
X23284Y246316D02*
D03*
X33284Y216316D02*
D03*
X23284D02*
D03*
X98434Y125627D02*
D03*
X43316Y86284D02*
D03*
X33284Y96284D02*
D03*
X123316Y46284D02*
D03*
Y36284D02*
D03*
X113284Y36316D02*
D03*
X103284Y16284D02*
D03*
X33284Y26284D02*
D03*
X53284D02*
D03*
X103316Y96316D02*
D03*
X23284D02*
D03*
X13284D02*
D03*
X23284Y136316D02*
D03*
X55000Y125000D02*
D03*
X53284Y136284D02*
D03*
X33284Y16284D02*
D03*
X53284D02*
D03*
X13284Y26284D02*
D03*
X23284Y16284D02*
D03*
X103316Y146316D02*
D03*
X113284Y136316D02*
D03*
X73284Y136284D02*
D03*
Y176284D02*
D03*
X83316D02*
D03*
X73316Y166316D02*
D03*
X83284D02*
D03*
X126000Y152000D02*
D03*
X150538Y150236D02*
D03*
X139000Y170000D02*
D03*
X145000D02*
D03*
X49250Y185500D02*
D03*
X65911Y158689D02*
D03*
X124000Y201000D02*
D03*
X73000Y25000D02*
D03*
X73316Y396284D02*
D03*
Y386316D02*
D03*
X83284D02*
D03*
Y396284D02*
D03*
X52000Y405000D02*
D03*
X65911Y378689D02*
D03*
X52354Y145419D02*
D03*
X126000Y135000D02*
D03*
X93316Y146316D02*
D03*
X128000Y180500D02*
D03*
X64158Y185442D02*
D03*
X146750Y201750D02*
D03*
X103284Y86284D02*
D03*
X83284Y36316D02*
D03*
X33316Y316316D02*
D03*
X113316Y426316D02*
D03*
X23284Y416284D02*
D03*
X122436Y357723D02*
D03*
X33284Y366316D02*
D03*
X64300Y405875D02*
D03*
X92000Y365000D02*
D03*
X87000Y191000D02*
D03*
Y415000D02*
D03*
X130000Y148000D02*
D03*
X140000Y145750D02*
D03*
X136000Y186000D02*
D03*
X145000Y188000D02*
D03*
X114255Y175972D02*
D03*
X113806Y165557D02*
D03*
X44246Y207197D02*
D03*
X72354Y205403D02*
D03*
X64197Y215354D02*
D03*
X62354Y205403D02*
D03*
X54246Y207197D02*
D03*
X52403Y197246D02*
D03*
X92000Y412000D02*
D03*
X97000Y408000D02*
D03*
X92000Y372000D02*
D03*
X97000Y376000D02*
D03*
X101000Y388000D02*
D03*
Y396000D02*
D03*
X44246Y427197D02*
D03*
X73000Y372000D02*
D03*
X73316Y306284D02*
D03*
X63316D02*
D03*
X53316D02*
D03*
X73316Y316284D02*
D03*
X63316D02*
D03*
X53316D02*
D03*
X64197Y435354D02*
D03*
X62354Y425403D02*
D03*
X54246Y427197D02*
D03*
X52403Y417245D02*
D03*
X53000Y386000D02*
D03*
X67000Y411000D02*
D03*
X77000Y413000D02*
D03*
X53000Y396000D02*
D03*
X84000Y371000D02*
D03*
X72354Y425403D02*
D03*
M02*
