G04*
G04 #@! TF.GenerationSoftware,Altium Limited,Altium Designer,24.9.1 (31)*
G04*
G04 Layer_Physical_Order=4*
G04 Layer_Color=15254943*
%FSLAX44Y44*%
%MOMM*%
G71*
G04*
G04 #@! TF.SameCoordinates,3E31175B-2F74-4D0F-94E8-FEE4F86157FB*
G04*
G04*
G04 #@! TF.FilePolarity,Positive*
G04*
G01*
G75*
%ADD48C,0.3200*%
%ADD49C,0.4000*%
%ADD50C,0.5000*%
%ADD54C,4.0000*%
%ADD55C,0.4000*%
G36*
X240000Y446000D02*
X274000D01*
Y95000D01*
X239000D01*
Y0D01*
X185571D01*
X184950Y1500D01*
X185467Y2017D01*
X186000Y3304D01*
Y4696D01*
X185467Y5983D01*
X184483Y6967D01*
X183196Y7500D01*
X181804D01*
X180517Y6967D01*
X179533Y5983D01*
X179000Y4696D01*
Y3304D01*
X179533Y2017D01*
X180050Y1500D01*
X179429Y0D01*
X0D01*
Y120711D01*
X1500Y121332D01*
X3706Y119127D01*
Y101816D01*
X3706Y101816D01*
X4016Y100255D01*
X4900Y98932D01*
X11422Y92411D01*
Y82985D01*
X10696Y82500D01*
X9304D01*
X8017Y81967D01*
X7033Y80983D01*
X6500Y79696D01*
Y78304D01*
X7033Y77017D01*
X8017Y76033D01*
X9304Y75500D01*
X10696D01*
X11422Y75015D01*
Y55409D01*
X9922Y54407D01*
X9696Y54500D01*
X8304D01*
X7017Y53967D01*
X6033Y52983D01*
X5500Y51696D01*
Y50304D01*
X6033Y49017D01*
X7017Y48033D01*
X8304Y47500D01*
X9696D01*
X9922Y47593D01*
X11422Y46591D01*
Y30189D01*
X10400Y29168D01*
X9516Y27845D01*
X9205Y26284D01*
X9516Y24723D01*
X10400Y23400D01*
X11723Y22516D01*
X13284Y22206D01*
X14845Y22516D01*
X16168Y23400D01*
X18384Y25616D01*
X19268Y26939D01*
X19578Y28500D01*
X19578Y28500D01*
Y94100D01*
X19578Y94100D01*
X19268Y95661D01*
X18384Y96984D01*
X18384Y96984D01*
X14031Y101337D01*
X14019Y101674D01*
X14470Y103019D01*
X15266Y103349D01*
X16251Y104333D01*
X16784Y105620D01*
Y107012D01*
X16251Y108299D01*
X15266Y109283D01*
X13980Y109816D01*
X12588D01*
X11862Y110301D01*
Y119127D01*
X24973Y132238D01*
X53122D01*
X53284Y132205D01*
X54845Y132516D01*
X56168Y133400D01*
X57052Y134723D01*
X57362Y136284D01*
X57052Y137845D01*
X56168Y139168D01*
X56136Y139200D01*
X54812Y140084D01*
X53252Y140394D01*
X53252Y140394D01*
X23284D01*
X23284Y140394D01*
X21723Y140084D01*
X20400Y139200D01*
X14855Y133654D01*
X13812Y134154D01*
X13500Y134421D01*
Y135696D01*
X12967Y136983D01*
X11983Y137967D01*
X10696Y138500D01*
X9304D01*
X9078Y138407D01*
X7578Y139409D01*
Y149015D01*
X8304Y149500D01*
X9696D01*
X10983Y150033D01*
X11967Y151017D01*
X12500Y152304D01*
Y153696D01*
X11967Y154983D01*
X10983Y155967D01*
X9696Y156500D01*
X8304D01*
X7578Y156985D01*
Y165015D01*
X8304Y165500D01*
X9696D01*
X10983Y166033D01*
X11967Y167017D01*
X12500Y168304D01*
Y169696D01*
X11967Y170983D01*
X10983Y171967D01*
X9696Y172500D01*
X8304D01*
X7578Y172985D01*
Y175351D01*
X9017Y176033D01*
X10304Y175500D01*
X11696D01*
X12983Y176033D01*
X13967Y177017D01*
X14500Y178304D01*
Y179696D01*
X13967Y180983D01*
X12983Y181967D01*
X11696Y182500D01*
X10304D01*
X9017Y181967D01*
X7578Y182649D01*
Y200811D01*
X9884Y203116D01*
X10768Y204439D01*
X11078Y206000D01*
X10768Y207561D01*
X9884Y208884D01*
X9884Y208884D01*
X9578Y209189D01*
Y211015D01*
X10304Y211500D01*
X11696D01*
X12983Y212033D01*
X13967Y213017D01*
X14500Y214304D01*
Y215696D01*
X13967Y216983D01*
X12983Y217967D01*
X11696Y218500D01*
X10304D01*
X9578Y218985D01*
Y249015D01*
X10304Y249500D01*
X11696D01*
X12983Y250033D01*
X13967Y251017D01*
X14500Y252304D01*
Y253696D01*
X13967Y254983D01*
X12983Y255967D01*
X12812Y256823D01*
X13384Y257394D01*
X13384Y257394D01*
X14268Y258717D01*
X14578Y260278D01*
X14578Y260278D01*
Y280722D01*
X14578Y280722D01*
X14268Y282283D01*
X13384Y283606D01*
X13384Y283606D01*
X10812Y286177D01*
X10983Y287033D01*
X11967Y288017D01*
X12500Y289304D01*
Y290696D01*
X11967Y291983D01*
X10983Y292967D01*
X9696Y293500D01*
X8304D01*
X7578Y293985D01*
Y310351D01*
X9017Y311033D01*
X10304Y310500D01*
X11696D01*
X12983Y311033D01*
X13614Y311664D01*
X14568Y311951D01*
X15520Y311846D01*
X16439Y311232D01*
X18000Y310922D01*
X19561Y311232D01*
X20884Y312116D01*
X21768Y313439D01*
X23304Y313500D01*
X24696D01*
X25983Y314033D01*
X26967Y315017D01*
X27500Y316304D01*
Y317696D01*
X26967Y318983D01*
X25983Y319967D01*
X24696Y320500D01*
X23304D01*
X22990Y320518D01*
X21768Y320845D01*
X21496Y321251D01*
X20884Y322168D01*
X17362Y325689D01*
Y404216D01*
X17362Y404216D01*
X17052Y405777D01*
X16168Y407100D01*
X16168Y407100D01*
X14274Y408994D01*
X19292Y414011D01*
X20176Y415335D01*
X20486Y416895D01*
X20486Y416895D01*
Y417719D01*
X26200Y423432D01*
X27084Y424755D01*
X27394Y426316D01*
X27084Y427877D01*
X26200Y429200D01*
X24877Y430084D01*
X23316Y430395D01*
X21755Y430084D01*
X20432Y429200D01*
X13524Y422292D01*
X13353Y422036D01*
X12009Y421259D01*
X11445Y421492D01*
X10722Y421792D01*
X9330D01*
X8044Y421259D01*
X7059Y420274D01*
X6526Y418988D01*
Y417595D01*
X7059Y416309D01*
X8044Y415325D01*
X8214Y414469D01*
X6616Y412871D01*
X5732Y411548D01*
X5422Y409987D01*
X5422Y409987D01*
Y408000D01*
X5422Y408000D01*
X5732Y406439D01*
X6616Y405116D01*
X9206Y402527D01*
Y391704D01*
X8790Y391479D01*
X7706Y391244D01*
X6950Y391999D01*
X5664Y392532D01*
X4272D01*
X2985Y391999D01*
X2001Y391015D01*
X1468Y389728D01*
X0Y389806D01*
Y464000D01*
X3954D01*
X4210Y463759D01*
X4833Y462500D01*
X4500Y461696D01*
Y460304D01*
X5033Y459017D01*
X6017Y458033D01*
X7304Y457500D01*
X8696D01*
X9983Y458033D01*
X10967Y459017D01*
X11500Y460304D01*
Y461696D01*
X11167Y462500D01*
X11790Y463759D01*
X12046Y464000D01*
X36272D01*
X36326Y463729D01*
X37947Y459816D01*
X40300Y456295D01*
X43295Y453300D01*
X46816Y450947D01*
X50729Y449326D01*
X54882Y448500D01*
X59118D01*
X63271Y449326D01*
X67184Y450947D01*
X69605Y452564D01*
X70816Y451570D01*
X70468Y450728D01*
Y449336D01*
X71001Y448050D01*
X71985Y447065D01*
X73272Y446532D01*
X74664D01*
X75950Y447065D01*
X76935Y448050D01*
X77468Y449336D01*
Y450728D01*
X76935Y452015D01*
X75950Y452999D01*
X74664Y453532D01*
X73272D01*
X72909Y453382D01*
X72059Y454654D01*
X73700Y456295D01*
X76053Y459816D01*
X77674Y463729D01*
X77728Y464000D01*
X240000D01*
Y446000D01*
D02*
G37*
%LPC*%
G36*
X142664Y460532D02*
X141272D01*
X139985Y459999D01*
X139001Y459015D01*
X138468Y457728D01*
Y456336D01*
X139001Y455050D01*
X139985Y454065D01*
X141272Y453532D01*
X142664D01*
X143950Y454065D01*
X144935Y455050D01*
X145468Y456336D01*
Y457728D01*
X144935Y459015D01*
X143950Y459999D01*
X142664Y460532D01*
D02*
G37*
G36*
X132664D02*
X131272D01*
X129985Y459999D01*
X129001Y459015D01*
X128468Y457728D01*
Y456336D01*
X129001Y455050D01*
X129985Y454065D01*
X131272Y453532D01*
X132664D01*
X133950Y454065D01*
X134935Y455050D01*
X135468Y456336D01*
Y457728D01*
X134935Y459015D01*
X133950Y459999D01*
X132664Y460532D01*
D02*
G37*
G36*
X192696Y459500D02*
X191304D01*
X190017Y458967D01*
X189033Y457983D01*
X188500Y456696D01*
Y455304D01*
X189033Y454017D01*
X190017Y453033D01*
X191304Y452500D01*
X192696D01*
X193983Y453033D01*
X194967Y454017D01*
X195500Y455304D01*
Y456696D01*
X194967Y457983D01*
X193983Y458967D01*
X192696Y459500D01*
D02*
G37*
G36*
X94696D02*
X93304D01*
X92017Y458967D01*
X91033Y457983D01*
X90500Y456696D01*
Y455304D01*
X91033Y454017D01*
X92017Y453033D01*
X93304Y452500D01*
X94696D01*
X95983Y453033D01*
X96967Y454017D01*
X97500Y455304D01*
Y456696D01*
X96967Y457983D01*
X95983Y458967D01*
X94696Y459500D01*
D02*
G37*
G36*
X17664Y458532D02*
X16272D01*
X14985Y457999D01*
X14001Y457015D01*
X13468Y455728D01*
Y454336D01*
X14001Y453050D01*
X14038Y453012D01*
X14954Y452032D01*
X14038Y451052D01*
X14001Y451015D01*
X13468Y449728D01*
Y448336D01*
X14001Y447050D01*
X14985Y446065D01*
X16272Y445532D01*
X17664D01*
X18950Y446065D01*
X19935Y447050D01*
X20468Y448336D01*
Y449728D01*
X19935Y451015D01*
X19897Y451052D01*
X18981Y452032D01*
X19897Y453012D01*
X19935Y453050D01*
X20468Y454336D01*
Y455728D01*
X19935Y457015D01*
X18950Y457999D01*
X17664Y458532D01*
D02*
G37*
G36*
X36696Y452500D02*
X35304D01*
X34017Y451967D01*
X33033Y450983D01*
X32500Y449696D01*
Y448304D01*
X33033Y447017D01*
X34017Y446033D01*
X35304Y445500D01*
X36696D01*
X37983Y446033D01*
X38967Y447017D01*
X39500Y448304D01*
Y449696D01*
X38967Y450983D01*
X37983Y451967D01*
X36696Y452500D01*
D02*
G37*
G36*
X217118Y460500D02*
X212882D01*
X208729Y459674D01*
X204816Y458053D01*
X201295Y455700D01*
X198300Y452705D01*
X195947Y449184D01*
X194388Y445419D01*
X193926Y445284D01*
X192806Y445318D01*
X192536Y445970D01*
X191551Y446955D01*
X190265Y447488D01*
X188872D01*
X187586Y446955D01*
X186601Y445970D01*
X186069Y444684D01*
Y443292D01*
X186601Y442005D01*
X187575Y441032D01*
X187574Y440963D01*
X187277Y439556D01*
X187266Y439530D01*
X185985Y438999D01*
X185001Y438015D01*
X184468Y436728D01*
Y435336D01*
X185001Y434050D01*
X185985Y433065D01*
X187272Y432532D01*
X188664D01*
X189950Y433065D01*
X190935Y434050D01*
X191468Y435336D01*
Y436728D01*
X190935Y438015D01*
X189962Y438988D01*
X189963Y439057D01*
X190260Y440464D01*
X190271Y440490D01*
X191551Y441021D01*
X192051Y441520D01*
X192855Y441297D01*
X193500Y440848D01*
Y436882D01*
X194326Y432729D01*
X195947Y428816D01*
X198300Y425295D01*
X201295Y422300D01*
X204816Y419947D01*
X208729Y418326D01*
X212882Y417500D01*
X217118D01*
X221271Y418326D01*
X225184Y419947D01*
X228705Y422300D01*
X231700Y425295D01*
X234053Y428816D01*
X235674Y432729D01*
X236500Y436882D01*
Y441118D01*
X235674Y445271D01*
X234053Y449184D01*
X231700Y452705D01*
X228705Y455700D01*
X225184Y458053D01*
X221271Y459674D01*
X217118Y460500D01*
D02*
G37*
G36*
X96440Y442818D02*
X95048D01*
X93762Y442285D01*
X92777Y441301D01*
X92244Y440014D01*
Y438622D01*
X92777Y437336D01*
X93762Y436351D01*
X95048Y435818D01*
X96440D01*
X97727Y436351D01*
X98712Y437336D01*
X99244Y438622D01*
Y440014D01*
X98712Y441301D01*
X97727Y442285D01*
X96440Y442818D01*
D02*
G37*
G36*
X32466Y441072D02*
X31074D01*
X29787Y440540D01*
X28803Y439555D01*
X28270Y438269D01*
Y436876D01*
X28803Y435590D01*
X29787Y434605D01*
X31074Y434072D01*
X32466D01*
X33752Y434605D01*
X34737Y435590D01*
X35270Y436876D01*
Y438269D01*
X34737Y439555D01*
X33752Y440540D01*
X32466Y441072D01*
D02*
G37*
G36*
X130696Y440500D02*
X129304D01*
X128017Y439967D01*
X127033Y438983D01*
X126500Y437696D01*
Y436304D01*
X127033Y435017D01*
X128017Y434033D01*
X129304Y433500D01*
X130696D01*
X131983Y434033D01*
X132967Y435017D01*
X133500Y436304D01*
Y437696D01*
X132967Y438983D01*
X131983Y439967D01*
X130696Y440500D01*
D02*
G37*
G36*
X23015Y440392D02*
X21623D01*
X20336Y439859D01*
X19352Y438874D01*
X18819Y437588D01*
Y436195D01*
X19352Y434909D01*
X20336Y433924D01*
X21623Y433392D01*
X23015D01*
X24302Y433924D01*
X25286Y434909D01*
X25819Y436195D01*
Y437588D01*
X25286Y438874D01*
X24302Y439859D01*
X23015Y440392D01*
D02*
G37*
G36*
X153664Y439532D02*
X152272D01*
X150985Y438999D01*
X150001Y438015D01*
X149468Y436728D01*
Y435336D01*
X150001Y434050D01*
X150985Y433065D01*
X152272Y432532D01*
X153664D01*
X154950Y433065D01*
X155935Y434050D01*
X156468Y435336D01*
Y436728D01*
X155935Y438015D01*
X154950Y438999D01*
X153664Y439532D01*
D02*
G37*
G36*
X64893Y438854D02*
X63501D01*
X62215Y438322D01*
X61230Y437337D01*
X60697Y436051D01*
Y434658D01*
X61230Y433372D01*
X62215Y432387D01*
X63501Y431855D01*
X64893D01*
X66180Y432387D01*
X67164Y433372D01*
X67697Y434658D01*
Y436051D01*
X67164Y437337D01*
X66180Y438322D01*
X64893Y438854D01*
D02*
G37*
G36*
X267664Y438532D02*
X266272D01*
X264985Y437999D01*
X264001Y437015D01*
X263468Y435728D01*
Y434336D01*
X264001Y433050D01*
X264985Y432065D01*
X266272Y431532D01*
X267664D01*
X268950Y432065D01*
X269935Y433050D01*
X270468Y434336D01*
Y435728D01*
X269935Y437015D01*
X268950Y437999D01*
X267664Y438532D01*
D02*
G37*
G36*
X255664D02*
X254272D01*
X252985Y437999D01*
X252001Y437015D01*
X251468Y435728D01*
Y434336D01*
X252001Y433050D01*
X252985Y432065D01*
X254272Y431532D01*
X255664D01*
X256950Y432065D01*
X257935Y433050D01*
X258468Y434336D01*
Y435728D01*
X257935Y437015D01*
X256950Y437999D01*
X255664Y438532D01*
D02*
G37*
G36*
X245664D02*
X244272D01*
X242985Y437999D01*
X242001Y437015D01*
X241468Y435728D01*
Y434336D01*
X242001Y433050D01*
X242985Y432065D01*
X244272Y431532D01*
X245664D01*
X246950Y432065D01*
X247935Y433050D01*
X248468Y434336D01*
Y435728D01*
X247935Y437015D01*
X246950Y437999D01*
X245664Y438532D01*
D02*
G37*
G36*
X44942Y430697D02*
X43549D01*
X42263Y430164D01*
X41278Y429180D01*
X40746Y427893D01*
Y426501D01*
X41278Y425215D01*
X42263Y424230D01*
X43549Y423697D01*
X44942D01*
X46228Y424230D01*
X47213Y425215D01*
X47745Y426501D01*
Y427893D01*
X47213Y429180D01*
X46228Y430164D01*
X44942Y430697D01*
D02*
G37*
G36*
X153696Y430500D02*
X152304D01*
X151017Y429967D01*
X150033Y428983D01*
X149500Y427696D01*
Y426304D01*
X150033Y425017D01*
X151017Y424033D01*
X152304Y423500D01*
X153696D01*
X154983Y424033D01*
X155967Y425017D01*
X156500Y426304D01*
Y427696D01*
X155967Y428983D01*
X154983Y429967D01*
X153696Y430500D01*
D02*
G37*
G36*
X267664Y429532D02*
X266272D01*
X264985Y428999D01*
X264001Y428015D01*
X263468Y426728D01*
Y425336D01*
X264001Y424050D01*
X264985Y423065D01*
X266272Y422532D01*
X267664D01*
X268950Y423065D01*
X269935Y424050D01*
X270468Y425336D01*
Y426728D01*
X269935Y428015D01*
X268950Y428999D01*
X267664Y429532D01*
D02*
G37*
G36*
X73051Y428903D02*
X71658D01*
X70372Y428370D01*
X69387Y427385D01*
X68854Y426099D01*
Y424707D01*
X69387Y423420D01*
X70372Y422436D01*
X71658Y421903D01*
X73051D01*
X74337Y422436D01*
X75322Y423420D01*
X75855Y424707D01*
Y426099D01*
X75322Y427385D01*
X74337Y428370D01*
X73051Y428903D01*
D02*
G37*
G36*
X54942Y430697D02*
X53549D01*
X52263Y430164D01*
X51278Y429180D01*
X50746Y427893D01*
Y426501D01*
X51278Y425215D01*
X52263Y424230D01*
X53549Y423697D01*
X54942D01*
X56228Y424230D01*
X57213Y425215D01*
X57354Y425557D01*
X58854Y425259D01*
Y424707D01*
X59387Y423420D01*
X60372Y422436D01*
X61658Y421903D01*
X63051D01*
X64337Y422436D01*
X65322Y423420D01*
X65855Y424707D01*
Y426099D01*
X65322Y427385D01*
X64337Y428370D01*
X63051Y428903D01*
X61658D01*
X60372Y428370D01*
X59387Y427385D01*
X59246Y427043D01*
X57745Y427341D01*
Y427893D01*
X57213Y429180D01*
X56228Y430164D01*
X54942Y430697D01*
D02*
G37*
G36*
X255664Y428532D02*
X254272D01*
X252985Y427999D01*
X252001Y427015D01*
X251468Y425728D01*
Y424336D01*
X252001Y423050D01*
X252985Y422065D01*
X254272Y421532D01*
X255664D01*
X256950Y422065D01*
X257935Y423050D01*
X258468Y424336D01*
Y425728D01*
X257935Y427015D01*
X256950Y427999D01*
X255664Y428532D01*
D02*
G37*
G36*
X140000Y423588D02*
X138244Y423239D01*
X136756Y422244D01*
X135761Y420756D01*
X135491Y419399D01*
X134440Y418580D01*
X134003Y418392D01*
X133664Y418532D01*
X132272D01*
X130985Y417999D01*
X130395Y417409D01*
X129468Y417159D01*
X128540Y417409D01*
X127950Y417999D01*
X126664Y418532D01*
X125272D01*
X123985Y417999D01*
X123001Y417015D01*
X122468Y415728D01*
Y414336D01*
X123001Y413050D01*
X123985Y412065D01*
X125272Y411532D01*
X126664D01*
X127950Y412065D01*
X128540Y412655D01*
X129468Y412906D01*
X130395Y412655D01*
X130985Y412065D01*
X132272Y411532D01*
X133664D01*
X134950Y412065D01*
X135935Y413050D01*
X136347Y414044D01*
X137371Y414461D01*
X137968Y414544D01*
X146756Y405756D01*
X148244Y404761D01*
X150000Y404412D01*
X233099D01*
X233756Y403756D01*
X235244Y402761D01*
X237000Y402412D01*
X238756Y402761D01*
X240244Y403756D01*
X241239Y405244D01*
X241588Y407000D01*
X241239Y408756D01*
X240244Y410244D01*
X238244Y412244D01*
X236756Y413239D01*
X235000Y413588D01*
X151901D01*
X143244Y422244D01*
X141756Y423239D01*
X140000Y423588D01*
D02*
G37*
G36*
X181696Y422500D02*
X180304D01*
X179017Y421967D01*
X178033Y420983D01*
X177500Y419696D01*
Y418304D01*
X178033Y417017D01*
X179017Y416033D01*
X180304Y415500D01*
X181696D01*
X182983Y416033D01*
X183967Y417017D01*
X184500Y418304D01*
Y419696D01*
X183967Y420983D01*
X182983Y421967D01*
X181696Y422500D01*
D02*
G37*
G36*
X53099Y420746D02*
X51707D01*
X50420Y420213D01*
X49436Y419228D01*
X48903Y417942D01*
Y416549D01*
X49436Y415263D01*
X50420Y414278D01*
X51707Y413745D01*
X53099D01*
X54385Y414278D01*
X55370Y415263D01*
X55903Y416549D01*
Y417942D01*
X55370Y419228D01*
X54385Y420213D01*
X53099Y420746D01*
D02*
G37*
G36*
X265696Y420500D02*
X264304D01*
X263017Y419967D01*
X262033Y418983D01*
X261500Y417696D01*
Y416304D01*
X262033Y415017D01*
X263017Y414033D01*
X264304Y413500D01*
X265696D01*
X266983Y414033D01*
X267967Y415017D01*
X268500Y416304D01*
Y417696D01*
X267967Y418983D01*
X266983Y419967D01*
X265696Y420500D01*
D02*
G37*
G36*
X77696Y416500D02*
X76304D01*
X75017Y415967D01*
X74033Y414983D01*
X73500Y413696D01*
Y412304D01*
X74033Y411017D01*
X75017Y410033D01*
X76304Y409500D01*
X77696D01*
X78983Y410033D01*
X79967Y411017D01*
X80500Y412304D01*
Y413696D01*
X79967Y414983D01*
X78983Y415967D01*
X77696Y416500D01*
D02*
G37*
G36*
X67696Y414500D02*
X66304D01*
X65017Y413967D01*
X64033Y412983D01*
X63500Y411696D01*
Y410304D01*
X64033Y409017D01*
X65017Y408033D01*
X66304Y407500D01*
X67696D01*
X68983Y408033D01*
X69967Y409017D01*
X70500Y410304D01*
Y411696D01*
X69967Y412983D01*
X68983Y413967D01*
X67696Y414500D01*
D02*
G37*
G36*
X87696Y418500D02*
X86304D01*
X85017Y417967D01*
X84033Y416983D01*
X83500Y415696D01*
Y414304D01*
X84033Y413017D01*
X85017Y412033D01*
X86304Y411500D01*
X87696D01*
X88011Y411630D01*
X88500Y411304D01*
X89033Y410017D01*
X90017Y409033D01*
X91304Y408500D01*
X92696D01*
X93500Y407304D01*
X94033Y406017D01*
X95017Y405033D01*
X96304Y404500D01*
X97696D01*
X98983Y405033D01*
X99967Y406017D01*
X100500Y407304D01*
Y408696D01*
X99967Y409983D01*
X98983Y410967D01*
X97696Y411500D01*
X96304D01*
X95500Y412696D01*
X94967Y413983D01*
X93983Y414967D01*
X92696Y415500D01*
X91304D01*
X90989Y415370D01*
X90500Y415696D01*
X89967Y416983D01*
X88983Y417967D01*
X87696Y418500D01*
D02*
G37*
G36*
X52696Y408500D02*
X51304D01*
X50017Y407967D01*
X49033Y406983D01*
X48500Y405696D01*
Y404304D01*
X49033Y403017D01*
X50017Y402033D01*
X51304Y401500D01*
X52696D01*
X53983Y402033D01*
X54967Y403017D01*
X55500Y404304D01*
Y405696D01*
X54967Y406983D01*
X53983Y407967D01*
X52696Y408500D01*
D02*
G37*
G36*
X140696Y402500D02*
X139304D01*
X138017Y401967D01*
X137033Y400983D01*
X136500Y399696D01*
Y398304D01*
X137033Y397017D01*
X138017Y396033D01*
X139304Y395500D01*
X140696D01*
X141983Y396033D01*
X142967Y397017D01*
X143500Y398304D01*
Y399696D01*
X142967Y400983D01*
X141983Y401967D01*
X140696Y402500D01*
D02*
G37*
G36*
X260446Y401250D02*
X259054D01*
X257767Y400717D01*
X256783Y399733D01*
X256250Y398446D01*
Y397054D01*
X256783Y395767D01*
X257767Y394783D01*
X259054Y394250D01*
X260446D01*
X261733Y394783D01*
X262717Y395767D01*
X263250Y397054D01*
Y398446D01*
X262717Y399733D01*
X261733Y400717D01*
X260446Y401250D01*
D02*
G37*
G36*
X83980Y399784D02*
X82588D01*
X81301Y399251D01*
X80317Y398266D01*
X79784Y396980D01*
Y395588D01*
X80317Y394301D01*
X81301Y393317D01*
X82588Y392784D01*
X83980D01*
X85267Y393317D01*
X86251Y394301D01*
X86784Y395588D01*
Y396980D01*
X86251Y398266D01*
X85267Y399251D01*
X83980Y399784D01*
D02*
G37*
G36*
X74012D02*
X72620D01*
X71333Y399251D01*
X70349Y398266D01*
X69816Y396980D01*
Y395588D01*
X70349Y394301D01*
X71333Y393317D01*
X72620Y392784D01*
X74012D01*
X75299Y393317D01*
X76283Y394301D01*
X76816Y395588D01*
Y396980D01*
X76283Y398266D01*
X75299Y399251D01*
X74012Y399784D01*
D02*
G37*
G36*
X53696Y399500D02*
X52304D01*
X51017Y398967D01*
X50033Y397983D01*
X49500Y396696D01*
Y395304D01*
X50033Y394017D01*
X51017Y393033D01*
X52304Y392500D01*
X53696D01*
X54983Y393033D01*
X55967Y394017D01*
X56500Y395304D01*
Y396696D01*
X55967Y397983D01*
X54983Y398967D01*
X53696Y399500D01*
D02*
G37*
G36*
X260483Y390777D02*
X259091D01*
X257804Y390244D01*
X256820Y389260D01*
X256287Y387974D01*
Y386581D01*
X256820Y385295D01*
X257804Y384310D01*
X259091Y383777D01*
X260483D01*
X261769Y384310D01*
X262754Y385295D01*
X263287Y386581D01*
Y387974D01*
X262754Y389260D01*
X261769Y390244D01*
X260483Y390777D01*
D02*
G37*
G36*
X83980Y389816D02*
X82588D01*
X81301Y389283D01*
X80317Y388299D01*
X79784Y387012D01*
Y385620D01*
X80317Y384333D01*
X81301Y383349D01*
X82588Y382816D01*
X83980D01*
X85267Y383349D01*
X86251Y384333D01*
X86784Y385620D01*
Y387012D01*
X86251Y388299D01*
X85267Y389283D01*
X83980Y389816D01*
D02*
G37*
G36*
X74012D02*
X72620D01*
X71333Y389283D01*
X70349Y388299D01*
X69816Y387012D01*
Y385620D01*
X70349Y384333D01*
X71333Y383349D01*
X72620Y382816D01*
X74012D01*
X75299Y383349D01*
X76283Y384333D01*
X76816Y385620D01*
Y387012D01*
X76283Y388299D01*
X75299Y389283D01*
X74012Y389816D01*
D02*
G37*
G36*
X53696Y389500D02*
X52304D01*
X51017Y388967D01*
X50033Y387983D01*
X49500Y386696D01*
Y385304D01*
X50033Y384017D01*
X51017Y383033D01*
X52304Y382500D01*
X53696D01*
X54983Y383033D01*
X55967Y384017D01*
X56500Y385304D01*
Y386696D01*
X55967Y387983D01*
X54983Y388967D01*
X53696Y389500D01*
D02*
G37*
G36*
X101696Y399500D02*
X100304D01*
X99017Y398967D01*
X98033Y397983D01*
X97500Y396696D01*
Y395304D01*
X98033Y394017D01*
X99017Y393033D01*
X99551Y392812D01*
Y391188D01*
X99017Y390967D01*
X98033Y389983D01*
X97500Y388696D01*
Y387304D01*
X98033Y386017D01*
X99017Y385033D01*
X99640Y384775D01*
X100089Y383155D01*
X100079Y383093D01*
X100001Y383015D01*
X99468Y381728D01*
Y380336D01*
X98293Y379253D01*
X97696Y379500D01*
X96304D01*
X95017Y378967D01*
X94033Y377983D01*
X93533Y376777D01*
X93386Y376527D01*
X92696Y375500D01*
X91304D01*
X90017Y374967D01*
X89033Y373983D01*
X88605Y372949D01*
X87697Y372753D01*
X87043Y372800D01*
X86967Y372983D01*
X85983Y373967D01*
X84696Y374500D01*
X83304D01*
X82017Y373967D01*
X81033Y372983D01*
X80500Y371696D01*
Y370304D01*
X81033Y369017D01*
X82017Y368033D01*
X83304Y367500D01*
X84696D01*
X85983Y368033D01*
X86967Y369017D01*
X87395Y370051D01*
X88303Y370247D01*
X88957Y370200D01*
X89033Y370017D01*
X90017Y369033D01*
X91304Y368500D01*
X92696D01*
X93983Y369033D01*
X94967Y370017D01*
X95467Y371223D01*
X95614Y371473D01*
X96304Y372500D01*
X97696D01*
X98983Y373033D01*
X99967Y374017D01*
X100500Y375304D01*
Y376696D01*
X101675Y377779D01*
X102272Y377532D01*
X103664D01*
X104950Y378065D01*
X105935Y379050D01*
X106468Y380336D01*
Y381728D01*
X105935Y383015D01*
X104950Y383999D01*
X104328Y384257D01*
X103879Y385878D01*
X103889Y385939D01*
X103967Y386017D01*
X104500Y387304D01*
Y388696D01*
X103967Y389983D01*
X102983Y390967D01*
X102449Y391188D01*
Y392812D01*
X102983Y393033D01*
X103967Y394017D01*
X104500Y395304D01*
Y396696D01*
X103967Y397983D01*
X102983Y398967D01*
X101696Y399500D01*
D02*
G37*
G36*
X213696Y384500D02*
X212304D01*
X211017Y383967D01*
X210033Y382983D01*
X209500Y381696D01*
Y380304D01*
X210033Y379017D01*
X211017Y378033D01*
X212304Y377500D01*
X213696D01*
X214983Y378033D01*
X215967Y379017D01*
X216500Y380304D01*
Y381696D01*
X215967Y382983D01*
X214983Y383967D01*
X213696Y384500D01*
D02*
G37*
G36*
X197696Y383584D02*
X196304D01*
X195017Y383051D01*
X194033Y382067D01*
X193500Y380780D01*
Y379388D01*
X194033Y378102D01*
X195017Y377117D01*
X196304Y376584D01*
X197696D01*
X198983Y377117D01*
X199967Y378102D01*
X200500Y379388D01*
Y380780D01*
X199967Y382067D01*
X198983Y383051D01*
X197696Y383584D01*
D02*
G37*
G36*
X66607Y382189D02*
X65215D01*
X63928Y381656D01*
X62944Y380672D01*
X62411Y379385D01*
Y377993D01*
X62944Y376706D01*
X63928Y375722D01*
X65215Y375189D01*
X66607D01*
X67894Y375722D01*
X68878Y376706D01*
X69411Y377993D01*
Y379385D01*
X68878Y380672D01*
X67894Y381656D01*
X66607Y382189D01*
D02*
G37*
G36*
X186058Y378138D02*
X184665D01*
X183379Y377606D01*
X182394Y376621D01*
X181862Y375335D01*
Y373942D01*
X182394Y372656D01*
X183379Y371671D01*
X184665Y371138D01*
X186058D01*
X187344Y371671D01*
X188329Y372656D01*
X188862Y373942D01*
Y375335D01*
X188329Y376621D01*
X187344Y377606D01*
X186058Y378138D01*
D02*
G37*
G36*
X73696Y375500D02*
X72304D01*
X71017Y374967D01*
X70033Y373983D01*
X69500Y372696D01*
Y371304D01*
X70033Y370017D01*
X71017Y369033D01*
X72304Y368500D01*
X73696D01*
X74983Y369033D01*
X75967Y370017D01*
X76500Y371304D01*
Y372696D01*
X75967Y373983D01*
X74983Y374967D01*
X73696Y375500D01*
D02*
G37*
G36*
X212696Y374500D02*
X211304D01*
X210017Y373967D01*
X209033Y372983D01*
X208500Y371696D01*
Y370304D01*
X209033Y369017D01*
X210017Y368033D01*
X211304Y367500D01*
X212696D01*
X213983Y368033D01*
X214967Y369017D01*
X215500Y370304D01*
Y371696D01*
X214967Y372983D01*
X213983Y373967D01*
X212696Y374500D01*
D02*
G37*
G36*
X265696Y372500D02*
X264304D01*
X263017Y371967D01*
X262033Y370983D01*
X261500Y369696D01*
Y368304D01*
X262033Y367017D01*
X263017Y366033D01*
X264304Y365500D01*
X265696D01*
X266983Y366033D01*
X267967Y367017D01*
X268500Y368304D01*
Y369696D01*
X267967Y370983D01*
X266983Y371967D01*
X265696Y372500D01*
D02*
G37*
G36*
X214696Y364500D02*
X213304D01*
X212017Y363967D01*
X211033Y362983D01*
X210500Y361696D01*
Y360304D01*
X211033Y359017D01*
X209982Y357967D01*
X208696Y358500D01*
X207304D01*
X206017Y357967D01*
X205033Y356983D01*
X204500Y355696D01*
Y354304D01*
X205033Y353017D01*
X206017Y352033D01*
X207304Y351500D01*
X208696D01*
X209983Y352033D01*
X210967Y353017D01*
X211500Y354304D01*
Y355696D01*
X210967Y356982D01*
X212017Y358033D01*
X213304Y357500D01*
X214696D01*
X215983Y358033D01*
X216967Y359017D01*
X217500Y360304D01*
Y361696D01*
X216967Y362983D01*
X215983Y363967D01*
X214696Y364500D01*
D02*
G37*
G36*
X179696Y362500D02*
X178304D01*
X177017Y361967D01*
X176033Y360983D01*
X175500Y359696D01*
Y358304D01*
X176033Y357017D01*
X177017Y356033D01*
X178304Y355500D01*
X179696D01*
X180983Y356033D01*
X181967Y357017D01*
X182500Y358304D01*
Y359696D01*
X181967Y360983D01*
X180983Y361967D01*
X179696Y362500D01*
D02*
G37*
G36*
X103316Y430394D02*
X101755Y430084D01*
X100432Y429200D01*
X99548Y427877D01*
X99238Y426316D01*
Y421684D01*
X99238Y421684D01*
X99548Y420123D01*
X100432Y418800D01*
X110922Y408311D01*
Y394632D01*
X110922Y394632D01*
X111232Y393072D01*
X112116Y391748D01*
X120432Y383432D01*
X141922Y361943D01*
Y338689D01*
X123595Y320362D01*
X103284D01*
X101723Y320052D01*
X100400Y319168D01*
X99516Y317845D01*
X99206Y316284D01*
X99516Y314723D01*
X100400Y313400D01*
X101723Y312516D01*
X103284Y312206D01*
X125284D01*
X125284Y312206D01*
X126845Y312516D01*
X128168Y313400D01*
X148884Y334116D01*
X148884Y334116D01*
X149768Y335439D01*
X150078Y337000D01*
X150078Y337000D01*
Y342144D01*
X151046Y343243D01*
X151500Y343304D01*
X152033Y342017D01*
X153017Y341033D01*
X154304Y340500D01*
X155696D01*
X156983Y341033D01*
X157967Y342017D01*
X158500Y343304D01*
Y344696D01*
X157967Y345983D01*
X156983Y346967D01*
X155696Y347500D01*
X154304D01*
X153017Y346967D01*
X152033Y345983D01*
X151500Y344696D01*
X151046Y344757D01*
X150078Y345856D01*
Y355851D01*
X151578Y356472D01*
X152017Y356033D01*
X153304Y355500D01*
X154696D01*
X155983Y356033D01*
X156967Y357017D01*
X157500Y358304D01*
Y359696D01*
X156967Y360983D01*
X155983Y361967D01*
X154696Y362500D01*
X153304D01*
X152017Y361967D01*
X151578Y361528D01*
X150078Y362149D01*
Y363632D01*
X150078Y363632D01*
X149768Y365193D01*
X148884Y366516D01*
X126200Y389200D01*
X119078Y396321D01*
Y410000D01*
X119078Y410000D01*
X118768Y411561D01*
X117884Y412884D01*
X117884Y412884D01*
X107395Y423373D01*
Y426316D01*
X107084Y427877D01*
X106200Y429200D01*
X104877Y430084D01*
X103316Y430394D01*
D02*
G37*
G36*
X71696Y361500D02*
X70304D01*
X69017Y360967D01*
X68033Y359983D01*
X67500Y358696D01*
Y357304D01*
X68033Y356017D01*
X69017Y355033D01*
X70304Y354500D01*
X71696D01*
X72983Y355033D01*
X73967Y356017D01*
X74500Y357304D01*
Y358696D01*
X73967Y359983D01*
X72983Y360967D01*
X71696Y361500D01*
D02*
G37*
G36*
X33980Y359816D02*
X32588D01*
X31301Y359283D01*
X30317Y358299D01*
X29784Y357012D01*
Y355620D01*
X30317Y354333D01*
X31301Y353349D01*
X32588Y352816D01*
X33980D01*
X35266Y353349D01*
X36251Y354333D01*
X36784Y355620D01*
Y357012D01*
X36251Y358299D01*
X35266Y359283D01*
X33980Y359816D01*
D02*
G37*
G36*
X43500Y382578D02*
X43500Y382578D01*
X28500D01*
X26939Y382268D01*
X25616Y381384D01*
X25616Y381384D01*
X20432Y376200D01*
X19548Y374877D01*
X19238Y373316D01*
X19238Y373316D01*
Y356284D01*
X19548Y354723D01*
X20432Y353400D01*
X21755Y352516D01*
X23316Y352206D01*
X24877Y352516D01*
X26200Y353400D01*
X27084Y354723D01*
X27394Y356284D01*
Y371627D01*
X29700Y373932D01*
X31431Y373799D01*
X31500Y373696D01*
Y372304D01*
X32033Y371017D01*
X33017Y370033D01*
X34304Y369500D01*
X35696D01*
X36983Y370033D01*
X37967Y371017D01*
X38500Y372304D01*
Y373696D01*
X38985Y374422D01*
X41811D01*
X49206Y367027D01*
Y356284D01*
X49516Y354723D01*
X50400Y353400D01*
X51723Y352516D01*
X53284Y352206D01*
X54845Y352516D01*
X56168Y353400D01*
X57052Y354723D01*
X57362Y356284D01*
Y368716D01*
X57362Y368716D01*
X57052Y370277D01*
X56168Y371600D01*
X56168Y371600D01*
X46384Y381384D01*
X45061Y382268D01*
X44802Y382319D01*
X43500Y382578D01*
D02*
G37*
G36*
X123316Y370362D02*
X118284D01*
X116723Y370052D01*
X115400Y369168D01*
X115400Y369168D01*
X100400Y354168D01*
X99516Y352845D01*
X99206Y351284D01*
X98155Y350362D01*
X94249D01*
X94248Y350362D01*
X92688Y350052D01*
X91364Y349168D01*
X88311Y346114D01*
X74949D01*
X74464Y346839D01*
Y348232D01*
X73932Y349518D01*
X72947Y350503D01*
X71661Y351035D01*
X70268D01*
X68982Y350503D01*
X67997Y349518D01*
X67464Y348232D01*
Y346839D01*
X66980Y346114D01*
X59222D01*
X56168Y349168D01*
X54845Y350052D01*
X53284Y350362D01*
X51723Y350052D01*
X50400Y349168D01*
X49516Y347845D01*
X49205Y346284D01*
X49516Y344723D01*
X50400Y343400D01*
X54648Y339152D01*
X55972Y338268D01*
X57532Y337957D01*
X57532Y337957D01*
X85922D01*
Y292222D01*
X85922Y292222D01*
X86232Y290661D01*
X87116Y289338D01*
X100922Y275532D01*
Y249689D01*
X91595Y240362D01*
X54973D01*
X54031Y241305D01*
X54019Y241642D01*
X54470Y242987D01*
X55266Y243317D01*
X56251Y244301D01*
X56784Y245588D01*
Y246980D01*
X56251Y248267D01*
X55266Y249251D01*
X53980Y249784D01*
X52588D01*
X51301Y249251D01*
X50317Y248267D01*
X49987Y247470D01*
X48642Y247019D01*
X48305Y247031D01*
X46136Y249200D01*
X44812Y250084D01*
X43252Y250394D01*
X43252Y250394D01*
X33284D01*
X31723Y250084D01*
X30400Y249200D01*
X29516Y247877D01*
X29206Y246316D01*
X29516Y244755D01*
X30400Y243432D01*
X31723Y242548D01*
X33284Y242238D01*
X41562D01*
X50400Y233400D01*
X51723Y232516D01*
X53284Y232206D01*
X93284D01*
X93284Y232206D01*
X94845Y232516D01*
X96168Y233400D01*
X106689Y243922D01*
X139922D01*
Y240000D01*
X140232Y238439D01*
X141116Y237116D01*
X141782Y236671D01*
X142116Y234883D01*
X128311Y221078D01*
X116000D01*
X114439Y220768D01*
X113116Y219884D01*
X112232Y218561D01*
X111922Y217000D01*
X112232Y215439D01*
X113116Y214116D01*
X114439Y213232D01*
X116000Y212922D01*
X130000D01*
X130000Y212922D01*
X131561Y213232D01*
X132884Y214116D01*
X153000Y234232D01*
X157922Y229311D01*
Y215319D01*
X156696Y214500D01*
X155304D01*
X154017Y213967D01*
X153720Y213670D01*
X151967Y213983D01*
X150983Y214967D01*
X149696Y215500D01*
X148304D01*
X147017Y214967D01*
X146033Y213983D01*
X145500Y212696D01*
Y211304D01*
X146033Y210017D01*
X147017Y209033D01*
X148304Y208500D01*
X149696D01*
X150983Y209033D01*
X151280Y209330D01*
X153033Y209017D01*
X153623Y208427D01*
X153873Y207500D01*
X153623Y206573D01*
X153033Y205983D01*
X152500Y204696D01*
Y203304D01*
X153033Y202017D01*
X154017Y201033D01*
X155304Y200500D01*
X156696D01*
X157922Y199681D01*
Y139161D01*
X155339Y136578D01*
X147189D01*
X146884Y136884D01*
X145561Y137768D01*
X144000Y138078D01*
X142439Y137768D01*
X141116Y136884D01*
X140671Y136218D01*
X138883Y135884D01*
X137884Y136884D01*
X136561Y137768D01*
X135000Y138078D01*
X133439Y137768D01*
X132116Y136884D01*
X128241Y133009D01*
X127357Y131686D01*
X127047Y130125D01*
X127047Y130125D01*
Y85972D01*
X127047Y85972D01*
X127357Y84411D01*
X127422Y84314D01*
Y81985D01*
X126696Y81500D01*
X125304D01*
X124017Y80967D01*
X123033Y79983D01*
X122500Y78696D01*
Y77304D01*
X123033Y76017D01*
X124017Y75033D01*
X125304Y74500D01*
X126696D01*
X127422Y74015D01*
Y59409D01*
X125922Y58407D01*
X125696Y58500D01*
X124304D01*
X123017Y57967D01*
X122581Y57530D01*
X120672Y57318D01*
X117395Y60595D01*
Y86316D01*
X117084Y87877D01*
X116200Y89200D01*
X116200Y89200D01*
X106200Y99200D01*
X104877Y100084D01*
X103316Y100394D01*
X101755Y100084D01*
X100432Y99200D01*
X99548Y97877D01*
X99238Y96316D01*
X99548Y94755D01*
X100432Y93432D01*
X109238Y84627D01*
Y58906D01*
X109238Y58906D01*
X109548Y57345D01*
X110432Y56022D01*
X119238Y47216D01*
Y46284D01*
X119548Y44723D01*
X120432Y43400D01*
X121698Y42554D01*
X121759Y42502D01*
X122169Y40904D01*
X120432Y39168D01*
X119548Y37845D01*
X119495Y37576D01*
X108000Y26081D01*
X106500Y26696D01*
X105967Y27983D01*
X104983Y28967D01*
X103696Y29500D01*
X102304D01*
X101017Y28967D01*
X100033Y27983D01*
X99869Y27588D01*
X98114Y27221D01*
X91952Y33384D01*
X90629Y34268D01*
X89068Y34578D01*
X89068Y34578D01*
X69366D01*
X68558Y35584D01*
X69081Y36975D01*
X70355Y37503D01*
X71339Y38487D01*
X71872Y39774D01*
Y41166D01*
X71339Y42452D01*
X70355Y43437D01*
X69068Y43970D01*
X67676D01*
X66389Y43437D01*
X65405Y42452D01*
X64872Y41166D01*
Y41017D01*
X63372Y40396D01*
X59884Y43884D01*
X58561Y44768D01*
X57000Y45078D01*
X57000Y45078D01*
X53000D01*
X51439Y44768D01*
X50116Y43884D01*
X49232Y42561D01*
X48922Y41000D01*
X49232Y39439D01*
X50116Y38116D01*
X51439Y37232D01*
X53000Y36922D01*
X55311D01*
X61732Y30500D01*
X58263Y27031D01*
X57926Y27019D01*
X56581Y27470D01*
X56251Y28266D01*
X55266Y29251D01*
X53980Y29784D01*
X52588D01*
X51301Y29251D01*
X50317Y28266D01*
X49784Y26980D01*
Y25588D01*
X50317Y24301D01*
X51301Y23317D01*
X52098Y22987D01*
X52549Y21642D01*
X52537Y21305D01*
X50400Y19168D01*
X49516Y17845D01*
X49205Y16284D01*
X49516Y14723D01*
X50400Y13400D01*
X51723Y12516D01*
X53284Y12205D01*
X54845Y12516D01*
X56168Y13400D01*
X68000Y25232D01*
X69500Y24611D01*
Y24304D01*
X70033Y23017D01*
X71017Y22033D01*
X72304Y21500D01*
X73696D01*
X74983Y22033D01*
X75967Y23017D01*
X76500Y24304D01*
Y25696D01*
X76985Y26422D01*
X87379D01*
X100400Y13400D01*
X100400Y13400D01*
X101723Y12516D01*
X103284Y12206D01*
X103970D01*
X103970Y12205D01*
X105531Y12516D01*
X106854Y13400D01*
X126200Y32746D01*
X126200Y32746D01*
X127084Y34069D01*
X127137Y34337D01*
X134384Y41584D01*
X134384Y41584D01*
X135268Y42907D01*
X135578Y44468D01*
X135578Y44468D01*
Y83313D01*
X136625Y84172D01*
X138186Y84482D01*
X138328Y84577D01*
X145922D01*
Y52000D01*
X146232Y50439D01*
X147116Y49116D01*
X148439Y48232D01*
X150000Y47922D01*
X151561Y48232D01*
X152884Y49116D01*
X153768Y50439D01*
X154078Y52000D01*
Y86313D01*
X153768Y87873D01*
X152884Y89196D01*
X152884Y89196D01*
X150541Y91539D01*
X149218Y92424D01*
X147657Y92734D01*
X147657Y92734D01*
X137031D01*
X137031Y92734D01*
X136703Y92669D01*
X135259Y93749D01*
X135203Y93900D01*
Y126069D01*
X136589Y126643D01*
X139116Y124116D01*
X139116Y124116D01*
X140439Y123232D01*
X142000Y122922D01*
X142000Y122922D01*
X159306D01*
X159306Y122922D01*
X160867Y123232D01*
X162190Y124116D01*
X170384Y132310D01*
X170384Y132310D01*
X171268Y133633D01*
X171578Y135194D01*
Y233278D01*
X171578Y233278D01*
X171268Y234839D01*
X170384Y236162D01*
X170384Y236162D01*
X155662Y250884D01*
X154339Y251768D01*
X152778Y252078D01*
X152778Y252078D01*
X109078D01*
Y277222D01*
X109078Y277222D01*
X108768Y278783D01*
X107884Y280106D01*
X107884Y280106D01*
X105780Y282209D01*
X105950Y283065D01*
X106935Y284050D01*
X107468Y285336D01*
Y286728D01*
X106935Y288015D01*
X105950Y288999D01*
X104664Y289532D01*
X103272D01*
X101985Y288999D01*
X101548Y288563D01*
X99640Y288350D01*
X94078Y293911D01*
Y340346D01*
X95938Y342206D01*
X103284D01*
X104845Y342516D01*
X106168Y343400D01*
X107052Y344723D01*
X107362Y346284D01*
Y349595D01*
X119973Y362206D01*
X123316D01*
X124877Y362516D01*
X126200Y363400D01*
X127084Y364723D01*
X127395Y366284D01*
X127084Y367845D01*
X126200Y369168D01*
X124877Y370052D01*
X123316Y370362D01*
D02*
G37*
G36*
X135664Y355532D02*
X134272D01*
X132985Y354999D01*
X132001Y354015D01*
X131468Y352728D01*
Y351336D01*
X132001Y350050D01*
X132985Y349065D01*
X134272Y348532D01*
X135664D01*
X136950Y349065D01*
X137935Y350050D01*
X138468Y351336D01*
Y352728D01*
X137935Y354015D01*
X136950Y354999D01*
X135664Y355532D01*
D02*
G37*
G36*
X172866Y346822D02*
X171474D01*
X170187Y346289D01*
X169203Y345304D01*
X167983Y345967D01*
X166696Y346500D01*
X165304D01*
X164017Y345967D01*
X163033Y344983D01*
X162500Y343696D01*
Y342304D01*
X163033Y341017D01*
X164017Y340033D01*
X165304Y339500D01*
X166696D01*
X167983Y340033D01*
X168967Y341017D01*
X170187Y340355D01*
X171474Y339822D01*
X172866D01*
X174153Y340355D01*
X175137Y341339D01*
X175670Y342626D01*
Y344018D01*
X175137Y345304D01*
X174153Y346289D01*
X172866Y346822D01*
D02*
G37*
G36*
X203664Y336532D02*
X202272D01*
X200985Y335999D01*
X200001Y335015D01*
X199468Y333728D01*
Y332336D01*
X200001Y331050D01*
X200985Y330065D01*
X202272Y329532D01*
X203664D01*
X204950Y330065D01*
X205935Y331050D01*
X206468Y332336D01*
Y333728D01*
X205935Y335015D01*
X204950Y335999D01*
X203664Y336532D01*
D02*
G37*
G36*
X190664D02*
X189272D01*
X187985Y335999D01*
X187001Y335015D01*
X186468Y333728D01*
Y332336D01*
X187001Y331050D01*
X187985Y330065D01*
X189272Y329532D01*
X190664D01*
X191950Y330065D01*
X192935Y331050D01*
X193468Y332336D01*
Y333728D01*
X192935Y335015D01*
X191950Y335999D01*
X190664Y336532D01*
D02*
G37*
G36*
X47664Y334532D02*
X46272D01*
X44985Y333999D01*
X44001Y333015D01*
X43468Y331728D01*
Y330336D01*
X44001Y329050D01*
X44985Y328065D01*
X46272Y327532D01*
X47664D01*
X48950Y328065D01*
X49935Y329050D01*
X50468Y330336D01*
Y331728D01*
X49935Y333015D01*
X48950Y333999D01*
X47664Y334532D01*
D02*
G37*
G36*
X254696Y329500D02*
X253304D01*
X252017Y328967D01*
X251033Y327983D01*
X250500Y326696D01*
Y325304D01*
X251033Y324017D01*
X252017Y323033D01*
X253304Y322500D01*
X254696D01*
X255983Y323033D01*
X256967Y324017D01*
X257500Y325304D01*
Y326696D01*
X256967Y327983D01*
X255983Y328967D01*
X254696Y329500D01*
D02*
G37*
G36*
X74012Y319784D02*
X72620D01*
X71333Y319251D01*
X70349Y318267D01*
X69816Y316980D01*
Y315588D01*
X70349Y314301D01*
X71333Y313317D01*
X72620Y312784D01*
X74012D01*
X75299Y313317D01*
X76283Y314301D01*
X76816Y315588D01*
Y316980D01*
X76283Y318267D01*
X75299Y319251D01*
X74012Y319784D01*
D02*
G37*
G36*
X64012D02*
X62620D01*
X61333Y319251D01*
X60349Y318267D01*
X59816Y316980D01*
Y315588D01*
X60349Y314301D01*
X61333Y313317D01*
X62620Y312784D01*
X64012D01*
X65299Y313317D01*
X66283Y314301D01*
X66816Y315588D01*
Y316980D01*
X66283Y318267D01*
X65299Y319251D01*
X64012Y319784D01*
D02*
G37*
G36*
X54012D02*
X52620D01*
X51333Y319251D01*
X50349Y318267D01*
X49816Y316980D01*
Y315588D01*
X50349Y314301D01*
X51333Y313317D01*
X52620Y312784D01*
X54012D01*
X55299Y313317D01*
X56283Y314301D01*
X56816Y315588D01*
Y316980D01*
X56283Y318267D01*
X55299Y319251D01*
X54012Y319784D01*
D02*
G37*
G36*
X74012Y309784D02*
X72620D01*
X71333Y309251D01*
X70349Y308267D01*
X69816Y306980D01*
Y305588D01*
X70349Y304301D01*
X71333Y303317D01*
X72620Y302784D01*
X74012D01*
X75299Y303317D01*
X76283Y304301D01*
X76816Y305588D01*
Y306980D01*
X76283Y308267D01*
X75299Y309251D01*
X74012Y309784D01*
D02*
G37*
G36*
X64012D02*
X62620D01*
X61333Y309251D01*
X60349Y308267D01*
X59816Y306980D01*
Y305588D01*
X60349Y304301D01*
X61333Y303317D01*
X62620Y302784D01*
X64012D01*
X65299Y303317D01*
X66283Y304301D01*
X66816Y305588D01*
Y306980D01*
X66283Y308267D01*
X65299Y309251D01*
X64012Y309784D01*
D02*
G37*
G36*
X54012D02*
X52620D01*
X51333Y309251D01*
X50349Y308267D01*
X49816Y306980D01*
Y305588D01*
X50349Y304301D01*
X51333Y303317D01*
X52620Y302784D01*
X54012D01*
X55299Y303317D01*
X56283Y304301D01*
X56816Y305588D01*
Y306980D01*
X56283Y308267D01*
X55299Y309251D01*
X54012Y309784D01*
D02*
G37*
G36*
X44012Y309784D02*
X42620D01*
X41333Y309251D01*
X40349Y308267D01*
X39816Y306980D01*
Y305588D01*
X40349Y304301D01*
X41333Y303317D01*
X42620Y302784D01*
X44012D01*
X45299Y303317D01*
X46283Y304301D01*
X46816Y305588D01*
Y306980D01*
X46283Y308267D01*
X45299Y309251D01*
X44012Y309784D01*
D02*
G37*
G36*
X148696Y305500D02*
X147304D01*
X146017Y304967D01*
X145033Y303983D01*
X144500Y302696D01*
Y301304D01*
X145033Y300017D01*
X146017Y299033D01*
X147304Y298500D01*
X148696D01*
X149983Y299033D01*
X150967Y300017D01*
X151500Y301304D01*
Y302696D01*
X150967Y303983D01*
X149983Y304967D01*
X148696Y305500D01*
D02*
G37*
G36*
X79821Y301000D02*
X78429D01*
X77142Y300467D01*
X76158Y299483D01*
X75625Y298196D01*
Y296804D01*
X76158Y295517D01*
X77142Y294533D01*
X78429Y294000D01*
X79821D01*
X81108Y294533D01*
X82092Y295517D01*
X82625Y296804D01*
Y298196D01*
X82092Y299483D01*
X81108Y300467D01*
X79821Y301000D01*
D02*
G37*
G36*
X104696Y300500D02*
X103304D01*
X102017Y299967D01*
X101033Y298983D01*
X100500Y297696D01*
Y296304D01*
X101033Y295017D01*
X102017Y294033D01*
X103304Y293500D01*
X104696D01*
X105983Y294033D01*
X106967Y295017D01*
X107500Y296304D01*
Y297696D01*
X106967Y298983D01*
X105983Y299967D01*
X104696Y300500D01*
D02*
G37*
G36*
X215696Y298500D02*
X214304D01*
X213017Y297967D01*
X212033Y296983D01*
X211500Y295696D01*
Y294304D01*
X212033Y293017D01*
X213017Y292033D01*
X214304Y291500D01*
X215696D01*
X216983Y292033D01*
X217967Y293017D01*
X218500Y294304D01*
Y295696D01*
X217967Y296983D01*
X216983Y297967D01*
X215696Y298500D01*
D02*
G37*
G36*
X37696D02*
X36304D01*
X35017Y297967D01*
X34033Y296983D01*
X33500Y295696D01*
Y294304D01*
X34033Y293017D01*
X35017Y292033D01*
X36304Y291500D01*
X37696D01*
X38983Y292033D01*
X39967Y293017D01*
X40500Y294304D01*
Y295696D01*
X39967Y296983D01*
X38983Y297967D01*
X37696Y298500D01*
D02*
G37*
G36*
X161696Y297500D02*
X160304D01*
X159017Y296967D01*
X158033Y295983D01*
X157500Y294696D01*
Y293304D01*
X158033Y292017D01*
X159017Y291033D01*
X160304Y290500D01*
X161696D01*
X162983Y291033D01*
X163967Y292017D01*
X164500Y293304D01*
Y294696D01*
X163967Y295983D01*
X162983Y296967D01*
X161696Y297500D01*
D02*
G37*
G36*
X151696Y296500D02*
X150304D01*
X149017Y295967D01*
X148033Y294983D01*
X147500Y293696D01*
Y292304D01*
X148033Y291017D01*
X149017Y290033D01*
X150304Y289500D01*
X151696D01*
X152983Y290033D01*
X153967Y291017D01*
X154500Y292304D01*
Y293696D01*
X153967Y294983D01*
X152983Y295967D01*
X151696Y296500D01*
D02*
G37*
G36*
X253696Y299500D02*
X252304D01*
X251017Y298967D01*
X250033Y297983D01*
X249500Y296696D01*
Y295304D01*
X250033Y294017D01*
X250070Y293980D01*
X250987Y293000D01*
X250070Y292020D01*
X250033Y291983D01*
X249500Y290696D01*
Y289304D01*
X250033Y288017D01*
X251017Y287033D01*
X251551Y286812D01*
Y285188D01*
X251017Y284967D01*
X250033Y283983D01*
X249500Y282696D01*
Y281304D01*
X250033Y280017D01*
X251017Y279033D01*
X252304Y278500D01*
X253696D01*
X254983Y279033D01*
X255967Y280017D01*
X256500Y281304D01*
Y282696D01*
X255967Y283983D01*
X254983Y284967D01*
X254449Y285188D01*
Y286812D01*
X254983Y287033D01*
X255967Y288017D01*
X256500Y289304D01*
Y290696D01*
X255967Y291983D01*
X255930Y292020D01*
X255013Y293000D01*
X255930Y293980D01*
X255967Y294017D01*
X256500Y295304D01*
Y296696D01*
X255967Y297983D01*
X254983Y298967D01*
X253696Y299500D01*
D02*
G37*
G36*
X161664Y280532D02*
X160272D01*
X158985Y279999D01*
X158001Y279015D01*
X157468Y277728D01*
Y276336D01*
X158001Y275050D01*
X158985Y274065D01*
X160272Y273532D01*
X161664D01*
X162950Y274065D01*
X163935Y275050D01*
X164468Y276336D01*
Y277728D01*
X163935Y279015D01*
X162950Y279999D01*
X161664Y280532D01*
D02*
G37*
G36*
X34696Y279500D02*
X33304D01*
X32017Y278967D01*
X31033Y277983D01*
X30500Y276696D01*
Y275304D01*
X31033Y274017D01*
X32017Y273033D01*
X33304Y272500D01*
X34696D01*
X35983Y273033D01*
X36165Y273216D01*
X37001Y273050D01*
X37985Y272065D01*
X39272Y271532D01*
X40664D01*
X41950Y272065D01*
X42935Y273050D01*
X43468Y274336D01*
Y275728D01*
X42935Y277015D01*
X41950Y277999D01*
X40664Y278532D01*
X39272D01*
X37985Y277999D01*
X37802Y277817D01*
X36967Y277983D01*
X35983Y278967D01*
X34696Y279500D01*
D02*
G37*
G36*
X237018Y289238D02*
X236877D01*
X235121Y288889D01*
X233633Y287894D01*
X225756Y280018D01*
X224761Y278529D01*
X224412Y276773D01*
Y274196D01*
Y89900D01*
X220599Y86088D01*
X196500D01*
X194744Y85739D01*
X193256Y84744D01*
X192261Y83256D01*
X192062Y82252D01*
X191404Y81595D01*
X190609Y80405D01*
X190329Y79000D01*
Y73783D01*
Y63189D01*
X188405Y61264D01*
X187609Y60073D01*
X187330Y58668D01*
Y13217D01*
X187609Y11812D01*
X188405Y10621D01*
X191969Y7057D01*
X192404Y6405D01*
X193595Y5609D01*
X195000Y5329D01*
X196405Y5609D01*
X197595Y6405D01*
X198391Y7595D01*
X198671Y9000D01*
Y9216D01*
X198391Y10621D01*
X197595Y11812D01*
X194671Y14737D01*
Y39130D01*
X196171Y39481D01*
X198300Y36295D01*
X201295Y33300D01*
X204816Y30947D01*
X208729Y29326D01*
X212882Y28500D01*
X217118D01*
X221271Y29326D01*
X225184Y30947D01*
X228705Y33300D01*
X231700Y36295D01*
X234053Y39816D01*
X235674Y43729D01*
X236500Y47882D01*
Y52118D01*
X235674Y56271D01*
X234053Y60184D01*
X231700Y63705D01*
X228705Y66700D01*
X225184Y69053D01*
X221271Y70674D01*
X217118Y71500D01*
X212882D01*
X208729Y70674D01*
X204816Y69053D01*
X201295Y66700D01*
X199170Y64576D01*
X197670Y65197D01*
Y72263D01*
X198473Y73066D01*
X199269Y74257D01*
X199278Y74304D01*
X201886Y76912D01*
X222500D01*
X224256Y77261D01*
X225744Y78256D01*
X232244Y84756D01*
X233239Y86244D01*
X233588Y88000D01*
Y262810D01*
X235088Y263432D01*
X235090Y263429D01*
X236377Y262896D01*
X237769D01*
X239056Y263429D01*
X240040Y264414D01*
X240573Y265700D01*
Y267093D01*
X240040Y268379D01*
X239184Y269235D01*
X239967Y270017D01*
X240500Y271304D01*
Y272696D01*
X239967Y273983D01*
X239709Y274240D01*
X239822Y276120D01*
X240328Y276458D01*
X241323Y277946D01*
X241672Y279702D01*
X241606Y280033D01*
Y284650D01*
X241257Y286406D01*
X240262Y287894D01*
X238774Y288889D01*
X237018Y289238D01*
D02*
G37*
G36*
X161664Y265532D02*
X160272D01*
X158985Y264999D01*
X158001Y264015D01*
X157468Y262728D01*
Y261336D01*
X158001Y260050D01*
X158985Y259065D01*
X160272Y258532D01*
X161664D01*
X162950Y259065D01*
X163935Y260050D01*
X164468Y261336D01*
Y262728D01*
X163935Y264015D01*
X162950Y264999D01*
X161664Y265532D01*
D02*
G37*
G36*
X91696Y264500D02*
X90304D01*
X89017Y263967D01*
X88033Y262983D01*
X87500Y261696D01*
Y260304D01*
X88033Y259017D01*
X89017Y258033D01*
X90304Y257500D01*
X91696D01*
X92983Y258033D01*
X93967Y259017D01*
X94500Y260304D01*
Y261696D01*
X93967Y262983D01*
X92983Y263967D01*
X91696Y264500D01*
D02*
G37*
G36*
X262696Y260500D02*
X261304D01*
X260017Y259967D01*
X259033Y258983D01*
X258500Y257696D01*
Y256304D01*
X259033Y255017D01*
X260017Y254033D01*
X261304Y253500D01*
X262696D01*
X263983Y254033D01*
X264967Y255017D01*
X265500Y256304D01*
Y257696D01*
X264967Y258983D01*
X263983Y259967D01*
X262696Y260500D01*
D02*
G37*
G36*
X65696Y266500D02*
X64304D01*
X63017Y265967D01*
X62033Y264983D01*
X61500Y263696D01*
Y262304D01*
X62033Y261017D01*
X61554Y259375D01*
X61287Y259265D01*
X60302Y258281D01*
X59770Y256994D01*
Y255602D01*
X60302Y254315D01*
X61287Y253331D01*
X62573Y252798D01*
X63966D01*
X65252Y253331D01*
X66237Y254315D01*
X66770Y255602D01*
Y256994D01*
X66237Y258281D01*
X66716Y259923D01*
X66983Y260033D01*
X67967Y261017D01*
X68500Y262304D01*
Y263696D01*
X67967Y264983D01*
X66983Y265967D01*
X65696Y266500D01*
D02*
G37*
G36*
X189496Y252728D02*
X188104D01*
X186817Y252195D01*
X185833Y251211D01*
X185300Y249924D01*
Y248532D01*
X185833Y247245D01*
X186817Y246261D01*
X188104Y245728D01*
X189496D01*
X190783Y246261D01*
X191767Y247245D01*
X192300Y248532D01*
Y249924D01*
X191767Y251211D01*
X190783Y252195D01*
X189496Y252728D01*
D02*
G37*
G36*
X63980Y249816D02*
X62588D01*
X61301Y249283D01*
X60317Y248299D01*
X59784Y247012D01*
Y245620D01*
X60317Y244333D01*
X61301Y243349D01*
X62588Y242816D01*
X63980D01*
X65266Y243349D01*
X66251Y244333D01*
X66784Y245620D01*
Y247012D01*
X66251Y248299D01*
X65266Y249283D01*
X63980Y249816D01*
D02*
G37*
G36*
X23980D02*
X22588D01*
X21301Y249283D01*
X20317Y248299D01*
X19784Y247012D01*
Y245620D01*
X20317Y244333D01*
X21301Y243349D01*
X22588Y242816D01*
X23980D01*
X25266Y243349D01*
X26251Y244333D01*
X26784Y245620D01*
Y247012D01*
X26251Y248299D01*
X25266Y249283D01*
X23980Y249816D01*
D02*
G37*
G36*
X262696Y248500D02*
X261304D01*
X260017Y247967D01*
X259033Y246983D01*
X258500Y245696D01*
Y244304D01*
X259033Y243017D01*
X260017Y242033D01*
X261304Y241500D01*
X262696D01*
X263983Y242033D01*
X264967Y243017D01*
X265500Y244304D01*
Y245696D01*
X264967Y246983D01*
X263983Y247967D01*
X262696Y248500D01*
D02*
G37*
G36*
X124696Y240500D02*
X123304D01*
X122017Y239967D01*
X121033Y238983D01*
X120500Y237696D01*
Y236304D01*
X121033Y235017D01*
X122017Y234033D01*
X123304Y233500D01*
X124696D01*
X125983Y234033D01*
X126967Y235017D01*
X127500Y236304D01*
Y237696D01*
X126967Y238983D01*
X125983Y239967D01*
X124696Y240500D01*
D02*
G37*
G36*
X196696Y237500D02*
X195304D01*
X194017Y236967D01*
X193033Y235983D01*
X192500Y234696D01*
Y233304D01*
X193033Y232017D01*
X194017Y231033D01*
X195304Y230500D01*
X196696D01*
X197983Y231033D01*
X198967Y232017D01*
X199500Y233304D01*
Y234696D01*
X198967Y235983D01*
X197983Y236967D01*
X196696Y237500D01*
D02*
G37*
G36*
X28071Y233250D02*
X26679D01*
X25392Y232717D01*
X24408Y231733D01*
X23875Y230446D01*
Y229054D01*
X24408Y227767D01*
X25392Y226783D01*
X26679Y226250D01*
X28071D01*
X29358Y226783D01*
X30342Y227767D01*
X30875Y229054D01*
Y230446D01*
X30342Y231733D01*
X29358Y232717D01*
X28071Y233250D01*
D02*
G37*
G36*
X59696Y228500D02*
X58304D01*
X57017Y227967D01*
X56033Y226983D01*
X55756Y226315D01*
X54198Y225860D01*
X54074Y225875D01*
X53950Y225999D01*
X52664Y226532D01*
X51272D01*
X49985Y225999D01*
X49907Y225921D01*
X49845Y225911D01*
X48225Y226360D01*
X47967Y226983D01*
X46983Y227967D01*
X45696Y228500D01*
X44304D01*
X43017Y227967D01*
X42033Y226983D01*
X41500Y225696D01*
Y224304D01*
X42033Y223017D01*
X43017Y222033D01*
X44304Y221500D01*
X45696D01*
X46983Y222033D01*
X47061Y222111D01*
X47122Y222121D01*
X48743Y221672D01*
X49001Y221050D01*
X49985Y220065D01*
X51272Y219532D01*
X52664D01*
X53950Y220065D01*
X54935Y221050D01*
X55212Y221717D01*
X56770Y222172D01*
X56894Y222157D01*
X57017Y222033D01*
X58304Y221500D01*
X59696D01*
X60983Y222033D01*
X61967Y223017D01*
X62500Y224304D01*
Y225696D01*
X61967Y226983D01*
X60983Y227967D01*
X59696Y228500D01*
D02*
G37*
G36*
X244696Y236500D02*
X243304D01*
X242017Y235967D01*
X241033Y234983D01*
X240500Y233696D01*
Y232304D01*
X241033Y231017D01*
X241550Y230500D01*
X241033Y229983D01*
X240500Y228696D01*
Y227304D01*
X241033Y226017D01*
X242017Y225033D01*
X243304Y224500D01*
X244696D01*
X245983Y225033D01*
X246967Y226017D01*
X247500Y227304D01*
Y228696D01*
X246967Y229983D01*
X246450Y230500D01*
X246967Y231017D01*
X247500Y232304D01*
Y233696D01*
X246967Y234983D01*
X245983Y235967D01*
X244696Y236500D01*
D02*
G37*
G36*
X195664Y228532D02*
X194272D01*
X192985Y227999D01*
X192001Y227015D01*
X191468Y225728D01*
Y224336D01*
X192001Y223050D01*
X192985Y222065D01*
X194272Y221532D01*
X195664D01*
X196950Y222065D01*
X197935Y223050D01*
X198468Y224336D01*
Y225728D01*
X197935Y227015D01*
X196950Y227999D01*
X195664Y228532D01*
D02*
G37*
G36*
X82664Y223532D02*
X81272D01*
X79985Y222999D01*
X79001Y222015D01*
X78468Y220728D01*
Y219336D01*
X79001Y218050D01*
X79985Y217065D01*
X81272Y216532D01*
X82664D01*
X83950Y217065D01*
X84935Y218050D01*
X85468Y219336D01*
Y220728D01*
X84935Y222015D01*
X83950Y222999D01*
X82664Y223532D01*
D02*
G37*
G36*
X33980Y219816D02*
X32588D01*
X31301Y219283D01*
X30317Y218299D01*
X29784Y217012D01*
Y215620D01*
X30317Y214333D01*
X31301Y213349D01*
X32588Y212816D01*
X33980D01*
X35266Y213349D01*
X36251Y214333D01*
X36784Y215620D01*
Y217012D01*
X36251Y218299D01*
X35266Y219283D01*
X33980Y219816D01*
D02*
G37*
G36*
X23980D02*
X22588D01*
X21301Y219283D01*
X20317Y218299D01*
X19784Y217012D01*
Y215620D01*
X20317Y214333D01*
X21301Y213349D01*
X22588Y212816D01*
X23980D01*
X25266Y213349D01*
X26251Y214333D01*
X26784Y215620D01*
Y217012D01*
X26251Y218299D01*
X25266Y219283D01*
X23980Y219816D01*
D02*
G37*
G36*
X64893Y218855D02*
X63501D01*
X62215Y218322D01*
X61230Y217337D01*
X60697Y216051D01*
Y214658D01*
X61230Y213372D01*
X62215Y212387D01*
X63501Y211854D01*
X64893D01*
X66180Y212387D01*
X67164Y213372D01*
X67697Y214658D01*
Y216051D01*
X67164Y217337D01*
X66180Y218322D01*
X64893Y218855D01*
D02*
G37*
G36*
X209696Y223000D02*
X208304D01*
X207017Y222467D01*
X206033Y221483D01*
X205500Y220196D01*
Y218804D01*
X206033Y217517D01*
X207017Y216533D01*
X208304Y216000D01*
X209500Y215196D01*
Y213804D01*
X210033Y212517D01*
X211017Y211533D01*
X212304Y211000D01*
X213696D01*
X214983Y211533D01*
X215967Y212517D01*
X216500Y213804D01*
Y215196D01*
X215967Y216483D01*
X214983Y217467D01*
X213696Y218000D01*
X212500Y218804D01*
Y220196D01*
X211967Y221483D01*
X210983Y222467D01*
X209696Y223000D01*
D02*
G37*
G36*
X200664Y217532D02*
X199272D01*
X197985Y216999D01*
X197001Y216015D01*
X196468Y214728D01*
Y213336D01*
X197001Y212050D01*
X197985Y211065D01*
X199272Y210532D01*
X200664D01*
X201950Y211065D01*
X202935Y212050D01*
X203468Y213336D01*
Y214728D01*
X202935Y216015D01*
X201950Y216999D01*
X200664Y217532D01*
D02*
G37*
G36*
X190696Y217500D02*
X189304D01*
X188017Y216967D01*
X187033Y215983D01*
X186500Y214696D01*
Y213304D01*
X187033Y212017D01*
X188017Y211033D01*
X189304Y210500D01*
X190696D01*
X191983Y211033D01*
X192967Y212017D01*
X193500Y213304D01*
Y214696D01*
X192967Y215983D01*
X191983Y216967D01*
X190696Y217500D01*
D02*
G37*
G36*
X242696Y220000D02*
X241304D01*
X240017Y219467D01*
X239033Y218483D01*
X238500Y217196D01*
Y215804D01*
X239033Y214517D01*
X239800Y213750D01*
X239033Y212983D01*
X238500Y211696D01*
Y210304D01*
X239033Y209017D01*
X240017Y208033D01*
X241304Y207500D01*
X242696D01*
X243983Y208033D01*
X244967Y209017D01*
X245500Y210304D01*
Y211696D01*
X244967Y212983D01*
X244200Y213750D01*
X244967Y214517D01*
X245500Y215804D01*
Y217196D01*
X244967Y218483D01*
X243983Y219467D01*
X242696Y220000D01*
D02*
G37*
G36*
X44942Y210697D02*
X43549D01*
X42263Y210164D01*
X41278Y209180D01*
X40746Y207893D01*
Y206501D01*
X41278Y205215D01*
X42263Y204230D01*
X43549Y203697D01*
X44942D01*
X46228Y204230D01*
X47213Y205215D01*
X47745Y206501D01*
Y207893D01*
X47213Y209180D01*
X46228Y210164D01*
X44942Y210697D01*
D02*
G37*
G36*
X177696Y210500D02*
X176304D01*
X175017Y209967D01*
X174033Y208983D01*
X173500Y207696D01*
Y206304D01*
X174033Y205017D01*
X175017Y204033D01*
X176304Y203500D01*
X177696D01*
X178983Y204033D01*
X179967Y205017D01*
X180500Y206304D01*
Y207696D01*
X179967Y208983D01*
X178983Y209967D01*
X177696Y210500D01*
D02*
G37*
G36*
X73051Y208903D02*
X71658D01*
X70372Y208370D01*
X69387Y207385D01*
X68854Y206099D01*
Y204707D01*
X69387Y203420D01*
X70372Y202436D01*
X71658Y201903D01*
X73051D01*
X74337Y202436D01*
X75322Y203420D01*
X75855Y204707D01*
Y206099D01*
X75322Y207385D01*
X74337Y208370D01*
X73051Y208903D01*
D02*
G37*
G36*
X54942Y210697D02*
X53549D01*
X52263Y210164D01*
X51278Y209180D01*
X50746Y207893D01*
Y206501D01*
X51278Y205215D01*
X52263Y204230D01*
X53549Y203697D01*
X54942D01*
X56228Y204230D01*
X57213Y205215D01*
X57354Y205557D01*
X58854Y205259D01*
Y204707D01*
X59387Y203420D01*
X60372Y202436D01*
X61658Y201903D01*
X63051D01*
X64337Y202436D01*
X65322Y203420D01*
X65855Y204707D01*
Y206099D01*
X65322Y207385D01*
X64337Y208370D01*
X63051Y208903D01*
X61658D01*
X60372Y208370D01*
X59387Y207385D01*
X59246Y207043D01*
X57745Y207341D01*
Y207893D01*
X57213Y209180D01*
X56228Y210164D01*
X54942Y210697D01*
D02*
G37*
G36*
X190664Y208532D02*
X189272D01*
X187985Y207999D01*
X187001Y207015D01*
X186468Y205728D01*
Y204336D01*
X187001Y203050D01*
X187985Y202065D01*
X189272Y201532D01*
X190664D01*
X191950Y202065D01*
X192935Y203050D01*
X193468Y204336D01*
Y205728D01*
X192935Y207015D01*
X191950Y207999D01*
X190664Y208532D01*
D02*
G37*
G36*
X124696Y204500D02*
X123304D01*
X122017Y203967D01*
X121033Y202983D01*
X120500Y201696D01*
Y200304D01*
X121033Y199017D01*
X122017Y198033D01*
X123304Y197500D01*
X124696D01*
X125983Y198033D01*
X126967Y199017D01*
X127500Y200304D01*
Y201696D01*
X126967Y202983D01*
X125983Y203967D01*
X124696Y204500D01*
D02*
G37*
G36*
X53099Y200746D02*
X51707D01*
X50420Y200213D01*
X49436Y199228D01*
X48903Y197942D01*
Y196549D01*
X49436Y195263D01*
X50420Y194278D01*
X51707Y193745D01*
X53099D01*
X54385Y194278D01*
X55370Y195263D01*
X55903Y196549D01*
Y197942D01*
X55370Y199228D01*
X54385Y200213D01*
X53099Y200746D01*
D02*
G37*
G36*
X200664Y208532D02*
X199272D01*
X197985Y207999D01*
X197001Y207015D01*
X196468Y205728D01*
Y204336D01*
X197001Y203050D01*
X197985Y202065D01*
X198519Y201844D01*
Y200220D01*
X197985Y199999D01*
X197001Y199015D01*
X196468Y197728D01*
Y196336D01*
X197001Y195050D01*
X197985Y194065D01*
X199272Y193532D01*
X200664D01*
X201950Y194065D01*
X202935Y195050D01*
X203468Y196336D01*
Y197728D01*
X202935Y199015D01*
X201950Y199999D01*
X201417Y200220D01*
Y201844D01*
X201950Y202065D01*
X202935Y203050D01*
X203468Y204336D01*
Y205728D01*
X202935Y207015D01*
X201950Y207999D01*
X200664Y208532D01*
D02*
G37*
G36*
X77696Y196500D02*
X76304D01*
X75017Y195967D01*
X74033Y194983D01*
X73500Y193696D01*
Y192304D01*
X74033Y191017D01*
X75017Y190033D01*
X76304Y189500D01*
X77696D01*
X78983Y190033D01*
X79967Y191017D01*
X80500Y192304D01*
Y193696D01*
X79967Y194983D01*
X78983Y195967D01*
X77696Y196500D01*
D02*
G37*
G36*
X87696Y194500D02*
X86304D01*
X85017Y193967D01*
X84033Y192983D01*
X83500Y191696D01*
Y190304D01*
X84033Y189017D01*
X85017Y188033D01*
X86304Y187500D01*
X87696D01*
X88983Y188033D01*
X89967Y189017D01*
X90500Y190304D01*
Y191696D01*
X89967Y192983D01*
X88983Y193967D01*
X87696Y194500D01*
D02*
G37*
G36*
X67696D02*
X66304D01*
X65017Y193967D01*
X64033Y192983D01*
X63500Y191696D01*
Y190304D01*
X64033Y189017D01*
X65017Y188033D01*
X66304Y187500D01*
X67696D01*
X68983Y188033D01*
X69967Y189017D01*
X70500Y190304D01*
Y191696D01*
X69967Y192983D01*
X68983Y193967D01*
X67696Y194500D01*
D02*
G37*
G36*
X145696Y191500D02*
X144304D01*
X143017Y190967D01*
X142033Y189983D01*
X141500Y188696D01*
Y187304D01*
X142033Y186017D01*
X143017Y185033D01*
X144304Y184500D01*
X145696D01*
X146983Y185033D01*
X147967Y186017D01*
X148500Y187304D01*
Y188696D01*
X147967Y189983D01*
X146983Y190967D01*
X145696Y191500D01*
D02*
G37*
G36*
X136696Y189500D02*
X135304D01*
X134017Y188967D01*
X133033Y187983D01*
X132500Y186696D01*
Y185304D01*
X133033Y184017D01*
X134017Y183033D01*
X135304Y182500D01*
X136696D01*
X137983Y183033D01*
X138967Y184017D01*
X139500Y185304D01*
Y186696D01*
X138967Y187983D01*
X137983Y188967D01*
X136696Y189500D01*
D02*
G37*
G36*
X49946Y189000D02*
X48554D01*
X47267Y188467D01*
X46283Y187483D01*
X45750Y186196D01*
Y184804D01*
X46283Y183517D01*
X47267Y182533D01*
X48554Y182000D01*
X49946D01*
X51233Y182533D01*
X52217Y183517D01*
X52750Y184804D01*
Y186196D01*
X52217Y187483D01*
X51233Y188467D01*
X49946Y189000D01*
D02*
G37*
G36*
X214696Y188000D02*
X213304D01*
X212017Y187467D01*
X211033Y186483D01*
X210500Y185196D01*
Y183804D01*
X211033Y182517D01*
X212017Y181533D01*
X213304Y181000D01*
X214696D01*
X215983Y181533D01*
X216967Y182517D01*
X217500Y183804D01*
Y185196D01*
X216967Y186483D01*
X215983Y187467D01*
X214696Y188000D01*
D02*
G37*
G36*
X84012Y179784D02*
X82620D01*
X81334Y179251D01*
X80349Y178267D01*
X79816Y176980D01*
Y175588D01*
X80349Y174301D01*
X81334Y173317D01*
X82620Y172784D01*
X84012D01*
X85299Y173317D01*
X86283Y174301D01*
X86816Y175588D01*
Y176980D01*
X86283Y178267D01*
X85299Y179251D01*
X84012Y179784D01*
D02*
G37*
G36*
X73980D02*
X72588D01*
X71301Y179251D01*
X70317Y178267D01*
X69784Y176980D01*
Y175588D01*
X70317Y174301D01*
X71301Y173317D01*
X72588Y172784D01*
X73980D01*
X75266Y173317D01*
X76251Y174301D01*
X76784Y175588D01*
Y176980D01*
X76251Y178267D01*
X75266Y179251D01*
X73980Y179784D01*
D02*
G37*
G36*
X53696Y179500D02*
X52304D01*
X51017Y178967D01*
X50033Y177983D01*
X49500Y176696D01*
Y175304D01*
X50033Y174017D01*
X51017Y173033D01*
X52304Y172500D01*
X53696D01*
X54983Y173033D01*
X55967Y174017D01*
X56500Y175304D01*
Y176696D01*
X55967Y177983D01*
X54983Y178967D01*
X53696Y179500D01*
D02*
G37*
G36*
X114952Y179472D02*
X113559D01*
X112273Y178939D01*
X111288Y177955D01*
X110755Y176668D01*
Y175276D01*
X111288Y173989D01*
X112273Y173005D01*
X113559Y172472D01*
X114952D01*
X116238Y173005D01*
X117222Y173989D01*
X117755Y175276D01*
Y176668D01*
X117222Y177955D01*
X116238Y178939D01*
X114952Y179472D01*
D02*
G37*
G36*
X145696Y173500D02*
X144304D01*
X143017Y172967D01*
X142980Y172930D01*
X142000Y172013D01*
X141020Y172930D01*
X140983Y172967D01*
X139696Y173500D01*
X138304D01*
X137017Y172967D01*
X136033Y171983D01*
X135500Y170696D01*
Y169304D01*
X136033Y168017D01*
X137017Y167033D01*
X138304Y166500D01*
X139696D01*
X140983Y167033D01*
X141020Y167070D01*
X142000Y167987D01*
X142980Y167070D01*
X143017Y167033D01*
X144304Y166500D01*
X145696D01*
X146983Y167033D01*
X147967Y168017D01*
X148500Y169304D01*
Y170696D01*
X147967Y171983D01*
X146983Y172967D01*
X145696Y173500D01*
D02*
G37*
G36*
X213696Y175000D02*
X212304D01*
X211017Y174467D01*
X210033Y173483D01*
X209500Y172196D01*
Y170804D01*
X210033Y169517D01*
X211017Y168533D01*
X212304Y168000D01*
X213696D01*
X214983Y168533D01*
X215967Y169517D01*
X216500Y170804D01*
Y172196D01*
X215967Y173483D01*
X214983Y174467D01*
X213696Y175000D01*
D02*
G37*
G36*
X83980Y169816D02*
X82588D01*
X81301Y169283D01*
X80317Y168299D01*
X79784Y167012D01*
Y165620D01*
X80317Y164333D01*
X81301Y163349D01*
X82588Y162816D01*
X83980D01*
X85267Y163349D01*
X86251Y164333D01*
X86784Y165620D01*
Y167012D01*
X86251Y168299D01*
X85267Y169283D01*
X83980Y169816D01*
D02*
G37*
G36*
X74012D02*
X72620D01*
X71333Y169283D01*
X70349Y168299D01*
X69816Y167012D01*
Y165620D01*
X70349Y164333D01*
X71333Y163349D01*
X72620Y162816D01*
X74012D01*
X75299Y163349D01*
X76283Y164333D01*
X76816Y165620D01*
Y167012D01*
X76283Y168299D01*
X75299Y169283D01*
X74012Y169816D01*
D02*
G37*
G36*
X53696Y169500D02*
X52304D01*
X51017Y168967D01*
X50033Y167983D01*
X49500Y166696D01*
Y165304D01*
X50033Y164017D01*
X51017Y163033D01*
X52304Y162500D01*
X53696D01*
X54983Y163033D01*
X55967Y164017D01*
X56500Y165304D01*
Y166696D01*
X55967Y167983D01*
X54983Y168967D01*
X53696Y169500D01*
D02*
G37*
G36*
X114502Y169058D02*
X113110D01*
X111824Y168525D01*
X110839Y167540D01*
X110306Y166254D01*
Y164861D01*
X110839Y163575D01*
X111824Y162590D01*
X113110Y162057D01*
X114502D01*
X115789Y162590D01*
X116773Y163575D01*
X117306Y164861D01*
Y166254D01*
X116773Y167540D01*
X115789Y168525D01*
X114502Y169058D01*
D02*
G37*
G36*
X242696Y195000D02*
X241304D01*
X240017Y194467D01*
X239033Y193483D01*
X238500Y192196D01*
Y190804D01*
X239033Y189517D01*
X239800Y188750D01*
X239033Y187983D01*
X238500Y186696D01*
Y185304D01*
X239033Y184017D01*
X239591Y183460D01*
X239852Y182492D01*
X239577Y181591D01*
X239001Y181015D01*
X238468Y179728D01*
Y178336D01*
X239001Y177050D01*
X239070Y176980D01*
X239956Y176032D01*
X239070Y175020D01*
X239033Y174983D01*
X238500Y173696D01*
Y172304D01*
X239033Y171017D01*
X239320Y170730D01*
X239861Y169750D01*
X239320Y168770D01*
X239033Y168483D01*
X238500Y167196D01*
Y165804D01*
X239033Y164517D01*
X239800Y163750D01*
X239033Y162983D01*
X238500Y161696D01*
Y160304D01*
X239033Y159017D01*
X240017Y158033D01*
X241304Y157500D01*
X242696D01*
X243983Y158033D01*
X244967Y159017D01*
X245500Y160304D01*
Y161696D01*
X244967Y162983D01*
X244200Y163750D01*
X244967Y164517D01*
X245500Y165804D01*
Y167196D01*
X244967Y168483D01*
X244680Y168770D01*
X244139Y169750D01*
X244680Y170730D01*
X244967Y171017D01*
X245500Y172304D01*
Y173696D01*
X244967Y174983D01*
X244897Y175052D01*
X244011Y176000D01*
X244897Y177012D01*
X244935Y177050D01*
X245468Y178336D01*
Y179728D01*
X244935Y181015D01*
X244377Y181573D01*
X244116Y182540D01*
X244391Y183441D01*
X244967Y184017D01*
X245500Y185304D01*
Y186696D01*
X244967Y187983D01*
X244200Y188750D01*
X244967Y189517D01*
X245500Y190804D01*
Y192196D01*
X244967Y193483D01*
X243983Y194467D01*
X242696Y195000D01*
D02*
G37*
G36*
X66607Y162189D02*
X65215D01*
X63928Y161656D01*
X62944Y160672D01*
X62411Y159385D01*
Y157993D01*
X62944Y156706D01*
X63928Y155722D01*
X65215Y155189D01*
X66607D01*
X67894Y155722D01*
X68878Y156706D01*
X69411Y157993D01*
Y159385D01*
X68878Y160672D01*
X67894Y161656D01*
X66607Y162189D01*
D02*
G37*
G36*
X40696Y157500D02*
X39304D01*
X38017Y156967D01*
X37033Y155983D01*
X36500Y154696D01*
Y153304D01*
X37033Y152017D01*
X38017Y151033D01*
X39304Y150500D01*
X40696D01*
X41983Y151033D01*
X42967Y152017D01*
X43500Y153304D01*
Y154696D01*
X42967Y155983D01*
X41983Y156967D01*
X40696Y157500D01*
D02*
G37*
G36*
X239664Y156532D02*
X238272D01*
X236985Y155999D01*
X236001Y155015D01*
X235468Y153728D01*
Y152336D01*
X236001Y151050D01*
X236985Y150065D01*
X238272Y149532D01*
X239664D01*
X240950Y150065D01*
X241935Y151050D01*
X242468Y152336D01*
Y153728D01*
X241935Y155015D01*
X240950Y155999D01*
X239664Y156532D01*
D02*
G37*
G36*
X198664Y163532D02*
X197272D01*
X195985Y162999D01*
X195001Y162015D01*
X194468Y160728D01*
Y159336D01*
X195001Y158050D01*
X195985Y157065D01*
X196519Y156844D01*
Y155220D01*
X195985Y154999D01*
X195001Y154015D01*
X194468Y152728D01*
Y151336D01*
X195001Y150050D01*
X195985Y149065D01*
X197272Y148532D01*
X198664D01*
X199950Y149065D01*
X200935Y150050D01*
X201468Y151336D01*
Y152728D01*
X200935Y154015D01*
X199950Y154999D01*
X199417Y155220D01*
Y156844D01*
X199950Y157065D01*
X200935Y158050D01*
X201468Y159336D01*
Y160728D01*
X200935Y162015D01*
X199950Y162999D01*
X198664Y163532D01*
D02*
G37*
G36*
X73696Y155500D02*
X72304D01*
X71017Y154967D01*
X70033Y153983D01*
X69500Y152696D01*
Y151304D01*
X70033Y150017D01*
X71017Y149033D01*
X72304Y148500D01*
X73696D01*
X74983Y149033D01*
X75967Y150017D01*
X76500Y151304D01*
Y152696D01*
X75967Y153983D01*
X74983Y154967D01*
X73696Y155500D01*
D02*
G37*
G36*
X84696Y154500D02*
X83304D01*
X82017Y153967D01*
X81033Y152983D01*
X80500Y151696D01*
Y150304D01*
X81033Y149017D01*
X82017Y148033D01*
X83304Y147500D01*
X84696D01*
X85983Y148033D01*
X86967Y149017D01*
X87500Y150304D01*
Y151696D01*
X86967Y152983D01*
X85983Y153967D01*
X84696Y154500D01*
D02*
G37*
G36*
X151234Y153736D02*
X149841D01*
X148555Y153203D01*
X147570Y152218D01*
X147038Y150932D01*
Y149539D01*
X147570Y148253D01*
X148555Y147268D01*
X149841Y146735D01*
X151234D01*
X152520Y147268D01*
X153505Y148253D01*
X154038Y149539D01*
Y150932D01*
X153505Y152218D01*
X152520Y153203D01*
X151234Y153736D01*
D02*
G37*
G36*
X126696Y155500D02*
X125304D01*
X124017Y154967D01*
X123033Y153983D01*
X122500Y152696D01*
Y151304D01*
X123033Y150017D01*
X124017Y149033D01*
X125304Y148500D01*
X126500D01*
Y147304D01*
X127033Y146017D01*
X128017Y145033D01*
X129304Y144500D01*
X130696D01*
X131983Y145033D01*
X132967Y146017D01*
X133500Y147304D01*
Y148696D01*
X132967Y149983D01*
X131983Y150967D01*
X130696Y151500D01*
X129500D01*
Y152696D01*
X128967Y153983D01*
X127983Y154967D01*
X126696Y155500D01*
D02*
G37*
G36*
X212696Y157000D02*
X211304D01*
X210017Y156467D01*
X209033Y155483D01*
X208500Y154196D01*
Y152804D01*
X209033Y151517D01*
X209050Y151500D01*
X208429Y150000D01*
X208304D01*
X207017Y149467D01*
X206033Y148483D01*
X205500Y147196D01*
Y145804D01*
X206033Y144517D01*
X207017Y143533D01*
X208304Y143000D01*
X209696D01*
X210983Y143533D01*
X211967Y144517D01*
X212500Y145804D01*
Y147196D01*
X211967Y148483D01*
X211950Y148500D01*
X212571Y150000D01*
X212696D01*
X213983Y150533D01*
X214967Y151517D01*
X215500Y152804D01*
Y154196D01*
X214967Y155483D01*
X213983Y156467D01*
X212696Y157000D01*
D02*
G37*
G36*
X104012Y149816D02*
X102620D01*
X101334Y149283D01*
X100349Y148299D01*
X99816Y147012D01*
Y145620D01*
X100349Y144333D01*
X101334Y143349D01*
X102620Y142816D01*
X104012D01*
X105299Y143349D01*
X106283Y144333D01*
X106816Y145620D01*
Y147012D01*
X106283Y148299D01*
X105299Y149283D01*
X104012Y149816D01*
D02*
G37*
G36*
X140696Y149250D02*
X139304D01*
X138017Y148717D01*
X137033Y147733D01*
X136500Y146446D01*
Y145054D01*
X137033Y143767D01*
X138017Y142783D01*
X139304Y142250D01*
X140696D01*
X141983Y142783D01*
X142967Y143767D01*
X143500Y145054D01*
Y146446D01*
X142967Y147733D01*
X141983Y148717D01*
X140696Y149250D01*
D02*
G37*
G36*
X207696Y141500D02*
X206304D01*
X205017Y140967D01*
X204033Y139983D01*
X203500Y138696D01*
Y137304D01*
X204033Y136017D01*
X205017Y135033D01*
X206304Y134500D01*
X207696D01*
X208983Y135033D01*
X209967Y136017D01*
X210500Y137304D01*
Y138696D01*
X209967Y139983D01*
X208983Y140967D01*
X207696Y141500D01*
D02*
G37*
G36*
X113980Y139816D02*
X112588D01*
X111301Y139283D01*
X110317Y138299D01*
X109784Y137012D01*
Y135620D01*
X110317Y134333D01*
X111301Y133349D01*
X112588Y132816D01*
X113980D01*
X115267Y133349D01*
X116251Y134333D01*
X116784Y135620D01*
Y137012D01*
X116251Y138299D01*
X115267Y139283D01*
X113980Y139816D01*
D02*
G37*
G36*
X73980Y139784D02*
X72588D01*
X71301Y139251D01*
X70317Y138266D01*
X69784Y136980D01*
Y135588D01*
X70317Y134301D01*
X71301Y133317D01*
X72588Y132784D01*
X73980D01*
X75266Y133317D01*
X76251Y134301D01*
X76784Y135588D01*
Y136980D01*
X76251Y138266D01*
X75266Y139251D01*
X73980Y139784D01*
D02*
G37*
G36*
X73696Y129500D02*
X72304D01*
X71017Y128967D01*
X70033Y127983D01*
X69500Y126696D01*
Y125304D01*
X70033Y124017D01*
X71017Y123033D01*
X72304Y122500D01*
X73696D01*
X74983Y123033D01*
X75967Y124017D01*
X76500Y125304D01*
Y126696D01*
X75967Y127983D01*
X74983Y128967D01*
X73696Y129500D01*
D02*
G37*
G36*
X216232Y128964D02*
X214840D01*
X213553Y128431D01*
X212569Y127447D01*
X212036Y126160D01*
Y124768D01*
X212569Y123482D01*
X213553Y122497D01*
X214840Y121964D01*
X216232D01*
X217518Y122497D01*
X218503Y123482D01*
X219036Y124768D01*
Y126160D01*
X218503Y127447D01*
X217518Y128431D01*
X216232Y128964D01*
D02*
G37*
G36*
X260696Y120500D02*
X259304D01*
X258017Y119967D01*
X257033Y118983D01*
X256500Y117696D01*
Y116304D01*
X257033Y115017D01*
X258017Y114033D01*
X259304Y113500D01*
X260696D01*
X261983Y114033D01*
X262967Y115017D01*
X263500Y116304D01*
Y117696D01*
X262967Y118983D01*
X261983Y119967D01*
X260696Y120500D01*
D02*
G37*
G36*
X98434Y129705D02*
X96874Y129395D01*
X95551Y128511D01*
X94667Y127188D01*
X94356Y125627D01*
Y120124D01*
X87311Y113078D01*
X75149D01*
X74528Y114578D01*
X74967Y115017D01*
X75500Y116304D01*
Y117696D01*
X74967Y118983D01*
X73983Y119967D01*
X72696Y120500D01*
X71304D01*
X70017Y119967D01*
X69033Y118983D01*
X68500Y117696D01*
Y116304D01*
X69033Y115017D01*
X69472Y114578D01*
X68851Y113078D01*
X63689D01*
X59078Y117689D01*
Y125000D01*
X58768Y126561D01*
X57884Y127884D01*
X56561Y128768D01*
X55000Y129078D01*
X53439Y128768D01*
X52116Y127884D01*
X51232Y126561D01*
X50922Y125000D01*
Y116000D01*
X50922Y116000D01*
X51232Y114439D01*
X52116Y113116D01*
X59116Y106116D01*
X60439Y105232D01*
X62000Y104922D01*
X89000D01*
X89000Y104922D01*
X90561Y105232D01*
X91884Y106116D01*
X101318Y115550D01*
X101318Y115551D01*
X102202Y116874D01*
X102513Y118434D01*
X102513Y118434D01*
Y125627D01*
X102202Y127188D01*
X101318Y128511D01*
X99995Y129395D01*
X98434Y129705D01*
D02*
G37*
G36*
X157696Y118500D02*
X156304D01*
X155017Y117967D01*
X154033Y116983D01*
X153500Y115696D01*
Y114304D01*
X154033Y113017D01*
X155017Y112033D01*
X156304Y111500D01*
X157696D01*
X158983Y112033D01*
X159967Y113017D01*
X160500Y114304D01*
Y115696D01*
X159967Y116983D01*
X158983Y117967D01*
X157696Y118500D01*
D02*
G37*
G36*
X183696Y116500D02*
X182304D01*
X181017Y115967D01*
X180033Y114983D01*
X179500Y113696D01*
Y112304D01*
X180033Y111017D01*
X181017Y110033D01*
X182304Y109500D01*
X183696D01*
X184983Y110033D01*
X185967Y111017D01*
X186500Y112304D01*
Y113696D01*
X185967Y114983D01*
X184983Y115967D01*
X183696Y116500D01*
D02*
G37*
G36*
X171696D02*
X170304D01*
X169017Y115967D01*
X168033Y114983D01*
X167500Y113696D01*
Y112304D01*
X168033Y111017D01*
X169017Y110033D01*
X170304Y109500D01*
X171696D01*
X172983Y110033D01*
X173967Y111017D01*
X174500Y112304D01*
Y113696D01*
X173967Y114983D01*
X172983Y115967D01*
X171696Y116500D01*
D02*
G37*
G36*
X46664Y111532D02*
X45272D01*
X43985Y110999D01*
X43001Y110015D01*
X42468Y108728D01*
Y107336D01*
X43001Y106050D01*
X43985Y105065D01*
X45272Y104532D01*
X46664D01*
X47950Y105065D01*
X48935Y106050D01*
X49468Y107336D01*
Y108728D01*
X48935Y110015D01*
X47950Y110999D01*
X46664Y111532D01*
D02*
G37*
G36*
X23980Y109816D02*
X22588D01*
X21301Y109283D01*
X20317Y108299D01*
X19784Y107012D01*
Y105620D01*
X20317Y104333D01*
X21301Y103349D01*
X22588Y102816D01*
X23980D01*
X25266Y103349D01*
X26251Y104333D01*
X26784Y105620D01*
Y107012D01*
X26251Y108299D01*
X25266Y109283D01*
X23980Y109816D01*
D02*
G37*
G36*
X248696Y107500D02*
X247304D01*
X246017Y106967D01*
X245033Y105983D01*
X244500Y104696D01*
Y103304D01*
X245033Y102017D01*
X246017Y101033D01*
X247304Y100500D01*
X248696D01*
X249983Y101033D01*
X250967Y102017D01*
X251500Y103304D01*
Y104696D01*
X250967Y105983D01*
X249983Y106967D01*
X248696Y107500D01*
D02*
G37*
G36*
X181696Y104500D02*
X180304D01*
X179017Y103967D01*
X178033Y102983D01*
X177500Y101696D01*
Y100304D01*
X178033Y99017D01*
X179017Y98033D01*
X180304Y97500D01*
X181696D01*
X182983Y98033D01*
X183967Y99017D01*
X184500Y100304D01*
Y101696D01*
X183967Y102983D01*
X182983Y103967D01*
X181696Y104500D01*
D02*
G37*
G36*
X150696Y103500D02*
X149304D01*
X148017Y102967D01*
X147033Y101983D01*
X146500Y100696D01*
Y99304D01*
X147033Y98017D01*
X148017Y97033D01*
X149304Y96500D01*
X150696D01*
X151983Y97033D01*
X152967Y98017D01*
X153500Y99304D01*
Y100696D01*
X152967Y101983D01*
X151983Y102967D01*
X150696Y103500D01*
D02*
G37*
G36*
X74012Y99784D02*
X72620D01*
X71334Y99251D01*
X70349Y98266D01*
X69816Y96980D01*
Y95588D01*
X70349Y94301D01*
X71334Y93317D01*
X72620Y92784D01*
X74012D01*
X75299Y93317D01*
X76283Y94301D01*
X76816Y95588D01*
Y96980D01*
X76283Y98266D01*
X75299Y99251D01*
X74012Y99784D01*
D02*
G37*
G36*
X64012D02*
X62620D01*
X61333Y99251D01*
X60349Y98266D01*
X59816Y96980D01*
Y95588D01*
X60349Y94301D01*
X61333Y93317D01*
X62620Y92784D01*
X64012D01*
X65299Y93317D01*
X66283Y94301D01*
X66816Y95588D01*
Y96980D01*
X66283Y98266D01*
X65299Y99251D01*
X64012Y99784D01*
D02*
G37*
G36*
X54012D02*
X52620D01*
X51333Y99251D01*
X50349Y98266D01*
X49816Y96980D01*
Y95588D01*
X50349Y94301D01*
X51333Y93317D01*
X52620Y92784D01*
X54012D01*
X55299Y93317D01*
X56283Y94301D01*
X56816Y95588D01*
Y96980D01*
X56283Y98266D01*
X55299Y99251D01*
X54012Y99784D01*
D02*
G37*
G36*
X33980D02*
X32588D01*
X31301Y99251D01*
X30317Y98266D01*
X29784Y96980D01*
Y95588D01*
X30317Y94301D01*
X31301Y93317D01*
X32588Y92784D01*
X33980D01*
X35266Y93317D01*
X36251Y94301D01*
X36784Y95588D01*
Y96980D01*
X36251Y98266D01*
X35266Y99251D01*
X33980Y99784D01*
D02*
G37*
G36*
X74012Y89784D02*
X72620D01*
X71334Y89251D01*
X70349Y88266D01*
X69816Y86980D01*
Y85588D01*
X70349Y84301D01*
X71334Y83317D01*
X72620Y82784D01*
X74012D01*
X75299Y83317D01*
X76283Y84301D01*
X76816Y85588D01*
Y86980D01*
X76283Y88266D01*
X75299Y89251D01*
X74012Y89784D01*
D02*
G37*
G36*
X64012D02*
X62620D01*
X61333Y89251D01*
X60349Y88266D01*
X59816Y86980D01*
Y85588D01*
X60349Y84301D01*
X61333Y83317D01*
X62620Y82784D01*
X64012D01*
X65299Y83317D01*
X66283Y84301D01*
X66816Y85588D01*
Y86980D01*
X66283Y88266D01*
X65299Y89251D01*
X64012Y89784D01*
D02*
G37*
G36*
X54012D02*
X52620D01*
X51333Y89251D01*
X50349Y88266D01*
X49816Y86980D01*
Y85588D01*
X50349Y84301D01*
X51333Y83317D01*
X52620Y82784D01*
X54012D01*
X55299Y83317D01*
X56283Y84301D01*
X56816Y85588D01*
Y86980D01*
X56283Y88266D01*
X55299Y89251D01*
X54012Y89784D01*
D02*
G37*
G36*
X44012D02*
X42620D01*
X41333Y89251D01*
X40349Y88266D01*
X39816Y86980D01*
Y85588D01*
X40349Y84301D01*
X41333Y83317D01*
X42620Y82784D01*
X44012D01*
X45299Y83317D01*
X46283Y84301D01*
X46816Y85588D01*
Y86980D01*
X46283Y88266D01*
X45299Y89251D01*
X44012Y89784D01*
D02*
G37*
G36*
X69114Y80475D02*
X67722D01*
X66435Y79942D01*
X65451Y78958D01*
X64918Y77671D01*
Y76279D01*
X65451Y74992D01*
X66435Y74008D01*
X67722Y73475D01*
X69114D01*
X70401Y74008D01*
X71385Y74992D01*
X71918Y76279D01*
Y77671D01*
X71385Y78958D01*
X70401Y79942D01*
X69114Y80475D01*
D02*
G37*
G36*
X59114D02*
X57722D01*
X56435Y79942D01*
X55451Y78958D01*
X54918Y77671D01*
Y76279D01*
X55451Y74992D01*
X56435Y74008D01*
X57722Y73475D01*
X59114D01*
X60401Y74008D01*
X61385Y74992D01*
X61918Y76279D01*
Y77671D01*
X61385Y78958D01*
X60401Y79942D01*
X59114Y80475D01*
D02*
G37*
G36*
X79008Y79701D02*
X77616D01*
X76330Y79168D01*
X75345Y78183D01*
X74812Y76897D01*
Y75505D01*
X75345Y74218D01*
X76330Y73234D01*
X77616Y72701D01*
X79008D01*
X80295Y73234D01*
X81279Y74218D01*
X81812Y75505D01*
Y76897D01*
X81279Y78183D01*
X80295Y79168D01*
X79008Y79701D01*
D02*
G37*
G36*
X89188Y79623D02*
X87795D01*
X86509Y79091D01*
X85525Y78106D01*
X84992Y76820D01*
Y75427D01*
X85525Y74141D01*
X86509Y73156D01*
X87795Y72624D01*
X89188D01*
X90474Y73156D01*
X91459Y74141D01*
X91992Y75427D01*
Y76820D01*
X91459Y78106D01*
X90474Y79091D01*
X89188Y79623D01*
D02*
G37*
G36*
X230696Y78500D02*
X229304D01*
X228017Y77967D01*
X227033Y76983D01*
X226500Y75696D01*
Y74304D01*
X227033Y73017D01*
X228017Y72033D01*
X229304Y71500D01*
X230696D01*
X231983Y72033D01*
X232967Y73017D01*
X233500Y74304D01*
Y75696D01*
X232967Y76983D01*
X231983Y77967D01*
X230696Y78500D01*
D02*
G37*
G36*
X168696Y82500D02*
X167304D01*
X166017Y81967D01*
X165033Y80983D01*
X164500Y79696D01*
Y78304D01*
X165033Y77017D01*
X166017Y76033D01*
X167304Y75500D01*
X168696D01*
X169833Y74347D01*
X169753Y74153D01*
Y72761D01*
X170285Y71474D01*
X171270Y70490D01*
X172556Y69957D01*
X173949D01*
X175235Y70490D01*
X176220Y71474D01*
X176752Y72761D01*
Y74153D01*
X176220Y75440D01*
X175235Y76424D01*
X173949Y76957D01*
X172556D01*
X171420Y78110D01*
X171500Y78304D01*
Y79696D01*
X170967Y80983D01*
X169983Y81967D01*
X168696Y82500D01*
D02*
G37*
G36*
X39664Y73532D02*
X38272D01*
X36985Y72999D01*
X36001Y72015D01*
X35468Y70728D01*
Y69336D01*
X36001Y68050D01*
X36985Y67065D01*
X38272Y66532D01*
X39664D01*
X40950Y67065D01*
X41935Y68050D01*
X42468Y69336D01*
Y70728D01*
X41935Y72015D01*
X40950Y72999D01*
X39664Y73532D01*
D02*
G37*
G36*
X83936Y69381D02*
X82543D01*
X81257Y68848D01*
X80273Y67863D01*
X79740Y66577D01*
Y65185D01*
X80273Y63898D01*
X81257Y62914D01*
X82543Y62381D01*
X83936D01*
X85222Y62914D01*
X86207Y63898D01*
X86740Y65185D01*
Y66577D01*
X86207Y67863D01*
X85222Y68848D01*
X83936Y69381D01*
D02*
G37*
G36*
X161696Y65500D02*
X160304D01*
X159017Y64967D01*
X158033Y63983D01*
X157500Y62696D01*
Y61304D01*
X158033Y60017D01*
X159017Y59033D01*
X160304Y58500D01*
X161696D01*
X162983Y59033D01*
X163967Y60017D01*
X164500Y61304D01*
Y62696D01*
X163967Y63983D01*
X162983Y64967D01*
X161696Y65500D01*
D02*
G37*
G36*
X147776Y44627D02*
X146383D01*
X145097Y44094D01*
X144400Y43397D01*
X143612Y43192D01*
X142592Y43358D01*
X141950Y43999D01*
X140664Y44532D01*
X139272D01*
X137985Y43999D01*
X137001Y43015D01*
X136468Y41728D01*
Y40336D01*
X137001Y39050D01*
X137985Y38065D01*
X139272Y37532D01*
X140664D01*
X141950Y38065D01*
X142647Y38762D01*
X143436Y38968D01*
X144456Y38801D01*
X145097Y38160D01*
X146383Y37627D01*
X147776D01*
X149062Y38160D01*
X150047Y39145D01*
X150580Y40431D01*
Y41823D01*
X150047Y43110D01*
X149062Y44094D01*
X147776Y44627D01*
D02*
G37*
G36*
X78878Y49125D02*
X77486D01*
X76199Y48592D01*
X75215Y47608D01*
X74682Y46321D01*
Y44929D01*
X75215Y43642D01*
X76199Y42658D01*
X77486Y42125D01*
X78878D01*
X80164Y42658D01*
X81149Y43642D01*
X81682Y44929D01*
Y46321D01*
X81149Y47608D01*
X80164Y48592D01*
X78878Y49125D01*
D02*
G37*
G36*
X38696Y48500D02*
X37304D01*
X36017Y47967D01*
X35033Y46983D01*
X34500Y45696D01*
Y44304D01*
X35033Y43017D01*
X36017Y42033D01*
X37304Y41500D01*
X38696D01*
X39983Y42033D01*
X40967Y43017D01*
X41500Y44304D01*
Y45696D01*
X40967Y46983D01*
X39983Y47967D01*
X38696Y48500D01*
D02*
G37*
G36*
X166696Y41500D02*
X165304D01*
X164017Y40967D01*
X163033Y39983D01*
X162500Y38696D01*
Y37304D01*
X163033Y36017D01*
X164017Y35033D01*
X165304Y34500D01*
X166696D01*
X167983Y35033D01*
X168967Y36017D01*
X169500Y37304D01*
Y38696D01*
X168967Y39983D01*
X167983Y40967D01*
X166696Y41500D01*
D02*
G37*
G36*
X99680Y44208D02*
X98288D01*
X97001Y43675D01*
X96017Y42691D01*
X95484Y41405D01*
Y40012D01*
X96017Y38726D01*
X97001Y37741D01*
X98288Y37208D01*
X98398D01*
X99696Y36995D01*
X99784Y35823D01*
Y35588D01*
X100317Y34301D01*
X101301Y33317D01*
X102588Y32784D01*
X103980D01*
X105267Y33317D01*
X106251Y34301D01*
X106784Y35588D01*
Y36980D01*
X106251Y38266D01*
X105267Y39251D01*
X103980Y39784D01*
X103870D01*
X102572Y39998D01*
X102484Y41170D01*
Y41405D01*
X101951Y42691D01*
X100966Y43675D01*
X99680Y44208D01*
D02*
G37*
G36*
X173664Y33532D02*
X172272D01*
X170985Y32999D01*
X170001Y32015D01*
X169468Y30728D01*
Y29336D01*
X170001Y28050D01*
X170070Y27980D01*
X170956Y27032D01*
X170070Y26020D01*
X170033Y25983D01*
X169500Y24696D01*
Y23304D01*
X170033Y22017D01*
X171017Y21033D01*
X172304Y20500D01*
X173696D01*
X174983Y21033D01*
X175967Y22017D01*
X176500Y23304D01*
Y24696D01*
X175967Y25983D01*
X175898Y26052D01*
X175011Y27000D01*
X175898Y28012D01*
X175935Y28050D01*
X176468Y29336D01*
Y30728D01*
X175935Y32015D01*
X174950Y32999D01*
X173664Y33532D01*
D02*
G37*
G36*
X224696Y22500D02*
X223304D01*
X222017Y21967D01*
X221033Y20983D01*
X220500Y19696D01*
Y18304D01*
X221033Y17017D01*
X222017Y16033D01*
X223304Y15500D01*
X224696D01*
X225983Y16033D01*
X226967Y17017D01*
X227500Y18304D01*
Y19696D01*
X226967Y20983D01*
X225983Y21967D01*
X224696Y22500D01*
D02*
G37*
G36*
X72696Y19500D02*
X71304D01*
X70017Y18967D01*
X69033Y17983D01*
X68500Y16696D01*
Y16219D01*
X67044Y15198D01*
X66667Y15354D01*
X65275D01*
X63989Y14821D01*
X63004Y13837D01*
X62471Y12550D01*
Y11158D01*
X63004Y9872D01*
X63989Y8887D01*
X65275Y8354D01*
X66667D01*
X67954Y8887D01*
X68938Y9872D01*
X69471Y11158D01*
Y11636D01*
X70928Y12656D01*
X71304Y12500D01*
X72696D01*
X73983Y13033D01*
X74967Y14017D01*
X75500Y15304D01*
Y16696D01*
X74967Y17983D01*
X73983Y18967D01*
X72696Y19500D01*
D02*
G37*
G36*
X33980Y19784D02*
X32588D01*
X31301Y19251D01*
X30317Y18267D01*
X29784Y16980D01*
Y15588D01*
X30317Y14301D01*
X31301Y13317D01*
X32588Y12784D01*
X33980D01*
X35266Y13317D01*
X36251Y14301D01*
X36784Y15588D01*
Y16980D01*
X36251Y18267D01*
X35266Y19251D01*
X33980Y19784D01*
D02*
G37*
G36*
X23980D02*
X22588D01*
X21301Y19251D01*
X20317Y18267D01*
X19784Y16980D01*
Y15588D01*
X20317Y14301D01*
X21301Y13317D01*
X22588Y12784D01*
X23980D01*
X25266Y13317D01*
X26251Y14301D01*
X26784Y15588D01*
Y16980D01*
X26251Y18267D01*
X25266Y19251D01*
X23980Y19784D01*
D02*
G37*
G36*
X88696Y18500D02*
X87304D01*
X86017Y17967D01*
X85033Y16983D01*
X84500Y15696D01*
Y14304D01*
X85033Y13017D01*
X86017Y12033D01*
X87304Y11500D01*
X88696D01*
X89983Y12033D01*
X90967Y13017D01*
X91500Y14304D01*
Y15696D01*
X90967Y16983D01*
X89983Y17967D01*
X88696Y18500D01*
D02*
G37*
G36*
X6696Y17500D02*
X5304D01*
X4017Y16967D01*
X3033Y15983D01*
X2500Y14696D01*
Y13304D01*
X3033Y12017D01*
X4017Y11033D01*
X5304Y10500D01*
X6696D01*
X7983Y11033D01*
X8967Y12017D01*
X9500Y13304D01*
Y14696D01*
X8967Y15983D01*
X7983Y16967D01*
X6696Y17500D01*
D02*
G37*
G36*
X172696Y14684D02*
X171304D01*
X170017Y14151D01*
X169033Y13167D01*
X168500Y11880D01*
Y10488D01*
X169033Y9201D01*
X170017Y8217D01*
X171304Y7684D01*
X172696D01*
X173983Y8217D01*
X174967Y9201D01*
X175500Y10488D01*
Y11880D01*
X174967Y13167D01*
X173983Y14151D01*
X172696Y14684D01*
D02*
G37*
G36*
X233664Y18532D02*
X232272D01*
X230985Y17999D01*
X230001Y17015D01*
X229468Y15728D01*
Y14336D01*
X230001Y13050D01*
X230985Y12065D01*
X231519Y11844D01*
Y10220D01*
X230985Y9999D01*
X230001Y9015D01*
X229468Y7728D01*
Y6336D01*
X230001Y5050D01*
X230985Y4065D01*
X232272Y3532D01*
X233664D01*
X234950Y4065D01*
X235935Y5050D01*
X236468Y6336D01*
Y7728D01*
X235935Y9015D01*
X234950Y9999D01*
X234417Y10220D01*
Y11844D01*
X234950Y12065D01*
X235935Y13050D01*
X236468Y14336D01*
Y15728D01*
X235935Y17015D01*
X234950Y17999D01*
X233664Y18532D01*
D02*
G37*
G36*
X9696Y9500D02*
X8304D01*
X7017Y8967D01*
X6033Y7983D01*
X5500Y6696D01*
Y5304D01*
X6033Y4017D01*
X7017Y3033D01*
X8304Y2500D01*
X9696D01*
X10983Y3033D01*
X11967Y4017D01*
X12500Y5304D01*
Y6696D01*
X11967Y7983D01*
X10983Y8967D01*
X9696Y9500D01*
D02*
G37*
G36*
X28696Y9000D02*
X27304D01*
X26017Y8467D01*
X25033Y7483D01*
X24500Y6196D01*
Y4804D01*
X25033Y3517D01*
X26017Y2533D01*
X27304Y2000D01*
X28696D01*
X29983Y2533D01*
X30967Y3517D01*
X31500Y4804D01*
Y6196D01*
X30967Y7483D01*
X29983Y8467D01*
X28696Y9000D01*
D02*
G37*
%LPD*%
D48*
X194000Y79000D02*
X197094D01*
X197939Y78155D02*
X200000Y80217D01*
X194000Y73783D02*
Y79000D01*
Y61668D02*
Y73783D01*
X195878Y75661D02*
Y75878D01*
X194000Y73783D02*
X195878Y75661D01*
Y76094D02*
X197939Y78155D01*
X200000Y80217D02*
Y81500D01*
X197094Y79000D02*
X197939Y78155D01*
X195878Y75878D02*
Y76094D01*
X191000Y58668D02*
X194000Y61668D01*
X191000Y13217D02*
Y58668D01*
Y13217D02*
X195000Y9216D01*
Y9000D02*
Y9216D01*
X194000Y79000D02*
X196500Y81500D01*
D49*
X131125Y130125D02*
Y130125D01*
X135000Y134000D01*
X103316Y421684D02*
X115000Y410000D01*
Y394632D02*
X123316Y386316D01*
X115000Y394632D02*
Y410000D01*
X123316Y386316D02*
X146000Y363632D01*
X103316Y421684D02*
Y426316D01*
X118284Y366284D02*
X123316D01*
X103284Y351284D02*
X118284Y366284D01*
X103284Y346284D02*
Y351284D01*
X146000Y337000D02*
Y363632D01*
X125284Y316284D02*
X146000Y337000D01*
X103284Y316284D02*
X125284D01*
X103284Y16284D02*
X103970D01*
X57532Y342035D02*
X90000D01*
X152778Y248000D02*
X167500Y233278D01*
X90000Y292222D02*
Y342035D01*
X135000Y134000D02*
X142000Y127000D01*
X23316Y373316D02*
X28500Y378500D01*
X43500D01*
X53284Y356284D02*
Y368716D01*
X43500Y378500D02*
X53284Y368716D01*
X23316Y356284D02*
Y373316D01*
X53284Y346284D02*
X57532Y342035D01*
X9500Y408000D02*
X13284Y404216D01*
X8784Y319500D02*
X13284Y324000D01*
X9500Y408000D02*
Y409987D01*
X13284Y324000D02*
Y404216D01*
X8722Y319500D02*
X8784D01*
X5500Y255278D02*
X10500Y260278D01*
X3500Y287722D02*
Y314278D01*
X8722Y319500D01*
X3500Y287722D02*
X10500Y280722D01*
X18000Y315000D02*
Y319284D01*
X10500Y260278D02*
Y280722D01*
X159306Y127000D02*
X167500Y135194D01*
Y233278D01*
X89068Y30500D02*
X103284Y16284D01*
X90000Y342035D02*
X94248Y346284D01*
X105000Y248000D02*
Y277222D01*
X90000Y292222D02*
X105000Y277222D01*
X67500Y30500D02*
X89068D01*
X153000Y240000D02*
X162000Y231000D01*
X157028Y132500D02*
X162000Y137472D01*
Y231000D01*
X145500Y132500D02*
X157028D01*
X131125Y130125D02*
X133500Y132500D01*
X123316Y35630D02*
Y36284D01*
X144000Y134000D02*
X145500Y132500D01*
X103970Y16284D02*
X123316Y35630D01*
X131125Y85972D02*
Y130125D01*
X16408Y416895D02*
Y419408D01*
X23316Y426316D01*
X9500Y409987D02*
X16408Y416895D01*
X5500Y207500D02*
X7000Y206000D01*
X3500Y125100D02*
X7784Y120816D01*
X3500Y125100D02*
Y202500D01*
X23284Y136316D02*
X53252D01*
X15500Y28500D02*
Y94100D01*
X103316Y96316D02*
X113316Y86316D01*
Y58906D02*
Y86316D01*
Y58906D02*
X123316Y48906D01*
X57000Y41000D02*
X67500Y30500D01*
X53000Y41000D02*
X57000D01*
X123316Y46284D02*
Y48906D01*
X137031Y88656D02*
X147657D01*
X150000Y86313D01*
Y52000D02*
Y86313D01*
X136625Y88250D02*
X137031Y88656D01*
X53252Y136316D02*
X53284Y136284D01*
X5500Y207500D02*
Y255278D01*
X7784Y101816D02*
Y120816D01*
X13284Y26284D02*
X15500Y28500D01*
X93284Y236284D02*
X105000Y248000D01*
X53284Y16284D02*
X67500Y30500D01*
X123316Y36284D02*
X131500Y44468D01*
X116000Y217000D02*
X130000D01*
X153000Y240000D01*
X105000Y248000D02*
X144000D01*
Y240000D02*
Y248000D01*
X7784Y101816D02*
X15500Y94100D01*
X55000Y116000D02*
X62000Y109000D01*
X89000D01*
X98434Y118434D01*
Y125627D01*
X55000Y116000D02*
Y125000D01*
X3500Y202500D02*
X7000Y206000D01*
X13284Y324000D02*
X18000Y319284D01*
X7784Y120816D02*
X23284Y136316D01*
X144000Y248000D02*
X152778D01*
X94248Y346284D02*
X103284D01*
X142000Y127000D02*
X159306D01*
X131125Y85972D02*
X131500Y85597D01*
Y44468D02*
Y85597D01*
X53284Y236284D02*
X93284D01*
X33284Y246316D02*
X43252D01*
X53284Y236284D01*
D50*
X200000Y81500D02*
X222500D01*
X196500D02*
X200000D01*
X231929Y279702D02*
X236877Y284650D01*
X234506Y279702D02*
X237084D01*
X231929D02*
X234506D01*
X229000Y274196D02*
Y276773D01*
Y88000D02*
Y274196D01*
X234506Y279702D01*
X236877Y284650D02*
X237018D01*
X229000Y276773D02*
X231929Y279702D01*
X222500Y81500D02*
X229000Y88000D01*
X237018Y279768D02*
X237084Y279702D01*
X237018Y279768D02*
Y284650D01*
X150000Y409000D02*
X235000D01*
X237000Y407000D01*
X140000Y419000D02*
X150000Y409000D01*
D54*
X215000Y439000D02*
D03*
X57000Y470000D02*
D03*
X215000Y50000D02*
D03*
D55*
X195878Y75878D02*
D03*
X196500Y81500D02*
D03*
X237084Y279702D02*
D03*
X237018Y284650D02*
D03*
X181000Y419000D02*
D03*
X150000Y100000D02*
D03*
X149000Y212000D02*
D03*
X11000Y314000D02*
D03*
X18000Y315000D02*
D03*
X91000Y261000D02*
D03*
X63270Y256298D02*
D03*
X65000Y263000D02*
D03*
X6000Y14000D02*
D03*
X155000Y344000D02*
D03*
X10026Y418292D02*
D03*
X9500Y408000D02*
D03*
X130000Y437000D02*
D03*
X40000Y154000D02*
D03*
X11000Y179000D02*
D03*
X9000Y169000D02*
D03*
X132968Y415032D02*
D03*
X125968D02*
D03*
X202968Y333032D02*
D03*
X241968Y179032D02*
D03*
X238968Y153032D02*
D03*
X242000Y173000D02*
D03*
X197968Y160032D02*
D03*
Y152032D02*
D03*
X173253Y73457D02*
D03*
X232968Y15032D02*
D03*
Y7032D02*
D03*
X38968Y70032D02*
D03*
X10000Y79000D02*
D03*
X81968Y220032D02*
D03*
X51968Y223032D02*
D03*
X4968Y375032D02*
D03*
Y360032D02*
D03*
Y338032D02*
D03*
X46968Y331032D02*
D03*
X4968Y389032D02*
D03*
X16968Y449032D02*
D03*
Y455032D02*
D03*
X73968Y450032D02*
D03*
X141968Y457032D02*
D03*
X131968D02*
D03*
X254968Y425032D02*
D03*
X266968Y426032D02*
D03*
X254968Y435032D02*
D03*
X244968D02*
D03*
X266968D02*
D03*
X189569Y443988D02*
D03*
X187968Y436032D02*
D03*
X153000Y427000D02*
D03*
X152968Y436032D02*
D03*
X134968Y352032D02*
D03*
X102968Y381032D02*
D03*
X189968Y333032D02*
D03*
X160968Y277032D02*
D03*
Y262032D02*
D03*
X103968Y286032D02*
D03*
X39968Y275032D02*
D03*
X194968Y225032D02*
D03*
X189968Y205032D02*
D03*
X190000Y214000D02*
D03*
X199968Y197032D02*
D03*
Y205032D02*
D03*
Y214032D02*
D03*
X253000Y296000D02*
D03*
X237073Y266396D02*
D03*
X237000Y272000D02*
D03*
X244000Y228000D02*
D03*
Y233000D02*
D03*
X139968Y41032D02*
D03*
X147080Y41127D02*
D03*
X172968Y30032D02*
D03*
X45968Y108032D02*
D03*
X37000Y295000D02*
D03*
X79125Y297500D02*
D03*
X104000Y297000D02*
D03*
X161000Y294000D02*
D03*
X124000Y237000D02*
D03*
X27375Y229750D02*
D03*
X45000Y225000D02*
D03*
X59000D02*
D03*
X248000Y104000D02*
D03*
X260000Y117000D02*
D03*
X230000Y75000D02*
D03*
X224000Y19000D02*
D03*
X173000Y24000D02*
D03*
X28000Y5500D02*
D03*
X9000Y6000D02*
D03*
X157000Y115000D02*
D03*
X181000Y101000D02*
D03*
X215536Y125464D02*
D03*
X83240Y65881D02*
D03*
X88000Y15000D02*
D03*
X103000Y26000D02*
D03*
X98984Y40708D02*
D03*
X68372Y40470D02*
D03*
X78182Y45625D02*
D03*
X78312Y76201D02*
D03*
X88492Y76123D02*
D03*
X68418Y76975D02*
D03*
X58418D02*
D03*
X11000Y253000D02*
D03*
X34000Y276000D02*
D03*
X12448Y301549D02*
D03*
X237000Y407000D02*
D03*
X140000Y419000D02*
D03*
X166000Y343000D02*
D03*
X265000Y417000D02*
D03*
Y369000D02*
D03*
X94000Y456000D02*
D03*
X192000D02*
D03*
X207000Y138000D02*
D03*
X53000Y41000D02*
D03*
X136625Y88250D02*
D03*
X150000Y52000D02*
D03*
X154750Y138000D02*
D03*
X254000Y360000D02*
D03*
X151000Y20000D02*
D03*
X157000D02*
D03*
X68000Y5000D02*
D03*
X9000Y159000D02*
D03*
X4000Y436000D02*
D03*
X5000Y46500D02*
D03*
X183000Y113000D02*
D03*
X126000Y78000D02*
D03*
X125000Y55000D02*
D03*
X195000Y9000D02*
D03*
X161000Y62000D02*
D03*
X253000Y282000D02*
D03*
Y290000D02*
D03*
X254000Y326000D02*
D03*
X73000Y152000D02*
D03*
X73316Y96284D02*
D03*
X84000Y151000D02*
D03*
X63316Y96284D02*
D03*
X53316D02*
D03*
X53000Y166000D02*
D03*
X67000Y191000D02*
D03*
X77000Y193000D02*
D03*
X53000Y176000D02*
D03*
X73316Y86284D02*
D03*
X63316D02*
D03*
X53316D02*
D03*
X215000Y295000D02*
D03*
X177000Y207000D02*
D03*
X172170Y343322D02*
D03*
X259750Y397750D02*
D03*
X259787Y387277D02*
D03*
X262000Y245000D02*
D03*
Y257000D02*
D03*
X140000Y399000D02*
D03*
X188800Y249228D02*
D03*
X156000Y204000D02*
D03*
X196000Y234000D02*
D03*
X156000Y211000D02*
D03*
X179000Y359000D02*
D03*
X154000D02*
D03*
X151000Y293000D02*
D03*
X214000Y361000D02*
D03*
X208000Y355000D02*
D03*
X212000Y371000D02*
D03*
X213000Y381000D02*
D03*
X185362Y374638D02*
D03*
X197000Y380084D02*
D03*
X166000Y38000D02*
D03*
X182500Y4000D02*
D03*
X172000Y11184D02*
D03*
X168000Y79000D02*
D03*
X65971Y11854D02*
D03*
X36000Y449000D02*
D03*
X9000Y290000D02*
D03*
X148000Y302000D02*
D03*
X9000Y51000D02*
D03*
Y153000D02*
D03*
X14000Y206000D02*
D03*
X7000D02*
D03*
X10000Y135000D02*
D03*
X11000Y215000D02*
D03*
X8000Y461000D02*
D03*
X5000Y278000D02*
D03*
X38000Y45000D02*
D03*
X171000Y113000D02*
D03*
X211000Y251000D02*
D03*
X206250Y273500D02*
D03*
Y309500D02*
D03*
X181000Y320000D02*
D03*
X153000Y240000D02*
D03*
X138500D02*
D03*
X135000Y134000D02*
D03*
X144000D02*
D03*
X23284Y106316D02*
D03*
X22319Y436892D02*
D03*
X31770Y437572D02*
D03*
X24000Y317000D02*
D03*
X7000Y328000D02*
D03*
X35000Y373000D02*
D03*
X70964Y347536D02*
D03*
X95744Y439318D02*
D03*
X144000Y240000D02*
D03*
X72000Y16000D02*
D03*
X73000Y126000D02*
D03*
X72000Y117000D02*
D03*
X213000Y214500D02*
D03*
X209000Y219500D02*
D03*
X214000Y184500D02*
D03*
X213000Y171500D02*
D03*
X242000Y211000D02*
D03*
Y216500D02*
D03*
Y186000D02*
D03*
Y191500D02*
D03*
Y161000D02*
D03*
Y166500D02*
D03*
X209000Y146500D02*
D03*
X212000Y153500D02*
D03*
X103284Y36284D02*
D03*
X13284Y106316D02*
D03*
X116000Y217000D02*
D03*
X103284Y346284D02*
D03*
X33284Y356316D02*
D03*
X53284Y346284D02*
D03*
Y356284D02*
D03*
X71000Y358000D02*
D03*
X23316Y356284D02*
D03*
Y426316D02*
D03*
X103316D02*
D03*
X123316Y386316D02*
D03*
Y366284D02*
D03*
X103284Y306284D02*
D03*
Y316284D02*
D03*
X43316Y306284D02*
D03*
X103316Y246316D02*
D03*
X53284Y236284D02*
D03*
X63284Y246316D02*
D03*
X83284Y256316D02*
D03*
X33284D02*
D03*
Y246316D02*
D03*
X53284Y246284D02*
D03*
X23284Y246316D02*
D03*
X33284Y216316D02*
D03*
X23284D02*
D03*
X98434Y125627D02*
D03*
X43316Y86284D02*
D03*
X33284Y96284D02*
D03*
X123316Y46284D02*
D03*
Y36284D02*
D03*
X113284Y36316D02*
D03*
X103284Y16284D02*
D03*
X33284Y26284D02*
D03*
X53284D02*
D03*
X103316Y96316D02*
D03*
X23284D02*
D03*
X13284D02*
D03*
X23284Y136316D02*
D03*
X55000Y125000D02*
D03*
X53284Y136284D02*
D03*
X33284Y16284D02*
D03*
X53284D02*
D03*
X13284Y26284D02*
D03*
X23284Y16284D02*
D03*
X103316Y146316D02*
D03*
X113284Y136316D02*
D03*
X73284Y136284D02*
D03*
Y176284D02*
D03*
X83316D02*
D03*
X73316Y166316D02*
D03*
X83284D02*
D03*
X126000Y152000D02*
D03*
X150538Y150236D02*
D03*
X139000Y170000D02*
D03*
X145000D02*
D03*
X49250Y185500D02*
D03*
X65911Y158689D02*
D03*
X124000Y201000D02*
D03*
X73000Y25000D02*
D03*
X73316Y396284D02*
D03*
Y386316D02*
D03*
X83284D02*
D03*
Y396284D02*
D03*
X52000Y405000D02*
D03*
X65911Y378689D02*
D03*
X52354Y145419D02*
D03*
X126000Y135000D02*
D03*
X93316Y146316D02*
D03*
X128000Y180500D02*
D03*
X64158Y185442D02*
D03*
X146750Y201750D02*
D03*
X103284Y86284D02*
D03*
X83284Y36316D02*
D03*
X33316Y316316D02*
D03*
X113316Y426316D02*
D03*
X23284Y416284D02*
D03*
X122436Y357723D02*
D03*
X33284Y366316D02*
D03*
X64300Y405875D02*
D03*
X92000Y365000D02*
D03*
X87000Y191000D02*
D03*
Y415000D02*
D03*
X130000Y148000D02*
D03*
X140000Y145750D02*
D03*
X136000Y186000D02*
D03*
X145000Y188000D02*
D03*
X114255Y175972D02*
D03*
X113806Y165557D02*
D03*
X44246Y207197D02*
D03*
X72354Y205403D02*
D03*
X64197Y215354D02*
D03*
X62354Y205403D02*
D03*
X54246Y207197D02*
D03*
X52403Y197246D02*
D03*
X92000Y412000D02*
D03*
X97000Y408000D02*
D03*
X92000Y372000D02*
D03*
X97000Y376000D02*
D03*
X101000Y388000D02*
D03*
Y396000D02*
D03*
X44246Y427197D02*
D03*
X73000Y372000D02*
D03*
X73316Y306284D02*
D03*
X63316D02*
D03*
X53316D02*
D03*
X73316Y316284D02*
D03*
X63316D02*
D03*
X53316D02*
D03*
X64197Y435354D02*
D03*
X62354Y425403D02*
D03*
X54246Y427197D02*
D03*
X52403Y417245D02*
D03*
X53000Y386000D02*
D03*
X67000Y411000D02*
D03*
X77000Y413000D02*
D03*
X53000Y396000D02*
D03*
X84000Y371000D02*
D03*
X72354Y425403D02*
D03*
M02*
