G04*
G04 #@! TF.GenerationSoftware,Altium Limited,Altium Designer,24.9.1 (31)*
G04*
G04 Layer_Physical_Order=6*
G04 Layer_Color=16711680*
%FSLAX44Y44*%
%MOMM*%
G71*
G04*
G04 #@! TF.SameCoordinates,F6C7D1B7-5E70-41A8-93A8-01C2B61895AE*
G04*
G04*
G04 #@! TF.FilePolarity,Positive*
G04*
G01*
G75*
%ADD10C,0.1500*%
%ADD46C,0.1800*%
%ADD48C,0.4000*%
%ADD49C,0.2000*%
%ADD50C,0.3200*%
%ADD51C,0.3000*%
%ADD53C,0.2200*%
%ADD54C,4.0000*%
%ADD55C,0.4000*%
%ADD58C,0.4500*%
%ADD59C,3.0000*%
G36*
X240000Y443000D02*
X274000D01*
Y374781D01*
X272613Y374182D01*
X271670Y375017D01*
Y379064D01*
X271391Y380469D01*
X270595Y381660D01*
X262382Y389873D01*
X261192Y390668D01*
X260182Y390869D01*
X259647Y391982D01*
X259591Y392400D01*
X262345Y395154D01*
X263141Y396345D01*
X263421Y397750D01*
X263141Y399155D01*
X262345Y400345D01*
X261155Y401141D01*
X259750Y401421D01*
X258345Y401141D01*
X257155Y400345D01*
X252091Y395282D01*
X251296Y394091D01*
X251016Y392687D01*
Y383766D01*
X250762Y383578D01*
X249516Y383206D01*
X218740Y413983D01*
X217830Y414590D01*
X216757Y414804D01*
X204661D01*
X187483Y431983D01*
X186573Y432590D01*
X185500Y432804D01*
X171161D01*
X157983Y445983D01*
X157073Y446590D01*
X156000Y446804D01*
X41485D01*
X39500Y448789D01*
Y449696D01*
X38967Y450983D01*
X37983Y451967D01*
X36696Y452500D01*
X35304D01*
X34017Y451967D01*
X33033Y450983D01*
X32500Y449696D01*
Y448304D01*
X33033Y447017D01*
X34017Y446033D01*
X34543Y445815D01*
X38341Y442017D01*
X39251Y441410D01*
X40324Y441196D01*
X91455D01*
X92244Y440014D01*
Y438622D01*
X92777Y437336D01*
X93762Y436351D01*
X95048Y435818D01*
X95555D01*
X95901Y435073D01*
X96015Y434318D01*
X95121Y433424D01*
X94550Y432046D01*
Y431770D01*
X93710Y430521D01*
X93300Y430505D01*
X92296Y430545D01*
X92050Y431886D01*
Y432046D01*
X91479Y433424D01*
X90424Y434479D01*
X89046Y435050D01*
X87554D01*
X86176Y434479D01*
X85121Y433424D01*
X84550Y432046D01*
Y430554D01*
X85121Y429176D01*
X86176Y428121D01*
X87554Y427550D01*
X88667Y427550D01*
X89365Y426341D01*
X89409Y426200D01*
X88396Y425050D01*
X87554D01*
X86176Y424479D01*
X85121Y423424D01*
X84550Y422046D01*
Y420554D01*
X84959Y419567D01*
X84989Y418756D01*
X84613Y417563D01*
X84033Y416983D01*
X83500Y415696D01*
Y414304D01*
X84033Y413017D01*
X85017Y412033D01*
X86304Y411500D01*
X87696D01*
X88011Y411630D01*
X88500Y411304D01*
X89033Y410017D01*
X90017Y409033D01*
X91304Y408500D01*
X92696D01*
X93500Y407304D01*
X94033Y406017D01*
X95017Y405033D01*
X96304Y404500D01*
X97696D01*
X98446Y403999D01*
Y401986D01*
X98660Y400913D01*
X98906Y400545D01*
X99017Y398967D01*
X98033Y397983D01*
X97500Y396696D01*
Y395304D01*
X98033Y394017D01*
X99017Y393033D01*
X99551Y392812D01*
Y391188D01*
X99017Y390967D01*
X98033Y389983D01*
X97500Y388696D01*
Y387304D01*
X98033Y386017D01*
X99017Y385033D01*
X100304Y384500D01*
X101696D01*
X102983Y385033D01*
X103967Y386017D01*
X104500Y387304D01*
Y387676D01*
X106000Y388297D01*
X106176Y388121D01*
X107554Y387550D01*
X107458Y386090D01*
X107347D01*
X105587Y385361D01*
X104239Y384013D01*
X103530Y382300D01*
X108300D01*
Y380300D01*
X103530D01*
X104239Y378587D01*
X105587Y377239D01*
X105894Y377112D01*
Y375488D01*
X105587Y375361D01*
X104239Y374013D01*
X103530Y372300D01*
X108300D01*
Y370300D01*
X103530D01*
X104239Y368587D01*
X105587Y367239D01*
X105894Y367112D01*
Y365488D01*
X105587Y365361D01*
X104239Y364013D01*
X104112Y363706D01*
X102488D01*
X102361Y364013D01*
X101013Y365361D01*
X99300Y366070D01*
Y361300D01*
X97300D01*
Y366070D01*
X96954Y365927D01*
X95768Y366561D01*
X94884Y367884D01*
X94863Y367898D01*
X94736Y369786D01*
X94967Y370017D01*
X95467Y371223D01*
X95614Y371473D01*
X96304Y372500D01*
X97696D01*
X98983Y373033D01*
X99967Y374017D01*
X100500Y375304D01*
Y376696D01*
X99967Y377983D01*
X98983Y378967D01*
X97696Y379500D01*
X96304D01*
X95017Y378967D01*
X94033Y377983D01*
X93533Y376777D01*
X93386Y376527D01*
X92696Y375500D01*
X91304D01*
X90017Y374967D01*
X89033Y373983D01*
X88605Y372949D01*
X87697Y372753D01*
X87043Y372800D01*
X86967Y372983D01*
X85983Y373967D01*
X84696Y374500D01*
X83304D01*
X82017Y373967D01*
X81033Y372983D01*
X80500Y371696D01*
Y370304D01*
X81033Y369017D01*
X82017Y368033D01*
X83304Y367500D01*
X84696D01*
X85983Y368033D01*
X86967Y369017D01*
X86971Y369027D01*
X88781Y369521D01*
X89023Y369345D01*
X89048Y367816D01*
X85416Y364184D01*
X84532Y362861D01*
X84476Y362578D01*
X82949Y362592D01*
X82361Y364013D01*
X81013Y365361D01*
X79300Y366070D01*
Y361300D01*
X77300D01*
Y366070D01*
X75587Y365361D01*
X74239Y364013D01*
X73976Y363378D01*
X72207Y363026D01*
X71456Y363776D01*
X71184Y364184D01*
X69861Y365068D01*
X68300Y365378D01*
X66739Y365068D01*
X65416Y364184D01*
X64532Y362861D01*
X64410Y362246D01*
X63735Y361895D01*
X62106Y362669D01*
X62068Y362861D01*
X61184Y364184D01*
X59861Y365068D01*
X58300Y365378D01*
X56739Y365068D01*
X55416Y364184D01*
X53680Y362447D01*
X52082Y362857D01*
X52029Y362918D01*
X51184Y364184D01*
X49861Y365068D01*
X48300Y365378D01*
X39989D01*
X36168Y369200D01*
X34845Y370084D01*
X33284Y370395D01*
X32050Y371678D01*
Y372046D01*
X31479Y373424D01*
X30424Y374479D01*
X29046Y375050D01*
X27554D01*
X26176Y374479D01*
X25121Y373424D01*
X24550Y372046D01*
Y370554D01*
X25121Y369176D01*
X26176Y368121D01*
X27554Y367550D01*
X27922D01*
X28431Y367060D01*
X28437Y366339D01*
X27554Y365050D01*
X26176Y364479D01*
X25121Y363424D01*
X24812Y362677D01*
X23164Y362203D01*
X21184Y364184D01*
X19861Y365068D01*
X18300Y365378D01*
X16739Y365068D01*
X15416Y364184D01*
X14532Y362861D01*
X14222Y361300D01*
X14532Y359739D01*
X15416Y358416D01*
X16479Y357354D01*
X16127Y355584D01*
X15587Y355361D01*
X14239Y354013D01*
X13530Y352300D01*
X18300D01*
Y351300D01*
X19300D01*
Y346530D01*
X21013Y347239D01*
X22361Y348587D01*
X22584Y349127D01*
X24354Y349478D01*
X25416Y348416D01*
X25416Y348416D01*
X26739Y347532D01*
X28300Y347222D01*
X29861Y347532D01*
X31184Y348416D01*
X32029Y349682D01*
X32082Y349743D01*
X33680Y350153D01*
X35416Y348416D01*
X35416Y348416D01*
X42716Y341116D01*
X42716Y341116D01*
X44039Y340232D01*
X45600Y339922D01*
X45600Y339922D01*
X51000D01*
X51000Y339922D01*
X52561Y340232D01*
X53884Y341116D01*
X56168Y343400D01*
X56168Y343400D01*
X58676Y345909D01*
X60076Y345345D01*
X60141Y345252D01*
X59879Y343936D01*
X60159Y342531D01*
X60955Y341340D01*
X70890Y331404D01*
X72081Y330609D01*
X73486Y330330D01*
X175000D01*
X176405Y330609D01*
X177596Y331404D01*
X202874Y356683D01*
X204514Y356355D01*
X204582Y356270D01*
X204329Y355000D01*
Y342174D01*
X204609Y340770D01*
X205404Y339579D01*
X207679Y337304D01*
Y313490D01*
X206946Y313000D01*
X205554D01*
X204267Y312467D01*
X203283Y311483D01*
X202750Y310196D01*
Y308804D01*
X203283Y307517D01*
X204267Y306533D01*
X204446Y305637D01*
X192404Y293595D01*
X191609Y292405D01*
X191329Y291000D01*
Y276308D01*
X158464Y243443D01*
X157078Y244017D01*
Y249000D01*
X157078Y249000D01*
X156768Y250561D01*
X155884Y251884D01*
X155884Y251884D01*
X133584Y274184D01*
X132261Y275068D01*
X130700Y275378D01*
X130700Y275378D01*
X118300D01*
X116739Y275068D01*
X115416Y274184D01*
X114532Y272861D01*
X114476Y272578D01*
X112949Y272592D01*
X112361Y274013D01*
X111013Y275361D01*
X109253Y276090D01*
X109142D01*
X109046Y277550D01*
X110424Y278121D01*
X111479Y279176D01*
X112050Y280554D01*
Y282046D01*
X111479Y283424D01*
X110424Y284479D01*
X109046Y285050D01*
X107554D01*
X106176Y284479D01*
X105121Y283424D01*
X104550Y282046D01*
Y280554D01*
X105121Y279176D01*
X106176Y278121D01*
X107554Y277550D01*
X107458Y276090D01*
X107347D01*
X105587Y275361D01*
X104239Y274013D01*
X103530Y272300D01*
X108300D01*
Y270300D01*
X103530D01*
X104239Y268587D01*
X105587Y267239D01*
X105894Y267112D01*
Y265488D01*
X105587Y265361D01*
X104239Y264013D01*
X103530Y262300D01*
X108300D01*
Y260300D01*
X103530D01*
X104239Y258587D01*
X105587Y257239D01*
X105894Y257112D01*
Y255488D01*
X105587Y255361D01*
X104239Y254013D01*
X104112Y253706D01*
X102488D01*
X102361Y254013D01*
X101013Y255361D01*
X99300Y256070D01*
Y251300D01*
X97300D01*
Y256070D01*
X95587Y255361D01*
X94239Y254013D01*
X93651Y252592D01*
X92124Y252578D01*
X92068Y252861D01*
X91184Y254184D01*
X86168Y259200D01*
X84845Y260084D01*
X83284Y260394D01*
X81723Y260084D01*
X80400Y259200D01*
X79516Y257877D01*
X79206Y256316D01*
X79020Y256090D01*
X77347D01*
X76372Y255686D01*
X74872Y256605D01*
Y257207D01*
X74872Y257207D01*
X74561Y258768D01*
X73677Y260091D01*
X68758Y265010D01*
X69253Y266510D01*
X71013Y267239D01*
X72361Y268587D01*
X72488Y268894D01*
X74112D01*
X74239Y268587D01*
X75587Y267239D01*
X77300Y266530D01*
Y271300D01*
X79300D01*
Y266530D01*
X81013Y267239D01*
X82361Y268587D01*
X82488Y268894D01*
X84112D01*
X84239Y268587D01*
X85587Y267239D01*
X87300Y266530D01*
Y271300D01*
X88300D01*
Y272300D01*
X93070D01*
X92361Y274013D01*
X91013Y275361D01*
X90706Y275488D01*
Y277112D01*
X91013Y277239D01*
X92361Y278587D01*
X93070Y280300D01*
X88300D01*
Y282300D01*
X93070D01*
X92361Y284013D01*
X91013Y285361D01*
X90706Y285488D01*
Y287112D01*
X91013Y287239D01*
X92361Y288587D01*
X93070Y290300D01*
X88300D01*
Y291300D01*
X87300D01*
Y296070D01*
X85587Y295361D01*
X84239Y294013D01*
X84112Y293706D01*
X82488D01*
X82361Y294013D01*
X81013Y295361D01*
X79300Y296070D01*
Y291300D01*
X77300D01*
Y296070D01*
X75587Y295361D01*
X74239Y294013D01*
X74112Y293706D01*
X72488D01*
X72361Y294013D01*
X71013Y295361D01*
X69300Y296070D01*
Y291300D01*
X67300D01*
Y296070D01*
X65587Y295361D01*
X64239Y294013D01*
X64112Y293706D01*
X62488D01*
X62361Y294013D01*
X61013Y295361D01*
X59300Y296070D01*
Y291300D01*
X57300D01*
Y296070D01*
X55587Y295361D01*
X54239Y294013D01*
X54112Y293706D01*
X52488D01*
X52361Y294013D01*
X51013Y295361D01*
X49300Y296070D01*
Y291300D01*
X48300D01*
Y290300D01*
X43530D01*
X44239Y288587D01*
X45587Y287239D01*
X45894Y287112D01*
Y285488D01*
X45587Y285361D01*
X44239Y284013D01*
X43530Y282300D01*
X48300D01*
Y280300D01*
X43530D01*
X44239Y278587D01*
X45587Y277239D01*
X45894Y277112D01*
Y275488D01*
X45587Y275361D01*
X44239Y274013D01*
X43530Y272300D01*
X48300D01*
Y271300D01*
X49300D01*
Y266530D01*
X51013Y267239D01*
X52361Y268587D01*
X52488Y268894D01*
X54112D01*
X54239Y268587D01*
X55587Y267239D01*
X57300Y266530D01*
Y271300D01*
X59300D01*
Y266530D01*
X61013Y267239D01*
X61733Y267959D01*
X63373Y267959D01*
X62933Y266430D01*
X62116Y265884D01*
X61232Y264561D01*
X60922Y263000D01*
X61232Y261439D01*
X62116Y260116D01*
X65932Y256300D01*
Y254800D01*
X65416Y254284D01*
X64532Y252961D01*
X64286Y251724D01*
X64225Y251643D01*
X62351Y251649D01*
X62294Y251727D01*
X62068Y252861D01*
X61184Y254184D01*
X59861Y255068D01*
X58300Y255378D01*
X56739Y255068D01*
X55416Y254184D01*
X53436Y252203D01*
X51788Y252677D01*
X51479Y253424D01*
X50424Y254479D01*
X49046Y255050D01*
X47554D01*
X47362Y254970D01*
X39820D01*
X35879Y258911D01*
X34689Y259707D01*
X33427Y259958D01*
X33229Y260044D01*
X32050Y261271D01*
Y262046D01*
X31479Y263424D01*
X30424Y264479D01*
X29046Y265050D01*
X27554D01*
X26176Y264479D01*
X25121Y263424D01*
X24550Y262046D01*
Y260554D01*
X25121Y259176D01*
X26176Y258121D01*
X27554Y257550D01*
X28330D01*
X28541Y257347D01*
X28549Y256462D01*
X27554Y255050D01*
X26176Y254479D01*
X25121Y253424D01*
X24812Y252677D01*
X23164Y252204D01*
X21184Y254184D01*
X19861Y255068D01*
X18300Y255378D01*
X16739Y255068D01*
X15416Y254184D01*
X14532Y252861D01*
X14222Y251300D01*
X14532Y249739D01*
X15416Y248416D01*
X15416Y248416D01*
X16479Y247354D01*
X16127Y245584D01*
X15587Y245361D01*
X14239Y244013D01*
X13530Y242300D01*
X18300D01*
Y241300D01*
X19300D01*
Y236530D01*
X21013Y237239D01*
X22361Y238587D01*
X22584Y239127D01*
X24354Y239479D01*
X25416Y238416D01*
X26739Y237532D01*
X28300Y237222D01*
X29861Y237532D01*
X31184Y238416D01*
X32029Y239682D01*
X32083Y239743D01*
X33680Y240153D01*
X35416Y238416D01*
X36739Y237532D01*
X38300Y237222D01*
X39861Y237532D01*
X41184Y238416D01*
X42068Y239739D01*
X42378Y241300D01*
X42068Y242861D01*
X41184Y244184D01*
X39238Y246129D01*
X39860Y247630D01*
X47188D01*
X47894Y247054D01*
X48437Y246261D01*
X48431Y245540D01*
X47922Y245050D01*
X47554D01*
X46176Y244479D01*
X45121Y243424D01*
X44550Y242046D01*
Y240554D01*
X45121Y239176D01*
X46176Y238121D01*
X47554Y237550D01*
X47928D01*
X49205Y236284D01*
X49516Y234723D01*
X50297Y233554D01*
X50121Y232851D01*
X49715Y232054D01*
X43240D01*
X42167Y231840D01*
X41257Y231233D01*
X38328Y228304D01*
X22661D01*
X15182Y235783D01*
X16032Y237055D01*
X17300Y236530D01*
Y240300D01*
X13530D01*
X14055Y239032D01*
X12783Y238182D01*
X9554Y241411D01*
Y267631D01*
X11233Y269310D01*
X11840Y270219D01*
X12054Y271292D01*
Y288227D01*
X12500Y289304D01*
Y290696D01*
X11967Y291983D01*
X10983Y292967D01*
X9696Y293500D01*
X8304D01*
X7017Y292967D01*
X6033Y291983D01*
X5500Y290696D01*
Y289304D01*
X6033Y288017D01*
X6446Y287604D01*
Y282001D01*
X5696Y281500D01*
X4304D01*
X3017Y280967D01*
X2033Y279983D01*
X1500Y278696D01*
Y277304D01*
X2033Y276017D01*
X3017Y275033D01*
X4304Y274500D01*
X5696D01*
X6446Y273999D01*
Y272454D01*
X4767Y270775D01*
X4160Y269865D01*
X3946Y268792D01*
Y240250D01*
X4160Y239177D01*
X4767Y238267D01*
X19517Y223517D01*
X20427Y222910D01*
X21500Y222696D01*
X39490D01*
X40563Y222910D01*
X41472Y223517D01*
X44401Y226446D01*
X60589D01*
X63567Y223467D01*
X64477Y222860D01*
X65550Y222646D01*
X81389D01*
X81735Y222300D01*
X81767Y222279D01*
X85028Y219017D01*
X85937Y218410D01*
X87010Y218196D01*
X107604D01*
X108178Y216810D01*
X105824Y214456D01*
X105416Y214184D01*
X105416Y214184D01*
X103436Y212203D01*
X101788Y212677D01*
X101479Y213424D01*
X100424Y214479D01*
X99046Y215050D01*
X97554D01*
X96176Y214479D01*
X95121Y213424D01*
X94550Y212046D01*
Y210554D01*
X95121Y209176D01*
X96176Y208121D01*
X96923Y207812D01*
X97396Y206164D01*
X95416Y204184D01*
X94532Y202861D01*
X94222Y201300D01*
X94532Y199739D01*
X95416Y198416D01*
X96739Y197532D01*
X98300Y197222D01*
X99861Y197532D01*
X101184Y198416D01*
X102920Y200153D01*
X104518Y199743D01*
X104571Y199682D01*
X105416Y198416D01*
X106739Y197532D01*
X107022Y197476D01*
X107008Y195949D01*
X105587Y195361D01*
X104239Y194013D01*
X103530Y192300D01*
X108300D01*
Y190300D01*
X103478D01*
X103013Y189604D01*
X92361D01*
X90500Y191465D01*
Y191696D01*
X89967Y192983D01*
X88983Y193967D01*
X87696Y194500D01*
X86304D01*
X85017Y193967D01*
X84033Y192983D01*
X83500Y191696D01*
Y190304D01*
X84033Y189017D01*
X85017Y188033D01*
X86304Y187500D01*
X86341Y186000D01*
X86270Y185644D01*
X85587Y185361D01*
X84239Y184013D01*
X84112Y183706D01*
X82488D01*
X82361Y184013D01*
X81013Y185361D01*
X79300Y186070D01*
Y181300D01*
X77300D01*
Y186070D01*
X75587Y185361D01*
X74239Y184013D01*
X74112Y183706D01*
X72488D01*
X72361Y184013D01*
X71013Y185361D01*
X69253Y186090D01*
X67913D01*
X67696Y187500D01*
X68983Y188033D01*
X69967Y189017D01*
X70500Y190304D01*
Y191696D01*
X69967Y192983D01*
X68983Y193967D01*
X67696Y194500D01*
X66304D01*
X65017Y193967D01*
X64033Y192983D01*
X63500Y191696D01*
Y190304D01*
X63461Y188942D01*
X62175Y188410D01*
X61191Y187425D01*
X61009Y186986D01*
X59300Y186097D01*
Y181300D01*
X57300D01*
Y186070D01*
X55587Y185361D01*
X54239Y184013D01*
X54112Y183706D01*
X52488D01*
X52361Y184013D01*
X51013Y185361D01*
X49300Y186070D01*
Y181300D01*
X48300D01*
Y180300D01*
X43530D01*
X44239Y178587D01*
X45587Y177239D01*
X45894Y177112D01*
Y175488D01*
X45587Y175361D01*
X44239Y174013D01*
X43530Y172300D01*
X48300D01*
Y170300D01*
X43530D01*
X44239Y168587D01*
X45587Y167239D01*
X45894Y167112D01*
Y165488D01*
X45587Y165361D01*
X44239Y164013D01*
X43530Y162300D01*
X48300D01*
Y161300D01*
X49300D01*
Y156530D01*
X51013Y157239D01*
X52361Y158587D01*
X52488Y158894D01*
X54112D01*
X54239Y158587D01*
X55587Y157239D01*
X57300Y156530D01*
Y161300D01*
X59300D01*
Y156530D01*
X61013Y157239D01*
X62361Y158587D01*
X62488Y158894D01*
X64112D01*
X64239Y158587D01*
X65587Y157239D01*
X67300Y156530D01*
Y161300D01*
X69300D01*
Y156530D01*
X71013Y157239D01*
X72361Y158587D01*
X72488Y158894D01*
X74112D01*
X74239Y158587D01*
X75587Y157239D01*
X77300Y156530D01*
Y161300D01*
X79300D01*
Y156530D01*
X81013Y157239D01*
X82361Y158587D01*
X82488Y158894D01*
X84112D01*
X84239Y158587D01*
X85587Y157239D01*
X87300Y156530D01*
Y161300D01*
X88300D01*
Y162300D01*
X93070D01*
X92361Y164013D01*
X91013Y165361D01*
X90706Y165488D01*
Y167112D01*
X91013Y167239D01*
X92361Y168587D01*
X93070Y170300D01*
X88300D01*
Y172300D01*
X93070D01*
X92361Y174013D01*
X91013Y175361D01*
X90706Y175488D01*
Y177112D01*
X91013Y177239D01*
X92361Y178587D01*
X93070Y180300D01*
X88300D01*
Y182300D01*
X93070D01*
X92885Y182749D01*
X93718Y183996D01*
X103734D01*
X104736Y182496D01*
X104550Y182046D01*
Y180554D01*
X105121Y179176D01*
X106176Y178121D01*
X107554Y177550D01*
X108778D01*
X109605Y176941D01*
X110126Y176374D01*
X110117Y176128D01*
X109046Y175050D01*
X107554D01*
X106176Y174479D01*
X105121Y173424D01*
X104550Y172046D01*
Y170554D01*
X105121Y169176D01*
X106176Y168121D01*
X107554Y167550D01*
X107458Y166090D01*
X107347D01*
X105587Y165361D01*
X104239Y164013D01*
X103530Y162300D01*
X108300D01*
Y160300D01*
X103530D01*
X104239Y158587D01*
X105587Y157239D01*
X105894Y157112D01*
Y155488D01*
X105587Y155361D01*
X104239Y154013D01*
X103530Y152300D01*
X108300D01*
Y150300D01*
X103530D01*
X104239Y148587D01*
X105587Y147239D01*
X105894Y147112D01*
Y145488D01*
X105587Y145361D01*
X104239Y144013D01*
X104112Y143706D01*
X102488D01*
X102361Y144013D01*
X101013Y145361D01*
X99253Y146090D01*
X97580D01*
X97395Y146316D01*
X97084Y147877D01*
X96200Y149200D01*
X94877Y150084D01*
X93316Y150394D01*
X91755Y150084D01*
X90432Y149200D01*
X85416Y144184D01*
X84532Y142861D01*
X84476Y142578D01*
X82949Y142592D01*
X82361Y144013D01*
X81013Y145361D01*
X79300Y146070D01*
Y141300D01*
X77300D01*
Y146070D01*
X75587Y145361D01*
X74239Y144013D01*
X73510Y142253D01*
Y142142D01*
X72050Y142046D01*
X71479Y143424D01*
X70424Y144479D01*
X69046Y145050D01*
X67554D01*
X66176Y144479D01*
X65121Y143424D01*
X64550Y142046D01*
X64081Y141654D01*
X63700Y141479D01*
X62362Y142107D01*
X62184Y142275D01*
X62068Y142861D01*
X61184Y144184D01*
X59861Y145068D01*
X58300Y145378D01*
X57865Y145292D01*
X56622Y145374D01*
X56235Y146381D01*
X56122Y146947D01*
X55238Y148271D01*
X53915Y149155D01*
X52354Y149465D01*
X50794Y149155D01*
X49471Y148271D01*
X46578Y145378D01*
X38300D01*
X36739Y145068D01*
X35416Y144184D01*
X34532Y142861D01*
X34222Y141300D01*
X34532Y139739D01*
X35416Y138416D01*
X36739Y137532D01*
X38300Y137222D01*
X47863D01*
X48237Y136960D01*
X48280Y136401D01*
X47554Y135050D01*
X46176Y134479D01*
X45121Y133424D01*
X44550Y132046D01*
Y131038D01*
X43313Y129919D01*
X42474Y130180D01*
Y131204D01*
X42474Y131204D01*
X42164Y132765D01*
X41280Y134088D01*
X41184Y134184D01*
X39861Y135068D01*
X38300Y135378D01*
X36739Y135068D01*
X35416Y134184D01*
X34532Y132861D01*
X34222Y131300D01*
X34317Y130819D01*
Y127343D01*
X34317Y127343D01*
X34628Y125782D01*
X35512Y124459D01*
X37855Y122116D01*
X37855Y122116D01*
X39178Y121232D01*
X40739Y120922D01*
X55000D01*
X55000Y120922D01*
X56561Y121232D01*
X57884Y122116D01*
X59321Y123553D01*
X60784Y122895D01*
X60918Y122219D01*
X61559Y121259D01*
X67909Y114909D01*
X68868Y114268D01*
X69922Y114059D01*
X70595Y113609D01*
X72000Y113329D01*
X77480D01*
X78594Y112215D01*
X78112Y111070D01*
X77884Y110804D01*
X57161D01*
X49483Y118483D01*
X48573Y119090D01*
X47500Y119304D01*
X15661D01*
X8554Y126411D01*
Y130999D01*
X9304Y131500D01*
X10696D01*
X11983Y132033D01*
X12010Y132060D01*
X13510Y131439D01*
Y130347D01*
X14239Y128587D01*
X15587Y127239D01*
X17300Y126530D01*
Y131300D01*
X19300D01*
Y126530D01*
X21013Y127239D01*
X22361Y128587D01*
X22584Y129127D01*
X24354Y129479D01*
X25416Y128416D01*
X26739Y127532D01*
X28300Y127222D01*
X29861Y127532D01*
X31184Y128416D01*
X32068Y129739D01*
X32378Y131300D01*
X32068Y132861D01*
X31184Y134184D01*
X29204Y136164D01*
X29677Y137812D01*
X30424Y138121D01*
X31479Y139176D01*
X32050Y140554D01*
Y142046D01*
X31479Y143424D01*
X30424Y144479D01*
X29046Y145050D01*
X27554D01*
X26176Y144479D01*
X25121Y143424D01*
X24812Y142677D01*
X23164Y142204D01*
X21184Y144184D01*
X19861Y145068D01*
X18300Y145378D01*
X16739Y145068D01*
X15416Y144184D01*
X14532Y142861D01*
X14222Y141300D01*
X14532Y139739D01*
X15416Y138416D01*
X15416Y138416D01*
X16479Y137354D01*
X16130Y135604D01*
X16041Y135549D01*
X15587Y135361D01*
X15358Y135132D01*
X14864Y134831D01*
X13500Y135395D01*
Y135696D01*
X12967Y136983D01*
X11983Y137967D01*
X10696Y138500D01*
X9304D01*
X8554Y139001D01*
Y148589D01*
X9465Y149500D01*
X9696D01*
X10983Y150033D01*
X11967Y151017D01*
X12500Y152304D01*
Y153696D01*
X11967Y154983D01*
X11930Y155020D01*
X11013Y156000D01*
X11930Y156980D01*
X11967Y157017D01*
X12500Y158304D01*
Y159696D01*
X11967Y160983D01*
X10983Y161967D01*
X9696Y162500D01*
X8304D01*
X7017Y161967D01*
X6033Y160983D01*
X5500Y159696D01*
Y158304D01*
X6033Y157017D01*
X6070Y156980D01*
X6987Y156000D01*
X6070Y155020D01*
X6033Y154983D01*
X5500Y153696D01*
Y153465D01*
X3767Y151733D01*
X3160Y150823D01*
X2946Y149750D01*
Y125250D01*
X3160Y124177D01*
X3767Y123267D01*
X12517Y114517D01*
X13427Y113910D01*
X14500Y113696D01*
X46339D01*
X54017Y106017D01*
X54927Y105410D01*
X54975Y105400D01*
X55469Y103772D01*
X55121Y103424D01*
X54550Y102046D01*
Y101764D01*
X53166Y101072D01*
X53102Y101109D01*
X52145Y101787D01*
X52129Y101883D01*
X52050Y102009D01*
Y102046D01*
X51479Y103424D01*
X50424Y104479D01*
X49046Y105050D01*
X47554D01*
X46176Y104479D01*
X45121Y103424D01*
X44550Y102046D01*
Y100554D01*
X45121Y99176D01*
X46176Y98121D01*
X47554Y97550D01*
X47591D01*
X47717Y97471D01*
X47813Y97455D01*
X48492Y96496D01*
X48528Y96434D01*
X47836Y95050D01*
X47554D01*
X46176Y94479D01*
X45121Y93424D01*
X44812Y92677D01*
X43164Y92204D01*
X41184Y94184D01*
X39918Y95029D01*
X39857Y95082D01*
X39447Y96680D01*
X41184Y98416D01*
X42068Y99739D01*
X42378Y101300D01*
X42068Y102861D01*
X41184Y104184D01*
X39861Y105068D01*
X38300Y105378D01*
X36739Y105068D01*
X35416Y104184D01*
X33680Y102447D01*
X32083Y102857D01*
X32029Y102918D01*
X31184Y104184D01*
X26168Y109200D01*
X24845Y110084D01*
X23284Y110394D01*
X21723Y110084D01*
X20400Y109200D01*
X19516Y107877D01*
X19205Y106316D01*
X19020Y106090D01*
X17347D01*
X15587Y105361D01*
X14239Y104013D01*
X13510Y102253D01*
Y100580D01*
X13284Y100394D01*
X11723Y100084D01*
X10400Y99200D01*
X9516Y97877D01*
X9205Y96316D01*
X9516Y94755D01*
X10400Y93432D01*
X15416Y88416D01*
X16739Y87532D01*
X18300Y87222D01*
X19861Y87532D01*
X21184Y88416D01*
X22029Y89682D01*
X22083Y89743D01*
X23680Y90153D01*
X25416Y88416D01*
X26739Y87532D01*
X28300Y87222D01*
X29861Y87532D01*
X31184Y88416D01*
X32068Y89739D01*
X32193Y90368D01*
X33616Y91328D01*
X34276Y91026D01*
X34532Y89739D01*
X35416Y88416D01*
X40432Y83400D01*
X41755Y82516D01*
X43316Y82205D01*
X44877Y82516D01*
X46200Y83400D01*
X47084Y84723D01*
X47331Y85966D01*
X48246Y86442D01*
X48699Y86526D01*
X49816Y85588D01*
X50349Y84301D01*
X51333Y83317D01*
X52620Y82784D01*
X54012D01*
X55299Y83317D01*
X56283Y84301D01*
X56816Y85588D01*
Y86232D01*
X56890Y86365D01*
X57007Y86520D01*
X58591Y86827D01*
X59816Y85602D01*
Y85588D01*
X60349Y84301D01*
X61333Y83317D01*
X62620Y82784D01*
X64012D01*
X65299Y83317D01*
X66283Y84301D01*
X66816Y85588D01*
Y86232D01*
X66890Y86365D01*
X67007Y86520D01*
X68592Y86827D01*
X69816Y85602D01*
Y85588D01*
X70349Y84301D01*
X71334Y83317D01*
X72620Y82784D01*
X74012D01*
X75299Y83317D01*
X76283Y84301D01*
X76816Y85588D01*
Y86232D01*
X77360Y87204D01*
X78202Y87550D01*
X79046D01*
X80424Y88121D01*
X81479Y89176D01*
X82050Y90554D01*
Y92046D01*
X81479Y93424D01*
X80424Y94479D01*
X79046Y95050D01*
X78202D01*
X78092Y95093D01*
X77568Y96318D01*
X78049Y97487D01*
X78202Y97550D01*
X79046D01*
X80424Y98121D01*
X81479Y99176D01*
X82050Y100554D01*
Y102046D01*
X82472Y102677D01*
X83312D01*
X84550Y101352D01*
Y100554D01*
X85121Y99176D01*
X86176Y98121D01*
X87554Y97550D01*
X89046D01*
X90424Y98121D01*
X91479Y99176D01*
X92050Y100554D01*
Y102046D01*
X92472Y102677D01*
X93312D01*
X94550Y101352D01*
Y100554D01*
X95121Y99176D01*
X96176Y98121D01*
X96923Y97812D01*
X97396Y96164D01*
X95416Y94184D01*
X94532Y92861D01*
X94222Y91300D01*
X94532Y89739D01*
X95416Y88416D01*
X96739Y87532D01*
X98170Y87247D01*
X99206Y86284D01*
X99516Y84723D01*
X100400Y83400D01*
X101723Y82516D01*
X103284Y82205D01*
X103510Y82020D01*
Y80347D01*
X104239Y78587D01*
X105587Y77239D01*
X107347Y76510D01*
X107458D01*
X107554Y75050D01*
X106176Y74479D01*
X105121Y73424D01*
X104550Y72046D01*
Y70554D01*
X105121Y69176D01*
X106176Y68121D01*
X107554Y67550D01*
X109046D01*
X110424Y68121D01*
X111479Y69176D01*
X112050Y70554D01*
Y72046D01*
X111479Y73424D01*
X110424Y74479D01*
X109046Y75050D01*
X109143Y76510D01*
X109253D01*
X111013Y77239D01*
X112361Y78587D01*
X113090Y80347D01*
Y80458D01*
X114550Y80554D01*
X115121Y79176D01*
X116176Y78121D01*
X117554Y77550D01*
X119046D01*
X120294Y78067D01*
X121730Y77467D01*
X122092Y76189D01*
X121409Y74970D01*
X119238D01*
X119046Y75050D01*
X117554D01*
X116176Y74479D01*
X115121Y73424D01*
X114550Y72046D01*
Y70554D01*
X115121Y69176D01*
X116176Y68121D01*
X117554Y67550D01*
X119046D01*
X119238Y67629D01*
X160300D01*
X161705Y67909D01*
X162896Y68705D01*
X170595Y76405D01*
X171391Y77595D01*
X171670Y79000D01*
X171391Y80405D01*
X170595Y81595D01*
X169846Y82096D01*
X170301Y83596D01*
X176202D01*
X181182Y78616D01*
X182506Y77732D01*
X184066Y77422D01*
X184066Y77422D01*
X189694D01*
X190268Y76036D01*
X173311Y59078D01*
X157934D01*
X154529Y62484D01*
X153205Y63368D01*
X151645Y63678D01*
X151645Y63678D01*
X140090D01*
X140090Y63678D01*
X138529Y63368D01*
X137206Y62484D01*
X133800Y59078D01*
X125000D01*
X123439Y58768D01*
X123104Y58544D01*
X122015Y59010D01*
X122015Y59010D01*
X121578Y59197D01*
X121529Y59295D01*
X121564Y59380D01*
X122050Y60554D01*
Y62046D01*
X121479Y63424D01*
X120424Y64479D01*
X119046Y65050D01*
X117554D01*
X116176Y64479D01*
X115121Y63424D01*
X114550Y62046D01*
Y60554D01*
X115121Y59176D01*
X116176Y58121D01*
X117554Y57550D01*
X119046D01*
X120424Y58121D01*
X120517Y58213D01*
X120574Y58252D01*
X121729Y57305D01*
X121573Y57071D01*
X121232Y56561D01*
X121126Y56027D01*
X120744Y55738D01*
X119480Y55144D01*
X118300Y55378D01*
X116739Y55068D01*
X115416Y54184D01*
X114532Y52861D01*
X114476Y52578D01*
X112949Y52592D01*
X112361Y54013D01*
X111013Y55361D01*
X109253Y56090D01*
X109142D01*
X109046Y57550D01*
X110424Y58121D01*
X111479Y59176D01*
X112050Y60554D01*
Y62046D01*
X111479Y63424D01*
X110424Y64479D01*
X109046Y65050D01*
X107554D01*
X106176Y64479D01*
X105121Y63424D01*
X104550Y62046D01*
Y60554D01*
X105121Y59176D01*
X106176Y58121D01*
X107554Y57550D01*
X107458Y56090D01*
X107347D01*
X105587Y55361D01*
X104239Y54013D01*
X103530Y52300D01*
X108300D01*
Y50300D01*
X103530D01*
X104239Y48587D01*
X105587Y47239D01*
X105894Y47112D01*
Y45488D01*
X105587Y45361D01*
X104239Y44013D01*
X103530Y42300D01*
X108300D01*
Y40300D01*
X103530D01*
X104239Y38587D01*
X105587Y37239D01*
X105894Y37112D01*
Y35488D01*
X105587Y35361D01*
X104239Y34013D01*
X104112Y33706D01*
X102488D01*
X102361Y34013D01*
X101013Y35361D01*
X99300Y36070D01*
Y31300D01*
X97300D01*
Y36070D01*
X95587Y35361D01*
X94239Y34013D01*
X93651Y32592D01*
X92124Y32578D01*
X92068Y32861D01*
X91184Y34184D01*
X86168Y39200D01*
X84845Y40084D01*
X83284Y40395D01*
X81723Y40084D01*
X80400Y39200D01*
X79516Y37877D01*
X79206Y36316D01*
X79020Y36090D01*
X77347D01*
X75587Y35361D01*
X74239Y34013D01*
X73510Y32253D01*
Y32142D01*
X72050Y32046D01*
X71479Y33424D01*
X70424Y34479D01*
X69046Y35050D01*
X67554D01*
X66176Y34479D01*
X65121Y33424D01*
X64550Y32046D01*
Y31964D01*
X63742Y31328D01*
X62248Y31957D01*
X62068Y32861D01*
X61184Y34184D01*
X59861Y35068D01*
X58300Y35378D01*
X56739Y35068D01*
X55416Y34184D01*
X53680Y32447D01*
X52082Y32857D01*
X52029Y32918D01*
X51184Y34184D01*
X49861Y35068D01*
X48300Y35378D01*
X38300D01*
X38300Y35378D01*
X36739Y35068D01*
X35416Y34184D01*
X35416Y34184D01*
X33436Y32203D01*
X31788Y32677D01*
X31479Y33424D01*
X30424Y34479D01*
X29046Y35050D01*
X27554D01*
X26176Y34479D01*
X25121Y33424D01*
X24550Y32046D01*
Y30554D01*
X25121Y29176D01*
X26176Y28121D01*
X27554Y27550D01*
X28326Y26215D01*
X28282Y25598D01*
X27873Y25294D01*
X26739Y25068D01*
X25416Y24184D01*
X24354Y23121D01*
X22584Y23473D01*
X22361Y24013D01*
X21013Y25361D01*
X20473Y25584D01*
X20122Y27354D01*
X21184Y28416D01*
X22068Y29739D01*
X22378Y31300D01*
X22068Y32861D01*
X21184Y34184D01*
X19861Y35068D01*
X18300Y35378D01*
X16739Y35068D01*
X15416Y34184D01*
X10400Y29168D01*
X9516Y27845D01*
X9205Y26284D01*
X9516Y24723D01*
X10400Y23400D01*
X11723Y22516D01*
X13284Y22206D01*
X13510Y22020D01*
Y20347D01*
X14239Y18587D01*
X15587Y17239D01*
X17347Y16510D01*
X19020D01*
X19205Y16284D01*
X19516Y14723D01*
X20400Y13400D01*
X21723Y12516D01*
X23284Y12205D01*
X24845Y12516D01*
X26168Y13400D01*
X27904Y15137D01*
X29502Y14727D01*
X29555Y14665D01*
X30400Y13400D01*
X36684Y7116D01*
X36684Y7116D01*
X38007Y6232D01*
X39568Y5922D01*
X39568Y5922D01*
X47000D01*
X47000Y5922D01*
X48561Y6232D01*
X49884Y7116D01*
X56168Y13400D01*
X56168Y13400D01*
X58810Y16043D01*
X60196Y15469D01*
Y14826D01*
X60410Y13752D01*
X61017Y12843D01*
X62374Y11486D01*
X62580Y10450D01*
X63376Y9259D01*
X64028Y8823D01*
X65346Y7505D01*
X65365Y7315D01*
X65033Y6983D01*
X64500Y5696D01*
Y4304D01*
X65033Y3017D01*
X66017Y2033D01*
X67304Y1500D01*
X68696D01*
X69536Y1848D01*
X70241Y1453D01*
X70223Y1320D01*
X69298Y0D01*
X0D01*
Y432929D01*
X1500Y433550D01*
X2017Y433033D01*
X3304Y432500D01*
X4696D01*
X5983Y433033D01*
X6967Y434017D01*
X7500Y435304D01*
Y436696D01*
X6967Y437983D01*
X5983Y438967D01*
X4696Y439500D01*
X3304D01*
X2017Y438967D01*
X1500Y438450D01*
X0Y439071D01*
Y464000D01*
X3954D01*
X4210Y463759D01*
X4833Y462500D01*
X4500Y461696D01*
Y460304D01*
X5033Y459017D01*
X6017Y458033D01*
X7304Y457500D01*
X8696D01*
X9983Y458033D01*
X10967Y459017D01*
X11500Y460304D01*
Y461696D01*
X11167Y462500D01*
X11790Y463759D01*
X12046Y464000D01*
X41626D01*
X42378Y462184D01*
X44184Y459482D01*
X46482Y457184D01*
X49184Y455378D01*
X52187Y454134D01*
X55375Y453500D01*
X58625D01*
X61813Y454134D01*
X64816Y455378D01*
X67518Y457184D01*
X69816Y459482D01*
X71622Y462184D01*
X72374Y464000D01*
X240000D01*
Y443000D01*
D02*
G37*
G36*
X37903Y448336D02*
X37888Y448171D01*
X37892Y448009D01*
X37914Y447850D01*
X37955Y447693D01*
X38015Y447538D01*
X38094Y447385D01*
X38191Y447235D01*
X38307Y447088D01*
X38442Y446942D01*
X37096Y446167D01*
X36958Y446298D01*
X36670Y446532D01*
X36521Y446635D01*
X36367Y446729D01*
X36210Y446813D01*
X36048Y446887D01*
X35883Y446952D01*
X35714Y447007D01*
X35541Y447053D01*
X37937Y448502D01*
X37903Y448336D01*
D02*
G37*
G36*
X168017Y428017D02*
X168927Y427410D01*
X170000Y427196D01*
X184339D01*
X201517Y410017D01*
X202427Y409410D01*
X203500Y409196D01*
X215596D01*
X216621Y408171D01*
X216000Y406670D01*
X186000D01*
X184595Y406391D01*
X183405Y405596D01*
X166081Y388272D01*
X165285Y387081D01*
X165006Y385677D01*
Y364520D01*
X163156Y362671D01*
X154000D01*
X152595Y362391D01*
X151405Y361595D01*
X149504Y361451D01*
X139006Y371949D01*
Y379762D01*
X138792Y380835D01*
X138184Y381745D01*
X123290Y396639D01*
X123911Y398139D01*
X135904D01*
X137278Y396765D01*
X137300Y396750D01*
X138017Y396033D01*
X139304Y395500D01*
X140696D01*
X141983Y396033D01*
X142967Y397017D01*
X143500Y398304D01*
Y399696D01*
X142967Y400983D01*
X141983Y401967D01*
X140696Y402500D01*
X140483D01*
X139448Y403535D01*
X138422Y404220D01*
X137213Y404461D01*
X120442D01*
X120424Y404479D01*
X119046Y405050D01*
X117554D01*
X116176Y404479D01*
X115121Y403424D01*
X114550Y402046D01*
Y400554D01*
X113649Y399232D01*
X112951D01*
X112058Y400542D01*
X112050Y400568D01*
Y402046D01*
X111479Y403424D01*
X110424Y404479D01*
X109046Y405050D01*
X109143Y406510D01*
X109253D01*
X111013Y407239D01*
X112361Y408587D01*
X113090Y410347D01*
Y410458D01*
X114550Y410554D01*
X115121Y409176D01*
X116176Y408121D01*
X117554Y407550D01*
X119046D01*
X120424Y408121D01*
X121479Y409176D01*
X122050Y410554D01*
Y412046D01*
X121479Y413424D01*
X120424Y414479D01*
X119046Y415050D01*
X119142Y416510D01*
X119253D01*
X121013Y417239D01*
X122361Y418587D01*
X123070Y420300D01*
X118300D01*
Y422300D01*
X123070D01*
X122361Y424013D01*
X121013Y425361D01*
X119253Y426090D01*
X117580D01*
X117395Y426316D01*
X117084Y427877D01*
X116200Y429200D01*
X114877Y430084D01*
X113712Y430316D01*
X112378Y431300D01*
X112068Y432861D01*
X111184Y434184D01*
X109861Y435068D01*
X108300Y435378D01*
X106739Y435068D01*
X105416Y434184D01*
X103436Y432203D01*
X101788Y432677D01*
X101479Y433424D01*
X100424Y434479D01*
X99046Y435050D01*
X98386D01*
X98102Y435611D01*
X97926Y436550D01*
X98712Y437336D01*
X99244Y438622D01*
Y440014D01*
X100034Y441196D01*
X127287D01*
X127421Y440970D01*
X127746Y439696D01*
X127033Y438983D01*
X126500Y437696D01*
Y436304D01*
X127033Y435017D01*
X128017Y434033D01*
X129304Y433500D01*
X130696D01*
X131983Y434033D01*
X132967Y435017D01*
X133500Y436304D01*
Y437696D01*
X132967Y438983D01*
X132254Y439696D01*
X132579Y440970D01*
X132713Y441196D01*
X154839D01*
X168017Y428017D01*
D02*
G37*
G36*
X119858Y402955D02*
X120067Y402838D01*
X120296Y402736D01*
X120545Y402647D01*
X120814Y402571D01*
X121104Y402510D01*
X121413Y402462D01*
X122093Y402407D01*
X122463Y402400D01*
Y400200D01*
X122093Y400193D01*
X121413Y400138D01*
X121104Y400090D01*
X120814Y400029D01*
X120545Y399953D01*
X120296Y399864D01*
X120067Y399762D01*
X119858Y399645D01*
X119670Y399515D01*
Y403085D01*
X119858Y402955D01*
D02*
G37*
G36*
X138535Y401539D02*
X138829Y401287D01*
X138966Y401188D01*
X139096Y401106D01*
X139218Y401043D01*
X139333Y400997D01*
X139441Y400969D01*
X139542Y400959D01*
X139636Y400967D01*
X138027Y398675D01*
X138009Y398742D01*
X137975Y398818D01*
X137927Y398905D01*
X137863Y399003D01*
X137783Y399111D01*
X137577Y399357D01*
X137309Y399646D01*
X137152Y399805D01*
X138376Y401692D01*
X138535Y401539D01*
D02*
G37*
G36*
X133398Y378601D02*
Y370788D01*
X133611Y369715D01*
X134219Y368805D01*
X149965Y353060D01*
X149926Y351329D01*
X143451Y344855D01*
X109582D01*
X109008Y346240D01*
X111184Y348416D01*
X112068Y349739D01*
X112124Y350022D01*
X113651Y350008D01*
X114239Y348587D01*
X115587Y347239D01*
X117300Y346530D01*
Y351300D01*
X118300D01*
Y352300D01*
X123070D01*
X122960Y352567D01*
X123667Y353890D01*
X123996Y353955D01*
X125320Y354839D01*
X126204Y356162D01*
X126514Y357723D01*
X126204Y359284D01*
X125320Y360607D01*
X124780Y360967D01*
X124835Y361842D01*
X125020Y362611D01*
X126200Y363400D01*
X127084Y364723D01*
X127395Y366284D01*
X127084Y367845D01*
X126200Y369168D01*
X121184Y374184D01*
X119861Y375068D01*
X118300Y375378D01*
X116739Y375068D01*
X115416Y374184D01*
X114532Y372861D01*
X114476Y372578D01*
X112949Y372592D01*
X112361Y374013D01*
X111013Y375361D01*
X110706Y375488D01*
Y377112D01*
X111013Y377239D01*
X112361Y378587D01*
X112949Y380008D01*
X114476Y380022D01*
X114532Y379739D01*
X115416Y378416D01*
X116739Y377532D01*
X118300Y377222D01*
X119861Y377532D01*
X121184Y378416D01*
X126200Y383432D01*
X126298Y383579D01*
X128229Y383769D01*
X133398Y378601D01*
D02*
G37*
G36*
X68605Y359071D02*
X68347Y359026D01*
X68092Y358961D01*
X67841Y358878D01*
X67592Y358775D01*
X67347Y358653D01*
X67105Y358511D01*
X66880Y358360D01*
X66814Y358306D01*
X65484Y357064D01*
X64954Y356540D01*
X63540Y357954D01*
X64064Y358484D01*
X65567Y360200D01*
X65653Y360347D01*
X65775Y360592D01*
X65878Y360841D01*
X65961Y361092D01*
X66026Y361347D01*
X66071Y361605D01*
X68605Y359071D01*
D02*
G37*
G36*
X83300Y356300D02*
X86128Y350643D01*
X85563Y351152D01*
X84997Y351548D01*
X84431Y351831D01*
X83866Y352001D01*
X83300Y352057D01*
X82734Y352001D01*
X82169Y351831D01*
X81603Y351548D01*
X81037Y351152D01*
X80472Y350643D01*
X77643Y353472D01*
X78152Y354037D01*
X78548Y354603D01*
X78831Y355169D01*
X79001Y355734D01*
X79057Y356300D01*
X79001Y356866D01*
X78831Y357431D01*
X78548Y357997D01*
X78152Y358563D01*
X77643Y359128D01*
X83300Y356300D01*
D02*
G37*
G36*
X70569Y351093D02*
X70612Y350815D01*
X70676Y350543D01*
X70763Y350277D01*
X70871Y350017D01*
X71002Y349762D01*
X71114Y349578D01*
X71146Y349560D01*
X71223Y349527D01*
X71289Y349509D01*
X71201Y349447D01*
X71328Y349270D01*
X71524Y349032D01*
X71742Y348800D01*
X69936Y347496D01*
X69655Y347771D01*
X69278Y348097D01*
X68998Y347900D01*
X69006Y347993D01*
X68995Y348094D01*
X68968Y348202D01*
X68922Y348317D01*
X68858Y348440D01*
X68829Y348485D01*
X68673Y348621D01*
X68463Y348770D01*
X68268Y348894D01*
X68086Y348993D01*
X67919Y349066D01*
X67767Y349114D01*
X70549Y351376D01*
X70569Y351093D01*
D02*
G37*
G36*
X64682Y345067D02*
X62418D01*
X62443Y345124D01*
X62466Y345242D01*
X62485Y345421D01*
X62529Y346325D01*
X62550Y348385D01*
X64550D01*
X64682Y345067D01*
D02*
G37*
G36*
X255963Y326416D02*
X255985Y326408D01*
X256020Y326400D01*
X256068Y326394D01*
X256205Y326384D01*
X256636Y326376D01*
Y324876D01*
X255661Y324886D01*
X255954Y326426D01*
X255963Y326416D01*
D02*
G37*
G36*
X216276Y293441D02*
X216166Y293303D01*
X216068Y293158D01*
X215984Y293006D01*
X215912Y292847D01*
X215854Y292681D01*
X215809Y292507D01*
X215776Y292327D01*
X215756Y292140D01*
X215750Y291946D01*
X214250D01*
X214244Y292140D01*
X214224Y292327D01*
X214191Y292507D01*
X214146Y292681D01*
X214088Y292847D01*
X214016Y293006D01*
X213932Y293158D01*
X213834Y293303D01*
X213724Y293441D01*
X213600Y293572D01*
X216400D01*
X216276Y293441D01*
D02*
G37*
G36*
X88957Y289128D02*
X88448Y288563D01*
X88052Y287997D01*
X87769Y287431D01*
X87599Y286866D01*
X87543Y286300D01*
X87599Y285734D01*
X87769Y285169D01*
X88052Y284603D01*
X88448Y284037D01*
X88957Y283472D01*
X86785Y281300D01*
X88957Y279128D01*
X88448Y278563D01*
X88052Y277997D01*
X87769Y277431D01*
X87599Y276866D01*
X87543Y276300D01*
X87599Y275734D01*
X87769Y275169D01*
X88052Y274603D01*
X88448Y274037D01*
X88957Y273472D01*
X86129Y270643D01*
X85563Y271152D01*
X84997Y271548D01*
X84431Y271831D01*
X83866Y272001D01*
X83300Y272057D01*
X82734Y272001D01*
X82169Y271831D01*
X81603Y271548D01*
X81037Y271152D01*
X80472Y270643D01*
X78300Y272815D01*
X76128Y270643D01*
X75563Y271152D01*
X74997Y271548D01*
X74431Y271831D01*
X73866Y272001D01*
X73300Y272057D01*
X72734Y272001D01*
X72169Y271831D01*
X71603Y271548D01*
X71037Y271152D01*
X70472Y270643D01*
X68300Y272815D01*
X66128Y270643D01*
X65563Y271152D01*
X64997Y271548D01*
X64431Y271831D01*
X63866Y272001D01*
X63300Y272057D01*
X62734Y272001D01*
X62169Y271831D01*
X61603Y271548D01*
X61037Y271152D01*
X60472Y270643D01*
X58300Y272815D01*
X56128Y270643D01*
X55563Y271152D01*
X54997Y271548D01*
X54431Y271831D01*
X53866Y272001D01*
X53300Y272057D01*
X52734Y272001D01*
X52169Y271831D01*
X51603Y271548D01*
X51037Y271152D01*
X50472Y270643D01*
X47643Y273472D01*
X48152Y274037D01*
X48548Y274603D01*
X48831Y275169D01*
X49001Y275734D01*
X49057Y276300D01*
X49001Y276866D01*
X48831Y277431D01*
X48548Y277997D01*
X48152Y278563D01*
X47643Y279128D01*
X49815Y281300D01*
X47643Y283472D01*
X48152Y284037D01*
X48548Y284603D01*
X48831Y285169D01*
X49001Y285734D01*
X49057Y286300D01*
X49001Y286866D01*
X48831Y287431D01*
X48548Y287997D01*
X48152Y288563D01*
X47643Y289128D01*
X50472Y291957D01*
X51037Y291448D01*
X51603Y291052D01*
X52169Y290769D01*
X52734Y290599D01*
X53300Y290543D01*
X53866Y290599D01*
X54431Y290769D01*
X54997Y291052D01*
X55563Y291448D01*
X56128Y291957D01*
X58300Y289785D01*
X60472Y291957D01*
X61037Y291448D01*
X61603Y291052D01*
X62169Y290769D01*
X62734Y290599D01*
X63300Y290543D01*
X63866Y290599D01*
X64431Y290769D01*
X64997Y291052D01*
X65563Y291448D01*
X66128Y291957D01*
X68300Y289785D01*
X70472Y291957D01*
X71037Y291448D01*
X71603Y291052D01*
X72169Y290769D01*
X72734Y290599D01*
X73300Y290543D01*
X73866Y290599D01*
X74431Y290769D01*
X74997Y291052D01*
X75563Y291448D01*
X76128Y291957D01*
X78300Y289785D01*
X80472Y291957D01*
X81037Y291448D01*
X81603Y291052D01*
X82169Y290769D01*
X82734Y290599D01*
X83300Y290543D01*
X83866Y290599D01*
X84431Y290769D01*
X84997Y291052D01*
X85563Y291448D01*
X86129Y291957D01*
X88957Y289128D01*
D02*
G37*
G36*
X251506Y292554D02*
X251652Y292435D01*
X251802Y292331D01*
X251957Y292241D01*
X252115Y292165D01*
X252278Y292104D01*
X252446Y292056D01*
X252617Y292023D01*
X252793Y292004D01*
X252973Y292000D01*
X251000Y290013D01*
X250994Y290193D01*
X250974Y290368D01*
X250940Y290540D01*
X250892Y290707D01*
X250830Y290870D01*
X250753Y291029D01*
X250663Y291184D01*
X250558Y291334D01*
X250440Y291480D01*
X250307Y291622D01*
X251364Y292687D01*
X251506Y292554D01*
D02*
G37*
G36*
X10460Y288612D02*
X10363Y288461D01*
X10278Y288305D01*
X10204Y288144D01*
X10142Y287977D01*
X10091Y287806D01*
X10051Y287629D01*
X10023Y287447D01*
X10006Y287260D01*
X10000Y287068D01*
X8500Y286863D01*
X8493Y287060D01*
X8472Y287247D01*
X8436Y287424D01*
X8386Y287593D01*
X8322Y287752D01*
X8244Y287901D01*
X8152Y288042D01*
X8045Y288173D01*
X7925Y288295D01*
X7789Y288408D01*
X10568Y288758D01*
X10460Y288612D01*
D02*
G37*
G36*
X254277Y280441D02*
X254166Y280303D01*
X254069Y280158D01*
X253984Y280006D01*
X253913Y279847D01*
X253854Y279681D01*
X253808Y279508D01*
X253776Y279327D01*
X253757Y279140D01*
X253750Y278946D01*
X252250D01*
X252243Y279140D01*
X252224Y279327D01*
X252192Y279508D01*
X252146Y279681D01*
X252087Y279847D01*
X252016Y280006D01*
X251931Y280158D01*
X251834Y280303D01*
X251723Y280441D01*
X251600Y280572D01*
X254400D01*
X254277Y280441D01*
D02*
G37*
G36*
X38497Y253541D02*
X36059Y251103D01*
X36033Y251162D01*
X35962Y251262D01*
X35847Y251404D01*
X35233Y252076D01*
X33787Y253550D01*
X36050Y255813D01*
X38497Y253541D01*
D02*
G37*
G36*
X46855Y249576D02*
X46795Y249599D01*
X46674Y249620D01*
X46492Y249639D01*
X45582Y249680D01*
X43518Y249700D01*
Y252900D01*
X46855Y253024D01*
Y249576D01*
D02*
G37*
G36*
X39806Y253001D02*
X39926Y252980D01*
X40108Y252961D01*
X41018Y252920D01*
X43082Y252900D01*
Y249700D01*
X39746Y249576D01*
Y253024D01*
X39806Y253001D01*
D02*
G37*
G36*
X70574Y251347D02*
X70639Y251092D01*
X70722Y250841D01*
X70825Y250592D01*
X70947Y250347D01*
X71089Y250105D01*
X71240Y249880D01*
X71294Y249814D01*
X72536Y248484D01*
X73060Y247954D01*
X71646Y246540D01*
X71116Y247064D01*
X69400Y248567D01*
X69253Y248653D01*
X69008Y248775D01*
X68759Y248878D01*
X68508Y248961D01*
X68253Y249026D01*
X67995Y249071D01*
X70529Y251605D01*
X70574Y251347D01*
D02*
G37*
G36*
X190077Y247669D02*
X189966Y247531D01*
X189869Y247386D01*
X189784Y247234D01*
X189712Y247075D01*
X189654Y246909D01*
X189608Y246735D01*
X189576Y246555D01*
X189556Y246368D01*
X189550Y246174D01*
X188050D01*
X188043Y246368D01*
X188024Y246555D01*
X187991Y246735D01*
X187946Y246909D01*
X187887Y247075D01*
X187816Y247234D01*
X187731Y247386D01*
X187634Y247531D01*
X187523Y247669D01*
X187400Y247800D01*
X190200D01*
X190077Y247669D01*
D02*
G37*
G36*
X274000Y363219D02*
Y95000D01*
X239000D01*
Y0D01*
X185693D01*
X185270Y995D01*
X185159Y1500D01*
X185891Y2595D01*
X186171Y4000D01*
X185891Y5405D01*
X185095Y6595D01*
X183905Y7391D01*
X182500Y7671D01*
X175716D01*
X174984Y9171D01*
X175391Y9779D01*
X175671Y11184D01*
X175391Y12589D01*
X174596Y13779D01*
X173405Y14575D01*
X172000Y14855D01*
X109582D01*
X109008Y16240D01*
X111184Y18416D01*
X112068Y19739D01*
X112124Y20022D01*
X113651Y20008D01*
X114239Y18587D01*
X115587Y17239D01*
X117300Y16530D01*
Y21300D01*
X118300D01*
Y22300D01*
X123070D01*
X122361Y24013D01*
X121013Y25361D01*
X119593Y25949D01*
X119578Y27476D01*
X119861Y27532D01*
X121184Y28416D01*
X122068Y29739D01*
X122295Y30879D01*
X122935Y31711D01*
X123712Y32284D01*
X124877Y32516D01*
X126200Y33400D01*
X127084Y34723D01*
X127395Y36284D01*
X127084Y37845D01*
X126200Y39168D01*
X124463Y40904D01*
X124873Y42501D01*
X124935Y42554D01*
X126200Y43400D01*
X127084Y44723D01*
X127395Y46284D01*
X127084Y47845D01*
X126200Y49168D01*
X125946Y49422D01*
X126567Y50922D01*
X135489D01*
X135490Y50922D01*
X137050Y51232D01*
X138373Y52116D01*
X141779Y55522D01*
X146451D01*
X147072Y54022D01*
X147033Y53983D01*
X146500Y52696D01*
Y51304D01*
X147033Y50017D01*
X147550Y49500D01*
X146956Y48906D01*
X146424Y47620D01*
Y46227D01*
X146956Y44941D01*
X147941Y43956D01*
X149227Y43424D01*
X150620D01*
X151906Y43956D01*
X152891Y44941D01*
X153424Y46227D01*
Y47620D01*
X152891Y48906D01*
X152762Y49035D01*
X153309Y50536D01*
X154634Y51207D01*
X154917Y51183D01*
X154949Y51179D01*
X156245Y50922D01*
X156245Y50922D01*
X172997D01*
X173571Y49536D01*
X165535Y41500D01*
X165304D01*
X164017Y40967D01*
X163033Y39983D01*
X162500Y38696D01*
Y37304D01*
X163033Y36017D01*
X164017Y35033D01*
X165304Y34500D01*
X166696D01*
X167983Y35033D01*
X168967Y36017D01*
X169500Y37304D01*
Y37535D01*
X259498Y127532D01*
X260105Y128442D01*
X260319Y129515D01*
Y240135D01*
X261819Y241366D01*
X262000Y241329D01*
X263405Y241609D01*
X264596Y242404D01*
X270595Y248405D01*
X271391Y249595D01*
X271670Y251000D01*
Y362983D01*
X272613Y363818D01*
X274000Y363219D01*
D02*
G37*
G36*
X70149Y236818D02*
X66949Y236301D01*
X66946Y236902D01*
X66799Y239325D01*
X66753Y239532D01*
X66701Y239683D01*
X66643Y239778D01*
X70089Y239936D01*
X70149Y236818D01*
D02*
G37*
G36*
X76275Y235599D02*
X74623Y233946D01*
X74598Y234016D01*
X74530Y234125D01*
X74416Y234274D01*
X74055Y234693D01*
X72369Y236439D01*
X73783Y237853D01*
X76275Y235599D01*
D02*
G37*
G36*
X197395Y235452D02*
X197546Y235355D01*
X197702Y235270D01*
X197863Y235195D01*
X198029Y235133D01*
X198200Y235081D01*
X198377Y235041D01*
X198559Y235012D01*
X198746Y234995D01*
X198938Y234990D01*
X199134Y233490D01*
X198938Y233483D01*
X198751Y233461D01*
X198573Y233426D01*
X198404Y233376D01*
X198245Y233312D01*
X198095Y233235D01*
X197954Y233143D01*
X197822Y233036D01*
X197699Y232916D01*
X197586Y232781D01*
X197250Y235561D01*
X197395Y235452D01*
D02*
G37*
G36*
X195980Y232000D02*
X195800Y231995D01*
X195624Y231975D01*
X195453Y231942D01*
X195286Y231894D01*
X195123Y231832D01*
X194964Y231756D01*
X194809Y231666D01*
X194659Y231561D01*
X194513Y231443D01*
X194371Y231310D01*
X193310Y232371D01*
X193443Y232513D01*
X193561Y232659D01*
X193666Y232809D01*
X193756Y232964D01*
X193832Y233123D01*
X193894Y233286D01*
X193942Y233453D01*
X193975Y233624D01*
X193995Y233800D01*
X194000Y233980D01*
X195980Y232000D01*
D02*
G37*
G36*
X246448Y250386D02*
Y218827D01*
X245057Y218503D01*
X244948Y218501D01*
X243983Y219467D01*
X242696Y220000D01*
X241304D01*
X241171Y219945D01*
X239671Y220947D01*
Y245480D01*
X244779Y250588D01*
X244948Y250841D01*
X246448Y250386D01*
D02*
G37*
G36*
X185996Y246348D02*
Y243961D01*
X164017Y221983D01*
X163410Y221073D01*
X163196Y220000D01*
Y215161D01*
X160716Y212681D01*
X158967Y212983D01*
X157983Y213967D01*
X156696Y214500D01*
X155304D01*
X154017Y213967D01*
X153033Y212983D01*
X152500Y211696D01*
Y210304D01*
X153033Y209017D01*
X153623Y208427D01*
X153873Y207500D01*
X153623Y206573D01*
X153033Y205983D01*
X152500Y204696D01*
Y203304D01*
X153033Y202017D01*
X154017Y201033D01*
X155304Y200500D01*
X156413D01*
X156956Y199706D01*
X157149Y199114D01*
X153839Y195804D01*
X136990D01*
X135917Y195590D01*
X135007Y194983D01*
X129628Y189604D01*
X122685D01*
X122050Y190554D01*
Y192046D01*
X121479Y193424D01*
X120424Y194479D01*
X119046Y195050D01*
X119142Y196510D01*
X119253D01*
X121013Y197239D01*
X122361Y198587D01*
X123070Y200300D01*
X118300D01*
Y202300D01*
X123122D01*
X123570Y202972D01*
X139761D01*
X143866Y198866D01*
X145189Y197982D01*
X146750Y197672D01*
X148311Y197982D01*
X149634Y198866D01*
X150518Y200189D01*
X150828Y201750D01*
X150518Y203311D01*
X149634Y204634D01*
X144334Y209934D01*
X143011Y210818D01*
X141450Y211128D01*
X141450Y211128D01*
X117771D01*
X116872Y212628D01*
X117031Y212927D01*
X117311Y212982D01*
X118634Y213866D01*
X118884Y214116D01*
X119768Y215439D01*
X120078Y217000D01*
X120071Y217037D01*
X121023Y218196D01*
X154562D01*
X155634Y218410D01*
X156544Y219017D01*
X184461Y246935D01*
X184557Y246944D01*
X185996Y246348D01*
D02*
G37*
G36*
X158690Y205629D02*
X158557Y205487D01*
X158439Y205341D01*
X158334Y205191D01*
X158244Y205036D01*
X158168Y204877D01*
X158106Y204714D01*
X158058Y204547D01*
X158025Y204376D01*
X158005Y204200D01*
X158000Y204020D01*
X156020Y206000D01*
X156200Y206005D01*
X156376Y206025D01*
X156547Y206058D01*
X156714Y206106D01*
X156877Y206168D01*
X157036Y206244D01*
X157191Y206334D01*
X157341Y206439D01*
X157487Y206557D01*
X157629Y206690D01*
X158690Y205629D01*
D02*
G37*
G36*
X178277Y205441D02*
X178166Y205303D01*
X178069Y205158D01*
X177984Y205006D01*
X177913Y204847D01*
X177854Y204681D01*
X177808Y204508D01*
X177776Y204327D01*
X177757Y204140D01*
X177750Y203946D01*
X176250D01*
X176243Y204140D01*
X176224Y204327D01*
X176192Y204508D01*
X176146Y204681D01*
X176087Y204847D01*
X176016Y205006D01*
X175931Y205158D01*
X175834Y205303D01*
X175723Y205441D01*
X175600Y205572D01*
X178400D01*
X178277Y205441D01*
D02*
G37*
G36*
X89005Y190800D02*
X89025Y190624D01*
X89058Y190453D01*
X89106Y190286D01*
X89168Y190123D01*
X89244Y189964D01*
X89334Y189809D01*
X89439Y189659D01*
X89557Y189513D01*
X89690Y189371D01*
X88629Y188310D01*
X88487Y188443D01*
X88341Y188561D01*
X88191Y188666D01*
X88036Y188756D01*
X87877Y188832D01*
X87714Y188894D01*
X87547Y188942D01*
X87376Y188975D01*
X87200Y188995D01*
X87020Y189000D01*
X89000Y190980D01*
X89005Y190800D01*
D02*
G37*
G36*
X68603Y178775D02*
X68087Y178216D01*
X67670Y177672D01*
X67352Y177141D01*
X67133Y176625D01*
X67012Y176123D01*
X66991Y175635D01*
X67069Y175161D01*
X67246Y174702D01*
X67426Y174411D01*
X68302Y173636D01*
X68429Y173567D01*
X68521Y173539D01*
X66873Y171891D01*
Y171212D01*
X68957Y169128D01*
X68448Y168563D01*
X68052Y167997D01*
X67769Y167431D01*
X67599Y166866D01*
X67543Y166300D01*
X67599Y165734D01*
X67769Y165169D01*
X68052Y164603D01*
X68448Y164037D01*
X68957Y163472D01*
X66128Y160643D01*
X65563Y161152D01*
X64997Y161548D01*
X64431Y161831D01*
X63866Y162001D01*
X63300Y162057D01*
X62734Y162001D01*
X62169Y161831D01*
X61603Y161548D01*
X61037Y161152D01*
X60472Y160643D01*
X57643Y163472D01*
X58152Y164037D01*
X58548Y164603D01*
X58831Y165169D01*
X59001Y165734D01*
X59057Y166300D01*
X59001Y166866D01*
X58831Y167431D01*
X58548Y167997D01*
X58152Y168563D01*
X57643Y169128D01*
X59727Y171212D01*
Y172095D01*
X59095Y172727D01*
X56790D01*
X56976Y169481D01*
X56941Y169485D01*
X56846Y169488D01*
X53950Y169500D01*
X53397Y172500D01*
X53950Y172505D01*
X55684Y172614D01*
X55998Y172664D01*
X56264Y172723D01*
X56483Y172792D01*
X56618Y172853D01*
X56647Y172950D01*
X56683Y173142D01*
X56714Y173387D01*
X56762Y174037D01*
X56800Y175977D01*
X59468D01*
X59588Y176477D01*
X59594Y176623D01*
X56800D01*
X56798Y177188D01*
X56647Y179650D01*
X56606Y179788D01*
X56561Y179873D01*
X58891D01*
X60539Y181521D01*
X60567Y181429D01*
X60636Y181302D01*
X60746Y181141D01*
X60897Y180946D01*
X61272Y180512D01*
X61702Y180246D01*
X62162Y180069D01*
X62635Y179991D01*
X63123Y180012D01*
X63625Y180133D01*
X64142Y180352D01*
X64672Y180670D01*
X65216Y181087D01*
X65775Y181603D01*
X68603Y178775D01*
D02*
G37*
G36*
X120545Y180975D02*
X120562Y180777D01*
X120599Y180581D01*
X120655Y180388D01*
X120730Y180196D01*
X120824Y180007D01*
X120937Y179819D01*
X121069Y179634D01*
X121221Y179451D01*
X121391Y179270D01*
X120330Y178209D01*
X120149Y178379D01*
X119966Y178531D01*
X119781Y178663D01*
X119593Y178776D01*
X119404Y178870D01*
X119212Y178945D01*
X119019Y179001D01*
X118823Y179038D01*
X118625Y179055D01*
X118425Y179053D01*
X120547Y181175D01*
X120545Y180975D01*
D02*
G37*
G36*
X225329Y245743D02*
Y216520D01*
X221405Y212595D01*
X220609Y211405D01*
X220329Y210000D01*
Y144520D01*
X215280Y139471D01*
X212012D01*
X211157Y139300D01*
X210768Y139561D01*
X209884Y140884D01*
X209268Y141500D01*
X209527Y142407D01*
X209832Y143056D01*
X210983Y143533D01*
X211967Y144517D01*
X212500Y145804D01*
Y147196D01*
X211967Y148483D01*
X211950Y148500D01*
X212571Y150000D01*
X212696D01*
X213983Y150533D01*
X214967Y151517D01*
X215500Y152804D01*
Y154196D01*
X214967Y155483D01*
X213983Y156467D01*
X212696Y157000D01*
X211304D01*
X210017Y156467D01*
X209033Y155483D01*
X208500Y154196D01*
Y152804D01*
X209033Y151517D01*
X209050Y151500D01*
X208429Y150000D01*
X208304D01*
X207017Y149467D01*
X206033Y148483D01*
X205557Y147332D01*
X205293Y147120D01*
X204000Y146640D01*
X203061Y147268D01*
X201500Y147578D01*
X201500Y147578D01*
X162246D01*
X162154Y147654D01*
X162078Y147746D01*
Y155000D01*
X162078Y155000D01*
X161768Y156561D01*
X160884Y157884D01*
X160884Y157884D01*
X154584Y164184D01*
X153261Y165068D01*
X151700Y165378D01*
X151700Y165378D01*
X118530D01*
X118290Y165682D01*
X118275Y166099D01*
X119046Y167550D01*
X120424Y168121D01*
X121479Y169176D01*
X122050Y170554D01*
Y171592D01*
X123149Y172383D01*
X123436Y172470D01*
X123527Y172410D01*
X124600Y172196D01*
X159298D01*
X160371Y172410D01*
X161280Y173017D01*
X178983Y190720D01*
X179590Y191630D01*
X179804Y192703D01*
Y204854D01*
X179967Y205017D01*
X180500Y206304D01*
Y207696D01*
X179967Y208983D01*
X178983Y209967D01*
X178326Y210239D01*
X177851Y211886D01*
X196465Y230500D01*
X196696D01*
X197983Y231033D01*
X198386Y231436D01*
X207740D01*
X208813Y231649D01*
X209722Y232257D01*
X223829Y246364D01*
X225329Y245743D01*
D02*
G37*
G36*
X86455Y175270D02*
X88302Y173636D01*
X88429Y173567D01*
X88521Y173539D01*
X86873Y171891D01*
Y169561D01*
X86788Y169606D01*
X86650Y169647D01*
X86458Y169683D01*
X86213Y169714D01*
X85563Y169762D01*
X83623Y169800D01*
Y172800D01*
X84188Y172802D01*
X84622Y172829D01*
X83932Y173547D01*
X86053Y175668D01*
X86455Y175270D01*
D02*
G37*
G36*
X79812Y172994D02*
X79951Y172953D01*
X80142Y172917D01*
X80387Y172886D01*
X81037Y172838D01*
X82977Y172800D01*
Y169800D01*
X82412Y169798D01*
X79951Y169647D01*
X79812Y169606D01*
X79727Y169561D01*
Y173039D01*
X79812Y172994D01*
D02*
G37*
G36*
X76873Y169561D02*
X76788Y169606D01*
X76649Y169647D01*
X76458Y169683D01*
X76213Y169714D01*
X75563Y169762D01*
X73623Y169800D01*
Y172800D01*
X74188Y172802D01*
X76649Y172953D01*
X76788Y172994D01*
X76873Y173039D01*
Y169561D01*
D02*
G37*
G36*
X69812Y172994D02*
X69951Y172953D01*
X70142Y172917D01*
X70387Y172886D01*
X71037Y172838D01*
X72977Y172800D01*
Y169800D01*
X72412Y169798D01*
X69951Y169647D01*
X69812Y169606D01*
X69727Y169561D01*
Y173039D01*
X69812Y172994D01*
D02*
G37*
G36*
X237441Y190807D02*
X238680Y190368D01*
X239033Y189517D01*
X239800Y188750D01*
X239033Y187983D01*
X238500Y186696D01*
Y185304D01*
X239033Y184017D01*
X240017Y183033D01*
X241304Y182500D01*
X242696D01*
X243983Y183033D01*
X244948Y183999D01*
X245057Y183997D01*
X246448Y183673D01*
Y168827D01*
X245057Y168503D01*
X244948Y168501D01*
X243983Y169467D01*
X242696Y170000D01*
X241304D01*
X240017Y169467D01*
X239033Y168483D01*
X238500Y167196D01*
Y165804D01*
X239033Y164517D01*
X239800Y163750D01*
X239033Y162983D01*
X238500Y161696D01*
Y160304D01*
X239033Y159017D01*
X240017Y158033D01*
X241304Y157500D01*
X242696D01*
X243983Y158033D01*
X244948Y158998D01*
X245057Y158997D01*
X246448Y158673D01*
Y147414D01*
X222839Y123804D01*
X213660D01*
X213205Y125304D01*
X213655Y125605D01*
X215480Y127430D01*
X218747D01*
X220151Y127709D01*
X221342Y128504D01*
X233595Y140758D01*
X234391Y141949D01*
X234671Y143353D01*
Y188480D01*
X237000Y190809D01*
X237441Y190807D01*
D02*
G37*
G36*
X8980Y151000D02*
X8800Y150995D01*
X8624Y150975D01*
X8453Y150942D01*
X8286Y150894D01*
X8123Y150832D01*
X7964Y150756D01*
X7809Y150666D01*
X7659Y150561D01*
X7513Y150443D01*
X7371Y150310D01*
X6310Y151371D01*
X6443Y151513D01*
X6561Y151659D01*
X6666Y151809D01*
X6756Y151964D01*
X6832Y152123D01*
X6894Y152286D01*
X6942Y152453D01*
X6975Y152624D01*
X6995Y152800D01*
X7000Y152980D01*
X8980Y151000D01*
D02*
G37*
G36*
X120567Y151438D02*
X120638Y151338D01*
X120753Y151196D01*
X121367Y150524D01*
X122813Y149050D01*
X120550Y146787D01*
X118103Y149059D01*
X120541Y151497D01*
X120567Y151438D01*
D02*
G37*
G36*
X160040Y148740D02*
X160160Y148060D01*
X160360Y147460D01*
X160640Y146940D01*
X161000Y146500D01*
X161440Y146140D01*
X161960Y145860D01*
X162560Y145660D01*
X163240Y145540D01*
X164000Y145500D01*
X158000Y141500D01*
X152472Y145500D01*
X153142Y145540D01*
X153742Y145660D01*
X154271Y145860D01*
X154730Y146140D01*
X155118Y146500D01*
X155435Y146940D01*
X155682Y147460D01*
X155859Y148060D01*
X155965Y148740D01*
X156000Y149500D01*
X160000D01*
X160040Y148740D01*
D02*
G37*
G36*
X68613Y139072D02*
X68323Y139023D01*
X68045Y138960D01*
X67777Y138882D01*
X67519Y138790D01*
X67273Y138683D01*
X67038Y138562D01*
X66814Y138427D01*
X66600Y138276D01*
X66397Y138112D01*
X66206Y137933D01*
X64933Y139205D01*
X65112Y139397D01*
X65276Y139600D01*
X65427Y139813D01*
X65562Y140038D01*
X65683Y140273D01*
X65790Y140520D01*
X65882Y140777D01*
X65960Y141045D01*
X66023Y141323D01*
X66072Y141613D01*
X68613Y139072D01*
D02*
G37*
G36*
X114532Y159739D02*
X115416Y158416D01*
X116739Y157532D01*
X118300Y157222D01*
X150011D01*
X153922Y153311D01*
Y147617D01*
X153896Y147581D01*
X153893Y147578D01*
X152472D01*
X150911Y147268D01*
X149588Y146384D01*
X149588Y146384D01*
X148755Y145551D01*
X147782Y145357D01*
X146459Y144473D01*
X146459Y144473D01*
X142768Y140782D01*
X141884Y139459D01*
X141574Y137899D01*
X141574Y137898D01*
Y137342D01*
X141116Y136884D01*
X140232Y135561D01*
X140061Y134700D01*
X138531D01*
X138391Y135405D01*
X138386Y135412D01*
X138238Y136158D01*
X137442Y137348D01*
X131558Y143233D01*
X131910Y145003D01*
X131983Y145033D01*
X132967Y146017D01*
X133500Y147304D01*
Y148696D01*
X132967Y149983D01*
X131983Y150967D01*
X130696Y151500D01*
X129304D01*
X128017Y150967D01*
X127033Y149983D01*
X127003Y149910D01*
X125233Y149558D01*
X121559Y153232D01*
X121479Y153424D01*
X120424Y154479D01*
X119046Y155050D01*
X117554D01*
X116176Y154479D01*
X115121Y153424D01*
X114550Y152046D01*
X113090Y152142D01*
Y152253D01*
X112361Y154013D01*
X111013Y155361D01*
X110706Y155488D01*
Y157112D01*
X111013Y157239D01*
X112361Y158587D01*
X112949Y160008D01*
X114476Y160022D01*
X114532Y159739D01*
D02*
G37*
G36*
X83300Y136300D02*
X86128Y130643D01*
X85563Y131152D01*
X84997Y131548D01*
X84431Y131831D01*
X83866Y132001D01*
X83300Y132057D01*
X82734Y132001D01*
X82169Y131831D01*
X81603Y131548D01*
X81037Y131152D01*
X80472Y130643D01*
X77643Y133472D01*
X78152Y134037D01*
X78548Y134603D01*
X78831Y135169D01*
X79001Y135734D01*
X79057Y136300D01*
X79001Y136866D01*
X78831Y137431D01*
X78548Y137997D01*
X78152Y138563D01*
X77643Y139128D01*
X83300Y136300D01*
D02*
G37*
G36*
X152767Y135033D02*
X153086Y133277D01*
X141480Y121671D01*
X109622D01*
X109018Y123170D01*
X111088Y125241D01*
X111088Y125241D01*
X111972Y126564D01*
X112283Y128125D01*
Y129390D01*
X113783Y129689D01*
X114239Y128587D01*
X115587Y127239D01*
X117300Y126530D01*
Y131300D01*
X119300D01*
Y126530D01*
X121013Y127239D01*
X122361Y128587D01*
X123090Y130347D01*
X123948Y131051D01*
X124600Y130922D01*
X126000D01*
X127561Y131232D01*
X128884Y132116D01*
X129400Y132888D01*
X129994Y133016D01*
X131456Y132748D01*
X132252Y131558D01*
X132405Y131405D01*
X133595Y130609D01*
X135000Y130330D01*
X136405Y130609D01*
X137596Y131405D01*
X138391Y132595D01*
X138531Y133300D01*
X140061D01*
X140232Y132439D01*
X141116Y131116D01*
X142439Y130232D01*
X144000Y129922D01*
X145561Y130232D01*
X146884Y131116D01*
X148536Y132768D01*
X148536Y132768D01*
X149420Y134092D01*
X149608Y135036D01*
X150361Y135680D01*
X151783Y136017D01*
X152767Y135033D01*
D02*
G37*
G36*
X70567Y131438D02*
X70638Y131338D01*
X70753Y131196D01*
X71367Y130524D01*
X72813Y129050D01*
X70550Y126787D01*
X68103Y129059D01*
X70541Y131497D01*
X70567Y131438D01*
D02*
G37*
G36*
X69577Y118702D02*
X69725Y118576D01*
X69863Y118473D01*
X69991Y118393D01*
X70111Y118336D01*
X70222Y118303D01*
X70323Y118292D01*
X70415Y118305D01*
X70498Y118341D01*
X70572Y118400D01*
X70542Y117991D01*
X70631Y118026D01*
X70727Y118071D01*
X70820Y118123D01*
X70911Y118183D01*
X71000Y118249D01*
Y115751D01*
X70911Y115817D01*
X70820Y115877D01*
X70727Y115929D01*
X70631Y115974D01*
X70532Y116013D01*
X70431Y116044D01*
X70404Y116051D01*
X70387Y115817D01*
X70008Y116100D01*
X70000Y116100D01*
Y116106D01*
X68515Y117212D01*
X69421Y118852D01*
X69577Y118702D01*
D02*
G37*
G36*
X181345Y116805D02*
X181332Y116696D01*
X180116Y115884D01*
X179232Y114561D01*
X178922Y113000D01*
X179232Y111439D01*
X180116Y110116D01*
X192422Y97811D01*
Y85578D01*
X185756D01*
X180776Y90558D01*
X179452Y91442D01*
X177892Y91753D01*
X177892Y91753D01*
X165675D01*
X165674Y91753D01*
X164114Y91442D01*
X162791Y90558D01*
X162791Y90558D01*
X154311Y82078D01*
X126000D01*
X124439Y81768D01*
X123550Y81174D01*
X122163Y81736D01*
X122050Y81838D01*
Y82046D01*
X121479Y83424D01*
X120424Y84479D01*
X119046Y85050D01*
X119142Y86510D01*
X119253D01*
X121013Y87239D01*
X122361Y88587D01*
X123070Y90300D01*
X118300D01*
Y91300D01*
X117300D01*
Y96070D01*
X115587Y95361D01*
X114239Y94013D01*
X113651Y92592D01*
X112124Y92578D01*
X112068Y92861D01*
X111184Y94184D01*
X109918Y95029D01*
X109857Y95083D01*
X109447Y96680D01*
X111184Y98416D01*
X112068Y99739D01*
X112378Y101300D01*
X112300Y101696D01*
X113511Y103196D01*
X153879D01*
X154952Y103410D01*
X155861Y104017D01*
X160346Y108502D01*
X160743Y108767D01*
X163233Y111257D01*
X163498Y111654D01*
X166114Y114270D01*
X167088Y113867D01*
X167500Y113535D01*
Y112304D01*
X168033Y111017D01*
X169017Y110033D01*
X170304Y109500D01*
X171696D01*
X172983Y110033D01*
X173967Y111017D01*
X174500Y112304D01*
Y113696D01*
X173967Y114983D01*
X172983Y115967D01*
X171696Y116500D01*
X171058Y118000D01*
X171225Y118196D01*
X180439D01*
X181345Y116805D01*
D02*
G37*
G36*
X70577Y101323D02*
X70640Y101045D01*
X70718Y100777D01*
X70810Y100520D01*
X70917Y100273D01*
X71038Y100038D01*
X71174Y99813D01*
X71324Y99600D01*
X71488Y99397D01*
X71667Y99206D01*
X70395Y97933D01*
X70203Y98112D01*
X70000Y98276D01*
X69787Y98427D01*
X69562Y98562D01*
X69327Y98683D01*
X69081Y98790D01*
X68823Y98882D01*
X68555Y98960D01*
X68277Y99023D01*
X67987Y99072D01*
X70528Y101613D01*
X70577Y101323D01*
D02*
G37*
G36*
X60577Y101323D02*
X60640Y101045D01*
X60718Y100777D01*
X60810Y100520D01*
X60917Y100273D01*
X61038Y100038D01*
X61174Y99813D01*
X61324Y99600D01*
X61488Y99397D01*
X61667Y99205D01*
X60395Y97933D01*
X60203Y98112D01*
X60000Y98276D01*
X59787Y98427D01*
X59562Y98562D01*
X59327Y98683D01*
X59081Y98790D01*
X58823Y98882D01*
X58555Y98960D01*
X58277Y99023D01*
X57987Y99072D01*
X60528Y101613D01*
X60577Y101323D01*
D02*
G37*
G36*
X50577D02*
X50640Y101045D01*
X50718Y100777D01*
X50810Y100520D01*
X50917Y100273D01*
X51038Y100038D01*
X51174Y99813D01*
X51324Y99600D01*
X51488Y99397D01*
X51667Y99205D01*
X50395Y97933D01*
X50203Y98112D01*
X50000Y98276D01*
X49787Y98427D01*
X49562Y98562D01*
X49327Y98683D01*
X49081Y98790D01*
X48823Y98882D01*
X48555Y98960D01*
X48277Y99023D01*
X47987Y99072D01*
X50528Y101613D01*
X50577Y101323D01*
D02*
G37*
G36*
X71992Y98888D02*
X72289Y98647D01*
X72436Y98550D01*
X72582Y98467D01*
X72727Y98400D01*
X72871Y98348D01*
X73014Y98312D01*
X73156Y98290D01*
X73296Y98284D01*
X71316Y96304D01*
X71310Y96445D01*
X71289Y96586D01*
X71252Y96729D01*
X71200Y96873D01*
X71133Y97018D01*
X71050Y97164D01*
X70953Y97311D01*
X70840Y97459D01*
X70712Y97608D01*
X70568Y97759D01*
X71841Y99032D01*
X71992Y98888D01*
D02*
G37*
G36*
X61992D02*
X62289Y98647D01*
X62436Y98550D01*
X62582Y98467D01*
X62727Y98400D01*
X62871Y98348D01*
X63014Y98312D01*
X63155Y98290D01*
X63296Y98284D01*
X61316Y96304D01*
X61310Y96445D01*
X61288Y96586D01*
X61252Y96729D01*
X61200Y96873D01*
X61133Y97018D01*
X61050Y97164D01*
X60953Y97311D01*
X60840Y97459D01*
X60712Y97608D01*
X60568Y97759D01*
X61841Y99032D01*
X61992Y98888D01*
D02*
G37*
G36*
X51992D02*
X52289Y98647D01*
X52436Y98550D01*
X52582Y98467D01*
X52727Y98400D01*
X52871Y98348D01*
X53014Y98312D01*
X53155Y98290D01*
X53296Y98284D01*
X51316Y96304D01*
X51310Y96445D01*
X51288Y96586D01*
X51252Y96729D01*
X51200Y96873D01*
X51133Y97018D01*
X51050Y97164D01*
X50953Y97311D01*
X50840Y97459D01*
X50712Y97608D01*
X50568Y97759D01*
X51841Y99032D01*
X51992Y98888D01*
D02*
G37*
G36*
X70577Y91323D02*
X70640Y91045D01*
X70718Y90777D01*
X70810Y90520D01*
X70917Y90273D01*
X71038Y90038D01*
X71174Y89813D01*
X71324Y89600D01*
X71488Y89397D01*
X71667Y89206D01*
X70395Y87933D01*
X70203Y88112D01*
X70000Y88276D01*
X69787Y88427D01*
X69562Y88562D01*
X69327Y88683D01*
X69081Y88790D01*
X68823Y88882D01*
X68555Y88960D01*
X68277Y89023D01*
X67987Y89072D01*
X70528Y91613D01*
X70577Y91323D01*
D02*
G37*
G36*
X60577Y91323D02*
X60640Y91045D01*
X60718Y90777D01*
X60810Y90520D01*
X60917Y90273D01*
X61038Y90038D01*
X61174Y89813D01*
X61324Y89600D01*
X61488Y89397D01*
X61667Y89205D01*
X60395Y87933D01*
X60203Y88112D01*
X60000Y88276D01*
X59787Y88427D01*
X59562Y88562D01*
X59327Y88683D01*
X59081Y88790D01*
X58823Y88882D01*
X58555Y88960D01*
X58277Y89023D01*
X57987Y89072D01*
X60528Y91613D01*
X60577Y91323D01*
D02*
G37*
G36*
X50577D02*
X50640Y91045D01*
X50718Y90777D01*
X50810Y90520D01*
X50917Y90273D01*
X51038Y90038D01*
X51174Y89813D01*
X51324Y89600D01*
X51488Y89397D01*
X51667Y89205D01*
X50395Y87933D01*
X50203Y88112D01*
X50000Y88276D01*
X49787Y88427D01*
X49562Y88562D01*
X49327Y88683D01*
X49081Y88790D01*
X48823Y88882D01*
X48555Y88960D01*
X48277Y89023D01*
X47987Y89072D01*
X50528Y91613D01*
X50577Y91323D01*
D02*
G37*
G36*
X71992Y88888D02*
X72289Y88647D01*
X72436Y88550D01*
X72582Y88467D01*
X72727Y88400D01*
X72871Y88348D01*
X73014Y88312D01*
X73156Y88290D01*
X73296Y88284D01*
X71316Y86304D01*
X71310Y86445D01*
X71289Y86586D01*
X71252Y86729D01*
X71200Y86873D01*
X71133Y87018D01*
X71050Y87164D01*
X70953Y87311D01*
X70840Y87459D01*
X70712Y87608D01*
X70568Y87759D01*
X71841Y89032D01*
X71992Y88888D01*
D02*
G37*
G36*
X61992D02*
X62289Y88647D01*
X62436Y88550D01*
X62582Y88467D01*
X62727Y88400D01*
X62871Y88348D01*
X63014Y88312D01*
X63155Y88290D01*
X63296Y88284D01*
X61316Y86304D01*
X61310Y86445D01*
X61288Y86586D01*
X61252Y86729D01*
X61200Y86873D01*
X61133Y87018D01*
X61050Y87164D01*
X60953Y87311D01*
X60840Y87459D01*
X60712Y87608D01*
X60568Y87759D01*
X61841Y89032D01*
X61992Y88888D01*
D02*
G37*
G36*
X51992D02*
X52289Y88647D01*
X52436Y88550D01*
X52582Y88467D01*
X52727Y88400D01*
X52871Y88348D01*
X53014Y88312D01*
X53155Y88290D01*
X53296Y88284D01*
X51316Y86304D01*
X51310Y86445D01*
X51288Y86586D01*
X51252Y86729D01*
X51200Y86873D01*
X51133Y87018D01*
X51050Y87164D01*
X50953Y87311D01*
X50840Y87459D01*
X50712Y87608D01*
X50568Y87759D01*
X51841Y89032D01*
X51992Y88888D01*
D02*
G37*
G36*
X119805Y73001D02*
X119926Y72980D01*
X120108Y72961D01*
X121018Y72920D01*
X123082Y72900D01*
Y69700D01*
X119746Y69576D01*
Y73024D01*
X119805Y73001D01*
D02*
G37*
G36*
X168690Y39629D02*
X168557Y39487D01*
X168439Y39341D01*
X168334Y39191D01*
X168244Y39036D01*
X168168Y38877D01*
X168106Y38714D01*
X168058Y38547D01*
X168025Y38376D01*
X168005Y38200D01*
X168000Y38020D01*
X166020Y40000D01*
X166200Y40005D01*
X166376Y40025D01*
X166547Y40058D01*
X166714Y40106D01*
X166877Y40168D01*
X167036Y40244D01*
X167191Y40334D01*
X167341Y40439D01*
X167487Y40557D01*
X167629Y40690D01*
X168690Y39629D01*
D02*
G37*
G36*
X68175Y29053D02*
X67975Y29055D01*
X67777Y29038D01*
X67581Y29001D01*
X67388Y28945D01*
X67196Y28870D01*
X67007Y28776D01*
X66819Y28663D01*
X66634Y28531D01*
X66451Y28379D01*
X66270Y28209D01*
X65209Y29270D01*
X65380Y29451D01*
X65531Y29634D01*
X65663Y29819D01*
X65776Y30007D01*
X65870Y30196D01*
X65945Y30388D01*
X66001Y30581D01*
X66038Y30777D01*
X66055Y30975D01*
X66054Y31175D01*
X68175Y29053D01*
D02*
G37*
G36*
X70564Y21477D02*
X70636Y21367D01*
X70753Y21218D01*
X71119Y20798D01*
X72813Y19050D01*
X70550Y16787D01*
X68054Y19064D01*
X70536Y21546D01*
X70564Y21477D01*
D02*
G37*
G36*
X63891Y15001D02*
X64903Y14117D01*
X64935Y14098D01*
X65094Y14022D01*
X65257Y13960D01*
X65424Y13912D01*
X65596Y13879D01*
X65771Y13859D01*
X65951Y13854D01*
X65676Y13579D01*
X65751Y13541D01*
X65921Y13478D01*
X66068Y13451D01*
X64374Y11758D01*
X64348Y11904D01*
X64285Y12075D01*
X64247Y12149D01*
X63971Y11874D01*
X63966Y12054D01*
X63947Y12230D01*
X63913Y12401D01*
X63865Y12569D01*
X63803Y12732D01*
X63727Y12890D01*
X63682Y12969D01*
X63424Y13284D01*
X62824Y13934D01*
X62470Y14295D01*
X63530Y15356D01*
X63891Y15001D01*
D02*
G37*
%LPC*%
G36*
X192696Y459500D02*
X191304D01*
X190017Y458967D01*
X189033Y457983D01*
X188500Y456696D01*
Y455304D01*
X189033Y454017D01*
X190017Y453033D01*
X191304Y452500D01*
X192696D01*
X193983Y453033D01*
X194967Y454017D01*
X195500Y455304D01*
Y456696D01*
X194967Y457983D01*
X193983Y458967D01*
X192696Y459500D01*
D02*
G37*
G36*
X94696D02*
X93304D01*
X92017Y458967D01*
X91033Y457983D01*
X90500Y456696D01*
Y455304D01*
X91033Y454017D01*
X92017Y453033D01*
X93304Y452500D01*
X94696D01*
X95983Y453033D01*
X96967Y454017D01*
X97500Y455304D01*
Y456696D01*
X96967Y457983D01*
X95983Y458967D01*
X94696Y459500D01*
D02*
G37*
G36*
X32028Y441651D02*
X32027Y441651D01*
X31770D01*
X30209Y441340D01*
X28886Y440456D01*
X28089Y439264D01*
X27843Y439102D01*
X26411Y438822D01*
X25457Y439775D01*
X24134Y440659D01*
X22573Y440970D01*
X22573Y440970D01*
X22319D01*
X20758Y440659D01*
X19435Y439775D01*
X18551Y438452D01*
X18241Y436892D01*
X17583Y436090D01*
X17347D01*
X15587Y435361D01*
X14239Y434013D01*
X13530Y432300D01*
X18300D01*
Y430300D01*
X13530D01*
X14239Y428587D01*
X15587Y427239D01*
X16127Y427016D01*
X16479Y425246D01*
X15416Y424184D01*
X14532Y422861D01*
X14222Y421300D01*
X14532Y419739D01*
X15416Y418416D01*
X16739Y417532D01*
X18065Y417268D01*
X18273Y416894D01*
X18140Y415260D01*
X17922Y415050D01*
X17554D01*
X16176Y414479D01*
X15121Y413424D01*
X14550Y412046D01*
Y410554D01*
X15121Y409176D01*
X16176Y408121D01*
X17554Y407550D01*
X19046D01*
X20424Y408121D01*
X21479Y409176D01*
X22050Y410554D01*
Y410922D01*
X22540Y411431D01*
X23261Y411437D01*
X24550Y410554D01*
X25121Y409176D01*
X26176Y408121D01*
X27554Y407550D01*
X29046D01*
X30424Y408121D01*
X31479Y409176D01*
X32050Y410554D01*
Y412046D01*
X31479Y413424D01*
X30424Y414479D01*
X29677Y414788D01*
X29204Y416436D01*
X31184Y418416D01*
X32068Y419739D01*
X32169Y420244D01*
X33670Y421031D01*
X34088Y420866D01*
X34189Y420798D01*
X34564Y420520D01*
X35121Y419176D01*
X36176Y418121D01*
X37554Y417550D01*
X39046D01*
X40424Y418121D01*
X41479Y419176D01*
X42050Y420554D01*
Y421882D01*
X42159Y422159D01*
X43185Y423226D01*
X43615Y423160D01*
X44550Y422046D01*
Y420554D01*
X45121Y419176D01*
X46176Y418121D01*
X47554Y417550D01*
X47625D01*
X47766Y417464D01*
X48011Y417426D01*
X48049Y417417D01*
X48903Y416564D01*
Y416549D01*
X49436Y415263D01*
X50420Y414278D01*
X51707Y413745D01*
X53099D01*
X54385Y414278D01*
X55370Y415263D01*
X55903Y416549D01*
Y416610D01*
X57403Y417613D01*
X57554Y417550D01*
X59046D01*
X60424Y418121D01*
X61479Y419176D01*
X62050Y420554D01*
Y420598D01*
X62131Y420728D01*
X62150Y420843D01*
X63028Y421411D01*
X63324Y421562D01*
X64550Y420762D01*
Y420554D01*
X65121Y419176D01*
X66176Y418121D01*
X67554Y417550D01*
X69046D01*
X70424Y418121D01*
X71479Y419176D01*
X72050Y420554D01*
Y420598D01*
X72131Y420728D01*
X72150Y420843D01*
X73028Y421411D01*
X73324Y421562D01*
X74550Y420762D01*
Y420554D01*
X75121Y419176D01*
X76176Y418121D01*
X76468Y418000D01*
X76329Y416730D01*
X76237Y416472D01*
X75017Y415967D01*
X74033Y414983D01*
X73500Y413696D01*
Y412304D01*
X74033Y411017D01*
X75017Y410033D01*
X76304Y409500D01*
X77696D01*
X78983Y410033D01*
X79967Y411017D01*
X80500Y412304D01*
Y413696D01*
X79967Y414983D01*
X78983Y415967D01*
X78783Y416050D01*
X79035Y417485D01*
X79063Y417557D01*
X80424Y418121D01*
X81479Y419176D01*
X82050Y420554D01*
Y422046D01*
X81479Y423424D01*
X80424Y424479D01*
X79046Y425050D01*
X77554D01*
X76365Y425937D01*
X76289Y426451D01*
X77531Y427530D01*
X77639Y427550D01*
X79046D01*
X80424Y428121D01*
X81479Y429176D01*
X82050Y430554D01*
Y432046D01*
X81479Y433424D01*
X80424Y434479D01*
X79046Y435050D01*
X77554D01*
X76176Y434479D01*
X75121Y433424D01*
X74550Y432046D01*
Y430718D01*
X74441Y430441D01*
X73415Y429375D01*
X72985Y429440D01*
X72050Y430554D01*
Y432046D01*
X71479Y433424D01*
X70424Y434479D01*
X69046Y435050D01*
X69002D01*
X68872Y435131D01*
X68625Y435172D01*
X68585Y435181D01*
X67685Y436081D01*
X67164Y437337D01*
X66180Y438322D01*
X64893Y438854D01*
X63501D01*
X62215Y438322D01*
X61230Y437337D01*
X60697Y436051D01*
Y435990D01*
X59197Y434987D01*
X59046Y435050D01*
X57554D01*
X56176Y434479D01*
X55121Y433424D01*
X54550Y432046D01*
Y432002D01*
X54469Y431872D01*
X54450Y431757D01*
X53573Y431189D01*
X53276Y431038D01*
X52050Y431838D01*
Y432046D01*
X51479Y433424D01*
X50424Y434479D01*
X49046Y435050D01*
X47554D01*
X46176Y434479D01*
X45121Y433424D01*
X44550Y432046D01*
X44134Y431695D01*
X43619Y431423D01*
X42196Y432219D01*
X42068Y432861D01*
X41184Y434184D01*
X34911Y440456D01*
X33588Y441340D01*
X33329Y441392D01*
X32028Y441651D01*
D02*
G37*
G36*
X217118Y460500D02*
X212882D01*
X208729Y459674D01*
X204816Y458053D01*
X201295Y455700D01*
X198300Y452705D01*
X195947Y449184D01*
X194326Y445271D01*
X193500Y441118D01*
Y436882D01*
X194326Y432729D01*
X195947Y428816D01*
X198300Y425295D01*
X201295Y422300D01*
X204816Y419947D01*
X208729Y418326D01*
X212882Y417500D01*
X217118D01*
X221271Y418326D01*
X225184Y419947D01*
X228705Y422300D01*
X231700Y425295D01*
X234053Y428816D01*
X235674Y432729D01*
X236500Y436882D01*
Y441118D01*
X235674Y445271D01*
X234053Y449184D01*
X231700Y452705D01*
X228705Y455700D01*
X225184Y458053D01*
X221271Y459674D01*
X217118Y460500D01*
D02*
G37*
G36*
X265696Y420500D02*
X264304D01*
X263017Y419967D01*
X262033Y418983D01*
X261500Y417696D01*
Y416304D01*
X262033Y415017D01*
X263017Y414033D01*
X264304Y413500D01*
X265696D01*
X266983Y414033D01*
X267967Y415017D01*
X268500Y416304D01*
Y417696D01*
X267967Y418983D01*
X266983Y419967D01*
X265696Y420500D01*
D02*
G37*
G36*
X67696Y414500D02*
X66304D01*
X65017Y413967D01*
X64033Y412983D01*
X63500Y411696D01*
Y410304D01*
X62458Y408900D01*
X62317Y408842D01*
X61333Y407858D01*
X60977Y406999D01*
X59414Y406023D01*
X59300Y406070D01*
Y401300D01*
X57300D01*
Y406070D01*
X55587Y405361D01*
X54239Y404013D01*
X54112Y403706D01*
X52488D01*
X52361Y404013D01*
X51013Y405361D01*
X49300Y406070D01*
Y401300D01*
X48300D01*
Y400300D01*
X43530D01*
X44239Y398587D01*
X45587Y397239D01*
X45894Y397112D01*
Y395488D01*
X45587Y395361D01*
X44239Y394013D01*
X43530Y392300D01*
X48300D01*
Y390300D01*
X43530D01*
X44239Y388587D01*
X45587Y387239D01*
X45894Y387112D01*
Y385488D01*
X45587Y385361D01*
X44239Y384013D01*
X43530Y382300D01*
X48300D01*
Y381300D01*
X49300D01*
Y376530D01*
X51013Y377239D01*
X52361Y378587D01*
X52488Y378894D01*
X54112D01*
X54239Y378587D01*
X55587Y377239D01*
X57300Y376530D01*
Y381300D01*
X59300D01*
Y376530D01*
X61013Y377239D01*
X62361Y378587D01*
X62488Y378894D01*
X64112D01*
X64239Y378587D01*
X65587Y377239D01*
X67300Y376530D01*
Y381300D01*
X69300D01*
Y376530D01*
X71013Y377239D01*
X72361Y378587D01*
X72488Y378894D01*
X74112D01*
X74239Y378587D01*
X75587Y377239D01*
X77300Y376530D01*
Y381300D01*
X79300D01*
Y376530D01*
X81013Y377239D01*
X82361Y378587D01*
X82488Y378894D01*
X84112D01*
X84239Y378587D01*
X85587Y377239D01*
X87300Y376530D01*
Y381300D01*
X88300D01*
Y382300D01*
X93070D01*
X92361Y384013D01*
X91013Y385361D01*
X90706Y385488D01*
Y387112D01*
X91013Y387239D01*
X92361Y388587D01*
X93070Y390300D01*
X88300D01*
Y392300D01*
X93070D01*
X92361Y394013D01*
X91013Y395361D01*
X90706Y395488D01*
Y397112D01*
X91013Y397239D01*
X92361Y398587D01*
X93070Y400300D01*
X88300D01*
Y401300D01*
X87300D01*
Y406071D01*
X85587Y405361D01*
X84239Y404013D01*
X84112Y403706D01*
X82488D01*
X82361Y404013D01*
X81013Y405361D01*
X79300Y406070D01*
Y401300D01*
X77300D01*
Y406070D01*
X75587Y405361D01*
X74239Y404013D01*
X74112Y403706D01*
X72488D01*
X72361Y404013D01*
X71013Y405361D01*
X69297Y406072D01*
X69253Y406090D01*
X69021Y406589D01*
X68983Y408033D01*
X69967Y409017D01*
X70500Y410304D01*
Y411696D01*
X69967Y412983D01*
X68983Y413967D01*
X67696Y414500D01*
D02*
G37*
G36*
X10196Y411500D02*
X8804D01*
X7517Y410967D01*
X6533Y409983D01*
X6000Y408696D01*
Y407304D01*
X6533Y406017D01*
X7517Y405033D01*
X8804Y404500D01*
X10196D01*
X11483Y405033D01*
X12467Y406017D01*
X13000Y407304D01*
Y408696D01*
X12467Y409983D01*
X11483Y410967D01*
X10196Y411500D01*
D02*
G37*
G36*
X237696Y410500D02*
X236304D01*
X235017Y409967D01*
X234033Y408983D01*
X233500Y407696D01*
Y406304D01*
X234033Y405017D01*
X235017Y404033D01*
X236304Y403500D01*
X237696D01*
X238983Y404033D01*
X239967Y405017D01*
X240500Y406304D01*
Y407696D01*
X239967Y408983D01*
X238983Y409967D01*
X237696Y410500D01*
D02*
G37*
G36*
X89300Y406070D02*
Y402300D01*
X93070D01*
X92361Y404013D01*
X91013Y405361D01*
X89300Y406070D01*
D02*
G37*
G36*
X47300Y406071D02*
X45587Y405361D01*
X44239Y404013D01*
X43530Y402300D01*
X47300D01*
Y406071D01*
D02*
G37*
G36*
X29046Y405050D02*
X27554D01*
X26176Y404479D01*
X25121Y403424D01*
X24550Y402046D01*
Y400554D01*
X25121Y399176D01*
X26176Y398121D01*
X27554Y397550D01*
X29046D01*
X30424Y398121D01*
X31479Y399176D01*
X32050Y400554D01*
Y402046D01*
X31479Y403424D01*
X30424Y404479D01*
X29046Y405050D01*
D02*
G37*
G36*
X19046D02*
X17554D01*
X16176Y404479D01*
X15121Y403424D01*
X14550Y402046D01*
Y400554D01*
X15121Y399176D01*
X16176Y398121D01*
X17554Y397550D01*
X19046D01*
X20424Y398121D01*
X21479Y399176D01*
X22050Y400554D01*
Y402046D01*
X21479Y403424D01*
X20424Y404479D01*
X19046Y405050D01*
D02*
G37*
G36*
X29046Y395050D02*
X27554D01*
X26176Y394479D01*
X25121Y393424D01*
X24550Y392046D01*
Y390554D01*
X25121Y389176D01*
X26176Y388121D01*
X27554Y387550D01*
X29046D01*
X30424Y388121D01*
X31479Y389176D01*
X32050Y390554D01*
Y392046D01*
X31479Y393424D01*
X30424Y394479D01*
X29046Y395050D01*
D02*
G37*
G36*
X19046D02*
X17554D01*
X16176Y394479D01*
X15121Y393424D01*
X14550Y392046D01*
Y390554D01*
X15121Y389176D01*
X16176Y388121D01*
X17554Y387550D01*
X19046D01*
X20424Y388121D01*
X21479Y389176D01*
X22050Y390554D01*
Y392046D01*
X21479Y393424D01*
X20424Y394479D01*
X19046Y395050D01*
D02*
G37*
G36*
X29046Y385050D02*
X27554D01*
X26176Y384479D01*
X25121Y383424D01*
X24550Y382046D01*
Y380554D01*
X25121Y379176D01*
X26176Y378121D01*
X27554Y377550D01*
X29046D01*
X30424Y378121D01*
X31479Y379176D01*
X32050Y380554D01*
Y382046D01*
X31479Y383424D01*
X30424Y384479D01*
X29046Y385050D01*
D02*
G37*
G36*
X19046D02*
X17554D01*
X16176Y384479D01*
X15121Y383424D01*
X14550Y382046D01*
Y380554D01*
X15121Y379176D01*
X16176Y378121D01*
X17554Y377550D01*
X19046D01*
X20424Y378121D01*
X21479Y379176D01*
X22050Y380554D01*
Y382046D01*
X21479Y383424D01*
X20424Y384479D01*
X19046Y385050D01*
D02*
G37*
G36*
X93070Y380300D02*
X89300D01*
Y376530D01*
X91013Y377239D01*
X92361Y378587D01*
X93070Y380300D01*
D02*
G37*
G36*
X47300D02*
X43530D01*
X44239Y378587D01*
X45587Y377239D01*
X47300Y376530D01*
Y380300D01*
D02*
G37*
G36*
X73696Y375500D02*
X72304D01*
X71017Y374967D01*
X70033Y373983D01*
X69500Y372696D01*
Y371304D01*
X70033Y370017D01*
X71017Y369033D01*
X72304Y368500D01*
X73696D01*
X74983Y369033D01*
X75967Y370017D01*
X76500Y371304D01*
Y372696D01*
X75967Y373983D01*
X74983Y374967D01*
X73696Y375500D01*
D02*
G37*
G36*
X19046Y375050D02*
X17554D01*
X16176Y374479D01*
X15121Y373424D01*
X14550Y372046D01*
Y370554D01*
X15121Y369176D01*
X16176Y368121D01*
X17554Y367550D01*
X19046D01*
X20424Y368121D01*
X21479Y369176D01*
X22050Y370554D01*
Y372046D01*
X21479Y373424D01*
X20424Y374479D01*
X19046Y375050D01*
D02*
G37*
G36*
X17300Y350300D02*
X13529D01*
X14239Y348587D01*
X15587Y347239D01*
X17300Y346530D01*
Y350300D01*
D02*
G37*
G36*
X108300Y325378D02*
X106739Y325068D01*
X105416Y324184D01*
X103436Y322203D01*
X101788Y322677D01*
X101479Y323424D01*
X100424Y324479D01*
X99046Y325050D01*
X97554D01*
X96176Y324479D01*
X95121Y323424D01*
X94550Y322046D01*
Y320554D01*
X95121Y319176D01*
X96176Y318121D01*
X96923Y317812D01*
X97396Y316164D01*
X95416Y314184D01*
X94532Y312861D01*
X94222Y311300D01*
X94532Y309739D01*
X95416Y308416D01*
X96739Y307532D01*
X98170Y307248D01*
X99206Y306284D01*
X99516Y304723D01*
X100400Y303400D01*
X101723Y302516D01*
X103284Y302206D01*
X103510Y302020D01*
Y300347D01*
X104239Y298587D01*
X105587Y297239D01*
X107347Y296510D01*
X107458D01*
X107554Y295050D01*
X106176Y294479D01*
X105121Y293424D01*
X104550Y292046D01*
Y290554D01*
X105121Y289176D01*
X106176Y288121D01*
X107554Y287550D01*
X109046D01*
X110424Y288121D01*
X111479Y289176D01*
X112050Y290554D01*
Y292046D01*
X111479Y293424D01*
X110424Y294479D01*
X109046Y295050D01*
X109143Y296510D01*
X109253D01*
X111013Y297239D01*
X112361Y298587D01*
X113090Y300347D01*
Y300458D01*
X114550Y300554D01*
X115121Y299176D01*
X116176Y298121D01*
X117554Y297550D01*
X119046D01*
X120424Y298121D01*
X121479Y299176D01*
X122050Y300554D01*
Y302046D01*
X121479Y303424D01*
X120424Y304479D01*
X119046Y305050D01*
X119142Y306510D01*
X119253D01*
X121013Y307239D01*
X122361Y308587D01*
X123070Y310300D01*
X118300D01*
Y311300D01*
X117300D01*
Y316070D01*
X115587Y315361D01*
X114239Y314013D01*
X113651Y312592D01*
X112124Y312578D01*
X112068Y312861D01*
X111184Y314184D01*
X109918Y315029D01*
X109857Y315082D01*
X109447Y316680D01*
X111184Y318416D01*
X112068Y319739D01*
X112378Y321300D01*
X112068Y322861D01*
X111184Y324184D01*
X109861Y325068D01*
X108300Y325378D01*
D02*
G37*
G36*
X89046Y325050D02*
X87554D01*
X86176Y324479D01*
X85121Y323424D01*
X84550Y322046D01*
Y320554D01*
X85121Y319176D01*
X86176Y318121D01*
X87554Y317550D01*
X89046D01*
X90424Y318121D01*
X91479Y319176D01*
X92050Y320554D01*
Y322046D01*
X91479Y323424D01*
X90424Y324479D01*
X89046Y325050D01*
D02*
G37*
G36*
X181696Y323500D02*
X180304D01*
X179017Y322967D01*
X178033Y321983D01*
X177500Y320696D01*
Y319304D01*
X178033Y318017D01*
X179017Y317033D01*
X180304Y316500D01*
X181696D01*
X182983Y317033D01*
X183967Y318017D01*
X184500Y319304D01*
Y320696D01*
X183967Y321983D01*
X182983Y322967D01*
X181696Y323500D01*
D02*
G37*
G36*
X119300Y316070D02*
Y312300D01*
X123070D01*
X122361Y314013D01*
X121013Y315361D01*
X119300Y316070D01*
D02*
G37*
G36*
X89046Y315050D02*
X87554D01*
X86176Y314479D01*
X85121Y313424D01*
X84550Y312046D01*
Y310554D01*
X85121Y309176D01*
X86176Y308121D01*
X87554Y307550D01*
X89046D01*
X90424Y308121D01*
X91479Y309176D01*
X92050Y310554D01*
Y312046D01*
X91479Y313424D01*
X90424Y314479D01*
X89046Y315050D01*
D02*
G37*
G36*
X19046Y305050D02*
X17554D01*
X16176Y304479D01*
X15322Y303625D01*
X14431Y304516D01*
X13144Y305049D01*
X11752D01*
X10466Y304516D01*
X9481Y303532D01*
X8948Y302245D01*
Y300853D01*
X9481Y299566D01*
X10466Y298582D01*
X11752Y298049D01*
X13144D01*
X14431Y298582D01*
X16120Y298177D01*
X16176Y298121D01*
X17554Y297550D01*
X19046D01*
X20424Y298121D01*
X21479Y299176D01*
X22050Y300554D01*
Y302046D01*
X21479Y303424D01*
X20424Y304479D01*
X19046Y305050D01*
D02*
G37*
G36*
X31600Y331670D02*
X7000D01*
X5595Y331391D01*
X4405Y330596D01*
X3609Y329405D01*
X3329Y328000D01*
X3609Y326595D01*
X4405Y325405D01*
X5595Y324609D01*
X7000Y324329D01*
X12747D01*
X13749Y322830D01*
X13530Y322300D01*
X18300D01*
Y320300D01*
X13530D01*
X14239Y318587D01*
X15046Y317780D01*
X14232Y316561D01*
X13922Y315000D01*
X14126Y313972D01*
Y311396D01*
X14126Y311396D01*
X14436Y309835D01*
X15321Y308512D01*
X15416Y308416D01*
X16739Y307532D01*
X18300Y307222D01*
X19861Y307532D01*
X21184Y308416D01*
X22068Y309739D01*
X22378Y311300D01*
X23312Y312117D01*
X23342Y312126D01*
X24222Y311300D01*
X24532Y309739D01*
X25416Y308416D01*
X26739Y307532D01*
X28300Y307222D01*
X29861Y307532D01*
X31184Y308416D01*
X32920Y310153D01*
X34518Y309743D01*
X34571Y309682D01*
X35416Y308416D01*
X40432Y303400D01*
X41755Y302516D01*
X43316Y302206D01*
X44877Y302516D01*
X46200Y303400D01*
X47084Y304723D01*
X47331Y305966D01*
X48246Y306442D01*
X48699Y306526D01*
X49816Y305588D01*
X50349Y304301D01*
X51333Y303317D01*
X52620Y302784D01*
X54012D01*
X55299Y303317D01*
X56283Y304301D01*
X56816Y305588D01*
Y306232D01*
X56890Y306365D01*
X57007Y306520D01*
X58592Y306827D01*
X59816Y305602D01*
Y305588D01*
X60349Y304301D01*
X61333Y303317D01*
X62620Y302784D01*
X64012D01*
X65299Y303317D01*
X66283Y304301D01*
X66816Y305588D01*
Y306232D01*
X66890Y306365D01*
X67007Y306520D01*
X68592Y306827D01*
X69816Y305602D01*
Y305588D01*
X70349Y304301D01*
X71333Y303317D01*
X72620Y302784D01*
X74012D01*
X75299Y303317D01*
X76283Y304301D01*
X76816Y305588D01*
Y306232D01*
X77360Y307204D01*
X78202Y307550D01*
X79046D01*
X80424Y308121D01*
X81479Y309176D01*
X82050Y310554D01*
Y312046D01*
X81479Y313424D01*
X80424Y314479D01*
X79046Y315050D01*
X78202D01*
X78092Y315093D01*
X77568Y316318D01*
X78049Y317487D01*
X78202Y317550D01*
X79046D01*
X80424Y318121D01*
X81479Y319176D01*
X82050Y320554D01*
Y322046D01*
X81479Y323424D01*
X80424Y324479D01*
X79046Y325050D01*
X77554D01*
X76176Y324479D01*
X75121Y323424D01*
X74550Y322046D01*
Y321764D01*
X73166Y321072D01*
X73103Y321108D01*
X72145Y321787D01*
X72129Y321883D01*
X72050Y322009D01*
Y322046D01*
X71479Y323424D01*
X70424Y324479D01*
X69046Y325050D01*
X67554D01*
X66176Y324479D01*
X65121Y323424D01*
X64550Y322046D01*
Y321764D01*
X63166Y321072D01*
X63103Y321108D01*
X62145Y321787D01*
X62129Y321883D01*
X62050Y322009D01*
Y322046D01*
X61479Y323424D01*
X60424Y324479D01*
X59046Y325050D01*
X57554D01*
X56176Y324479D01*
X55121Y323424D01*
X54550Y322046D01*
Y321764D01*
X53166Y321072D01*
X53103Y321108D01*
X52145Y321787D01*
X52129Y321883D01*
X52050Y322009D01*
Y322046D01*
X51479Y323424D01*
X50424Y324479D01*
X49046Y325050D01*
X47554D01*
X46176Y324479D01*
X45121Y323424D01*
X44550Y322046D01*
Y320554D01*
X45121Y319176D01*
X46176Y318121D01*
X47554Y317550D01*
X47591D01*
X47717Y317471D01*
X47813Y317455D01*
X48492Y316497D01*
X48528Y316434D01*
X47836Y315050D01*
X47554D01*
X46176Y314479D01*
X45121Y313424D01*
X44812Y312677D01*
X43164Y312204D01*
X41184Y314184D01*
X39861Y315068D01*
X38512Y315336D01*
X37967Y316345D01*
X38918Y317550D01*
X39046D01*
X40424Y318121D01*
X41479Y319176D01*
X42050Y320554D01*
Y322046D01*
X41479Y323424D01*
X40424Y324479D01*
X40232Y324558D01*
X34195Y330596D01*
X33005Y331391D01*
X31600Y331670D01*
D02*
G37*
G36*
X148696Y305500D02*
X147304D01*
X146017Y304967D01*
X145033Y303983D01*
X144500Y302696D01*
Y301304D01*
X145033Y300017D01*
X146017Y299033D01*
X147304Y298500D01*
X148696D01*
X149983Y299033D01*
X150967Y300017D01*
X151500Y301304D01*
Y302696D01*
X150967Y303983D01*
X149983Y304967D01*
X148696Y305500D01*
D02*
G37*
G36*
X29046Y305050D02*
X27554D01*
X26176Y304479D01*
X25121Y303424D01*
X24550Y302046D01*
Y300554D01*
X25121Y299176D01*
X26176Y298121D01*
X27554Y297550D01*
X29046D01*
X30424Y298121D01*
X31479Y299176D01*
X32050Y300554D01*
Y302046D01*
X31479Y303424D01*
X30424Y304479D01*
X29046Y305050D01*
D02*
G37*
G36*
X151696Y296500D02*
X150304D01*
X149017Y295967D01*
X148033Y294983D01*
X147815Y294457D01*
X147462Y294104D01*
X120799D01*
X120424Y294479D01*
X119046Y295050D01*
X117554D01*
X116176Y294479D01*
X115121Y293424D01*
X114550Y292046D01*
Y290554D01*
X115121Y289176D01*
X116176Y288121D01*
X117554Y287550D01*
X119046D01*
X120424Y288121D01*
X120799Y288496D01*
X148624D01*
X149697Y288710D01*
X150606Y289317D01*
X150789Y289500D01*
X151696D01*
X152983Y290033D01*
X153967Y291017D01*
X154500Y292304D01*
Y293696D01*
X153967Y294983D01*
X152983Y295967D01*
X151696Y296500D01*
D02*
G37*
G36*
X89300Y296070D02*
Y292300D01*
X93070D01*
X92361Y294013D01*
X91013Y295361D01*
X89300Y296070D01*
D02*
G37*
G36*
X47300Y296070D02*
X45587Y295361D01*
X44239Y294013D01*
X43530Y292300D01*
X47300D01*
Y296070D01*
D02*
G37*
G36*
X29046Y295050D02*
X27554D01*
X26176Y294479D01*
X25121Y293424D01*
X24550Y292046D01*
Y290554D01*
X25121Y289176D01*
X26176Y288121D01*
X27554Y287550D01*
X29046D01*
X30424Y288121D01*
X31479Y289176D01*
X32050Y290554D01*
Y292046D01*
X31479Y293424D01*
X30424Y294479D01*
X29046Y295050D01*
D02*
G37*
G36*
X19046D02*
X17554D01*
X16176Y294479D01*
X15121Y293424D01*
X14550Y292046D01*
Y290554D01*
X15121Y289176D01*
X16176Y288121D01*
X17554Y287550D01*
X19046D01*
X20424Y288121D01*
X21479Y289176D01*
X22050Y290554D01*
Y292046D01*
X21479Y293424D01*
X20424Y294479D01*
X19046Y295050D01*
D02*
G37*
G36*
X119046Y285050D02*
X117554D01*
X116176Y284479D01*
X115121Y283424D01*
X114550Y282046D01*
Y280554D01*
X115121Y279176D01*
X116176Y278121D01*
X117554Y277550D01*
X119046D01*
X120424Y278121D01*
X121479Y279176D01*
X122050Y280554D01*
Y282046D01*
X121479Y283424D01*
X120424Y284479D01*
X119046Y285050D01*
D02*
G37*
G36*
X29046D02*
X27554D01*
X26176Y284479D01*
X25121Y283424D01*
X24550Y282046D01*
Y280554D01*
X25121Y279176D01*
X26176Y278121D01*
X27554Y277550D01*
X29046D01*
X30424Y278121D01*
X31479Y279176D01*
X32050Y280554D01*
Y282046D01*
X31479Y283424D01*
X30424Y284479D01*
X29046Y285050D01*
D02*
G37*
G36*
X19046D02*
X17554D01*
X16176Y284479D01*
X15121Y283424D01*
X14550Y282046D01*
Y280554D01*
X15121Y279176D01*
X16176Y278121D01*
X17554Y277550D01*
X19046D01*
X20424Y278121D01*
X21479Y279176D01*
X22050Y280554D01*
Y282046D01*
X21479Y283424D01*
X20424Y284479D01*
X19046Y285050D01*
D02*
G37*
G36*
X29046Y275050D02*
X27554D01*
X26176Y274479D01*
X25121Y273424D01*
X24550Y272046D01*
Y270554D01*
X25121Y269176D01*
X26176Y268121D01*
X27554Y267550D01*
X29046D01*
X30424Y268121D01*
X31479Y269176D01*
X32050Y270554D01*
Y272046D01*
X31479Y273424D01*
X30424Y274479D01*
X29046Y275050D01*
D02*
G37*
G36*
X19046D02*
X17554D01*
X16176Y274479D01*
X15121Y273424D01*
X14550Y272046D01*
Y270554D01*
X15121Y269176D01*
X16176Y268121D01*
X17554Y267550D01*
X19046D01*
X20424Y268121D01*
X21479Y269176D01*
X22050Y270554D01*
Y272046D01*
X21479Y273424D01*
X20424Y274479D01*
X19046Y275050D01*
D02*
G37*
G36*
X93070Y270300D02*
X89300D01*
Y266530D01*
X91013Y267239D01*
X92361Y268587D01*
X93070Y270300D01*
D02*
G37*
G36*
X47300D02*
X43530D01*
X44239Y268587D01*
X45587Y267239D01*
X47300Y266530D01*
Y270300D01*
D02*
G37*
G36*
X19046Y265050D02*
X17554D01*
X16176Y264479D01*
X15121Y263424D01*
X14550Y262046D01*
Y260554D01*
X15121Y259176D01*
X16176Y258121D01*
X17554Y257550D01*
X19046D01*
X20424Y258121D01*
X21479Y259176D01*
X22050Y260554D01*
Y262046D01*
X21479Y263424D01*
X20424Y264479D01*
X19046Y265050D01*
D02*
G37*
G36*
X33284Y220394D02*
X31723Y220084D01*
X30400Y219200D01*
X29555Y217934D01*
X29502Y217873D01*
X27904Y217463D01*
X26168Y219200D01*
X24845Y220084D01*
X23284Y220394D01*
X21723Y220084D01*
X20400Y219200D01*
X19516Y217877D01*
X19205Y216316D01*
X19020Y216090D01*
X17347D01*
X15587Y215361D01*
X14239Y214013D01*
X13529Y212300D01*
X18300D01*
Y210300D01*
X13467D01*
X12393Y209123D01*
X12017Y208967D01*
X11787Y208736D01*
X9898Y208863D01*
X9884Y208884D01*
X8561Y209768D01*
X7000Y210078D01*
X5439Y209768D01*
X4116Y208884D01*
X3232Y207561D01*
X2922Y206000D01*
Y200343D01*
X2922Y200343D01*
X3232Y198782D01*
X4116Y197459D01*
X6459Y195116D01*
X6459Y195116D01*
X7782Y194232D01*
X9343Y193922D01*
X13703D01*
X14706Y192422D01*
X14550Y192046D01*
Y190554D01*
X15121Y189176D01*
X16176Y188121D01*
X17554Y187550D01*
X19046D01*
X20424Y188121D01*
X21479Y189176D01*
X22050Y190554D01*
Y191170D01*
X23351Y192459D01*
X24311Y192404D01*
X24550Y192046D01*
Y190554D01*
X25121Y189176D01*
X26176Y188121D01*
X27554Y187550D01*
X29046D01*
X30424Y188121D01*
X31479Y189176D01*
X32050Y190554D01*
Y192046D01*
X32881Y193289D01*
X33450D01*
X34660Y193530D01*
X35685Y194215D01*
X39020Y197550D01*
X39046D01*
X40424Y198121D01*
X41479Y199176D01*
X42050Y200554D01*
Y201882D01*
X42159Y202159D01*
X43185Y203225D01*
X43615Y203160D01*
X44550Y202046D01*
Y200554D01*
X45121Y199176D01*
X46176Y198121D01*
X47554Y197550D01*
X47625D01*
X47766Y197464D01*
X48011Y197426D01*
X48049Y197418D01*
X48903Y196564D01*
Y196549D01*
X49436Y195263D01*
X50420Y194278D01*
X51707Y193745D01*
X53099D01*
X54385Y194278D01*
X55370Y195263D01*
X55903Y196549D01*
Y196610D01*
X57403Y197613D01*
X57554Y197550D01*
X59046D01*
X60424Y198121D01*
X61479Y199176D01*
X62050Y200554D01*
Y200598D01*
X62131Y200728D01*
X62150Y200843D01*
X63028Y201411D01*
X63324Y201562D01*
X64550Y200762D01*
Y200554D01*
X65121Y199176D01*
X66176Y198121D01*
X67554Y197550D01*
X69046D01*
X70424Y198121D01*
X71479Y199176D01*
X72050Y200554D01*
Y200598D01*
X72131Y200728D01*
X72150Y200843D01*
X73028Y201411D01*
X73324Y201562D01*
X74550Y200762D01*
Y200554D01*
X75121Y199176D01*
X76176Y198121D01*
X76468Y198000D01*
X76329Y196730D01*
X76237Y196472D01*
X75017Y195967D01*
X74033Y194983D01*
X73500Y193696D01*
Y192304D01*
X74033Y191017D01*
X75017Y190033D01*
X76304Y189500D01*
X77696D01*
X78983Y190033D01*
X79967Y191017D01*
X80500Y192304D01*
Y193696D01*
X79967Y194983D01*
X78983Y195967D01*
X78783Y196050D01*
X79035Y197485D01*
X79063Y197557D01*
X80424Y198121D01*
X81479Y199176D01*
X82050Y200554D01*
Y202046D01*
X81479Y203424D01*
X80424Y204479D01*
X79046Y205050D01*
X77554D01*
X76365Y205937D01*
X76289Y206450D01*
X77531Y207530D01*
X77639Y207550D01*
X79046D01*
X80424Y208121D01*
X81479Y209176D01*
X82050Y210554D01*
Y212046D01*
X81479Y213424D01*
X80424Y214479D01*
X79046Y215050D01*
X77554D01*
X76176Y214479D01*
X75121Y213424D01*
X74550Y212046D01*
Y210718D01*
X74441Y210441D01*
X73415Y209374D01*
X72985Y209440D01*
X72050Y210554D01*
Y212046D01*
X71479Y213424D01*
X70424Y214479D01*
X69046Y215050D01*
X69002D01*
X68872Y215131D01*
X68625Y215172D01*
X68585Y215180D01*
X67685Y216081D01*
X67164Y217337D01*
X66180Y218322D01*
X64893Y218855D01*
X63501D01*
X62215Y218322D01*
X61230Y217337D01*
X60697Y216051D01*
Y215990D01*
X59197Y214987D01*
X59046Y215050D01*
X57554D01*
X56176Y214479D01*
X55121Y213424D01*
X54550Y212046D01*
Y212002D01*
X54469Y211872D01*
X54450Y211757D01*
X53573Y211189D01*
X53276Y211038D01*
X52050Y211838D01*
Y212046D01*
X51479Y213424D01*
X50424Y214479D01*
X49046Y215050D01*
X47554D01*
X46176Y214479D01*
X45121Y213424D01*
X44550Y212046D01*
X44134Y211695D01*
X43619Y211423D01*
X42196Y212219D01*
X42068Y212861D01*
X41184Y214184D01*
X36168Y219200D01*
X34845Y220084D01*
X33284Y220394D01*
D02*
G37*
G36*
X89046Y215050D02*
X87554D01*
X86176Y214479D01*
X85121Y213424D01*
X84550Y212046D01*
Y210554D01*
X85121Y209176D01*
X86176Y208121D01*
X87554Y207550D01*
X89046D01*
X90424Y208121D01*
X91479Y209176D01*
X92050Y210554D01*
Y212046D01*
X91479Y213424D01*
X90424Y214479D01*
X89046Y215050D01*
D02*
G37*
G36*
Y205050D02*
X87554D01*
X86176Y204479D01*
X85121Y203424D01*
X84550Y202046D01*
Y200554D01*
X85121Y199176D01*
X86176Y198121D01*
X87554Y197550D01*
X89046D01*
X90424Y198121D01*
X91479Y199176D01*
X92050Y200554D01*
Y202046D01*
X91479Y203424D01*
X90424Y204479D01*
X89046Y205050D01*
D02*
G37*
G36*
X47300Y186070D02*
X45587Y185361D01*
X44239Y184013D01*
X43530Y182300D01*
X47300D01*
Y186070D01*
D02*
G37*
G36*
X29046Y185050D02*
X27554D01*
X26176Y184479D01*
X25121Y183424D01*
X24550Y182046D01*
Y180554D01*
X25121Y179176D01*
X26176Y178121D01*
X27554Y177550D01*
X29046D01*
X30424Y178121D01*
X31479Y179176D01*
X32050Y180554D01*
Y182046D01*
X31479Y183424D01*
X30424Y184479D01*
X29046Y185050D01*
D02*
G37*
G36*
X19046D02*
X17554D01*
X16176Y184479D01*
X15121Y183424D01*
X14550Y182046D01*
Y180554D01*
X15121Y179176D01*
X16176Y178121D01*
X17554Y177550D01*
X19046D01*
X20424Y178121D01*
X21479Y179176D01*
X22050Y180554D01*
Y182046D01*
X21479Y183424D01*
X20424Y184479D01*
X19046Y185050D01*
D02*
G37*
G36*
X29046Y175050D02*
X27554D01*
X26176Y174479D01*
X25121Y173424D01*
X24550Y172046D01*
Y170554D01*
X25121Y169176D01*
X26176Y168121D01*
X27554Y167550D01*
X29046D01*
X30424Y168121D01*
X31479Y169176D01*
X32050Y170554D01*
Y172046D01*
X31479Y173424D01*
X30424Y174479D01*
X29046Y175050D01*
D02*
G37*
G36*
X19046D02*
X17554D01*
X16176Y174479D01*
X15121Y173424D01*
X14550Y172046D01*
Y170554D01*
X15121Y169176D01*
X16176Y168121D01*
X17554Y167550D01*
X19046D01*
X20424Y168121D01*
X21479Y169176D01*
X22050Y170554D01*
Y172046D01*
X21479Y173424D01*
X20424Y174479D01*
X19046Y175050D01*
D02*
G37*
G36*
X29046Y165050D02*
X27554D01*
X26176Y164479D01*
X25121Y163424D01*
X24550Y162046D01*
Y160554D01*
X25121Y159176D01*
X26176Y158121D01*
X27554Y157550D01*
X29046D01*
X30424Y158121D01*
X31479Y159176D01*
X32050Y160554D01*
Y162046D01*
X31479Y163424D01*
X30424Y164479D01*
X29046Y165050D01*
D02*
G37*
G36*
X19046D02*
X17554D01*
X16176Y164479D01*
X15121Y163424D01*
X14550Y162046D01*
Y160554D01*
X15121Y159176D01*
X16176Y158121D01*
X17554Y157550D01*
X19046D01*
X20424Y158121D01*
X21479Y159176D01*
X22050Y160554D01*
Y162046D01*
X21479Y163424D01*
X20424Y164479D01*
X19046Y165050D01*
D02*
G37*
G36*
X93070Y160300D02*
X89300D01*
Y156530D01*
X91013Y157239D01*
X92361Y158587D01*
X93070Y160300D01*
D02*
G37*
G36*
X47300D02*
X43530D01*
X44239Y158587D01*
X45587Y157239D01*
X47300Y156530D01*
Y160300D01*
D02*
G37*
G36*
X73696Y155500D02*
X72304D01*
X71017Y154967D01*
X70033Y153983D01*
X69500Y152696D01*
Y151304D01*
X70033Y150017D01*
X71017Y149033D01*
X72304Y148500D01*
X73696D01*
X74983Y149033D01*
X75967Y150017D01*
X76500Y151304D01*
Y152696D01*
X75967Y153983D01*
X74983Y154967D01*
X73696Y155500D01*
D02*
G37*
G36*
X29046Y155050D02*
X27554D01*
X26176Y154479D01*
X25121Y153424D01*
X24550Y152046D01*
Y150554D01*
X25121Y149176D01*
X26176Y148121D01*
X27554Y147550D01*
X29046D01*
X30424Y148121D01*
X31479Y149176D01*
X32050Y150554D01*
Y152046D01*
X31479Y153424D01*
X30424Y154479D01*
X29046Y155050D01*
D02*
G37*
G36*
X19046D02*
X17554D01*
X16176Y154479D01*
X15121Y153424D01*
X14550Y152046D01*
Y150554D01*
X15121Y149176D01*
X16176Y148121D01*
X17554Y147550D01*
X19046D01*
X20424Y148121D01*
X21479Y149176D01*
X22050Y150554D01*
Y152046D01*
X21479Y153424D01*
X20424Y154479D01*
X19046Y155050D01*
D02*
G37*
G36*
X84696Y154500D02*
X83304D01*
X82017Y153967D01*
X81033Y152983D01*
X80500Y151696D01*
Y150304D01*
X81033Y149017D01*
X82017Y148033D01*
X83304Y147500D01*
X84696D01*
X85983Y148033D01*
X86967Y149017D01*
X87500Y150304D01*
Y151696D01*
X86967Y152983D01*
X85983Y153967D01*
X84696Y154500D01*
D02*
G37*
G36*
X89046Y95050D02*
X87554D01*
X86176Y94479D01*
X85121Y93424D01*
X84550Y92046D01*
Y90554D01*
X85121Y89176D01*
X86176Y88121D01*
X87554Y87550D01*
X89046D01*
X90424Y88121D01*
X91479Y89176D01*
X92050Y90554D01*
Y92046D01*
X91479Y93424D01*
X90424Y94479D01*
X89046Y95050D01*
D02*
G37*
G36*
X29046Y85050D02*
X27554D01*
X26176Y84479D01*
X25121Y83424D01*
X24550Y82046D01*
Y80554D01*
X25121Y79176D01*
X26176Y78121D01*
X27554Y77550D01*
X29046D01*
X30424Y78121D01*
X31479Y79176D01*
X32050Y80554D01*
Y82046D01*
X31479Y83424D01*
X30424Y84479D01*
X29046Y85050D01*
D02*
G37*
G36*
X19046D02*
X17554D01*
X16176Y84479D01*
X15121Y83424D01*
X14550Y82046D01*
Y80554D01*
X15121Y79176D01*
X16176Y78121D01*
X17554Y77550D01*
X19046D01*
X20424Y78121D01*
X21479Y79176D01*
X22050Y80554D01*
Y82046D01*
X21479Y83424D01*
X20424Y84479D01*
X19046Y85050D01*
D02*
G37*
G36*
X89300Y76070D02*
Y72300D01*
X93070D01*
X92361Y74013D01*
X91013Y75361D01*
X89300Y76070D01*
D02*
G37*
G36*
X47300Y76070D02*
X45587Y75361D01*
X44239Y74013D01*
X43530Y72300D01*
X47300D01*
Y76070D01*
D02*
G37*
G36*
X69300D02*
Y71300D01*
X67300D01*
Y76070D01*
X65587Y75361D01*
X64239Y74013D01*
X64112Y73706D01*
X62488D01*
X62361Y74013D01*
X61013Y75361D01*
X59300Y76070D01*
Y71300D01*
X57300D01*
Y76070D01*
X55587Y75361D01*
X54239Y74013D01*
X54112Y73706D01*
X52488D01*
X52361Y74013D01*
X51013Y75361D01*
X49300Y76070D01*
Y71300D01*
X48300D01*
Y70300D01*
X43530D01*
X44239Y68587D01*
X45587Y67239D01*
X45894Y67112D01*
Y65488D01*
X45587Y65361D01*
X44239Y64013D01*
X43530Y62300D01*
X48300D01*
Y60300D01*
X43530D01*
X44239Y58587D01*
X45587Y57239D01*
X45894Y57112D01*
Y55488D01*
X45587Y55361D01*
X44239Y54013D01*
X43530Y52300D01*
X48300D01*
Y51300D01*
X49300D01*
Y46530D01*
X51013Y47239D01*
X52361Y48587D01*
X52488Y48894D01*
X54112D01*
X54239Y48587D01*
X55587Y47239D01*
X57300Y46530D01*
Y51300D01*
X59300D01*
Y46530D01*
X61013Y47239D01*
X62361Y48587D01*
X62488Y48894D01*
X64112D01*
X64239Y48587D01*
X65587Y47239D01*
X67300Y46530D01*
Y51300D01*
X69300D01*
Y46529D01*
X71013Y47239D01*
X72361Y48587D01*
X72488Y48894D01*
X74112D01*
X74239Y48587D01*
X75587Y47239D01*
X77300Y46530D01*
Y51300D01*
X79300D01*
Y46530D01*
X81013Y47239D01*
X82361Y48587D01*
X82488Y48894D01*
X84112D01*
X84239Y48587D01*
X85587Y47239D01*
X87300Y46529D01*
Y51300D01*
X88300D01*
Y52300D01*
X93070D01*
X92361Y54013D01*
X91013Y55361D01*
X90706Y55488D01*
Y57112D01*
X91013Y57239D01*
X92361Y58587D01*
X93070Y60300D01*
X88300D01*
Y62300D01*
X93070D01*
X92361Y64013D01*
X91013Y65361D01*
X90706Y65488D01*
Y67112D01*
X91013Y67239D01*
X92361Y68587D01*
X93070Y70300D01*
X88300D01*
Y71300D01*
X87300D01*
Y76070D01*
X85587Y75361D01*
X84239Y74013D01*
X84112Y73706D01*
X82488D01*
X82361Y74013D01*
X81013Y75361D01*
X79300Y76070D01*
Y71300D01*
X77300D01*
Y76070D01*
X75587Y75361D01*
X74239Y74013D01*
X74112Y73706D01*
X72488D01*
X72361Y74013D01*
X71013Y75361D01*
X69300Y76070D01*
D02*
G37*
G36*
X29046Y75050D02*
X27554D01*
X26176Y74479D01*
X25121Y73424D01*
X24550Y72046D01*
Y70554D01*
X25121Y69176D01*
X26176Y68121D01*
X27554Y67550D01*
X29046D01*
X30424Y68121D01*
X31479Y69176D01*
X32050Y70554D01*
Y72046D01*
X31479Y73424D01*
X30424Y74479D01*
X29046Y75050D01*
D02*
G37*
G36*
X19046D02*
X17554D01*
X16176Y74479D01*
X15121Y73424D01*
X14550Y72046D01*
Y70554D01*
X15121Y69176D01*
X16176Y68121D01*
X17554Y67550D01*
X19046D01*
X20424Y68121D01*
X21479Y69176D01*
X22050Y70554D01*
Y72046D01*
X21479Y73424D01*
X20424Y74479D01*
X19046Y75050D01*
D02*
G37*
G36*
X29046Y65050D02*
X27554D01*
X26176Y64479D01*
X25121Y63424D01*
X24550Y62046D01*
Y60554D01*
X25121Y59176D01*
X26176Y58121D01*
X27554Y57550D01*
X29046D01*
X30424Y58121D01*
X31479Y59176D01*
X32050Y60554D01*
Y62046D01*
X31479Y63424D01*
X30424Y64479D01*
X29046Y65050D01*
D02*
G37*
G36*
X19046D02*
X17554D01*
X16176Y64479D01*
X15121Y63424D01*
X14550Y62046D01*
Y60554D01*
X15121Y59176D01*
X16176Y58121D01*
X17554Y57550D01*
X19046D01*
X20424Y58121D01*
X21479Y59176D01*
X22050Y60554D01*
Y62046D01*
X21479Y63424D01*
X20424Y64479D01*
X19046Y65050D01*
D02*
G37*
G36*
X29046Y55050D02*
X27554D01*
X26176Y54479D01*
X25121Y53424D01*
X24550Y52046D01*
Y50554D01*
X25121Y49176D01*
X26176Y48121D01*
X27554Y47550D01*
X29046D01*
X30424Y48121D01*
X31479Y49176D01*
X32050Y50554D01*
Y52046D01*
X31479Y53424D01*
X30424Y54479D01*
X29046Y55050D01*
D02*
G37*
G36*
X19046D02*
X17554D01*
X16176Y54479D01*
X15121Y53424D01*
X14550Y52046D01*
Y50554D01*
X15121Y49176D01*
X16176Y48121D01*
X17554Y47550D01*
X19046D01*
X20424Y48121D01*
X21479Y49176D01*
X22050Y50554D01*
Y52046D01*
X21479Y53424D01*
X20424Y54479D01*
X19046Y55050D01*
D02*
G37*
G36*
X93070Y50300D02*
X89300D01*
Y46530D01*
X91013Y47239D01*
X92361Y48587D01*
X93070Y50300D01*
D02*
G37*
G36*
X47300D02*
X43530D01*
X44239Y48587D01*
X45587Y47239D01*
X47300Y46529D01*
Y50300D01*
D02*
G37*
G36*
X9696Y54500D02*
X8304D01*
X7017Y53967D01*
X6033Y52983D01*
X5500Y51696D01*
Y50304D01*
X4399Y50000D01*
X4304D01*
X3017Y49467D01*
X2033Y48483D01*
X1500Y47196D01*
Y45804D01*
X2033Y44517D01*
X3017Y43533D01*
X4304Y43000D01*
X5696D01*
X6983Y43533D01*
X7967Y44517D01*
X8500Y45804D01*
Y47196D01*
X9601Y47500D01*
X9696D01*
X10983Y48033D01*
X11967Y49017D01*
X12500Y50304D01*
Y51696D01*
X11967Y52983D01*
X10983Y53967D01*
X9696Y54500D01*
D02*
G37*
G36*
X38696Y48500D02*
X37304D01*
X36017Y47967D01*
X35033Y46983D01*
X34500Y45696D01*
Y44304D01*
X35033Y43017D01*
X36017Y42033D01*
X37304Y41500D01*
X38696D01*
X39983Y42033D01*
X40967Y43017D01*
X41500Y44304D01*
Y45696D01*
X40967Y46983D01*
X39983Y47967D01*
X38696Y48500D01*
D02*
G37*
G36*
X29046Y45050D02*
X27554D01*
X26176Y44479D01*
X25121Y43424D01*
X24550Y42046D01*
Y40554D01*
X25121Y39176D01*
X26176Y38121D01*
X27554Y37550D01*
X29046D01*
X30424Y38121D01*
X31479Y39176D01*
X32050Y40554D01*
Y42046D01*
X31479Y43424D01*
X30424Y44479D01*
X29046Y45050D01*
D02*
G37*
G36*
X19046D02*
X17554D01*
X16176Y44479D01*
X15121Y43424D01*
X14550Y42046D01*
Y40554D01*
X15121Y39176D01*
X16176Y38121D01*
X17554Y37550D01*
X19046D01*
X20424Y38121D01*
X21479Y39176D01*
X22050Y40554D01*
Y42046D01*
X21479Y43424D01*
X20424Y44479D01*
X19046Y45050D01*
D02*
G37*
G36*
X53696Y44500D02*
X52304D01*
X51017Y43967D01*
X50033Y42983D01*
X49500Y41696D01*
Y40304D01*
X50033Y39017D01*
X51017Y38033D01*
X52304Y37500D01*
X53696D01*
X54983Y38033D01*
X55967Y39017D01*
X56500Y40304D01*
Y41696D01*
X55967Y42983D01*
X54983Y43967D01*
X53696Y44500D01*
D02*
G37*
%LPD*%
G36*
X66205Y435217D02*
X66228Y435075D01*
X66266Y434933D01*
X66319Y434789D01*
X66387Y434645D01*
X66470Y434499D01*
X66568Y434352D01*
X66597Y434314D01*
X66802Y434170D01*
X67026Y434035D01*
X67262Y433915D01*
X67509Y433808D01*
X67767Y433717D01*
X68036Y433640D01*
X68316Y433577D01*
X68607Y433529D01*
X66073Y430980D01*
X66023Y431269D01*
X65960Y431547D01*
X65881Y431814D01*
X65788Y432070D01*
X65681Y432315D01*
X65560Y432550D01*
X65423Y432775D01*
X65285Y432970D01*
X65248Y432999D01*
X65101Y433096D01*
X64955Y433177D01*
X64810Y433244D01*
X64666Y433295D01*
X64523Y433330D01*
X64381Y433350D01*
X64240Y433355D01*
X66197Y435357D01*
X66205Y435217D01*
D02*
G37*
G36*
X58619Y429073D02*
X58331Y429023D01*
X58053Y428960D01*
X57786Y428881D01*
X57530Y428788D01*
X57285Y428681D01*
X57050Y428560D01*
X56825Y428423D01*
X56630Y428285D01*
X56602Y428248D01*
X56504Y428101D01*
X56423Y427955D01*
X56356Y427810D01*
X56305Y427665D01*
X56270Y427523D01*
X56250Y427381D01*
X56245Y427240D01*
X54243Y429197D01*
X54383Y429205D01*
X54524Y429228D01*
X54667Y429266D01*
X54811Y429319D01*
X54956Y429387D01*
X55101Y429470D01*
X55248Y429568D01*
X55286Y429597D01*
X55430Y429801D01*
X55565Y430026D01*
X55686Y430262D01*
X55792Y430509D01*
X55883Y430767D01*
X55960Y431036D01*
X56023Y431316D01*
X56071Y431607D01*
X58619Y429073D01*
D02*
G37*
G36*
X48619D02*
X48331Y429023D01*
X48053Y428960D01*
X47786Y428881D01*
X47530Y428788D01*
X47285Y428681D01*
X47050Y428560D01*
X46825Y428423D01*
X46630Y428285D01*
X46602Y428248D01*
X46504Y428101D01*
X46423Y427955D01*
X46356Y427810D01*
X46305Y427665D01*
X46270Y427523D01*
X46250Y427381D01*
X46245Y427240D01*
X44243Y429197D01*
X44383Y429205D01*
X44524Y429228D01*
X44667Y429266D01*
X44811Y429319D01*
X44956Y429387D01*
X45101Y429470D01*
X45248Y429568D01*
X45286Y429597D01*
X45430Y429801D01*
X45565Y430026D01*
X45686Y430262D01*
X45792Y430509D01*
X45883Y430767D01*
X45960Y431036D01*
X46023Y431316D01*
X46071Y431607D01*
X48619Y429073D01*
D02*
G37*
G36*
X24847Y427652D02*
X25035Y427582D01*
X25293Y427519D01*
X25620Y427466D01*
X26484Y427383D01*
X28302Y427320D01*
X29048Y427316D01*
Y425316D01*
X28302Y425312D01*
X25293Y425113D01*
X25035Y425050D01*
X24847Y424980D01*
X24729Y424901D01*
Y427731D01*
X24847Y427652D01*
D02*
G37*
G36*
X36397Y424628D02*
X36630Y424429D01*
X36866Y424249D01*
X37105Y424089D01*
X37347Y423947D01*
X37592Y423825D01*
X37841Y423722D01*
X38092Y423639D01*
X38347Y423574D01*
X38605Y423529D01*
X36071Y420995D01*
X36026Y421253D01*
X35961Y421508D01*
X35878Y421759D01*
X35775Y422008D01*
X35653Y422253D01*
X35511Y422495D01*
X35351Y422734D01*
X35171Y422970D01*
X34972Y423203D01*
X34753Y423432D01*
X36168Y424846D01*
X36397Y424628D01*
D02*
G37*
G36*
X72357Y423403D02*
X72217Y423395D01*
X72076Y423372D01*
X71933Y423334D01*
X71789Y423281D01*
X71645Y423213D01*
X71499Y423130D01*
X71352Y423032D01*
X71314Y423003D01*
X71170Y422799D01*
X71035Y422574D01*
X70915Y422338D01*
X70808Y422091D01*
X70717Y421833D01*
X70640Y421564D01*
X70577Y421284D01*
X70529Y420993D01*
X67980Y423527D01*
X68269Y423577D01*
X68547Y423640D01*
X68814Y423719D01*
X69070Y423811D01*
X69315Y423919D01*
X69550Y424040D01*
X69774Y424177D01*
X69970Y424315D01*
X69999Y424352D01*
X70096Y424499D01*
X70177Y424645D01*
X70244Y424790D01*
X70295Y424935D01*
X70330Y425077D01*
X70350Y425219D01*
X70355Y425360D01*
X72357Y423403D01*
D02*
G37*
G36*
X62357D02*
X62217Y423395D01*
X62076Y423372D01*
X61933Y423334D01*
X61789Y423281D01*
X61645Y423213D01*
X61499Y423130D01*
X61352Y423032D01*
X61314Y423003D01*
X61170Y422799D01*
X61035Y422574D01*
X60915Y422338D01*
X60808Y422091D01*
X60717Y421833D01*
X60640Y421564D01*
X60577Y421284D01*
X60529Y420993D01*
X57980Y423527D01*
X58269Y423577D01*
X58547Y423640D01*
X58814Y423719D01*
X59070Y423811D01*
X59315Y423919D01*
X59550Y424040D01*
X59774Y424177D01*
X59970Y424315D01*
X59999Y424352D01*
X60096Y424499D01*
X60177Y424645D01*
X60244Y424790D01*
X60295Y424935D01*
X60330Y425077D01*
X60350Y425219D01*
X60355Y425360D01*
X62357Y423403D01*
D02*
G37*
G36*
X50576Y421347D02*
X50641Y421071D01*
X50720Y420806D01*
X50814Y420552D01*
X50923Y420308D01*
X51045Y420074D01*
X51182Y419850D01*
X51324Y419651D01*
X51376Y419609D01*
X51523Y419511D01*
X51669Y419429D01*
X51814Y419362D01*
X51958Y419310D01*
X52101Y419273D01*
X52242Y419252D01*
X52383Y419245D01*
X50403Y417266D01*
X50397Y417406D01*
X50375Y417548D01*
X50339Y417691D01*
X50287Y417834D01*
X50219Y417979D01*
X50137Y418125D01*
X50039Y418273D01*
X50017Y418302D01*
X49820Y418439D01*
X49595Y418574D01*
X49359Y418693D01*
X49112Y418798D01*
X48855Y418888D01*
X48586Y418963D01*
X48306Y419023D01*
X48016Y419068D01*
X50525Y421632D01*
X50576Y421347D01*
D02*
G37*
G36*
X68957Y399128D02*
X68448Y398563D01*
X68052Y397997D01*
X67769Y397431D01*
X67599Y396866D01*
X67543Y396300D01*
X67599Y395734D01*
X67769Y395169D01*
X68052Y394603D01*
X68448Y394037D01*
X68957Y393472D01*
X66785Y391300D01*
X68957Y389128D01*
X68448Y388563D01*
X68052Y387997D01*
X67769Y387431D01*
X67599Y386866D01*
X67543Y386300D01*
X67599Y385734D01*
X67769Y385169D01*
X68052Y384603D01*
X68448Y384037D01*
X68957Y383472D01*
X66128Y380643D01*
X65563Y381152D01*
X64997Y381548D01*
X64431Y381831D01*
X63866Y382001D01*
X63300Y382057D01*
X62734Y382001D01*
X62169Y381831D01*
X61603Y381548D01*
X61037Y381152D01*
X60472Y380643D01*
X57643Y383472D01*
X58152Y384037D01*
X58548Y384603D01*
X58831Y385169D01*
X59001Y385734D01*
X59057Y386300D01*
X59001Y386866D01*
X58831Y387431D01*
X58548Y387997D01*
X58152Y388563D01*
X57643Y389128D01*
X59815Y391300D01*
X57643Y393472D01*
X58152Y394037D01*
X58548Y394603D01*
X58831Y395169D01*
X59001Y395734D01*
X59057Y396300D01*
X59001Y396866D01*
X58831Y397431D01*
X58548Y397997D01*
X58152Y398563D01*
X57643Y399128D01*
X60472Y401957D01*
X61037Y401448D01*
X61603Y401052D01*
X62169Y400769D01*
X62734Y400599D01*
X63300Y400543D01*
X63866Y400599D01*
X64431Y400769D01*
X64997Y401052D01*
X65563Y401448D01*
X66128Y401957D01*
X68957Y399128D01*
D02*
G37*
%LPC*%
G36*
X63300Y392057D02*
X62734Y392001D01*
X62169Y391831D01*
X61603Y391548D01*
X61248Y391300D01*
X61603Y391052D01*
X62169Y390769D01*
X62734Y390599D01*
X63300Y390543D01*
X63866Y390599D01*
X64431Y390769D01*
X64997Y391052D01*
X65352Y391300D01*
X64997Y391548D01*
X64431Y391831D01*
X63866Y392001D01*
X63300Y392057D01*
D02*
G37*
%LPD*%
G36*
X38497Y323541D02*
X36059Y321103D01*
X36033Y321162D01*
X35962Y321262D01*
X35847Y321404D01*
X35233Y322076D01*
X33787Y323550D01*
X36050Y325813D01*
X38497Y323541D01*
D02*
G37*
G36*
X70577Y321324D02*
X70640Y321045D01*
X70718Y320777D01*
X70810Y320519D01*
X70917Y320273D01*
X71038Y320038D01*
X71174Y319813D01*
X71324Y319600D01*
X71488Y319397D01*
X71667Y319205D01*
X70395Y317933D01*
X70203Y318112D01*
X70000Y318276D01*
X69787Y318426D01*
X69562Y318562D01*
X69327Y318683D01*
X69081Y318790D01*
X68823Y318882D01*
X68555Y318960D01*
X68277Y319023D01*
X67987Y319072D01*
X70528Y321613D01*
X70577Y321324D01*
D02*
G37*
G36*
X60577D02*
X60640Y321045D01*
X60718Y320777D01*
X60810Y320519D01*
X60917Y320273D01*
X61038Y320038D01*
X61174Y319813D01*
X61324Y319600D01*
X61488Y319397D01*
X61667Y319205D01*
X60395Y317933D01*
X60203Y318112D01*
X60000Y318276D01*
X59787Y318426D01*
X59562Y318562D01*
X59327Y318683D01*
X59081Y318790D01*
X58823Y318882D01*
X58555Y318960D01*
X58277Y319023D01*
X57987Y319072D01*
X60528Y321613D01*
X60577Y321324D01*
D02*
G37*
G36*
X50577D02*
X50640Y321045D01*
X50718Y320777D01*
X50810Y320519D01*
X50917Y320273D01*
X51038Y320038D01*
X51174Y319813D01*
X51324Y319600D01*
X51488Y319397D01*
X51667Y319205D01*
X50395Y317933D01*
X50203Y318112D01*
X50000Y318276D01*
X49787Y318426D01*
X49562Y318562D01*
X49327Y318683D01*
X49081Y318790D01*
X48823Y318882D01*
X48555Y318960D01*
X48277Y319023D01*
X47987Y319072D01*
X50528Y321613D01*
X50577Y321324D01*
D02*
G37*
G36*
X28497Y319059D02*
X28438Y319033D01*
X28338Y318962D01*
X28196Y318847D01*
X27524Y318233D01*
X26050Y316787D01*
X23787Y319050D01*
X26059Y321497D01*
X28497Y319059D01*
D02*
G37*
G36*
X71992Y318888D02*
X72289Y318647D01*
X72436Y318550D01*
X72582Y318467D01*
X72727Y318400D01*
X72871Y318348D01*
X73014Y318312D01*
X73155Y318290D01*
X73296Y318284D01*
X71316Y316304D01*
X71310Y316444D01*
X71288Y316586D01*
X71252Y316729D01*
X71200Y316873D01*
X71133Y317018D01*
X71050Y317164D01*
X70953Y317311D01*
X70840Y317459D01*
X70712Y317609D01*
X70568Y317759D01*
X71841Y319032D01*
X71992Y318888D01*
D02*
G37*
G36*
X61992D02*
X62289Y318647D01*
X62436Y318550D01*
X62582Y318467D01*
X62727Y318400D01*
X62871Y318348D01*
X63014Y318312D01*
X63155Y318290D01*
X63296Y318284D01*
X61316Y316304D01*
X61310Y316444D01*
X61288Y316586D01*
X61252Y316729D01*
X61200Y316873D01*
X61133Y317018D01*
X61050Y317164D01*
X60953Y317311D01*
X60840Y317459D01*
X60712Y317609D01*
X60568Y317759D01*
X61841Y319032D01*
X61992Y318888D01*
D02*
G37*
G36*
X51992D02*
X52289Y318647D01*
X52436Y318550D01*
X52582Y318467D01*
X52727Y318400D01*
X52871Y318348D01*
X53014Y318312D01*
X53155Y318290D01*
X53296Y318284D01*
X51316Y316304D01*
X51310Y316444D01*
X51288Y316586D01*
X51252Y316729D01*
X51200Y316873D01*
X51133Y317018D01*
X51050Y317164D01*
X50953Y317311D01*
X50840Y317459D01*
X50712Y317609D01*
X50568Y317759D01*
X51841Y319032D01*
X51992Y318888D01*
D02*
G37*
G36*
X70577Y311324D02*
X70640Y311045D01*
X70718Y310777D01*
X70810Y310520D01*
X70917Y310273D01*
X71038Y310038D01*
X71174Y309813D01*
X71324Y309600D01*
X71488Y309397D01*
X71667Y309205D01*
X70395Y307933D01*
X70203Y308112D01*
X70000Y308276D01*
X69787Y308426D01*
X69562Y308562D01*
X69327Y308683D01*
X69081Y308790D01*
X68823Y308882D01*
X68555Y308960D01*
X68277Y309023D01*
X67987Y309072D01*
X70528Y311613D01*
X70577Y311324D01*
D02*
G37*
G36*
X60577D02*
X60640Y311045D01*
X60718Y310777D01*
X60810Y310520D01*
X60917Y310273D01*
X61038Y310038D01*
X61174Y309813D01*
X61324Y309600D01*
X61488Y309397D01*
X61667Y309205D01*
X60395Y307933D01*
X60203Y308112D01*
X60000Y308276D01*
X59787Y308426D01*
X59562Y308562D01*
X59327Y308683D01*
X59081Y308790D01*
X58823Y308882D01*
X58555Y308960D01*
X58277Y309023D01*
X57987Y309072D01*
X60528Y311613D01*
X60577Y311324D01*
D02*
G37*
G36*
X50577D02*
X50640Y311045D01*
X50718Y310777D01*
X50810Y310520D01*
X50917Y310273D01*
X51038Y310038D01*
X51174Y309813D01*
X51324Y309600D01*
X51488Y309397D01*
X51667Y309205D01*
X50395Y307933D01*
X50203Y308112D01*
X50000Y308276D01*
X49787Y308426D01*
X49562Y308562D01*
X49327Y308683D01*
X49081Y308790D01*
X48823Y308882D01*
X48555Y308960D01*
X48277Y309023D01*
X47987Y309072D01*
X50528Y311613D01*
X50577Y311324D01*
D02*
G37*
G36*
X71992Y308888D02*
X72289Y308647D01*
X72436Y308550D01*
X72582Y308467D01*
X72727Y308400D01*
X72871Y308348D01*
X73014Y308312D01*
X73155Y308290D01*
X73296Y308284D01*
X71316Y306304D01*
X71310Y306444D01*
X71288Y306586D01*
X71252Y306729D01*
X71200Y306873D01*
X71133Y307018D01*
X71050Y307164D01*
X70953Y307311D01*
X70840Y307459D01*
X70712Y307609D01*
X70568Y307759D01*
X71841Y309032D01*
X71992Y308888D01*
D02*
G37*
G36*
X61992D02*
X62289Y308647D01*
X62436Y308550D01*
X62582Y308467D01*
X62727Y308400D01*
X62871Y308348D01*
X63014Y308312D01*
X63155Y308290D01*
X63296Y308284D01*
X61316Y306304D01*
X61310Y306444D01*
X61288Y306586D01*
X61252Y306729D01*
X61200Y306873D01*
X61133Y307018D01*
X61050Y307164D01*
X60953Y307311D01*
X60840Y307459D01*
X60712Y307609D01*
X60568Y307759D01*
X61841Y309032D01*
X61992Y308888D01*
D02*
G37*
G36*
X51992D02*
X52289Y308647D01*
X52436Y308550D01*
X52582Y308467D01*
X52727Y308400D01*
X52871Y308348D01*
X53014Y308312D01*
X53155Y308290D01*
X53296Y308284D01*
X51316Y306304D01*
X51310Y306444D01*
X51288Y306586D01*
X51252Y306729D01*
X51200Y306873D01*
X51133Y307018D01*
X51050Y307164D01*
X50953Y307311D01*
X50840Y307459D01*
X50712Y307609D01*
X50568Y307759D01*
X51841Y309032D01*
X51992Y308888D01*
D02*
G37*
G36*
X150137Y291196D02*
X150059Y291224D01*
X149977Y291236D01*
X149890Y291233D01*
X149799Y291214D01*
X149703Y291179D01*
X149602Y291129D01*
X149497Y291063D01*
X149387Y290981D01*
X149273Y290883D01*
X149154Y290770D01*
X148167Y291904D01*
X148323Y292064D01*
X148695Y292486D01*
X148786Y292607D01*
X148862Y292719D01*
X148921Y292822D01*
X148964Y292915D01*
X148991Y292999D01*
X149001Y293074D01*
X150137Y291196D01*
D02*
G37*
G36*
X120117Y292658D02*
X120269Y292530D01*
X120434Y292418D01*
X120610Y292320D01*
X120799Y292237D01*
X120999Y292170D01*
X121212Y292118D01*
X121436Y292080D01*
X121673Y292057D01*
X121921Y292050D01*
Y290550D01*
X121673Y290543D01*
X121436Y290520D01*
X121212Y290483D01*
X120999Y290430D01*
X120799Y290362D01*
X120610Y290280D01*
X120434Y290182D01*
X120269Y290070D01*
X120117Y289942D01*
X119977Y289800D01*
Y292800D01*
X120117Y292658D01*
D02*
G37*
G36*
X66205Y215217D02*
X66228Y215075D01*
X66266Y214933D01*
X66319Y214789D01*
X66387Y214645D01*
X66470Y214499D01*
X66568Y214352D01*
X66597Y214314D01*
X66802Y214170D01*
X67026Y214035D01*
X67262Y213915D01*
X67509Y213808D01*
X67767Y213717D01*
X68036Y213640D01*
X68316Y213577D01*
X68607Y213529D01*
X66073Y210980D01*
X66023Y211269D01*
X65960Y211546D01*
X65881Y211814D01*
X65788Y212070D01*
X65681Y212315D01*
X65560Y212550D01*
X65423Y212775D01*
X65285Y212970D01*
X65248Y212999D01*
X65101Y213096D01*
X64955Y213177D01*
X64810Y213244D01*
X64666Y213295D01*
X64523Y213330D01*
X64381Y213350D01*
X64240Y213355D01*
X66197Y215357D01*
X66205Y215217D01*
D02*
G37*
G36*
X58619Y209073D02*
X58331Y209023D01*
X58053Y208960D01*
X57786Y208881D01*
X57530Y208789D01*
X57285Y208681D01*
X57050Y208560D01*
X56825Y208423D01*
X56630Y208285D01*
X56602Y208248D01*
X56504Y208101D01*
X56423Y207955D01*
X56356Y207810D01*
X56305Y207666D01*
X56270Y207523D01*
X56250Y207381D01*
X56245Y207240D01*
X54243Y209197D01*
X54383Y209205D01*
X54524Y209228D01*
X54667Y209266D01*
X54811Y209319D01*
X54956Y209387D01*
X55101Y209470D01*
X55248Y209568D01*
X55286Y209597D01*
X55430Y209802D01*
X55565Y210026D01*
X55686Y210262D01*
X55792Y210509D01*
X55883Y210767D01*
X55960Y211036D01*
X56023Y211316D01*
X56071Y211607D01*
X58619Y209073D01*
D02*
G37*
G36*
X48619D02*
X48331Y209023D01*
X48053Y208960D01*
X47786Y208881D01*
X47530Y208789D01*
X47285Y208681D01*
X47050Y208560D01*
X46825Y208423D01*
X46630Y208285D01*
X46602Y208248D01*
X46504Y208101D01*
X46423Y207955D01*
X46356Y207810D01*
X46305Y207666D01*
X46270Y207523D01*
X46250Y207381D01*
X46245Y207240D01*
X44243Y209197D01*
X44383Y209205D01*
X44524Y209228D01*
X44667Y209266D01*
X44811Y209319D01*
X44956Y209387D01*
X45101Y209470D01*
X45248Y209568D01*
X45286Y209597D01*
X45430Y209802D01*
X45565Y210026D01*
X45686Y210262D01*
X45792Y210509D01*
X45883Y210767D01*
X45960Y211036D01*
X46023Y211316D01*
X46071Y211607D01*
X48619Y209073D01*
D02*
G37*
G36*
X15397Y207446D02*
X15499Y207386D01*
X15615Y207334D01*
X15746Y207289D01*
X15890Y207250D01*
X16049Y207219D01*
X16222Y207194D01*
X16611Y207167D01*
X16827Y207163D01*
X17016Y205163D01*
X16802Y205159D01*
X16417Y205123D01*
X16246Y205092D01*
X16091Y205053D01*
X15951Y205004D01*
X15825Y204946D01*
X15714Y204880D01*
X15619Y204805D01*
X15538Y204721D01*
X15309Y207512D01*
X15397Y207446D01*
D02*
G37*
G36*
X72357Y203403D02*
X72217Y203395D01*
X72076Y203372D01*
X71933Y203334D01*
X71789Y203281D01*
X71645Y203213D01*
X71499Y203130D01*
X71352Y203032D01*
X71314Y203003D01*
X71170Y202799D01*
X71035Y202574D01*
X70915Y202338D01*
X70808Y202091D01*
X70717Y201833D01*
X70640Y201564D01*
X70577Y201284D01*
X70529Y200993D01*
X67980Y203527D01*
X68269Y203577D01*
X68547Y203640D01*
X68814Y203719D01*
X69070Y203811D01*
X69315Y203919D01*
X69550Y204040D01*
X69774Y204177D01*
X69970Y204315D01*
X69999Y204352D01*
X70096Y204499D01*
X70177Y204645D01*
X70244Y204790D01*
X70295Y204934D01*
X70330Y205077D01*
X70350Y205219D01*
X70355Y205360D01*
X72357Y203403D01*
D02*
G37*
G36*
X62357D02*
X62217Y203395D01*
X62076Y203372D01*
X61933Y203334D01*
X61789Y203281D01*
X61645Y203213D01*
X61499Y203130D01*
X61352Y203032D01*
X61314Y203003D01*
X61170Y202799D01*
X61035Y202574D01*
X60915Y202338D01*
X60808Y202091D01*
X60717Y201833D01*
X60640Y201564D01*
X60577Y201284D01*
X60529Y200993D01*
X57980Y203527D01*
X58269Y203577D01*
X58547Y203640D01*
X58814Y203719D01*
X59070Y203811D01*
X59315Y203919D01*
X59550Y204040D01*
X59774Y204177D01*
X59970Y204315D01*
X59999Y204352D01*
X60096Y204499D01*
X60177Y204645D01*
X60244Y204790D01*
X60295Y204934D01*
X60330Y205077D01*
X60350Y205219D01*
X60355Y205360D01*
X62357Y203403D01*
D02*
G37*
G36*
X26295Y204596D02*
X26526Y204401D01*
X26762Y204226D01*
X27003Y204069D01*
X27250Y203932D01*
X27501Y203814D01*
X27757Y203716D01*
X28018Y203636D01*
X28284Y203576D01*
X28555Y203535D01*
X26078Y200945D01*
X26030Y201189D01*
X25961Y201432D01*
X25874Y201673D01*
X25767Y201913D01*
X25641Y202152D01*
X25496Y202390D01*
X25331Y202627D01*
X25147Y202862D01*
X24721Y203329D01*
X26068Y204811D01*
X26295Y204596D01*
D02*
G37*
G36*
X38594Y199069D02*
X38368Y199028D01*
X38138Y198963D01*
X37904Y198873D01*
X37665Y198760D01*
X37421Y198623D01*
X37173Y198462D01*
X36920Y198277D01*
X36401Y197835D01*
X36134Y197579D01*
X34579Y199134D01*
X34836Y199401D01*
X35277Y199920D01*
X35462Y200173D01*
X35623Y200421D01*
X35760Y200665D01*
X35873Y200904D01*
X35963Y201138D01*
X36028Y201368D01*
X36069Y201594D01*
X38594Y199069D01*
D02*
G37*
G36*
X20572Y201368D02*
X20637Y201138D01*
X20727Y200904D01*
X20840Y200665D01*
X20977Y200421D01*
X21138Y200173D01*
X21323Y199920D01*
X21765Y199401D01*
X22021Y199134D01*
X20466Y197579D01*
X20199Y197835D01*
X19680Y198277D01*
X19427Y198462D01*
X19179Y198623D01*
X18935Y198760D01*
X18696Y198873D01*
X18462Y198963D01*
X18232Y199028D01*
X18006Y199069D01*
X20531Y201594D01*
X20572Y201368D01*
D02*
G37*
G36*
X50576Y201346D02*
X50641Y201071D01*
X50720Y200806D01*
X50814Y200552D01*
X50923Y200308D01*
X51045Y200074D01*
X51182Y199850D01*
X51324Y199651D01*
X51376Y199609D01*
X51523Y199511D01*
X51669Y199429D01*
X51814Y199362D01*
X51958Y199310D01*
X52101Y199273D01*
X52242Y199252D01*
X52383Y199245D01*
X50403Y197265D01*
X50397Y197406D01*
X50375Y197548D01*
X50339Y197691D01*
X50287Y197834D01*
X50219Y197979D01*
X50137Y198125D01*
X50039Y198272D01*
X50017Y198302D01*
X49820Y198439D01*
X49595Y198574D01*
X49359Y198693D01*
X49112Y198798D01*
X48855Y198888D01*
X48586Y198963D01*
X48306Y199023D01*
X48016Y199068D01*
X50525Y201632D01*
X50576Y201346D01*
D02*
G37*
G36*
X78957Y69128D02*
X78448Y68563D01*
X78052Y67997D01*
X77769Y67431D01*
X77599Y66866D01*
X77543Y66300D01*
X77599Y65734D01*
X77769Y65169D01*
X78052Y64603D01*
X78448Y64037D01*
X78957Y63472D01*
X76785Y61300D01*
X78300Y59785D01*
X80472Y61957D01*
X81037Y61448D01*
X81603Y61052D01*
X82169Y60769D01*
X82734Y60599D01*
X83300Y60543D01*
X83866Y60599D01*
X84431Y60769D01*
X84997Y61052D01*
X85563Y61448D01*
X86129Y61957D01*
X88957Y59128D01*
X88448Y58563D01*
X88052Y57997D01*
X87769Y57431D01*
X87599Y56866D01*
X87543Y56300D01*
X87599Y55734D01*
X87769Y55169D01*
X88052Y54603D01*
X88448Y54037D01*
X88957Y53472D01*
X86129Y50643D01*
X85563Y51152D01*
X84997Y51548D01*
X84431Y51831D01*
X83866Y52001D01*
X83300Y52057D01*
X82734Y52001D01*
X82169Y51831D01*
X81603Y51548D01*
X81037Y51152D01*
X80472Y50643D01*
X78300Y52815D01*
X76128Y50643D01*
X75563Y51152D01*
X74997Y51548D01*
X74431Y51831D01*
X73866Y52001D01*
X73300Y52057D01*
X72734Y52001D01*
X72169Y51831D01*
X71603Y51548D01*
X71037Y51152D01*
X70472Y50643D01*
X68300Y52815D01*
X66128Y50643D01*
X65563Y51152D01*
X64997Y51548D01*
X64431Y51831D01*
X63866Y52001D01*
X63300Y52057D01*
X62734Y52001D01*
X62169Y51831D01*
X61603Y51548D01*
X61037Y51152D01*
X60472Y50643D01*
X58300Y52815D01*
X56128Y50643D01*
X55563Y51152D01*
X54997Y51548D01*
X54431Y51831D01*
X53866Y52001D01*
X53300Y52057D01*
X52734Y52001D01*
X52169Y51831D01*
X51603Y51548D01*
X51037Y51152D01*
X50472Y50643D01*
X47643Y53472D01*
X48152Y54037D01*
X48548Y54603D01*
X48831Y55169D01*
X49001Y55734D01*
X49057Y56300D01*
X49001Y56866D01*
X48831Y57431D01*
X48548Y57997D01*
X48152Y58563D01*
X47643Y59128D01*
X49815Y61300D01*
X47643Y63472D01*
X48152Y64037D01*
X48548Y64603D01*
X48831Y65169D01*
X49001Y65734D01*
X49057Y66300D01*
X49001Y66866D01*
X48831Y67431D01*
X48548Y67997D01*
X48152Y68563D01*
X47643Y69128D01*
X50472Y71957D01*
X51037Y71448D01*
X51603Y71052D01*
X52169Y70769D01*
X52734Y70599D01*
X53300Y70543D01*
X53866Y70599D01*
X54431Y70769D01*
X54997Y71052D01*
X55563Y71448D01*
X56128Y71957D01*
X58300Y69785D01*
X60472Y71957D01*
X61037Y71448D01*
X61603Y71052D01*
X62169Y70769D01*
X62734Y70599D01*
X63300Y70543D01*
X63866Y70599D01*
X64431Y70769D01*
X64997Y71052D01*
X65563Y71448D01*
X66128Y71957D01*
X68300Y69785D01*
X70472Y71957D01*
X71037Y71448D01*
X71603Y71052D01*
X72169Y70769D01*
X72734Y70599D01*
X73300Y70543D01*
X73866Y70599D01*
X74431Y70769D01*
X74997Y71052D01*
X75563Y71448D01*
X76128Y71957D01*
X78957Y69128D01*
D02*
G37*
%LPC*%
G36*
X68300Y68352D02*
X68052Y67997D01*
X67769Y67431D01*
X67599Y66866D01*
X67543Y66300D01*
X67599Y65734D01*
X67769Y65169D01*
X68052Y64603D01*
X68300Y64248D01*
X68548Y64603D01*
X68831Y65169D01*
X69001Y65734D01*
X69057Y66300D01*
X69001Y66866D01*
X68831Y67431D01*
X68548Y67997D01*
X68300Y68352D01*
D02*
G37*
G36*
X58300D02*
X58052Y67997D01*
X57769Y67431D01*
X57599Y66866D01*
X57543Y66300D01*
X57599Y65734D01*
X57769Y65169D01*
X58052Y64603D01*
X58300Y64248D01*
X58548Y64603D01*
X58831Y65169D01*
X59001Y65734D01*
X59057Y66300D01*
X59001Y66866D01*
X58831Y67431D01*
X58548Y67997D01*
X58300Y68352D01*
D02*
G37*
G36*
X73300Y62057D02*
X72734Y62001D01*
X72169Y61831D01*
X71603Y61548D01*
X71248Y61300D01*
X71603Y61052D01*
X72169Y60769D01*
X72734Y60599D01*
X73300Y60543D01*
X73866Y60599D01*
X74431Y60769D01*
X74997Y61052D01*
X75352Y61300D01*
X74997Y61548D01*
X74431Y61831D01*
X73866Y62001D01*
X73300Y62057D01*
D02*
G37*
G36*
X63300D02*
X62734Y62001D01*
X62169Y61831D01*
X61603Y61548D01*
X61248Y61300D01*
X61603Y61052D01*
X62169Y60769D01*
X62734Y60599D01*
X63300Y60543D01*
X63866Y60599D01*
X64431Y60769D01*
X64997Y61052D01*
X65352Y61300D01*
X64997Y61548D01*
X64431Y61831D01*
X63866Y62001D01*
X63300Y62057D01*
D02*
G37*
G36*
X53300D02*
X52734Y62001D01*
X52169Y61831D01*
X51603Y61548D01*
X51248Y61300D01*
X51603Y61052D01*
X52169Y60769D01*
X52734Y60599D01*
X53300Y60543D01*
X53866Y60599D01*
X54431Y60769D01*
X54997Y61052D01*
X55352Y61300D01*
X54997Y61548D01*
X54431Y61831D01*
X53866Y62001D01*
X53300Y62057D01*
D02*
G37*
G36*
X68300Y62815D02*
X66785Y61300D01*
X68300Y59785D01*
X69815Y61300D01*
X68300Y62815D01*
D02*
G37*
G36*
X58300D02*
X56785Y61300D01*
X58300Y59785D01*
X59815Y61300D01*
X58300Y62815D01*
D02*
G37*
G36*
X78300Y58352D02*
X78052Y57997D01*
X77769Y57431D01*
X77599Y56866D01*
X77543Y56300D01*
X77599Y55734D01*
X77769Y55169D01*
X78052Y54603D01*
X78300Y54248D01*
X78548Y54603D01*
X78831Y55169D01*
X79001Y55734D01*
X79057Y56300D01*
X79001Y56866D01*
X78831Y57431D01*
X78548Y57997D01*
X78300Y58352D01*
D02*
G37*
G36*
X68300D02*
X68052Y57997D01*
X67769Y57431D01*
X67599Y56866D01*
X67543Y56300D01*
X67599Y55734D01*
X67769Y55169D01*
X68052Y54603D01*
X68300Y54248D01*
X68548Y54603D01*
X68831Y55169D01*
X69001Y55734D01*
X69057Y56300D01*
X69001Y56866D01*
X68831Y57431D01*
X68548Y57997D01*
X68300Y58352D01*
D02*
G37*
G36*
X58300D02*
X58052Y57997D01*
X57769Y57431D01*
X57599Y56866D01*
X57543Y56300D01*
X57599Y55734D01*
X57769Y55169D01*
X58052Y54603D01*
X58300Y54248D01*
X58548Y54603D01*
X58831Y55169D01*
X59001Y55734D01*
X59057Y56300D01*
X59001Y56866D01*
X58831Y57431D01*
X58548Y57997D01*
X58300Y58352D01*
D02*
G37*
G36*
X181696Y422500D02*
X180304D01*
X179017Y421967D01*
X178033Y420983D01*
X177500Y419696D01*
Y418304D01*
X178033Y417017D01*
X179017Y416033D01*
X180304Y415500D01*
X181696D01*
X182983Y416033D01*
X183967Y417017D01*
X184500Y418304D01*
Y419696D01*
X183967Y420983D01*
X182983Y421967D01*
X181696Y422500D01*
D02*
G37*
G36*
X140696D02*
X139304D01*
X138017Y421967D01*
X137033Y420983D01*
X136500Y419696D01*
Y418304D01*
X137033Y417017D01*
X138017Y416033D01*
X139304Y415500D01*
X140696D01*
X141983Y416033D01*
X142967Y417017D01*
X143500Y418304D01*
Y419696D01*
X142967Y420983D01*
X141983Y421967D01*
X140696Y422500D01*
D02*
G37*
G36*
X123070Y350300D02*
X119300D01*
Y346530D01*
X121013Y347239D01*
X122361Y348587D01*
X123070Y350300D01*
D02*
G37*
G36*
X78300Y288352D02*
X78052Y287997D01*
X77769Y287431D01*
X77599Y286866D01*
X77543Y286300D01*
X77599Y285734D01*
X77769Y285169D01*
X78052Y284603D01*
X78300Y284248D01*
X78548Y284603D01*
X78831Y285169D01*
X79001Y285734D01*
X79057Y286300D01*
X79001Y286866D01*
X78831Y287431D01*
X78548Y287997D01*
X78300Y288352D01*
D02*
G37*
G36*
X68300D02*
X68052Y287997D01*
X67769Y287431D01*
X67599Y286866D01*
X67543Y286300D01*
X67599Y285734D01*
X67769Y285169D01*
X68052Y284603D01*
X68300Y284248D01*
X68548Y284603D01*
X68831Y285169D01*
X69001Y285734D01*
X69057Y286300D01*
X69001Y286866D01*
X68831Y287431D01*
X68548Y287997D01*
X68300Y288352D01*
D02*
G37*
G36*
X58300D02*
X58052Y287997D01*
X57769Y287431D01*
X57599Y286866D01*
X57543Y286300D01*
X57599Y285734D01*
X57769Y285169D01*
X58052Y284603D01*
X58300Y284248D01*
X58548Y284603D01*
X58831Y285169D01*
X59001Y285734D01*
X59057Y286300D01*
X59001Y286866D01*
X58831Y287431D01*
X58548Y287997D01*
X58300Y288352D01*
D02*
G37*
G36*
X83300Y282057D02*
X82734Y282001D01*
X82169Y281831D01*
X81603Y281548D01*
X81248Y281300D01*
X81603Y281052D01*
X82169Y280769D01*
X82734Y280599D01*
X83300Y280543D01*
X83866Y280599D01*
X84431Y280769D01*
X84997Y281052D01*
X85352Y281300D01*
X84997Y281548D01*
X84431Y281831D01*
X83866Y282001D01*
X83300Y282057D01*
D02*
G37*
G36*
X73300D02*
X72734Y282001D01*
X72169Y281831D01*
X71603Y281548D01*
X71248Y281300D01*
X71603Y281052D01*
X72169Y280769D01*
X72734Y280599D01*
X73300Y280543D01*
X73866Y280599D01*
X74431Y280769D01*
X74997Y281052D01*
X75352Y281300D01*
X74997Y281548D01*
X74431Y281831D01*
X73866Y282001D01*
X73300Y282057D01*
D02*
G37*
G36*
X63300D02*
X62734Y282001D01*
X62169Y281831D01*
X61603Y281548D01*
X61248Y281300D01*
X61603Y281052D01*
X62169Y280769D01*
X62734Y280599D01*
X63300Y280543D01*
X63866Y280599D01*
X64431Y280769D01*
X64997Y281052D01*
X65352Y281300D01*
X64997Y281548D01*
X64431Y281831D01*
X63866Y282001D01*
X63300Y282057D01*
D02*
G37*
G36*
X53300D02*
X52734Y282001D01*
X52169Y281831D01*
X51603Y281548D01*
X51248Y281300D01*
X51603Y281052D01*
X52169Y280769D01*
X52734Y280599D01*
X53300Y280543D01*
X53866Y280599D01*
X54431Y280769D01*
X54997Y281052D01*
X55352Y281300D01*
X54997Y281548D01*
X54431Y281831D01*
X53866Y282001D01*
X53300Y282057D01*
D02*
G37*
G36*
X78300Y282815D02*
X76785Y281300D01*
X78300Y279785D01*
X79815Y281300D01*
X78300Y282815D01*
D02*
G37*
G36*
X68300D02*
X66785Y281300D01*
X68300Y279785D01*
X69815Y281300D01*
X68300Y282815D01*
D02*
G37*
G36*
X58300D02*
X56785Y281300D01*
X58300Y279785D01*
X59815Y281300D01*
X58300Y282815D01*
D02*
G37*
G36*
X78300Y278352D02*
X78052Y277997D01*
X77769Y277431D01*
X77599Y276866D01*
X77543Y276300D01*
X77599Y275734D01*
X77769Y275169D01*
X78052Y274603D01*
X78300Y274248D01*
X78548Y274603D01*
X78831Y275169D01*
X79001Y275734D01*
X79057Y276300D01*
X79001Y276866D01*
X78831Y277431D01*
X78548Y277997D01*
X78300Y278352D01*
D02*
G37*
G36*
X68300D02*
X68052Y277997D01*
X67769Y277431D01*
X67599Y276866D01*
X67543Y276300D01*
X67599Y275734D01*
X67769Y275169D01*
X68052Y274603D01*
X68300Y274248D01*
X68548Y274603D01*
X68831Y275169D01*
X69001Y275734D01*
X69057Y276300D01*
X69001Y276866D01*
X68831Y277431D01*
X68548Y277997D01*
X68300Y278352D01*
D02*
G37*
G36*
X58300D02*
X58052Y277997D01*
X57769Y277431D01*
X57599Y276866D01*
X57543Y276300D01*
X57599Y275734D01*
X57769Y275169D01*
X58052Y274603D01*
X58300Y274248D01*
X58548Y274603D01*
X58831Y275169D01*
X59001Y275734D01*
X59057Y276300D01*
X59001Y276866D01*
X58831Y277431D01*
X58548Y277997D01*
X58300Y278352D01*
D02*
G37*
G36*
X217118Y71500D02*
X212882D01*
X208729Y70674D01*
X204816Y69053D01*
X201295Y66700D01*
X198300Y63705D01*
X195947Y60184D01*
X194326Y56271D01*
X193500Y52118D01*
Y47882D01*
X194326Y43729D01*
X195947Y39816D01*
X198300Y36295D01*
X201295Y33300D01*
X204816Y30947D01*
X208729Y29326D01*
X212882Y28500D01*
X217118D01*
X221271Y29326D01*
X225184Y30947D01*
X228705Y33300D01*
X231700Y36295D01*
X234053Y39816D01*
X235674Y43729D01*
X236500Y47882D01*
Y52118D01*
X235674Y56271D01*
X234053Y60184D01*
X231700Y63705D01*
X228705Y66700D01*
X225184Y69053D01*
X221271Y70674D01*
X217118Y71500D01*
D02*
G37*
G36*
X157696Y23500D02*
X156304D01*
X155017Y22967D01*
X154980Y22930D01*
X154000Y22013D01*
X153020Y22930D01*
X152983Y22967D01*
X151696Y23500D01*
X150304D01*
X149017Y22967D01*
X148033Y21983D01*
X147500Y20696D01*
Y19304D01*
X148033Y18017D01*
X149017Y17033D01*
X150304Y16500D01*
X151696D01*
X152983Y17033D01*
X153020Y17070D01*
X154000Y17987D01*
X154980Y17070D01*
X155017Y17033D01*
X156304Y16500D01*
X157696D01*
X158983Y17033D01*
X159967Y18017D01*
X160500Y19304D01*
Y20696D01*
X159967Y21983D01*
X158983Y22967D01*
X157696Y23500D01*
D02*
G37*
G36*
X123070Y20300D02*
X119300D01*
Y16530D01*
X121013Y17239D01*
X122361Y18587D01*
X123070Y20300D01*
D02*
G37*
G36*
X195696Y12500D02*
X194304D01*
X193017Y11967D01*
X192033Y10983D01*
X191500Y9696D01*
Y8304D01*
X192033Y7017D01*
X193017Y6033D01*
X194304Y5500D01*
X195696D01*
X196983Y6033D01*
X197967Y7017D01*
X198500Y8304D01*
Y9696D01*
X197967Y10983D01*
X196983Y11967D01*
X195696Y12500D01*
D02*
G37*
G36*
X63623Y172594D02*
X63477Y172588D01*
X62977Y172468D01*
Y170575D01*
X63300Y170543D01*
X63623Y170575D01*
Y172594D01*
D02*
G37*
G36*
X209696Y223000D02*
X208304D01*
X207017Y222467D01*
X206033Y221483D01*
X205500Y220196D01*
Y218804D01*
X206033Y217517D01*
X207017Y216533D01*
X208304Y216000D01*
X209500Y215196D01*
Y213804D01*
X210033Y212517D01*
X211017Y211533D01*
X212304Y211000D01*
X213696D01*
X214983Y211533D01*
X215967Y212517D01*
X216500Y213804D01*
Y215196D01*
X215967Y216483D01*
X214983Y217467D01*
X213696Y218000D01*
X212500Y218804D01*
Y220196D01*
X211967Y221483D01*
X210983Y222467D01*
X209696Y223000D01*
D02*
G37*
G36*
X214696Y188000D02*
X213304D01*
X212017Y187467D01*
X211033Y186483D01*
X210500Y185196D01*
Y183804D01*
X211033Y182517D01*
X212017Y181533D01*
X213304Y181000D01*
X214696D01*
X215983Y181533D01*
X216967Y182517D01*
X217500Y183804D01*
Y185196D01*
X216967Y186483D01*
X215983Y187467D01*
X214696Y188000D01*
D02*
G37*
G36*
X213696Y175000D02*
X212304D01*
X211017Y174467D01*
X210033Y173483D01*
X209500Y172196D01*
Y170804D01*
X210033Y169517D01*
X211017Y168533D01*
X212304Y168000D01*
X213696D01*
X214983Y168533D01*
X215967Y169517D01*
X216500Y170804D01*
Y172196D01*
X215967Y173483D01*
X214983Y174467D01*
X213696Y175000D01*
D02*
G37*
G36*
X140696Y149250D02*
X139304D01*
X138017Y148717D01*
X137033Y147733D01*
X136500Y146446D01*
Y145054D01*
X137033Y143767D01*
X138017Y142783D01*
X139304Y142250D01*
X140696D01*
X141983Y142783D01*
X142967Y143767D01*
X143500Y145054D01*
Y146446D01*
X142967Y147733D01*
X141983Y148717D01*
X140696Y149250D01*
D02*
G37*
G36*
X119300Y96070D02*
Y92300D01*
X123070D01*
X122361Y94013D01*
X121013Y95361D01*
X119300Y96070D01*
D02*
G37*
G36*
X137321Y91750D02*
X135929D01*
X134642Y91217D01*
X133658Y90233D01*
X133125Y88946D01*
Y87554D01*
X133658Y86267D01*
X134642Y85283D01*
X135929Y84750D01*
X137321D01*
X138608Y85283D01*
X139592Y86267D01*
X140125Y87554D01*
Y88946D01*
X139592Y90233D01*
X138608Y91217D01*
X137321Y91750D01*
D02*
G37*
%LPD*%
D10*
X61750Y229250D02*
X65550Y225450D01*
X43240Y229250D02*
X61750D01*
X65550Y225450D02*
X82550D01*
X113990Y221000D02*
X114240Y221250D01*
X117760D02*
X118010Y221000D01*
X114240Y221250D02*
X117760D01*
X118010Y221000D02*
X154562D01*
X187040Y253478D01*
X83718Y224282D02*
X83728D01*
X82550Y225450D02*
X83718Y224282D01*
X83728D02*
X87010Y221000D01*
X113990D01*
X136202Y370788D02*
X154040Y352950D01*
X178960D01*
X196000Y369990D01*
X6750Y240250D02*
X21500Y225500D01*
X6750Y240250D02*
Y268792D01*
X21500Y225500D02*
X39490D01*
X248750Y294240D02*
X252990Y290000D01*
X248000Y295000D02*
X248750Y294250D01*
Y294240D02*
Y294250D01*
X252990Y290000D02*
X253000D01*
X249252Y146252D02*
Y259495D01*
X39490Y225500D02*
X43240Y229250D01*
X161250Y113240D02*
Y113371D01*
X158760Y110750D02*
X161250Y113240D01*
X158629Y110750D02*
X158760D01*
X153879Y106000D02*
X158629Y110750D01*
X161250Y113371D02*
X168879Y121000D01*
X6750Y268792D02*
X9250Y271292D01*
Y289750D01*
X216757Y412000D02*
X247850Y380907D01*
X203500Y412000D02*
X216757D01*
X247850Y373493D02*
Y380907D01*
X258250Y338000D02*
Y363093D01*
X247850Y373493D02*
X258250Y363093D01*
X80000Y106000D02*
X153879D01*
X224000Y121000D02*
X249252Y146252D01*
X168879Y121000D02*
X224000D01*
X253000Y277535D02*
Y282000D01*
X247000Y271535D02*
X253000Y277535D01*
X247000Y261747D02*
Y271535D01*
X248000Y295000D02*
Y327750D01*
X254000Y326000D02*
X254374Y325626D01*
X256636D01*
X166000Y38000D02*
X257515Y129515D01*
X256636Y325626D02*
X257515Y324747D01*
Y129515D02*
Y324747D01*
X248000Y327750D02*
X258250Y338000D01*
X192238Y253478D02*
X215000Y276240D01*
X185500Y430000D02*
X203500Y412000D01*
X170000Y430000D02*
X185500D01*
X177000Y192703D02*
Y207000D01*
X159298Y175000D02*
X177000Y192703D01*
X247000Y261747D02*
X249252Y259495D01*
X207740Y234240D02*
X223000Y249500D01*
X196240Y234240D02*
X207740D01*
X223000Y249500D02*
Y377010D01*
X214760Y385250D02*
X223000Y377010D01*
X130790Y186800D02*
X136990Y193000D01*
X155000D02*
X196240Y234240D01*
X136990Y193000D02*
X155000D01*
X211240Y385250D02*
X214760D01*
X196000Y369990D02*
Y370010D01*
X89468Y415478D02*
X90240Y416250D01*
X101250Y401986D02*
X107436Y395800D01*
X101250Y401986D02*
Y409760D01*
X94760Y416250D02*
X101250Y409760D01*
X196000Y370010D02*
X211240Y385250D01*
X87000Y415000D02*
X87478Y415478D01*
X124600Y175000D02*
X159298D01*
X188800Y242800D02*
Y249228D01*
X166000Y220000D02*
X188800Y242800D01*
X166000Y214000D02*
Y220000D01*
X156000Y204000D02*
X166000Y214000D01*
X90240Y416250D02*
X94760D01*
X91200Y186800D02*
X130790D01*
X87478Y415478D02*
X89468D01*
X120164Y395800D02*
X136202Y379762D01*
X87000Y191000D02*
X91200Y186800D01*
X118300Y181300D02*
X124600Y175000D01*
X148624Y291300D02*
X150323Y293000D01*
X118300Y291300D02*
X148624D01*
X150323Y293000D02*
X151000D01*
X63000Y14826D02*
Y26000D01*
Y14826D02*
X65971Y11854D01*
X40324Y444000D02*
X156000D01*
X170000Y430000D01*
X36000Y448324D02*
X40324Y444000D01*
X36000Y448324D02*
Y449000D01*
X215000Y276240D02*
Y295000D01*
X187040Y253478D02*
X192238D01*
X9000Y290000D02*
X9250Y289750D01*
X78000Y108000D02*
X80000Y106000D01*
X56000Y108000D02*
X78000D01*
X47500Y116500D02*
X56000Y108000D01*
X14500Y116500D02*
X47500D01*
X5750Y125250D02*
X14500Y116500D01*
X5750Y125250D02*
Y149750D01*
X9000Y153000D01*
X107436Y395800D02*
X120164D01*
X136202Y370788D02*
Y379762D01*
X63000Y26000D02*
X68300Y31300D01*
D46*
Y131300D02*
Y131300D01*
Y131000D02*
Y131300D01*
X63650Y123350D02*
X70000Y117000D01*
X63650Y136650D02*
X68300Y141300D01*
X63650Y123350D02*
Y136650D01*
X68300Y101300D02*
X73316Y96284D01*
X58300Y101300D02*
X63316Y96284D01*
X48300Y101300D02*
X53316Y96284D01*
X68300Y91300D02*
X73316Y86284D01*
X58300Y91300D02*
X63316Y86284D01*
X48300Y91300D02*
X53316Y86284D01*
X73000Y126000D02*
Y126300D01*
X70000Y117000D02*
X72000D01*
X44246Y207197D02*
Y207229D01*
X48300Y211284D01*
X48348Y201300D02*
X52403Y197246D01*
X72354Y205371D02*
Y205403D01*
X68300Y201316D02*
X72354Y205371D01*
X64197Y215354D02*
X64229D01*
X68284Y211300D01*
X62354Y205371D02*
Y205403D01*
X58300Y201316D02*
X62354Y205371D01*
X54246Y207197D02*
Y207229D01*
X58300Y211284D01*
X44246Y427197D02*
Y427229D01*
X48300Y431284D01*
X68300Y311300D02*
X73316Y306284D01*
X58300Y311300D02*
X63316Y306284D01*
X48300Y311300D02*
X53316Y306284D01*
X68300Y321300D02*
X73316Y316284D01*
X58300Y321300D02*
X63316Y316284D01*
X48300Y321300D02*
X53316Y316284D01*
X48348Y421300D02*
X52403Y417245D01*
X64229Y435354D02*
X68284Y431300D01*
X62354Y425371D02*
Y425403D01*
X58300Y421316D02*
X62354Y425371D01*
X54246Y427197D02*
Y427229D01*
X58300Y431284D01*
X72354Y425371D02*
Y425403D01*
X68300Y421316D02*
X72354Y425371D01*
X64197Y435354D02*
X64229D01*
D48*
X156245Y55000D02*
X175000D01*
X151645Y59600D02*
X156245Y55000D01*
X175000D02*
X195878Y75878D01*
X196500Y76500D02*
Y81500D01*
X83479Y66121D02*
X88300Y61300D01*
X83300Y66300D02*
X83479Y66121D01*
X78312Y71479D02*
X78396Y71396D01*
X47500Y383722D02*
X50017Y381204D01*
X68300Y181268D02*
X68332Y181300D01*
X66911Y159689D02*
Y161300D01*
X62550Y159689D02*
X66911D01*
X78300Y61300D02*
X83300Y66300D01*
X108300Y371300D02*
Y371300D01*
X113000Y376000D01*
X78204Y251396D02*
Y253617D01*
X77000Y254822D02*
X78204Y253617D01*
X77000Y254822D02*
Y258000D01*
X78204Y251396D02*
X78300Y251300D01*
X88300Y241300D02*
X98300Y251300D01*
X118300Y241300D02*
X118300D01*
X118435D01*
X122735Y237000D01*
X124000D01*
X113885Y216750D02*
X115750D01*
X116000Y217000D01*
X108435Y211300D02*
X113885Y216750D01*
X51000Y344000D02*
X53284Y346284D01*
X38300Y351300D02*
X45600Y344000D01*
X51000D01*
X18204Y311396D02*
Y314796D01*
Y311396D02*
X18300Y311300D01*
X18000Y315000D02*
X18204Y314796D01*
X68300Y251300D02*
Y251400D01*
X70793Y253893D02*
Y257207D01*
X68300Y251400D02*
X70793Y253893D01*
X65000Y263000D02*
X70793Y257207D01*
X108396Y261087D02*
X111517Y257966D01*
Y254652D02*
Y257966D01*
X108300Y251435D02*
X111517Y254652D01*
X108396Y261087D02*
Y261204D01*
X108300Y251300D02*
Y251435D01*
Y271165D02*
Y271300D01*
Y261435D02*
X111575Y264711D01*
X108300Y271165D02*
X111575Y267889D01*
Y264711D02*
Y267889D01*
X108300Y261300D02*
Y261435D01*
Y251300D02*
X118300Y241300D01*
X104000Y255735D02*
X108300Y251435D01*
X104000Y255735D02*
Y256000D01*
X18435Y241300D02*
X22735Y237000D01*
X18300Y241300D02*
X18435D01*
X22735Y237000D02*
X24000D01*
X18300Y21300D02*
X23000Y26000D01*
X14000Y16000D02*
Y16865D01*
X18300Y21165D02*
Y21300D01*
X14000Y16865D02*
X18300Y21165D01*
X108300Y301300D02*
X118300Y311300D01*
X108300Y301300D02*
X108300D01*
X104000Y297000D02*
X108300Y301300D01*
X103284Y16284D02*
Y16316D01*
Y16284D02*
X108300Y21300D01*
X98300Y21300D02*
X103284Y16316D01*
X88204Y15204D02*
Y21204D01*
X88300Y21300D01*
X88000Y15000D02*
X88204Y15204D01*
X103000Y26000D02*
X108204Y31204D01*
X98435Y31300D02*
X103000Y26735D01*
X98435Y31300D02*
X98435D01*
X103000Y26000D02*
Y26735D01*
X98300Y31300D02*
X98300D01*
X98984Y40708D02*
X103284Y36408D01*
Y36284D02*
Y36408D01*
Y36284D02*
X108300Y41300D01*
X68204Y51204D02*
X68237D01*
X68372Y51069D01*
Y40470D02*
Y51069D01*
X78204Y45648D02*
Y51204D01*
X78312Y71479D02*
Y76201D01*
X88396Y71396D02*
Y76027D01*
X88492Y76123D01*
X68396Y71396D02*
Y76953D01*
X58300Y71300D02*
X58396Y71396D01*
Y76953D02*
X58418Y76975D01*
X58396Y71396D02*
Y76953D01*
X145652Y135652D02*
Y137899D01*
X144000Y134000D02*
X145652Y135652D01*
Y137899D02*
X149343Y141589D01*
X150561D01*
X152472Y143500D01*
X158000D02*
Y155000D01*
X151700Y161300D02*
X158000Y155000D01*
X118300Y161300D02*
X151700D01*
X158000Y143500D02*
X201500D01*
X152472D02*
X158000D01*
X201500D02*
X207000Y138000D01*
X140090Y59600D02*
X151645D01*
X125000Y55000D02*
X135490D01*
X140090Y59600D01*
X55000Y125000D02*
X58204Y128204D01*
Y131204D01*
X58300Y131300D01*
X47000Y10000D02*
X53284Y16284D01*
X39568Y10000D02*
X47000D01*
X33284Y16284D02*
X39568Y10000D01*
X40739Y125000D02*
X55000D01*
X38396Y127343D02*
Y131204D01*
Y127343D02*
X40739Y125000D01*
X38300Y131300D02*
X38396Y131204D01*
X108204D02*
X108300Y131300D01*
X105707Y125627D02*
X108204Y128125D01*
Y131204D01*
X98434Y125627D02*
X105707D01*
X23284Y136316D02*
X28300Y131300D01*
X18300Y141300D02*
X23284Y136316D01*
X177892Y87675D02*
X184066Y81500D01*
X156000Y78000D02*
X165674Y87675D01*
X184066Y81500D02*
X196500D01*
X165674Y87675D02*
X177892D01*
X126000Y78000D02*
X156000D01*
X183000Y113000D02*
X196500Y99500D01*
Y81500D02*
Y99500D01*
X14865Y198000D02*
X18069Y201204D01*
X9343Y198000D02*
X14865D01*
X7000Y200343D02*
X9343Y198000D01*
X7000Y200343D02*
Y206000D01*
X11000Y215000D02*
X14465D01*
X18165Y211300D01*
X153000Y240000D02*
Y249000D01*
X130700Y271300D02*
X153000Y249000D01*
X118300Y271300D02*
X130700D01*
X118300Y261300D02*
X127700D01*
X144000Y240000D02*
Y245000D01*
X127700Y261300D02*
X144000Y245000D01*
X118300Y251300D02*
X127200D01*
X138500Y240000D01*
X103316Y96316D02*
X108300Y101300D01*
X23284Y106316D02*
X28300Y101300D01*
X22573Y436892D02*
X28165Y431300D01*
X28300D01*
X22319Y436892D02*
X22573D01*
X31770Y437572D02*
X32028D01*
X38300Y431300D01*
X103284Y346284D02*
Y346316D01*
X98300Y351300D02*
X103284Y346316D01*
X98300Y351300D02*
Y351300D01*
Y311300D02*
X103284Y316284D01*
X98300Y21300D02*
Y21300D01*
X88300Y21300D02*
X98300Y31300D01*
X78300D02*
X88300Y21300D01*
X88300D02*
Y21300D01*
X108300Y31300D02*
X108300D01*
X118300Y21300D01*
X13284Y106316D02*
X18300Y101300D01*
X108300Y211300D02*
X108435D01*
X98300Y201300D02*
X108300Y211300D01*
X103284Y346284D02*
X108300Y351300D01*
X33284Y356316D02*
X38300Y351300D01*
X53284Y346284D02*
X58300Y351300D01*
X53284Y356284D02*
X58300Y361300D01*
X71000Y358000D02*
Y358465D01*
X68300Y361165D02*
Y361300D01*
Y361165D02*
X71000Y358465D01*
X103316Y426316D02*
X108300Y431300D01*
X18300Y251300D02*
X23284Y246316D01*
X18300Y251300D02*
X18300D01*
X23316Y356284D02*
X28300Y351300D01*
X28300D01*
X18300Y361300D02*
X23316Y356284D01*
X18300Y421300D02*
X23316Y426316D01*
X98300Y421300D02*
X103316Y426316D01*
X118300Y381300D02*
X123316Y386316D01*
X118300Y371300D02*
X123316Y366284D01*
X103284Y306284D02*
X108300Y311300D01*
X103284Y316284D02*
X108300Y321300D01*
X38300Y311300D02*
X43316Y306284D01*
X103316Y246284D02*
Y246316D01*
Y246284D02*
X108300Y241300D01*
Y241300D02*
Y241300D01*
X98300Y241300D02*
X103316Y246316D01*
X53284Y236284D02*
X58300Y241300D01*
X63284Y246316D02*
X68300Y241300D01*
X83284Y256316D02*
X88300Y251300D01*
X33284Y246316D02*
X38300Y241300D01*
X53284Y246284D02*
X58300Y251300D01*
X23284Y246316D02*
X28300Y241300D01*
X18165Y211300D02*
X18300D01*
X33284Y216316D02*
X38300Y211300D01*
X23284Y216316D02*
X28300Y211300D01*
X98396Y125666D02*
Y131204D01*
X98300Y131300D02*
X98396Y131204D01*
Y125666D02*
X98434Y125627D01*
X38300Y91300D02*
X43316Y86284D01*
X33284Y96284D02*
X38300Y101300D01*
X118300Y51300D02*
X123316Y46284D01*
X118300Y41300D02*
X123316Y36284D01*
X113284Y36316D02*
X118300Y31300D01*
X33284Y26284D02*
X38300Y31300D01*
X53284Y26284D02*
X58300Y31300D01*
X98300Y91300D02*
X103316Y96316D01*
X23284D02*
X28300Y91300D01*
X13284Y96316D02*
X18300Y91300D01*
Y141300D02*
X18300D01*
X53284Y136284D02*
X58300Y141300D01*
X33284Y16284D02*
X38300Y21300D01*
X53284Y16284D02*
X58300Y21300D01*
X13284Y26284D02*
X18300Y31300D01*
X23284Y16284D02*
X28300Y21300D01*
X98300Y141300D02*
X103316Y146316D01*
X113284Y136316D02*
X118300Y131300D01*
X73284Y136284D02*
X78300Y141300D01*
X73284Y176284D02*
X78300Y181300D01*
X83316Y176284D01*
X83284Y166316D02*
X88300Y161300D01*
X78300Y251165D02*
Y251300D01*
X81778Y247822D02*
X88300Y241300D01*
X78300Y251165D02*
X81711Y247754D01*
X78300Y241300D02*
X81711Y244711D01*
Y247754D01*
X68300Y171300D02*
X73284Y166316D01*
X73316D01*
X68300Y171300D02*
X73284Y176284D01*
X73316Y166316D02*
X78300Y161332D01*
Y161300D02*
Y161332D01*
X83284Y166316D01*
X68300Y181268D02*
X73284Y176284D01*
X68300Y181268D02*
Y181300D01*
X83284Y176284D02*
X83316D01*
X78300Y171300D02*
X83284Y176284D01*
X78300Y171300D02*
X83284Y166316D01*
X73316D02*
X78300Y171300D01*
X73284Y176284D02*
X78268Y171300D01*
X83316Y166316D02*
X88300Y171300D01*
X83284Y166316D02*
X83316D01*
X68332Y181300D02*
X78300D01*
X88300D01*
Y161300D02*
Y171300D01*
Y181300D01*
X78300Y161300D02*
X88300D01*
X58300Y171300D02*
X63300Y176300D01*
X68300Y181300D01*
X58300Y171300D02*
X63300Y166300D01*
X47500Y163722D02*
X48204Y163018D01*
Y161396D02*
Y163018D01*
Y161396D02*
X48300Y161300D01*
Y171165D02*
Y171300D01*
X47500Y170365D02*
X48300Y171165D01*
X47500Y163722D02*
Y170365D01*
Y180365D02*
X48300Y181165D01*
X47500Y173722D02*
Y180365D01*
Y173722D02*
X48204Y173018D01*
Y171396D02*
Y173018D01*
Y171396D02*
X48300Y171300D01*
Y181165D02*
Y181300D01*
X48396Y181396D02*
X50617D01*
X48300Y181300D02*
X48396Y181396D01*
X58165Y181300D02*
X58300D01*
X57965Y181500D02*
X58165Y181300D01*
X50722Y181500D02*
X57965D01*
X50617Y181396D02*
X50722Y181500D01*
X50017Y161204D02*
X50722Y160500D01*
X48396Y161204D02*
X50017D01*
X48300Y161300D02*
X48396Y161204D01*
X58165Y161300D02*
X58300D01*
X57365Y160500D02*
X58165Y161300D01*
X50722Y160500D02*
X57365D01*
X58300Y161300D02*
X63300Y166300D01*
X68300Y171300D01*
X108300Y141300D02*
X113284Y136316D01*
X108300Y141300D02*
X108300D01*
X103316Y146284D02*
Y146316D01*
Y146284D02*
X108300Y141300D01*
Y141300D02*
Y141300D01*
X103316Y146316D02*
X108300Y151300D01*
X108300Y161300D02*
X108300D01*
X104000Y157000D02*
X108300Y161300D01*
X104000Y155735D02*
Y157000D01*
Y155735D02*
X108300Y151435D01*
Y151300D02*
Y151435D01*
X73284Y136284D02*
X78268Y131300D01*
X78300D01*
X88300D02*
X88300D01*
X78300D02*
X83300Y136300D01*
X78300Y141300D02*
X83300Y136300D01*
X88300Y131300D01*
X68522Y161300D02*
X78300D01*
X63300Y166300D02*
X68137Y161463D01*
X68411Y161411D02*
X73316Y166316D01*
X68069Y161300D02*
X68137Y161368D01*
X58396Y161204D02*
X61035D01*
X62550Y159689D01*
X68137Y161368D02*
Y161463D01*
X58300Y161300D02*
X58396Y161204D01*
X123796Y201204D02*
X124000Y201000D01*
X108300Y191300D02*
X118300Y201300D01*
X118396Y201204D02*
X123796D01*
X118300Y201300D02*
X118396Y201204D01*
X48300Y71300D02*
X53300Y66300D01*
X58300Y61300D01*
X63300Y56300D01*
X68300Y51300D01*
X48300Y61300D02*
X53300Y66300D01*
X58300Y71300D01*
Y51300D02*
X63300Y56300D01*
X68300Y61300D01*
X78300Y71300D02*
X83300Y66300D01*
X68300Y71300D02*
X73300Y66300D01*
X78300Y61300D01*
X83300Y56300D01*
Y66300D02*
X88300Y71300D01*
X58300D02*
X63300Y66300D01*
X68300Y61300D01*
X73300Y56300D01*
X78300Y51300D01*
X83300Y56300D01*
X68300Y61300D02*
X73300Y66300D01*
X78300Y71300D01*
X48300Y61300D02*
X53300Y56300D01*
X58300Y51300D01*
Y61300D02*
X63300Y66300D01*
X68300Y71300D01*
X108165Y81300D02*
X108300D01*
X104865Y78000D02*
X108165Y81300D01*
X102000Y78000D02*
X104865D01*
X108300Y81300D02*
X118300Y91300D01*
X73000Y25000D02*
X74465D01*
X78165Y21300D02*
X78300D01*
X74465Y25000D02*
X78165Y21300D01*
X73000Y25000D02*
Y25865D01*
X78300Y31165D01*
Y31300D01*
X88300Y21300D02*
X88300D01*
X48300Y51300D02*
X53300Y56300D01*
X58300Y61300D01*
X68300Y51300D02*
X73300Y56300D01*
X78300Y61300D01*
X83300Y56300D02*
X88300Y51300D01*
X83300Y56300D02*
X88300Y61300D01*
X68300Y401300D02*
X73316Y396284D01*
X68300Y381300D02*
X73316Y386316D01*
X83284D02*
X88300Y381300D01*
X83284Y396284D02*
X88300Y401300D01*
X48300D02*
X52000Y405000D01*
X68332Y391300D02*
X73316Y396284D01*
X78300Y401268D02*
Y401300D01*
X73316Y396284D02*
X78300Y401268D01*
X73316Y396284D02*
X78300Y391300D01*
X73284Y386316D02*
X73316D01*
X68300Y391300D02*
X73284Y386316D01*
X68300Y391300D02*
X68300D01*
X68332D01*
X73316Y386316D02*
X78300Y391300D01*
X83284Y396284D01*
X78300Y401268D02*
X83284Y396284D01*
X83316D01*
X88300Y391300D01*
X83284Y386316D02*
X88268Y391300D01*
X88300D01*
X88300D01*
X78300D02*
X83284Y386316D01*
X78300Y381332D02*
X83284Y386316D01*
X78300Y381300D02*
Y381332D01*
X73316Y386316D02*
X78300Y381332D01*
X58300Y391300D02*
X63300Y386300D01*
X68300Y381300D01*
X58300D02*
X63300Y386300D01*
X68300Y391300D01*
X58300Y401300D02*
X63300Y396300D01*
X68300Y391300D01*
X58165Y381300D02*
X58300D01*
X50722Y380500D02*
X57365D01*
X48300Y381300D02*
X48396Y381204D01*
X57365Y380500D02*
X58165Y381300D01*
X50017Y381204D02*
X50722Y380500D01*
X48396Y381204D02*
X50017D01*
X47500Y383722D02*
Y388278D01*
X48204Y388983D01*
Y391204D01*
X48300Y391300D01*
Y401165D02*
Y401300D01*
X48204Y391396D02*
Y393018D01*
Y391396D02*
X48300Y391300D01*
X47500Y400365D02*
X48300Y401165D01*
X47500Y393722D02*
Y400365D01*
Y393722D02*
X48204Y393018D01*
X52000Y405000D02*
X54465D01*
X58165Y401300D02*
X58300D01*
X54465Y405000D02*
X58165Y401300D01*
X58300Y391300D02*
X63300Y396300D01*
X68300Y401300D01*
X73000Y406000D01*
X48300Y291300D02*
X53300Y286300D01*
X58300Y281300D01*
X48300D02*
X53300Y286300D01*
X58300Y291300D01*
X63300Y286300D01*
X68300Y281300D01*
X58300D02*
X63300Y286300D01*
X68300Y291300D01*
X48300Y281300D02*
X53300Y276300D01*
X58300Y271300D01*
Y281300D02*
X63300Y276300D01*
X68300Y271300D01*
X48300D02*
X53300Y276300D01*
X58300Y281300D01*
X68300Y291300D02*
X73300Y286300D01*
X78300Y281300D01*
X58300Y271300D02*
X63300Y276300D01*
X68300Y281300D01*
X73300Y276300D01*
X78300Y271300D01*
X68300Y281300D02*
X73300Y286300D01*
X78300Y291300D01*
X68300Y271300D02*
X73300Y276300D01*
X78300Y281300D01*
X83300Y276300D01*
X88300Y271300D01*
X78300Y291300D02*
X83300Y286300D01*
X88300Y281300D01*
X78300Y271300D02*
X83300Y276300D01*
X88300Y281300D01*
X108300Y361300D02*
Y361435D01*
X104000Y365735D02*
X108300Y361435D01*
X104000Y365735D02*
Y366000D01*
X108300Y361300D02*
X108435D01*
X88300Y351300D02*
X98300Y361300D01*
X88300Y351300D02*
X88300D01*
X78300D02*
X83300Y356300D01*
X78300Y361300D02*
X83300Y356300D01*
X88300Y351300D01*
X108300Y361300D02*
X118300Y351300D01*
X118300D01*
X108300Y411300D02*
X118300Y421300D01*
X78300Y281300D02*
X83300Y286300D01*
X88300Y291300D01*
Y141300D02*
X93316Y146316D01*
X108300Y201300D02*
X108435D01*
X114185Y207050D01*
X118300Y141300D02*
X124600Y135000D01*
X126000D01*
X38300Y141300D02*
X48268D01*
X52354Y145387D01*
X141450Y207050D02*
X146750Y201750D01*
X114185Y207050D02*
X141450D01*
X103284Y86284D02*
X108300Y91300D01*
X38300Y31300D02*
X48300D01*
X83284Y36316D02*
X88300Y31300D01*
X28300Y311300D02*
X33316Y316316D01*
X108300Y421300D02*
X113316Y426316D01*
X23284Y416284D02*
X28300Y421300D01*
X122012Y357723D02*
X122436D01*
X118300Y361300D02*
X118435D01*
X122012Y357723D01*
X33284Y366316D02*
X38300Y361300D01*
X48300D01*
X88300D02*
Y361300D01*
X92000Y365000D01*
D49*
X73050Y237172D02*
X76222Y234000D01*
X73050Y237172D02*
Y246550D01*
X68300Y251300D02*
X73050Y246550D01*
X63550Y343936D02*
Y356550D01*
X68300Y361300D01*
X14000Y206000D02*
X14163Y206163D01*
X23302D01*
X28165Y201300D01*
X28300D01*
X23316Y426316D02*
X33284D01*
X38300Y421300D01*
D50*
X68549Y231175D02*
X70423Y229300D01*
X68549Y231175D02*
Y241051D01*
X70423Y229300D02*
X85700D01*
X68300Y131300D02*
X72847Y126753D01*
Y126153D02*
Y126753D01*
Y126153D02*
X73000Y126000D01*
X71847Y16153D02*
Y17753D01*
Y16153D02*
X76816Y11184D01*
X68300Y21300D02*
X71847Y17753D01*
X76816Y11184D02*
X84604D01*
X217000Y403000D02*
X242184Y377816D01*
X236000Y247000D02*
X242184Y253184D01*
Y377816D01*
X89018Y225982D02*
X153409D01*
X201150Y273723D01*
Y288362D01*
X85700Y229300D02*
X89018Y225982D01*
X76222Y234000D02*
X94000D01*
X96100Y231900D01*
X152112D01*
X195000Y274788D01*
X175000Y334000D02*
X212000Y371000D01*
X63550Y343936D02*
X73486Y334000D01*
X175000D01*
X195000Y291000D02*
X211350Y307350D01*
X195000Y274788D02*
Y291000D01*
X211350Y307350D02*
Y338824D01*
X218000Y305212D02*
Y356783D01*
X214000Y360784D02*
X218000Y356783D01*
X201150Y288362D02*
X218000Y305212D01*
X152887Y349100D02*
X181100D01*
X144972Y341184D02*
X152887Y349100D01*
X181100D02*
X213000Y381000D01*
X77316Y341184D02*
X144972D01*
X229000Y215000D02*
Y384353D01*
X194985Y391474D02*
X221879D01*
X224000Y210000D02*
X229000Y215000D01*
X216800Y135800D02*
X224000Y143000D01*
Y210000D01*
X236000Y195000D02*
Y247000D01*
X221879Y391474D02*
X229000Y384353D01*
X154888Y120100D02*
X157100D01*
X151900Y117113D02*
X154888Y120100D01*
X157100D02*
X163000Y126000D01*
X151900Y114900D02*
Y117113D01*
X149000Y112000D02*
X151900Y114900D01*
X204412Y128200D02*
X211059D01*
X197900Y133500D02*
X198500Y132900D01*
X213959Y131100D02*
X218747D01*
X231000Y143353D01*
X198500Y132900D02*
X209112D01*
X211059Y128200D02*
X213959Y131100D01*
X212012Y135800D02*
X216800D01*
X209112Y132900D02*
X212012Y135800D01*
X158500Y133500D02*
X197900D01*
X91396Y11184D02*
X172000D01*
X90112Y9900D02*
X91396Y11184D01*
X85887Y9900D02*
X90112D01*
X73609Y4000D02*
X182500D01*
X73100Y4509D02*
Y7113D01*
X66188Y11854D02*
X67942Y10100D01*
X65971Y11854D02*
X66188D01*
X70113Y10100D02*
X73100Y7113D01*
X67942Y10100D02*
X70113D01*
X73100Y4509D02*
X73609Y4000D01*
X84604Y11184D02*
X85887Y9900D01*
X262000Y257000D02*
Y318688D01*
X259900Y366888D02*
Y375920D01*
Y366888D02*
X262100Y364688D01*
X254687Y381133D02*
X259900Y375920D01*
X268000Y364787D02*
X270100Y366888D01*
X268000Y373213D02*
Y379064D01*
X270100Y366888D02*
Y371113D01*
X262100Y318788D02*
Y364688D01*
X268000Y373213D02*
X270100Y371113D01*
X262000Y318688D02*
X262100Y318788D01*
X268000Y251000D02*
Y364787D01*
X231000Y143353D02*
Y190000D01*
X202212Y126000D02*
X204412Y128200D01*
X163000Y126000D02*
X202212D01*
X98849Y118000D02*
X143000D01*
X160300Y71300D02*
X168000Y79000D01*
X254687Y381133D02*
Y392687D01*
X259750Y397750D01*
X208000Y342174D02*
X211350Y338824D01*
X208000Y342174D02*
Y355000D01*
X259787Y387277D02*
X268000Y379064D01*
X262000Y245000D02*
X268000Y251000D01*
X231000Y190000D02*
X236000Y195000D01*
X68300Y241300D02*
X68549Y241051D01*
X179000Y359000D02*
Y375489D01*
X154000Y359000D02*
X164677D01*
X168677Y363000D01*
Y385677D01*
X179000Y375489D02*
X194985Y391474D01*
X168677Y385677D02*
X186000Y403000D01*
X217000D01*
X118300Y71300D02*
X160300D01*
X84000Y112000D02*
X149000D01*
X79000Y117000D02*
X84000Y112000D01*
X72000Y117000D02*
X79000D01*
X88875Y118000D02*
X98849D01*
X98849Y118000D01*
X85175Y121700D02*
X88875Y118000D01*
X85000Y121700D02*
X85175D01*
X80750Y125950D02*
X85000Y121700D01*
X143000Y118000D02*
X158500Y133500D01*
X73050Y125950D02*
X80750D01*
X73000Y126000D02*
X73050Y125950D01*
X214000Y360784D02*
Y361000D01*
X70964Y347536D02*
X77316Y341184D01*
X33284Y256316D02*
X38300Y251300D01*
X48300D01*
X134847Y134153D02*
X135000Y134000D01*
X134847Y134153D02*
Y134753D01*
X118300Y151300D02*
X134847Y134753D01*
X24000Y317000D02*
X24000D01*
X28300Y321300D01*
X7000Y328000D02*
X31600D01*
X38300Y321300D01*
D51*
X58300Y171300D02*
Y181300D01*
X50929Y171000D02*
X57594D01*
X50916Y171013D02*
X50929Y171000D01*
X48300Y171300D02*
X48587Y171013D01*
X57894Y171300D02*
X58300D01*
X57594Y171000D02*
X57894Y171300D01*
X48587Y171013D02*
X50916D01*
X58300Y171300D02*
X68300D01*
X68300D02*
X78268D01*
X78300D01*
X78300D02*
X88300D01*
X88300D01*
X83316Y176284D02*
X88300Y171300D01*
X58300Y181300D02*
X63300Y176300D01*
X68300Y171300D01*
D53*
X33450Y196450D02*
X38300Y201300D01*
X23150Y196450D02*
X33450D01*
X18300Y201300D02*
X23150Y196450D01*
X139513Y399000D02*
X140000D01*
X137213Y401300D02*
X139513Y399000D01*
X118300Y401300D02*
X137213D01*
X70964Y347536D02*
Y348023D01*
X68300Y350687D02*
X70964Y348023D01*
X68300Y350687D02*
Y351300D01*
D54*
X215000Y439000D02*
D03*
Y50000D02*
D03*
D55*
X149923Y46923D02*
D03*
X93000Y427000D02*
D03*
X195878Y75878D02*
D03*
X196500Y81500D02*
D03*
X237084Y279702D02*
D03*
X237018Y284650D02*
D03*
X181000Y419000D02*
D03*
X150000Y100000D02*
D03*
X149000Y212000D02*
D03*
X11000Y314000D02*
D03*
X18000Y315000D02*
D03*
X91000Y261000D02*
D03*
X63270Y256298D02*
D03*
X65000Y263000D02*
D03*
X6000Y14000D02*
D03*
X155000Y344000D02*
D03*
X10026Y418292D02*
D03*
X9500Y408000D02*
D03*
X130000Y437000D02*
D03*
X40000Y154000D02*
D03*
X11000Y179000D02*
D03*
X9000Y169000D02*
D03*
X132968Y415032D02*
D03*
X125968D02*
D03*
X202968Y333032D02*
D03*
X241968Y179032D02*
D03*
X238968Y153032D02*
D03*
X242000Y173000D02*
D03*
X197968Y160032D02*
D03*
Y152032D02*
D03*
X173253Y73457D02*
D03*
X232968Y15032D02*
D03*
Y7032D02*
D03*
X38968Y70032D02*
D03*
X10000Y79000D02*
D03*
X81968Y220032D02*
D03*
X51968Y223032D02*
D03*
X4968Y375032D02*
D03*
Y360032D02*
D03*
Y338032D02*
D03*
X46968Y331032D02*
D03*
X4968Y389032D02*
D03*
X16968Y449032D02*
D03*
Y455032D02*
D03*
X73968Y450032D02*
D03*
X141968Y457032D02*
D03*
X131968D02*
D03*
X254968Y425032D02*
D03*
X266968Y426032D02*
D03*
X254968Y435032D02*
D03*
X244968D02*
D03*
X266968D02*
D03*
X189569Y443988D02*
D03*
X187968Y436032D02*
D03*
X153000Y427000D02*
D03*
X152968Y436032D02*
D03*
X134968Y352032D02*
D03*
X102968Y381032D02*
D03*
X189968Y333032D02*
D03*
X160968Y277032D02*
D03*
Y262032D02*
D03*
X103968Y286032D02*
D03*
X39968Y275032D02*
D03*
X194968Y225032D02*
D03*
X189968Y205032D02*
D03*
X190000Y214000D02*
D03*
X199968Y197032D02*
D03*
Y205032D02*
D03*
Y214032D02*
D03*
X253000Y296000D02*
D03*
X237073Y266396D02*
D03*
X237000Y272000D02*
D03*
X244000Y228000D02*
D03*
Y233000D02*
D03*
X139968Y41032D02*
D03*
X147080Y41127D02*
D03*
X172968Y30032D02*
D03*
X45968Y108032D02*
D03*
X37000Y295000D02*
D03*
X79125Y297500D02*
D03*
X104000Y297000D02*
D03*
X161000Y294000D02*
D03*
X124000Y237000D02*
D03*
X27375Y229750D02*
D03*
X45000Y225000D02*
D03*
X59000D02*
D03*
X248000Y104000D02*
D03*
X260000Y117000D02*
D03*
X230000Y75000D02*
D03*
X224000Y19000D02*
D03*
X173000Y24000D02*
D03*
X28000Y5500D02*
D03*
X9000Y6000D02*
D03*
X157000Y115000D02*
D03*
X181000Y101000D02*
D03*
X215536Y125464D02*
D03*
X83240Y65881D02*
D03*
X88000Y15000D02*
D03*
X103000Y26000D02*
D03*
X98984Y40708D02*
D03*
X68372Y40470D02*
D03*
X78182Y45625D02*
D03*
X78312Y76201D02*
D03*
X88492Y76123D02*
D03*
X68418Y76975D02*
D03*
X58418D02*
D03*
X11000Y253000D02*
D03*
X34000Y276000D02*
D03*
X12448Y301549D02*
D03*
X237000Y407000D02*
D03*
X140000Y419000D02*
D03*
X166000Y343000D02*
D03*
X265000Y417000D02*
D03*
Y369000D02*
D03*
X94000Y456000D02*
D03*
X192000D02*
D03*
X207000Y138000D02*
D03*
X53000Y41000D02*
D03*
X136625Y88250D02*
D03*
X150000Y52000D02*
D03*
X154750Y138000D02*
D03*
X254000Y360000D02*
D03*
X151000Y20000D02*
D03*
X157000D02*
D03*
X68000Y5000D02*
D03*
X9000Y159000D02*
D03*
X4000Y436000D02*
D03*
X5000Y46500D02*
D03*
X183000Y113000D02*
D03*
X126000Y78000D02*
D03*
X125000Y55000D02*
D03*
X195000Y9000D02*
D03*
X161000Y62000D02*
D03*
X253000Y282000D02*
D03*
Y290000D02*
D03*
X254000Y326000D02*
D03*
X73000Y152000D02*
D03*
X73316Y96284D02*
D03*
X84000Y151000D02*
D03*
X63316Y96284D02*
D03*
X53316D02*
D03*
X53000Y166000D02*
D03*
X67000Y191000D02*
D03*
X77000Y193000D02*
D03*
X53000Y176000D02*
D03*
X73316Y86284D02*
D03*
X63316D02*
D03*
X53316D02*
D03*
X215000Y295000D02*
D03*
X177000Y207000D02*
D03*
X172170Y343322D02*
D03*
X259750Y397750D02*
D03*
X259787Y387277D02*
D03*
X262000Y245000D02*
D03*
Y257000D02*
D03*
X140000Y399000D02*
D03*
X188800Y249228D02*
D03*
X156000Y204000D02*
D03*
X196000Y234000D02*
D03*
X156000Y211000D02*
D03*
X179000Y359000D02*
D03*
X154000D02*
D03*
X151000Y293000D02*
D03*
X214000Y361000D02*
D03*
X208000Y355000D02*
D03*
X212000Y371000D02*
D03*
X213000Y381000D02*
D03*
X185362Y374638D02*
D03*
X197000Y380084D02*
D03*
X166000Y38000D02*
D03*
X182500Y4000D02*
D03*
X172000Y11184D02*
D03*
X168000Y79000D02*
D03*
X65971Y11854D02*
D03*
X36000Y449000D02*
D03*
X9000Y290000D02*
D03*
X148000Y302000D02*
D03*
X9000Y51000D02*
D03*
Y153000D02*
D03*
X14000Y206000D02*
D03*
X7000D02*
D03*
X10000Y135000D02*
D03*
X11000Y215000D02*
D03*
X8000Y461000D02*
D03*
X5000Y278000D02*
D03*
X38000Y45000D02*
D03*
X171000Y113000D02*
D03*
X211000Y251000D02*
D03*
X206250Y273500D02*
D03*
Y309500D02*
D03*
X181000Y320000D02*
D03*
X153000Y240000D02*
D03*
X138500D02*
D03*
X135000Y134000D02*
D03*
X144000D02*
D03*
X23284Y106316D02*
D03*
X22319Y436892D02*
D03*
X31770Y437572D02*
D03*
X24000Y317000D02*
D03*
X7000Y328000D02*
D03*
X35000Y373000D02*
D03*
X70964Y347536D02*
D03*
X95744Y439318D02*
D03*
X144000Y240000D02*
D03*
X72000Y16000D02*
D03*
X73000Y126000D02*
D03*
X72000Y117000D02*
D03*
X213000Y214500D02*
D03*
X209000Y219500D02*
D03*
X214000Y184500D02*
D03*
X213000Y171500D02*
D03*
X242000Y211000D02*
D03*
Y216500D02*
D03*
Y186000D02*
D03*
Y191500D02*
D03*
Y161000D02*
D03*
Y166500D02*
D03*
X209000Y146500D02*
D03*
X212000Y153500D02*
D03*
X103284Y36284D02*
D03*
X13284Y106316D02*
D03*
X116000Y217000D02*
D03*
X103284Y346284D02*
D03*
X33284Y356316D02*
D03*
X53284Y346284D02*
D03*
Y356284D02*
D03*
X71000Y358000D02*
D03*
X23316Y356284D02*
D03*
Y426316D02*
D03*
X103316D02*
D03*
X123316Y386316D02*
D03*
Y366284D02*
D03*
X103284Y306284D02*
D03*
Y316284D02*
D03*
X43316Y306284D02*
D03*
X103316Y246316D02*
D03*
X53284Y236284D02*
D03*
X63284Y246316D02*
D03*
X83284Y256316D02*
D03*
X33284D02*
D03*
Y246316D02*
D03*
X53284Y246284D02*
D03*
X23284Y246316D02*
D03*
X33284Y216316D02*
D03*
X23284D02*
D03*
X98434Y125627D02*
D03*
X43316Y86284D02*
D03*
X33284Y96284D02*
D03*
X123316Y46284D02*
D03*
Y36284D02*
D03*
X113284Y36316D02*
D03*
X103284Y16284D02*
D03*
X33284Y26284D02*
D03*
X53284D02*
D03*
X103316Y96316D02*
D03*
X23284D02*
D03*
X13284D02*
D03*
X23284Y136316D02*
D03*
X55000Y125000D02*
D03*
X53284Y136284D02*
D03*
X33284Y16284D02*
D03*
X53284D02*
D03*
X13284Y26284D02*
D03*
X23284Y16284D02*
D03*
X103316Y146316D02*
D03*
X113284Y136316D02*
D03*
X73284Y136284D02*
D03*
Y176284D02*
D03*
X83316D02*
D03*
X73316Y166316D02*
D03*
X83284D02*
D03*
X126000Y152000D02*
D03*
X150538Y150236D02*
D03*
X139000Y170000D02*
D03*
X145000D02*
D03*
X49250Y185500D02*
D03*
X65911Y158689D02*
D03*
X124000Y201000D02*
D03*
X73000Y25000D02*
D03*
X73316Y396284D02*
D03*
Y386316D02*
D03*
X83284D02*
D03*
Y396284D02*
D03*
X52000Y405000D02*
D03*
X65911Y378689D02*
D03*
X52354Y145419D02*
D03*
X126000Y135000D02*
D03*
X93316Y146316D02*
D03*
X128000Y180500D02*
D03*
X64158Y185442D02*
D03*
X146750Y201750D02*
D03*
X103284Y86284D02*
D03*
X83284Y36316D02*
D03*
X33316Y316316D02*
D03*
X113316Y426316D02*
D03*
X23284Y416284D02*
D03*
X122436Y357723D02*
D03*
X33284Y366316D02*
D03*
X64300Y405875D02*
D03*
X92000Y365000D02*
D03*
X87000Y191000D02*
D03*
Y415000D02*
D03*
X130000Y148000D02*
D03*
X140000Y145750D02*
D03*
X136000Y186000D02*
D03*
X145000Y188000D02*
D03*
X114255Y175972D02*
D03*
X113806Y165557D02*
D03*
X44246Y207197D02*
D03*
X72354Y205403D02*
D03*
X64197Y215354D02*
D03*
X62354Y205403D02*
D03*
X54246Y207197D02*
D03*
X52403Y197246D02*
D03*
X92000Y412000D02*
D03*
X97000Y408000D02*
D03*
X92000Y372000D02*
D03*
X97000Y376000D02*
D03*
X101000Y388000D02*
D03*
Y396000D02*
D03*
X44246Y427197D02*
D03*
X73000Y372000D02*
D03*
X73316Y306284D02*
D03*
X63316D02*
D03*
X53316D02*
D03*
X73316Y316284D02*
D03*
X63316D02*
D03*
X53316D02*
D03*
X64197Y435354D02*
D03*
X62354Y425403D02*
D03*
X54246Y427197D02*
D03*
X52403Y417245D02*
D03*
X53000Y386000D02*
D03*
X67000Y411000D02*
D03*
X77000Y413000D02*
D03*
X53000Y396000D02*
D03*
X84000Y371000D02*
D03*
X72354Y425403D02*
D03*
D58*
X28300Y101300D02*
D03*
X18300Y321300D02*
D03*
X118300Y311300D02*
D03*
X108300Y301300D02*
D03*
X88300Y291300D02*
D03*
X78300D02*
D03*
X68300D02*
D03*
X58300D02*
D03*
X48300D02*
D03*
X88300Y281300D02*
D03*
X78300D02*
D03*
X68300D02*
D03*
X58300D02*
D03*
X48300D02*
D03*
X108300Y271300D02*
D03*
X88300D02*
D03*
X78300D02*
D03*
X68300D02*
D03*
X58300D02*
D03*
X48300D02*
D03*
X108300Y261300D02*
D03*
Y251300D02*
D03*
X98300D02*
D03*
X78300D02*
D03*
X118300Y241300D02*
D03*
X88300D02*
D03*
X78300D02*
D03*
X18300D02*
D03*
Y351300D02*
D03*
X78300D02*
D03*
X88300D02*
D03*
X118300D02*
D03*
X78300Y361300D02*
D03*
X98300D02*
D03*
X108300D02*
D03*
Y371300D02*
D03*
X48300Y381300D02*
D03*
X58300D02*
D03*
X68300D02*
D03*
X78300D02*
D03*
X88300D02*
D03*
X108300D02*
D03*
X48300Y391300D02*
D03*
X58300D02*
D03*
X68300D02*
D03*
X78300D02*
D03*
X88300D02*
D03*
X48300Y401300D02*
D03*
X58300D02*
D03*
X68300D02*
D03*
X78300D02*
D03*
X88300D02*
D03*
X108300Y411300D02*
D03*
X118300Y421300D02*
D03*
X18300Y431300D02*
D03*
Y21300D02*
D03*
X78300D02*
D03*
X88300D02*
D03*
X118300D02*
D03*
X78300Y31300D02*
D03*
X98300D02*
D03*
X108300D02*
D03*
Y41300D02*
D03*
X48300Y51300D02*
D03*
X58300D02*
D03*
X68300D02*
D03*
X78300D02*
D03*
X88300D02*
D03*
X108300D02*
D03*
X48300Y61300D02*
D03*
X58300D02*
D03*
X68300D02*
D03*
X78300D02*
D03*
X88300D02*
D03*
X48300Y71300D02*
D03*
X58300D02*
D03*
X68300D02*
D03*
X78300D02*
D03*
X88300D02*
D03*
X108300Y81300D02*
D03*
X118300Y91300D02*
D03*
X18300Y101300D02*
D03*
Y211300D02*
D03*
X118300Y201300D02*
D03*
X108300Y191300D02*
D03*
X88300Y181300D02*
D03*
X78300D02*
D03*
X68300D02*
D03*
X58300D02*
D03*
X48300D02*
D03*
X88300Y171300D02*
D03*
X78300D02*
D03*
X68300D02*
D03*
X58300D02*
D03*
X48300D02*
D03*
X108300Y161300D02*
D03*
X88300D02*
D03*
X78300D02*
D03*
X68300D02*
D03*
X58300D02*
D03*
X48300D02*
D03*
X108300Y151300D02*
D03*
Y141300D02*
D03*
X98300D02*
D03*
X78300D02*
D03*
X118300Y131300D02*
D03*
X88300D02*
D03*
X78300D02*
D03*
X18300D02*
D03*
X108300Y321300D02*
D03*
X98300Y311300D02*
D03*
X38300D02*
D03*
X18300D02*
D03*
X118300Y271300D02*
D03*
X58300Y251300D02*
D03*
X18300D02*
D03*
X28300Y241300D02*
D03*
Y351300D02*
D03*
X18300Y361300D02*
D03*
X58300D02*
D03*
X118300Y381300D02*
D03*
X18300Y421300D02*
D03*
X38300D02*
D03*
X98300D02*
D03*
X108300Y431300D02*
D03*
X28300Y21300D02*
D03*
X18300Y31300D02*
D03*
X58300D02*
D03*
X118300Y51300D02*
D03*
X18300Y91300D02*
D03*
X38300D02*
D03*
X98300D02*
D03*
X108300Y101300D02*
D03*
Y211300D02*
D03*
X98300Y201300D02*
D03*
X38300D02*
D03*
X18300D02*
D03*
X118300Y161300D02*
D03*
X58300Y141300D02*
D03*
X18300D02*
D03*
X28300Y131300D02*
D03*
X118300Y71300D02*
D03*
Y181300D02*
D03*
X108300Y311300D02*
D03*
X28300D02*
D03*
X118300Y251300D02*
D03*
X88300D02*
D03*
X48300D02*
D03*
X38300D02*
D03*
Y361300D02*
D03*
X48300D02*
D03*
X88300D02*
D03*
X118300D02*
D03*
X28300Y421300D02*
D03*
X108300D02*
D03*
X38300Y31300D02*
D03*
X48300D02*
D03*
X88300D02*
D03*
X118300D02*
D03*
X28300Y91300D02*
D03*
X108300D02*
D03*
Y201300D02*
D03*
X28300D02*
D03*
X118300Y141300D02*
D03*
X88300D02*
D03*
X48300D02*
D03*
X38300D02*
D03*
X118300Y291300D02*
D03*
Y401300D02*
D03*
X28300Y211300D02*
D03*
Y321300D02*
D03*
Y431300D02*
D03*
X98300D02*
D03*
X88300D02*
D03*
X78300D02*
D03*
X68300D02*
D03*
X58300D02*
D03*
X48300D02*
D03*
X38300D02*
D03*
X88300Y421300D02*
D03*
X78300D02*
D03*
X68300D02*
D03*
X58300D02*
D03*
X48300D02*
D03*
X118300Y411300D02*
D03*
X28300D02*
D03*
X18300D02*
D03*
X108300Y401300D02*
D03*
X28300D02*
D03*
X18300D02*
D03*
X118300Y391300D02*
D03*
X108300D02*
D03*
X28300D02*
D03*
X18300D02*
D03*
X28300Y381300D02*
D03*
X18300D02*
D03*
X118300Y371300D02*
D03*
X28300D02*
D03*
X18300D02*
D03*
X68300Y361300D02*
D03*
X28300D02*
D03*
X108300Y351300D02*
D03*
X98300D02*
D03*
X68300D02*
D03*
X58300D02*
D03*
X48300D02*
D03*
X38300D02*
D03*
X98300Y101300D02*
D03*
X88300D02*
D03*
X78300D02*
D03*
X68300D02*
D03*
X58300D02*
D03*
X48300D02*
D03*
X38300D02*
D03*
X88300Y91300D02*
D03*
X78300D02*
D03*
X68300D02*
D03*
X58300D02*
D03*
X48300D02*
D03*
X118300Y81300D02*
D03*
X28300D02*
D03*
X18300D02*
D03*
X108300Y71300D02*
D03*
X28300D02*
D03*
X18300D02*
D03*
X118300Y61300D02*
D03*
X108300D02*
D03*
X28300D02*
D03*
X18300D02*
D03*
X28300Y51300D02*
D03*
X18300D02*
D03*
X118300Y41300D02*
D03*
X28300D02*
D03*
X18300D02*
D03*
X68300Y31300D02*
D03*
X28300D02*
D03*
X108300Y21300D02*
D03*
X98300D02*
D03*
X68300D02*
D03*
X58300D02*
D03*
X48300D02*
D03*
X38300D02*
D03*
Y131300D02*
D03*
X48300D02*
D03*
X58300D02*
D03*
X68300D02*
D03*
X98300D02*
D03*
X108300D02*
D03*
X28300Y141300D02*
D03*
X68300D02*
D03*
X18300Y151300D02*
D03*
X28300D02*
D03*
X118300D02*
D03*
X18300Y161300D02*
D03*
X28300D02*
D03*
X18300Y171300D02*
D03*
X28300D02*
D03*
X108300D02*
D03*
X118300D02*
D03*
X18300Y181300D02*
D03*
X28300D02*
D03*
X108300D02*
D03*
X18300Y191300D02*
D03*
X28300D02*
D03*
X118300D02*
D03*
X48300Y201300D02*
D03*
X58300D02*
D03*
X68300D02*
D03*
X78300D02*
D03*
X88300D02*
D03*
X38300Y211300D02*
D03*
X48300D02*
D03*
X58300D02*
D03*
X68300D02*
D03*
X78300D02*
D03*
X88300D02*
D03*
X98300D02*
D03*
X38300Y241300D02*
D03*
X48300D02*
D03*
X58300D02*
D03*
X68300D02*
D03*
X98300D02*
D03*
X108300D02*
D03*
X28300Y251300D02*
D03*
X68300D02*
D03*
X18300Y261300D02*
D03*
X28300D02*
D03*
X118300D02*
D03*
X18300Y271300D02*
D03*
X28300D02*
D03*
X18300Y281300D02*
D03*
X28300D02*
D03*
X108300D02*
D03*
X118300D02*
D03*
X18300Y291300D02*
D03*
X28300D02*
D03*
X108300D02*
D03*
X18300Y301300D02*
D03*
X28300D02*
D03*
X118300D02*
D03*
X48300Y311300D02*
D03*
X58300D02*
D03*
X68300D02*
D03*
X78300D02*
D03*
X88300D02*
D03*
X38300Y321300D02*
D03*
X48300D02*
D03*
X58300D02*
D03*
X68300D02*
D03*
X78300D02*
D03*
X88300D02*
D03*
X98300D02*
D03*
D59*
X57000Y470000D02*
D03*
M02*
