G04*
G04 #@! TF.GenerationSoftware,Altium Limited,Altium Designer,24.9.1 (31)*
G04*
G04 Layer_Physical_Order=6*
G04 Layer_Color=16711680*
%FSLAX44Y44*%
%MOMM*%
G71*
G04*
G04 #@! TF.SameCoordinates,3E31175B-2F74-4D0F-94E8-FEE4F86157FB*
G04*
G04*
G04 #@! TF.FilePolarity,Positive*
G04*
G01*
G75*
%ADD11C,0.1500*%
%ADD46C,0.1800*%
%ADD48C,0.3200*%
%ADD49C,0.4000*%
%ADD51C,0.2000*%
%ADD52C,0.3000*%
%ADD53C,0.2200*%
%ADD54C,4.0000*%
%ADD55C,0.4000*%
%ADD58C,0.4500*%
%ADD59C,3.0000*%
G36*
X240000Y443000D02*
X274000D01*
Y374781D01*
X272613Y374182D01*
X271670Y375017D01*
Y379064D01*
X271391Y380469D01*
X270595Y381660D01*
X262382Y389873D01*
X261192Y390668D01*
X260182Y390869D01*
X259647Y391982D01*
X259591Y392400D01*
X262345Y395154D01*
X263141Y396345D01*
X263421Y397750D01*
X263141Y399155D01*
X262345Y400345D01*
X261155Y401141D01*
X259750Y401421D01*
X258345Y401141D01*
X257155Y400345D01*
X252091Y395282D01*
X251296Y394091D01*
X251016Y392687D01*
Y383766D01*
X250762Y383578D01*
X249516Y383206D01*
X218740Y413983D01*
X217830Y414590D01*
X216757Y414804D01*
X204661D01*
X187483Y431983D01*
X186573Y432590D01*
X185500Y432804D01*
X171161D01*
X157983Y445983D01*
X157073Y446590D01*
X156000Y446804D01*
X41485D01*
X39500Y448789D01*
Y449696D01*
X38967Y450983D01*
X37983Y451967D01*
X36696Y452500D01*
X35304D01*
X34017Y451967D01*
X33033Y450983D01*
X32500Y449696D01*
Y448304D01*
X33033Y447017D01*
X34017Y446033D01*
X34543Y445815D01*
X38341Y442017D01*
X39251Y441410D01*
X40324Y441196D01*
X91455D01*
X92244Y440014D01*
Y438622D01*
X92777Y437336D01*
X93762Y436351D01*
X95048Y435818D01*
X95555D01*
X95901Y435073D01*
X96015Y434318D01*
X95121Y433424D01*
X94550Y432046D01*
Y430554D01*
X95121Y429176D01*
X96176Y428121D01*
X96923Y427812D01*
X97396Y426164D01*
X95416Y424184D01*
X94532Y422861D01*
X94222Y421300D01*
X93058Y420284D01*
X92050Y420554D01*
Y422046D01*
X91479Y423424D01*
X90424Y424479D01*
X89046Y425050D01*
X87554D01*
X86176Y424479D01*
X85121Y423424D01*
X84550Y422046D01*
Y420554D01*
X84959Y419567D01*
X84989Y418756D01*
X84613Y417563D01*
X84033Y416983D01*
X83500Y415696D01*
Y414304D01*
X84033Y413017D01*
X85017Y412033D01*
X86304Y411500D01*
X87696D01*
X88011Y411630D01*
X88500Y411304D01*
X89033Y410017D01*
X90017Y409033D01*
X91304Y408500D01*
X92696D01*
X93500Y407304D01*
X94033Y406017D01*
X95017Y405033D01*
X96304Y404500D01*
X97696D01*
X98446Y403999D01*
Y401986D01*
X98660Y400913D01*
X98906Y400545D01*
X99017Y398967D01*
X98033Y397983D01*
X97500Y396696D01*
Y395304D01*
X98033Y394017D01*
X99017Y393033D01*
X99551Y392812D01*
Y391188D01*
X99017Y390967D01*
X98033Y389983D01*
X97500Y388696D01*
Y387304D01*
X98033Y386017D01*
X99017Y385033D01*
X100304Y384500D01*
X101696D01*
X102983Y385033D01*
X103967Y386017D01*
X104500Y387304D01*
Y387676D01*
X106000Y388297D01*
X106176Y388121D01*
X107554Y387550D01*
X107458Y386090D01*
X107347D01*
X105587Y385361D01*
X104239Y384013D01*
X103530Y382300D01*
X108300D01*
Y380300D01*
X103530D01*
X104239Y378587D01*
X105587Y377239D01*
X105894Y377112D01*
Y375488D01*
X105587Y375361D01*
X104239Y374013D01*
X103530Y372300D01*
X108300D01*
Y370300D01*
X103530D01*
X104239Y368587D01*
X105587Y367239D01*
X105894Y367112D01*
Y365488D01*
X105587Y365361D01*
X104239Y364013D01*
X104112Y363706D01*
X102488D01*
X102361Y364013D01*
X101013Y365361D01*
X99300Y366070D01*
Y361300D01*
X97300D01*
Y366070D01*
X96954Y365927D01*
X95768Y366561D01*
X94884Y367884D01*
X94863Y367898D01*
X94736Y369786D01*
X94967Y370017D01*
X95467Y371223D01*
X95614Y371473D01*
X96304Y372500D01*
X97696D01*
X98983Y373033D01*
X99967Y374017D01*
X100500Y375304D01*
Y376696D01*
X99967Y377983D01*
X98983Y378967D01*
X97696Y379500D01*
X96304D01*
X95017Y378967D01*
X94033Y377983D01*
X93533Y376777D01*
X93386Y376527D01*
X92696Y375500D01*
X91304D01*
X90017Y374967D01*
X89033Y373983D01*
X88605Y372949D01*
X87697Y372753D01*
X87043Y372800D01*
X86967Y372983D01*
X85983Y373967D01*
X84696Y374500D01*
X83304D01*
X82017Y373967D01*
X81033Y372983D01*
X80500Y371696D01*
Y370304D01*
X81033Y369017D01*
X82017Y368033D01*
X83304Y367500D01*
X84696D01*
X85983Y368033D01*
X86967Y369017D01*
X86971Y369027D01*
X88781Y369521D01*
X89023Y369345D01*
X89048Y367816D01*
X85416Y364184D01*
X84532Y362861D01*
X84476Y362578D01*
X82949Y362592D01*
X82361Y364013D01*
X81013Y365361D01*
X79300Y366070D01*
Y361300D01*
X77300D01*
Y366070D01*
X75587Y365361D01*
X74239Y364013D01*
X73976Y363378D01*
X72207Y363026D01*
X71456Y363776D01*
X71184Y364184D01*
X69861Y365068D01*
X68300Y365378D01*
X66739Y365068D01*
X65416Y364184D01*
X64532Y362861D01*
X64410Y362246D01*
X63735Y361895D01*
X62106Y362669D01*
X62068Y362861D01*
X61184Y364184D01*
X59861Y365068D01*
X58300Y365378D01*
X56739Y365068D01*
X55416Y364184D01*
X53680Y362447D01*
X52082Y362857D01*
X52029Y362918D01*
X51184Y364184D01*
X49861Y365068D01*
X48300Y365378D01*
X39989D01*
X36168Y369200D01*
X34845Y370084D01*
X33284Y370395D01*
X32050Y371678D01*
Y372046D01*
X31479Y373424D01*
X30424Y374479D01*
X29046Y375050D01*
X27554D01*
X26176Y374479D01*
X25121Y373424D01*
X24550Y372046D01*
Y370554D01*
X25121Y369176D01*
X26176Y368121D01*
X27554Y367550D01*
X27922D01*
X28431Y367060D01*
X28437Y366339D01*
X27554Y365050D01*
X26176Y364479D01*
X25121Y363424D01*
X24812Y362677D01*
X23164Y362203D01*
X21184Y364184D01*
X19861Y365068D01*
X18300Y365378D01*
X16739Y365068D01*
X15416Y364184D01*
X14532Y362861D01*
X14222Y361300D01*
X14532Y359739D01*
X15416Y358416D01*
X16479Y357354D01*
X16127Y355584D01*
X15587Y355361D01*
X14239Y354013D01*
X13530Y352300D01*
X18300D01*
Y351300D01*
X19300D01*
Y346530D01*
X21013Y347239D01*
X22361Y348587D01*
X22584Y349127D01*
X24354Y349478D01*
X25416Y348416D01*
X25416Y348416D01*
X26739Y347532D01*
X28300Y347222D01*
X29861Y347532D01*
X31184Y348416D01*
X32029Y349682D01*
X32082Y349743D01*
X33680Y350153D01*
X35416Y348416D01*
X35416Y348416D01*
X42716Y341116D01*
X42716Y341116D01*
X44039Y340232D01*
X45600Y339922D01*
X45600Y339922D01*
X51000D01*
X51000Y339922D01*
X52561Y340232D01*
X53884Y341116D01*
X56168Y343400D01*
X56168Y343400D01*
X58676Y345909D01*
X60076Y345345D01*
X60141Y345252D01*
X59879Y343936D01*
X60159Y342531D01*
X60955Y341340D01*
X70890Y331404D01*
X72081Y330609D01*
X73486Y330330D01*
X175000D01*
X176405Y330609D01*
X177596Y331404D01*
X202874Y356683D01*
X204514Y356355D01*
X204582Y356270D01*
X204329Y355000D01*
Y342174D01*
X204609Y340770D01*
X205404Y339579D01*
X207679Y337304D01*
Y313490D01*
X206946Y313000D01*
X205554D01*
X204267Y312467D01*
X203283Y311483D01*
X202750Y310196D01*
Y308804D01*
X203283Y307517D01*
X204267Y306533D01*
X204446Y305637D01*
X192404Y293595D01*
X191609Y292405D01*
X191329Y291000D01*
Y276308D01*
X158464Y243443D01*
X157078Y244017D01*
Y249000D01*
X157078Y249000D01*
X156768Y250561D01*
X155884Y251884D01*
X155884Y251884D01*
X133584Y274184D01*
X132261Y275068D01*
X130700Y275378D01*
X130700Y275378D01*
X118300D01*
X116739Y275068D01*
X115416Y274184D01*
X114532Y272861D01*
X114476Y272578D01*
X112949Y272592D01*
X112361Y274013D01*
X111013Y275361D01*
X109253Y276090D01*
X109142D01*
X109046Y277550D01*
X110424Y278121D01*
X111479Y279176D01*
X112050Y280554D01*
Y282046D01*
X111479Y283424D01*
X110424Y284479D01*
X109046Y285050D01*
X107554D01*
X106176Y284479D01*
X105121Y283424D01*
X104550Y282046D01*
Y280554D01*
X105121Y279176D01*
X106176Y278121D01*
X107554Y277550D01*
X107458Y276090D01*
X107347D01*
X105587Y275361D01*
X104239Y274013D01*
X103530Y272300D01*
X108300D01*
Y270300D01*
X103530D01*
X104239Y268587D01*
X105587Y267239D01*
X105894Y267112D01*
Y265488D01*
X105587Y265361D01*
X104239Y264013D01*
X103530Y262300D01*
X108300D01*
Y260300D01*
X103530D01*
X104239Y258587D01*
X105587Y257239D01*
X105894Y257112D01*
Y255488D01*
X105587Y255361D01*
X104239Y254013D01*
X104112Y253706D01*
X102488D01*
X102361Y254013D01*
X101013Y255361D01*
X99300Y256070D01*
Y251300D01*
X97300D01*
Y256070D01*
X95587Y255361D01*
X94239Y254013D01*
X93651Y252592D01*
X92124Y252578D01*
X92068Y252861D01*
X91184Y254184D01*
X86168Y259200D01*
X84845Y260084D01*
X83284Y260394D01*
X81723Y260084D01*
X80400Y259200D01*
X79516Y257877D01*
X79206Y256316D01*
X79020Y256090D01*
X77347D01*
X76372Y255686D01*
X74872Y256605D01*
Y257207D01*
X74872Y257207D01*
X74561Y258768D01*
X73677Y260091D01*
X68758Y265010D01*
X69253Y266510D01*
X71013Y267239D01*
X72361Y268587D01*
X72488Y268894D01*
X74112D01*
X74239Y268587D01*
X75587Y267239D01*
X77300Y266530D01*
Y271300D01*
X79300D01*
Y266530D01*
X81013Y267239D01*
X82361Y268587D01*
X82488Y268894D01*
X84112D01*
X84239Y268587D01*
X85587Y267239D01*
X87300Y266530D01*
Y271300D01*
X88300D01*
Y272300D01*
X93070D01*
X92361Y274013D01*
X91013Y275361D01*
X90706Y275488D01*
Y277112D01*
X91013Y277239D01*
X92361Y278587D01*
X93070Y280300D01*
X88300D01*
Y282300D01*
X93070D01*
X92361Y284013D01*
X91013Y285361D01*
X90706Y285488D01*
Y287112D01*
X91013Y287239D01*
X92361Y288587D01*
X93070Y290300D01*
X88300D01*
Y291300D01*
X87300D01*
Y296070D01*
X85587Y295361D01*
X84239Y294013D01*
X84112Y293706D01*
X82488D01*
X82361Y294013D01*
X81013Y295361D01*
X79300Y296070D01*
Y291300D01*
X77300D01*
Y296070D01*
X75587Y295361D01*
X74239Y294013D01*
X74112Y293706D01*
X72488D01*
X72361Y294013D01*
X71013Y295361D01*
X69300Y296070D01*
Y291300D01*
X67300D01*
Y296070D01*
X65587Y295361D01*
X64239Y294013D01*
X64112Y293706D01*
X62488D01*
X62361Y294013D01*
X61013Y295361D01*
X59300Y296070D01*
Y291300D01*
X57300D01*
Y296070D01*
X55587Y295361D01*
X54239Y294013D01*
X54112Y293706D01*
X52488D01*
X52361Y294013D01*
X51013Y295361D01*
X49300Y296070D01*
Y291300D01*
X48300D01*
Y290300D01*
X43530D01*
X44239Y288587D01*
X45587Y287239D01*
X45894Y287112D01*
Y285488D01*
X45587Y285361D01*
X44239Y284013D01*
X43530Y282300D01*
X48300D01*
Y280300D01*
X43530D01*
X44239Y278587D01*
X45587Y277239D01*
X45894Y277112D01*
Y275488D01*
X45587Y275361D01*
X44239Y274013D01*
X43530Y272300D01*
X48300D01*
Y271300D01*
X49300D01*
Y266530D01*
X51013Y267239D01*
X52361Y268587D01*
X52488Y268894D01*
X54112D01*
X54239Y268587D01*
X55587Y267239D01*
X57300Y266530D01*
Y271300D01*
X59300D01*
Y266530D01*
X61013Y267239D01*
X61733Y267959D01*
X63373Y267959D01*
X62933Y266430D01*
X62116Y265884D01*
X61232Y264561D01*
X60922Y263000D01*
X61232Y261439D01*
X62116Y260116D01*
X65932Y256300D01*
Y254800D01*
X65416Y254284D01*
X64532Y252961D01*
X64286Y251724D01*
X64225Y251643D01*
X62351Y251649D01*
X62294Y251727D01*
X62068Y252861D01*
X61184Y254184D01*
X59861Y255068D01*
X58300Y255378D01*
X56739Y255068D01*
X55416Y254184D01*
X53436Y252203D01*
X51788Y252677D01*
X51479Y253424D01*
X50424Y254479D01*
X49046Y255050D01*
X47554D01*
X47362Y254970D01*
X39820D01*
X35879Y258911D01*
X34689Y259707D01*
X33427Y259958D01*
X33229Y260044D01*
X32050Y261271D01*
Y262046D01*
X31479Y263424D01*
X30424Y264479D01*
X29046Y265050D01*
X27554D01*
X26176Y264479D01*
X25121Y263424D01*
X24550Y262046D01*
Y260554D01*
X25121Y259176D01*
X26176Y258121D01*
X27554Y257550D01*
X28330D01*
X28541Y257347D01*
X28549Y256462D01*
X27554Y255050D01*
X26176Y254479D01*
X25121Y253424D01*
X24812Y252677D01*
X23164Y252204D01*
X21184Y254184D01*
X19861Y255068D01*
X18300Y255378D01*
X16739Y255068D01*
X15416Y254184D01*
X14532Y252861D01*
X14222Y251300D01*
X14532Y249739D01*
X15416Y248416D01*
X15416Y248416D01*
X16479Y247354D01*
X16127Y245584D01*
X15587Y245361D01*
X14239Y244013D01*
X13530Y242300D01*
X18300D01*
Y241300D01*
X19300D01*
Y236530D01*
X21013Y237239D01*
X22361Y238587D01*
X22584Y239127D01*
X24354Y239479D01*
X25416Y238416D01*
X26739Y237532D01*
X28300Y237222D01*
X29861Y237532D01*
X31184Y238416D01*
X32029Y239682D01*
X32083Y239743D01*
X33680Y240153D01*
X35416Y238416D01*
X36739Y237532D01*
X38300Y237222D01*
X39861Y237532D01*
X41184Y238416D01*
X42068Y239739D01*
X42378Y241300D01*
X42068Y242861D01*
X41184Y244184D01*
X39238Y246129D01*
X39860Y247630D01*
X47188D01*
X47894Y247054D01*
X48437Y246261D01*
X48431Y245540D01*
X47922Y245050D01*
X47554D01*
X46176Y244479D01*
X45121Y243424D01*
X44550Y242046D01*
Y240554D01*
X45121Y239176D01*
X46176Y238121D01*
X47554Y237550D01*
X47928D01*
X49205Y236284D01*
X49516Y234723D01*
X50297Y233554D01*
X50121Y232851D01*
X49715Y232054D01*
X43240D01*
X42167Y231840D01*
X41257Y231233D01*
X38328Y228304D01*
X22661D01*
X15182Y235783D01*
X16032Y237055D01*
X17300Y236530D01*
Y240300D01*
X13530D01*
X14055Y239032D01*
X12783Y238182D01*
X9554Y241411D01*
Y267631D01*
X11233Y269310D01*
X11840Y270219D01*
X12054Y271292D01*
Y288227D01*
X12500Y289304D01*
Y290696D01*
X11967Y291983D01*
X10983Y292967D01*
X9696Y293500D01*
X8304D01*
X7017Y292967D01*
X6033Y291983D01*
X5500Y290696D01*
Y289304D01*
X6033Y288017D01*
X6446Y287604D01*
Y282001D01*
X5696Y281500D01*
X4304D01*
X3017Y280967D01*
X2033Y279983D01*
X1500Y278696D01*
Y277304D01*
X2033Y276017D01*
X3017Y275033D01*
X4304Y274500D01*
X5696D01*
X6446Y273999D01*
Y272454D01*
X4767Y270775D01*
X4160Y269865D01*
X3946Y268792D01*
Y240250D01*
X4160Y239177D01*
X4767Y238267D01*
X19517Y223517D01*
X20427Y222910D01*
X21500Y222696D01*
X39490D01*
X40563Y222910D01*
X41472Y223517D01*
X44401Y226446D01*
X59599D01*
X62528Y223517D01*
X63437Y222910D01*
X64510Y222696D01*
X72429D01*
X72680Y222646D01*
X81389D01*
X81735Y222300D01*
X81767Y222279D01*
X85028Y219017D01*
X85937Y218410D01*
X87010Y218196D01*
X107604D01*
X108178Y216810D01*
X105824Y214456D01*
X105416Y214184D01*
X105416Y214184D01*
X103436Y212203D01*
X101788Y212677D01*
X101479Y213424D01*
X100424Y214479D01*
X99046Y215050D01*
X97554D01*
X96176Y214479D01*
X95121Y213424D01*
X94550Y212046D01*
Y210554D01*
X95121Y209176D01*
X96176Y208121D01*
X96923Y207812D01*
X97396Y206164D01*
X95416Y204184D01*
X94532Y202861D01*
X94222Y201300D01*
X94532Y199739D01*
X95416Y198416D01*
X96739Y197532D01*
X98300Y197222D01*
X99861Y197532D01*
X101184Y198416D01*
X102920Y200153D01*
X104518Y199743D01*
X104571Y199682D01*
X105416Y198416D01*
X106739Y197532D01*
X107022Y197476D01*
X107008Y195949D01*
X105587Y195361D01*
X104239Y194013D01*
X103530Y192300D01*
X108300D01*
Y190300D01*
X103478D01*
X103013Y189604D01*
X92361D01*
X90500Y191465D01*
Y191696D01*
X89967Y192983D01*
X88983Y193967D01*
X87696Y194500D01*
X86304D01*
X85017Y193967D01*
X84033Y192983D01*
X83500Y191696D01*
Y190304D01*
X84033Y189017D01*
X85017Y188033D01*
X86304Y187500D01*
X86341Y186000D01*
X86270Y185644D01*
X85587Y185361D01*
X84239Y184013D01*
X84112Y183706D01*
X82488D01*
X82361Y184013D01*
X81013Y185361D01*
X79300Y186070D01*
Y181300D01*
X77300D01*
Y186070D01*
X75587Y185361D01*
X74239Y184013D01*
X74112Y183706D01*
X72488D01*
X72361Y184013D01*
X71013Y185361D01*
X69253Y186090D01*
X67913D01*
X67696Y187500D01*
X68983Y188033D01*
X69967Y189017D01*
X70500Y190304D01*
Y191696D01*
X69967Y192983D01*
X68983Y193967D01*
X67696Y194500D01*
X66304D01*
X65017Y193967D01*
X64033Y192983D01*
X63500Y191696D01*
Y190304D01*
X63461Y188942D01*
X62175Y188410D01*
X61191Y187425D01*
X61009Y186986D01*
X59300Y186097D01*
Y181300D01*
X57300D01*
Y186070D01*
X55587Y185361D01*
X54239Y184013D01*
X54112Y183706D01*
X52488D01*
X52361Y184013D01*
X51013Y185361D01*
X49300Y186070D01*
Y181300D01*
X48300D01*
Y180300D01*
X43530D01*
X44239Y178587D01*
X45587Y177239D01*
X45894Y177112D01*
Y175488D01*
X45587Y175361D01*
X44239Y174013D01*
X43530Y172300D01*
X48300D01*
Y170300D01*
X43530D01*
X44239Y168587D01*
X45587Y167239D01*
X45894Y167112D01*
Y165488D01*
X45587Y165361D01*
X44239Y164013D01*
X43530Y162300D01*
X48300D01*
Y161300D01*
X49300D01*
Y156530D01*
X51013Y157239D01*
X52361Y158587D01*
X52488Y158894D01*
X54112D01*
X54239Y158587D01*
X55587Y157239D01*
X57300Y156530D01*
Y161300D01*
X59300D01*
Y156530D01*
X61013Y157239D01*
X62361Y158587D01*
X62488Y158894D01*
X64112D01*
X64239Y158587D01*
X65587Y157239D01*
X67300Y156530D01*
Y161300D01*
X69300D01*
Y156530D01*
X71013Y157239D01*
X72361Y158587D01*
X72488Y158894D01*
X74112D01*
X74239Y158587D01*
X75587Y157239D01*
X77300Y156530D01*
Y161300D01*
X79300D01*
Y156530D01*
X81013Y157239D01*
X82361Y158587D01*
X82488Y158894D01*
X84112D01*
X84239Y158587D01*
X85587Y157239D01*
X87300Y156530D01*
Y161300D01*
X88300D01*
Y162300D01*
X93070D01*
X92361Y164013D01*
X91013Y165361D01*
X90706Y165488D01*
Y167112D01*
X91013Y167239D01*
X92361Y168587D01*
X93070Y170300D01*
X88300D01*
Y172300D01*
X93070D01*
X92361Y174013D01*
X91013Y175361D01*
X90706Y175488D01*
Y177112D01*
X91013Y177239D01*
X92361Y178587D01*
X93070Y180300D01*
X88300D01*
Y182300D01*
X93070D01*
X92885Y182749D01*
X93718Y183996D01*
X103734D01*
X104736Y182496D01*
X104550Y182046D01*
Y180554D01*
X105121Y179176D01*
X106176Y178121D01*
X107554Y177550D01*
X108778D01*
X109605Y176941D01*
X110126Y176374D01*
X110117Y176128D01*
X109046Y175050D01*
X107554D01*
X106176Y174479D01*
X105121Y173424D01*
X104550Y172046D01*
Y170554D01*
X105121Y169176D01*
X106176Y168121D01*
X107554Y167550D01*
X107458Y166090D01*
X107347D01*
X105587Y165361D01*
X104239Y164013D01*
X103530Y162300D01*
X108300D01*
Y160300D01*
X103530D01*
X104239Y158587D01*
X105587Y157239D01*
X105894Y157112D01*
Y155488D01*
X105587Y155361D01*
X104239Y154013D01*
X103530Y152300D01*
X108300D01*
Y150300D01*
X103530D01*
X104239Y148587D01*
X105587Y147239D01*
X105894Y147112D01*
Y145488D01*
X105587Y145361D01*
X104239Y144013D01*
X104112Y143706D01*
X102488D01*
X102361Y144013D01*
X101013Y145361D01*
X99253Y146090D01*
X97580D01*
X97395Y146316D01*
X97084Y147877D01*
X96200Y149200D01*
X94877Y150084D01*
X93316Y150394D01*
X91755Y150084D01*
X90432Y149200D01*
X85416Y144184D01*
X84532Y142861D01*
X84476Y142578D01*
X82949Y142592D01*
X82361Y144013D01*
X81013Y145361D01*
X79300Y146070D01*
Y141300D01*
X77300D01*
Y146070D01*
X75587Y145361D01*
X74239Y144013D01*
X73510Y142253D01*
Y142142D01*
X72050Y142046D01*
X71479Y143424D01*
X70424Y144479D01*
X69046Y145050D01*
X67554D01*
X66176Y144479D01*
X65121Y143424D01*
X64550Y142046D01*
X63687Y141413D01*
X62231Y142039D01*
X62068Y142861D01*
X61184Y144184D01*
X59861Y145068D01*
X58300Y145378D01*
X57865Y145292D01*
X56622Y145374D01*
X56235Y146381D01*
X56122Y146947D01*
X55238Y148271D01*
X53915Y149155D01*
X52354Y149465D01*
X50794Y149155D01*
X49471Y148271D01*
X46578Y145378D01*
X38300D01*
X36739Y145068D01*
X35416Y144184D01*
X34532Y142861D01*
X34222Y141300D01*
X34532Y139739D01*
X35416Y138416D01*
X36739Y137532D01*
X38300Y137222D01*
X47863D01*
X48237Y136960D01*
X48280Y136401D01*
X47554Y135050D01*
X46176Y134479D01*
X45121Y133424D01*
X44550Y132046D01*
Y131038D01*
X43313Y129919D01*
X42474Y130180D01*
Y131204D01*
X42474Y131204D01*
X42164Y132765D01*
X41280Y134088D01*
X41184Y134184D01*
X39861Y135068D01*
X38300Y135378D01*
X36739Y135068D01*
X35416Y134184D01*
X34532Y132861D01*
X34222Y131300D01*
X34317Y130819D01*
Y127343D01*
X34317Y127343D01*
X34628Y125782D01*
X35512Y124459D01*
X37855Y122116D01*
X37855Y122116D01*
X39178Y121232D01*
X40739Y120922D01*
X55000D01*
X55000Y120922D01*
X56561Y121232D01*
X57884Y122116D01*
X59321Y123553D01*
X60784Y122895D01*
X60918Y122219D01*
X61559Y121259D01*
X67909Y114909D01*
X68868Y114268D01*
X69922Y114059D01*
X70595Y113609D01*
X72000Y113329D01*
X77480D01*
X78594Y112215D01*
X78112Y111070D01*
X77884Y110804D01*
X57161D01*
X49483Y118483D01*
X48573Y119090D01*
X47500Y119304D01*
X15661D01*
X8554Y126411D01*
Y130999D01*
X9304Y131500D01*
X10696D01*
X11983Y132033D01*
X12010Y132060D01*
X13510Y131439D01*
Y130347D01*
X14239Y128587D01*
X15587Y127239D01*
X17300Y126530D01*
Y131300D01*
X19300D01*
Y126530D01*
X21013Y127239D01*
X22361Y128587D01*
X22584Y129127D01*
X24354Y129479D01*
X25416Y128416D01*
X26739Y127532D01*
X28300Y127222D01*
X29861Y127532D01*
X31184Y128416D01*
X32068Y129739D01*
X32378Y131300D01*
X32068Y132861D01*
X31184Y134184D01*
X29204Y136164D01*
X29677Y137812D01*
X30424Y138121D01*
X31479Y139176D01*
X32050Y140554D01*
Y142046D01*
X31479Y143424D01*
X30424Y144479D01*
X29046Y145050D01*
X27554D01*
X26176Y144479D01*
X25121Y143424D01*
X24812Y142677D01*
X23164Y142204D01*
X21184Y144184D01*
X19861Y145068D01*
X18300Y145378D01*
X16739Y145068D01*
X15416Y144184D01*
X14532Y142861D01*
X14222Y141300D01*
X14532Y139739D01*
X15416Y138416D01*
X15416Y138416D01*
X16479Y137354D01*
X16130Y135604D01*
X16041Y135549D01*
X15587Y135361D01*
X15358Y135132D01*
X14864Y134831D01*
X13500Y135395D01*
Y135696D01*
X12967Y136983D01*
X11983Y137967D01*
X10696Y138500D01*
X9304D01*
X8554Y139001D01*
Y148589D01*
X9465Y149500D01*
X9696D01*
X10983Y150033D01*
X11967Y151017D01*
X12500Y152304D01*
Y153696D01*
X11967Y154983D01*
X11930Y155020D01*
X11013Y156000D01*
X11930Y156980D01*
X11967Y157017D01*
X12500Y158304D01*
Y159696D01*
X11967Y160983D01*
X10983Y161967D01*
X9696Y162500D01*
X8304D01*
X7017Y161967D01*
X6033Y160983D01*
X5500Y159696D01*
Y158304D01*
X6033Y157017D01*
X6070Y156980D01*
X6987Y156000D01*
X6070Y155020D01*
X6033Y154983D01*
X5500Y153696D01*
Y153465D01*
X3767Y151733D01*
X3160Y150823D01*
X2946Y149750D01*
Y125250D01*
X3160Y124177D01*
X3767Y123267D01*
X12517Y114517D01*
X13427Y113910D01*
X14500Y113696D01*
X46339D01*
X54017Y106017D01*
X54927Y105410D01*
X54975Y105400D01*
X55469Y103772D01*
X55121Y103424D01*
X54550Y102046D01*
Y101353D01*
X53050Y100731D01*
X52050Y101732D01*
Y102046D01*
X51479Y103424D01*
X50424Y104479D01*
X49046Y105050D01*
X47554D01*
X46176Y104479D01*
X45121Y103424D01*
X44550Y102046D01*
Y100554D01*
X45121Y99176D01*
X46176Y98121D01*
X47554Y97550D01*
X47868D01*
X48868Y96550D01*
X48247Y95050D01*
X47554D01*
X46176Y94479D01*
X45121Y93424D01*
X44812Y92677D01*
X43164Y92204D01*
X41184Y94184D01*
X39918Y95029D01*
X39857Y95082D01*
X39447Y96680D01*
X41184Y98416D01*
X42068Y99739D01*
X42378Y101300D01*
X42068Y102861D01*
X41184Y104184D01*
X39861Y105068D01*
X38300Y105378D01*
X36739Y105068D01*
X35416Y104184D01*
X33680Y102447D01*
X32083Y102857D01*
X32029Y102918D01*
X31184Y104184D01*
X26168Y109200D01*
X24845Y110084D01*
X23284Y110394D01*
X21723Y110084D01*
X20400Y109200D01*
X19516Y107877D01*
X19205Y106316D01*
X19020Y106090D01*
X17347D01*
X15587Y105361D01*
X14239Y104013D01*
X13510Y102253D01*
Y100580D01*
X13284Y100394D01*
X11723Y100084D01*
X10400Y99200D01*
X9516Y97877D01*
X9205Y96316D01*
X9516Y94755D01*
X10400Y93432D01*
X15416Y88416D01*
X16739Y87532D01*
X18300Y87222D01*
X19861Y87532D01*
X21184Y88416D01*
X22029Y89682D01*
X22083Y89743D01*
X23680Y90153D01*
X25416Y88416D01*
X26739Y87532D01*
X28300Y87222D01*
X29861Y87532D01*
X31184Y88416D01*
X32068Y89739D01*
X32294Y90873D01*
X32393Y91007D01*
X33818Y91235D01*
X34276Y91026D01*
X34532Y89739D01*
X35416Y88416D01*
X40432Y83400D01*
X41755Y82516D01*
X43316Y82205D01*
X44877Y82516D01*
X46200Y83400D01*
X47084Y84723D01*
X47331Y85966D01*
X48246Y86442D01*
X48699Y86526D01*
X49816Y85588D01*
X50349Y84301D01*
X51333Y83317D01*
X52620Y82784D01*
X54012D01*
X55299Y83317D01*
X56283Y84301D01*
X56816Y85588D01*
Y86232D01*
X56994Y86550D01*
X58451Y86967D01*
X59816Y85602D01*
Y85588D01*
X60349Y84301D01*
X61333Y83317D01*
X62620Y82784D01*
X64012D01*
X65299Y83317D01*
X66283Y84301D01*
X66816Y85588D01*
Y86232D01*
X66994Y86550D01*
X68451Y86967D01*
X69816Y85602D01*
Y85588D01*
X70349Y84301D01*
X71334Y83317D01*
X72620Y82784D01*
X74012D01*
X75299Y83317D01*
X76283Y84301D01*
X76816Y85588D01*
Y86232D01*
X77360Y87204D01*
X78202Y87550D01*
X79046D01*
X80424Y88121D01*
X81479Y89176D01*
X82050Y90554D01*
Y92046D01*
X81479Y93424D01*
X80424Y94479D01*
X79046Y95050D01*
X78202D01*
X78092Y95093D01*
X77568Y96318D01*
X78049Y97487D01*
X78202Y97550D01*
X79046D01*
X80424Y98121D01*
X81479Y99176D01*
X82050Y100554D01*
Y102046D01*
X82472Y102677D01*
X83312D01*
X84550Y101352D01*
Y100554D01*
X85121Y99176D01*
X86176Y98121D01*
X87554Y97550D01*
X89046D01*
X90424Y98121D01*
X91479Y99176D01*
X92050Y100554D01*
Y102046D01*
X92472Y102677D01*
X93312D01*
X94550Y101352D01*
Y100554D01*
X95121Y99176D01*
X96176Y98121D01*
X96923Y97812D01*
X97396Y96164D01*
X95416Y94184D01*
X94532Y92861D01*
X94222Y91300D01*
X94532Y89739D01*
X95416Y88416D01*
X96739Y87532D01*
X98170Y87247D01*
X99206Y86284D01*
X99516Y84723D01*
X100400Y83400D01*
X101723Y82516D01*
X103284Y82205D01*
X103510Y82020D01*
Y80347D01*
X104239Y78587D01*
X105587Y77239D01*
X107347Y76510D01*
X107458D01*
X107554Y75050D01*
X106176Y74479D01*
X105121Y73424D01*
X104550Y72046D01*
Y70554D01*
X105121Y69176D01*
X106176Y68121D01*
X107554Y67550D01*
X109046D01*
X110424Y68121D01*
X111479Y69176D01*
X112050Y70554D01*
Y72046D01*
X111479Y73424D01*
X110424Y74479D01*
X109046Y75050D01*
X109143Y76510D01*
X109253D01*
X111013Y77239D01*
X112361Y78587D01*
X113090Y80347D01*
Y80458D01*
X114550Y80554D01*
X115121Y79176D01*
X116176Y78121D01*
X117554Y77550D01*
X119046D01*
X120424Y78121D01*
X120923Y78620D01*
X122017Y78138D01*
X122345Y77921D01*
X122609Y76595D01*
X122692Y76470D01*
X121890Y74970D01*
X119238D01*
X119046Y75050D01*
X117554D01*
X116176Y74479D01*
X115121Y73424D01*
X114550Y72046D01*
Y70554D01*
X115121Y69176D01*
X116176Y68121D01*
X117554Y67550D01*
X119046D01*
X119238Y67629D01*
X160300D01*
X161705Y67909D01*
X162896Y68705D01*
X170595Y76405D01*
X171391Y77595D01*
X171670Y79000D01*
X171391Y80405D01*
X170595Y81595D01*
X169405Y82391D01*
X168837Y82504D01*
X168985Y84004D01*
X176371D01*
X181471Y78905D01*
X182662Y78109D01*
X184066Y77829D01*
X185679D01*
X186253Y76444D01*
X170380Y60571D01*
X155865D01*
X154240Y62195D01*
X153049Y62991D01*
X151645Y63271D01*
X140090D01*
X138685Y62991D01*
X137494Y62195D01*
X133969Y58671D01*
X125000D01*
X123595Y58391D01*
X122405Y57595D01*
X121609Y56405D01*
X121486Y55786D01*
X119909Y55035D01*
X119861Y55068D01*
X118300Y55378D01*
X116739Y55068D01*
X115416Y54184D01*
X114532Y52861D01*
X114476Y52578D01*
X112949Y52592D01*
X112361Y54013D01*
X111013Y55361D01*
X109253Y56090D01*
X109142D01*
X109046Y57550D01*
X110424Y58121D01*
X111479Y59176D01*
X112050Y60554D01*
Y62046D01*
X111479Y63424D01*
X110424Y64479D01*
X109046Y65050D01*
X107554D01*
X106176Y64479D01*
X105121Y63424D01*
X104550Y62046D01*
Y60554D01*
X105121Y59176D01*
X106176Y58121D01*
X107554Y57550D01*
X107458Y56090D01*
X107347D01*
X105587Y55361D01*
X104239Y54013D01*
X103530Y52300D01*
X108300D01*
Y50300D01*
X103530D01*
X104239Y48587D01*
X105587Y47239D01*
X105894Y47112D01*
Y45488D01*
X105587Y45361D01*
X104239Y44013D01*
X103530Y42300D01*
X108300D01*
Y40300D01*
X103530D01*
X104239Y38587D01*
X105587Y37239D01*
X105894Y37112D01*
Y35488D01*
X105587Y35361D01*
X104239Y34013D01*
X104112Y33706D01*
X102488D01*
X102361Y34013D01*
X101013Y35361D01*
X99300Y36070D01*
Y31300D01*
X97300D01*
Y36070D01*
X95587Y35361D01*
X94239Y34013D01*
X93651Y32592D01*
X92124Y32578D01*
X92068Y32861D01*
X91184Y34184D01*
X86168Y39200D01*
X84845Y40084D01*
X83284Y40395D01*
X81723Y40084D01*
X80400Y39200D01*
X79516Y37877D01*
X79206Y36316D01*
X79020Y36090D01*
X77347D01*
X75587Y35361D01*
X74239Y34013D01*
X73510Y32253D01*
Y32142D01*
X72050Y32046D01*
X71479Y33424D01*
X70424Y34479D01*
X69046Y35050D01*
X67554D01*
X66176Y34479D01*
X65121Y33424D01*
X64550Y32046D01*
Y31964D01*
X63742Y31328D01*
X62248Y31957D01*
X62068Y32861D01*
X61184Y34184D01*
X59861Y35068D01*
X58300Y35378D01*
X56739Y35068D01*
X55416Y34184D01*
X53680Y32447D01*
X52082Y32857D01*
X52029Y32918D01*
X51184Y34184D01*
X49861Y35068D01*
X48300Y35378D01*
X38300D01*
X38300Y35378D01*
X36739Y35068D01*
X35416Y34184D01*
X35416Y34184D01*
X33436Y32203D01*
X31788Y32677D01*
X31479Y33424D01*
X30424Y34479D01*
X29046Y35050D01*
X27554D01*
X26176Y34479D01*
X25121Y33424D01*
X24550Y32046D01*
Y30554D01*
X25121Y29176D01*
X26176Y28121D01*
X27554Y27550D01*
X28326Y26215D01*
X28282Y25598D01*
X27873Y25294D01*
X26739Y25068D01*
X25416Y24184D01*
X24354Y23121D01*
X22584Y23473D01*
X22361Y24013D01*
X21013Y25361D01*
X20473Y25584D01*
X20122Y27354D01*
X21184Y28416D01*
X22068Y29739D01*
X22378Y31300D01*
X22068Y32861D01*
X21184Y34184D01*
X19861Y35068D01*
X18300Y35378D01*
X16739Y35068D01*
X15416Y34184D01*
X10400Y29168D01*
X9516Y27845D01*
X9205Y26284D01*
X9516Y24723D01*
X10400Y23400D01*
X11723Y22516D01*
X13284Y22206D01*
X13510Y22020D01*
Y20347D01*
X14239Y18587D01*
X15587Y17239D01*
X17347Y16510D01*
X19020D01*
X19205Y16284D01*
X19516Y14723D01*
X20400Y13400D01*
X21723Y12516D01*
X23284Y12205D01*
X24845Y12516D01*
X26168Y13400D01*
X27904Y15137D01*
X29502Y14727D01*
X29555Y14665D01*
X30400Y13400D01*
X36684Y7116D01*
X36684Y7116D01*
X38007Y6232D01*
X39568Y5922D01*
X39568Y5922D01*
X47000D01*
X47000Y5922D01*
X48561Y6232D01*
X49884Y7116D01*
X56168Y13400D01*
X56168Y13400D01*
X58810Y16043D01*
X60196Y15469D01*
Y14826D01*
X60410Y13752D01*
X61017Y12843D01*
X62374Y11486D01*
X62580Y10450D01*
X63376Y9259D01*
X64028Y8823D01*
X65346Y7505D01*
X65365Y7315D01*
X65033Y6983D01*
X64500Y5696D01*
Y4304D01*
X65033Y3017D01*
X66017Y2033D01*
X67304Y1500D01*
X68696D01*
X69536Y1848D01*
X70241Y1453D01*
X70223Y1320D01*
X69298Y0D01*
X0D01*
Y432929D01*
X1500Y433550D01*
X2017Y433033D01*
X3304Y432500D01*
X4696D01*
X5983Y433033D01*
X6967Y434017D01*
X7500Y435304D01*
Y436696D01*
X6967Y437983D01*
X5983Y438967D01*
X4696Y439500D01*
X3304D01*
X2017Y438967D01*
X1500Y438450D01*
X0Y439071D01*
Y464000D01*
X3954D01*
X4210Y463759D01*
X4833Y462500D01*
X4500Y461696D01*
Y460304D01*
X5033Y459017D01*
X6017Y458033D01*
X7304Y457500D01*
X8696D01*
X9983Y458033D01*
X10967Y459017D01*
X11500Y460304D01*
Y461696D01*
X11167Y462500D01*
X11790Y463759D01*
X12046Y464000D01*
X41626D01*
X42378Y462184D01*
X44184Y459482D01*
X46482Y457184D01*
X49184Y455378D01*
X52187Y454134D01*
X55375Y453500D01*
X58625D01*
X61813Y454134D01*
X64816Y455378D01*
X67518Y457184D01*
X69816Y459482D01*
X71622Y462184D01*
X72374Y464000D01*
X240000D01*
Y443000D01*
D02*
G37*
G36*
X168017Y428017D02*
X168927Y427410D01*
X170000Y427196D01*
X184339D01*
X201517Y410017D01*
X202427Y409410D01*
X203500Y409196D01*
X215596D01*
X216621Y408171D01*
X216000Y406670D01*
X186000D01*
X184595Y406391D01*
X183405Y405596D01*
X166081Y388272D01*
X165285Y387081D01*
X165006Y385677D01*
Y364520D01*
X163156Y362671D01*
X154000D01*
X152595Y362391D01*
X151405Y361595D01*
X149504Y361451D01*
X139006Y371949D01*
Y379762D01*
X138792Y380835D01*
X138184Y381745D01*
X123290Y396639D01*
X123911Y398139D01*
X135904D01*
X137278Y396765D01*
X137300Y396750D01*
X138017Y396033D01*
X139304Y395500D01*
X140696D01*
X141983Y396033D01*
X142967Y397017D01*
X143500Y398304D01*
Y399696D01*
X142967Y400983D01*
X141983Y401967D01*
X140696Y402500D01*
X140483D01*
X139448Y403535D01*
X138422Y404220D01*
X137213Y404461D01*
X120442D01*
X120424Y404479D01*
X119046Y405050D01*
X117554D01*
X116176Y404479D01*
X115121Y403424D01*
X114550Y402046D01*
Y400554D01*
X113649Y399232D01*
X112951D01*
X112058Y400542D01*
X112050Y400568D01*
Y402046D01*
X111479Y403424D01*
X110424Y404479D01*
X109046Y405050D01*
X109143Y406510D01*
X109253D01*
X111013Y407239D01*
X112361Y408587D01*
X113090Y410347D01*
Y410458D01*
X114550Y410554D01*
X115121Y409176D01*
X116176Y408121D01*
X117554Y407550D01*
X119046D01*
X120424Y408121D01*
X121479Y409176D01*
X122050Y410554D01*
Y412046D01*
X121479Y413424D01*
X120424Y414479D01*
X119046Y415050D01*
X119142Y416510D01*
X119253D01*
X121013Y417239D01*
X122361Y418587D01*
X123070Y420300D01*
X118300D01*
Y422300D01*
X123070D01*
X122361Y424013D01*
X121013Y425361D01*
X119253Y426090D01*
X117580D01*
X117395Y426316D01*
X117084Y427877D01*
X116200Y429200D01*
X114877Y430084D01*
X113712Y430316D01*
X112378Y431300D01*
X112068Y432861D01*
X111184Y434184D01*
X109861Y435068D01*
X108300Y435378D01*
X106739Y435068D01*
X105416Y434184D01*
X103436Y432203D01*
X101788Y432677D01*
X101479Y433424D01*
X100424Y434479D01*
X99046Y435050D01*
X98386D01*
X98102Y435611D01*
X97926Y436550D01*
X98712Y437336D01*
X99244Y438622D01*
Y440014D01*
X100034Y441196D01*
X127287D01*
X127421Y440970D01*
X127746Y439696D01*
X127033Y438983D01*
X126500Y437696D01*
Y436304D01*
X127033Y435017D01*
X128017Y434033D01*
X129304Y433500D01*
X130696D01*
X131983Y434033D01*
X132967Y435017D01*
X133500Y436304D01*
Y437696D01*
X132967Y438983D01*
X132254Y439696D01*
X132579Y440970D01*
X132713Y441196D01*
X154839D01*
X168017Y428017D01*
D02*
G37*
G36*
X133398Y378601D02*
Y370788D01*
X133611Y369715D01*
X134219Y368805D01*
X149965Y353060D01*
X149926Y351329D01*
X143451Y344855D01*
X109582D01*
X109008Y346240D01*
X111184Y348416D01*
X112068Y349739D01*
X112124Y350022D01*
X113651Y350008D01*
X114239Y348587D01*
X115587Y347239D01*
X117300Y346530D01*
Y351300D01*
X118300D01*
Y352300D01*
X123070D01*
X122960Y352567D01*
X123667Y353890D01*
X123996Y353955D01*
X125320Y354839D01*
X126204Y356162D01*
X126514Y357723D01*
X126204Y359284D01*
X125320Y360607D01*
X124780Y360967D01*
X124835Y361842D01*
X125020Y362611D01*
X126200Y363400D01*
X127084Y364723D01*
X127395Y366284D01*
X127084Y367845D01*
X126200Y369168D01*
X121184Y374184D01*
X119861Y375068D01*
X118300Y375378D01*
X116739Y375068D01*
X115416Y374184D01*
X114532Y372861D01*
X114476Y372578D01*
X112949Y372592D01*
X112361Y374013D01*
X111013Y375361D01*
X110706Y375488D01*
Y377112D01*
X111013Y377239D01*
X112361Y378587D01*
X112949Y380008D01*
X114476Y380022D01*
X114532Y379739D01*
X115416Y378416D01*
X116739Y377532D01*
X118300Y377222D01*
X119861Y377532D01*
X121184Y378416D01*
X126200Y383432D01*
X126298Y383579D01*
X128229Y383769D01*
X133398Y378601D01*
D02*
G37*
G36*
X274000Y363219D02*
Y95000D01*
X239000D01*
Y0D01*
X185693D01*
X185270Y995D01*
X185159Y1500D01*
X185891Y2595D01*
X186171Y4000D01*
X185891Y5405D01*
X185095Y6595D01*
X183905Y7391D01*
X182500Y7671D01*
X175716D01*
X174984Y9171D01*
X175391Y9779D01*
X175671Y11184D01*
X175391Y12589D01*
X174596Y13779D01*
X173405Y14575D01*
X172000Y14855D01*
X109582D01*
X109008Y16240D01*
X111184Y18416D01*
X112068Y19739D01*
X112124Y20022D01*
X113651Y20008D01*
X114239Y18587D01*
X115587Y17239D01*
X117300Y16530D01*
Y21300D01*
X118300D01*
Y22300D01*
X123070D01*
X122361Y24013D01*
X121013Y25361D01*
X119593Y25949D01*
X119578Y27476D01*
X119861Y27532D01*
X121184Y28416D01*
X122068Y29739D01*
X122295Y30879D01*
X122935Y31711D01*
X123712Y32284D01*
X124877Y32516D01*
X126200Y33400D01*
X127084Y34723D01*
X127395Y36284D01*
X127084Y37845D01*
X126200Y39168D01*
X124463Y40904D01*
X124873Y42501D01*
X124935Y42554D01*
X126200Y43400D01*
X127084Y44723D01*
X127395Y46284D01*
X127084Y47845D01*
X126200Y49168D01*
X125538Y49830D01*
X126159Y51329D01*
X135490D01*
X136894Y51609D01*
X138085Y52404D01*
X141610Y55929D01*
X146858D01*
X147480Y54429D01*
X147033Y53983D01*
X146500Y52696D01*
Y51304D01*
X147033Y50017D01*
X148017Y49033D01*
X149304Y48500D01*
X150696D01*
X151983Y49033D01*
X152967Y50017D01*
X153500Y51304D01*
Y51868D01*
X154175Y52956D01*
X154886Y53229D01*
X171900D01*
X173305Y53509D01*
X174496Y54305D01*
X193199Y73008D01*
X194622Y72398D01*
X195027Y70992D01*
X165535Y41500D01*
X165304D01*
X164017Y40967D01*
X163033Y39983D01*
X162500Y38696D01*
Y37304D01*
X163033Y36017D01*
X164017Y35033D01*
X165304Y34500D01*
X166696D01*
X167983Y35033D01*
X168967Y36017D01*
X169500Y37304D01*
Y37535D01*
X259498Y127532D01*
X260105Y128442D01*
X260319Y129515D01*
Y240135D01*
X261819Y241366D01*
X262000Y241329D01*
X263405Y241609D01*
X264596Y242404D01*
X270595Y248405D01*
X271391Y249595D01*
X271670Y251000D01*
Y362983D01*
X272613Y363818D01*
X274000Y363219D01*
D02*
G37*
G36*
X246448Y250386D02*
Y218827D01*
X245057Y218503D01*
X244948Y218501D01*
X243983Y219467D01*
X242696Y220000D01*
X241304D01*
X241171Y219945D01*
X239671Y220947D01*
Y245480D01*
X244779Y250588D01*
X244948Y250841D01*
X246448Y250386D01*
D02*
G37*
G36*
X185996Y246348D02*
Y243961D01*
X164017Y221983D01*
X163410Y221073D01*
X163196Y220000D01*
Y215161D01*
X160716Y212681D01*
X158967Y212983D01*
X157983Y213967D01*
X156696Y214500D01*
X155304D01*
X154017Y213967D01*
X153033Y212983D01*
X152500Y211696D01*
Y210304D01*
X153033Y209017D01*
X153623Y208427D01*
X153873Y207500D01*
X153623Y206573D01*
X153033Y205983D01*
X152500Y204696D01*
Y203304D01*
X153033Y202017D01*
X154017Y201033D01*
X155304Y200500D01*
X156413D01*
X156956Y199706D01*
X157149Y199114D01*
X153839Y195804D01*
X136990D01*
X135917Y195590D01*
X135007Y194983D01*
X129628Y189604D01*
X122685D01*
X122050Y190554D01*
Y192046D01*
X121479Y193424D01*
X120424Y194479D01*
X119046Y195050D01*
X119142Y196510D01*
X119253D01*
X121013Y197239D01*
X122361Y198587D01*
X123070Y200300D01*
X118300D01*
Y202300D01*
X123122D01*
X123570Y202972D01*
X139761D01*
X143866Y198866D01*
X145189Y197982D01*
X146750Y197672D01*
X148311Y197982D01*
X149634Y198866D01*
X150518Y200189D01*
X150828Y201750D01*
X150518Y203311D01*
X149634Y204634D01*
X144334Y209934D01*
X143011Y210818D01*
X141450Y211128D01*
X141450Y211128D01*
X117771D01*
X116872Y212628D01*
X117031Y212927D01*
X117311Y212982D01*
X118634Y213866D01*
X118884Y214116D01*
X119768Y215439D01*
X120078Y217000D01*
X120071Y217037D01*
X121023Y218196D01*
X154562D01*
X155634Y218410D01*
X156544Y219017D01*
X184461Y246935D01*
X184557Y246944D01*
X185996Y246348D01*
D02*
G37*
G36*
X225329Y245743D02*
Y216520D01*
X221405Y212595D01*
X220609Y211405D01*
X220329Y210000D01*
Y144520D01*
X215280Y139471D01*
X212012D01*
X211157Y139300D01*
X210768Y139561D01*
X209884Y140884D01*
X209268Y141500D01*
X209527Y142407D01*
X209832Y143056D01*
X210983Y143533D01*
X211967Y144517D01*
X212500Y145804D01*
Y147196D01*
X211967Y148483D01*
X211950Y148500D01*
X212571Y150000D01*
X212696D01*
X213983Y150533D01*
X214967Y151517D01*
X215500Y152804D01*
Y154196D01*
X214967Y155483D01*
X213983Y156467D01*
X212696Y157000D01*
X211304D01*
X210017Y156467D01*
X209033Y155483D01*
X208500Y154196D01*
Y152804D01*
X209033Y151517D01*
X209050Y151500D01*
X208429Y150000D01*
X208304D01*
X207017Y149467D01*
X206033Y148483D01*
X205557Y147332D01*
X205293Y147120D01*
X204000Y146640D01*
X203061Y147268D01*
X201500Y147578D01*
X201500Y147578D01*
X162078D01*
Y155000D01*
X162078Y155000D01*
X161768Y156561D01*
X160884Y157884D01*
X160884Y157884D01*
X154584Y164184D01*
X153261Y165068D01*
X151700Y165378D01*
X151700Y165378D01*
X118530D01*
X118290Y165682D01*
X118275Y166099D01*
X119046Y167550D01*
X120424Y168121D01*
X121479Y169176D01*
X122050Y170554D01*
Y171592D01*
X123149Y172383D01*
X123436Y172470D01*
X123527Y172410D01*
X124600Y172196D01*
X159298D01*
X160371Y172410D01*
X161280Y173017D01*
X178983Y190720D01*
X179590Y191630D01*
X179804Y192703D01*
Y204854D01*
X179967Y205017D01*
X180500Y206304D01*
Y207696D01*
X179967Y208983D01*
X178983Y209967D01*
X178326Y210239D01*
X177851Y211886D01*
X196465Y230500D01*
X196696D01*
X197983Y231033D01*
X198386Y231436D01*
X207740D01*
X208813Y231649D01*
X209722Y232257D01*
X223829Y246364D01*
X225329Y245743D01*
D02*
G37*
G36*
X237441Y190807D02*
X238680Y190368D01*
X239033Y189517D01*
X239800Y188750D01*
X239033Y187983D01*
X238500Y186696D01*
Y185304D01*
X239033Y184017D01*
X240017Y183033D01*
X241304Y182500D01*
X242696D01*
X243983Y183033D01*
X244948Y183999D01*
X245057Y183997D01*
X246448Y183673D01*
Y168827D01*
X245057Y168503D01*
X244948Y168501D01*
X243983Y169467D01*
X242696Y170000D01*
X241304D01*
X240017Y169467D01*
X239033Y168483D01*
X238500Y167196D01*
Y165804D01*
X239033Y164517D01*
X239800Y163750D01*
X239033Y162983D01*
X238500Y161696D01*
Y160304D01*
X239033Y159017D01*
X240017Y158033D01*
X241304Y157500D01*
X242696D01*
X243983Y158033D01*
X244948Y158998D01*
X245057Y158997D01*
X246448Y158673D01*
Y147414D01*
X222839Y123804D01*
X213660D01*
X213205Y125304D01*
X213655Y125605D01*
X215480Y127430D01*
X218747D01*
X220151Y127709D01*
X221342Y128504D01*
X233595Y140758D01*
X234391Y141949D01*
X234671Y143353D01*
Y188480D01*
X237000Y190809D01*
X237441Y190807D01*
D02*
G37*
G36*
X114532Y159739D02*
X115416Y158416D01*
X116739Y157532D01*
X118300Y157222D01*
X150011D01*
X153922Y153311D01*
Y147578D01*
X152472D01*
X150911Y147268D01*
X149588Y146384D01*
X149588Y146384D01*
X148755Y145551D01*
X147782Y145357D01*
X146459Y144473D01*
X146459Y144473D01*
X142768Y140782D01*
X141884Y139459D01*
X141574Y137899D01*
X141574Y137898D01*
Y137342D01*
X141116Y136884D01*
X140232Y135561D01*
X140061Y134700D01*
X138531D01*
X138391Y135405D01*
X138386Y135412D01*
X138238Y136158D01*
X137442Y137348D01*
X131558Y143233D01*
X131910Y145003D01*
X131983Y145033D01*
X132967Y146017D01*
X133500Y147304D01*
Y148696D01*
X132967Y149983D01*
X131983Y150967D01*
X130696Y151500D01*
X129304D01*
X128017Y150967D01*
X127033Y149983D01*
X127003Y149910D01*
X125233Y149558D01*
X121559Y153232D01*
X121479Y153424D01*
X120424Y154479D01*
X119046Y155050D01*
X117554D01*
X116176Y154479D01*
X115121Y153424D01*
X114550Y152046D01*
X113090Y152142D01*
Y152253D01*
X112361Y154013D01*
X111013Y155361D01*
X110706Y155488D01*
Y157112D01*
X111013Y157239D01*
X112361Y158587D01*
X112949Y160008D01*
X114476Y160022D01*
X114532Y159739D01*
D02*
G37*
G36*
X152767Y135033D02*
X153086Y133277D01*
X141480Y121671D01*
X109622D01*
X109018Y123170D01*
X111088Y125241D01*
X111088Y125241D01*
X111972Y126564D01*
X112283Y128125D01*
Y129390D01*
X113783Y129689D01*
X114239Y128587D01*
X115587Y127239D01*
X117300Y126530D01*
Y131300D01*
X119300D01*
Y126530D01*
X121013Y127239D01*
X122361Y128587D01*
X123090Y130347D01*
X123948Y131051D01*
X124600Y130922D01*
X126000D01*
X127561Y131232D01*
X128884Y132116D01*
X129400Y132888D01*
X129994Y133016D01*
X131456Y132748D01*
X132252Y131558D01*
X132405Y131405D01*
X133595Y130609D01*
X135000Y130330D01*
X136405Y130609D01*
X137596Y131405D01*
X138391Y132595D01*
X138531Y133300D01*
X140061D01*
X140232Y132439D01*
X141116Y131116D01*
X142439Y130232D01*
X144000Y129922D01*
X145561Y130232D01*
X146884Y131116D01*
X148536Y132768D01*
X148536Y132768D01*
X149420Y134092D01*
X149608Y135036D01*
X150361Y135680D01*
X151783Y136017D01*
X152767Y135033D01*
D02*
G37*
G36*
X254711Y273321D02*
Y130676D01*
X200764Y76729D01*
X199358Y77134D01*
X198748Y78557D01*
X199095Y78905D01*
X199891Y80095D01*
X200170Y81500D01*
Y99500D01*
X199891Y100905D01*
X199095Y102095D01*
X185595Y115596D01*
X184405Y116391D01*
X183000Y116671D01*
X181595Y116391D01*
X180404Y115596D01*
X179609Y114405D01*
X179329Y113000D01*
X179609Y111595D01*
X180404Y110405D01*
X192829Y97980D01*
Y85170D01*
X185587D01*
X180487Y90270D01*
X179296Y91066D01*
X177892Y91345D01*
X165674D01*
X164270Y91066D01*
X163079Y90270D01*
X154480Y81671D01*
X126000D01*
X124595Y81391D01*
X123550Y80693D01*
X122872Y80860D01*
X122050Y81268D01*
Y82046D01*
X121479Y83424D01*
X120424Y84479D01*
X119046Y85050D01*
X119142Y86510D01*
X119253D01*
X121013Y87239D01*
X122361Y88587D01*
X123070Y90300D01*
X118300D01*
Y91300D01*
X117300D01*
Y96070D01*
X115587Y95361D01*
X114239Y94013D01*
X113651Y92592D01*
X112124Y92578D01*
X112068Y92861D01*
X111184Y94184D01*
X109918Y95029D01*
X109857Y95083D01*
X109447Y96680D01*
X111184Y98416D01*
X112068Y99739D01*
X112378Y101300D01*
X112300Y101696D01*
X113511Y103196D01*
X153879D01*
X154952Y103410D01*
X155861Y104017D01*
X160346Y108502D01*
X160743Y108767D01*
X163233Y111257D01*
X163498Y111654D01*
X166114Y114270D01*
X167088Y113867D01*
X167500Y113535D01*
Y112304D01*
X168033Y111017D01*
X169017Y110033D01*
X170304Y109500D01*
X171696D01*
X172983Y110033D01*
X173967Y111017D01*
X174500Y112304D01*
Y113696D01*
X173967Y114983D01*
X172983Y115967D01*
X171696Y116500D01*
X171058Y118000D01*
X171225Y118196D01*
X224000D01*
X225073Y118410D01*
X225983Y119017D01*
X251235Y144270D01*
X251843Y145179D01*
X252056Y146252D01*
Y259495D01*
X251843Y260568D01*
X251235Y261477D01*
X249804Y262908D01*
Y270374D01*
X253325Y273895D01*
X254711Y273321D01*
D02*
G37*
%LPC*%
G36*
X192696Y459500D02*
X191304D01*
X190017Y458967D01*
X189033Y457983D01*
X188500Y456696D01*
Y455304D01*
X189033Y454017D01*
X190017Y453033D01*
X191304Y452500D01*
X192696D01*
X193983Y453033D01*
X194967Y454017D01*
X195500Y455304D01*
Y456696D01*
X194967Y457983D01*
X193983Y458967D01*
X192696Y459500D01*
D02*
G37*
G36*
X94696D02*
X93304D01*
X92017Y458967D01*
X91033Y457983D01*
X90500Y456696D01*
Y455304D01*
X91033Y454017D01*
X92017Y453033D01*
X93304Y452500D01*
X94696D01*
X95983Y453033D01*
X96967Y454017D01*
X97500Y455304D01*
Y456696D01*
X96967Y457983D01*
X95983Y458967D01*
X94696Y459500D01*
D02*
G37*
G36*
X32028Y441651D02*
X32027Y441651D01*
X31770D01*
X30209Y441340D01*
X28886Y440456D01*
X28089Y439264D01*
X27843Y439102D01*
X26411Y438822D01*
X25457Y439775D01*
X24134Y440659D01*
X22573Y440970D01*
X22573Y440970D01*
X22319D01*
X20758Y440659D01*
X19435Y439775D01*
X18551Y438452D01*
X18241Y436892D01*
X17583Y436090D01*
X17347D01*
X15587Y435361D01*
X14239Y434013D01*
X13530Y432300D01*
X18300D01*
Y430300D01*
X13530D01*
X14239Y428587D01*
X15587Y427239D01*
X16127Y427016D01*
X16479Y425246D01*
X15416Y424184D01*
X14532Y422861D01*
X14222Y421300D01*
X14532Y419739D01*
X15416Y418416D01*
X16739Y417532D01*
X18065Y417268D01*
X18273Y416894D01*
X18140Y415260D01*
X17922Y415050D01*
X17554D01*
X16176Y414479D01*
X15121Y413424D01*
X14550Y412046D01*
Y410554D01*
X15121Y409176D01*
X16176Y408121D01*
X17554Y407550D01*
X19046D01*
X20424Y408121D01*
X21479Y409176D01*
X22050Y410554D01*
Y410922D01*
X22540Y411431D01*
X23261Y411437D01*
X24550Y410554D01*
X25121Y409176D01*
X26176Y408121D01*
X27554Y407550D01*
X29046D01*
X30424Y408121D01*
X31479Y409176D01*
X32050Y410554D01*
Y412046D01*
X31479Y413424D01*
X30424Y414479D01*
X29677Y414788D01*
X29204Y416436D01*
X31184Y418416D01*
X32068Y419739D01*
X32211Y420461D01*
X33656Y421103D01*
X34364Y420669D01*
X34564Y420520D01*
X35121Y419176D01*
X36176Y418121D01*
X37554Y417550D01*
X39046D01*
X40424Y418121D01*
X41479Y419176D01*
X42050Y420554D01*
Y421882D01*
X42159Y422159D01*
X43185Y423226D01*
X43615Y423160D01*
X44550Y422046D01*
Y420554D01*
X45121Y419176D01*
X46176Y418121D01*
X47554Y417550D01*
X47917D01*
X48903Y416564D01*
Y416549D01*
X49436Y415263D01*
X50420Y414278D01*
X51707Y413745D01*
X53099D01*
X54385Y414278D01*
X55370Y415263D01*
X55903Y416549D01*
Y416610D01*
X57403Y417613D01*
X57554Y417550D01*
X59046D01*
X60424Y418121D01*
X61479Y419176D01*
X62050Y420554D01*
Y420814D01*
X63128Y421882D01*
X64550Y420900D01*
Y420554D01*
X65121Y419176D01*
X66176Y418121D01*
X67554Y417550D01*
X69046D01*
X70424Y418121D01*
X71479Y419176D01*
X72050Y420554D01*
Y420814D01*
X73128Y421882D01*
X74550Y420900D01*
Y420554D01*
X75121Y419176D01*
X76176Y418121D01*
X76468Y418000D01*
X76329Y416730D01*
X76237Y416472D01*
X75017Y415967D01*
X74033Y414983D01*
X73500Y413696D01*
Y412304D01*
X74033Y411017D01*
X75017Y410033D01*
X76304Y409500D01*
X77696D01*
X78983Y410033D01*
X79967Y411017D01*
X80500Y412304D01*
Y413696D01*
X79967Y414983D01*
X78983Y415967D01*
X78783Y416050D01*
X79035Y417485D01*
X79063Y417557D01*
X80424Y418121D01*
X81479Y419176D01*
X82050Y420554D01*
Y422046D01*
X81479Y423424D01*
X80424Y424479D01*
X79046Y425050D01*
X77554D01*
X76365Y425937D01*
X76289Y426451D01*
X77531Y427530D01*
X77639Y427550D01*
X79046D01*
X80424Y428121D01*
X81479Y429176D01*
X82050Y430554D01*
Y432046D01*
X81479Y433424D01*
X80424Y434479D01*
X79046Y435050D01*
X77554D01*
X76176Y434479D01*
X75121Y433424D01*
X74550Y432046D01*
Y430718D01*
X74441Y430441D01*
X73415Y429375D01*
X72985Y429440D01*
X72050Y430554D01*
Y432046D01*
X71479Y433424D01*
X70424Y434479D01*
X69046Y435050D01*
X68716D01*
X67685Y436081D01*
X67164Y437337D01*
X66180Y438322D01*
X64893Y438854D01*
X63501D01*
X62215Y438322D01*
X61230Y437337D01*
X60697Y436051D01*
Y435990D01*
X59197Y434987D01*
X59046Y435050D01*
X57554D01*
X56176Y434479D01*
X55121Y433424D01*
X54550Y432046D01*
Y431786D01*
X53472Y430718D01*
X52050Y431700D01*
Y432046D01*
X51479Y433424D01*
X50424Y434479D01*
X49046Y435050D01*
X47554D01*
X46176Y434479D01*
X45121Y433424D01*
X44550Y432046D01*
X43604Y431348D01*
X42231Y432039D01*
X42068Y432861D01*
X41184Y434184D01*
X34911Y440456D01*
X33588Y441340D01*
X33329Y441392D01*
X32028Y441651D01*
D02*
G37*
G36*
X89046Y435050D02*
X87554D01*
X86176Y434479D01*
X85121Y433424D01*
X84550Y432046D01*
Y430554D01*
X85121Y429176D01*
X86176Y428121D01*
X87554Y427550D01*
X89046D01*
X90424Y428121D01*
X91479Y429176D01*
X92050Y430554D01*
Y432046D01*
X91479Y433424D01*
X90424Y434479D01*
X89046Y435050D01*
D02*
G37*
G36*
X217118Y460500D02*
X212882D01*
X208729Y459674D01*
X204816Y458053D01*
X201295Y455700D01*
X198300Y452705D01*
X195947Y449184D01*
X194326Y445271D01*
X193500Y441118D01*
Y436882D01*
X194326Y432729D01*
X195947Y428816D01*
X198300Y425295D01*
X201295Y422300D01*
X204816Y419947D01*
X208729Y418326D01*
X212882Y417500D01*
X217118D01*
X221271Y418326D01*
X225184Y419947D01*
X228705Y422300D01*
X231700Y425295D01*
X234053Y428816D01*
X235674Y432729D01*
X236500Y436882D01*
Y441118D01*
X235674Y445271D01*
X234053Y449184D01*
X231700Y452705D01*
X228705Y455700D01*
X225184Y458053D01*
X221271Y459674D01*
X217118Y460500D01*
D02*
G37*
G36*
X265696Y420500D02*
X264304D01*
X263017Y419967D01*
X262033Y418983D01*
X261500Y417696D01*
Y416304D01*
X262033Y415017D01*
X263017Y414033D01*
X264304Y413500D01*
X265696D01*
X266983Y414033D01*
X267967Y415017D01*
X268500Y416304D01*
Y417696D01*
X267967Y418983D01*
X266983Y419967D01*
X265696Y420500D01*
D02*
G37*
G36*
X67696Y414500D02*
X66304D01*
X65017Y413967D01*
X64033Y412983D01*
X63500Y411696D01*
Y410304D01*
X62458Y408900D01*
X62317Y408842D01*
X61333Y407858D01*
X60977Y406999D01*
X59414Y406023D01*
X59300Y406070D01*
Y401300D01*
X57300D01*
Y406070D01*
X55587Y405361D01*
X54239Y404013D01*
X54112Y403706D01*
X52488D01*
X52361Y404013D01*
X51013Y405361D01*
X49300Y406070D01*
Y401300D01*
X48300D01*
Y400300D01*
X43530D01*
X44239Y398587D01*
X45587Y397239D01*
X45894Y397112D01*
Y395488D01*
X45587Y395361D01*
X44239Y394013D01*
X43530Y392300D01*
X48300D01*
Y390300D01*
X43530D01*
X44239Y388587D01*
X45587Y387239D01*
X45894Y387112D01*
Y385488D01*
X45587Y385361D01*
X44239Y384013D01*
X43530Y382300D01*
X48300D01*
Y381300D01*
X49300D01*
Y376530D01*
X51013Y377239D01*
X52361Y378587D01*
X52488Y378894D01*
X54112D01*
X54239Y378587D01*
X55587Y377239D01*
X57300Y376530D01*
Y381300D01*
X59300D01*
Y376530D01*
X61013Y377239D01*
X62361Y378587D01*
X62488Y378894D01*
X64112D01*
X64239Y378587D01*
X65587Y377239D01*
X67300Y376530D01*
Y381300D01*
X69300D01*
Y376530D01*
X71013Y377239D01*
X72361Y378587D01*
X72488Y378894D01*
X74112D01*
X74239Y378587D01*
X75587Y377239D01*
X77300Y376530D01*
Y381300D01*
X79300D01*
Y376530D01*
X81013Y377239D01*
X82361Y378587D01*
X82488Y378894D01*
X84112D01*
X84239Y378587D01*
X85587Y377239D01*
X87300Y376530D01*
Y381300D01*
X88300D01*
Y382300D01*
X93070D01*
X92361Y384013D01*
X91013Y385361D01*
X90706Y385488D01*
Y387112D01*
X91013Y387239D01*
X92361Y388587D01*
X93070Y390300D01*
X88300D01*
Y392300D01*
X93070D01*
X92361Y394013D01*
X91013Y395361D01*
X90706Y395488D01*
Y397112D01*
X91013Y397239D01*
X92361Y398587D01*
X93070Y400300D01*
X88300D01*
Y401300D01*
X87300D01*
Y406071D01*
X85587Y405361D01*
X84239Y404013D01*
X84112Y403706D01*
X82488D01*
X82361Y404013D01*
X81013Y405361D01*
X79300Y406070D01*
Y401300D01*
X77300D01*
Y406070D01*
X75587Y405361D01*
X74239Y404013D01*
X74112Y403706D01*
X72488D01*
X72361Y404013D01*
X71013Y405361D01*
X69297Y406072D01*
X69253Y406090D01*
X69021Y406589D01*
X68983Y408033D01*
X69967Y409017D01*
X70500Y410304D01*
Y411696D01*
X69967Y412983D01*
X68983Y413967D01*
X67696Y414500D01*
D02*
G37*
G36*
X10196Y411500D02*
X8804D01*
X7517Y410967D01*
X6533Y409983D01*
X6000Y408696D01*
Y407304D01*
X6533Y406017D01*
X7517Y405033D01*
X8804Y404500D01*
X10196D01*
X11483Y405033D01*
X12467Y406017D01*
X13000Y407304D01*
Y408696D01*
X12467Y409983D01*
X11483Y410967D01*
X10196Y411500D01*
D02*
G37*
G36*
X237696Y410500D02*
X236304D01*
X235017Y409967D01*
X234033Y408983D01*
X233500Y407696D01*
Y406304D01*
X234033Y405017D01*
X235017Y404033D01*
X236304Y403500D01*
X237696D01*
X238983Y404033D01*
X239967Y405017D01*
X240500Y406304D01*
Y407696D01*
X239967Y408983D01*
X238983Y409967D01*
X237696Y410500D01*
D02*
G37*
G36*
X89300Y406070D02*
Y402300D01*
X93070D01*
X92361Y404013D01*
X91013Y405361D01*
X89300Y406070D01*
D02*
G37*
G36*
X47300Y406071D02*
X45587Y405361D01*
X44239Y404013D01*
X43530Y402300D01*
X47300D01*
Y406071D01*
D02*
G37*
G36*
X29046Y405050D02*
X27554D01*
X26176Y404479D01*
X25121Y403424D01*
X24550Y402046D01*
Y400554D01*
X25121Y399176D01*
X26176Y398121D01*
X27554Y397550D01*
X29046D01*
X30424Y398121D01*
X31479Y399176D01*
X32050Y400554D01*
Y402046D01*
X31479Y403424D01*
X30424Y404479D01*
X29046Y405050D01*
D02*
G37*
G36*
X19046D02*
X17554D01*
X16176Y404479D01*
X15121Y403424D01*
X14550Y402046D01*
Y400554D01*
X15121Y399176D01*
X16176Y398121D01*
X17554Y397550D01*
X19046D01*
X20424Y398121D01*
X21479Y399176D01*
X22050Y400554D01*
Y402046D01*
X21479Y403424D01*
X20424Y404479D01*
X19046Y405050D01*
D02*
G37*
G36*
X29046Y395050D02*
X27554D01*
X26176Y394479D01*
X25121Y393424D01*
X24550Y392046D01*
Y390554D01*
X25121Y389176D01*
X26176Y388121D01*
X27554Y387550D01*
X29046D01*
X30424Y388121D01*
X31479Y389176D01*
X32050Y390554D01*
Y392046D01*
X31479Y393424D01*
X30424Y394479D01*
X29046Y395050D01*
D02*
G37*
G36*
X19046D02*
X17554D01*
X16176Y394479D01*
X15121Y393424D01*
X14550Y392046D01*
Y390554D01*
X15121Y389176D01*
X16176Y388121D01*
X17554Y387550D01*
X19046D01*
X20424Y388121D01*
X21479Y389176D01*
X22050Y390554D01*
Y392046D01*
X21479Y393424D01*
X20424Y394479D01*
X19046Y395050D01*
D02*
G37*
G36*
X29046Y385050D02*
X27554D01*
X26176Y384479D01*
X25121Y383424D01*
X24550Y382046D01*
Y380554D01*
X25121Y379176D01*
X26176Y378121D01*
X27554Y377550D01*
X29046D01*
X30424Y378121D01*
X31479Y379176D01*
X32050Y380554D01*
Y382046D01*
X31479Y383424D01*
X30424Y384479D01*
X29046Y385050D01*
D02*
G37*
G36*
X19046D02*
X17554D01*
X16176Y384479D01*
X15121Y383424D01*
X14550Y382046D01*
Y380554D01*
X15121Y379176D01*
X16176Y378121D01*
X17554Y377550D01*
X19046D01*
X20424Y378121D01*
X21479Y379176D01*
X22050Y380554D01*
Y382046D01*
X21479Y383424D01*
X20424Y384479D01*
X19046Y385050D01*
D02*
G37*
G36*
X93070Y380300D02*
X89300D01*
Y376530D01*
X91013Y377239D01*
X92361Y378587D01*
X93070Y380300D01*
D02*
G37*
G36*
X47300D02*
X43530D01*
X44239Y378587D01*
X45587Y377239D01*
X47300Y376530D01*
Y380300D01*
D02*
G37*
G36*
X73696Y375500D02*
X72304D01*
X71017Y374967D01*
X70033Y373983D01*
X69500Y372696D01*
Y371304D01*
X70033Y370017D01*
X71017Y369033D01*
X72304Y368500D01*
X73696D01*
X74983Y369033D01*
X75967Y370017D01*
X76500Y371304D01*
Y372696D01*
X75967Y373983D01*
X74983Y374967D01*
X73696Y375500D01*
D02*
G37*
G36*
X19046Y375050D02*
X17554D01*
X16176Y374479D01*
X15121Y373424D01*
X14550Y372046D01*
Y370554D01*
X15121Y369176D01*
X16176Y368121D01*
X17554Y367550D01*
X19046D01*
X20424Y368121D01*
X21479Y369176D01*
X22050Y370554D01*
Y372046D01*
X21479Y373424D01*
X20424Y374479D01*
X19046Y375050D01*
D02*
G37*
G36*
X17300Y350300D02*
X13529D01*
X14239Y348587D01*
X15587Y347239D01*
X17300Y346530D01*
Y350300D01*
D02*
G37*
G36*
X108300Y325378D02*
X106739Y325068D01*
X105416Y324184D01*
X103436Y322203D01*
X101788Y322677D01*
X101479Y323424D01*
X100424Y324479D01*
X99046Y325050D01*
X97554D01*
X96176Y324479D01*
X95121Y323424D01*
X94550Y322046D01*
Y320554D01*
X95121Y319176D01*
X96176Y318121D01*
X96923Y317812D01*
X97396Y316164D01*
X95416Y314184D01*
X94532Y312861D01*
X94222Y311300D01*
X94532Y309739D01*
X95416Y308416D01*
X96739Y307532D01*
X98170Y307248D01*
X99206Y306284D01*
X99516Y304723D01*
X100400Y303400D01*
X101723Y302516D01*
X103284Y302206D01*
X103510Y302020D01*
Y300347D01*
X104239Y298587D01*
X105587Y297239D01*
X107347Y296510D01*
X107458D01*
X107554Y295050D01*
X106176Y294479D01*
X105121Y293424D01*
X104550Y292046D01*
Y290554D01*
X105121Y289176D01*
X106176Y288121D01*
X107554Y287550D01*
X109046D01*
X110424Y288121D01*
X111479Y289176D01*
X112050Y290554D01*
Y292046D01*
X111479Y293424D01*
X110424Y294479D01*
X109046Y295050D01*
X109143Y296510D01*
X109253D01*
X111013Y297239D01*
X112361Y298587D01*
X113090Y300347D01*
Y300458D01*
X114550Y300554D01*
X115121Y299176D01*
X116176Y298121D01*
X117554Y297550D01*
X119046D01*
X120424Y298121D01*
X121479Y299176D01*
X122050Y300554D01*
Y302046D01*
X121479Y303424D01*
X120424Y304479D01*
X119046Y305050D01*
X119142Y306510D01*
X119253D01*
X121013Y307239D01*
X122361Y308587D01*
X123070Y310300D01*
X118300D01*
Y311300D01*
X117300D01*
Y316070D01*
X115587Y315361D01*
X114239Y314013D01*
X113651Y312592D01*
X112124Y312578D01*
X112068Y312861D01*
X111184Y314184D01*
X109918Y315029D01*
X109857Y315082D01*
X109447Y316680D01*
X111184Y318416D01*
X112068Y319739D01*
X112378Y321300D01*
X112068Y322861D01*
X111184Y324184D01*
X109861Y325068D01*
X108300Y325378D01*
D02*
G37*
G36*
X89046Y325050D02*
X87554D01*
X86176Y324479D01*
X85121Y323424D01*
X84550Y322046D01*
Y320554D01*
X85121Y319176D01*
X86176Y318121D01*
X87554Y317550D01*
X89046D01*
X90424Y318121D01*
X91479Y319176D01*
X92050Y320554D01*
Y322046D01*
X91479Y323424D01*
X90424Y324479D01*
X89046Y325050D01*
D02*
G37*
G36*
X181696Y323500D02*
X180304D01*
X179017Y322967D01*
X178033Y321983D01*
X177500Y320696D01*
Y319304D01*
X178033Y318017D01*
X179017Y317033D01*
X180304Y316500D01*
X181696D01*
X182983Y317033D01*
X183967Y318017D01*
X184500Y319304D01*
Y320696D01*
X183967Y321983D01*
X182983Y322967D01*
X181696Y323500D01*
D02*
G37*
G36*
X119300Y316070D02*
Y312300D01*
X123070D01*
X122361Y314013D01*
X121013Y315361D01*
X119300Y316070D01*
D02*
G37*
G36*
X89046Y315050D02*
X87554D01*
X86176Y314479D01*
X85121Y313424D01*
X84550Y312046D01*
Y310554D01*
X85121Y309176D01*
X86176Y308121D01*
X87554Y307550D01*
X89046D01*
X90424Y308121D01*
X91479Y309176D01*
X92050Y310554D01*
Y312046D01*
X91479Y313424D01*
X90424Y314479D01*
X89046Y315050D01*
D02*
G37*
G36*
X19046Y305050D02*
X17554D01*
X16176Y304479D01*
X15322Y303625D01*
X14431Y304516D01*
X13144Y305049D01*
X11752D01*
X10466Y304516D01*
X9481Y303532D01*
X8948Y302245D01*
Y300853D01*
X9481Y299566D01*
X10466Y298582D01*
X11752Y298049D01*
X13144D01*
X14431Y298582D01*
X16120Y298177D01*
X16176Y298121D01*
X17554Y297550D01*
X19046D01*
X20424Y298121D01*
X21479Y299176D01*
X22050Y300554D01*
Y302046D01*
X21479Y303424D01*
X20424Y304479D01*
X19046Y305050D01*
D02*
G37*
G36*
X31600Y331670D02*
X7000D01*
X5595Y331391D01*
X4405Y330596D01*
X3609Y329405D01*
X3329Y328000D01*
X3609Y326595D01*
X4405Y325405D01*
X5595Y324609D01*
X7000Y324329D01*
X12747D01*
X13749Y322830D01*
X13530Y322300D01*
X18300D01*
Y320300D01*
X13530D01*
X14239Y318587D01*
X15046Y317780D01*
X14232Y316561D01*
X13922Y315000D01*
X14126Y313972D01*
Y311396D01*
X14126Y311396D01*
X14436Y309835D01*
X15321Y308512D01*
X15416Y308416D01*
X16739Y307532D01*
X18300Y307222D01*
X19861Y307532D01*
X21184Y308416D01*
X22068Y309739D01*
X22378Y311300D01*
X23312Y312117D01*
X23342Y312126D01*
X24222Y311300D01*
X24532Y309739D01*
X25416Y308416D01*
X26739Y307532D01*
X28300Y307222D01*
X29861Y307532D01*
X31184Y308416D01*
X32920Y310153D01*
X34518Y309743D01*
X34571Y309682D01*
X35416Y308416D01*
X40432Y303400D01*
X41755Y302516D01*
X43316Y302206D01*
X44877Y302516D01*
X46200Y303400D01*
X47084Y304723D01*
X47331Y305966D01*
X48246Y306442D01*
X48699Y306526D01*
X49816Y305588D01*
X50349Y304301D01*
X51333Y303317D01*
X52620Y302784D01*
X54012D01*
X55299Y303317D01*
X56283Y304301D01*
X56816Y305588D01*
Y306232D01*
X56994Y306550D01*
X58451Y306967D01*
X59816Y305602D01*
Y305588D01*
X60349Y304301D01*
X61333Y303317D01*
X62620Y302784D01*
X64012D01*
X65299Y303317D01*
X66283Y304301D01*
X66816Y305588D01*
Y306232D01*
X66994Y306550D01*
X68451Y306967D01*
X69816Y305602D01*
Y305588D01*
X70349Y304301D01*
X71333Y303317D01*
X72620Y302784D01*
X74012D01*
X75299Y303317D01*
X76283Y304301D01*
X76816Y305588D01*
Y306232D01*
X77360Y307204D01*
X78202Y307550D01*
X79046D01*
X80424Y308121D01*
X81479Y309176D01*
X82050Y310554D01*
Y312046D01*
X81479Y313424D01*
X80424Y314479D01*
X79046Y315050D01*
X78202D01*
X78092Y315093D01*
X77568Y316318D01*
X78049Y317487D01*
X78202Y317550D01*
X79046D01*
X80424Y318121D01*
X81479Y319176D01*
X82050Y320554D01*
Y322046D01*
X81479Y323424D01*
X80424Y324479D01*
X79046Y325050D01*
X77554D01*
X76176Y324479D01*
X75121Y323424D01*
X74550Y322046D01*
Y321353D01*
X73050Y320732D01*
X72050Y321732D01*
Y322046D01*
X71479Y323424D01*
X70424Y324479D01*
X69046Y325050D01*
X67554D01*
X66176Y324479D01*
X65121Y323424D01*
X64550Y322046D01*
Y321353D01*
X63050Y320732D01*
X62050Y321732D01*
Y322046D01*
X61479Y323424D01*
X60424Y324479D01*
X59046Y325050D01*
X57554D01*
X56176Y324479D01*
X55121Y323424D01*
X54550Y322046D01*
Y321353D01*
X53050Y320732D01*
X52050Y321732D01*
Y322046D01*
X51479Y323424D01*
X50424Y324479D01*
X49046Y325050D01*
X47554D01*
X46176Y324479D01*
X45121Y323424D01*
X44550Y322046D01*
Y320554D01*
X45121Y319176D01*
X46176Y318121D01*
X47554Y317550D01*
X47868D01*
X48868Y316550D01*
X48247Y315050D01*
X47554D01*
X46176Y314479D01*
X45121Y313424D01*
X44812Y312677D01*
X43164Y312204D01*
X41184Y314184D01*
X39861Y315068D01*
X38512Y315336D01*
X37967Y316345D01*
X38918Y317550D01*
X39046D01*
X40424Y318121D01*
X41479Y319176D01*
X42050Y320554D01*
Y322046D01*
X41479Y323424D01*
X40424Y324479D01*
X40232Y324558D01*
X34195Y330596D01*
X33005Y331391D01*
X31600Y331670D01*
D02*
G37*
G36*
X148696Y305500D02*
X147304D01*
X146017Y304967D01*
X145033Y303983D01*
X144500Y302696D01*
Y301304D01*
X145033Y300017D01*
X146017Y299033D01*
X147304Y298500D01*
X148696D01*
X149983Y299033D01*
X150967Y300017D01*
X151500Y301304D01*
Y302696D01*
X150967Y303983D01*
X149983Y304967D01*
X148696Y305500D01*
D02*
G37*
G36*
X29046Y305050D02*
X27554D01*
X26176Y304479D01*
X25121Y303424D01*
X24550Y302046D01*
Y300554D01*
X25121Y299176D01*
X26176Y298121D01*
X27554Y297550D01*
X29046D01*
X30424Y298121D01*
X31479Y299176D01*
X32050Y300554D01*
Y302046D01*
X31479Y303424D01*
X30424Y304479D01*
X29046Y305050D01*
D02*
G37*
G36*
X151696Y296500D02*
X150304D01*
X149017Y295967D01*
X148033Y294983D01*
X147815Y294457D01*
X147462Y294104D01*
X120799D01*
X120424Y294479D01*
X119046Y295050D01*
X117554D01*
X116176Y294479D01*
X115121Y293424D01*
X114550Y292046D01*
Y290554D01*
X115121Y289176D01*
X116176Y288121D01*
X117554Y287550D01*
X119046D01*
X120424Y288121D01*
X120799Y288496D01*
X148624D01*
X149697Y288710D01*
X150606Y289317D01*
X150789Y289500D01*
X151696D01*
X152983Y290033D01*
X153967Y291017D01*
X154500Y292304D01*
Y293696D01*
X153967Y294983D01*
X152983Y295967D01*
X151696Y296500D01*
D02*
G37*
G36*
X89300Y296070D02*
Y292300D01*
X93070D01*
X92361Y294013D01*
X91013Y295361D01*
X89300Y296070D01*
D02*
G37*
G36*
X47300Y296070D02*
X45587Y295361D01*
X44239Y294013D01*
X43530Y292300D01*
X47300D01*
Y296070D01*
D02*
G37*
G36*
X29046Y295050D02*
X27554D01*
X26176Y294479D01*
X25121Y293424D01*
X24550Y292046D01*
Y290554D01*
X25121Y289176D01*
X26176Y288121D01*
X27554Y287550D01*
X29046D01*
X30424Y288121D01*
X31479Y289176D01*
X32050Y290554D01*
Y292046D01*
X31479Y293424D01*
X30424Y294479D01*
X29046Y295050D01*
D02*
G37*
G36*
X19046D02*
X17554D01*
X16176Y294479D01*
X15121Y293424D01*
X14550Y292046D01*
Y290554D01*
X15121Y289176D01*
X16176Y288121D01*
X17554Y287550D01*
X19046D01*
X20424Y288121D01*
X21479Y289176D01*
X22050Y290554D01*
Y292046D01*
X21479Y293424D01*
X20424Y294479D01*
X19046Y295050D01*
D02*
G37*
G36*
X119046Y285050D02*
X117554D01*
X116176Y284479D01*
X115121Y283424D01*
X114550Y282046D01*
Y280554D01*
X115121Y279176D01*
X116176Y278121D01*
X117554Y277550D01*
X119046D01*
X120424Y278121D01*
X121479Y279176D01*
X122050Y280554D01*
Y282046D01*
X121479Y283424D01*
X120424Y284479D01*
X119046Y285050D01*
D02*
G37*
G36*
X29046D02*
X27554D01*
X26176Y284479D01*
X25121Y283424D01*
X24550Y282046D01*
Y280554D01*
X25121Y279176D01*
X26176Y278121D01*
X27554Y277550D01*
X29046D01*
X30424Y278121D01*
X31479Y279176D01*
X32050Y280554D01*
Y282046D01*
X31479Y283424D01*
X30424Y284479D01*
X29046Y285050D01*
D02*
G37*
G36*
X19046D02*
X17554D01*
X16176Y284479D01*
X15121Y283424D01*
X14550Y282046D01*
Y280554D01*
X15121Y279176D01*
X16176Y278121D01*
X17554Y277550D01*
X19046D01*
X20424Y278121D01*
X21479Y279176D01*
X22050Y280554D01*
Y282046D01*
X21479Y283424D01*
X20424Y284479D01*
X19046Y285050D01*
D02*
G37*
G36*
X29046Y275050D02*
X27554D01*
X26176Y274479D01*
X25121Y273424D01*
X24550Y272046D01*
Y270554D01*
X25121Y269176D01*
X26176Y268121D01*
X27554Y267550D01*
X29046D01*
X30424Y268121D01*
X31479Y269176D01*
X32050Y270554D01*
Y272046D01*
X31479Y273424D01*
X30424Y274479D01*
X29046Y275050D01*
D02*
G37*
G36*
X19046D02*
X17554D01*
X16176Y274479D01*
X15121Y273424D01*
X14550Y272046D01*
Y270554D01*
X15121Y269176D01*
X16176Y268121D01*
X17554Y267550D01*
X19046D01*
X20424Y268121D01*
X21479Y269176D01*
X22050Y270554D01*
Y272046D01*
X21479Y273424D01*
X20424Y274479D01*
X19046Y275050D01*
D02*
G37*
G36*
X93070Y270300D02*
X89300D01*
Y266530D01*
X91013Y267239D01*
X92361Y268587D01*
X93070Y270300D01*
D02*
G37*
G36*
X47300D02*
X43530D01*
X44239Y268587D01*
X45587Y267239D01*
X47300Y266530D01*
Y270300D01*
D02*
G37*
G36*
X19046Y265050D02*
X17554D01*
X16176Y264479D01*
X15121Y263424D01*
X14550Y262046D01*
Y260554D01*
X15121Y259176D01*
X16176Y258121D01*
X17554Y257550D01*
X19046D01*
X20424Y258121D01*
X21479Y259176D01*
X22050Y260554D01*
Y262046D01*
X21479Y263424D01*
X20424Y264479D01*
X19046Y265050D01*
D02*
G37*
G36*
X33284Y220394D02*
X31723Y220084D01*
X30400Y219200D01*
X29555Y217934D01*
X29502Y217873D01*
X27904Y217463D01*
X26168Y219200D01*
X24845Y220084D01*
X23284Y220394D01*
X21723Y220084D01*
X20400Y219200D01*
X19516Y217877D01*
X19205Y216316D01*
X19020Y216090D01*
X17347D01*
X15587Y215361D01*
X14239Y214013D01*
X13529Y212300D01*
X18300D01*
Y210300D01*
X13467D01*
X12393Y209123D01*
X12017Y208967D01*
X11787Y208736D01*
X9898Y208863D01*
X9884Y208884D01*
X8561Y209768D01*
X7000Y210078D01*
X5439Y209768D01*
X4116Y208884D01*
X3232Y207561D01*
X2922Y206000D01*
Y200343D01*
X2922Y200343D01*
X3232Y198782D01*
X4116Y197459D01*
X6459Y195116D01*
X6459Y195116D01*
X7782Y194232D01*
X9343Y193922D01*
X13703D01*
X14706Y192422D01*
X14550Y192046D01*
Y190554D01*
X15121Y189176D01*
X16176Y188121D01*
X17554Y187550D01*
X19046D01*
X20424Y188121D01*
X21479Y189176D01*
X22050Y190554D01*
Y191170D01*
X23351Y192459D01*
X24311Y192404D01*
X24550Y192046D01*
Y190554D01*
X25121Y189176D01*
X26176Y188121D01*
X27554Y187550D01*
X29046D01*
X30424Y188121D01*
X31479Y189176D01*
X32050Y190554D01*
Y192046D01*
X32881Y193289D01*
X33450D01*
X34660Y193530D01*
X35685Y194215D01*
X39020Y197550D01*
X39046D01*
X40424Y198121D01*
X41479Y199176D01*
X42050Y200554D01*
Y201882D01*
X42159Y202159D01*
X43185Y203225D01*
X43615Y203160D01*
X44550Y202046D01*
Y200554D01*
X45121Y199176D01*
X46176Y198121D01*
X47554Y197550D01*
X47917D01*
X48903Y196564D01*
Y196549D01*
X49436Y195263D01*
X50420Y194278D01*
X51707Y193745D01*
X53099D01*
X54385Y194278D01*
X55370Y195263D01*
X55903Y196549D01*
Y196610D01*
X57403Y197613D01*
X57554Y197550D01*
X59046D01*
X60424Y198121D01*
X61479Y199176D01*
X62050Y200554D01*
Y200814D01*
X63128Y201882D01*
X64550Y200900D01*
Y200554D01*
X65121Y199176D01*
X66176Y198121D01*
X67554Y197550D01*
X69046D01*
X70424Y198121D01*
X71479Y199176D01*
X72050Y200554D01*
Y200814D01*
X73128Y201882D01*
X74550Y200900D01*
Y200554D01*
X75121Y199176D01*
X76176Y198121D01*
X76468Y198000D01*
X76329Y196730D01*
X76237Y196472D01*
X75017Y195967D01*
X74033Y194983D01*
X73500Y193696D01*
Y192304D01*
X74033Y191017D01*
X75017Y190033D01*
X76304Y189500D01*
X77696D01*
X78983Y190033D01*
X79967Y191017D01*
X80500Y192304D01*
Y193696D01*
X79967Y194983D01*
X78983Y195967D01*
X78783Y196050D01*
X79035Y197485D01*
X79063Y197557D01*
X80424Y198121D01*
X81479Y199176D01*
X82050Y200554D01*
Y202046D01*
X81479Y203424D01*
X80424Y204479D01*
X79046Y205050D01*
X77554D01*
X76365Y205937D01*
X76289Y206450D01*
X77531Y207530D01*
X77639Y207550D01*
X79046D01*
X80424Y208121D01*
X81479Y209176D01*
X82050Y210554D01*
Y212046D01*
X81479Y213424D01*
X80424Y214479D01*
X79046Y215050D01*
X77554D01*
X76176Y214479D01*
X75121Y213424D01*
X74550Y212046D01*
Y210718D01*
X74441Y210441D01*
X73415Y209374D01*
X72985Y209440D01*
X72050Y210554D01*
Y212046D01*
X71479Y213424D01*
X70424Y214479D01*
X69046Y215050D01*
X68716D01*
X67685Y216081D01*
X67164Y217337D01*
X66180Y218322D01*
X64893Y218855D01*
X63501D01*
X62215Y218322D01*
X61230Y217337D01*
X60697Y216051D01*
Y215990D01*
X59197Y214987D01*
X59046Y215050D01*
X57554D01*
X56176Y214479D01*
X55121Y213424D01*
X54550Y212046D01*
Y211786D01*
X53472Y210718D01*
X52050Y211700D01*
Y212046D01*
X51479Y213424D01*
X50424Y214479D01*
X49046Y215050D01*
X47554D01*
X46176Y214479D01*
X45121Y213424D01*
X44550Y212046D01*
X43604Y211348D01*
X42231Y212039D01*
X42068Y212861D01*
X41184Y214184D01*
X36168Y219200D01*
X34845Y220084D01*
X33284Y220394D01*
D02*
G37*
G36*
X89046Y215050D02*
X87554D01*
X86176Y214479D01*
X85121Y213424D01*
X84550Y212046D01*
Y210554D01*
X85121Y209176D01*
X86176Y208121D01*
X87554Y207550D01*
X89046D01*
X90424Y208121D01*
X91479Y209176D01*
X92050Y210554D01*
Y212046D01*
X91479Y213424D01*
X90424Y214479D01*
X89046Y215050D01*
D02*
G37*
G36*
Y205050D02*
X87554D01*
X86176Y204479D01*
X85121Y203424D01*
X84550Y202046D01*
Y200554D01*
X85121Y199176D01*
X86176Y198121D01*
X87554Y197550D01*
X89046D01*
X90424Y198121D01*
X91479Y199176D01*
X92050Y200554D01*
Y202046D01*
X91479Y203424D01*
X90424Y204479D01*
X89046Y205050D01*
D02*
G37*
G36*
X47300Y186070D02*
X45587Y185361D01*
X44239Y184013D01*
X43530Y182300D01*
X47300D01*
Y186070D01*
D02*
G37*
G36*
X29046Y185050D02*
X27554D01*
X26176Y184479D01*
X25121Y183424D01*
X24550Y182046D01*
Y180554D01*
X25121Y179176D01*
X26176Y178121D01*
X27554Y177550D01*
X29046D01*
X30424Y178121D01*
X31479Y179176D01*
X32050Y180554D01*
Y182046D01*
X31479Y183424D01*
X30424Y184479D01*
X29046Y185050D01*
D02*
G37*
G36*
X19046D02*
X17554D01*
X16176Y184479D01*
X15121Y183424D01*
X14550Y182046D01*
Y180554D01*
X15121Y179176D01*
X16176Y178121D01*
X17554Y177550D01*
X19046D01*
X20424Y178121D01*
X21479Y179176D01*
X22050Y180554D01*
Y182046D01*
X21479Y183424D01*
X20424Y184479D01*
X19046Y185050D01*
D02*
G37*
G36*
X29046Y175050D02*
X27554D01*
X26176Y174479D01*
X25121Y173424D01*
X24550Y172046D01*
Y170554D01*
X25121Y169176D01*
X26176Y168121D01*
X27554Y167550D01*
X29046D01*
X30424Y168121D01*
X31479Y169176D01*
X32050Y170554D01*
Y172046D01*
X31479Y173424D01*
X30424Y174479D01*
X29046Y175050D01*
D02*
G37*
G36*
X19046D02*
X17554D01*
X16176Y174479D01*
X15121Y173424D01*
X14550Y172046D01*
Y170554D01*
X15121Y169176D01*
X16176Y168121D01*
X17554Y167550D01*
X19046D01*
X20424Y168121D01*
X21479Y169176D01*
X22050Y170554D01*
Y172046D01*
X21479Y173424D01*
X20424Y174479D01*
X19046Y175050D01*
D02*
G37*
G36*
X29046Y165050D02*
X27554D01*
X26176Y164479D01*
X25121Y163424D01*
X24550Y162046D01*
Y160554D01*
X25121Y159176D01*
X26176Y158121D01*
X27554Y157550D01*
X29046D01*
X30424Y158121D01*
X31479Y159176D01*
X32050Y160554D01*
Y162046D01*
X31479Y163424D01*
X30424Y164479D01*
X29046Y165050D01*
D02*
G37*
G36*
X19046D02*
X17554D01*
X16176Y164479D01*
X15121Y163424D01*
X14550Y162046D01*
Y160554D01*
X15121Y159176D01*
X16176Y158121D01*
X17554Y157550D01*
X19046D01*
X20424Y158121D01*
X21479Y159176D01*
X22050Y160554D01*
Y162046D01*
X21479Y163424D01*
X20424Y164479D01*
X19046Y165050D01*
D02*
G37*
G36*
X93070Y160300D02*
X89300D01*
Y156530D01*
X91013Y157239D01*
X92361Y158587D01*
X93070Y160300D01*
D02*
G37*
G36*
X47300D02*
X43530D01*
X44239Y158587D01*
X45587Y157239D01*
X47300Y156530D01*
Y160300D01*
D02*
G37*
G36*
X73696Y155500D02*
X72304D01*
X71017Y154967D01*
X70033Y153983D01*
X69500Y152696D01*
Y151304D01*
X70033Y150017D01*
X71017Y149033D01*
X72304Y148500D01*
X73696D01*
X74983Y149033D01*
X75967Y150017D01*
X76500Y151304D01*
Y152696D01*
X75967Y153983D01*
X74983Y154967D01*
X73696Y155500D01*
D02*
G37*
G36*
X29046Y155050D02*
X27554D01*
X26176Y154479D01*
X25121Y153424D01*
X24550Y152046D01*
Y150554D01*
X25121Y149176D01*
X26176Y148121D01*
X27554Y147550D01*
X29046D01*
X30424Y148121D01*
X31479Y149176D01*
X32050Y150554D01*
Y152046D01*
X31479Y153424D01*
X30424Y154479D01*
X29046Y155050D01*
D02*
G37*
G36*
X19046D02*
X17554D01*
X16176Y154479D01*
X15121Y153424D01*
X14550Y152046D01*
Y150554D01*
X15121Y149176D01*
X16176Y148121D01*
X17554Y147550D01*
X19046D01*
X20424Y148121D01*
X21479Y149176D01*
X22050Y150554D01*
Y152046D01*
X21479Y153424D01*
X20424Y154479D01*
X19046Y155050D01*
D02*
G37*
G36*
X84696Y154500D02*
X83304D01*
X82017Y153967D01*
X81033Y152983D01*
X80500Y151696D01*
Y150304D01*
X81033Y149017D01*
X82017Y148033D01*
X83304Y147500D01*
X84696D01*
X85983Y148033D01*
X86967Y149017D01*
X87500Y150304D01*
Y151696D01*
X86967Y152983D01*
X85983Y153967D01*
X84696Y154500D01*
D02*
G37*
G36*
X89046Y95050D02*
X87554D01*
X86176Y94479D01*
X85121Y93424D01*
X84550Y92046D01*
Y90554D01*
X85121Y89176D01*
X86176Y88121D01*
X87554Y87550D01*
X89046D01*
X90424Y88121D01*
X91479Y89176D01*
X92050Y90554D01*
Y92046D01*
X91479Y93424D01*
X90424Y94479D01*
X89046Y95050D01*
D02*
G37*
G36*
X29046Y85050D02*
X27554D01*
X26176Y84479D01*
X25121Y83424D01*
X24550Y82046D01*
Y80554D01*
X25121Y79176D01*
X26176Y78121D01*
X27554Y77550D01*
X29046D01*
X30424Y78121D01*
X31479Y79176D01*
X32050Y80554D01*
Y82046D01*
X31479Y83424D01*
X30424Y84479D01*
X29046Y85050D01*
D02*
G37*
G36*
X19046D02*
X17554D01*
X16176Y84479D01*
X15121Y83424D01*
X14550Y82046D01*
Y80554D01*
X15121Y79176D01*
X16176Y78121D01*
X17554Y77550D01*
X19046D01*
X20424Y78121D01*
X21479Y79176D01*
X22050Y80554D01*
Y82046D01*
X21479Y83424D01*
X20424Y84479D01*
X19046Y85050D01*
D02*
G37*
G36*
X89300Y76070D02*
Y72300D01*
X93070D01*
X92361Y74013D01*
X91013Y75361D01*
X89300Y76070D01*
D02*
G37*
G36*
X47300Y76070D02*
X45587Y75361D01*
X44239Y74013D01*
X43530Y72300D01*
X47300D01*
Y76070D01*
D02*
G37*
G36*
X69300D02*
Y71300D01*
X67300D01*
Y76070D01*
X65587Y75361D01*
X64239Y74013D01*
X64112Y73706D01*
X62488D01*
X62361Y74013D01*
X61013Y75361D01*
X59300Y76070D01*
Y71300D01*
X57300D01*
Y76070D01*
X55587Y75361D01*
X54239Y74013D01*
X54112Y73706D01*
X52488D01*
X52361Y74013D01*
X51013Y75361D01*
X49300Y76070D01*
Y71300D01*
X48300D01*
Y70300D01*
X43530D01*
X44239Y68587D01*
X45587Y67239D01*
X45894Y67112D01*
Y65488D01*
X45587Y65361D01*
X44239Y64013D01*
X43530Y62300D01*
X48300D01*
Y60300D01*
X43530D01*
X44239Y58587D01*
X45587Y57239D01*
X45894Y57112D01*
Y55488D01*
X45587Y55361D01*
X44239Y54013D01*
X43530Y52300D01*
X48300D01*
Y51300D01*
X49300D01*
Y46530D01*
X51013Y47239D01*
X52361Y48587D01*
X52488Y48894D01*
X54112D01*
X54239Y48587D01*
X55587Y47239D01*
X57300Y46530D01*
Y51300D01*
X59300D01*
Y46530D01*
X61013Y47239D01*
X62361Y48587D01*
X62488Y48894D01*
X64112D01*
X64239Y48587D01*
X65587Y47239D01*
X67300Y46530D01*
Y51300D01*
X69300D01*
Y46529D01*
X71013Y47239D01*
X72361Y48587D01*
X72488Y48894D01*
X74112D01*
X74239Y48587D01*
X75587Y47239D01*
X77300Y46530D01*
Y51300D01*
X79300D01*
Y46530D01*
X81013Y47239D01*
X82361Y48587D01*
X82488Y48894D01*
X84112D01*
X84239Y48587D01*
X85587Y47239D01*
X87300Y46529D01*
Y51300D01*
X88300D01*
Y52300D01*
X93070D01*
X92361Y54013D01*
X91013Y55361D01*
X90706Y55488D01*
Y57112D01*
X91013Y57239D01*
X92361Y58587D01*
X93070Y60300D01*
X88300D01*
Y62300D01*
X93070D01*
X92361Y64013D01*
X91013Y65361D01*
X90706Y65488D01*
Y67112D01*
X91013Y67239D01*
X92361Y68587D01*
X93070Y70300D01*
X88300D01*
Y71300D01*
X87300D01*
Y76070D01*
X85587Y75361D01*
X84239Y74013D01*
X84112Y73706D01*
X82488D01*
X82361Y74013D01*
X81013Y75361D01*
X79300Y76070D01*
Y71300D01*
X77300D01*
Y76070D01*
X75587Y75361D01*
X74239Y74013D01*
X74112Y73706D01*
X72488D01*
X72361Y74013D01*
X71013Y75361D01*
X69300Y76070D01*
D02*
G37*
G36*
X29046Y75050D02*
X27554D01*
X26176Y74479D01*
X25121Y73424D01*
X24550Y72046D01*
Y70554D01*
X25121Y69176D01*
X26176Y68121D01*
X27554Y67550D01*
X29046D01*
X30424Y68121D01*
X31479Y69176D01*
X32050Y70554D01*
Y72046D01*
X31479Y73424D01*
X30424Y74479D01*
X29046Y75050D01*
D02*
G37*
G36*
X19046D02*
X17554D01*
X16176Y74479D01*
X15121Y73424D01*
X14550Y72046D01*
Y70554D01*
X15121Y69176D01*
X16176Y68121D01*
X17554Y67550D01*
X19046D01*
X20424Y68121D01*
X21479Y69176D01*
X22050Y70554D01*
Y72046D01*
X21479Y73424D01*
X20424Y74479D01*
X19046Y75050D01*
D02*
G37*
G36*
X119046Y65050D02*
X117554D01*
X116176Y64479D01*
X115121Y63424D01*
X114550Y62046D01*
Y60554D01*
X115121Y59176D01*
X116176Y58121D01*
X117554Y57550D01*
X119046D01*
X120424Y58121D01*
X121479Y59176D01*
X122050Y60554D01*
Y62046D01*
X121479Y63424D01*
X120424Y64479D01*
X119046Y65050D01*
D02*
G37*
G36*
X29046D02*
X27554D01*
X26176Y64479D01*
X25121Y63424D01*
X24550Y62046D01*
Y60554D01*
X25121Y59176D01*
X26176Y58121D01*
X27554Y57550D01*
X29046D01*
X30424Y58121D01*
X31479Y59176D01*
X32050Y60554D01*
Y62046D01*
X31479Y63424D01*
X30424Y64479D01*
X29046Y65050D01*
D02*
G37*
G36*
X19046D02*
X17554D01*
X16176Y64479D01*
X15121Y63424D01*
X14550Y62046D01*
Y60554D01*
X15121Y59176D01*
X16176Y58121D01*
X17554Y57550D01*
X19046D01*
X20424Y58121D01*
X21479Y59176D01*
X22050Y60554D01*
Y62046D01*
X21479Y63424D01*
X20424Y64479D01*
X19046Y65050D01*
D02*
G37*
G36*
X29046Y55050D02*
X27554D01*
X26176Y54479D01*
X25121Y53424D01*
X24550Y52046D01*
Y50554D01*
X25121Y49176D01*
X26176Y48121D01*
X27554Y47550D01*
X29046D01*
X30424Y48121D01*
X31479Y49176D01*
X32050Y50554D01*
Y52046D01*
X31479Y53424D01*
X30424Y54479D01*
X29046Y55050D01*
D02*
G37*
G36*
X19046D02*
X17554D01*
X16176Y54479D01*
X15121Y53424D01*
X14550Y52046D01*
Y50554D01*
X15121Y49176D01*
X16176Y48121D01*
X17554Y47550D01*
X19046D01*
X20424Y48121D01*
X21479Y49176D01*
X22050Y50554D01*
Y52046D01*
X21479Y53424D01*
X20424Y54479D01*
X19046Y55050D01*
D02*
G37*
G36*
X93070Y50300D02*
X89300D01*
Y46530D01*
X91013Y47239D01*
X92361Y48587D01*
X93070Y50300D01*
D02*
G37*
G36*
X47300D02*
X43530D01*
X44239Y48587D01*
X45587Y47239D01*
X47300Y46529D01*
Y50300D01*
D02*
G37*
G36*
X9696Y54500D02*
X8304D01*
X7017Y53967D01*
X6033Y52983D01*
X5500Y51696D01*
Y50304D01*
X4399Y50000D01*
X4304D01*
X3017Y49467D01*
X2033Y48483D01*
X1500Y47196D01*
Y45804D01*
X2033Y44517D01*
X3017Y43533D01*
X4304Y43000D01*
X5696D01*
X6983Y43533D01*
X7967Y44517D01*
X8500Y45804D01*
Y47196D01*
X9601Y47500D01*
X9696D01*
X10983Y48033D01*
X11967Y49017D01*
X12500Y50304D01*
Y51696D01*
X11967Y52983D01*
X10983Y53967D01*
X9696Y54500D01*
D02*
G37*
G36*
X38696Y48500D02*
X37304D01*
X36017Y47967D01*
X35033Y46983D01*
X34500Y45696D01*
Y44304D01*
X35033Y43017D01*
X36017Y42033D01*
X37304Y41500D01*
X38696D01*
X39983Y42033D01*
X40967Y43017D01*
X41500Y44304D01*
Y45696D01*
X40967Y46983D01*
X39983Y47967D01*
X38696Y48500D01*
D02*
G37*
G36*
X29046Y45050D02*
X27554D01*
X26176Y44479D01*
X25121Y43424D01*
X24550Y42046D01*
Y40554D01*
X25121Y39176D01*
X26176Y38121D01*
X27554Y37550D01*
X29046D01*
X30424Y38121D01*
X31479Y39176D01*
X32050Y40554D01*
Y42046D01*
X31479Y43424D01*
X30424Y44479D01*
X29046Y45050D01*
D02*
G37*
G36*
X19046D02*
X17554D01*
X16176Y44479D01*
X15121Y43424D01*
X14550Y42046D01*
Y40554D01*
X15121Y39176D01*
X16176Y38121D01*
X17554Y37550D01*
X19046D01*
X20424Y38121D01*
X21479Y39176D01*
X22050Y40554D01*
Y42046D01*
X21479Y43424D01*
X20424Y44479D01*
X19046Y45050D01*
D02*
G37*
G36*
X53696Y44500D02*
X52304D01*
X51017Y43967D01*
X50033Y42983D01*
X49500Y41696D01*
Y40304D01*
X50033Y39017D01*
X51017Y38033D01*
X52304Y37500D01*
X53696D01*
X54983Y38033D01*
X55967Y39017D01*
X56500Y40304D01*
Y41696D01*
X55967Y42983D01*
X54983Y43967D01*
X53696Y44500D01*
D02*
G37*
G36*
X181696Y422500D02*
X180304D01*
X179017Y421967D01*
X178033Y420983D01*
X177500Y419696D01*
Y418304D01*
X178033Y417017D01*
X179017Y416033D01*
X180304Y415500D01*
X181696D01*
X182983Y416033D01*
X183967Y417017D01*
X184500Y418304D01*
Y419696D01*
X183967Y420983D01*
X182983Y421967D01*
X181696Y422500D01*
D02*
G37*
G36*
X140696D02*
X139304D01*
X138017Y421967D01*
X137033Y420983D01*
X136500Y419696D01*
Y418304D01*
X137033Y417017D01*
X138017Y416033D01*
X139304Y415500D01*
X140696D01*
X141983Y416033D01*
X142967Y417017D01*
X143500Y418304D01*
Y419696D01*
X142967Y420983D01*
X141983Y421967D01*
X140696Y422500D01*
D02*
G37*
G36*
X123070Y350300D02*
X119300D01*
Y346530D01*
X121013Y347239D01*
X122361Y348587D01*
X123070Y350300D01*
D02*
G37*
G36*
X217118Y71500D02*
X212882D01*
X208729Y70674D01*
X204816Y69053D01*
X201295Y66700D01*
X198300Y63705D01*
X195947Y60184D01*
X194326Y56271D01*
X193500Y52118D01*
Y47882D01*
X194326Y43729D01*
X195947Y39816D01*
X198300Y36295D01*
X201295Y33300D01*
X204816Y30947D01*
X208729Y29326D01*
X212882Y28500D01*
X217118D01*
X221271Y29326D01*
X225184Y30947D01*
X228705Y33300D01*
X231700Y36295D01*
X234053Y39816D01*
X235674Y43729D01*
X236500Y47882D01*
Y52118D01*
X235674Y56271D01*
X234053Y60184D01*
X231700Y63705D01*
X228705Y66700D01*
X225184Y69053D01*
X221271Y70674D01*
X217118Y71500D01*
D02*
G37*
G36*
X157696Y23500D02*
X156304D01*
X155017Y22967D01*
X154980Y22930D01*
X154000Y22013D01*
X153020Y22930D01*
X152983Y22967D01*
X151696Y23500D01*
X150304D01*
X149017Y22967D01*
X148033Y21983D01*
X147500Y20696D01*
Y19304D01*
X148033Y18017D01*
X149017Y17033D01*
X150304Y16500D01*
X151696D01*
X152983Y17033D01*
X153020Y17070D01*
X154000Y17987D01*
X154980Y17070D01*
X155017Y17033D01*
X156304Y16500D01*
X157696D01*
X158983Y17033D01*
X159967Y18017D01*
X160500Y19304D01*
Y20696D01*
X159967Y21983D01*
X158983Y22967D01*
X157696Y23500D01*
D02*
G37*
G36*
X123070Y20300D02*
X119300D01*
Y16530D01*
X121013Y17239D01*
X122361Y18587D01*
X123070Y20300D01*
D02*
G37*
G36*
X195696Y12500D02*
X194304D01*
X193017Y11967D01*
X192033Y10983D01*
X191500Y9696D01*
Y8304D01*
X192033Y7017D01*
X193017Y6033D01*
X194304Y5500D01*
X195696D01*
X196983Y6033D01*
X197967Y7017D01*
X198500Y8304D01*
Y9696D01*
X197967Y10983D01*
X196983Y11967D01*
X195696Y12500D01*
D02*
G37*
G36*
X209696Y223000D02*
X208304D01*
X207017Y222467D01*
X206033Y221483D01*
X205500Y220196D01*
Y218804D01*
X206033Y217517D01*
X207017Y216533D01*
X208304Y216000D01*
X209500Y215196D01*
Y213804D01*
X210033Y212517D01*
X211017Y211533D01*
X212304Y211000D01*
X213696D01*
X214983Y211533D01*
X215967Y212517D01*
X216500Y213804D01*
Y215196D01*
X215967Y216483D01*
X214983Y217467D01*
X213696Y218000D01*
X212500Y218804D01*
Y220196D01*
X211967Y221483D01*
X210983Y222467D01*
X209696Y223000D01*
D02*
G37*
G36*
X214696Y188000D02*
X213304D01*
X212017Y187467D01*
X211033Y186483D01*
X210500Y185196D01*
Y183804D01*
X211033Y182517D01*
X212017Y181533D01*
X213304Y181000D01*
X214696D01*
X215983Y181533D01*
X216967Y182517D01*
X217500Y183804D01*
Y185196D01*
X216967Y186483D01*
X215983Y187467D01*
X214696Y188000D01*
D02*
G37*
G36*
X213696Y175000D02*
X212304D01*
X211017Y174467D01*
X210033Y173483D01*
X209500Y172196D01*
Y170804D01*
X210033Y169517D01*
X211017Y168533D01*
X212304Y168000D01*
X213696D01*
X214983Y168533D01*
X215967Y169517D01*
X216500Y170804D01*
Y172196D01*
X215967Y173483D01*
X214983Y174467D01*
X213696Y175000D01*
D02*
G37*
G36*
X140696Y149250D02*
X139304D01*
X138017Y148717D01*
X137033Y147733D01*
X136500Y146446D01*
Y145054D01*
X137033Y143767D01*
X138017Y142783D01*
X139304Y142250D01*
X140696D01*
X141983Y142783D01*
X142967Y143767D01*
X143500Y145054D01*
Y146446D01*
X142967Y147733D01*
X141983Y148717D01*
X140696Y149250D01*
D02*
G37*
G36*
X119300Y96070D02*
Y92300D01*
X123070D01*
X122361Y94013D01*
X121013Y95361D01*
X119300Y96070D01*
D02*
G37*
G36*
X137321Y91750D02*
X135929D01*
X134642Y91217D01*
X133658Y90233D01*
X133125Y88946D01*
Y87554D01*
X133658Y86267D01*
X134642Y85283D01*
X135929Y84750D01*
X137321D01*
X138608Y85283D01*
X139592Y86267D01*
X140125Y87554D01*
Y88946D01*
X139592Y90233D01*
X138608Y91217D01*
X137321Y91750D01*
D02*
G37*
%LPD*%
D11*
X113990Y221000D02*
X114240Y221250D01*
X117760D02*
X118010Y221000D01*
X114240Y221250D02*
X117760D01*
X118010Y221000D02*
X154562D01*
X187040Y253478D01*
X83718Y224282D02*
X83728D01*
X82550Y225450D02*
X83718Y224282D01*
X72680Y225450D02*
X82550D01*
X83728Y224282D02*
X87010Y221000D01*
X113990D01*
X136202Y370788D02*
X154040Y352950D01*
X178960D01*
X196000Y369990D01*
X6750Y240250D02*
X21500Y225500D01*
X6750Y240250D02*
Y268792D01*
X21500Y225500D02*
X39490D01*
X248750Y294240D02*
X252990Y290000D01*
X248000Y295000D02*
X248750Y294250D01*
Y294240D02*
Y294250D01*
X252990Y290000D02*
X253000D01*
X249252Y146252D02*
Y259495D01*
X39490Y225500D02*
X43240Y229250D01*
X64510Y225500D02*
X72630D01*
X43240Y229250D02*
X60760D01*
X64510Y225500D01*
X72630D02*
X72680Y225450D01*
X161250Y113240D02*
Y113371D01*
X158760Y110750D02*
X161250Y113240D01*
X158629Y110750D02*
X158760D01*
X153879Y106000D02*
X158629Y110750D01*
X161250Y113371D02*
X168879Y121000D01*
X6750Y268792D02*
X9250Y271292D01*
Y289750D01*
X216757Y412000D02*
X247850Y380907D01*
X203500Y412000D02*
X216757D01*
X247850Y373493D02*
Y380907D01*
X258250Y338000D02*
Y363093D01*
X247850Y373493D02*
X258250Y363093D01*
X80000Y106000D02*
X153879D01*
X224000Y121000D02*
X249252Y146252D01*
X168879Y121000D02*
X224000D01*
X253000Y277535D02*
Y282000D01*
X247000Y271535D02*
X253000Y277535D01*
X247000Y261747D02*
Y271535D01*
X248000Y295000D02*
Y327750D01*
X254000Y326000D02*
X254374Y325626D01*
X256636D01*
X166000Y38000D02*
X257515Y129515D01*
X256636Y325626D02*
X257515Y324747D01*
Y129515D02*
Y324747D01*
X248000Y327750D02*
X258250Y338000D01*
X192238Y253478D02*
X215000Y276240D01*
X185500Y430000D02*
X203500Y412000D01*
X170000Y430000D02*
X185500D01*
X177000Y192703D02*
Y207000D01*
X159298Y175000D02*
X177000Y192703D01*
X247000Y261747D02*
X249252Y259495D01*
X207740Y234240D02*
X223000Y249500D01*
X196240Y234240D02*
X207740D01*
X223000Y249500D02*
Y377010D01*
X214760Y385250D02*
X223000Y377010D01*
X130790Y186800D02*
X136990Y193000D01*
X155000D02*
X196240Y234240D01*
X136990Y193000D02*
X155000D01*
X211240Y385250D02*
X214760D01*
X196000Y369990D02*
Y370010D01*
X89468Y415478D02*
X90240Y416250D01*
X101250Y401986D02*
X107436Y395800D01*
X101250Y401986D02*
Y409760D01*
X94760Y416250D02*
X101250Y409760D01*
X196000Y370010D02*
X211240Y385250D01*
X87000Y415000D02*
X87478Y415478D01*
X124600Y175000D02*
X159298D01*
X188800Y242800D02*
Y249228D01*
X166000Y220000D02*
X188800Y242800D01*
X166000Y214000D02*
Y220000D01*
X156000Y204000D02*
X166000Y214000D01*
X90240Y416250D02*
X94760D01*
X91200Y186800D02*
X130790D01*
X87478Y415478D02*
X89468D01*
X120164Y395800D02*
X136202Y379762D01*
X87000Y191000D02*
X91200Y186800D01*
X118300Y181300D02*
X124600Y175000D01*
X148624Y291300D02*
X150323Y293000D01*
X118300Y291300D02*
X148624D01*
X150323Y293000D02*
X151000D01*
X63000Y14826D02*
Y26000D01*
Y14826D02*
X65971Y11854D01*
X40324Y444000D02*
X156000D01*
X170000Y430000D01*
X36000Y448324D02*
X40324Y444000D01*
X36000Y448324D02*
Y449000D01*
X215000Y276240D02*
Y295000D01*
X187040Y253478D02*
X192238D01*
X9000Y290000D02*
X9250Y289750D01*
X78000Y108000D02*
X80000Y106000D01*
X56000Y108000D02*
X78000D01*
X47500Y116500D02*
X56000Y108000D01*
X14500Y116500D02*
X47500D01*
X5750Y125250D02*
X14500Y116500D01*
X5750Y125250D02*
Y149750D01*
X9000Y153000D01*
X107436Y395800D02*
X120164D01*
X136202Y370788D02*
Y379762D01*
X71522Y16478D02*
X72000Y16000D01*
X71522Y16478D02*
Y18078D01*
X68300Y21300D02*
X71522Y18078D01*
X63000Y26000D02*
X68300Y31300D01*
D46*
X63650Y123350D02*
X70000Y117000D01*
X63650Y136650D02*
X68300Y141300D01*
X63650Y123350D02*
Y136650D01*
X68300Y101300D02*
X73316Y96284D01*
X58300Y101300D02*
X63316Y96284D01*
X48300Y101300D02*
X53316Y96284D01*
X68300Y91300D02*
X73316Y86284D01*
X58300Y91300D02*
X63316Y86284D01*
X48300Y91300D02*
X53316Y86284D01*
X73000Y126000D02*
Y126300D01*
X68300Y131000D02*
X73000Y126300D01*
X68300Y131000D02*
Y131300D01*
X70000Y117000D02*
X72000D01*
X44246Y207197D02*
Y207229D01*
X48300Y211284D01*
X48348Y201300D02*
X52403Y197246D01*
X72354Y205371D02*
Y205403D01*
X68300Y201316D02*
X72354Y205371D01*
X64197Y215354D02*
X64229D01*
X68284Y211300D01*
X62354Y205371D02*
Y205403D01*
X58300Y201316D02*
X62354Y205371D01*
X54246Y207197D02*
Y207229D01*
X58300Y211284D01*
X44246Y427197D02*
Y427229D01*
X48300Y431284D01*
X68300Y311300D02*
X73316Y306284D01*
X58300Y311300D02*
X63316Y306284D01*
X48300Y311300D02*
X53316Y306284D01*
X68300Y321300D02*
X73316Y316284D01*
X58300Y321300D02*
X63316Y316284D01*
X48300Y321300D02*
X53316Y316284D01*
X48348Y421300D02*
X52403Y417245D01*
X64229Y435354D02*
X68284Y431300D01*
X62354Y425371D02*
Y425403D01*
X58300Y421316D02*
X62354Y425371D01*
X54246Y427197D02*
Y427229D01*
X58300Y431284D01*
X72354Y425371D02*
Y425403D01*
X68300Y421316D02*
X72354Y425371D01*
X64197Y435354D02*
X64229D01*
D48*
X171900Y56900D02*
X196500Y81500D01*
X217000Y403000D02*
X242184Y377816D01*
X236000Y247000D02*
X242184Y253184D01*
Y377816D01*
X89018Y225982D02*
X153409D01*
X201150Y273723D01*
Y288362D01*
X85700Y229300D02*
X89018Y225982D01*
X76222Y234000D02*
X94000D01*
X96100Y231900D01*
X152112D01*
X195000Y274788D01*
X74275Y229300D02*
X85700D01*
X175000Y334000D02*
X212000Y371000D01*
X63550Y343936D02*
X73486Y334000D01*
X175000D01*
X195000Y291000D02*
X211350Y307350D01*
X195000Y274788D02*
Y291000D01*
X211350Y307350D02*
Y338824D01*
X218000Y305212D02*
Y356783D01*
X214000Y360784D02*
X218000Y356783D01*
X201150Y288362D02*
X218000Y305212D01*
X152887Y349100D02*
X181100D01*
X144972Y341184D02*
X152887Y349100D01*
X181100D02*
X213000Y381000D01*
X77316Y341184D02*
X144972D01*
X229000Y215000D02*
Y384353D01*
X194985Y391474D02*
X221879D01*
X224000Y210000D02*
X229000Y215000D01*
X216800Y135800D02*
X224000Y143000D01*
Y210000D01*
X236000Y195000D02*
Y247000D01*
X221879Y391474D02*
X229000Y384353D01*
X154888Y120100D02*
X157100D01*
X151900Y117113D02*
X154888Y120100D01*
X157100D02*
X163000Y126000D01*
X151900Y114900D02*
Y117113D01*
X149000Y112000D02*
X151900Y114900D01*
X204412Y128200D02*
X211059D01*
X197900Y133500D02*
X198500Y132900D01*
X213959Y131100D02*
X218747D01*
X231000Y143353D01*
X198500Y132900D02*
X209112D01*
X211059Y128200D02*
X213959Y131100D01*
X212012Y135800D02*
X216800D01*
X209112Y132900D02*
X212012Y135800D01*
X158500Y133500D02*
X197900D01*
X91396Y11184D02*
X172000D01*
X90112Y9900D02*
X91396Y11184D01*
X85887Y9900D02*
X90112D01*
X73609Y4000D02*
X182500D01*
X73100Y4509D02*
Y7113D01*
X66188Y11854D02*
X67942Y10100D01*
X65971Y11854D02*
X66188D01*
X70113Y10100D02*
X73100Y7113D01*
X67942Y10100D02*
X70113D01*
X73100Y4509D02*
X73609Y4000D01*
X76816Y11184D02*
X84604D01*
X85887Y9900D01*
X262000Y257000D02*
Y318688D01*
X259900Y366888D02*
Y375920D01*
Y366888D02*
X262100Y364688D01*
X254687Y381133D02*
X259900Y375920D01*
X268000Y364787D02*
X270100Y366888D01*
X268000Y373213D02*
Y379064D01*
X270100Y366888D02*
Y371113D01*
X262100Y318788D02*
Y364688D01*
X268000Y373213D02*
X270100Y371113D01*
X262000Y318688D02*
X262100Y318788D01*
X268000Y251000D02*
Y364787D01*
X231000Y143353D02*
Y190000D01*
X202212Y126000D02*
X204412Y128200D01*
X163000Y126000D02*
X202212D01*
X154345Y56900D02*
X171900D01*
X140090Y59600D02*
X151645D01*
X125000Y55000D02*
X135490D01*
X140090Y59600D01*
X151645D02*
X154345Y56900D01*
X98849Y118000D02*
X143000D01*
X177892Y87675D02*
X184066Y81500D01*
X156000Y78000D02*
X165674Y87675D01*
X184066Y81500D02*
X196500D01*
X165674Y87675D02*
X177892D01*
X126000Y78000D02*
X156000D01*
X160300Y71300D02*
X168000Y79000D01*
X183000Y113000D02*
X196500Y99500D01*
Y81500D02*
Y99500D01*
X254687Y381133D02*
Y392687D01*
X259750Y397750D01*
X208000Y342174D02*
X211350Y338824D01*
X208000Y342174D02*
Y355000D01*
X259787Y387277D02*
X268000Y379064D01*
X262000Y245000D02*
X268000Y251000D01*
X68549Y235026D02*
X74275Y229300D01*
X231000Y190000D02*
X236000Y195000D01*
X68300Y241300D02*
X68549Y241051D01*
X179000Y359000D02*
Y375489D01*
X154000Y359000D02*
X164677D01*
X168677Y363000D01*
Y385677D01*
X179000Y375489D02*
X194985Y391474D01*
X168677Y385677D02*
X186000Y403000D01*
X217000D01*
X118300Y71300D02*
X160300D01*
X72000Y16000D02*
X76816Y11184D01*
X84000Y112000D02*
X149000D01*
X79000Y117000D02*
X84000Y112000D01*
X72000Y117000D02*
X79000D01*
X88875Y118000D02*
X98849D01*
X98849Y118000D01*
X85175Y121700D02*
X88875Y118000D01*
X85000Y121700D02*
X85175D01*
X80750Y125950D02*
X85000Y121700D01*
X143000Y118000D02*
X158500Y133500D01*
X73050Y125950D02*
X80750D01*
X73000Y126000D02*
X73050Y125950D01*
X214000Y360784D02*
Y361000D01*
X68549Y235026D02*
Y241051D01*
X70964Y347536D02*
X77316Y341184D01*
X33284Y256316D02*
X38300Y251300D01*
X48300D01*
X134847Y134153D02*
X135000Y134000D01*
X134847Y134153D02*
Y134753D01*
X118300Y151300D02*
X134847Y134753D01*
X24000Y317000D02*
X24000D01*
X28300Y321300D01*
X7000Y328000D02*
X31600D01*
X38300Y321300D01*
D49*
X108300Y371300D02*
Y371300D01*
X113000Y376000D01*
X78204Y251396D02*
Y253617D01*
X77000Y254822D02*
X78204Y253617D01*
X77000Y254822D02*
Y258000D01*
X78204Y251396D02*
X78300Y251300D01*
X88300Y241300D02*
X98300Y251300D01*
X118300Y241300D02*
X118300D01*
X118435D01*
X122735Y237000D01*
X124000D01*
X113885Y216750D02*
X115750D01*
X116000Y217000D01*
X108435Y211300D02*
X113885Y216750D01*
X51000Y344000D02*
X53284Y346284D01*
X38300Y351300D02*
X45600Y344000D01*
X51000D01*
X18204Y311396D02*
Y314796D01*
Y311396D02*
X18300Y311300D01*
X18000Y315000D02*
X18204Y314796D01*
X68300Y251300D02*
Y251400D01*
X70793Y253893D02*
Y257207D01*
X68300Y251400D02*
X70793Y253893D01*
X65000Y263000D02*
X70793Y257207D01*
X108396Y261087D02*
X111517Y257966D01*
Y254652D02*
Y257966D01*
X108300Y251435D02*
X111517Y254652D01*
X108396Y261087D02*
Y261204D01*
X108300Y251300D02*
Y251435D01*
Y271165D02*
Y271300D01*
Y261435D02*
X111575Y264711D01*
X108300Y271165D02*
X111575Y267889D01*
Y264711D02*
Y267889D01*
X108300Y261300D02*
Y261435D01*
Y251300D02*
X118300Y241300D01*
X104000Y255735D02*
X108300Y251435D01*
X104000Y255735D02*
Y256000D01*
X18435Y241300D02*
X22735Y237000D01*
X18300Y241300D02*
X18435D01*
X22735Y237000D02*
X24000D01*
X18300Y21300D02*
X23000Y26000D01*
X14000Y16000D02*
Y16865D01*
X18300Y21165D02*
Y21300D01*
X14000Y16865D02*
X18300Y21165D01*
X108300Y301300D02*
X118300Y311300D01*
X108300Y301300D02*
X108300D01*
X104000Y297000D02*
X108300Y301300D01*
X78312Y71479D02*
X78396Y71396D01*
X83479Y66121D02*
X88300Y61300D01*
X83300Y66300D02*
X83479Y66121D01*
X78300Y61300D02*
X83300Y66300D01*
X47500Y383722D02*
X50017Y381204D01*
X68300Y181268D02*
X68332Y181300D01*
X66911Y159689D02*
Y161300D01*
X62550Y159689D02*
X66911D01*
X103284Y16284D02*
Y16316D01*
Y16284D02*
X108300Y21300D01*
X98300Y21300D02*
X103284Y16316D01*
X88204Y15204D02*
Y21204D01*
X88300Y21300D01*
X88000Y15000D02*
X88204Y15204D01*
X103000Y26000D02*
X108204Y31204D01*
X98435Y31300D02*
X103000Y26735D01*
X98435Y31300D02*
X98435D01*
X103000Y26000D02*
Y26735D01*
X98300Y31300D02*
X98300D01*
X98984Y40708D02*
X103284Y36408D01*
Y36284D02*
Y36408D01*
Y36284D02*
X108300Y41300D01*
X68204Y51204D02*
X68237D01*
X68372Y51069D01*
Y40470D02*
Y51069D01*
X78204Y45648D02*
Y51204D01*
X78312Y71479D02*
Y76201D01*
X88396Y71396D02*
Y76027D01*
X88492Y76123D01*
X68396Y71396D02*
Y76953D01*
X58300Y71300D02*
X58396Y71396D01*
Y76953D02*
X58418Y76975D01*
X58396Y71396D02*
Y76953D01*
X145652Y135652D02*
Y137899D01*
X144000Y134000D02*
X145652Y135652D01*
Y137899D02*
X149343Y141589D01*
X150561D01*
X152472Y143500D01*
X158000D02*
Y155000D01*
X151700Y161300D02*
X158000Y155000D01*
X118300Y161300D02*
X151700D01*
X158000Y143500D02*
X201500D01*
X152472D02*
X158000D01*
X201500D02*
X207000Y138000D01*
X55000Y125000D02*
X58204Y128204D01*
Y131204D01*
X58300Y131300D01*
X47000Y10000D02*
X53284Y16284D01*
X39568Y10000D02*
X47000D01*
X33284Y16284D02*
X39568Y10000D01*
X40739Y125000D02*
X55000D01*
X38396Y127343D02*
Y131204D01*
Y127343D02*
X40739Y125000D01*
X38300Y131300D02*
X38396Y131204D01*
X108204D02*
X108300Y131300D01*
X105707Y125627D02*
X108204Y128125D01*
Y131204D01*
X98434Y125627D02*
X105707D01*
X23284Y136316D02*
X28300Y131300D01*
X18300Y141300D02*
X23284Y136316D01*
X14865Y198000D02*
X18069Y201204D01*
X9343Y198000D02*
X14865D01*
X7000Y200343D02*
X9343Y198000D01*
X7000Y200343D02*
Y206000D01*
X11000Y215000D02*
X14465D01*
X18165Y211300D01*
X153000Y240000D02*
Y249000D01*
X130700Y271300D02*
X153000Y249000D01*
X118300Y271300D02*
X130700D01*
X118300Y261300D02*
X127700D01*
X144000Y240000D02*
Y245000D01*
X127700Y261300D02*
X144000Y245000D01*
X118300Y251300D02*
X127200D01*
X138500Y240000D01*
X103316Y96316D02*
X108300Y101300D01*
X23284Y106316D02*
X28300Y101300D01*
X22573Y436892D02*
X28165Y431300D01*
X28300D01*
X22319Y436892D02*
X22573D01*
X31770Y437572D02*
X32028D01*
X38300Y431300D01*
X103284Y346284D02*
Y346316D01*
X98300Y351300D02*
X103284Y346316D01*
X98300Y351300D02*
Y351300D01*
Y311300D02*
X103284Y316284D01*
X98300Y21300D02*
Y21300D01*
X88300Y21300D02*
X98300Y31300D01*
X78300D02*
X88300Y21300D01*
X88300D02*
Y21300D01*
X108300Y31300D02*
X108300D01*
X118300Y21300D01*
X13284Y106316D02*
X18300Y101300D01*
X108300Y211300D02*
X108435D01*
X98300Y201300D02*
X108300Y211300D01*
X103284Y346284D02*
X108300Y351300D01*
X33284Y356316D02*
X38300Y351300D01*
X53284Y346284D02*
X58300Y351300D01*
X53284Y356284D02*
X58300Y361300D01*
X71000Y358000D02*
Y358465D01*
X68300Y361165D02*
Y361300D01*
Y361165D02*
X71000Y358465D01*
X103316Y426316D02*
X108300Y431300D01*
X18300Y251300D02*
X23284Y246316D01*
X18300Y251300D02*
X18300D01*
X23316Y356284D02*
X28300Y351300D01*
X28300D01*
X18300Y361300D02*
X23316Y356284D01*
X18300Y421300D02*
X23316Y426316D01*
X98300Y421300D02*
X103316Y426316D01*
X118300Y381300D02*
X123316Y386316D01*
X118300Y371300D02*
X123316Y366284D01*
X103284Y306284D02*
X108300Y311300D01*
X103284Y316284D02*
X108300Y321300D01*
X38300Y311300D02*
X43316Y306284D01*
X103316Y246284D02*
Y246316D01*
Y246284D02*
X108300Y241300D01*
Y241300D02*
Y241300D01*
X98300Y241300D02*
X103316Y246316D01*
X53284Y236284D02*
X58300Y241300D01*
X63284Y246316D02*
X68300Y241300D01*
X83284Y256316D02*
X88300Y251300D01*
X33284Y246316D02*
X38300Y241300D01*
X53284Y246284D02*
X58300Y251300D01*
X23284Y246316D02*
X28300Y241300D01*
X18165Y211300D02*
X18300D01*
X33284Y216316D02*
X38300Y211300D01*
X23284Y216316D02*
X28300Y211300D01*
X98396Y125666D02*
Y131204D01*
X98300Y131300D02*
X98396Y131204D01*
Y125666D02*
X98434Y125627D01*
X38300Y91300D02*
X43316Y86284D01*
X33284Y96284D02*
X38300Y101300D01*
X118300Y51300D02*
X123316Y46284D01*
X118300Y41300D02*
X123316Y36284D01*
X113284Y36316D02*
X118300Y31300D01*
X33284Y26284D02*
X38300Y31300D01*
X53284Y26284D02*
X58300Y31300D01*
X98300Y91300D02*
X103316Y96316D01*
X23284D02*
X28300Y91300D01*
X13284Y96316D02*
X18300Y91300D01*
Y141300D02*
X18300D01*
X53284Y136284D02*
X58300Y141300D01*
X33284Y16284D02*
X38300Y21300D01*
X53284Y16284D02*
X58300Y21300D01*
X13284Y26284D02*
X18300Y31300D01*
X23284Y16284D02*
X28300Y21300D01*
X98300Y141300D02*
X103316Y146316D01*
X113284Y136316D02*
X118300Y131300D01*
X73284Y136284D02*
X78300Y141300D01*
X73284Y176284D02*
X78300Y181300D01*
X83316Y176284D01*
X83284Y166316D02*
X88300Y161300D01*
X78300Y251165D02*
Y251300D01*
X81778Y247822D02*
X88300Y241300D01*
X78300Y251165D02*
X81711Y247754D01*
X78300Y241300D02*
X81711Y244711D01*
Y247754D01*
X68300Y171300D02*
X73284Y166316D01*
X73316D01*
X68300Y171300D02*
X73284Y176284D01*
X73316Y166316D02*
X78300Y161332D01*
Y161300D02*
Y161332D01*
X83284Y166316D01*
X68300Y181268D02*
X73284Y176284D01*
X68300Y181268D02*
Y181300D01*
X83284Y176284D02*
X83316D01*
X78300Y171300D02*
X83284Y176284D01*
X78300Y171300D02*
X83284Y166316D01*
X73316D02*
X78300Y171300D01*
X73284Y176284D02*
X78268Y171300D01*
X83316Y166316D02*
X88300Y171300D01*
X83284Y166316D02*
X83316D01*
X68332Y181300D02*
X78300D01*
X88300D01*
Y161300D02*
Y171300D01*
Y181300D01*
X78300Y161300D02*
X88300D01*
X58300Y171300D02*
X63300Y176300D01*
X68300Y181300D01*
X58300Y171300D02*
X63300Y166300D01*
X47500Y163722D02*
X48204Y163018D01*
Y161396D02*
Y163018D01*
Y161396D02*
X48300Y161300D01*
Y171165D02*
Y171300D01*
X47500Y170365D02*
X48300Y171165D01*
X47500Y163722D02*
Y170365D01*
Y180365D02*
X48300Y181165D01*
X47500Y173722D02*
Y180365D01*
Y173722D02*
X48204Y173018D01*
Y171396D02*
Y173018D01*
Y171396D02*
X48300Y171300D01*
Y181165D02*
Y181300D01*
X48396Y181396D02*
X50617D01*
X48300Y181300D02*
X48396Y181396D01*
X58165Y181300D02*
X58300D01*
X57965Y181500D02*
X58165Y181300D01*
X50722Y181500D02*
X57965D01*
X50617Y181396D02*
X50722Y181500D01*
X50017Y161204D02*
X50722Y160500D01*
X48396Y161204D02*
X50017D01*
X48300Y161300D02*
X48396Y161204D01*
X58165Y161300D02*
X58300D01*
X57365Y160500D02*
X58165Y161300D01*
X50722Y160500D02*
X57365D01*
X58300Y161300D02*
X63300Y166300D01*
X68300Y171300D01*
X108300Y141300D02*
X113284Y136316D01*
X108300Y141300D02*
X108300D01*
X103316Y146284D02*
Y146316D01*
Y146284D02*
X108300Y141300D01*
Y141300D02*
Y141300D01*
X103316Y146316D02*
X108300Y151300D01*
X108300Y161300D02*
X108300D01*
X104000Y157000D02*
X108300Y161300D01*
X104000Y155735D02*
Y157000D01*
Y155735D02*
X108300Y151435D01*
Y151300D02*
Y151435D01*
X73284Y136284D02*
X78268Y131300D01*
X78300D01*
X88300D02*
X88300D01*
X78300D02*
X83300Y136300D01*
X78300Y141300D02*
X83300Y136300D01*
X88300Y131300D01*
X68522Y161300D02*
X78300D01*
X63300Y166300D02*
X68137Y161463D01*
X68411Y161411D02*
X73316Y166316D01*
X68069Y161300D02*
X68137Y161368D01*
X58396Y161204D02*
X61035D01*
X62550Y159689D01*
X68137Y161368D02*
Y161463D01*
X58300Y161300D02*
X58396Y161204D01*
X123796Y201204D02*
X124000Y201000D01*
X108300Y191300D02*
X118300Y201300D01*
X118396Y201204D02*
X123796D01*
X118300Y201300D02*
X118396Y201204D01*
X48300Y71300D02*
X53300Y66300D01*
X58300Y61300D01*
X63300Y56300D01*
X68300Y51300D01*
X48300Y61300D02*
X53300Y66300D01*
X58300Y71300D01*
Y51300D02*
X63300Y56300D01*
X68300Y61300D01*
X78300Y71300D02*
X83300Y66300D01*
X68300Y71300D02*
X73300Y66300D01*
X78300Y61300D01*
X83300Y56300D01*
Y66300D02*
X88300Y71300D01*
X58300D02*
X63300Y66300D01*
X68300Y61300D01*
X73300Y56300D01*
X78300Y51300D01*
X83300Y56300D01*
X68300Y61300D02*
X73300Y66300D01*
X78300Y71300D01*
X48300Y61300D02*
X53300Y56300D01*
X58300Y51300D01*
Y61300D02*
X63300Y66300D01*
X68300Y71300D01*
X108165Y81300D02*
X108300D01*
X104865Y78000D02*
X108165Y81300D01*
X102000Y78000D02*
X104865D01*
X108300Y81300D02*
X118300Y91300D01*
X73000Y25000D02*
X74465D01*
X78165Y21300D02*
X78300D01*
X74465Y25000D02*
X78165Y21300D01*
X73000Y25000D02*
Y25865D01*
X78300Y31165D01*
Y31300D01*
X88300Y21300D02*
X88300D01*
X48300Y51300D02*
X53300Y56300D01*
X58300Y61300D01*
X68300Y51300D02*
X73300Y56300D01*
X78300Y61300D01*
X83300Y56300D02*
X88300Y51300D01*
X83300Y56300D02*
X88300Y61300D01*
X68300Y401300D02*
X73316Y396284D01*
X68300Y381300D02*
X73316Y386316D01*
X83284D02*
X88300Y381300D01*
X83284Y396284D02*
X88300Y401300D01*
X48300D02*
X52000Y405000D01*
X68332Y391300D02*
X73316Y396284D01*
X78300Y401268D02*
Y401300D01*
X73316Y396284D02*
X78300Y401268D01*
X73316Y396284D02*
X78300Y391300D01*
X73284Y386316D02*
X73316D01*
X68300Y391300D02*
X73284Y386316D01*
X68300Y391300D02*
X68300D01*
X68332D01*
X73316Y386316D02*
X78300Y391300D01*
X83284Y396284D01*
X78300Y401268D02*
X83284Y396284D01*
X83316D01*
X88300Y391300D01*
X83284Y386316D02*
X88268Y391300D01*
X88300D01*
X88300D01*
X78300D02*
X83284Y386316D01*
X78300Y381332D02*
X83284Y386316D01*
X78300Y381300D02*
Y381332D01*
X73316Y386316D02*
X78300Y381332D01*
X58300Y391300D02*
X63300Y386300D01*
X68300Y381300D01*
X58300D02*
X63300Y386300D01*
X68300Y391300D01*
X58300Y401300D02*
X63300Y396300D01*
X68300Y391300D01*
X58165Y381300D02*
X58300D01*
X50722Y380500D02*
X57365D01*
X48300Y381300D02*
X48396Y381204D01*
X57365Y380500D02*
X58165Y381300D01*
X50017Y381204D02*
X50722Y380500D01*
X48396Y381204D02*
X50017D01*
X47500Y383722D02*
Y388278D01*
X48204Y388983D01*
Y391204D01*
X48300Y391300D01*
Y401165D02*
Y401300D01*
X48204Y391396D02*
Y393018D01*
Y391396D02*
X48300Y391300D01*
X47500Y400365D02*
X48300Y401165D01*
X47500Y393722D02*
Y400365D01*
Y393722D02*
X48204Y393018D01*
X52000Y405000D02*
X54465D01*
X58165Y401300D02*
X58300D01*
X54465Y405000D02*
X58165Y401300D01*
X58300Y391300D02*
X63300Y396300D01*
X68300Y401300D01*
X73000Y406000D01*
X48300Y291300D02*
X53300Y286300D01*
X58300Y281300D01*
X48300D02*
X53300Y286300D01*
X58300Y291300D01*
X63300Y286300D01*
X68300Y281300D01*
X58300D02*
X63300Y286300D01*
X68300Y291300D01*
X48300Y281300D02*
X53300Y276300D01*
X58300Y271300D01*
Y281300D02*
X63300Y276300D01*
X68300Y271300D01*
X48300D02*
X53300Y276300D01*
X58300Y281300D01*
X68300Y291300D02*
X73300Y286300D01*
X78300Y281300D01*
X58300Y271300D02*
X63300Y276300D01*
X68300Y281300D01*
X73300Y276300D01*
X78300Y271300D01*
X68300Y281300D02*
X73300Y286300D01*
X78300Y291300D01*
X68300Y271300D02*
X73300Y276300D01*
X78300Y281300D01*
X83300Y276300D01*
X88300Y271300D01*
X78300Y291300D02*
X83300Y286300D01*
X88300Y281300D01*
X78300Y271300D02*
X83300Y276300D01*
X88300Y281300D01*
X108300Y361300D02*
Y361435D01*
X104000Y365735D02*
X108300Y361435D01*
X104000Y365735D02*
Y366000D01*
X108300Y361300D02*
X108435D01*
X88300Y351300D02*
X98300Y361300D01*
X88300Y351300D02*
X88300D01*
X78300D02*
X83300Y356300D01*
X78300Y361300D02*
X83300Y356300D01*
X88300Y351300D01*
X108300Y361300D02*
X118300Y351300D01*
X118300D01*
X108300Y411300D02*
X118300Y421300D01*
X78300Y281300D02*
X83300Y286300D01*
X88300Y291300D01*
Y141300D02*
X93316Y146316D01*
X108300Y201300D02*
X108435D01*
X114185Y207050D01*
X118300Y141300D02*
X124600Y135000D01*
X126000D01*
X38300Y141300D02*
X48268D01*
X52354Y145387D01*
X141450Y207050D02*
X146750Y201750D01*
X114185Y207050D02*
X141450D01*
X103284Y86284D02*
X108300Y91300D01*
X38300Y31300D02*
X48300D01*
X83284Y36316D02*
X88300Y31300D01*
X28300Y311300D02*
X33316Y316316D01*
X108300Y421300D02*
X113316Y426316D01*
X23284Y416284D02*
X28300Y421300D01*
X122012Y357723D02*
X122436D01*
X118300Y361300D02*
X118435D01*
X122012Y357723D01*
X33284Y366316D02*
X38300Y361300D01*
X48300D01*
X88300D02*
Y361300D01*
X92000Y365000D01*
D51*
X73050Y237172D02*
X76222Y234000D01*
X73050Y237172D02*
Y246550D01*
X68300Y251300D02*
X73050Y246550D01*
X63550Y343936D02*
Y356550D01*
X68300Y361300D01*
X14000Y206000D02*
X14163Y206163D01*
X23302D01*
X28165Y201300D01*
X28300D01*
X23316Y426316D02*
X33284D01*
X38300Y421300D01*
D52*
X58300Y171300D02*
Y181300D01*
X50929Y171000D02*
X57594D01*
X50916Y171013D02*
X50929Y171000D01*
X48300Y171300D02*
X48587Y171013D01*
X57894Y171300D02*
X58300D01*
X57594Y171000D02*
X57894Y171300D01*
X48587Y171013D02*
X50916D01*
X58300Y171300D02*
X68300D01*
X68300D02*
X78268D01*
X78300D01*
X78300D02*
X88300D01*
X88300D01*
X83316Y176284D02*
X88300Y171300D01*
X58300Y181300D02*
X63300Y176300D01*
X68300Y171300D01*
D53*
X33450Y196450D02*
X38300Y201300D01*
X23150Y196450D02*
X33450D01*
X18300Y201300D02*
X23150Y196450D01*
X139513Y399000D02*
X140000D01*
X137213Y401300D02*
X139513Y399000D01*
X118300Y401300D02*
X137213D01*
X70964Y347536D02*
Y348023D01*
X68300Y350687D02*
X70964Y348023D01*
X68300Y350687D02*
Y351300D01*
D54*
X215000Y439000D02*
D03*
Y50000D02*
D03*
D55*
X195878Y75878D02*
D03*
X196500Y81500D02*
D03*
X237084Y279702D02*
D03*
X237018Y284650D02*
D03*
X181000Y419000D02*
D03*
X150000Y100000D02*
D03*
X149000Y212000D02*
D03*
X11000Y314000D02*
D03*
X18000Y315000D02*
D03*
X91000Y261000D02*
D03*
X63270Y256298D02*
D03*
X65000Y263000D02*
D03*
X6000Y14000D02*
D03*
X155000Y344000D02*
D03*
X10026Y418292D02*
D03*
X9500Y408000D02*
D03*
X130000Y437000D02*
D03*
X40000Y154000D02*
D03*
X11000Y179000D02*
D03*
X9000Y169000D02*
D03*
X132968Y415032D02*
D03*
X125968D02*
D03*
X202968Y333032D02*
D03*
X241968Y179032D02*
D03*
X238968Y153032D02*
D03*
X242000Y173000D02*
D03*
X197968Y160032D02*
D03*
Y152032D02*
D03*
X173253Y73457D02*
D03*
X232968Y15032D02*
D03*
Y7032D02*
D03*
X38968Y70032D02*
D03*
X10000Y79000D02*
D03*
X81968Y220032D02*
D03*
X51968Y223032D02*
D03*
X4968Y375032D02*
D03*
Y360032D02*
D03*
Y338032D02*
D03*
X46968Y331032D02*
D03*
X4968Y389032D02*
D03*
X16968Y449032D02*
D03*
Y455032D02*
D03*
X73968Y450032D02*
D03*
X141968Y457032D02*
D03*
X131968D02*
D03*
X254968Y425032D02*
D03*
X266968Y426032D02*
D03*
X254968Y435032D02*
D03*
X244968D02*
D03*
X266968D02*
D03*
X189569Y443988D02*
D03*
X187968Y436032D02*
D03*
X153000Y427000D02*
D03*
X152968Y436032D02*
D03*
X134968Y352032D02*
D03*
X102968Y381032D02*
D03*
X189968Y333032D02*
D03*
X160968Y277032D02*
D03*
Y262032D02*
D03*
X103968Y286032D02*
D03*
X39968Y275032D02*
D03*
X194968Y225032D02*
D03*
X189968Y205032D02*
D03*
X190000Y214000D02*
D03*
X199968Y197032D02*
D03*
Y205032D02*
D03*
Y214032D02*
D03*
X253000Y296000D02*
D03*
X237073Y266396D02*
D03*
X237000Y272000D02*
D03*
X244000Y228000D02*
D03*
Y233000D02*
D03*
X139968Y41032D02*
D03*
X147080Y41127D02*
D03*
X172968Y30032D02*
D03*
X45968Y108032D02*
D03*
X37000Y295000D02*
D03*
X79125Y297500D02*
D03*
X104000Y297000D02*
D03*
X161000Y294000D02*
D03*
X124000Y237000D02*
D03*
X27375Y229750D02*
D03*
X45000Y225000D02*
D03*
X59000D02*
D03*
X248000Y104000D02*
D03*
X260000Y117000D02*
D03*
X230000Y75000D02*
D03*
X224000Y19000D02*
D03*
X173000Y24000D02*
D03*
X28000Y5500D02*
D03*
X9000Y6000D02*
D03*
X157000Y115000D02*
D03*
X181000Y101000D02*
D03*
X215536Y125464D02*
D03*
X83240Y65881D02*
D03*
X88000Y15000D02*
D03*
X103000Y26000D02*
D03*
X98984Y40708D02*
D03*
X68372Y40470D02*
D03*
X78182Y45625D02*
D03*
X78312Y76201D02*
D03*
X88492Y76123D02*
D03*
X68418Y76975D02*
D03*
X58418D02*
D03*
X11000Y253000D02*
D03*
X34000Y276000D02*
D03*
X12448Y301549D02*
D03*
X237000Y407000D02*
D03*
X140000Y419000D02*
D03*
X166000Y343000D02*
D03*
X265000Y417000D02*
D03*
Y369000D02*
D03*
X94000Y456000D02*
D03*
X192000D02*
D03*
X207000Y138000D02*
D03*
X53000Y41000D02*
D03*
X136625Y88250D02*
D03*
X150000Y52000D02*
D03*
X154750Y138000D02*
D03*
X254000Y360000D02*
D03*
X151000Y20000D02*
D03*
X157000D02*
D03*
X68000Y5000D02*
D03*
X9000Y159000D02*
D03*
X4000Y436000D02*
D03*
X5000Y46500D02*
D03*
X183000Y113000D02*
D03*
X126000Y78000D02*
D03*
X125000Y55000D02*
D03*
X195000Y9000D02*
D03*
X161000Y62000D02*
D03*
X253000Y282000D02*
D03*
Y290000D02*
D03*
X254000Y326000D02*
D03*
X73000Y152000D02*
D03*
X73316Y96284D02*
D03*
X84000Y151000D02*
D03*
X63316Y96284D02*
D03*
X53316D02*
D03*
X53000Y166000D02*
D03*
X67000Y191000D02*
D03*
X77000Y193000D02*
D03*
X53000Y176000D02*
D03*
X73316Y86284D02*
D03*
X63316D02*
D03*
X53316D02*
D03*
X215000Y295000D02*
D03*
X177000Y207000D02*
D03*
X172170Y343322D02*
D03*
X259750Y397750D02*
D03*
X259787Y387277D02*
D03*
X262000Y245000D02*
D03*
Y257000D02*
D03*
X140000Y399000D02*
D03*
X188800Y249228D02*
D03*
X156000Y204000D02*
D03*
X196000Y234000D02*
D03*
X156000Y211000D02*
D03*
X179000Y359000D02*
D03*
X154000D02*
D03*
X151000Y293000D02*
D03*
X214000Y361000D02*
D03*
X208000Y355000D02*
D03*
X212000Y371000D02*
D03*
X213000Y381000D02*
D03*
X185362Y374638D02*
D03*
X197000Y380084D02*
D03*
X166000Y38000D02*
D03*
X182500Y4000D02*
D03*
X172000Y11184D02*
D03*
X168000Y79000D02*
D03*
X65971Y11854D02*
D03*
X36000Y449000D02*
D03*
X9000Y290000D02*
D03*
X148000Y302000D02*
D03*
X9000Y51000D02*
D03*
Y153000D02*
D03*
X14000Y206000D02*
D03*
X7000D02*
D03*
X10000Y135000D02*
D03*
X11000Y215000D02*
D03*
X8000Y461000D02*
D03*
X5000Y278000D02*
D03*
X38000Y45000D02*
D03*
X171000Y113000D02*
D03*
X211000Y251000D02*
D03*
X206250Y273500D02*
D03*
Y309500D02*
D03*
X181000Y320000D02*
D03*
X153000Y240000D02*
D03*
X138500D02*
D03*
X135000Y134000D02*
D03*
X144000D02*
D03*
X23284Y106316D02*
D03*
X22319Y436892D02*
D03*
X31770Y437572D02*
D03*
X24000Y317000D02*
D03*
X7000Y328000D02*
D03*
X35000Y373000D02*
D03*
X70964Y347536D02*
D03*
X95744Y439318D02*
D03*
X144000Y240000D02*
D03*
X72000Y16000D02*
D03*
X73000Y126000D02*
D03*
X72000Y117000D02*
D03*
X213000Y214500D02*
D03*
X209000Y219500D02*
D03*
X214000Y184500D02*
D03*
X213000Y171500D02*
D03*
X242000Y211000D02*
D03*
Y216500D02*
D03*
Y186000D02*
D03*
Y191500D02*
D03*
Y161000D02*
D03*
Y166500D02*
D03*
X209000Y146500D02*
D03*
X212000Y153500D02*
D03*
X103284Y36284D02*
D03*
X13284Y106316D02*
D03*
X116000Y217000D02*
D03*
X103284Y346284D02*
D03*
X33284Y356316D02*
D03*
X53284Y346284D02*
D03*
Y356284D02*
D03*
X71000Y358000D02*
D03*
X23316Y356284D02*
D03*
Y426316D02*
D03*
X103316D02*
D03*
X123316Y386316D02*
D03*
Y366284D02*
D03*
X103284Y306284D02*
D03*
Y316284D02*
D03*
X43316Y306284D02*
D03*
X103316Y246316D02*
D03*
X53284Y236284D02*
D03*
X63284Y246316D02*
D03*
X83284Y256316D02*
D03*
X33284D02*
D03*
Y246316D02*
D03*
X53284Y246284D02*
D03*
X23284Y246316D02*
D03*
X33284Y216316D02*
D03*
X23284D02*
D03*
X98434Y125627D02*
D03*
X43316Y86284D02*
D03*
X33284Y96284D02*
D03*
X123316Y46284D02*
D03*
Y36284D02*
D03*
X113284Y36316D02*
D03*
X103284Y16284D02*
D03*
X33284Y26284D02*
D03*
X53284D02*
D03*
X103316Y96316D02*
D03*
X23284D02*
D03*
X13284D02*
D03*
X23284Y136316D02*
D03*
X55000Y125000D02*
D03*
X53284Y136284D02*
D03*
X33284Y16284D02*
D03*
X53284D02*
D03*
X13284Y26284D02*
D03*
X23284Y16284D02*
D03*
X103316Y146316D02*
D03*
X113284Y136316D02*
D03*
X73284Y136284D02*
D03*
Y176284D02*
D03*
X83316D02*
D03*
X73316Y166316D02*
D03*
X83284D02*
D03*
X126000Y152000D02*
D03*
X150538Y150236D02*
D03*
X139000Y170000D02*
D03*
X145000D02*
D03*
X49250Y185500D02*
D03*
X65911Y158689D02*
D03*
X124000Y201000D02*
D03*
X73000Y25000D02*
D03*
X73316Y396284D02*
D03*
Y386316D02*
D03*
X83284D02*
D03*
Y396284D02*
D03*
X52000Y405000D02*
D03*
X65911Y378689D02*
D03*
X52354Y145419D02*
D03*
X126000Y135000D02*
D03*
X93316Y146316D02*
D03*
X128000Y180500D02*
D03*
X64158Y185442D02*
D03*
X146750Y201750D02*
D03*
X103284Y86284D02*
D03*
X83284Y36316D02*
D03*
X33316Y316316D02*
D03*
X113316Y426316D02*
D03*
X23284Y416284D02*
D03*
X122436Y357723D02*
D03*
X33284Y366316D02*
D03*
X64300Y405875D02*
D03*
X92000Y365000D02*
D03*
X87000Y191000D02*
D03*
Y415000D02*
D03*
X130000Y148000D02*
D03*
X140000Y145750D02*
D03*
X136000Y186000D02*
D03*
X145000Y188000D02*
D03*
X114255Y175972D02*
D03*
X113806Y165557D02*
D03*
X44246Y207197D02*
D03*
X72354Y205403D02*
D03*
X64197Y215354D02*
D03*
X62354Y205403D02*
D03*
X54246Y207197D02*
D03*
X52403Y197246D02*
D03*
X92000Y412000D02*
D03*
X97000Y408000D02*
D03*
X92000Y372000D02*
D03*
X97000Y376000D02*
D03*
X101000Y388000D02*
D03*
Y396000D02*
D03*
X44246Y427197D02*
D03*
X73000Y372000D02*
D03*
X73316Y306284D02*
D03*
X63316D02*
D03*
X53316D02*
D03*
X73316Y316284D02*
D03*
X63316D02*
D03*
X53316D02*
D03*
X64197Y435354D02*
D03*
X62354Y425403D02*
D03*
X54246Y427197D02*
D03*
X52403Y417245D02*
D03*
X53000Y386000D02*
D03*
X67000Y411000D02*
D03*
X77000Y413000D02*
D03*
X53000Y396000D02*
D03*
X84000Y371000D02*
D03*
X72354Y425403D02*
D03*
D58*
X28300Y101300D02*
D03*
X18300Y321300D02*
D03*
X118300Y311300D02*
D03*
X108300Y301300D02*
D03*
X88300Y291300D02*
D03*
X78300D02*
D03*
X68300D02*
D03*
X58300D02*
D03*
X48300D02*
D03*
X88300Y281300D02*
D03*
X78300D02*
D03*
X68300D02*
D03*
X58300D02*
D03*
X48300D02*
D03*
X108300Y271300D02*
D03*
X88300D02*
D03*
X78300D02*
D03*
X68300D02*
D03*
X58300D02*
D03*
X48300D02*
D03*
X108300Y261300D02*
D03*
Y251300D02*
D03*
X98300D02*
D03*
X78300D02*
D03*
X118300Y241300D02*
D03*
X88300D02*
D03*
X78300D02*
D03*
X18300D02*
D03*
Y351300D02*
D03*
X78300D02*
D03*
X88300D02*
D03*
X118300D02*
D03*
X78300Y361300D02*
D03*
X98300D02*
D03*
X108300D02*
D03*
Y371300D02*
D03*
X48300Y381300D02*
D03*
X58300D02*
D03*
X68300D02*
D03*
X78300D02*
D03*
X88300D02*
D03*
X108300D02*
D03*
X48300Y391300D02*
D03*
X58300D02*
D03*
X68300D02*
D03*
X78300D02*
D03*
X88300D02*
D03*
X48300Y401300D02*
D03*
X58300D02*
D03*
X68300D02*
D03*
X78300D02*
D03*
X88300D02*
D03*
X108300Y411300D02*
D03*
X118300Y421300D02*
D03*
X18300Y431300D02*
D03*
Y21300D02*
D03*
X78300D02*
D03*
X88300D02*
D03*
X118300D02*
D03*
X78300Y31300D02*
D03*
X98300D02*
D03*
X108300D02*
D03*
Y41300D02*
D03*
X48300Y51300D02*
D03*
X58300D02*
D03*
X68300D02*
D03*
X78300D02*
D03*
X88300D02*
D03*
X108300D02*
D03*
X48300Y61300D02*
D03*
X58300D02*
D03*
X68300D02*
D03*
X78300D02*
D03*
X88300D02*
D03*
X48300Y71300D02*
D03*
X58300D02*
D03*
X68300D02*
D03*
X78300D02*
D03*
X88300D02*
D03*
X108300Y81300D02*
D03*
X118300Y91300D02*
D03*
X18300Y101300D02*
D03*
Y211300D02*
D03*
X118300Y201300D02*
D03*
X108300Y191300D02*
D03*
X88300Y181300D02*
D03*
X78300D02*
D03*
X68300D02*
D03*
X58300D02*
D03*
X48300D02*
D03*
X88300Y171300D02*
D03*
X78300D02*
D03*
X68300D02*
D03*
X58300D02*
D03*
X48300D02*
D03*
X108300Y161300D02*
D03*
X88300D02*
D03*
X78300D02*
D03*
X68300D02*
D03*
X58300D02*
D03*
X48300D02*
D03*
X108300Y151300D02*
D03*
Y141300D02*
D03*
X98300D02*
D03*
X78300D02*
D03*
X118300Y131300D02*
D03*
X88300D02*
D03*
X78300D02*
D03*
X18300D02*
D03*
X108300Y321300D02*
D03*
X98300Y311300D02*
D03*
X38300D02*
D03*
X18300D02*
D03*
X118300Y271300D02*
D03*
X58300Y251300D02*
D03*
X18300D02*
D03*
X28300Y241300D02*
D03*
Y351300D02*
D03*
X18300Y361300D02*
D03*
X58300D02*
D03*
X118300Y381300D02*
D03*
X18300Y421300D02*
D03*
X38300D02*
D03*
X98300D02*
D03*
X108300Y431300D02*
D03*
X28300Y21300D02*
D03*
X18300Y31300D02*
D03*
X58300D02*
D03*
X118300Y51300D02*
D03*
X18300Y91300D02*
D03*
X38300D02*
D03*
X98300D02*
D03*
X108300Y101300D02*
D03*
Y211300D02*
D03*
X98300Y201300D02*
D03*
X38300D02*
D03*
X18300D02*
D03*
X118300Y161300D02*
D03*
X58300Y141300D02*
D03*
X18300D02*
D03*
X28300Y131300D02*
D03*
X118300Y71300D02*
D03*
Y181300D02*
D03*
X108300Y311300D02*
D03*
X28300D02*
D03*
X118300Y251300D02*
D03*
X88300D02*
D03*
X48300D02*
D03*
X38300D02*
D03*
Y361300D02*
D03*
X48300D02*
D03*
X88300D02*
D03*
X118300D02*
D03*
X28300Y421300D02*
D03*
X108300D02*
D03*
X38300Y31300D02*
D03*
X48300D02*
D03*
X88300D02*
D03*
X118300D02*
D03*
X28300Y91300D02*
D03*
X108300D02*
D03*
Y201300D02*
D03*
X28300D02*
D03*
X118300Y141300D02*
D03*
X88300D02*
D03*
X48300D02*
D03*
X38300D02*
D03*
X118300Y291300D02*
D03*
Y401300D02*
D03*
X28300Y211300D02*
D03*
Y321300D02*
D03*
Y431300D02*
D03*
X98300D02*
D03*
X88300D02*
D03*
X78300D02*
D03*
X68300D02*
D03*
X58300D02*
D03*
X48300D02*
D03*
X38300D02*
D03*
X88300Y421300D02*
D03*
X78300D02*
D03*
X68300D02*
D03*
X58300D02*
D03*
X48300D02*
D03*
X118300Y411300D02*
D03*
X28300D02*
D03*
X18300D02*
D03*
X108300Y401300D02*
D03*
X28300D02*
D03*
X18300D02*
D03*
X118300Y391300D02*
D03*
X108300D02*
D03*
X28300D02*
D03*
X18300D02*
D03*
X28300Y381300D02*
D03*
X18300D02*
D03*
X118300Y371300D02*
D03*
X28300D02*
D03*
X18300D02*
D03*
X68300Y361300D02*
D03*
X28300D02*
D03*
X108300Y351300D02*
D03*
X98300D02*
D03*
X68300D02*
D03*
X58300D02*
D03*
X48300D02*
D03*
X38300D02*
D03*
X98300Y101300D02*
D03*
X88300D02*
D03*
X78300D02*
D03*
X68300D02*
D03*
X58300D02*
D03*
X48300D02*
D03*
X38300D02*
D03*
X88300Y91300D02*
D03*
X78300D02*
D03*
X68300D02*
D03*
X58300D02*
D03*
X48300D02*
D03*
X118300Y81300D02*
D03*
X28300D02*
D03*
X18300D02*
D03*
X108300Y71300D02*
D03*
X28300D02*
D03*
X18300D02*
D03*
X118300Y61300D02*
D03*
X108300D02*
D03*
X28300D02*
D03*
X18300D02*
D03*
X28300Y51300D02*
D03*
X18300D02*
D03*
X118300Y41300D02*
D03*
X28300D02*
D03*
X18300D02*
D03*
X68300Y31300D02*
D03*
X28300D02*
D03*
X108300Y21300D02*
D03*
X98300D02*
D03*
X68300D02*
D03*
X58300D02*
D03*
X48300D02*
D03*
X38300D02*
D03*
Y131300D02*
D03*
X48300D02*
D03*
X58300D02*
D03*
X68300D02*
D03*
X98300D02*
D03*
X108300D02*
D03*
X28300Y141300D02*
D03*
X68300D02*
D03*
X18300Y151300D02*
D03*
X28300D02*
D03*
X118300D02*
D03*
X18300Y161300D02*
D03*
X28300D02*
D03*
X18300Y171300D02*
D03*
X28300D02*
D03*
X108300D02*
D03*
X118300D02*
D03*
X18300Y181300D02*
D03*
X28300D02*
D03*
X108300D02*
D03*
X18300Y191300D02*
D03*
X28300D02*
D03*
X118300D02*
D03*
X48300Y201300D02*
D03*
X58300D02*
D03*
X68300D02*
D03*
X78300D02*
D03*
X88300D02*
D03*
X38300Y211300D02*
D03*
X48300D02*
D03*
X58300D02*
D03*
X68300D02*
D03*
X78300D02*
D03*
X88300D02*
D03*
X98300D02*
D03*
X38300Y241300D02*
D03*
X48300D02*
D03*
X58300D02*
D03*
X68300D02*
D03*
X98300D02*
D03*
X108300D02*
D03*
X28300Y251300D02*
D03*
X68300D02*
D03*
X18300Y261300D02*
D03*
X28300D02*
D03*
X118300D02*
D03*
X18300Y271300D02*
D03*
X28300D02*
D03*
X18300Y281300D02*
D03*
X28300D02*
D03*
X108300D02*
D03*
X118300D02*
D03*
X18300Y291300D02*
D03*
X28300D02*
D03*
X108300D02*
D03*
X18300Y301300D02*
D03*
X28300D02*
D03*
X118300D02*
D03*
X48300Y311300D02*
D03*
X58300D02*
D03*
X68300D02*
D03*
X78300D02*
D03*
X88300D02*
D03*
X38300Y321300D02*
D03*
X48300D02*
D03*
X58300D02*
D03*
X68300D02*
D03*
X78300D02*
D03*
X88300D02*
D03*
X98300D02*
D03*
D59*
X57000Y470000D02*
D03*
M02*
