G04*
G04 #@! TF.GenerationSoftware,Altium Limited,Altium Designer,24.9.1 (31)*
G04*
G04 Layer_Color=2752767*
%FSLAX44Y44*%
%MOMM*%
G71*
G04*
G04 #@! TF.SameCoordinates,F6C7D1B7-5E70-41A8-93A8-01C2B61895AE*
G04*
G04*
G04 #@! TF.FilePolarity,Positive*
G04*
G01*
G75*
%ADD12C,0.1270*%
%ADD63C,0.1693*%
D12*
X209920Y433920D02*
Y444080D01*
X220080D01*
Y433920D01*
X209920D01*
X51920Y464920D02*
Y475080D01*
X62080D01*
Y464920D01*
X51920D01*
X209920Y44920D02*
Y55080D01*
X220080D01*
Y44920D01*
X209920D01*
D63*
X155003Y46923D02*
G03*
X155003Y46923I-5080J0D01*
G01*
X98080Y427000D02*
G03*
X98080Y427000I-5080J0D01*
G01*
X200958Y75878D02*
G03*
X200958Y75878I-5080J0D01*
G01*
X201580Y81500D02*
G03*
X201580Y81500I-5080J0D01*
G01*
X242164Y279702D02*
G03*
X242164Y279702I-5080J0D01*
G01*
X242098Y284650D02*
G03*
X242098Y284650I-5080J0D01*
G01*
X186080Y419000D02*
G03*
X186080Y419000I-5080J0D01*
G01*
X155080Y100000D02*
G03*
X155080Y100000I-5080J0D01*
G01*
X154080Y212000D02*
G03*
X154080Y212000I-5080J0D01*
G01*
X16080Y314000D02*
G03*
X16080Y314000I-5080J0D01*
G01*
X23080Y315000D02*
G03*
X23080Y315000I-5080J0D01*
G01*
X96080Y261000D02*
G03*
X96080Y261000I-5080J0D01*
G01*
X68350Y256298D02*
G03*
X68350Y256298I-5080J0D01*
G01*
X70080Y263000D02*
G03*
X70080Y263000I-5080J0D01*
G01*
X11080Y14000D02*
G03*
X11080Y14000I-5080J0D01*
G01*
X160080Y344000D02*
G03*
X160080Y344000I-5080J0D01*
G01*
X15106Y418292D02*
G03*
X15106Y418292I-5080J0D01*
G01*
X14580Y408000D02*
G03*
X14580Y408000I-5080J0D01*
G01*
X135080Y437000D02*
G03*
X135080Y437000I-5080J0D01*
G01*
X45080Y154000D02*
G03*
X45080Y154000I-5080J0D01*
G01*
X16080Y179000D02*
G03*
X16080Y179000I-5080J0D01*
G01*
X14080Y169000D02*
G03*
X14080Y169000I-5080J0D01*
G01*
X138048Y415032D02*
G03*
X138048Y415032I-5080J0D01*
G01*
X131048D02*
G03*
X131048Y415032I-5080J0D01*
G01*
X208048Y333032D02*
G03*
X208048Y333032I-5080J0D01*
G01*
X247048Y179032D02*
G03*
X247048Y179032I-5080J0D01*
G01*
X244048Y153032D02*
G03*
X244048Y153032I-5080J0D01*
G01*
X247080Y173000D02*
G03*
X247080Y173000I-5080J0D01*
G01*
X203048Y160032D02*
G03*
X203048Y160032I-5080J0D01*
G01*
Y152032D02*
G03*
X203048Y152032I-5080J0D01*
G01*
X178333Y73457D02*
G03*
X178333Y73457I-5080J0D01*
G01*
X238048Y15032D02*
G03*
X238048Y15032I-5080J0D01*
G01*
Y7032D02*
G03*
X238048Y7032I-5080J0D01*
G01*
X44048Y70032D02*
G03*
X44048Y70032I-5080J0D01*
G01*
X15080Y79000D02*
G03*
X15080Y79000I-5080J0D01*
G01*
X87048Y220032D02*
G03*
X87048Y220032I-5080J0D01*
G01*
X57048Y223032D02*
G03*
X57048Y223032I-5080J0D01*
G01*
X10048Y375032D02*
G03*
X10048Y375032I-5080J0D01*
G01*
Y360032D02*
G03*
X10048Y360032I-5080J0D01*
G01*
Y338032D02*
G03*
X10048Y338032I-5080J0D01*
G01*
X52048Y331032D02*
G03*
X52048Y331032I-5080J0D01*
G01*
X10048Y389032D02*
G03*
X10048Y389032I-5080J0D01*
G01*
X22048Y449032D02*
G03*
X22048Y449032I-5080J0D01*
G01*
Y455032D02*
G03*
X22048Y455032I-5080J0D01*
G01*
X79048Y450032D02*
G03*
X79048Y450032I-5080J0D01*
G01*
X147048Y457032D02*
G03*
X147048Y457032I-5080J0D01*
G01*
X137048D02*
G03*
X137048Y457032I-5080J0D01*
G01*
X260048Y425032D02*
G03*
X260048Y425032I-5080J0D01*
G01*
X272048Y426032D02*
G03*
X272048Y426032I-5080J0D01*
G01*
X260048Y435032D02*
G03*
X260048Y435032I-5080J0D01*
G01*
X250048D02*
G03*
X250048Y435032I-5080J0D01*
G01*
X272048D02*
G03*
X272048Y435032I-5080J0D01*
G01*
X194649Y443988D02*
G03*
X194649Y443988I-5080J0D01*
G01*
X193048Y436032D02*
G03*
X193048Y436032I-5080J0D01*
G01*
X158080Y427000D02*
G03*
X158080Y427000I-5080J0D01*
G01*
X158048Y436032D02*
G03*
X158048Y436032I-5080J0D01*
G01*
X140048Y352032D02*
G03*
X140048Y352032I-5080J0D01*
G01*
X108048Y381032D02*
G03*
X108048Y381032I-5080J0D01*
G01*
X195048Y333032D02*
G03*
X195048Y333032I-5080J0D01*
G01*
X166048Y277032D02*
G03*
X166048Y277032I-5080J0D01*
G01*
Y262032D02*
G03*
X166048Y262032I-5080J0D01*
G01*
X109048Y286032D02*
G03*
X109048Y286032I-5080J0D01*
G01*
X45048Y275032D02*
G03*
X45048Y275032I-5080J0D01*
G01*
X200048Y225032D02*
G03*
X200048Y225032I-5080J0D01*
G01*
X195048Y205032D02*
G03*
X195048Y205032I-5080J0D01*
G01*
X195080Y214000D02*
G03*
X195080Y214000I-5080J0D01*
G01*
X205048Y197032D02*
G03*
X205048Y197032I-5080J0D01*
G01*
Y205032D02*
G03*
X205048Y205032I-5080J0D01*
G01*
Y214032D02*
G03*
X205048Y214032I-5080J0D01*
G01*
X258080Y296000D02*
G03*
X258080Y296000I-5080J0D01*
G01*
X242153Y266396D02*
G03*
X242153Y266396I-5080J0D01*
G01*
X242080Y272000D02*
G03*
X242080Y272000I-5080J0D01*
G01*
X249080Y228000D02*
G03*
X249080Y228000I-5080J0D01*
G01*
Y233000D02*
G03*
X249080Y233000I-5080J0D01*
G01*
X145048Y41032D02*
G03*
X145048Y41032I-5080J0D01*
G01*
X152160Y41127D02*
G03*
X152160Y41127I-5080J0D01*
G01*
X178048Y30032D02*
G03*
X178048Y30032I-5080J0D01*
G01*
X51048Y108032D02*
G03*
X51048Y108032I-5080J0D01*
G01*
X42080Y295000D02*
G03*
X42080Y295000I-5080J0D01*
G01*
X84205Y297500D02*
G03*
X84205Y297500I-5080J0D01*
G01*
X109080Y297000D02*
G03*
X109080Y297000I-5080J0D01*
G01*
X166080Y294000D02*
G03*
X166080Y294000I-5080J0D01*
G01*
X129080Y237000D02*
G03*
X129080Y237000I-5080J0D01*
G01*
X32455Y229750D02*
G03*
X32455Y229750I-5080J0D01*
G01*
X50080Y225000D02*
G03*
X50080Y225000I-5080J0D01*
G01*
X64080D02*
G03*
X64080Y225000I-5080J0D01*
G01*
X253080Y104000D02*
G03*
X253080Y104000I-5080J0D01*
G01*
X265080Y117000D02*
G03*
X265080Y117000I-5080J0D01*
G01*
X235080Y75000D02*
G03*
X235080Y75000I-5080J0D01*
G01*
X229080Y19000D02*
G03*
X229080Y19000I-5080J0D01*
G01*
X178080Y24000D02*
G03*
X178080Y24000I-5080J0D01*
G01*
X33080Y5500D02*
G03*
X33080Y5500I-5080J0D01*
G01*
X14080Y6000D02*
G03*
X14080Y6000I-5080J0D01*
G01*
X162080Y115000D02*
G03*
X162080Y115000I-5080J0D01*
G01*
X186080Y101000D02*
G03*
X186080Y101000I-5080J0D01*
G01*
X220616Y125464D02*
G03*
X220616Y125464I-5080J0D01*
G01*
X88320Y65881D02*
G03*
X88320Y65881I-5080J0D01*
G01*
X93080Y15000D02*
G03*
X93080Y15000I-5080J0D01*
G01*
X108080Y26000D02*
G03*
X108080Y26000I-5080J0D01*
G01*
X104064Y40708D02*
G03*
X104064Y40708I-5080J0D01*
G01*
X73452Y40470D02*
G03*
X73452Y40470I-5080J0D01*
G01*
X83262Y45625D02*
G03*
X83262Y45625I-5080J0D01*
G01*
X83392Y76201D02*
G03*
X83392Y76201I-5080J0D01*
G01*
X93572Y76123D02*
G03*
X93572Y76123I-5080J0D01*
G01*
X73498Y76975D02*
G03*
X73498Y76975I-5080J0D01*
G01*
X63498D02*
G03*
X63498Y76975I-5080J0D01*
G01*
X16080Y253000D02*
G03*
X16080Y253000I-5080J0D01*
G01*
X39080Y276000D02*
G03*
X39080Y276000I-5080J0D01*
G01*
X17528Y301549D02*
G03*
X17528Y301549I-5080J0D01*
G01*
X242080Y407000D02*
G03*
X242080Y407000I-5080J0D01*
G01*
X145080Y419000D02*
G03*
X145080Y419000I-5080J0D01*
G01*
X171080Y343000D02*
G03*
X171080Y343000I-5080J0D01*
G01*
X270080Y417000D02*
G03*
X270080Y417000I-5080J0D01*
G01*
Y369000D02*
G03*
X270080Y369000I-5080J0D01*
G01*
X99080Y456000D02*
G03*
X99080Y456000I-5080J0D01*
G01*
X197080D02*
G03*
X197080Y456000I-5080J0D01*
G01*
X212080Y138000D02*
G03*
X212080Y138000I-5080J0D01*
G01*
X58080Y41000D02*
G03*
X58080Y41000I-5080J0D01*
G01*
X141705Y88250D02*
G03*
X141705Y88250I-5080J0D01*
G01*
X155080Y52000D02*
G03*
X155080Y52000I-5080J0D01*
G01*
X159830Y138000D02*
G03*
X159830Y138000I-5080J0D01*
G01*
X259080Y360000D02*
G03*
X259080Y360000I-5080J0D01*
G01*
X156080Y20000D02*
G03*
X156080Y20000I-5080J0D01*
G01*
X162080D02*
G03*
X162080Y20000I-5080J0D01*
G01*
X73080Y5000D02*
G03*
X73080Y5000I-5080J0D01*
G01*
X14080Y159000D02*
G03*
X14080Y159000I-5080J0D01*
G01*
X9080Y436000D02*
G03*
X9080Y436000I-5080J0D01*
G01*
X10080Y46500D02*
G03*
X10080Y46500I-5080J0D01*
G01*
X188080Y113000D02*
G03*
X188080Y113000I-5080J0D01*
G01*
X131080Y78000D02*
G03*
X131080Y78000I-5080J0D01*
G01*
X130080Y55000D02*
G03*
X130080Y55000I-5080J0D01*
G01*
X200080Y9000D02*
G03*
X200080Y9000I-5080J0D01*
G01*
X166080Y62000D02*
G03*
X166080Y62000I-5080J0D01*
G01*
X258080Y282000D02*
G03*
X258080Y282000I-5080J0D01*
G01*
Y290000D02*
G03*
X258080Y290000I-5080J0D01*
G01*
X259080Y326000D02*
G03*
X259080Y326000I-5080J0D01*
G01*
X78080Y152000D02*
G03*
X78080Y152000I-5080J0D01*
G01*
X78396Y96284D02*
G03*
X78396Y96284I-5080J0D01*
G01*
X89080Y151000D02*
G03*
X89080Y151000I-5080J0D01*
G01*
X68396Y96284D02*
G03*
X68396Y96284I-5080J0D01*
G01*
X58396D02*
G03*
X58396Y96284I-5080J0D01*
G01*
X58080Y166000D02*
G03*
X58080Y166000I-5080J0D01*
G01*
X72080Y191000D02*
G03*
X72080Y191000I-5080J0D01*
G01*
X82080Y193000D02*
G03*
X82080Y193000I-5080J0D01*
G01*
X58080Y176000D02*
G03*
X58080Y176000I-5080J0D01*
G01*
X78396Y86284D02*
G03*
X78396Y86284I-5080J0D01*
G01*
X68396D02*
G03*
X68396Y86284I-5080J0D01*
G01*
X58396D02*
G03*
X58396Y86284I-5080J0D01*
G01*
X220080Y295000D02*
G03*
X220080Y295000I-5080J0D01*
G01*
X182080Y207000D02*
G03*
X182080Y207000I-5080J0D01*
G01*
X177250Y343322D02*
G03*
X177250Y343322I-5080J0D01*
G01*
X264830Y397750D02*
G03*
X264830Y397750I-5080J0D01*
G01*
X264867Y387277D02*
G03*
X264867Y387277I-5080J0D01*
G01*
X267080Y245000D02*
G03*
X267080Y245000I-5080J0D01*
G01*
Y257000D02*
G03*
X267080Y257000I-5080J0D01*
G01*
X145080Y399000D02*
G03*
X145080Y399000I-5080J0D01*
G01*
X193880Y249228D02*
G03*
X193880Y249228I-5080J0D01*
G01*
X161080Y204000D02*
G03*
X161080Y204000I-5080J0D01*
G01*
X201080Y234000D02*
G03*
X201080Y234000I-5080J0D01*
G01*
X161080Y211000D02*
G03*
X161080Y211000I-5080J0D01*
G01*
X184080Y359000D02*
G03*
X184080Y359000I-5080J0D01*
G01*
X159080D02*
G03*
X159080Y359000I-5080J0D01*
G01*
X156080Y293000D02*
G03*
X156080Y293000I-5080J0D01*
G01*
X219080Y361000D02*
G03*
X219080Y361000I-5080J0D01*
G01*
X213080Y355000D02*
G03*
X213080Y355000I-5080J0D01*
G01*
X217080Y371000D02*
G03*
X217080Y371000I-5080J0D01*
G01*
X218080Y381000D02*
G03*
X218080Y381000I-5080J0D01*
G01*
X190442Y374638D02*
G03*
X190442Y374638I-5080J0D01*
G01*
X202080Y380084D02*
G03*
X202080Y380084I-5080J0D01*
G01*
X171080Y38000D02*
G03*
X171080Y38000I-5080J0D01*
G01*
X187580Y4000D02*
G03*
X187580Y4000I-5080J0D01*
G01*
X177080Y11184D02*
G03*
X177080Y11184I-5080J0D01*
G01*
X173080Y79000D02*
G03*
X173080Y79000I-5080J0D01*
G01*
X71051Y11854D02*
G03*
X71051Y11854I-5080J0D01*
G01*
X41080Y449000D02*
G03*
X41080Y449000I-5080J0D01*
G01*
X14080Y290000D02*
G03*
X14080Y290000I-5080J0D01*
G01*
X153080Y302000D02*
G03*
X153080Y302000I-5080J0D01*
G01*
X14080Y51000D02*
G03*
X14080Y51000I-5080J0D01*
G01*
Y153000D02*
G03*
X14080Y153000I-5080J0D01*
G01*
X19080Y206000D02*
G03*
X19080Y206000I-5080J0D01*
G01*
X12080D02*
G03*
X12080Y206000I-5080J0D01*
G01*
X15080Y135000D02*
G03*
X15080Y135000I-5080J0D01*
G01*
X16080Y215000D02*
G03*
X16080Y215000I-5080J0D01*
G01*
X13080Y461000D02*
G03*
X13080Y461000I-5080J0D01*
G01*
X10080Y278000D02*
G03*
X10080Y278000I-5080J0D01*
G01*
X43080Y45000D02*
G03*
X43080Y45000I-5080J0D01*
G01*
X176080Y113000D02*
G03*
X176080Y113000I-5080J0D01*
G01*
X216080Y251000D02*
G03*
X216080Y251000I-5080J0D01*
G01*
X211330Y273500D02*
G03*
X211330Y273500I-5080J0D01*
G01*
Y309500D02*
G03*
X211330Y309500I-5080J0D01*
G01*
X186080Y320000D02*
G03*
X186080Y320000I-5080J0D01*
G01*
X158080Y240000D02*
G03*
X158080Y240000I-5080J0D01*
G01*
X143580D02*
G03*
X143580Y240000I-5080J0D01*
G01*
X140080Y134000D02*
G03*
X140080Y134000I-5080J0D01*
G01*
X149080D02*
G03*
X149080Y134000I-5080J0D01*
G01*
X28364Y106316D02*
G03*
X28364Y106316I-5080J0D01*
G01*
X27399Y436892D02*
G03*
X27399Y436892I-5080J0D01*
G01*
X36850Y437572D02*
G03*
X36850Y437572I-5080J0D01*
G01*
X29080Y317000D02*
G03*
X29080Y317000I-5080J0D01*
G01*
X12080Y328000D02*
G03*
X12080Y328000I-5080J0D01*
G01*
X40080Y373000D02*
G03*
X40080Y373000I-5080J0D01*
G01*
X76045Y347536D02*
G03*
X76045Y347536I-5080J0D01*
G01*
X100824Y439318D02*
G03*
X100824Y439318I-5080J0D01*
G01*
X149080Y240000D02*
G03*
X149080Y240000I-5080J0D01*
G01*
X77080Y16000D02*
G03*
X77080Y16000I-5080J0D01*
G01*
X78080Y126000D02*
G03*
X78080Y126000I-5080J0D01*
G01*
X77080Y117000D02*
G03*
X77080Y117000I-5080J0D01*
G01*
X218080Y214500D02*
G03*
X218080Y214500I-5080J0D01*
G01*
X214080Y219500D02*
G03*
X214080Y219500I-5080J0D01*
G01*
X219080Y184500D02*
G03*
X219080Y184500I-5080J0D01*
G01*
X218080Y171500D02*
G03*
X218080Y171500I-5080J0D01*
G01*
X247080Y211000D02*
G03*
X247080Y211000I-5080J0D01*
G01*
Y216500D02*
G03*
X247080Y216500I-5080J0D01*
G01*
Y186000D02*
G03*
X247080Y186000I-5080J0D01*
G01*
Y191500D02*
G03*
X247080Y191500I-5080J0D01*
G01*
Y161000D02*
G03*
X247080Y161000I-5080J0D01*
G01*
Y166500D02*
G03*
X247080Y166500I-5080J0D01*
G01*
X214080Y146500D02*
G03*
X214080Y146500I-5080J0D01*
G01*
X217080Y153500D02*
G03*
X217080Y153500I-5080J0D01*
G01*
X108364Y36284D02*
G03*
X108364Y36284I-5080J0D01*
G01*
X18364Y106316D02*
G03*
X18364Y106316I-5080J0D01*
G01*
X121080Y217000D02*
G03*
X121080Y217000I-5080J0D01*
G01*
X108364Y346284D02*
G03*
X108364Y346284I-5080J0D01*
G01*
X38364Y356316D02*
G03*
X38364Y356316I-5080J0D01*
G01*
X58364Y346284D02*
G03*
X58364Y346284I-5080J0D01*
G01*
Y356284D02*
G03*
X58364Y356284I-5080J0D01*
G01*
X76080Y358000D02*
G03*
X76080Y358000I-5080J0D01*
G01*
X28396Y356284D02*
G03*
X28396Y356284I-5080J0D01*
G01*
Y426316D02*
G03*
X28396Y426316I-5080J0D01*
G01*
X108396D02*
G03*
X108396Y426316I-5080J0D01*
G01*
X128396Y386316D02*
G03*
X128396Y386316I-5080J0D01*
G01*
Y366284D02*
G03*
X128396Y366284I-5080J0D01*
G01*
X108364Y306284D02*
G03*
X108364Y306284I-5080J0D01*
G01*
Y316284D02*
G03*
X108364Y316284I-5080J0D01*
G01*
X48396Y306284D02*
G03*
X48396Y306284I-5080J0D01*
G01*
X108396Y246316D02*
G03*
X108396Y246316I-5080J0D01*
G01*
X58364Y236284D02*
G03*
X58364Y236284I-5080J0D01*
G01*
X68364Y246316D02*
G03*
X68364Y246316I-5080J0D01*
G01*
X88364Y256316D02*
G03*
X88364Y256316I-5080J0D01*
G01*
X38364D02*
G03*
X38364Y256316I-5080J0D01*
G01*
Y246316D02*
G03*
X38364Y246316I-5080J0D01*
G01*
X58364Y246284D02*
G03*
X58364Y246284I-5080J0D01*
G01*
X28364Y246316D02*
G03*
X28364Y246316I-5080J0D01*
G01*
X38364Y216316D02*
G03*
X38364Y216316I-5080J0D01*
G01*
X28364D02*
G03*
X28364Y216316I-5080J0D01*
G01*
X103514Y125627D02*
G03*
X103514Y125627I-5080J0D01*
G01*
X48396Y86284D02*
G03*
X48396Y86284I-5080J0D01*
G01*
X38364Y96284D02*
G03*
X38364Y96284I-5080J0D01*
G01*
X128396Y46284D02*
G03*
X128396Y46284I-5080J0D01*
G01*
Y36284D02*
G03*
X128396Y36284I-5080J0D01*
G01*
X118364Y36316D02*
G03*
X118364Y36316I-5080J0D01*
G01*
X108364Y16284D02*
G03*
X108364Y16284I-5080J0D01*
G01*
X38364Y26284D02*
G03*
X38364Y26284I-5080J0D01*
G01*
X58364D02*
G03*
X58364Y26284I-5080J0D01*
G01*
X108396Y96316D02*
G03*
X108396Y96316I-5080J0D01*
G01*
X28364D02*
G03*
X28364Y96316I-5080J0D01*
G01*
X18364D02*
G03*
X18364Y96316I-5080J0D01*
G01*
X28364Y136316D02*
G03*
X28364Y136316I-5080J0D01*
G01*
X60080Y125000D02*
G03*
X60080Y125000I-5080J0D01*
G01*
X58364Y136284D02*
G03*
X58364Y136284I-5080J0D01*
G01*
X38364Y16284D02*
G03*
X38364Y16284I-5080J0D01*
G01*
X58364D02*
G03*
X58364Y16284I-5080J0D01*
G01*
X18364Y26284D02*
G03*
X18364Y26284I-5080J0D01*
G01*
X28364Y16284D02*
G03*
X28364Y16284I-5080J0D01*
G01*
X108396Y146316D02*
G03*
X108396Y146316I-5080J0D01*
G01*
X118364Y136316D02*
G03*
X118364Y136316I-5080J0D01*
G01*
X78364Y136284D02*
G03*
X78364Y136284I-5080J0D01*
G01*
Y176284D02*
G03*
X78364Y176284I-5080J0D01*
G01*
X88396D02*
G03*
X88396Y176284I-5080J0D01*
G01*
X78396Y166316D02*
G03*
X78396Y166316I-5080J0D01*
G01*
X88364D02*
G03*
X88364Y166316I-5080J0D01*
G01*
X131080Y152000D02*
G03*
X131080Y152000I-5080J0D01*
G01*
X155618Y150236D02*
G03*
X155618Y150236I-5080J0D01*
G01*
X144080Y170000D02*
G03*
X144080Y170000I-5080J0D01*
G01*
X150080D02*
G03*
X150080Y170000I-5080J0D01*
G01*
X54330Y185500D02*
G03*
X54330Y185500I-5080J0D01*
G01*
X70991Y158689D02*
G03*
X70991Y158689I-5080J0D01*
G01*
X129080Y201000D02*
G03*
X129080Y201000I-5080J0D01*
G01*
X78080Y25000D02*
G03*
X78080Y25000I-5080J0D01*
G01*
X78396Y396284D02*
G03*
X78396Y396284I-5080J0D01*
G01*
Y386316D02*
G03*
X78396Y386316I-5080J0D01*
G01*
X88364D02*
G03*
X88364Y386316I-5080J0D01*
G01*
Y396284D02*
G03*
X88364Y396284I-5080J0D01*
G01*
X57080Y405000D02*
G03*
X57080Y405000I-5080J0D01*
G01*
X70991Y378689D02*
G03*
X70991Y378689I-5080J0D01*
G01*
X57435Y145419D02*
G03*
X57435Y145419I-5080J0D01*
G01*
X131080Y135000D02*
G03*
X131080Y135000I-5080J0D01*
G01*
X98396Y146316D02*
G03*
X98396Y146316I-5080J0D01*
G01*
X133080Y180500D02*
G03*
X133080Y180500I-5080J0D01*
G01*
X69238Y185442D02*
G03*
X69238Y185442I-5080J0D01*
G01*
X151830Y201750D02*
G03*
X151830Y201750I-5080J0D01*
G01*
X108364Y86284D02*
G03*
X108364Y86284I-5080J0D01*
G01*
X88364Y36316D02*
G03*
X88364Y36316I-5080J0D01*
G01*
X38396Y316316D02*
G03*
X38396Y316316I-5080J0D01*
G01*
X118396Y426316D02*
G03*
X118396Y426316I-5080J0D01*
G01*
X28364Y416284D02*
G03*
X28364Y416284I-5080J0D01*
G01*
X127516Y357723D02*
G03*
X127516Y357723I-5080J0D01*
G01*
X38364Y366316D02*
G03*
X38364Y366316I-5080J0D01*
G01*
X69380Y405875D02*
G03*
X69380Y405875I-5080J0D01*
G01*
X97080Y365000D02*
G03*
X97080Y365000I-5080J0D01*
G01*
X92080Y191000D02*
G03*
X92080Y191000I-5080J0D01*
G01*
Y415000D02*
G03*
X92080Y415000I-5080J0D01*
G01*
X135080Y148000D02*
G03*
X135080Y148000I-5080J0D01*
G01*
X145080Y145750D02*
G03*
X145080Y145750I-5080J0D01*
G01*
X141080Y186000D02*
G03*
X141080Y186000I-5080J0D01*
G01*
X150080Y188000D02*
G03*
X150080Y188000I-5080J0D01*
G01*
X119335Y175972D02*
G03*
X119335Y175972I-5080J0D01*
G01*
X118886Y165557D02*
G03*
X118886Y165557I-5080J0D01*
G01*
X49325Y207197D02*
G03*
X49325Y207197I-5080J0D01*
G01*
X77435Y205403D02*
G03*
X77435Y205403I-5080J0D01*
G01*
X69277Y215354D02*
G03*
X69277Y215354I-5080J0D01*
G01*
X67435Y205403D02*
G03*
X67435Y205403I-5080J0D01*
G01*
X59325Y207197D02*
G03*
X59325Y207197I-5080J0D01*
G01*
X57483Y197246D02*
G03*
X57483Y197246I-5080J0D01*
G01*
X97080Y412000D02*
G03*
X97080Y412000I-5080J0D01*
G01*
X102080Y408000D02*
G03*
X102080Y408000I-5080J0D01*
G01*
X97080Y372000D02*
G03*
X97080Y372000I-5080J0D01*
G01*
X102080Y376000D02*
G03*
X102080Y376000I-5080J0D01*
G01*
X106080Y388000D02*
G03*
X106080Y388000I-5080J0D01*
G01*
Y396000D02*
G03*
X106080Y396000I-5080J0D01*
G01*
X49325Y427197D02*
G03*
X49325Y427197I-5080J0D01*
G01*
X78080Y372000D02*
G03*
X78080Y372000I-5080J0D01*
G01*
X78396Y306284D02*
G03*
X78396Y306284I-5080J0D01*
G01*
X68396D02*
G03*
X68396Y306284I-5080J0D01*
G01*
X58396D02*
G03*
X58396Y306284I-5080J0D01*
G01*
X78396Y316284D02*
G03*
X78396Y316284I-5080J0D01*
G01*
X68396D02*
G03*
X68396Y316284I-5080J0D01*
G01*
X58396D02*
G03*
X58396Y316284I-5080J0D01*
G01*
X69277Y435354D02*
G03*
X69277Y435354I-5080J0D01*
G01*
X67435Y425403D02*
G03*
X67435Y425403I-5080J0D01*
G01*
X59325Y427197D02*
G03*
X59325Y427197I-5080J0D01*
G01*
X57483Y417245D02*
G03*
X57483Y417245I-5080J0D01*
G01*
X58080Y386000D02*
G03*
X58080Y386000I-5080J0D01*
G01*
X72080Y411000D02*
G03*
X72080Y411000I-5080J0D01*
G01*
X82080Y413000D02*
G03*
X82080Y413000I-5080J0D01*
G01*
X58080Y396000D02*
G03*
X58080Y396000I-5080J0D01*
G01*
X89080Y371000D02*
G03*
X89080Y371000I-5080J0D01*
G01*
X77435Y425403D02*
G03*
X77435Y425403I-5080J0D01*
G01*
M02*
