M48
;Layer_Color=9474304
;FILE_FORMAT=4:3
METRIC,TZ
;TYPE=PLATED
T01F00S00C0.200
T02F00S00C2.200
%
T01
X900Y600
X600Y1400
X1328Y2628
X2328Y1628
X3328
Y2628
X5328
Y1628
X6597Y1185
X6800Y500
X7200Y1600
X7300Y2500
X6837Y4047
X7818Y4562
X8328Y3632
X10328Y3628
X9898Y4071
X11328Y3632
X12332Y3628
Y4628
X12500Y5500
X12600Y7800
X13663Y8825
X15000Y10000
X15700Y11500
X17100Y11300
X18300
X18100Y10100
X16800Y7900
X17325Y7346
X16100Y6200
X15000Y5200
X14992Y4692
X14708Y4113
X13997Y4103
X16600Y3800
X17297Y3003
X17300Y2400
X17200Y1118
X18250Y400
X15700Y2000
X15100
X10328Y1628
X10300Y2600
X8800Y1500
X8324Y6588
X7831Y7620
X8849Y7612
X6842Y7698
X5842
X6332Y8628
Y9628
X5332
Y8628
X4332
X3328Y9628
X2328Y9632
Y10632
X1328
Y9632
X1000Y7900
X900Y5100
X500Y4650
X3800Y4500
X5300Y4100
X3897Y7003
X4597Y10803
X5500Y12500
X5328Y13628
X5235Y14542
X4000Y15400
X5300Y16600
Y17600
X4925Y18550
X5240Y19725
X5425Y20720
X6235Y20540
X7235
X7700Y19300
X6700Y19100
X6416Y18544
X7328Y17628
X7332Y16632
X8328
X8332Y17628
X8700Y19100
X8197Y22003
X6420Y21535
X5900Y22500
X5197Y22303
X4500Y22500
X4425Y20720
X3328Y21632
X2328
X1100Y21500
X1400Y20600
X700
X1100Y17900
X900Y16900
Y15900
Y15300
X1000Y13500
X2328Y13632
X7328Y13628
X7300Y12600
X7200Y11700
X7332Y9628
Y8628
X10328
X10332Y9632
X9843Y12563
X11328Y13632
X12600Y13500
X13500Y13400
X14400
X15475Y13800
X15054Y15024
X14000Y14575
X13000Y14800
X12600Y15200
X11381Y16556
X11426Y17597
X12800Y18050
X13600Y18600
X14500Y18800
X14675Y20175
X15600Y20400
Y21100
X14900Y21200
X15300Y24000
X14400
X13850
X12400Y23700
X11600Y21700
X12400Y20100
X13900Y17000
X14500
X10332Y14632
X9332
X8400Y15100
X7300Y15200
X6591Y15869
X5328Y23628
Y24628
X6328Y24632
X6327Y25630
X6500Y26300
X8328Y25632
X9100Y26100
X10332Y24632
X10397Y28603
X10400Y29700
X10328Y30628
Y31628
X7332Y31628
Y30628
X6332
X5332
X4332Y30628
X3700Y29500
X3400Y27600
X3997Y27503
X3328Y25632
Y24632
X2328
X1100Y25300
X500Y27800
X900Y29000
X1245Y30155
X1100Y31400
X1800Y31500
X2400Y31700
X3332Y31632
X5332Y31628
X6332
X4697Y33103
X5328Y34628
Y35628
X7100Y35800
X7096Y34754
X10328Y34628
X12244Y35772
X13497Y35203
X15400Y35900
X15500Y34400
X16600Y34300
X17217Y34332
X17900Y35900
X18100Y32000
X16100Y29400
X15100Y29300
X14800Y30200
X16097Y27703
Y26203
X17700Y20700
X2737Y22975
X700Y32800
X497Y33803
Y36003
X2332Y35628
X3328Y35632
X7912Y29750
X2800Y550
X19500Y900
X22400Y1900
X23297Y1503
Y703
X23000Y7500
X19588Y7588
X19650Y8150
X21554Y12546
X20700Y13800
X20900Y14650
X21200Y15350
X19797Y15203
Y16003
X21300Y17150
X21400Y18450
X19997Y19703
Y20503
Y21403
X19000Y21400
X18997Y20503
X19497Y22503
X19600Y23400
X18880Y24923
X21100Y25100
X20625Y27350
X21500Y29500
X20625Y30950
X20297Y33303
X18997
X20800Y35500
X21400Y36100
X25400Y36000
Y32600
X25300Y29600
Y29000
Y28200
X23708Y27970
X23702Y28465
X23700Y27200
X23707Y26640
X26200Y25700
Y24500
X24400Y23300
Y22800
X24200Y21650
Y21100
Y19150
Y18600
X24197Y17903
X24200Y17300
X24200Y16650
Y16100
X23897Y15303
X26000Y11700
X24800Y10400
X21300Y21450
X20900Y21950
X21200Y37100
X21300Y38100
X19700Y38008
X18536Y37464
X18797Y43603
X18957Y44399
X19200Y45600
X24497Y43503
X25497
Y42503
X26697Y42603
Y43503
X26500Y41700
X25975Y39775
X25979Y38728
X26500Y36900
X23700Y40700
X18100Y41900
X15300Y42700
X15297Y43603
X13000Y43700
X13197Y45703
X14197
X14000Y41900
X13297Y41503
X12597
X11332Y42632
X10332
X9300Y42700
X9574Y43932
X9400Y45600
X7397Y45003
X6420Y43535
X6235Y42540
X5425Y42720
X4425
X5240Y41725
X5200Y40500
X5300Y39600
Y38600
X6591Y37869
X7300Y37200
X8400Y37100
X9200Y37200
Y36500
X9700Y37600
X10297Y38103
X10100Y38800
Y39600
X9700Y40800
X9200Y41200
X8700Y41500
X7700Y41300
X6700Y41100
X6430Y40588
X7332Y39628
Y38632
X8328
Y39628
X7235Y42540
X2332Y42632
X2328Y41628
X1003Y41829
X950Y40800
X497Y38903
Y37503
X3500Y37300
X3328Y36632
X3177Y43757
X2232Y43689
X1697Y44903
Y45503
X800Y46100
X400Y43600
X3600Y44900
X12332Y38632
Y36628
X14000Y39900
T02
X21500Y5000
Y43900
X5700Y47000
M30
