G04*
G04 #@! TF.GenerationSoftware,Altium Limited,Altium Designer,24.9.1 (31)*
G04*
G04 Layer_Color=128*
%FSLAX44Y44*%
%MOMM*%
G71*
G04*
G04 #@! TF.SameCoordinates,3E31175B-2F74-4D0F-94E8-FEE4F86157FB*
G04*
G04*
G04 #@! TF.FilePolarity,Positive*
G04*
G01*
G75*
%ADD12C,0.1270*%
D12*
X204000Y439000D02*
X226000D01*
X215000Y428000D02*
Y450000D01*
X46000Y470000D02*
X68000D01*
X57000Y459000D02*
Y481000D01*
X204000Y50000D02*
X226000D01*
X215000Y39000D02*
Y61000D01*
X194878Y75878D02*
X196878D01*
X195878Y74878D02*
Y76878D01*
X195500Y81500D02*
X197500D01*
X196500Y80500D02*
Y82500D01*
X236084Y279702D02*
X238084D01*
X237084Y278702D02*
Y280702D01*
X236018Y284650D02*
X238018D01*
X237018Y283650D02*
Y285650D01*
X180000Y419000D02*
X182000D01*
X181000Y418000D02*
Y420000D01*
X149000Y100000D02*
X151000D01*
X150000Y99000D02*
Y101000D01*
X148000Y212000D02*
X150000D01*
X149000Y211000D02*
Y213000D01*
X10000Y314000D02*
X12000D01*
X11000Y313000D02*
Y315000D01*
X17000D02*
X19000D01*
X18000Y314000D02*
Y316000D01*
X90000Y261000D02*
X92000D01*
X91000Y260000D02*
Y262000D01*
X62270Y256298D02*
X64270D01*
X63270Y255298D02*
Y257298D01*
X64000Y263000D02*
X66000D01*
X65000Y262000D02*
Y264000D01*
X5000Y14000D02*
X7000D01*
X6000Y13000D02*
Y15000D01*
X154000Y344000D02*
X156000D01*
X155000Y343000D02*
Y345000D01*
X9026Y418292D02*
X11026D01*
X10026Y417292D02*
Y419292D01*
X8500Y408000D02*
X10500D01*
X9500Y407000D02*
Y409000D01*
X129000Y437000D02*
X131000D01*
X130000Y436000D02*
Y438000D01*
X39000Y154000D02*
X41000D01*
X40000Y153000D02*
Y155000D01*
X10000Y179000D02*
X12000D01*
X11000Y178000D02*
Y180000D01*
X8000Y169000D02*
X10000D01*
X9000Y168000D02*
Y170000D01*
X131968Y415032D02*
X133968D01*
X132968Y414032D02*
Y416032D01*
X124968Y415032D02*
X126968D01*
X125968Y414032D02*
Y416032D01*
X201968Y333032D02*
X203968D01*
X202968Y332032D02*
Y334032D01*
X240968Y179032D02*
X242968D01*
X241968Y178032D02*
Y180032D01*
X237968Y153032D02*
X239968D01*
X238968Y152032D02*
Y154032D01*
X241000Y173000D02*
X243000D01*
X242000Y172000D02*
Y174000D01*
X196968Y160032D02*
X198968D01*
X197968Y159032D02*
Y161032D01*
X196968Y152032D02*
X198968D01*
X197968Y151032D02*
Y153032D01*
X172253Y73457D02*
X174252D01*
X173253Y72457D02*
Y74457D01*
X231968Y15032D02*
X233968D01*
X232968Y14032D02*
Y16032D01*
X231968Y7032D02*
X233968D01*
X232968Y6032D02*
Y8032D01*
X37968Y70032D02*
X39968D01*
X38968Y69032D02*
Y71032D01*
X9000Y79000D02*
X11000D01*
X10000Y78000D02*
Y80000D01*
X80968Y220032D02*
X82968D01*
X81968Y219032D02*
Y221032D01*
X50968Y223032D02*
X52968D01*
X51968Y222032D02*
Y224032D01*
X3968Y375032D02*
X5968D01*
X4968Y374032D02*
Y376032D01*
X3968Y360032D02*
X5968D01*
X4968Y359032D02*
Y361032D01*
X3968Y338032D02*
X5968D01*
X4968Y337032D02*
Y339032D01*
X45968Y331032D02*
X47968D01*
X46968Y330032D02*
Y332032D01*
X3968Y389032D02*
X5968D01*
X4968Y388032D02*
Y390032D01*
X15968Y449032D02*
X17968D01*
X16968Y448032D02*
Y450032D01*
X15968Y455032D02*
X17968D01*
X16968Y454032D02*
Y456032D01*
X72968Y450032D02*
X74968D01*
X73968Y449032D02*
Y451032D01*
X140968Y457032D02*
X142968D01*
X141968Y456032D02*
Y458032D01*
X130968Y457032D02*
X132968D01*
X131968Y456032D02*
Y458032D01*
X253968Y425032D02*
X255968D01*
X254968Y424032D02*
Y426032D01*
X265968Y426032D02*
X267968D01*
X266968Y425032D02*
Y427032D01*
X253968Y435032D02*
X255968D01*
X254968Y434032D02*
Y436032D01*
X243968Y435032D02*
X245968D01*
X244968Y434032D02*
Y436032D01*
X265968Y435032D02*
X267968D01*
X266968Y434032D02*
Y436032D01*
X188569Y443988D02*
X190569D01*
X189569Y442988D02*
Y444988D01*
X186968Y436032D02*
X188968D01*
X187968Y435032D02*
Y437032D01*
X152000Y427000D02*
X154000D01*
X153000Y426000D02*
Y428000D01*
X151968Y436032D02*
X153968D01*
X152968Y435032D02*
Y437032D01*
X133968Y352032D02*
X135968D01*
X134968Y351032D02*
Y353032D01*
X101968Y381032D02*
X103968D01*
X102968Y380032D02*
Y382032D01*
X188968Y333032D02*
X190968D01*
X189968Y332032D02*
Y334032D01*
X159968Y277032D02*
X161968D01*
X160968Y276032D02*
Y278032D01*
X159968Y262032D02*
X161968D01*
X160968Y261032D02*
Y263032D01*
X102968Y286032D02*
X104968D01*
X103968Y285032D02*
Y287032D01*
X38968Y275032D02*
X40968D01*
X39968Y274032D02*
Y276032D01*
X193968Y225032D02*
X195968D01*
X194968Y224032D02*
Y226032D01*
X188968Y205032D02*
X190968D01*
X189968Y204032D02*
Y206032D01*
X189000Y214000D02*
X191000D01*
X190000Y213000D02*
Y215000D01*
X198968Y197032D02*
X200968D01*
X199968Y196032D02*
Y198032D01*
X198968Y205032D02*
X200968D01*
X199968Y204032D02*
Y206032D01*
X198968Y214032D02*
X200968D01*
X199968Y213032D02*
Y215032D01*
X252000Y296000D02*
X254000D01*
X253000Y295000D02*
Y297000D01*
X236073Y266396D02*
X238073D01*
X237073Y265396D02*
Y267396D01*
X236000Y272000D02*
X238000D01*
X237000Y271000D02*
Y273000D01*
X243000Y228000D02*
X245000D01*
X244000Y227000D02*
Y229000D01*
X243000Y233000D02*
X245000D01*
X244000Y232000D02*
Y234000D01*
X138968Y41032D02*
X140968D01*
X139968Y40032D02*
Y42032D01*
X146080Y41127D02*
X148080D01*
X147080Y40127D02*
Y42127D01*
X171968Y30032D02*
X173968D01*
X172968Y29032D02*
Y31032D01*
X44968Y108032D02*
X46968D01*
X45968Y107032D02*
Y109032D01*
X36000Y295000D02*
X38000D01*
X37000Y294000D02*
Y296000D01*
X78125Y297500D02*
X80125D01*
X79125Y296500D02*
Y298500D01*
X103000Y297000D02*
X105000D01*
X104000Y296000D02*
Y298000D01*
X160000Y294000D02*
X162000D01*
X161000Y293000D02*
Y295000D01*
X123000Y237000D02*
X125000D01*
X124000Y236000D02*
Y238000D01*
X26375Y229750D02*
X28375D01*
X27375Y228750D02*
Y230750D01*
X44000Y225000D02*
X46000D01*
X45000Y224000D02*
Y226000D01*
X58000Y225000D02*
X60000D01*
X59000Y224000D02*
Y226000D01*
X247000Y104000D02*
X249000D01*
X248000Y103000D02*
Y105000D01*
X259000Y117000D02*
X261000D01*
X260000Y116000D02*
Y118000D01*
X229000Y75000D02*
X231000D01*
X230000Y74000D02*
Y76000D01*
X223000Y19000D02*
X225000D01*
X224000Y18000D02*
Y20000D01*
X172000Y24000D02*
X174000D01*
X173000Y23000D02*
Y25000D01*
X27000Y5500D02*
X29000D01*
X28000Y4500D02*
Y6500D01*
X8000Y6000D02*
X10000D01*
X9000Y5000D02*
Y7000D01*
X156000Y115000D02*
X158000D01*
X157000Y114000D02*
Y116000D01*
X180000Y101000D02*
X182000D01*
X181000Y100000D02*
Y102000D01*
X214536Y125464D02*
X216536D01*
X215536Y124464D02*
Y126464D01*
X82240Y65881D02*
X84240D01*
X83240Y64881D02*
Y66881D01*
X87000Y15000D02*
X89000D01*
X88000Y14000D02*
Y16000D01*
X102000Y26000D02*
X104000D01*
X103000Y25000D02*
Y27000D01*
X97984Y40708D02*
X99984D01*
X98984Y39708D02*
Y41708D01*
X67372Y40470D02*
X69372D01*
X68372Y39470D02*
Y41470D01*
X77182Y45625D02*
X79182D01*
X78182Y44625D02*
Y46625D01*
X77312Y76201D02*
X79312D01*
X78312Y75201D02*
Y77201D01*
X87492Y76123D02*
X89492D01*
X88492Y75124D02*
Y77123D01*
X67418Y76975D02*
X69418D01*
X68418Y75975D02*
Y77975D01*
X57418Y76975D02*
X59418D01*
X58418Y75975D02*
Y77975D01*
X10000Y253000D02*
X12000D01*
X11000Y252000D02*
Y254000D01*
X33000Y276000D02*
X35000D01*
X34000Y275000D02*
Y277000D01*
X11448Y301549D02*
X13448D01*
X12448Y300549D02*
Y302549D01*
X236000Y407000D02*
X238000D01*
X237000Y406000D02*
Y408000D01*
X139000Y419000D02*
X141000D01*
X140000Y418000D02*
Y420000D01*
X165000Y343000D02*
X167000D01*
X166000Y342000D02*
Y344000D01*
X264000Y417000D02*
X266000D01*
X265000Y416000D02*
Y418000D01*
X264000Y369000D02*
X266000D01*
X265000Y368000D02*
Y370000D01*
X93000Y456000D02*
X95000D01*
X94000Y455000D02*
Y457000D01*
X191000Y456000D02*
X193000D01*
X192000Y455000D02*
Y457000D01*
X206000Y138000D02*
X208000D01*
X207000Y137000D02*
Y139000D01*
X52000Y41000D02*
X54000D01*
X53000Y40000D02*
Y42000D01*
X135625Y88250D02*
X137625D01*
X136625Y87250D02*
Y89250D01*
X149000Y52000D02*
X151000D01*
X150000Y51000D02*
Y53000D01*
X153750Y138000D02*
X155750D01*
X154750Y137000D02*
Y139000D01*
X253000Y360000D02*
X255000D01*
X254000Y359000D02*
Y361000D01*
X150000Y20000D02*
X152000D01*
X151000Y19000D02*
Y21000D01*
X156000Y20000D02*
X158000D01*
X157000Y19000D02*
Y21000D01*
X67000Y5000D02*
X69000D01*
X68000Y4000D02*
Y6000D01*
X8000Y159000D02*
X10000D01*
X9000Y158000D02*
Y160000D01*
X3000Y436000D02*
X5000D01*
X4000Y435000D02*
Y437000D01*
Y46500D02*
X6000D01*
X5000Y45500D02*
Y47500D01*
X182000Y113000D02*
X184000D01*
X183000Y112000D02*
Y114000D01*
X125000Y78000D02*
X127000D01*
X126000Y77000D02*
Y79000D01*
X124000Y55000D02*
X126000D01*
X125000Y54000D02*
Y56000D01*
X194000Y9000D02*
X196000D01*
X195000Y8000D02*
Y10000D01*
X160000Y62000D02*
X162000D01*
X161000Y61000D02*
Y63000D01*
X252000Y282000D02*
X254000D01*
X253000Y281000D02*
Y283000D01*
X252000Y290000D02*
X254000D01*
X253000Y289000D02*
Y291000D01*
Y326000D02*
X255000D01*
X254000Y325000D02*
Y327000D01*
X72000Y152000D02*
X74000D01*
X73000Y151000D02*
Y153000D01*
X72316Y96284D02*
X74316D01*
X73316Y95284D02*
Y97284D01*
X83000Y151000D02*
X85000D01*
X84000Y150000D02*
Y152000D01*
X62316Y96284D02*
X64316D01*
X63316Y95284D02*
Y97284D01*
X52316Y96284D02*
X54316D01*
X53316Y95284D02*
Y97284D01*
X52000Y166000D02*
X54000D01*
X53000Y165000D02*
Y167000D01*
X66000Y191000D02*
X68000D01*
X67000Y190000D02*
Y192000D01*
X76000Y193000D02*
X78000D01*
X77000Y192000D02*
Y194000D01*
X52000Y176000D02*
X54000D01*
X53000Y175000D02*
Y177000D01*
X72316Y86284D02*
X74316D01*
X73316Y85284D02*
Y87284D01*
X62316Y86284D02*
X64316D01*
X63316Y85284D02*
Y87284D01*
X52316Y86284D02*
X54316D01*
X53316Y85284D02*
Y87284D01*
X214000Y295000D02*
X216000D01*
X215000Y294000D02*
Y296000D01*
X176000Y207000D02*
X178000D01*
X177000Y206000D02*
Y208000D01*
X171170Y343322D02*
X173170D01*
X172170Y342322D02*
Y344322D01*
X258750Y397750D02*
X260750D01*
X259750Y396750D02*
Y398750D01*
X258787Y387277D02*
X260787D01*
X259787Y386277D02*
Y388277D01*
X261000Y245000D02*
X263000D01*
X262000Y244000D02*
Y246000D01*
X261000Y257000D02*
X263000D01*
X262000Y256000D02*
Y258000D01*
X139000Y399000D02*
X141000D01*
X140000Y398000D02*
Y400000D01*
X187800Y249228D02*
X189800D01*
X188800Y248228D02*
Y250228D01*
X155000Y204000D02*
X157000D01*
X156000Y203000D02*
Y205000D01*
X195000Y234000D02*
X197000D01*
X196000Y233000D02*
Y235000D01*
X155000Y211000D02*
X157000D01*
X156000Y210000D02*
Y212000D01*
X178000Y359000D02*
X180000D01*
X179000Y358000D02*
Y360000D01*
X153000Y359000D02*
X155000D01*
X154000Y358000D02*
Y360000D01*
X150000Y293000D02*
X152000D01*
X151000Y292000D02*
Y294000D01*
X213000Y361000D02*
X215000D01*
X214000Y360000D02*
Y362000D01*
X207000Y355000D02*
X209000D01*
X208000Y354000D02*
Y356000D01*
X211000Y371000D02*
X213000D01*
X212000Y370000D02*
Y372000D01*
Y381000D02*
X214000D01*
X213000Y380000D02*
Y382000D01*
X184362Y374638D02*
X186362D01*
X185362Y373638D02*
Y375638D01*
X196000Y380084D02*
X198000D01*
X197000Y379084D02*
Y381084D01*
X165000Y38000D02*
X167000D01*
X166000Y37000D02*
Y39000D01*
X181500Y4000D02*
X183500D01*
X182500Y3000D02*
Y5000D01*
X171000Y11184D02*
X173000D01*
X172000Y10184D02*
Y12184D01*
X167000Y79000D02*
X169000D01*
X168000Y78000D02*
Y80000D01*
X64971Y11854D02*
X66971D01*
X65971Y10854D02*
Y12854D01*
X35000Y449000D02*
X37000D01*
X36000Y448000D02*
Y450000D01*
X8000Y290000D02*
X10000D01*
X9000Y289000D02*
Y291000D01*
X147000Y302000D02*
X149000D01*
X148000Y301000D02*
Y303000D01*
X8000Y51000D02*
X10000D01*
X9000Y50000D02*
Y52000D01*
X8000Y153000D02*
X10000D01*
X9000Y152000D02*
Y154000D01*
X13000Y206000D02*
X15000D01*
X14000Y205000D02*
Y207000D01*
X6000Y206000D02*
X8000D01*
X7000Y205000D02*
Y207000D01*
X9000Y135000D02*
X11000D01*
X10000Y134000D02*
Y136000D01*
Y215000D02*
X12000D01*
X11000Y214000D02*
Y216000D01*
X7000Y461000D02*
X9000D01*
X8000Y460000D02*
Y462000D01*
X4000Y278000D02*
X6000D01*
X5000Y277000D02*
Y279000D01*
X37000Y45000D02*
X39000D01*
X38000Y44000D02*
Y46000D01*
X170000Y113000D02*
X172000D01*
X171000Y112000D02*
Y114000D01*
X210000Y251000D02*
X212000D01*
X211000Y250000D02*
Y252000D01*
X205250Y273500D02*
X207250D01*
X206250Y272500D02*
Y274500D01*
X205250Y309500D02*
X207250D01*
X206250Y308500D02*
Y310500D01*
X180000Y320000D02*
X182000D01*
X181000Y319000D02*
Y321000D01*
X152000Y240000D02*
X154000D01*
X153000Y239000D02*
Y241000D01*
X137500Y240000D02*
X139500D01*
X138500Y239000D02*
Y241000D01*
X134000Y134000D02*
X136000D01*
X135000Y133000D02*
Y135000D01*
X143000Y134000D02*
X145000D01*
X144000Y133000D02*
Y135000D01*
X22284Y106316D02*
X24284D01*
X23284Y105316D02*
Y107316D01*
X21319Y436892D02*
X23319D01*
X22319Y435892D02*
Y437892D01*
X30770Y437572D02*
X32770D01*
X31770Y436572D02*
Y438572D01*
X23000Y317000D02*
X25000D01*
X24000Y316000D02*
Y318000D01*
X6000Y328000D02*
X8000D01*
X7000Y327000D02*
Y329000D01*
X34000Y373000D02*
X36000D01*
X35000Y372000D02*
Y374000D01*
X69964Y347536D02*
X71964D01*
X70964Y346535D02*
Y348535D01*
X94744Y439318D02*
X96744D01*
X95744Y438318D02*
Y440318D01*
X143000Y240000D02*
X145000D01*
X144000Y239000D02*
Y241000D01*
X71000Y16000D02*
X73000D01*
X72000Y15000D02*
Y17000D01*
Y126000D02*
X74000D01*
X73000Y125000D02*
Y127000D01*
X71000Y117000D02*
X73000D01*
X72000Y116000D02*
Y118000D01*
X212000Y214500D02*
X214000D01*
X213000Y213500D02*
Y215500D01*
X208000Y219500D02*
X210000D01*
X209000Y218500D02*
Y220500D01*
X213000Y184500D02*
X215000D01*
X214000Y183500D02*
Y185500D01*
X212000Y171500D02*
X214000D01*
X213000Y170500D02*
Y172500D01*
X241000Y211000D02*
X243000D01*
X242000Y210000D02*
Y212000D01*
X241000Y216500D02*
X243000D01*
X242000Y215500D02*
Y217500D01*
X241000Y186000D02*
X243000D01*
X242000Y185000D02*
Y187000D01*
X241000Y191500D02*
X243000D01*
X242000Y190500D02*
Y192500D01*
X241000Y161000D02*
X243000D01*
X242000Y160000D02*
Y162000D01*
X241000Y166500D02*
X243000D01*
X242000Y165500D02*
Y167500D01*
X208000Y146500D02*
X210000D01*
X209000Y145500D02*
Y147500D01*
X211000Y153500D02*
X213000D01*
X212000Y152500D02*
Y154500D01*
X102284Y36284D02*
X104284D01*
X103284Y35284D02*
Y37284D01*
X12284Y106316D02*
X14284D01*
X13284Y105316D02*
Y107316D01*
X115000Y217000D02*
X117000D01*
X116000Y216000D02*
Y218000D01*
X102284Y346284D02*
X104284D01*
X103284Y345284D02*
Y347284D01*
X32284Y356316D02*
X34284D01*
X33284Y355316D02*
Y357316D01*
X52284Y346284D02*
X54284D01*
X53284Y345284D02*
Y347284D01*
X52284Y356284D02*
X54284D01*
X53284Y355284D02*
Y357284D01*
X70000Y358000D02*
X72000D01*
X71000Y357000D02*
Y359000D01*
X22316Y356284D02*
X24316D01*
X23316Y355284D02*
Y357284D01*
X22316Y426316D02*
X24316D01*
X23316Y425316D02*
Y427316D01*
X102316Y426316D02*
X104316D01*
X103316Y425316D02*
Y427316D01*
X122316Y386316D02*
X124316D01*
X123316Y385316D02*
Y387316D01*
X122316Y366284D02*
X124316D01*
X123316Y365284D02*
Y367284D01*
X102284Y306284D02*
X104284D01*
X103284Y305284D02*
Y307284D01*
X102284Y316284D02*
X104284D01*
X103284Y315284D02*
Y317284D01*
X42316Y306284D02*
X44316D01*
X43316Y305284D02*
Y307284D01*
X102316Y246316D02*
X104316D01*
X103316Y245316D02*
Y247316D01*
X52284Y236284D02*
X54284D01*
X53284Y235284D02*
Y237284D01*
X62284Y246316D02*
X64284D01*
X63284Y245316D02*
Y247316D01*
X82284Y256316D02*
X84284D01*
X83284Y255316D02*
Y257316D01*
X32284Y256316D02*
X34284D01*
X33284Y255316D02*
Y257316D01*
X32284Y246316D02*
X34284D01*
X33284Y245316D02*
Y247316D01*
X52284Y246284D02*
X54284D01*
X53284Y245284D02*
Y247284D01*
X22284Y246316D02*
X24284D01*
X23284Y245316D02*
Y247316D01*
X32284Y216316D02*
X34284D01*
X33284Y215316D02*
Y217316D01*
X22284Y216316D02*
X24284D01*
X23284Y215316D02*
Y217316D01*
X97434Y125627D02*
X99434D01*
X98434Y124627D02*
Y126627D01*
X42316Y86284D02*
X44316D01*
X43316Y85284D02*
Y87284D01*
X32284Y96284D02*
X34284D01*
X33284Y95284D02*
Y97284D01*
X122316Y46284D02*
X124316D01*
X123316Y45284D02*
Y47284D01*
X122316Y36284D02*
X124316D01*
X123316Y35284D02*
Y37284D01*
X112284Y36316D02*
X114284D01*
X113284Y35316D02*
Y37316D01*
X102284Y16284D02*
X104284D01*
X103284Y15284D02*
Y17284D01*
X32284Y26284D02*
X34284D01*
X33284Y25284D02*
Y27284D01*
X52284Y26284D02*
X54284D01*
X53284Y25284D02*
Y27284D01*
X102316Y96316D02*
X104316D01*
X103316Y95316D02*
Y97316D01*
X22284Y96316D02*
X24284D01*
X23284Y95316D02*
Y97316D01*
X12284Y96316D02*
X14284D01*
X13284Y95316D02*
Y97316D01*
X22284Y136316D02*
X24284D01*
X23284Y135316D02*
Y137316D01*
X54000Y125000D02*
X56000D01*
X55000Y124000D02*
Y126000D01*
X52284Y136284D02*
X54284D01*
X53284Y135284D02*
Y137284D01*
X32284Y16284D02*
X34284D01*
X33284Y15284D02*
Y17284D01*
X52284Y16284D02*
X54284D01*
X53284Y15284D02*
Y17284D01*
X12284Y26284D02*
X14284D01*
X13284Y25284D02*
Y27284D01*
X22284Y16284D02*
X24284D01*
X23284Y15284D02*
Y17284D01*
X102316Y146316D02*
X104316D01*
X103316Y145316D02*
Y147316D01*
X112284Y136316D02*
X114284D01*
X113284Y135316D02*
Y137316D01*
X72284Y136284D02*
X74284D01*
X73284Y135284D02*
Y137284D01*
X72284Y176284D02*
X74284D01*
X73284Y175284D02*
Y177284D01*
X82316Y176284D02*
X84316D01*
X83316Y175284D02*
Y177284D01*
X72316Y166316D02*
X74316D01*
X73316Y165316D02*
Y167316D01*
X82284Y166316D02*
X84284D01*
X83284Y165316D02*
Y167316D01*
X125000Y152000D02*
X127000D01*
X126000Y151000D02*
Y153000D01*
X149537Y150236D02*
X151538D01*
X150538Y149235D02*
Y151236D01*
X138000Y170000D02*
X140000D01*
X139000Y169000D02*
Y171000D01*
X144000Y170000D02*
X146000D01*
X145000Y169000D02*
Y171000D01*
X48250Y185500D02*
X50250D01*
X49250Y184500D02*
Y186500D01*
X64911Y158689D02*
X66911D01*
X65911Y157689D02*
Y159689D01*
X123000Y201000D02*
X125000D01*
X124000Y200000D02*
Y202000D01*
X72000Y25000D02*
X74000D01*
X73000Y24000D02*
Y26000D01*
X72316Y396284D02*
X74316D01*
X73316Y395284D02*
Y397284D01*
X72316Y386316D02*
X74316D01*
X73316Y385316D02*
Y387316D01*
X82284Y386316D02*
X84284D01*
X83284Y385316D02*
Y387316D01*
X82284Y396284D02*
X84284D01*
X83284Y395284D02*
Y397284D01*
X51000Y405000D02*
X53000D01*
X52000Y404000D02*
Y406000D01*
X64911Y378689D02*
X66911D01*
X65911Y377689D02*
Y379689D01*
X51354Y145419D02*
X53355D01*
X52354Y144419D02*
Y146419D01*
X125000Y135000D02*
X127000D01*
X126000Y134000D02*
Y136000D01*
X92316Y146316D02*
X94316D01*
X93316Y145316D02*
Y147316D01*
X127000Y180500D02*
X129000D01*
X128000Y179500D02*
Y181500D01*
X63158Y185442D02*
X65158D01*
X64158Y184442D02*
Y186442D01*
X145750Y201750D02*
X147750D01*
X146750Y200750D02*
Y202750D01*
X102284Y86284D02*
X104284D01*
X103284Y85284D02*
Y87284D01*
X82284Y36316D02*
X84284D01*
X83284Y35316D02*
Y37316D01*
X32316Y316316D02*
X34316D01*
X33316Y315316D02*
Y317316D01*
X112316Y426316D02*
X114316D01*
X113316Y425316D02*
Y427316D01*
X22284Y416284D02*
X24284D01*
X23284Y415284D02*
Y417284D01*
X121436Y357723D02*
X123436D01*
X122436Y356723D02*
Y358723D01*
X32284Y366316D02*
X34284D01*
X33284Y365316D02*
Y367316D01*
X63300Y405875D02*
X65300D01*
X64300Y404875D02*
Y406875D01*
X91000Y365000D02*
X93000D01*
X92000Y364000D02*
Y366000D01*
X86000Y191000D02*
X88000D01*
X87000Y190000D02*
Y192000D01*
X86000Y415000D02*
X88000D01*
X87000Y414000D02*
Y416000D01*
X129000Y148000D02*
X131000D01*
X130000Y147000D02*
Y149000D01*
X139000Y145750D02*
X141000D01*
X140000Y144750D02*
Y146750D01*
X135000Y186000D02*
X137000D01*
X136000Y185000D02*
Y187000D01*
X144000Y188000D02*
X146000D01*
X145000Y187000D02*
Y189000D01*
X113255Y175972D02*
X115255D01*
X114255Y174972D02*
Y176972D01*
X112806Y165557D02*
X114806D01*
X113806Y164557D02*
Y166558D01*
X43246Y207197D02*
X45245D01*
X44246Y206197D02*
Y208197D01*
X71354Y205403D02*
X73355D01*
X72354Y204403D02*
Y206403D01*
X63197Y215354D02*
X65197D01*
X64197Y214354D02*
Y216355D01*
X61354Y205403D02*
X63355D01*
X62354Y204403D02*
Y206403D01*
X53246Y207197D02*
X55245D01*
X54246Y206197D02*
Y208197D01*
X51403Y197246D02*
X53403D01*
X52403Y196245D02*
Y198246D01*
X91000Y412000D02*
X93000D01*
X92000Y411000D02*
Y413000D01*
X96000Y408000D02*
X98000D01*
X97000Y407000D02*
Y409000D01*
X91000Y372000D02*
X93000D01*
X92000Y371000D02*
Y373000D01*
X96000Y376000D02*
X98000D01*
X97000Y375000D02*
Y377000D01*
X100000Y388000D02*
X102000D01*
X101000Y387000D02*
Y389000D01*
X100000Y396000D02*
X102000D01*
X101000Y395000D02*
Y397000D01*
X43246Y427197D02*
X45245D01*
X44246Y426197D02*
Y428197D01*
X72000Y372000D02*
X74000D01*
X73000Y371000D02*
Y373000D01*
X72316Y306284D02*
X74316D01*
X73316Y305284D02*
Y307284D01*
X62316Y306284D02*
X64316D01*
X63316Y305284D02*
Y307284D01*
X52316Y306284D02*
X54316D01*
X53316Y305284D02*
Y307284D01*
X72316Y316284D02*
X74316D01*
X73316Y315284D02*
Y317284D01*
X62316Y316284D02*
X64316D01*
X63316Y315284D02*
Y317284D01*
X52316Y316284D02*
X54316D01*
X53316Y315284D02*
Y317284D01*
X63197Y435354D02*
X65197D01*
X64197Y434355D02*
Y436354D01*
X61354Y425403D02*
X63355D01*
X62354Y424403D02*
Y426403D01*
X53246Y427197D02*
X55245D01*
X54246Y426197D02*
Y428197D01*
X51403Y417245D02*
X53403D01*
X52403Y416245D02*
Y418246D01*
X52000Y386000D02*
X54000D01*
X53000Y385000D02*
Y387000D01*
X66000Y411000D02*
X68000D01*
X67000Y410000D02*
Y412000D01*
X76000Y413000D02*
X78000D01*
X77000Y412000D02*
Y414000D01*
X52000Y396000D02*
X54000D01*
X53000Y395000D02*
Y397000D01*
X83000Y371000D02*
X85000D01*
X84000Y370000D02*
Y372000D01*
X71354Y425403D02*
X73355D01*
X72354Y424403D02*
Y426403D01*
M02*
