G04*
G04 #@! TF.GenerationSoftware,Altium Limited,Altium Designer,24.9.1 (31)*
G04*
G04 Layer_Color=65535*
%FSLAX44Y44*%
%MOMM*%
G71*
G04*
G04 #@! TF.SameCoordinates,F6C7D1B7-5E70-41A8-93A8-01C2B61895AE*
G04*
G04*
G04 #@! TF.FilePolarity,Positive*
G04*
G01*
G75*
%ADD10C,0.1500*%
%ADD11C,0.1250*%
%ADD12C,0.1270*%
G36*
X189873Y190137D02*
X190240Y190113D01*
X190338Y190064D01*
X190412Y190088D01*
X190534Y190039D01*
X191049Y190015D01*
X191122Y189990D01*
X191367Y189917D01*
X191661Y189892D01*
X191882Y189794D01*
X192102Y189770D01*
X192151Y189721D01*
X192249Y189696D01*
X192421Y189672D01*
X192641Y189574D01*
X192739Y189549D01*
X192813Y189525D01*
X192862Y189476D01*
X192960Y189451D01*
X193107Y189427D01*
X193180Y189353D01*
X193340Y189292D01*
X193450Y189231D01*
X193609Y189170D01*
X193670Y189108D01*
X193768Y189084D01*
X193817Y189059D01*
X193891Y188986D01*
X193989Y188961D01*
X194062Y188888D01*
X194185Y188839D01*
X194258Y188765D01*
X194565Y188582D01*
X194577Y188545D01*
X194626Y188520D01*
X194761Y188410D01*
X194797Y188373D01*
X194846Y188349D01*
X194920Y188275D01*
X194969Y188251D01*
X195030Y188214D01*
X195055Y188165D01*
X195091Y188128D01*
X195140Y188104D01*
X195165Y188055D01*
X195214Y188030D01*
X195312Y187932D01*
X195361Y187908D01*
X195422Y187846D01*
X195447Y187797D01*
X195618Y187626D01*
X195643Y187577D01*
X195679Y187540D01*
X195729Y187516D01*
X195814Y187381D01*
X195863Y187332D01*
X195888Y187283D01*
X195986Y187185D01*
X196010Y187136D01*
X196047Y187075D01*
X196096Y187050D01*
X196219Y186854D01*
X196304Y186719D01*
X196378Y186646D01*
X196402Y186597D01*
X196451Y186548D01*
X196488Y186413D01*
X196537Y186364D01*
X196574Y186352D01*
X196598Y186254D01*
X196623Y186205D01*
X196696Y186131D01*
X196721Y186033D01*
X196745Y185984D01*
X196794Y185935D01*
X196856Y185776D01*
X196917Y185715D01*
X196941Y185617D01*
X196966Y185568D01*
X197015Y185519D01*
X197064Y185396D01*
X197088Y185323D01*
X197162Y185249D01*
X197199Y185090D01*
X197284Y185004D01*
X197309Y184857D01*
X197382Y184784D01*
X197444Y184624D01*
X197529Y184465D01*
X197554Y184392D01*
X197603Y184343D01*
X197652Y184220D01*
X197676Y184122D01*
X197750Y184049D01*
X197775Y183902D01*
X197848Y183828D01*
X197873Y183730D01*
X197934Y183571D01*
X197995Y183510D01*
X198020Y183363D01*
X198093Y183289D01*
X198142Y183093D01*
X198216Y183020D01*
X198252Y182860D01*
X198338Y182701D01*
X198363Y182603D01*
X198436Y182481D01*
X198485Y182334D01*
Y182309D01*
X198510Y182260D01*
X198559Y182211D01*
X198608Y182015D01*
X198681Y181893D01*
X198730Y181696D01*
X198804Y181623D01*
X198840Y181464D01*
X198926Y181304D01*
X198963Y181145D01*
X199049Y180986D01*
X199085Y180851D01*
X199122Y180814D01*
X199171Y180643D01*
X199208Y180508D01*
X199269Y180447D01*
X199294Y180349D01*
X199318Y180226D01*
X199392Y180104D01*
X199441Y179908D01*
X199490Y179859D01*
X199539Y179663D01*
X199637Y179442D01*
X199673Y179283D01*
X199759Y179124D01*
X199784Y178977D01*
X199857Y178854D01*
X199882Y178756D01*
X199906Y178609D01*
X199955Y178560D01*
X199980Y178462D01*
X200029Y178242D01*
X200078Y178193D01*
X200102Y178095D01*
X200139Y177911D01*
X200176Y177874D01*
X200225Y177703D01*
X200249Y177507D01*
X200323Y177335D01*
X200347Y177237D01*
X200372Y176968D01*
X200421Y176845D01*
X200445Y176649D01*
X200470Y176576D01*
X200494Y176036D01*
X200519Y175963D01*
X200543Y175620D01*
X200568Y175546D01*
X200543Y174762D01*
X200494Y174640D01*
X200519Y174566D01*
X200494Y174248D01*
X200470Y174174D01*
X200445Y173513D01*
X200372Y173341D01*
X200347Y173170D01*
X200323Y172851D01*
X200274Y172729D01*
X200225Y172533D01*
X200200Y172288D01*
X200127Y172116D01*
X200102Y171945D01*
X200078Y171822D01*
X200029Y171773D01*
X200004Y171602D01*
X199955Y171406D01*
X199882Y171234D01*
X199857Y171087D01*
X199784Y170965D01*
X199759Y170867D01*
X199735Y170720D01*
X199686Y170671D01*
X199612Y170377D01*
X199563Y170328D01*
X199514Y170156D01*
X199416Y169936D01*
X199379Y169801D01*
X199294Y169641D01*
X199269Y169543D01*
X199220Y169494D01*
X199171Y169372D01*
X199147Y169274D01*
X199098Y169225D01*
X199012Y168992D01*
X198951Y168931D01*
X198926Y168808D01*
X198853Y168735D01*
X198828Y168637D01*
X198755Y168514D01*
X198706Y168392D01*
X198632Y168269D01*
X198583Y168147D01*
X198559Y168098D01*
X198485Y168024D01*
X198448Y167890D01*
X198424Y167841D01*
X198375Y167816D01*
X198326Y167694D01*
X198240Y167559D01*
X198167Y167436D01*
X198044Y167216D01*
X197995Y167167D01*
X197971Y167093D01*
X197922Y167044D01*
X197824Y166873D01*
X197775Y166824D01*
X197750Y166726D01*
X197676Y166652D01*
X197603Y166530D01*
X197554Y166481D01*
X197456Y166309D01*
X197333Y166138D01*
X197125Y165832D01*
X197064Y165770D01*
X197039Y165721D01*
X196966Y165648D01*
X196868Y165476D01*
X196819Y165427D01*
X196794Y165378D01*
X196721Y165305D01*
X196696Y165256D01*
X196598Y165158D01*
X196525Y165035D01*
X196476Y164986D01*
X196451Y164937D01*
X196353Y164839D01*
X196329Y164790D01*
X196231Y164692D01*
X196206Y164643D01*
X196108Y164545D01*
X196084Y164496D01*
X195986Y164398D01*
X195961Y164349D01*
X195888Y164276D01*
X195863Y164227D01*
X195643Y164006D01*
X195618Y163957D01*
X195275Y163614D01*
X195251Y163565D01*
X194454Y162769D01*
X194405Y162744D01*
X194062Y162401D01*
X194013Y162377D01*
X193793Y162156D01*
X193744Y162132D01*
X193670Y162058D01*
X193621Y162034D01*
X193523Y161936D01*
X193474Y161911D01*
X193376Y161813D01*
X193327Y161789D01*
X193229Y161691D01*
X193180Y161666D01*
X193082Y161568D01*
X193033Y161544D01*
X192960Y161470D01*
X192837Y161397D01*
X192788Y161348D01*
X192739Y161323D01*
X192641Y161225D01*
X192592Y161201D01*
X192519Y161127D01*
X192396Y161054D01*
X192347Y161005D01*
X192237Y160943D01*
X192225Y160907D01*
X192102Y160833D01*
X192053Y160784D01*
X191931Y160711D01*
X191759Y160613D01*
X191735Y160564D01*
X191686Y160539D01*
X191380Y160331D01*
X191183Y160208D01*
X191049Y160123D01*
X191000Y160074D01*
X190840Y160012D01*
X190828Y159976D01*
X190706Y159927D01*
X190657Y159902D01*
X190583Y159829D01*
X190485Y159804D01*
X190338Y159706D01*
X190216Y159633D01*
X190093Y159584D01*
X190020Y159559D01*
X189971Y159510D01*
X189873Y159486D01*
X189750Y159437D01*
X189677Y159363D01*
X189481Y159339D01*
X189334Y159241D01*
X189162Y159216D01*
X189088Y159143D01*
X188794Y159094D01*
X188745Y159045D01*
X188549Y158995D01*
X188354Y158971D01*
X188231Y158922D01*
X188133Y158897D01*
X187814Y158873D01*
X187655Y158812D01*
X187459Y158787D01*
X186075Y158775D01*
X185903Y158848D01*
X185805Y158873D01*
X185523Y158910D01*
X185364Y158995D01*
X185168Y159020D01*
X185095Y159094D01*
X184997Y159118D01*
X184874Y159192D01*
X184703Y159290D01*
X184654Y159339D01*
X184605Y159363D01*
X184470Y159473D01*
X184176Y159767D01*
X184151Y159816D01*
X184078Y159939D01*
X184029Y159988D01*
X184004Y160086D01*
X183980Y160135D01*
X183906Y160208D01*
X183870Y160392D01*
X183808Y160502D01*
X183784Y160600D01*
X183759Y160894D01*
X183735Y160968D01*
X183759Y161605D01*
X183784Y161678D01*
X183808Y161972D01*
X183882Y162046D01*
X183906Y162218D01*
X183931Y162315D01*
X183980Y162365D01*
X184041Y162524D01*
X184127Y162683D01*
X184274Y162952D01*
X184347Y163026D01*
X184445Y163197D01*
X184568Y163369D01*
X184678Y163504D01*
X184715Y163540D01*
X184739Y163590D01*
X184837Y163688D01*
X184862Y163737D01*
X184935Y163810D01*
X184960Y163859D01*
X184997Y163920D01*
X185046Y163945D01*
X185082Y163982D01*
X185107Y164031D01*
X185205Y164104D01*
X185229Y164153D01*
X185303Y164202D01*
X185327Y164251D01*
X185364Y164288D01*
X185413Y164312D01*
X185487Y164410D01*
X185536Y164435D01*
X185585Y164508D01*
X185634Y164533D01*
X185671Y164570D01*
X185695Y164619D01*
X185793Y164692D01*
X185805Y164729D01*
X185854Y164753D01*
X185989Y164864D01*
X186099Y164974D01*
X186148Y164998D01*
X186283Y165109D01*
X186357Y165158D01*
X186381Y165207D01*
X186418Y165243D01*
X186467Y165268D01*
X186540Y165341D01*
X186589Y165366D01*
X186687Y165464D01*
X186810Y165537D01*
X186945Y165648D01*
X186981Y165685D01*
X187030Y165709D01*
X187128Y165807D01*
X187251Y165881D01*
X187422Y166003D01*
X187471Y166052D01*
X187520Y166077D01*
X187594Y166150D01*
X187716Y166199D01*
X187790Y166273D01*
X187839Y166297D01*
X188158Y166518D01*
X188207Y166542D01*
X188305Y166640D01*
X188476Y166738D01*
X188611Y166848D01*
X188745Y166934D01*
X188794Y166983D01*
X188917Y167057D01*
X188966Y167106D01*
X189052Y167142D01*
X189076Y167191D01*
X189199Y167265D01*
X189223Y167314D01*
X189419Y167436D01*
X189456Y167473D01*
X189505Y167498D01*
X189603Y167596D01*
X189652Y167620D01*
X189677Y167669D01*
X189726Y167694D01*
X189860Y167804D01*
X189897Y167841D01*
X189946Y167865D01*
X190020Y167939D01*
X190069Y167963D01*
X190142Y168037D01*
X190191Y168061D01*
X190387Y168257D01*
X190436Y168282D01*
X190497Y168343D01*
X190510Y168380D01*
X190559Y168404D01*
X190693Y168514D01*
X190926Y168747D01*
X191049Y168821D01*
X192237Y170009D01*
X192311Y170132D01*
X192507Y170328D01*
X192519Y170364D01*
X192568Y170389D01*
X192629Y170475D01*
X192727Y170573D01*
X192752Y170622D01*
X192948Y170818D01*
X192972Y170867D01*
X193070Y170965D01*
X193144Y171087D01*
X193193Y171136D01*
X193217Y171185D01*
X193315Y171283D01*
X193340Y171332D01*
X193389Y171357D01*
X193413Y171406D01*
X193523Y171540D01*
X193658Y171724D01*
X193683Y171773D01*
X193781Y171871D01*
X193805Y171920D01*
X193879Y171969D01*
X193952Y172092D01*
X194050Y172263D01*
X194099Y172288D01*
X194124Y172337D01*
X194234Y172472D01*
X194283Y172594D01*
X194369Y172680D01*
X194393Y172729D01*
X194467Y172802D01*
X194540Y172925D01*
X194638Y173096D01*
X194712Y173170D01*
X194785Y173292D01*
X194883Y173464D01*
X194932Y173513D01*
X194981Y173635D01*
X195055Y173709D01*
X195104Y173831D01*
X195153Y173880D01*
X195251Y174052D01*
X195300Y174174D01*
X195324Y174223D01*
X195422Y174321D01*
X195447Y174444D01*
X195520Y174517D01*
X195569Y174640D01*
X195618Y174689D01*
X195679Y174848D01*
X195765Y174934D01*
X195790Y175081D01*
X195863Y175154D01*
X195888Y175252D01*
X195912Y175301D01*
X195986Y175375D01*
X196023Y175534D01*
X196108Y175620D01*
X196145Y175804D01*
X196206Y175865D01*
X196255Y176036D01*
X196329Y176159D01*
X196353Y176232D01*
X196402Y176355D01*
X196451Y176404D01*
X196500Y176600D01*
X196574Y176723D01*
X196623Y176919D01*
X196672Y176968D01*
X196721Y177139D01*
X196745Y177237D01*
X196819Y177360D01*
X196843Y177531D01*
X196941Y177752D01*
X196990Y177972D01*
X197039Y178021D01*
X197064Y178119D01*
X197088Y178315D01*
X197162Y178487D01*
X197186Y178585D01*
X197211Y178756D01*
X197284Y178928D01*
X197333Y179271D01*
X197382Y179393D01*
X197407Y179491D01*
X197431Y179736D01*
X197456Y179932D01*
X197505Y180055D01*
X197529Y180226D01*
X197566Y180802D01*
X197603Y180937D01*
X197627Y181255D01*
X197652Y181329D01*
X197627Y181770D01*
X197591Y181807D01*
X197542Y181831D01*
X197468Y181905D01*
X197419Y181929D01*
X197186Y182089D01*
X197174Y182125D01*
X197125Y182150D01*
X196954Y182272D01*
X196831Y182346D01*
X196660Y182444D01*
X196415Y182591D01*
X196292Y182640D01*
X196170Y182713D01*
X196047Y182762D01*
X195949Y182787D01*
X195876Y182860D01*
X195692Y182897D01*
X195630Y182958D01*
X195471Y182995D01*
X195373Y183020D01*
X195336Y183056D01*
X195214Y183105D01*
X194993Y183130D01*
X194944Y183179D01*
X194773Y183228D01*
X194552Y183252D01*
X194430Y183301D01*
X194332Y183326D01*
X194160Y183350D01*
X193915Y183375D01*
X193793Y183424D01*
X193695Y183448D01*
X192899Y183485D01*
X192715Y183546D01*
X192641Y183522D01*
X191380Y183534D01*
X191245Y183497D01*
X191147Y183473D01*
X190644Y183461D01*
X190632Y183473D01*
X190559Y183448D01*
X190191Y183424D01*
X190142Y183399D01*
X190069Y183424D01*
X189897Y183350D01*
X189848Y183375D01*
X189775Y183350D01*
X189334Y183326D01*
X189260Y183301D01*
X189137Y183252D01*
X189039Y183228D01*
X188623Y183203D01*
X188500Y183154D01*
X188305Y183105D01*
X188010Y183081D01*
X187839Y183007D01*
X187594Y182983D01*
X187435Y182946D01*
X187275Y182885D01*
X186969Y182848D01*
X186834Y182787D01*
X186736Y182762D01*
X186467Y182738D01*
X186246Y182640D01*
X185952Y182615D01*
X185830Y182566D01*
X185634Y182517D01*
X185389Y182493D01*
X185266Y182444D01*
X185168Y182419D01*
X184923Y182395D01*
X184752Y182370D01*
X184678Y182346D01*
X184482Y182297D01*
X184090Y182272D01*
X183894Y182223D01*
X183821Y182199D01*
X183502Y182174D01*
X183110Y182150D01*
X183037Y182174D01*
X182963Y182150D01*
X182792Y182125D01*
X182302Y182150D01*
X182228Y182174D01*
X182155Y182150D01*
X181910Y182174D01*
X181689Y182199D01*
X181518Y182272D01*
X181334Y182309D01*
X181297Y182346D01*
X181174Y182395D01*
X181076Y182419D01*
X181003Y182493D01*
X180880Y182542D01*
X180782Y182640D01*
X180733Y182664D01*
X180684Y182738D01*
X180635Y182762D01*
X180599Y182799D01*
X180574Y182848D01*
X180476Y182946D01*
X180452Y183020D01*
X180403Y183069D01*
X180341Y183228D01*
X180280Y183289D01*
X180256Y183387D01*
X180231Y183583D01*
X180158Y183755D01*
X180133Y184000D01*
X180158Y184710D01*
X180231Y184882D01*
X180256Y185053D01*
X180292Y185237D01*
X180354Y185347D01*
X180378Y185445D01*
X180403Y185568D01*
X180452Y185617D01*
X180476Y185715D01*
X180537Y185874D01*
X180599Y185935D01*
X180623Y186058D01*
X180721Y186205D01*
X180746Y186303D01*
X180819Y186376D01*
X180868Y186499D01*
X180942Y186572D01*
X180991Y186695D01*
X181064Y186768D01*
X181089Y186817D01*
X181125Y186879D01*
X181162Y186891D01*
X181187Y186940D01*
X181297Y187075D01*
X181358Y187160D01*
X181407Y187209D01*
X181432Y187258D01*
X181468Y187320D01*
X181518Y187344D01*
X181677Y187503D01*
X181689Y187540D01*
X181738Y187565D01*
X181799Y187626D01*
X181812Y187663D01*
X181861Y187687D01*
X181922Y187748D01*
X181934Y187785D01*
X181983Y187810D01*
X182118Y187920D01*
X182228Y188030D01*
X182351Y188104D01*
X182400Y188153D01*
X182449Y188177D01*
X182547Y188275D01*
X182596Y188300D01*
X182669Y188373D01*
X182767Y188398D01*
X182865Y188496D01*
X182988Y188569D01*
X183208Y188692D01*
X183257Y188741D01*
X183625Y188937D01*
X183747Y188986D01*
X183796Y189010D01*
X183870Y189084D01*
X184053Y189121D01*
X184115Y189182D01*
X184347Y189268D01*
X184384Y189304D01*
X184482Y189329D01*
X184617Y189366D01*
X184654Y189402D01*
X184776Y189451D01*
X184923Y189476D01*
X185144Y189574D01*
X185291Y189598D01*
X185462Y189672D01*
X185671Y189709D01*
X185707Y189745D01*
X185830Y189794D01*
X186099Y189819D01*
X186271Y189892D01*
X186442Y189917D01*
X186663Y189941D01*
X186785Y189990D01*
X187079Y190039D01*
X187471Y190064D01*
X187643Y190137D01*
X187802Y190125D01*
X188023Y190150D01*
X188500Y190137D01*
X188574Y190162D01*
X189762Y190150D01*
X189799Y190162D01*
X189873Y190137D01*
D02*
G37*
G36*
X180390Y199693D02*
X180464Y199669D01*
X180929Y199644D01*
X181101Y199571D01*
X181321Y199546D01*
X181542Y199448D01*
X181665Y199399D01*
X181934Y199252D01*
X182106Y199154D01*
X182179Y199081D01*
X182228Y199056D01*
X182583Y198701D01*
X182657Y198578D01*
X182779Y198358D01*
X182828Y198235D01*
X182853Y198137D01*
X182902Y198088D01*
X182951Y197917D01*
X182975Y197647D01*
X183000Y197574D01*
X183024Y197427D01*
X183049Y197353D01*
X183024Y197059D01*
X183000Y196986D01*
X182963Y196802D01*
X182939Y196557D01*
X182902Y196471D01*
X182853Y196349D01*
X182828Y196251D01*
X182804Y196177D01*
X182755Y196128D01*
X182706Y195957D01*
X182681Y195908D01*
X182632Y195858D01*
X182571Y195699D01*
X182485Y195613D01*
X182461Y195515D01*
X182387Y195442D01*
X182314Y195319D01*
X182265Y195271D01*
X182216Y195148D01*
X182118Y195050D01*
X182093Y195001D01*
X182020Y194928D01*
X181995Y194879D01*
X181897Y194781D01*
X181873Y194732D01*
X181775Y194633D01*
X181750Y194584D01*
X180880Y193715D01*
X180831Y193690D01*
X180697Y193580D01*
X180586Y193470D01*
X180537Y193445D01*
X180415Y193323D01*
X180366Y193298D01*
X180317Y193225D01*
X180194Y193151D01*
X180145Y193102D01*
X180023Y193029D01*
X179974Y192980D01*
X179925Y192955D01*
X179827Y192857D01*
X179778Y192833D01*
X179680Y192735D01*
X179631Y192710D01*
X179582Y192661D01*
X179533Y192637D01*
X179398Y192526D01*
X179263Y192440D01*
X179214Y192391D01*
X179092Y192318D01*
X178957Y192232D01*
X178932Y192183D01*
X178785Y192110D01*
X178724Y192048D01*
X178651Y192024D01*
X178553Y191926D01*
X178430Y191852D01*
X178271Y191767D01*
X178246Y191718D01*
X178112Y191632D01*
X178063Y191583D01*
X177940Y191509D01*
X177891Y191460D01*
X177769Y191387D01*
X177720Y191338D01*
X177671Y191313D01*
X177573Y191215D01*
X177450Y191142D01*
X177315Y191056D01*
X177291Y191007D01*
X177205Y190946D01*
X177132Y190872D01*
X177009Y190799D01*
X176960Y190750D01*
X176911Y190725D01*
X176813Y190627D01*
X176764Y190603D01*
X176666Y190505D01*
X176617Y190480D01*
X176421Y190284D01*
X176372Y190260D01*
X176250Y190137D01*
X176201Y190113D01*
X176127Y190039D01*
X176078Y190015D01*
X175760Y189696D01*
X175711Y189672D01*
X174571Y188533D01*
X174547Y188484D01*
X174253Y188190D01*
X174228Y188140D01*
X174057Y187969D01*
X174032Y187920D01*
X173946Y187810D01*
X173910Y187797D01*
X173885Y187748D01*
X173787Y187650D01*
X173763Y187601D01*
X173640Y187479D01*
X173616Y187430D01*
X173567Y187405D01*
X173493Y187283D01*
X173444Y187234D01*
X173420Y187185D01*
X173322Y187087D01*
X173297Y187038D01*
X173199Y186940D01*
X173175Y186891D01*
X173101Y186817D01*
X173027Y186695D01*
X172978Y186646D01*
X172954Y186597D01*
X172844Y186462D01*
X172782Y186376D01*
X172733Y186327D01*
X172660Y186205D01*
X172366Y185788D01*
X172341Y185739D01*
X172268Y185666D01*
X172194Y185543D01*
X172097Y185372D01*
X172023Y185298D01*
X171950Y185176D01*
X171852Y185004D01*
X171803Y184955D01*
X171606Y184612D01*
X171557Y184563D01*
X171533Y184465D01*
X171459Y184392D01*
X171263Y184024D01*
X171214Y183975D01*
X171178Y183840D01*
X171116Y183779D01*
X171067Y183657D01*
X171043Y183608D01*
X170994Y183559D01*
X170920Y183363D01*
X170871Y183314D01*
X170798Y183118D01*
X170749Y183069D01*
X170724Y182971D01*
X170700Y182922D01*
X170602Y182775D01*
X170577Y182652D01*
X170504Y182579D01*
X170479Y182432D01*
X170381Y182285D01*
X170345Y182125D01*
X170283Y182064D01*
X170259Y181966D01*
X170222Y181831D01*
X170161Y181770D01*
X170124Y181611D01*
X170014Y181353D01*
X169989Y181206D01*
X169940Y181157D01*
X169891Y180986D01*
X169855Y180851D01*
X169793Y180716D01*
X169769Y180618D01*
X169744Y180496D01*
X169695Y180447D01*
X169671Y180349D01*
X169634Y180141D01*
X169573Y180006D01*
X169548Y179908D01*
X169512Y179675D01*
X169450Y179540D01*
X169426Y179369D01*
X169401Y179148D01*
X169328Y178977D01*
X169303Y178805D01*
X169279Y178560D01*
X169254Y178487D01*
X169230Y178389D01*
X169205Y178144D01*
X169181Y177825D01*
X169156Y177580D01*
X169132Y177433D01*
X169107Y177360D01*
X169132Y176723D01*
X169217Y176637D01*
X169266Y176612D01*
X169364Y176514D01*
X169414Y176490D01*
X169512Y176392D01*
X169634Y176318D01*
X169806Y176196D01*
X169977Y176098D01*
X170026Y176049D01*
X170124Y176024D01*
X170173Y175975D01*
X170394Y175853D01*
X170516Y175804D01*
X170639Y175730D01*
X170761Y175681D01*
X170859Y175657D01*
X170982Y175583D01*
X171141Y175546D01*
X171178Y175510D01*
X171300Y175461D01*
X171472Y175436D01*
X171521Y175387D01*
X171692Y175338D01*
X171864Y175314D01*
X172084Y175216D01*
X172354Y175191D01*
X172476Y175142D01*
X172574Y175118D01*
X172819Y175093D01*
X173040Y175069D01*
X173162Y175020D01*
X173628Y174995D01*
X173726Y174971D01*
X175074Y174946D01*
X175392Y174971D01*
X176139Y175007D01*
X176360Y175032D01*
X176470Y175069D01*
X176936Y175093D01*
X177107Y175118D01*
X177205Y175142D01*
X177328Y175167D01*
X177401Y175191D01*
X177646Y175216D01*
X177928Y175252D01*
X178050Y175301D01*
X178173Y175326D01*
X178185Y175338D01*
X178528Y175363D01*
X178651Y175412D01*
X178822Y175436D01*
X178920Y175461D01*
X179141Y175485D01*
X179312Y175559D01*
X179594Y175595D01*
X179876Y175681D01*
X180121Y175706D01*
X180292Y175779D01*
X180635Y175828D01*
X180807Y175902D01*
X181052Y175926D01*
X181211Y175963D01*
X181346Y176000D01*
X181542Y176049D01*
X181836Y176073D01*
X182008Y176147D01*
X182400Y176171D01*
X182473Y176196D01*
X182620Y176220D01*
X182694Y176245D01*
X183012Y176269D01*
X183257Y176294D01*
X183429Y176318D01*
X183674Y176343D01*
X183747Y176367D01*
X184507Y176343D01*
X184580Y176318D01*
X184911Y176282D01*
X185107Y176257D01*
X185205Y176232D01*
X185340Y176171D01*
X185499Y176134D01*
X185560Y176073D01*
X185658Y176049D01*
X185781Y175975D01*
X185830Y175926D01*
X185952Y175853D01*
X186026Y175779D01*
X186075Y175755D01*
X186112Y175718D01*
X186136Y175669D01*
X186234Y175571D01*
X186308Y175448D01*
X186357Y175399D01*
X186381Y175301D01*
X186455Y175179D01*
X186479Y175081D01*
X186504Y174958D01*
X186553Y174836D01*
X186577Y174738D01*
X186602Y174125D01*
X186577Y174027D01*
X186553Y173709D01*
X186528Y173635D01*
X186479Y173439D01*
X186455Y173243D01*
X186357Y173023D01*
X186332Y172900D01*
X186283Y172851D01*
X186234Y172680D01*
X185965Y172165D01*
X185842Y171945D01*
X185769Y171871D01*
X185744Y171798D01*
X185671Y171724D01*
X185646Y171626D01*
X185609Y171589D01*
X185560Y171565D01*
X185474Y171430D01*
X185401Y171357D01*
X185376Y171308D01*
X184678Y170609D01*
X184629Y170585D01*
X184482Y170438D01*
X184433Y170413D01*
X184372Y170377D01*
X184347Y170328D01*
X184200Y170230D01*
X184139Y170168D01*
X184066Y170144D01*
X183992Y170070D01*
X183870Y169997D01*
X183821Y169948D01*
X183698Y169899D01*
X183649Y169850D01*
X183478Y169752D01*
X183257Y169629D01*
X183135Y169580D01*
X183086Y169556D01*
X182939Y169458D01*
X182841Y169433D01*
X182792Y169384D01*
X182559Y169298D01*
X182522Y169262D01*
X182424Y169237D01*
X182155Y169115D01*
X182020Y169078D01*
X181910Y169017D01*
X181812Y168992D01*
X181677Y168955D01*
X181640Y168919D01*
X181444Y168870D01*
X181297Y168845D01*
X181248Y168796D01*
X181150Y168772D01*
X180954Y168747D01*
X180782Y168674D01*
X180684Y168649D01*
X180439Y168625D01*
X180268Y168551D01*
X180096Y168527D01*
X179851Y168502D01*
X179778Y168478D01*
X179496Y168416D01*
X179104Y168392D01*
X178651Y168355D01*
X178577Y168331D01*
X176936Y168355D01*
X176862Y168380D01*
X176678Y168367D01*
X176544Y168404D01*
X175980Y168429D01*
X175907Y168453D01*
X175711Y168502D01*
X175539Y168527D01*
X175319Y168551D01*
X175196Y168600D01*
X175000Y168649D01*
X174804Y168674D01*
X174632Y168747D01*
X174461Y168772D01*
X174240Y168870D01*
X174057Y168906D01*
X173995Y168968D01*
X173897Y168992D01*
X173763Y169029D01*
X173603Y169115D01*
X173481Y169139D01*
X173407Y169213D01*
X173309Y169237D01*
X173260Y169262D01*
X173211Y169311D01*
X173015Y169384D01*
X172966Y169433D01*
X172844Y169482D01*
X172795Y169507D01*
X172746Y169556D01*
X172623Y169629D01*
X172574Y169678D01*
X172415Y169739D01*
X172329Y169825D01*
X172280Y169850D01*
X172207Y169923D01*
X172084Y169997D01*
X172035Y170046D01*
X171913Y170119D01*
X171839Y170193D01*
X171790Y170217D01*
X171766Y170266D01*
X171717Y170291D01*
X171570Y170438D01*
X171521Y170462D01*
X171214Y170769D01*
X171190Y170818D01*
X170969Y171038D01*
X170945Y171087D01*
X170847Y171185D01*
X170822Y171234D01*
X170749Y171308D01*
X170675Y171430D01*
X170626Y171479D01*
X170553Y171602D01*
X170504Y171651D01*
X170430Y171773D01*
X170332Y171945D01*
X170283Y171994D01*
X170234Y172116D01*
X170161Y172190D01*
X170100Y172349D01*
X170038Y172410D01*
X169989Y172533D01*
X169916Y172606D01*
X169879Y172741D01*
X169818Y172802D01*
X169757Y172962D01*
X169695Y173023D01*
X169671Y173121D01*
X169597Y173243D01*
X169548Y173366D01*
X169475Y173488D01*
X169426Y173611D01*
X169401Y173660D01*
X169352Y173709D01*
X169279Y173905D01*
X169230Y173954D01*
X169156Y174150D01*
X169107Y174199D01*
X169070Y174358D01*
X169009Y174444D01*
X168960Y174566D01*
X168838Y174836D01*
X168813Y174885D01*
X168740Y175007D01*
X168715Y175130D01*
X168617Y175277D01*
X168593Y175424D01*
X168519Y175497D01*
X168470Y175693D01*
X168397Y175816D01*
X168372Y175914D01*
X168299Y176036D01*
X168274Y176110D01*
X168250Y176208D01*
X168225Y176257D01*
X168176Y176306D01*
X168152Y176404D01*
X168115Y176539D01*
X168054Y176600D01*
X168005Y176796D01*
X167907Y176943D01*
X167882Y177115D01*
X167833Y177164D01*
X167784Y177286D01*
X167760Y177384D01*
X167686Y177507D01*
X167637Y177703D01*
X167564Y177825D01*
X167539Y177972D01*
X167441Y178119D01*
X167417Y178291D01*
X167343Y178364D01*
X167306Y178548D01*
X167257Y178671D01*
X167221Y178707D01*
X167159Y178965D01*
X167123Y179001D01*
X167074Y179197D01*
X166976Y179418D01*
X166951Y179565D01*
X166878Y179638D01*
X166853Y179736D01*
X166829Y179908D01*
X166755Y179981D01*
X166731Y180079D01*
X166706Y180300D01*
X166657Y180349D01*
X166584Y180643D01*
X166510Y180814D01*
X166473Y181047D01*
X166388Y181329D01*
X166363Y181598D01*
X166339Y181672D01*
X166314Y181770D01*
X166265Y182064D01*
X166241Y182628D01*
X166216Y182701D01*
X166241Y184049D01*
X166265Y184122D01*
X166290Y184808D01*
X166339Y184931D01*
X166375Y185139D01*
X166400Y185457D01*
X166424Y185555D01*
X166486Y185764D01*
X166522Y186045D01*
X166608Y186327D01*
X166633Y186523D01*
X166706Y186695D01*
X166731Y186793D01*
X166767Y186977D01*
X166829Y187111D01*
X166853Y187209D01*
X166878Y187356D01*
X166927Y187405D01*
X167000Y187699D01*
X167074Y187871D01*
X167098Y187969D01*
X167196Y188190D01*
X167233Y188324D01*
X167294Y188435D01*
X167319Y188533D01*
X167368Y188655D01*
X167441Y188827D01*
X167564Y189096D01*
X167588Y189170D01*
X167637Y189219D01*
X167662Y189317D01*
X167735Y189439D01*
X167833Y189684D01*
X168078Y190150D01*
X168127Y190199D01*
X168164Y190333D01*
X168250Y190468D01*
X168323Y190591D01*
X168568Y191032D01*
X168666Y191203D01*
X168715Y191252D01*
X168764Y191375D01*
X168838Y191448D01*
X168862Y191546D01*
X168960Y191644D01*
X168985Y191718D01*
X169083Y191865D01*
X169107Y191914D01*
X169181Y191987D01*
X169279Y192159D01*
X169389Y192293D01*
X169512Y192489D01*
X169548Y192526D01*
X169622Y192649D01*
X169671Y192698D01*
X169695Y192747D01*
X169769Y192820D01*
X169842Y192943D01*
X169891Y192992D01*
X169953Y193102D01*
X169989Y193114D01*
X170014Y193163D01*
X170247Y193470D01*
X170283Y193506D01*
X170308Y193555D01*
X170381Y193629D01*
X170406Y193678D01*
X170577Y193849D01*
X170602Y193898D01*
X170675Y193972D01*
X170700Y194021D01*
X170810Y194156D01*
X170945Y194290D01*
X170969Y194339D01*
X171190Y194560D01*
X171214Y194609D01*
X171557Y194952D01*
X171582Y195001D01*
X172256Y195675D01*
X172305Y195699D01*
X172623Y196018D01*
X172672Y196042D01*
X172893Y196263D01*
X172942Y196287D01*
X173138Y196483D01*
X173187Y196508D01*
X173260Y196581D01*
X173309Y196606D01*
X173444Y196716D01*
X173481Y196753D01*
X173530Y196777D01*
X173701Y196949D01*
X173824Y197022D01*
X173897Y197096D01*
X173946Y197120D01*
X174020Y197194D01*
X174142Y197267D01*
X174216Y197341D01*
X174265Y197365D01*
X174338Y197439D01*
X174461Y197512D01*
X174632Y197635D01*
X174681Y197684D01*
X174730Y197708D01*
X174779Y197757D01*
X174951Y197855D01*
X175000Y197904D01*
X175123Y197978D01*
X175172Y198027D01*
X175294Y198100D01*
X175466Y198199D01*
X175515Y198248D01*
X175637Y198297D01*
X175711Y198370D01*
X175882Y198468D01*
X176041Y198554D01*
X176054Y198591D01*
X176213Y198652D01*
X176274Y198713D01*
X176433Y198774D01*
X176495Y198836D01*
X176629Y198872D01*
X176715Y198934D01*
X176838Y198983D01*
X176936Y199007D01*
X177009Y199081D01*
X177181Y199105D01*
X177254Y199179D01*
X177352Y199203D01*
X177499Y199228D01*
X177573Y199301D01*
X177744Y199326D01*
X177965Y199424D01*
X178197Y199460D01*
X178320Y199509D01*
X178455Y199546D01*
X178700Y199571D01*
X178945Y199644D01*
X179190Y199669D01*
X179680Y199693D01*
X179753Y199718D01*
X180390Y199693D01*
D02*
G37*
G36*
X261304Y424944D02*
X259723D01*
X257661Y430963D01*
X259224D01*
X260537Y426867D01*
X261850Y430963D01*
X263375D01*
X261304Y424944D01*
D02*
G37*
G36*
X241750Y428116D02*
X243811D01*
Y427071D01*
X241750D01*
Y425009D01*
X240686D01*
Y427071D01*
X238625D01*
Y428116D01*
X240686D01*
Y430177D01*
X241750D01*
Y428116D01*
D02*
G37*
G36*
X251883Y424944D02*
X250450D01*
Y426535D01*
X251883D01*
Y424944D01*
D02*
G37*
G36*
X247362Y431065D02*
X247454Y431056D01*
X247556Y431046D01*
X247667Y431037D01*
X247796Y431019D01*
X248055Y430954D01*
X248323Y430871D01*
X248462Y430815D01*
X248582Y430751D01*
X248702Y430677D01*
X248813Y430593D01*
X248823Y430584D01*
X248841Y430575D01*
X248869Y430547D01*
X248897Y430501D01*
X248943Y430455D01*
X248989Y430399D01*
X249035Y430325D01*
X249091Y430242D01*
X249146Y430159D01*
X249193Y430057D01*
X249239Y429946D01*
X249285Y429826D01*
X249313Y429697D01*
X249340Y429558D01*
X249359Y429410D01*
X249368Y429253D01*
Y429244D01*
Y429225D01*
Y429197D01*
Y429160D01*
X249359Y429114D01*
Y429059D01*
X249340Y428920D01*
X249303Y428763D01*
X249257Y428587D01*
X249193Y428402D01*
X249109Y428208D01*
Y428199D01*
X249100Y428190D01*
X249081Y428162D01*
X249063Y428116D01*
X249035Y428069D01*
X248998Y428014D01*
X248915Y427884D01*
X248795Y427718D01*
X248656Y427533D01*
X248481Y427330D01*
X248277Y427117D01*
X248259Y427099D01*
X248212Y427052D01*
X248148Y426988D01*
X248055Y426904D01*
X247944Y426803D01*
X247833Y426692D01*
X247575Y426470D01*
X247556Y426461D01*
X247519Y426424D01*
X247454Y426377D01*
X247380Y426322D01*
X247223Y426193D01*
X247140Y426128D01*
X247075Y426082D01*
X249627D01*
Y424944D01*
X245208D01*
Y425924D01*
X245217Y425934D01*
X245235Y425943D01*
X245263Y425971D01*
X245300Y425998D01*
X245411Y426082D01*
X245541Y426193D01*
X245698Y426322D01*
X245864Y426461D01*
X246040Y426609D01*
X246206Y426757D01*
X246215Y426766D01*
X246225Y426775D01*
X246280Y426821D01*
X246363Y426904D01*
X246474Y426997D01*
X246604Y427117D01*
X246733Y427247D01*
X246872Y427376D01*
X247001Y427515D01*
X247010Y427524D01*
X247020Y427533D01*
X247075Y427589D01*
X247149Y427681D01*
X247251Y427792D01*
X247353Y427912D01*
X247454Y428051D01*
X247556Y428190D01*
X247639Y428328D01*
X247649Y428347D01*
X247667Y428393D01*
X247704Y428458D01*
X247741Y428550D01*
X247778Y428661D01*
X247815Y428781D01*
X247833Y428911D01*
X247843Y429049D01*
Y429059D01*
Y429068D01*
Y429114D01*
X247833Y429197D01*
X247815Y429290D01*
X247778Y429392D01*
X247732Y429493D01*
X247667Y429595D01*
X247584Y429687D01*
X247575Y429697D01*
X247537Y429724D01*
X247482Y429761D01*
X247408Y429808D01*
X247306Y429845D01*
X247186Y429882D01*
X247048Y429909D01*
X246890Y429919D01*
X246807D01*
X246752Y429909D01*
X246687Y429900D01*
X246613Y429891D01*
X246456Y429854D01*
X246446D01*
X246419Y429845D01*
X246382Y429835D01*
X246326Y429817D01*
X246262Y429798D01*
X246197Y429771D01*
X246040Y429715D01*
X246031D01*
X246003Y429697D01*
X245966Y429678D01*
X245919Y429660D01*
X245809Y429595D01*
X245688Y429521D01*
X245679D01*
X245661Y429502D01*
X245605Y429465D01*
X245531Y429419D01*
X245466Y429382D01*
X245355D01*
Y430695D01*
X245365Y430704D01*
X245402Y430714D01*
X245466Y430741D01*
X245550Y430769D01*
X245661Y430806D01*
X245790Y430852D01*
X245956Y430899D01*
X246141Y430945D01*
X246151D01*
X246169Y430954D01*
X246197D01*
X246234Y430963D01*
X246280Y430973D01*
X246345Y430982D01*
X246474Y431009D01*
X246641Y431037D01*
X246816Y431056D01*
X247001Y431065D01*
X247186Y431074D01*
X247288D01*
X247362Y431065D01*
D02*
G37*
G36*
X256746Y427431D02*
X257560D01*
Y426350D01*
X256746D01*
Y424926D01*
X255276D01*
Y426350D01*
X252641D01*
Y427468D01*
X255221Y430963D01*
X256746D01*
Y427431D01*
D02*
G37*
G36*
X10005Y359304D02*
Y357723D01*
X3986Y355661D01*
Y357224D01*
X8082Y358537D01*
X3986Y359850D01*
Y361375D01*
X10005Y359304D01*
D02*
G37*
G36*
X8470Y355458D02*
X8562Y355449D01*
X8673Y355430D01*
X8803Y355393D01*
X8923Y355356D01*
X9053Y355301D01*
X9071Y355292D01*
X9108Y355273D01*
X9173Y355236D01*
X9247Y355181D01*
X9339Y355116D01*
X9441Y355042D01*
X9542Y354949D01*
X9635Y354839D01*
X9644Y354829D01*
X9672Y354783D01*
X9718Y354718D01*
X9774Y354635D01*
X9829Y354524D01*
X9894Y354395D01*
X9949Y354247D01*
X10005Y354090D01*
Y354080D01*
X10014Y354071D01*
Y354043D01*
X10023Y354016D01*
X10051Y353923D01*
X10070Y353794D01*
X10097Y353646D01*
X10125Y353479D01*
X10134Y353285D01*
X10144Y353082D01*
Y352925D01*
X10134Y352869D01*
X10125Y352721D01*
X10107Y352555D01*
X10088Y352379D01*
X10051Y352194D01*
X10005Y352019D01*
Y352009D01*
X9996Y352000D01*
X9977Y351945D01*
X9949Y351861D01*
X9903Y351760D01*
X9857Y351640D01*
X9792Y351510D01*
X9718Y351390D01*
X9635Y351270D01*
X9626Y351260D01*
X9589Y351223D01*
X9542Y351168D01*
X9478Y351113D01*
X9395Y351039D01*
X9293Y350974D01*
X9191Y350900D01*
X9071Y350844D01*
X9053Y350835D01*
X9015Y350826D01*
X8951Y350807D01*
X8868Y350780D01*
X8766Y350752D01*
X8646Y350733D01*
X8516Y350724D01*
X8387Y350715D01*
X8378D01*
X8359D01*
X8341D01*
X8304Y350724D01*
X8202Y350733D01*
X8082Y350752D01*
X7952Y350780D01*
X7804Y350835D01*
X7666Y350900D01*
X7527Y350992D01*
X7509Y351002D01*
X7472Y351048D01*
X7407Y351113D01*
X7324Y351205D01*
X7240Y351316D01*
X7139Y351464D01*
X7046Y351630D01*
X6954Y351815D01*
X6926D01*
Y351806D01*
X6917Y351797D01*
X6898Y351769D01*
X6880Y351732D01*
X6824Y351640D01*
X6750Y351529D01*
X6658Y351399D01*
X6556Y351279D01*
X6436Y351168D01*
X6307Y351076D01*
X6288Y351066D01*
X6242Y351048D01*
X6168Y351011D01*
X6066Y350974D01*
X5946Y350937D01*
X5807Y350900D01*
X5650Y350881D01*
X5484Y350872D01*
X5465D01*
X5428D01*
X5364Y350881D01*
X5280Y350891D01*
X5188Y350909D01*
X5086Y350928D01*
X4975Y350965D01*
X4864Y351011D01*
X4855Y351020D01*
X4818Y351039D01*
X4763Y351076D01*
X4689Y351122D01*
X4605Y351186D01*
X4513Y351260D01*
X4430Y351344D01*
X4337Y351445D01*
X4328Y351455D01*
X4300Y351492D01*
X4263Y351556D01*
X4217Y351640D01*
X4162Y351741D01*
X4106Y351852D01*
X4051Y351991D01*
X3995Y352139D01*
Y352148D01*
X3986Y352157D01*
X3977Y352213D01*
X3949Y352305D01*
X3921Y352416D01*
X3903Y352555D01*
X3875Y352721D01*
X3866Y352897D01*
X3857Y353091D01*
Y353184D01*
X3866Y353285D01*
X3875Y353424D01*
X3884Y353572D01*
X3903Y353738D01*
X3940Y353905D01*
X3977Y354062D01*
Y354071D01*
X3986Y354080D01*
X3995Y354136D01*
X4023Y354210D01*
X4060Y354302D01*
X4106Y354413D01*
X4162Y354524D01*
X4217Y354635D01*
X4291Y354737D01*
X4300Y354746D01*
X4328Y354783D01*
X4374Y354829D01*
X4430Y354894D01*
X4494Y354959D01*
X4578Y355033D01*
X4670Y355097D01*
X4772Y355162D01*
X4781Y355171D01*
X4818Y355190D01*
X4873Y355208D01*
X4947Y355236D01*
X5040Y355264D01*
X5142Y355292D01*
X5262Y355301D01*
X5382Y355310D01*
X5401D01*
X5456D01*
X5539Y355301D01*
X5641Y355282D01*
X5761Y355245D01*
X5890Y355208D01*
X6020Y355144D01*
X6159Y355061D01*
X6177Y355051D01*
X6214Y355014D01*
X6279Y354959D01*
X6362Y354875D01*
X6445Y354765D01*
X6547Y354635D01*
X6639Y354478D01*
X6732Y354302D01*
X6760D01*
Y354312D01*
X6769Y354330D01*
X6787Y354358D01*
X6806Y354404D01*
X6852Y354506D01*
X6926Y354635D01*
X7018Y354774D01*
X7129Y354922D01*
X7259Y355061D01*
X7398Y355181D01*
X7416Y355190D01*
X7462Y355227D01*
X7545Y355273D01*
X7656Y355329D01*
X7795Y355375D01*
X7952Y355421D01*
X8137Y355458D01*
X8331Y355467D01*
X8350D01*
X8396D01*
X8470Y355458D01*
D02*
G37*
G36*
X10005Y348450D02*
X8415D01*
Y349883D01*
X10005D01*
Y348450D01*
D02*
G37*
G36*
Y343208D02*
X9025D01*
X9015Y343217D01*
X9006Y343235D01*
X8978Y343263D01*
X8951Y343300D01*
X8868Y343411D01*
X8757Y343540D01*
X8627Y343698D01*
X8489Y343864D01*
X8341Y344040D01*
X8193Y344206D01*
X8183Y344215D01*
X8174Y344225D01*
X8128Y344280D01*
X8045Y344363D01*
X7952Y344474D01*
X7832Y344604D01*
X7703Y344733D01*
X7573Y344872D01*
X7434Y345001D01*
X7425Y345010D01*
X7416Y345020D01*
X7361Y345075D01*
X7268Y345149D01*
X7157Y345251D01*
X7037Y345353D01*
X6898Y345454D01*
X6760Y345556D01*
X6621Y345639D01*
X6602Y345648D01*
X6556Y345667D01*
X6492Y345704D01*
X6399Y345741D01*
X6288Y345778D01*
X6168Y345815D01*
X6038Y345833D01*
X5900Y345843D01*
X5890D01*
X5881D01*
X5835D01*
X5752Y345833D01*
X5659Y345815D01*
X5558Y345778D01*
X5456Y345732D01*
X5354Y345667D01*
X5262Y345584D01*
X5253Y345574D01*
X5225Y345537D01*
X5188Y345482D01*
X5142Y345408D01*
X5105Y345306D01*
X5068Y345186D01*
X5040Y345047D01*
X5031Y344890D01*
Y344807D01*
X5040Y344752D01*
X5049Y344687D01*
X5058Y344613D01*
X5095Y344456D01*
Y344446D01*
X5105Y344419D01*
X5114Y344382D01*
X5132Y344326D01*
X5151Y344262D01*
X5179Y344197D01*
X5234Y344040D01*
Y344030D01*
X5253Y344003D01*
X5271Y343966D01*
X5290Y343919D01*
X5354Y343809D01*
X5428Y343688D01*
Y343679D01*
X5447Y343661D01*
X5484Y343605D01*
X5530Y343531D01*
X5567Y343466D01*
Y343355D01*
X4254D01*
X4245Y343365D01*
X4236Y343402D01*
X4208Y343466D01*
X4180Y343550D01*
X4143Y343661D01*
X4097Y343790D01*
X4051Y343956D01*
X4004Y344141D01*
Y344151D01*
X3995Y344169D01*
Y344197D01*
X3986Y344234D01*
X3977Y344280D01*
X3967Y344345D01*
X3940Y344474D01*
X3912Y344641D01*
X3893Y344816D01*
X3884Y345001D01*
X3875Y345186D01*
Y345288D01*
X3884Y345362D01*
X3893Y345454D01*
X3903Y345556D01*
X3912Y345667D01*
X3930Y345796D01*
X3995Y346055D01*
X4078Y346323D01*
X4134Y346462D01*
X4199Y346582D01*
X4272Y346702D01*
X4356Y346813D01*
X4365Y346823D01*
X4374Y346841D01*
X4402Y346869D01*
X4448Y346897D01*
X4494Y346943D01*
X4550Y346989D01*
X4624Y347035D01*
X4707Y347091D01*
X4790Y347146D01*
X4892Y347192D01*
X5003Y347239D01*
X5123Y347285D01*
X5253Y347313D01*
X5391Y347340D01*
X5539Y347359D01*
X5696Y347368D01*
X5706D01*
X5724D01*
X5752D01*
X5789D01*
X5835Y347359D01*
X5890D01*
X6029Y347340D01*
X6186Y347303D01*
X6362Y347257D01*
X6547Y347192D01*
X6741Y347109D01*
X6750D01*
X6760Y347100D01*
X6787Y347081D01*
X6834Y347063D01*
X6880Y347035D01*
X6935Y346998D01*
X7065Y346915D01*
X7231Y346795D01*
X7416Y346656D01*
X7619Y346480D01*
X7832Y346277D01*
X7851Y346259D01*
X7897Y346212D01*
X7962Y346148D01*
X8045Y346055D01*
X8146Y345944D01*
X8257Y345833D01*
X8479Y345574D01*
X8489Y345556D01*
X8526Y345519D01*
X8572Y345454D01*
X8627Y345380D01*
X8757Y345223D01*
X8821Y345140D01*
X8868Y345075D01*
Y347627D01*
X10005D01*
Y343208D01*
D02*
G37*
G36*
X7878Y339750D02*
X9940D01*
Y338686D01*
X7878D01*
Y336625D01*
X6834D01*
Y338686D01*
X4772D01*
Y339750D01*
X6834D01*
Y341811D01*
X7878D01*
Y339750D01*
D02*
G37*
G36*
X255200Y116124D02*
X255276D01*
X255359Y116117D01*
X255449Y116110D01*
X255643Y116096D01*
X255851Y116068D01*
X256052Y116034D01*
X256240Y115985D01*
X256247D01*
X256261Y115978D01*
X256288Y115971D01*
X256323Y115957D01*
X256364Y115944D01*
X256420Y115930D01*
X256476Y115909D01*
X256545Y115881D01*
X256690Y115826D01*
X256857Y115763D01*
X257037Y115680D01*
X257224Y115597D01*
Y114189D01*
X257086D01*
X257079Y114196D01*
X257065Y114203D01*
X257037Y114224D01*
X257003Y114252D01*
X256961Y114286D01*
X256905Y114321D01*
X256843Y114369D01*
X256767Y114425D01*
X256760Y114432D01*
X256732Y114453D01*
X256690Y114480D01*
X256642Y114515D01*
X256579Y114557D01*
X256517Y114598D01*
X256371Y114689D01*
X256364Y114695D01*
X256330Y114709D01*
X256288Y114737D01*
X256226Y114765D01*
X256150Y114799D01*
X256059Y114841D01*
X255962Y114876D01*
X255851Y114910D01*
X255837Y114917D01*
X255803Y114924D01*
X255740Y114938D01*
X255664Y114959D01*
X255567Y114980D01*
X255463Y114994D01*
X255345Y115000D01*
X255220Y115007D01*
X255158D01*
X255082Y115000D01*
X254985Y114994D01*
X254881Y114980D01*
X254756Y114952D01*
X254638Y114924D01*
X254513Y114883D01*
X254499Y114876D01*
X254458Y114862D01*
X254402Y114827D01*
X254326Y114792D01*
X254236Y114737D01*
X254139Y114675D01*
X254042Y114598D01*
X253944Y114508D01*
X253937Y114494D01*
X253903Y114467D01*
X253861Y114411D01*
X253813Y114342D01*
X253750Y114252D01*
X253688Y114148D01*
X253626Y114023D01*
X253570Y113891D01*
Y113884D01*
X253563Y113877D01*
X253556Y113856D01*
X253549Y113822D01*
X253535Y113787D01*
X253528Y113745D01*
X253501Y113641D01*
X253473Y113517D01*
X253452Y113371D01*
X253438Y113205D01*
X253431Y113024D01*
Y113010D01*
Y112976D01*
X253438Y112927D01*
Y112851D01*
X253445Y112768D01*
X253459Y112664D01*
X253473Y112553D01*
X253501Y112435D01*
X253528Y112310D01*
X253563Y112178D01*
X253605Y112053D01*
X253653Y111922D01*
X253716Y111797D01*
X253785Y111679D01*
X253868Y111568D01*
X253958Y111464D01*
X253965Y111457D01*
X253986Y111443D01*
X254014Y111416D01*
X254055Y111388D01*
X254111Y111346D01*
X254173Y111305D01*
X254250Y111263D01*
X254340Y111215D01*
X254437Y111166D01*
X254541Y111124D01*
X254659Y111083D01*
X254790Y111041D01*
X254929Y111013D01*
X255075Y110986D01*
X255234Y110972D01*
X255401Y110965D01*
X255630D01*
X255657Y110972D01*
X255720D01*
X255782Y110979D01*
Y112164D01*
X254617D01*
Y113302D01*
X257245D01*
Y110334D01*
X257238D01*
X257224Y110327D01*
X257204Y110320D01*
X257176Y110306D01*
X257134Y110292D01*
X257086Y110278D01*
X257030Y110258D01*
X256968Y110237D01*
X256891Y110209D01*
X256815Y110188D01*
X256642Y110133D01*
X256441Y110077D01*
X256212Y110022D01*
X256205D01*
X256184Y110015D01*
X256150Y110008D01*
X256101Y110001D01*
X256045Y109987D01*
X255983Y109973D01*
X255907Y109959D01*
X255824Y109945D01*
X255727Y109932D01*
X255630Y109918D01*
X255422Y109890D01*
X255200Y109876D01*
X254971Y109869D01*
X254908D01*
X254832Y109876D01*
X254735Y109883D01*
X254617Y109897D01*
X254478Y109911D01*
X254326Y109939D01*
X254153Y109973D01*
X253979Y110015D01*
X253792Y110070D01*
X253605Y110133D01*
X253417Y110216D01*
X253230Y110306D01*
X253050Y110417D01*
X252877Y110542D01*
X252710Y110688D01*
X252703Y110694D01*
X252675Y110729D01*
X252634Y110771D01*
X252578Y110840D01*
X252516Y110923D01*
X252447Y111027D01*
X252370Y111145D01*
X252294Y111284D01*
X252211Y111436D01*
X252135Y111610D01*
X252065Y111804D01*
X252003Y112012D01*
X251947Y112234D01*
X251906Y112477D01*
X251878Y112733D01*
X251871Y113004D01*
Y113010D01*
Y113017D01*
Y113038D01*
Y113066D01*
X251878Y113142D01*
X251885Y113239D01*
X251899Y113357D01*
X251913Y113496D01*
X251940Y113655D01*
X251975Y113822D01*
X252024Y114002D01*
X252079Y114182D01*
X252142Y114369D01*
X252225Y114564D01*
X252322Y114751D01*
X252433Y114938D01*
X252565Y115112D01*
X252710Y115278D01*
X252717Y115285D01*
X252752Y115313D01*
X252800Y115354D01*
X252863Y115410D01*
X252953Y115479D01*
X253050Y115548D01*
X253175Y115625D01*
X253314Y115708D01*
X253466Y115784D01*
X253639Y115860D01*
X253834Y115937D01*
X254035Y115999D01*
X254256Y116054D01*
X254492Y116096D01*
X254749Y116124D01*
X255012Y116131D01*
X255137D01*
X255200Y116124D01*
D02*
G37*
G36*
X263541Y109994D02*
X262085D01*
X259769Y114182D01*
Y109994D01*
X258389D01*
Y116006D01*
X260241D01*
X262162Y112560D01*
Y116006D01*
X263541D01*
Y109994D01*
D02*
G37*
G36*
X266849Y115999D02*
X267008D01*
X267189Y115985D01*
X267390Y115971D01*
X267598Y115950D01*
X267806Y115923D01*
X267813D01*
X267834Y115916D01*
X267861D01*
X267903Y115902D01*
X267952Y115895D01*
X268007Y115881D01*
X268069Y115860D01*
X268146Y115840D01*
X268305Y115791D01*
X268479Y115722D01*
X268659Y115632D01*
X268846Y115527D01*
X268853Y115521D01*
X268874Y115514D01*
X268902Y115486D01*
X268943Y115458D01*
X268992Y115423D01*
X269054Y115375D01*
X269116Y115319D01*
X269186Y115257D01*
X269262Y115188D01*
X269338Y115112D01*
X269415Y115028D01*
X269491Y114938D01*
X269567Y114841D01*
X269643Y114737D01*
X269782Y114508D01*
X269789Y114501D01*
X269796Y114480D01*
X269817Y114446D01*
X269838Y114397D01*
X269865Y114335D01*
X269893Y114259D01*
X269921Y114175D01*
X269956Y114078D01*
X269990Y113967D01*
X270018Y113856D01*
X270046Y113732D01*
X270073Y113593D01*
X270094Y113454D01*
X270115Y113309D01*
X270122Y113149D01*
X270129Y112990D01*
Y112983D01*
Y112955D01*
Y112906D01*
X270122Y112851D01*
X270115Y112775D01*
X270108Y112691D01*
X270101Y112594D01*
X270080Y112490D01*
X270067Y112373D01*
X270039Y112255D01*
X269976Y111998D01*
X269935Y111873D01*
X269886Y111742D01*
X269824Y111610D01*
X269761Y111485D01*
X269755Y111478D01*
X269748Y111457D01*
X269727Y111423D01*
X269692Y111374D01*
X269657Y111319D01*
X269616Y111256D01*
X269567Y111187D01*
X269505Y111110D01*
X269373Y110944D01*
X269214Y110778D01*
X269033Y110611D01*
X268936Y110535D01*
X268832Y110466D01*
X268825D01*
X268811Y110452D01*
X268784Y110438D01*
X268749Y110417D01*
X268707Y110396D01*
X268652Y110368D01*
X268596Y110334D01*
X268527Y110306D01*
X268375Y110237D01*
X268201Y110174D01*
X268007Y110119D01*
X267806Y110077D01*
X267778D01*
X267750Y110070D01*
X267709Y110063D01*
X267660Y110056D01*
X267598Y110049D01*
X267529Y110043D01*
X267452Y110036D01*
X267369Y110029D01*
X267279Y110022D01*
X267085Y110008D01*
X266870Y110001D01*
X266641Y109994D01*
X264762D01*
Y116006D01*
X266787D01*
X266849Y115999D01*
D02*
G37*
G36*
X227375Y111055D02*
X225794D01*
X223732Y117074D01*
X225295D01*
X226607Y112978D01*
X227920Y117074D01*
X229446D01*
X227375Y111055D01*
D02*
G37*
G36*
X223251Y115937D02*
X220690D01*
Y114929D01*
X220737D01*
X220774Y114938D01*
X220866D01*
X220977Y114948D01*
X221032D01*
X221069Y114957D01*
X221393D01*
X221504Y114948D01*
X221624Y114938D01*
X221763Y114920D01*
X222040Y114865D01*
X222059D01*
X222105Y114846D01*
X222170Y114827D01*
X222262Y114800D01*
X222364Y114763D01*
X222465Y114717D01*
X222576Y114661D01*
X222687Y114596D01*
X222706Y114587D01*
X222743Y114559D01*
X222808Y114504D01*
X222882Y114439D01*
X222965Y114356D01*
X223057Y114245D01*
X223150Y114134D01*
X223224Y113995D01*
X223233Y113977D01*
X223251Y113931D01*
X223288Y113847D01*
X223325Y113746D01*
X223353Y113616D01*
X223390Y113459D01*
X223409Y113284D01*
X223418Y113089D01*
Y113080D01*
Y113071D01*
Y113043D01*
Y113006D01*
X223409Y112923D01*
X223399Y112803D01*
X223381Y112664D01*
X223344Y112516D01*
X223307Y112368D01*
X223251Y112211D01*
X223242Y112192D01*
X223224Y112146D01*
X223187Y112072D01*
X223131Y111980D01*
X223066Y111869D01*
X222983Y111758D01*
X222882Y111638D01*
X222771Y111527D01*
X222752Y111518D01*
X222715Y111481D01*
X222650Y111425D01*
X222558Y111360D01*
X222447Y111296D01*
X222327Y111222D01*
X222179Y111148D01*
X222022Y111083D01*
X222012D01*
X222003Y111074D01*
X221975Y111065D01*
X221948Y111055D01*
X221855Y111037D01*
X221726Y111009D01*
X221569Y110972D01*
X221393Y110954D01*
X221180Y110935D01*
X220958Y110926D01*
X220847D01*
X220792Y110935D01*
X220718D01*
X220561Y110944D01*
X220376Y110963D01*
X220191Y110981D01*
X219988Y111009D01*
X219803Y111046D01*
X219793D01*
X219784Y111055D01*
X219757D01*
X219720Y111065D01*
X219636Y111083D01*
X219525Y111111D01*
X219396Y111148D01*
X219266Y111194D01*
X219128Y111240D01*
X219008Y111286D01*
Y112599D01*
X219146D01*
X219156Y112590D01*
X219211Y112553D01*
X219294Y112498D01*
X219396Y112442D01*
X219405D01*
X219424Y112433D01*
X219451Y112414D01*
X219498Y112396D01*
X219544Y112368D01*
X219608Y112340D01*
X219683Y112313D01*
X219766Y112276D01*
X219775D01*
X219803Y112267D01*
X219849Y112248D01*
X219904Y112229D01*
X219969Y112202D01*
X220043Y112183D01*
X220200Y112137D01*
X220210D01*
X220237Y112128D01*
X220284Y112119D01*
X220348Y112109D01*
X220422Y112100D01*
X220505Y112091D01*
X220690Y112081D01*
X220783D01*
X220847Y112091D01*
X220921D01*
X221005Y112109D01*
X221199Y112137D01*
X221208D01*
X221245Y112146D01*
X221291Y112165D01*
X221356Y112183D01*
X221504Y112248D01*
X221569Y112294D01*
X221633Y112350D01*
X221643Y112359D01*
X221652Y112368D01*
X221707Y112433D01*
X221772Y112516D01*
X221828Y112618D01*
Y112627D01*
X221837Y112646D01*
X221855Y112683D01*
X221864Y112729D01*
X221883Y112784D01*
X221892Y112858D01*
X221901Y112941D01*
Y113034D01*
Y113043D01*
Y113071D01*
Y113108D01*
X221892Y113163D01*
X221864Y113274D01*
X221809Y113394D01*
Y113404D01*
X221791Y113422D01*
X221772Y113450D01*
X221754Y113487D01*
X221679Y113570D01*
X221578Y113644D01*
X221569Y113653D01*
X221541Y113663D01*
X221495Y113690D01*
X221439Y113718D01*
X221365Y113746D01*
X221282Y113773D01*
X221189Y113801D01*
X221079Y113820D01*
X221069D01*
X221032Y113829D01*
X220977Y113838D01*
X220912Y113847D01*
X220829D01*
X220746Y113857D01*
X220579Y113866D01*
X220459D01*
X220376Y113857D01*
X220274D01*
X220163Y113847D01*
X219932Y113811D01*
X219923D01*
X219877Y113801D01*
X219821Y113792D01*
X219747Y113773D01*
X219664Y113755D01*
X219571Y113736D01*
X219396Y113700D01*
X219266D01*
Y117074D01*
X223251D01*
Y115937D01*
D02*
G37*
G36*
X215679Y114227D02*
X217741D01*
Y113182D01*
X215679D01*
Y111120D01*
X214616D01*
Y113182D01*
X212554D01*
Y114227D01*
X214616D01*
Y116288D01*
X215679D01*
Y114227D01*
D02*
G37*
G36*
X130009Y57304D02*
Y55723D01*
X123990Y53661D01*
Y55224D01*
X128086Y56537D01*
X123990Y57850D01*
Y59375D01*
X130009Y57304D01*
D02*
G37*
G36*
X128345Y53329D02*
X128456Y53319D01*
X128586Y53301D01*
X128715Y53264D01*
X128863Y53227D01*
X129002Y53172D01*
X129020Y53162D01*
X129057Y53144D01*
X129131Y53107D01*
X129214Y53051D01*
X129307Y52977D01*
X129418Y52903D01*
X129519Y52802D01*
X129621Y52691D01*
X129630Y52672D01*
X129658Y52635D01*
X129704Y52561D01*
X129760Y52478D01*
X129824Y52367D01*
X129889Y52238D01*
X129954Y52090D01*
X130009Y51933D01*
Y51923D01*
X130019Y51914D01*
Y51886D01*
X130028Y51859D01*
X130046Y51766D01*
X130074Y51646D01*
X130102Y51489D01*
X130120Y51313D01*
X130130Y51110D01*
X130139Y50888D01*
Y50712D01*
X130130Y50638D01*
X130120Y50472D01*
X130111Y50287D01*
X130083Y50083D01*
X130056Y49880D01*
X130019Y49686D01*
Y49677D01*
X130009Y49667D01*
Y49640D01*
X130000Y49603D01*
X129972Y49510D01*
X129945Y49399D01*
X129908Y49270D01*
X129861Y49131D01*
X129815Y49002D01*
X129760Y48872D01*
X128456D01*
Y49011D01*
X128465Y49029D01*
X128493Y49066D01*
X128530Y49140D01*
X128586Y49233D01*
X128650Y49344D01*
X128706Y49482D01*
X128771Y49630D01*
X128835Y49788D01*
Y49797D01*
X128844Y49806D01*
X128854Y49861D01*
X128882Y49954D01*
X128909Y50065D01*
X128937Y50185D01*
X128955Y50324D01*
X128974Y50472D01*
X128983Y50610D01*
Y50694D01*
X128974Y50749D01*
Y50823D01*
X128965Y50897D01*
X128946Y51082D01*
Y51091D01*
X128937Y51128D01*
X128928Y51174D01*
X128909Y51230D01*
X128863Y51378D01*
X128780Y51516D01*
X128771Y51526D01*
X128761Y51544D01*
X128706Y51600D01*
X128632Y51664D01*
X128530Y51738D01*
X128521D01*
X128502Y51748D01*
X128465Y51766D01*
X128419Y51785D01*
X128355Y51794D01*
X128280Y51812D01*
X128197Y51822D01*
X128105D01*
X128096D01*
X128059D01*
X128012Y51812D01*
X127948Y51803D01*
X127809Y51775D01*
X127744Y51738D01*
X127689Y51701D01*
X127680Y51692D01*
X127661Y51683D01*
X127642Y51655D01*
X127606Y51618D01*
X127541Y51516D01*
X127476Y51387D01*
Y51378D01*
X127467Y51350D01*
X127448Y51313D01*
X127439Y51258D01*
X127421Y51193D01*
X127411Y51110D01*
X127402Y51027D01*
X127393Y50925D01*
Y50832D01*
X127384Y50768D01*
Y50194D01*
X126330D01*
Y50592D01*
X126320Y50666D01*
Y50749D01*
X126311Y50925D01*
Y50934D01*
X126302Y50962D01*
Y51008D01*
X126283Y51063D01*
X126256Y51193D01*
X126209Y51322D01*
Y51332D01*
X126191Y51350D01*
X126182Y51378D01*
X126154Y51415D01*
X126089Y51498D01*
X125997Y51572D01*
X125988D01*
X125969Y51590D01*
X125941Y51600D01*
X125895Y51618D01*
X125849Y51637D01*
X125784Y51646D01*
X125710Y51664D01*
X125627D01*
X125618D01*
X125599D01*
X125562D01*
X125516Y51655D01*
X125424Y51627D01*
X125331Y51572D01*
X125322D01*
X125313Y51554D01*
X125266Y51516D01*
X125202Y51452D01*
X125146Y51369D01*
Y51359D01*
X125137Y51341D01*
X125119Y51313D01*
X125109Y51267D01*
X125072Y51165D01*
X125044Y51027D01*
Y51017D01*
X125035Y50999D01*
Y50962D01*
X125026Y50915D01*
X125017Y50805D01*
Y50610D01*
X125026Y50555D01*
Y50490D01*
X125035Y50407D01*
X125072Y50241D01*
Y50231D01*
X125082Y50204D01*
X125091Y50157D01*
X125109Y50102D01*
X125128Y50037D01*
X125155Y49963D01*
X125211Y49797D01*
Y49788D01*
X125220Y49769D01*
X125239Y49732D01*
X125257Y49695D01*
X125313Y49575D01*
X125377Y49446D01*
Y49436D01*
X125396Y49418D01*
X125414Y49381D01*
X125433Y49344D01*
X125479Y49251D01*
X125525Y49168D01*
Y49048D01*
X124240D01*
X124231Y49066D01*
X124222Y49103D01*
X124194Y49168D01*
X124157Y49270D01*
X124120Y49390D01*
X124083Y49529D01*
X124037Y49695D01*
X123990Y49880D01*
Y49889D01*
X123981Y49908D01*
Y49935D01*
X123972Y49973D01*
X123963Y50019D01*
X123954Y50074D01*
X123926Y50213D01*
X123898Y50379D01*
X123880Y50555D01*
X123870Y50758D01*
X123861Y50962D01*
Y51054D01*
X123870Y51156D01*
Y51276D01*
X123889Y51424D01*
X123907Y51581D01*
X123926Y51738D01*
X123963Y51886D01*
Y51905D01*
X123981Y51951D01*
X124000Y52025D01*
X124028Y52118D01*
X124065Y52228D01*
X124111Y52339D01*
X124166Y52450D01*
X124231Y52561D01*
X124240Y52571D01*
X124268Y52607D01*
X124305Y52663D01*
X124360Y52737D01*
X124425Y52811D01*
X124508Y52885D01*
X124610Y52959D01*
X124712Y53024D01*
X124721Y53033D01*
X124767Y53051D01*
X124823Y53070D01*
X124906Y53107D01*
X125007Y53134D01*
X125119Y53153D01*
X125239Y53172D01*
X125377Y53181D01*
X125387D01*
X125396D01*
X125424D01*
X125461D01*
X125562Y53162D01*
X125682Y53144D01*
X125821Y53107D01*
X125969Y53051D01*
X126126Y52977D01*
X126274Y52876D01*
X126293Y52866D01*
X126339Y52820D01*
X126404Y52755D01*
X126478Y52672D01*
X126570Y52552D01*
X126644Y52423D01*
X126718Y52275D01*
X126774Y52099D01*
X126829D01*
Y52108D01*
X126838Y52136D01*
X126847Y52173D01*
X126857Y52228D01*
X126875Y52293D01*
X126894Y52367D01*
X126940Y52515D01*
Y52524D01*
X126958Y52552D01*
X126977Y52589D01*
X126995Y52645D01*
X127079Y52765D01*
X127125Y52839D01*
X127190Y52913D01*
X127199Y52922D01*
X127217Y52940D01*
X127254Y52977D01*
X127301Y53024D01*
X127356Y53070D01*
X127430Y53116D01*
X127504Y53172D01*
X127596Y53218D01*
X127606Y53227D01*
X127642Y53236D01*
X127689Y53255D01*
X127763Y53282D01*
X127846Y53301D01*
X127948Y53319D01*
X128068Y53329D01*
X128188Y53338D01*
X128197D01*
X128207D01*
X128262D01*
X128345Y53329D01*
D02*
G37*
G36*
X130009Y46450D02*
X128419D01*
Y47883D01*
X130009D01*
Y46450D01*
D02*
G37*
G36*
X128345Y45470D02*
X128456Y45461D01*
X128586Y45442D01*
X128715Y45405D01*
X128863Y45368D01*
X129002Y45313D01*
X129020Y45304D01*
X129057Y45285D01*
X129131Y45248D01*
X129214Y45192D01*
X129307Y45119D01*
X129418Y45045D01*
X129519Y44943D01*
X129621Y44832D01*
X129630Y44813D01*
X129658Y44777D01*
X129704Y44703D01*
X129760Y44619D01*
X129824Y44508D01*
X129889Y44379D01*
X129954Y44231D01*
X130009Y44074D01*
Y44065D01*
X130019Y44055D01*
Y44028D01*
X130028Y44000D01*
X130046Y43907D01*
X130074Y43787D01*
X130102Y43630D01*
X130120Y43454D01*
X130130Y43251D01*
X130139Y43029D01*
Y42853D01*
X130130Y42779D01*
X130120Y42613D01*
X130111Y42428D01*
X130083Y42225D01*
X130056Y42021D01*
X130019Y41827D01*
Y41818D01*
X130009Y41809D01*
Y41781D01*
X130000Y41744D01*
X129972Y41652D01*
X129945Y41540D01*
X129908Y41411D01*
X129861Y41272D01*
X129815Y41143D01*
X129760Y41013D01*
X128456D01*
Y41152D01*
X128465Y41171D01*
X128493Y41208D01*
X128530Y41282D01*
X128586Y41374D01*
X128650Y41485D01*
X128706Y41624D01*
X128771Y41772D01*
X128835Y41929D01*
Y41938D01*
X128844Y41947D01*
X128854Y42003D01*
X128882Y42095D01*
X128909Y42206D01*
X128937Y42326D01*
X128955Y42465D01*
X128974Y42613D01*
X128983Y42752D01*
Y42835D01*
X128974Y42890D01*
Y42964D01*
X128965Y43038D01*
X128946Y43223D01*
Y43232D01*
X128937Y43269D01*
X128928Y43316D01*
X128909Y43371D01*
X128863Y43519D01*
X128780Y43658D01*
X128771Y43667D01*
X128761Y43685D01*
X128706Y43741D01*
X128632Y43806D01*
X128530Y43880D01*
X128521D01*
X128502Y43889D01*
X128465Y43907D01*
X128419Y43926D01*
X128355Y43935D01*
X128280Y43954D01*
X128197Y43963D01*
X128105D01*
X128096D01*
X128059D01*
X128012Y43954D01*
X127948Y43944D01*
X127809Y43917D01*
X127744Y43880D01*
X127689Y43843D01*
X127680Y43833D01*
X127661Y43824D01*
X127642Y43796D01*
X127606Y43759D01*
X127541Y43658D01*
X127476Y43528D01*
Y43519D01*
X127467Y43491D01*
X127448Y43454D01*
X127439Y43399D01*
X127421Y43334D01*
X127411Y43251D01*
X127402Y43168D01*
X127393Y43066D01*
Y42974D01*
X127384Y42909D01*
Y42336D01*
X126330D01*
Y42733D01*
X126320Y42807D01*
Y42890D01*
X126311Y43066D01*
Y43075D01*
X126302Y43103D01*
Y43149D01*
X126283Y43205D01*
X126256Y43334D01*
X126209Y43464D01*
Y43473D01*
X126191Y43491D01*
X126182Y43519D01*
X126154Y43556D01*
X126089Y43639D01*
X125997Y43713D01*
X125988D01*
X125969Y43732D01*
X125941Y43741D01*
X125895Y43759D01*
X125849Y43778D01*
X125784Y43787D01*
X125710Y43806D01*
X125627D01*
X125618D01*
X125599D01*
X125562D01*
X125516Y43796D01*
X125424Y43769D01*
X125331Y43713D01*
X125322D01*
X125313Y43695D01*
X125266Y43658D01*
X125202Y43593D01*
X125146Y43510D01*
Y43501D01*
X125137Y43482D01*
X125119Y43454D01*
X125109Y43408D01*
X125072Y43306D01*
X125044Y43168D01*
Y43158D01*
X125035Y43140D01*
Y43103D01*
X125026Y43057D01*
X125017Y42946D01*
Y42752D01*
X125026Y42696D01*
Y42632D01*
X125035Y42548D01*
X125072Y42382D01*
Y42373D01*
X125082Y42345D01*
X125091Y42299D01*
X125109Y42243D01*
X125128Y42179D01*
X125155Y42105D01*
X125211Y41938D01*
Y41929D01*
X125220Y41910D01*
X125239Y41873D01*
X125257Y41836D01*
X125313Y41716D01*
X125377Y41587D01*
Y41578D01*
X125396Y41559D01*
X125414Y41522D01*
X125433Y41485D01*
X125479Y41393D01*
X125525Y41309D01*
Y41189D01*
X124240D01*
X124231Y41208D01*
X124222Y41245D01*
X124194Y41309D01*
X124157Y41411D01*
X124120Y41531D01*
X124083Y41670D01*
X124037Y41836D01*
X123990Y42021D01*
Y42031D01*
X123981Y42049D01*
Y42077D01*
X123972Y42114D01*
X123963Y42160D01*
X123954Y42215D01*
X123926Y42354D01*
X123898Y42520D01*
X123880Y42696D01*
X123870Y42900D01*
X123861Y43103D01*
Y43196D01*
X123870Y43297D01*
Y43417D01*
X123889Y43565D01*
X123907Y43723D01*
X123926Y43880D01*
X123963Y44028D01*
Y44046D01*
X123981Y44092D01*
X124000Y44166D01*
X124028Y44259D01*
X124065Y44370D01*
X124111Y44481D01*
X124166Y44592D01*
X124231Y44703D01*
X124240Y44712D01*
X124268Y44749D01*
X124305Y44804D01*
X124360Y44878D01*
X124425Y44952D01*
X124508Y45026D01*
X124610Y45100D01*
X124712Y45165D01*
X124721Y45174D01*
X124767Y45192D01*
X124823Y45211D01*
X124906Y45248D01*
X125007Y45276D01*
X125119Y45294D01*
X125239Y45313D01*
X125377Y45322D01*
X125387D01*
X125396D01*
X125424D01*
X125461D01*
X125562Y45304D01*
X125682Y45285D01*
X125821Y45248D01*
X125969Y45192D01*
X126126Y45119D01*
X126274Y45017D01*
X126293Y45008D01*
X126339Y44961D01*
X126404Y44897D01*
X126478Y44813D01*
X126570Y44693D01*
X126644Y44564D01*
X126718Y44416D01*
X126774Y44240D01*
X126829D01*
Y44250D01*
X126838Y44277D01*
X126847Y44314D01*
X126857Y44370D01*
X126875Y44434D01*
X126894Y44508D01*
X126940Y44656D01*
Y44665D01*
X126958Y44693D01*
X126977Y44730D01*
X126995Y44786D01*
X127079Y44906D01*
X127125Y44980D01*
X127190Y45054D01*
X127199Y45063D01*
X127217Y45082D01*
X127254Y45119D01*
X127301Y45165D01*
X127356Y45211D01*
X127430Y45257D01*
X127504Y45313D01*
X127596Y45359D01*
X127606Y45368D01*
X127642Y45377D01*
X127689Y45396D01*
X127763Y45424D01*
X127846Y45442D01*
X127948Y45461D01*
X128068Y45470D01*
X128188Y45479D01*
X128197D01*
X128207D01*
X128262D01*
X128345Y45470D01*
D02*
G37*
G36*
X127883Y37750D02*
X129945D01*
Y36687D01*
X127883D01*
Y34625D01*
X126838D01*
Y36687D01*
X124776D01*
Y37750D01*
X126838D01*
Y39812D01*
X127883D01*
Y37750D01*
D02*
G37*
G36*
X77939Y420990D02*
X76358D01*
X74296Y427009D01*
X75859D01*
X77172Y422914D01*
X78485Y427009D01*
X80010D01*
X77939Y420990D01*
D02*
G37*
G36*
X73816Y425872D02*
X71255D01*
Y424865D01*
X71301D01*
X71338Y424874D01*
X71430D01*
X71541Y424883D01*
X71597D01*
X71634Y424892D01*
X71957D01*
X72068Y424883D01*
X72189Y424874D01*
X72327Y424855D01*
X72604Y424800D01*
X72623D01*
X72669Y424781D01*
X72734Y424763D01*
X72826Y424735D01*
X72928Y424698D01*
X73030Y424652D01*
X73141Y424596D01*
X73252Y424532D01*
X73270Y424522D01*
X73307Y424495D01*
X73372Y424439D01*
X73446Y424374D01*
X73529Y424291D01*
X73622Y424180D01*
X73714Y424069D01*
X73788Y423931D01*
X73797Y423912D01*
X73816Y423866D01*
X73853Y423783D01*
X73890Y423681D01*
X73917Y423552D01*
X73954Y423394D01*
X73973Y423219D01*
X73982Y423025D01*
Y423015D01*
Y423006D01*
Y422978D01*
Y422941D01*
X73973Y422858D01*
X73964Y422738D01*
X73945Y422599D01*
X73908Y422451D01*
X73871Y422303D01*
X73816Y422146D01*
X73806Y422128D01*
X73788Y422081D01*
X73751Y422008D01*
X73696Y421915D01*
X73631Y421804D01*
X73548Y421693D01*
X73446Y421573D01*
X73335Y421462D01*
X73316Y421453D01*
X73279Y421416D01*
X73215Y421360D01*
X73122Y421296D01*
X73011Y421231D01*
X72891Y421157D01*
X72743Y421083D01*
X72586Y421018D01*
X72577D01*
X72568Y421009D01*
X72540Y421000D01*
X72512Y420990D01*
X72420Y420972D01*
X72290Y420944D01*
X72133Y420907D01*
X71957Y420889D01*
X71745Y420870D01*
X71523Y420861D01*
X71412D01*
X71356Y420870D01*
X71282D01*
X71125Y420880D01*
X70940Y420898D01*
X70755Y420917D01*
X70552Y420944D01*
X70367Y420981D01*
X70358D01*
X70349Y420990D01*
X70321D01*
X70284Y421000D01*
X70201Y421018D01*
X70090Y421046D01*
X69960Y421083D01*
X69831Y421129D01*
X69692Y421175D01*
X69572Y421222D01*
Y422535D01*
X69711D01*
X69720Y422525D01*
X69775Y422488D01*
X69859Y422433D01*
X69960Y422377D01*
X69970D01*
X69988Y422368D01*
X70016Y422350D01*
X70062Y422331D01*
X70108Y422303D01*
X70173Y422276D01*
X70247Y422248D01*
X70330Y422211D01*
X70339D01*
X70367Y422202D01*
X70413Y422183D01*
X70469Y422165D01*
X70533Y422137D01*
X70608Y422118D01*
X70765Y422072D01*
X70774D01*
X70802Y422063D01*
X70848Y422054D01*
X70913Y422044D01*
X70986Y422035D01*
X71070Y422026D01*
X71255Y422017D01*
X71347D01*
X71412Y422026D01*
X71486D01*
X71569Y422044D01*
X71763Y422072D01*
X71772D01*
X71809Y422081D01*
X71856Y422100D01*
X71920Y422118D01*
X72068Y422183D01*
X72133Y422229D01*
X72198Y422285D01*
X72207Y422294D01*
X72216Y422303D01*
X72272Y422368D01*
X72336Y422451D01*
X72392Y422553D01*
Y422562D01*
X72401Y422581D01*
X72420Y422618D01*
X72429Y422664D01*
X72447Y422719D01*
X72457Y422793D01*
X72466Y422877D01*
Y422969D01*
Y422978D01*
Y423006D01*
Y423043D01*
X72457Y423098D01*
X72429Y423209D01*
X72373Y423330D01*
Y423339D01*
X72355Y423357D01*
X72336Y423385D01*
X72318Y423422D01*
X72244Y423505D01*
X72142Y423579D01*
X72133Y423589D01*
X72105Y423598D01*
X72059Y423625D01*
X72003Y423653D01*
X71930Y423681D01*
X71846Y423709D01*
X71754Y423736D01*
X71643Y423755D01*
X71634D01*
X71597Y423764D01*
X71541Y423773D01*
X71476Y423783D01*
X71393D01*
X71310Y423792D01*
X71144Y423801D01*
X71024D01*
X70940Y423792D01*
X70839D01*
X70728Y423783D01*
X70497Y423746D01*
X70487D01*
X70441Y423736D01*
X70386Y423727D01*
X70312Y423709D01*
X70228Y423690D01*
X70136Y423672D01*
X69960Y423635D01*
X69831D01*
Y427009D01*
X73816D01*
Y425872D01*
D02*
G37*
G36*
X53115Y424162D02*
X55177D01*
Y423117D01*
X53115D01*
Y421055D01*
X52052D01*
Y423117D01*
X49990D01*
Y424162D01*
X52052D01*
Y426224D01*
X53115D01*
Y424162D01*
D02*
G37*
G36*
X63248Y420990D02*
X61815D01*
Y422581D01*
X63248D01*
Y420990D01*
D02*
G37*
G36*
X59494Y422044D02*
X60733D01*
Y420990D01*
X56757D01*
Y422044D01*
X58024D01*
Y425216D01*
X56757D01*
Y426196D01*
X56933D01*
X57016Y426205D01*
X57109D01*
X57303Y426224D01*
X57312D01*
X57349Y426233D01*
X57396Y426242D01*
X57460Y426251D01*
X57608Y426288D01*
X57682Y426316D01*
X57747Y426344D01*
X57756Y426353D01*
X57775Y426362D01*
X57811Y426381D01*
X57858Y426418D01*
X57950Y426492D01*
X58043Y426603D01*
X58052Y426612D01*
X58061Y426630D01*
X58080Y426667D01*
X58098Y426714D01*
X58126Y426778D01*
X58144Y426852D01*
X58163Y426926D01*
X58172Y427019D01*
X59494D01*
Y422044D01*
D02*
G37*
G36*
X66623Y427130D02*
X66687D01*
X66835Y427111D01*
X67002Y427083D01*
X67187Y427046D01*
X67372Y427000D01*
X67538Y426926D01*
X67547D01*
X67556Y426917D01*
X67612Y426889D01*
X67686Y426843D01*
X67787Y426778D01*
X67899Y426686D01*
X68019Y426584D01*
X68139Y426464D01*
X68250Y426316D01*
X68259Y426297D01*
X68296Y426242D01*
X68342Y426159D01*
X68407Y426048D01*
X68472Y425909D01*
X68536Y425743D01*
X68592Y425549D01*
X68647Y425336D01*
Y425327D01*
X68657Y425308D01*
Y425280D01*
X68666Y425234D01*
X68675Y425179D01*
X68684Y425114D01*
X68703Y425040D01*
X68712Y424948D01*
X68740Y424753D01*
X68758Y424522D01*
X68768Y424273D01*
X68777Y423995D01*
Y423986D01*
Y423958D01*
Y423921D01*
Y423866D01*
Y423801D01*
X68768Y423718D01*
Y423635D01*
X68758Y423533D01*
X68749Y423320D01*
X68721Y423089D01*
X68694Y422858D01*
X68647Y422627D01*
Y422618D01*
X68638Y422599D01*
Y422571D01*
X68620Y422535D01*
X68592Y422424D01*
X68546Y422285D01*
X68490Y422128D01*
X68425Y421971D01*
X68342Y421804D01*
X68250Y421647D01*
X68241Y421628D01*
X68204Y421582D01*
X68139Y421517D01*
X68056Y421425D01*
X67954Y421333D01*
X67825Y421231D01*
X67686Y421138D01*
X67529Y421055D01*
X67519D01*
X67510Y421046D01*
X67482Y421037D01*
X67455Y421027D01*
X67362Y420990D01*
X67233Y420963D01*
X67076Y420926D01*
X66891Y420889D01*
X66687Y420870D01*
X66456Y420861D01*
X66354D01*
X66299Y420870D01*
X66234D01*
X66086Y420889D01*
X65911Y420907D01*
X65735Y420944D01*
X65550Y420990D01*
X65374Y421055D01*
X65365D01*
X65356Y421064D01*
X65300Y421092D01*
X65226Y421138D01*
X65125Y421203D01*
X65005Y421296D01*
X64884Y421397D01*
X64764Y421517D01*
X64653Y421656D01*
Y421665D01*
X64644Y421675D01*
X64607Y421730D01*
X64561Y421813D01*
X64505Y421924D01*
X64441Y422072D01*
X64376Y422239D01*
X64311Y422424D01*
X64256Y422636D01*
Y422645D01*
X64247Y422664D01*
Y422692D01*
X64237Y422738D01*
X64228Y422793D01*
X64219Y422858D01*
X64209Y422941D01*
X64200Y423025D01*
X64173Y423228D01*
X64154Y423459D01*
X64145Y423718D01*
X64135Y423995D01*
Y424005D01*
Y424032D01*
Y424069D01*
Y424134D01*
Y424199D01*
X64145Y424282D01*
Y424374D01*
X64154Y424467D01*
X64163Y424679D01*
X64191Y424911D01*
X64219Y425142D01*
X64256Y425364D01*
Y425373D01*
X64265Y425392D01*
Y425419D01*
X64283Y425456D01*
X64311Y425567D01*
X64348Y425697D01*
X64404Y425854D01*
X64478Y426011D01*
X64561Y426187D01*
X64662Y426344D01*
Y426353D01*
X64672Y426362D01*
X64718Y426409D01*
X64774Y426482D01*
X64866Y426566D01*
X64968Y426667D01*
X65088Y426760D01*
X65236Y426852D01*
X65393Y426936D01*
X65402D01*
X65411Y426945D01*
X65439Y426954D01*
X65476Y426963D01*
X65569Y427000D01*
X65689Y427037D01*
X65846Y427074D01*
X66031Y427111D01*
X66234Y427130D01*
X66456Y427139D01*
X66567D01*
X66623Y427130D01*
D02*
G37*
G36*
X99304Y279995D02*
X97723D01*
X95661Y286014D01*
X97224D01*
X98537Y281918D01*
X99850Y286014D01*
X101375D01*
X99304Y279995D01*
D02*
G37*
G36*
X79750Y283166D02*
X81812D01*
Y282122D01*
X79750D01*
Y280060D01*
X78686D01*
Y282122D01*
X76625D01*
Y283166D01*
X78686D01*
Y285228D01*
X79750D01*
Y283166D01*
D02*
G37*
G36*
X89883Y279995D02*
X88450D01*
Y281585D01*
X89883D01*
Y279995D01*
D02*
G37*
G36*
X86129Y281049D02*
X87368D01*
Y279995D01*
X83392D01*
Y281049D01*
X84659D01*
Y284220D01*
X83392D01*
Y285200D01*
X83568D01*
X83651Y285210D01*
X83744D01*
X83938Y285228D01*
X83947D01*
X83984Y285237D01*
X84031Y285247D01*
X84095Y285256D01*
X84243Y285293D01*
X84317Y285321D01*
X84382Y285348D01*
X84391Y285358D01*
X84410Y285367D01*
X84446Y285385D01*
X84493Y285422D01*
X84585Y285496D01*
X84678Y285607D01*
X84687Y285616D01*
X84696Y285635D01*
X84715Y285672D01*
X84733Y285718D01*
X84761Y285783D01*
X84779Y285857D01*
X84798Y285931D01*
X84807Y286023D01*
X86129D01*
Y281049D01*
D02*
G37*
G36*
X93285Y286134D02*
X93424Y286125D01*
X93572Y286116D01*
X93738Y286097D01*
X93905Y286060D01*
X94062Y286023D01*
X94071D01*
X94080Y286014D01*
X94136Y286005D01*
X94210Y285977D01*
X94302Y285940D01*
X94413Y285894D01*
X94524Y285838D01*
X94635Y285783D01*
X94737Y285709D01*
X94746Y285700D01*
X94783Y285672D01*
X94829Y285626D01*
X94894Y285570D01*
X94959Y285506D01*
X95033Y285422D01*
X95098Y285330D01*
X95162Y285228D01*
X95171Y285219D01*
X95190Y285182D01*
X95208Y285126D01*
X95236Y285053D01*
X95264Y284960D01*
X95292Y284858D01*
X95301Y284738D01*
X95310Y284618D01*
Y284599D01*
Y284544D01*
X95301Y284461D01*
X95282Y284359D01*
X95245Y284239D01*
X95208Y284109D01*
X95144Y283980D01*
X95061Y283841D01*
X95051Y283823D01*
X95014Y283786D01*
X94959Y283721D01*
X94876Y283638D01*
X94765Y283555D01*
X94635Y283453D01*
X94478Y283361D01*
X94302Y283268D01*
Y283240D01*
X94312D01*
X94330Y283231D01*
X94358Y283213D01*
X94404Y283194D01*
X94506Y283148D01*
X94635Y283074D01*
X94774Y282981D01*
X94922Y282871D01*
X95061Y282741D01*
X95181Y282602D01*
X95190Y282584D01*
X95227Y282538D01*
X95273Y282454D01*
X95329Y282344D01*
X95375Y282205D01*
X95421Y282048D01*
X95458Y281863D01*
X95467Y281669D01*
Y281650D01*
Y281604D01*
X95458Y281530D01*
X95449Y281437D01*
X95430Y281327D01*
X95393Y281197D01*
X95356Y281077D01*
X95301Y280947D01*
X95292Y280929D01*
X95273Y280892D01*
X95236Y280827D01*
X95181Y280753D01*
X95116Y280661D01*
X95042Y280559D01*
X94950Y280457D01*
X94839Y280365D01*
X94829Y280356D01*
X94783Y280328D01*
X94718Y280282D01*
X94635Y280226D01*
X94524Y280171D01*
X94395Y280106D01*
X94247Y280051D01*
X94090Y279995D01*
X94080D01*
X94071Y279986D01*
X94044D01*
X94016Y279977D01*
X93923Y279949D01*
X93794Y279930D01*
X93646Y279903D01*
X93479Y279875D01*
X93285Y279866D01*
X93082Y279856D01*
X92925D01*
X92869Y279866D01*
X92721Y279875D01*
X92555Y279893D01*
X92379Y279912D01*
X92194Y279949D01*
X92019Y279995D01*
X92009D01*
X92000Y280004D01*
X91945Y280023D01*
X91861Y280051D01*
X91760Y280097D01*
X91640Y280143D01*
X91510Y280208D01*
X91390Y280282D01*
X91270Y280365D01*
X91260Y280374D01*
X91224Y280411D01*
X91168Y280457D01*
X91113Y280522D01*
X91039Y280605D01*
X90974Y280707D01*
X90900Y280809D01*
X90844Y280929D01*
X90835Y280947D01*
X90826Y280984D01*
X90808Y281049D01*
X90780Y281132D01*
X90752Y281234D01*
X90733Y281354D01*
X90724Y281484D01*
X90715Y281613D01*
Y281622D01*
Y281641D01*
Y281659D01*
X90724Y281696D01*
X90733Y281798D01*
X90752Y281918D01*
X90780Y282048D01*
X90835Y282196D01*
X90900Y282334D01*
X90992Y282473D01*
X91002Y282491D01*
X91048Y282528D01*
X91113Y282593D01*
X91205Y282676D01*
X91316Y282760D01*
X91464Y282861D01*
X91630Y282954D01*
X91815Y283046D01*
Y283074D01*
X91806D01*
X91797Y283083D01*
X91769Y283102D01*
X91732Y283120D01*
X91640Y283176D01*
X91529Y283250D01*
X91399Y283342D01*
X91279Y283444D01*
X91168Y283564D01*
X91076Y283693D01*
X91066Y283712D01*
X91048Y283758D01*
X91011Y283832D01*
X90974Y283934D01*
X90937Y284054D01*
X90900Y284193D01*
X90882Y284350D01*
X90872Y284516D01*
Y284535D01*
Y284572D01*
X90882Y284636D01*
X90891Y284720D01*
X90909Y284812D01*
X90928Y284914D01*
X90965Y285025D01*
X91011Y285136D01*
X91020Y285145D01*
X91039Y285182D01*
X91076Y285237D01*
X91122Y285311D01*
X91187Y285395D01*
X91260Y285487D01*
X91344Y285570D01*
X91446Y285663D01*
X91455Y285672D01*
X91492Y285700D01*
X91556Y285737D01*
X91640Y285783D01*
X91741Y285838D01*
X91852Y285894D01*
X91991Y285949D01*
X92139Y286005D01*
X92148D01*
X92157Y286014D01*
X92213Y286023D01*
X92305Y286051D01*
X92416Y286079D01*
X92555Y286097D01*
X92721Y286125D01*
X92897Y286134D01*
X93091Y286143D01*
X93184D01*
X93285Y286134D01*
D02*
G37*
G36*
X13199Y270124D02*
X13276D01*
X13359Y270117D01*
X13449Y270110D01*
X13643Y270096D01*
X13851Y270068D01*
X14052Y270034D01*
X14240Y269985D01*
X14247D01*
X14260Y269978D01*
X14288Y269971D01*
X14323Y269957D01*
X14365Y269944D01*
X14420Y269930D01*
X14475Y269909D01*
X14545Y269881D01*
X14690Y269826D01*
X14857Y269763D01*
X15037Y269680D01*
X15224Y269597D01*
Y268189D01*
X15086D01*
X15079Y268196D01*
X15065Y268203D01*
X15037Y268224D01*
X15002Y268252D01*
X14961Y268286D01*
X14905Y268321D01*
X14843Y268370D01*
X14767Y268425D01*
X14760Y268432D01*
X14732Y268453D01*
X14690Y268480D01*
X14642Y268515D01*
X14579Y268557D01*
X14517Y268598D01*
X14371Y268689D01*
X14365Y268695D01*
X14330Y268709D01*
X14288Y268737D01*
X14226Y268765D01*
X14150Y268799D01*
X14059Y268841D01*
X13962Y268876D01*
X13851Y268910D01*
X13837Y268917D01*
X13803Y268924D01*
X13740Y268938D01*
X13664Y268959D01*
X13567Y268980D01*
X13463Y268994D01*
X13345Y269000D01*
X13220Y269007D01*
X13158D01*
X13082Y269000D01*
X12985Y268994D01*
X12881Y268980D01*
X12756Y268952D01*
X12638Y268924D01*
X12513Y268883D01*
X12499Y268876D01*
X12458Y268862D01*
X12402Y268827D01*
X12326Y268792D01*
X12236Y268737D01*
X12139Y268675D01*
X12041Y268598D01*
X11945Y268508D01*
X11938Y268494D01*
X11903Y268467D01*
X11861Y268411D01*
X11813Y268342D01*
X11750Y268252D01*
X11688Y268148D01*
X11625Y268023D01*
X11570Y267891D01*
Y267884D01*
X11563Y267877D01*
X11556Y267856D01*
X11549Y267822D01*
X11535Y267787D01*
X11528Y267745D01*
X11501Y267641D01*
X11473Y267517D01*
X11452Y267371D01*
X11438Y267205D01*
X11431Y267024D01*
Y267010D01*
Y266976D01*
X11438Y266927D01*
Y266851D01*
X11445Y266768D01*
X11459Y266664D01*
X11473Y266553D01*
X11501Y266435D01*
X11528Y266310D01*
X11563Y266178D01*
X11605Y266054D01*
X11653Y265922D01*
X11716Y265797D01*
X11785Y265679D01*
X11868Y265568D01*
X11958Y265464D01*
X11965Y265457D01*
X11986Y265443D01*
X12014Y265415D01*
X12055Y265388D01*
X12111Y265346D01*
X12173Y265305D01*
X12250Y265263D01*
X12340Y265215D01*
X12437Y265166D01*
X12541Y265124D01*
X12659Y265083D01*
X12790Y265041D01*
X12929Y265013D01*
X13075Y264986D01*
X13234Y264972D01*
X13401Y264965D01*
X13629D01*
X13657Y264972D01*
X13720D01*
X13782Y264979D01*
Y266164D01*
X12617D01*
Y267302D01*
X15245D01*
Y264334D01*
X15238D01*
X15224Y264327D01*
X15203Y264320D01*
X15176Y264306D01*
X15134Y264292D01*
X15086Y264278D01*
X15030Y264258D01*
X14968Y264237D01*
X14892Y264209D01*
X14815Y264188D01*
X14642Y264133D01*
X14441Y264077D01*
X14212Y264022D01*
X14205D01*
X14184Y264015D01*
X14150Y264008D01*
X14101Y264001D01*
X14045Y263987D01*
X13983Y263973D01*
X13907Y263959D01*
X13824Y263946D01*
X13727Y263932D01*
X13629Y263918D01*
X13421Y263890D01*
X13199Y263876D01*
X12971Y263869D01*
X12908D01*
X12832Y263876D01*
X12735Y263883D01*
X12617Y263897D01*
X12478Y263911D01*
X12326Y263939D01*
X12153Y263973D01*
X11979Y264015D01*
X11792Y264070D01*
X11605Y264133D01*
X11417Y264216D01*
X11230Y264306D01*
X11050Y264417D01*
X10877Y264542D01*
X10710Y264688D01*
X10703Y264694D01*
X10675Y264729D01*
X10634Y264771D01*
X10578Y264840D01*
X10516Y264923D01*
X10447Y265027D01*
X10370Y265145D01*
X10294Y265284D01*
X10211Y265436D01*
X10135Y265610D01*
X10065Y265804D01*
X10003Y266012D01*
X9947Y266234D01*
X9906Y266476D01*
X9878Y266733D01*
X9871Y267003D01*
Y267010D01*
Y267017D01*
Y267038D01*
Y267066D01*
X9878Y267142D01*
X9885Y267239D01*
X9899Y267357D01*
X9913Y267496D01*
X9941Y267655D01*
X9975Y267822D01*
X10024Y268002D01*
X10079Y268182D01*
X10142Y268370D01*
X10225Y268564D01*
X10322Y268751D01*
X10433Y268938D01*
X10565Y269111D01*
X10710Y269278D01*
X10717Y269285D01*
X10752Y269313D01*
X10800Y269354D01*
X10863Y269410D01*
X10953Y269479D01*
X11050Y269548D01*
X11175Y269625D01*
X11313Y269708D01*
X11466Y269784D01*
X11639Y269860D01*
X11833Y269937D01*
X12035Y269999D01*
X12256Y270054D01*
X12492Y270096D01*
X12749Y270124D01*
X13012Y270131D01*
X13137D01*
X13199Y270124D01*
D02*
G37*
G36*
X21541Y263994D02*
X20085D01*
X17769Y268182D01*
Y263994D01*
X16389D01*
Y270006D01*
X18241D01*
X20161Y266560D01*
Y270006D01*
X21541D01*
Y263994D01*
D02*
G37*
G36*
X24849Y269999D02*
X25008D01*
X25189Y269985D01*
X25390Y269971D01*
X25598Y269951D01*
X25806Y269923D01*
X25813D01*
X25834Y269916D01*
X25861D01*
X25903Y269902D01*
X25951Y269895D01*
X26007Y269881D01*
X26069Y269860D01*
X26146Y269840D01*
X26305Y269791D01*
X26479Y269722D01*
X26659Y269632D01*
X26846Y269527D01*
X26853Y269521D01*
X26874Y269514D01*
X26902Y269486D01*
X26943Y269458D01*
X26992Y269424D01*
X27054Y269375D01*
X27116Y269319D01*
X27186Y269257D01*
X27262Y269188D01*
X27338Y269111D01*
X27415Y269028D01*
X27491Y268938D01*
X27567Y268841D01*
X27643Y268737D01*
X27782Y268508D01*
X27789Y268501D01*
X27796Y268480D01*
X27817Y268446D01*
X27838Y268397D01*
X27865Y268335D01*
X27893Y268259D01*
X27921Y268175D01*
X27956Y268078D01*
X27990Y267967D01*
X28018Y267856D01*
X28046Y267732D01*
X28073Y267593D01*
X28094Y267454D01*
X28115Y267309D01*
X28122Y267149D01*
X28129Y266990D01*
Y266983D01*
Y266955D01*
Y266906D01*
X28122Y266851D01*
X28115Y266775D01*
X28108Y266691D01*
X28101Y266594D01*
X28080Y266490D01*
X28066Y266373D01*
X28039Y266255D01*
X27976Y265998D01*
X27935Y265873D01*
X27886Y265742D01*
X27824Y265610D01*
X27761Y265485D01*
X27754Y265478D01*
X27747Y265457D01*
X27727Y265422D01*
X27692Y265374D01*
X27657Y265319D01*
X27616Y265256D01*
X27567Y265187D01*
X27505Y265110D01*
X27373Y264944D01*
X27214Y264778D01*
X27033Y264611D01*
X26936Y264535D01*
X26832Y264466D01*
X26825D01*
X26811Y264452D01*
X26784Y264438D01*
X26749Y264417D01*
X26707Y264396D01*
X26652Y264368D01*
X26596Y264334D01*
X26527Y264306D01*
X26374Y264237D01*
X26201Y264174D01*
X26007Y264119D01*
X25806Y264077D01*
X25778D01*
X25750Y264070D01*
X25709Y264063D01*
X25660Y264056D01*
X25598Y264049D01*
X25529Y264043D01*
X25452Y264036D01*
X25369Y264029D01*
X25279Y264022D01*
X25085Y264008D01*
X24870Y264001D01*
X24641Y263994D01*
X22762D01*
Y270006D01*
X24787D01*
X24849Y269999D01*
D02*
G37*
G36*
X201111Y338168D02*
Y338159D01*
Y338122D01*
Y338066D01*
X201101Y337983D01*
X201092Y337891D01*
X201074Y337789D01*
X201055Y337669D01*
X201028Y337539D01*
X201000Y337401D01*
X200954Y337262D01*
X200907Y337123D01*
X200843Y336975D01*
X200769Y336837D01*
X200686Y336707D01*
X200584Y336578D01*
X200473Y336457D01*
X200464Y336448D01*
X200445Y336430D01*
X200408Y336402D01*
X200353Y336365D01*
X200288Y336319D01*
X200205Y336273D01*
X200112Y336217D01*
X200001Y336162D01*
X199872Y336106D01*
X199733Y336051D01*
X199576Y336004D01*
X199410Y335958D01*
X199225Y335921D01*
X199030Y335894D01*
X198818Y335875D01*
X198587Y335866D01*
X198466D01*
X198383Y335875D01*
X198282Y335884D01*
X198171Y335894D01*
X198041Y335912D01*
X197903Y335940D01*
X197597Y336004D01*
X197440Y336060D01*
X197292Y336115D01*
X197135Y336180D01*
X196987Y336254D01*
X196849Y336347D01*
X196719Y336448D01*
X196710Y336457D01*
X196691Y336476D01*
X196664Y336513D01*
X196617Y336559D01*
X196571Y336615D01*
X196516Y336689D01*
X196460Y336781D01*
X196395Y336883D01*
X196340Y336994D01*
X196275Y337123D01*
X196220Y337262D01*
X196174Y337419D01*
X196127Y337585D01*
X196100Y337761D01*
X196081Y337955D01*
X196072Y338159D01*
Y342014D01*
X197579D01*
Y338251D01*
Y338242D01*
Y338223D01*
Y338196D01*
Y338149D01*
X197588Y338038D01*
X197607Y337900D01*
X197634Y337743D01*
X197681Y337595D01*
X197736Y337447D01*
X197810Y337317D01*
X197819Y337308D01*
X197856Y337271D01*
X197912Y337225D01*
X197995Y337169D01*
X198106Y337105D01*
X198235Y337058D01*
X198402Y337021D01*
X198587Y337012D01*
X198633D01*
X198670Y337021D01*
X198762Y337031D01*
X198873Y337049D01*
X199003Y337086D01*
X199132Y337132D01*
X199252Y337206D01*
X199354Y337299D01*
X199363Y337317D01*
X199391Y337354D01*
X199437Y337428D01*
X199484Y337530D01*
X199520Y337659D01*
X199567Y337826D01*
X199594Y338020D01*
X199604Y338251D01*
Y342014D01*
X201111D01*
Y338168D01*
D02*
G37*
G36*
X205179Y337049D02*
X206418D01*
Y335995D01*
X202442D01*
Y337049D01*
X203709D01*
Y340220D01*
X202442D01*
Y341200D01*
X202618D01*
X202701Y341210D01*
X202793D01*
X202988Y341228D01*
X202997D01*
X203034Y341237D01*
X203080Y341247D01*
X203145Y341256D01*
X203293Y341293D01*
X203367Y341321D01*
X203431Y341348D01*
X203441Y341358D01*
X203459Y341367D01*
X203496Y341385D01*
X203542Y341422D01*
X203635Y341496D01*
X203727Y341607D01*
X203736Y341617D01*
X203746Y341635D01*
X203764Y341672D01*
X203783Y341718D01*
X203811Y341783D01*
X203829Y341857D01*
X203847Y341931D01*
X203857Y342023D01*
X205179D01*
Y337049D01*
D02*
G37*
G36*
X209746Y342134D02*
X209885Y342125D01*
X210033Y342116D01*
X210199Y342097D01*
X210366Y342060D01*
X210523Y342023D01*
X210532D01*
X210541Y342014D01*
X210597Y342005D01*
X210671Y341977D01*
X210763Y341940D01*
X210874Y341894D01*
X210985Y341838D01*
X211096Y341783D01*
X211198Y341709D01*
X211207Y341700D01*
X211244Y341672D01*
X211290Y341626D01*
X211355Y341570D01*
X211420Y341506D01*
X211494Y341422D01*
X211558Y341330D01*
X211623Y341228D01*
X211632Y341219D01*
X211651Y341182D01*
X211669Y341127D01*
X211697Y341053D01*
X211725Y340960D01*
X211752Y340858D01*
X211762Y340738D01*
X211771Y340618D01*
Y340600D01*
Y340544D01*
X211762Y340461D01*
X211743Y340359D01*
X211706Y340239D01*
X211669Y340109D01*
X211604Y339980D01*
X211521Y339841D01*
X211512Y339823D01*
X211475Y339786D01*
X211420Y339721D01*
X211336Y339638D01*
X211225Y339555D01*
X211096Y339453D01*
X210939Y339361D01*
X210763Y339268D01*
Y339240D01*
X210772D01*
X210791Y339231D01*
X210819Y339213D01*
X210865Y339194D01*
X210967Y339148D01*
X211096Y339074D01*
X211235Y338982D01*
X211383Y338871D01*
X211521Y338741D01*
X211642Y338602D01*
X211651Y338584D01*
X211688Y338538D01*
X211734Y338455D01*
X211789Y338344D01*
X211836Y338205D01*
X211882Y338048D01*
X211919Y337863D01*
X211928Y337669D01*
Y337650D01*
Y337604D01*
X211919Y337530D01*
X211910Y337438D01*
X211891Y337327D01*
X211854Y337197D01*
X211817Y337077D01*
X211762Y336948D01*
X211752Y336929D01*
X211734Y336892D01*
X211697Y336827D01*
X211642Y336753D01*
X211577Y336661D01*
X211503Y336559D01*
X211410Y336457D01*
X211299Y336365D01*
X211290Y336356D01*
X211244Y336328D01*
X211179Y336282D01*
X211096Y336226D01*
X210985Y336171D01*
X210856Y336106D01*
X210708Y336051D01*
X210550Y335995D01*
X210541D01*
X210532Y335986D01*
X210504D01*
X210476Y335977D01*
X210384Y335949D01*
X210255Y335930D01*
X210107Y335903D01*
X209940Y335875D01*
X209746Y335866D01*
X209543Y335857D01*
X209386D01*
X209330Y335866D01*
X209182Y335875D01*
X209016Y335894D01*
X208840Y335912D01*
X208655Y335949D01*
X208479Y335995D01*
X208470D01*
X208461Y336004D01*
X208405Y336023D01*
X208322Y336051D01*
X208221Y336097D01*
X208100Y336143D01*
X207971Y336208D01*
X207851Y336282D01*
X207731Y336365D01*
X207721Y336374D01*
X207684Y336411D01*
X207629Y336457D01*
X207573Y336522D01*
X207500Y336605D01*
X207435Y336707D01*
X207361Y336809D01*
X207305Y336929D01*
X207296Y336948D01*
X207287Y336984D01*
X207268Y337049D01*
X207241Y337132D01*
X207213Y337234D01*
X207194Y337354D01*
X207185Y337484D01*
X207176Y337613D01*
Y337622D01*
Y337641D01*
Y337659D01*
X207185Y337696D01*
X207194Y337798D01*
X207213Y337918D01*
X207241Y338048D01*
X207296Y338196D01*
X207361Y338334D01*
X207453Y338473D01*
X207463Y338492D01*
X207509Y338529D01*
X207573Y338593D01*
X207666Y338676D01*
X207777Y338760D01*
X207925Y338861D01*
X208091Y338954D01*
X208276Y339046D01*
Y339074D01*
X208267D01*
X208258Y339083D01*
X208230Y339102D01*
X208193Y339120D01*
X208100Y339176D01*
X207990Y339250D01*
X207860Y339342D01*
X207740Y339444D01*
X207629Y339564D01*
X207536Y339693D01*
X207527Y339712D01*
X207509Y339758D01*
X207472Y339832D01*
X207435Y339934D01*
X207398Y340054D01*
X207361Y340193D01*
X207342Y340350D01*
X207333Y340516D01*
Y340535D01*
Y340572D01*
X207342Y340636D01*
X207351Y340720D01*
X207370Y340812D01*
X207388Y340914D01*
X207425Y341025D01*
X207472Y341136D01*
X207481Y341145D01*
X207500Y341182D01*
X207536Y341237D01*
X207583Y341311D01*
X207647Y341395D01*
X207721Y341487D01*
X207805Y341570D01*
X207906Y341663D01*
X207915Y341672D01*
X207952Y341700D01*
X208017Y341737D01*
X208100Y341783D01*
X208202Y341838D01*
X208313Y341894D01*
X208452Y341949D01*
X208600Y342005D01*
X208609D01*
X208618Y342014D01*
X208674Y342023D01*
X208766Y342051D01*
X208877Y342079D01*
X209016Y342097D01*
X209182Y342125D01*
X209358Y342134D01*
X209552Y342144D01*
X209644D01*
X209746Y342134D01*
D02*
G37*
G36*
X167166Y229223D02*
Y229214D01*
Y229177D01*
Y229122D01*
X167157Y229039D01*
X167148Y228946D01*
X167129Y228844D01*
X167111Y228724D01*
X167083Y228595D01*
X167055Y228456D01*
X167009Y228317D01*
X166963Y228179D01*
X166898Y228031D01*
X166824Y227892D01*
X166741Y227763D01*
X166639Y227633D01*
X166528Y227513D01*
X166519Y227504D01*
X166500Y227485D01*
X166464Y227458D01*
X166408Y227421D01*
X166343Y227374D01*
X166260Y227328D01*
X166168Y227272D01*
X166057Y227217D01*
X165927Y227162D01*
X165789Y227106D01*
X165631Y227060D01*
X165465Y227014D01*
X165280Y226977D01*
X165086Y226949D01*
X164873Y226931D01*
X164642Y226921D01*
X164522D01*
X164439Y226931D01*
X164337Y226940D01*
X164226Y226949D01*
X164097Y226967D01*
X163958Y226995D01*
X163653Y227060D01*
X163496Y227115D01*
X163348Y227171D01*
X163191Y227236D01*
X163043Y227309D01*
X162904Y227402D01*
X162775Y227504D01*
X162765Y227513D01*
X162747Y227531D01*
X162719Y227568D01*
X162673Y227615D01*
X162627Y227670D01*
X162571Y227744D01*
X162516Y227836D01*
X162451Y227938D01*
X162395Y228049D01*
X162331Y228179D01*
X162275Y228317D01*
X162229Y228475D01*
X162183Y228641D01*
X162155Y228817D01*
X162137Y229011D01*
X162127Y229214D01*
Y233069D01*
X163634D01*
Y229307D01*
Y229297D01*
Y229279D01*
Y229251D01*
Y229205D01*
X163644Y229094D01*
X163662Y228955D01*
X163690Y228798D01*
X163736Y228650D01*
X163792Y228502D01*
X163866Y228373D01*
X163875Y228363D01*
X163912Y228326D01*
X163967Y228280D01*
X164050Y228225D01*
X164161Y228160D01*
X164291Y228114D01*
X164457Y228077D01*
X164642Y228068D01*
X164688D01*
X164725Y228077D01*
X164818Y228086D01*
X164929Y228105D01*
X165058Y228142D01*
X165188Y228188D01*
X165308Y228262D01*
X165410Y228354D01*
X165419Y228373D01*
X165446Y228410D01*
X165493Y228484D01*
X165539Y228585D01*
X165576Y228715D01*
X165622Y228881D01*
X165650Y229075D01*
X165659Y229307D01*
Y233069D01*
X167166D01*
Y229223D01*
D02*
G37*
G36*
X177873Y231868D02*
X175302Y227051D01*
X173629D01*
X176301Y231932D01*
X173444D01*
Y233069D01*
X177873D01*
Y231868D01*
D02*
G37*
G36*
X171234Y228105D02*
X172473D01*
Y227051D01*
X168498D01*
Y228105D01*
X169764D01*
Y231276D01*
X168498D01*
Y232256D01*
X168673D01*
X168757Y232265D01*
X168849D01*
X169043Y232284D01*
X169052D01*
X169089Y232293D01*
X169135Y232302D01*
X169200Y232311D01*
X169348Y232348D01*
X169422Y232376D01*
X169487Y232404D01*
X169496Y232413D01*
X169515Y232422D01*
X169552Y232441D01*
X169598Y232478D01*
X169690Y232552D01*
X169783Y232663D01*
X169792Y232672D01*
X169801Y232691D01*
X169820Y232727D01*
X169838Y232774D01*
X169866Y232838D01*
X169884Y232912D01*
X169903Y232986D01*
X169912Y233079D01*
X171234D01*
Y228105D01*
D02*
G37*
G36*
X167422Y4767D02*
X167514D01*
X167616Y4758D01*
X167829Y4730D01*
X167838D01*
X167875Y4721D01*
X167930D01*
X167995Y4712D01*
X168125Y4693D01*
X168189Y4684D01*
X168235Y4675D01*
Y3491D01*
X168115D01*
X168106Y3501D01*
X168078Y3510D01*
X168041Y3519D01*
X167986Y3537D01*
X167930Y3556D01*
X167856Y3584D01*
X167773Y3602D01*
X167764D01*
X167727Y3611D01*
X167681Y3630D01*
X167616Y3639D01*
X167533Y3658D01*
X167440Y3667D01*
X167329Y3676D01*
X167154D01*
X167108Y3667D01*
X167043D01*
X166978Y3658D01*
X166821Y3630D01*
X166645Y3584D01*
X166460Y3519D01*
X166285Y3427D01*
X166127Y3297D01*
X166109Y3279D01*
X166063Y3232D01*
X166007Y3140D01*
X165924Y3029D01*
X165850Y2872D01*
X165767Y2696D01*
X165702Y2483D01*
X165656Y2234D01*
X165665Y2243D01*
X165711Y2262D01*
X165767Y2299D01*
X165841Y2345D01*
X165933Y2391D01*
X166035Y2437D01*
X166257Y2530D01*
X166275Y2539D01*
X166312Y2548D01*
X166377Y2567D01*
X166460Y2594D01*
X166562Y2613D01*
X166682Y2632D01*
X166812Y2641D01*
X166950Y2650D01*
X167071D01*
X167145Y2641D01*
X167237Y2632D01*
X167339Y2613D01*
X167551Y2558D01*
X167561D01*
X167598Y2539D01*
X167653Y2521D01*
X167727Y2493D01*
X167801Y2456D01*
X167884Y2419D01*
X168060Y2308D01*
X168078Y2299D01*
X168115Y2262D01*
X168171Y2215D01*
X168245Y2141D01*
X168319Y2049D01*
X168402Y1938D01*
X168485Y1818D01*
X168559Y1679D01*
X168568Y1661D01*
X168587Y1605D01*
X168615Y1522D01*
X168652Y1411D01*
X168689Y1263D01*
X168716Y1097D01*
X168735Y903D01*
X168744Y690D01*
Y681D01*
Y644D01*
Y597D01*
X168735Y533D01*
X168725Y450D01*
X168716Y357D01*
X168698Y255D01*
X168670Y135D01*
X168596Y-105D01*
X168550Y-244D01*
X168485Y-373D01*
X168420Y-503D01*
X168337Y-632D01*
X168245Y-752D01*
X168134Y-873D01*
X168125Y-882D01*
X168106Y-900D01*
X168069Y-928D01*
X168023Y-965D01*
X167967Y-1011D01*
X167893Y-1067D01*
X167801Y-1122D01*
X167699Y-1178D01*
X167588Y-1233D01*
X167468Y-1289D01*
X167329Y-1344D01*
X167191Y-1390D01*
X167024Y-1427D01*
X166858Y-1455D01*
X166682Y-1474D01*
X166488Y-1483D01*
X166396D01*
X166303Y-1474D01*
X166174Y-1464D01*
X166026Y-1446D01*
X165869Y-1418D01*
X165702Y-1381D01*
X165545Y-1335D01*
X165527Y-1326D01*
X165480Y-1307D01*
X165397Y-1270D01*
X165305Y-1224D01*
X165194Y-1159D01*
X165083Y-1085D01*
X164963Y-993D01*
X164852Y-891D01*
X164833Y-873D01*
X164796Y-826D01*
X164731Y-752D01*
X164657Y-651D01*
X164574Y-521D01*
X164482Y-364D01*
X164399Y-188D01*
X164325Y6D01*
Y15D01*
X164315Y33D01*
X164306Y61D01*
X164297Y107D01*
X164288Y154D01*
X164269Y218D01*
X164251Y292D01*
X164241Y375D01*
X164204Y570D01*
X164177Y792D01*
X164158Y1041D01*
X164149Y1319D01*
Y1328D01*
Y1356D01*
Y1393D01*
Y1457D01*
X164158Y1522D01*
Y1605D01*
X164167Y1698D01*
Y1790D01*
X164186Y2012D01*
X164223Y2243D01*
X164260Y2493D01*
X164315Y2724D01*
Y2733D01*
X164325Y2752D01*
X164334Y2789D01*
X164352Y2826D01*
X164362Y2881D01*
X164389Y2946D01*
X164445Y3094D01*
X164528Y3260D01*
X164620Y3445D01*
X164731Y3630D01*
X164870Y3815D01*
Y3824D01*
X164889Y3833D01*
X164935Y3889D01*
X165018Y3972D01*
X165129Y4074D01*
X165258Y4185D01*
X165425Y4305D01*
X165610Y4416D01*
X165822Y4518D01*
X165832D01*
X165850Y4527D01*
X165887Y4545D01*
X165933Y4555D01*
X165989Y4582D01*
X166054Y4601D01*
X166137Y4619D01*
X166229Y4647D01*
X166322Y4675D01*
X166433Y4693D01*
X166673Y4739D01*
X166941Y4767D01*
X167237Y4776D01*
X167348D01*
X167422Y4767D01*
D02*
G37*
G36*
X157945Y819D02*
Y810D01*
Y773D01*
Y718D01*
X157936Y634D01*
X157927Y542D01*
X157908Y440D01*
X157890Y320D01*
X157862Y191D01*
X157834Y52D01*
X157788Y-87D01*
X157742Y-225D01*
X157677Y-373D01*
X157603Y-512D01*
X157520Y-641D01*
X157418Y-771D01*
X157307Y-891D01*
X157298Y-900D01*
X157279Y-919D01*
X157242Y-947D01*
X157187Y-984D01*
X157122Y-1030D01*
X157039Y-1076D01*
X156947Y-1132D01*
X156836Y-1187D01*
X156706Y-1242D01*
X156567Y-1298D01*
X156410Y-1344D01*
X156244Y-1390D01*
X156059Y-1427D01*
X155865Y-1455D01*
X155652Y-1474D01*
X155421Y-1483D01*
X155301D01*
X155218Y-1474D01*
X155116Y-1464D01*
X155005Y-1455D01*
X154876Y-1437D01*
X154737Y-1409D01*
X154432Y-1344D01*
X154275Y-1289D01*
X154127Y-1233D01*
X153969Y-1169D01*
X153822Y-1094D01*
X153683Y-1002D01*
X153553Y-900D01*
X153544Y-891D01*
X153526Y-873D01*
X153498Y-836D01*
X153452Y-789D01*
X153406Y-734D01*
X153350Y-660D01*
X153295Y-567D01*
X153230Y-466D01*
X153174Y-355D01*
X153110Y-225D01*
X153054Y-87D01*
X153008Y70D01*
X152962Y237D01*
X152934Y413D01*
X152915Y607D01*
X152906Y810D01*
Y4665D01*
X154413D01*
Y903D01*
Y893D01*
Y875D01*
Y847D01*
Y801D01*
X154423Y690D01*
X154441Y551D01*
X154469Y394D01*
X154515Y246D01*
X154571Y98D01*
X154644Y-31D01*
X154654Y-41D01*
X154691Y-77D01*
X154746Y-124D01*
X154829Y-179D01*
X154940Y-244D01*
X155070Y-290D01*
X155236Y-327D01*
X155421Y-336D01*
X155467D01*
X155504Y-327D01*
X155597Y-318D01*
X155708Y-299D01*
X155837Y-262D01*
X155967Y-216D01*
X156087Y-142D01*
X156188Y-50D01*
X156198Y-31D01*
X156225Y6D01*
X156272Y80D01*
X156318Y181D01*
X156355Y311D01*
X156401Y477D01*
X156429Y671D01*
X156438Y903D01*
Y4665D01*
X157945D01*
Y819D01*
D02*
G37*
G36*
X162013Y-299D02*
X163252D01*
Y-1353D01*
X159277D01*
Y-299D01*
X160543D01*
Y2872D01*
X159277D01*
Y3852D01*
X159452D01*
X159535Y3861D01*
X159628D01*
X159822Y3880D01*
X159831D01*
X159868Y3889D01*
X159914Y3898D01*
X159979Y3907D01*
X160127Y3944D01*
X160201Y3972D01*
X160266Y4000D01*
X160275Y4009D01*
X160294Y4018D01*
X160331Y4037D01*
X160377Y4074D01*
X160469Y4148D01*
X160562Y4259D01*
X160571Y4268D01*
X160580Y4286D01*
X160599Y4323D01*
X160617Y4370D01*
X160645Y4434D01*
X160663Y4508D01*
X160682Y4582D01*
X160691Y4675D01*
X162013D01*
Y-299D01*
D02*
G37*
G36*
X78064Y81223D02*
Y81214D01*
Y81177D01*
Y81122D01*
X78055Y81038D01*
X78046Y80946D01*
X78028Y80844D01*
X78009Y80724D01*
X77981Y80595D01*
X77954Y80456D01*
X77907Y80317D01*
X77861Y80179D01*
X77796Y80031D01*
X77722Y79892D01*
X77639Y79763D01*
X77537Y79633D01*
X77427Y79513D01*
X77417Y79504D01*
X77399Y79485D01*
X77362Y79457D01*
X77306Y79420D01*
X77242Y79374D01*
X77158Y79328D01*
X77066Y79272D01*
X76955Y79217D01*
X76826Y79162D01*
X76687Y79106D01*
X76530Y79060D01*
X76363Y79014D01*
X76178Y78977D01*
X75984Y78949D01*
X75772Y78930D01*
X75540Y78921D01*
X75420D01*
X75337Y78930D01*
X75235Y78940D01*
X75124Y78949D01*
X74995Y78967D01*
X74856Y78995D01*
X74551Y79060D01*
X74394Y79115D01*
X74246Y79171D01*
X74089Y79236D01*
X73941Y79310D01*
X73802Y79402D01*
X73673Y79504D01*
X73664Y79513D01*
X73645Y79531D01*
X73617Y79568D01*
X73571Y79615D01*
X73525Y79670D01*
X73469Y79744D01*
X73414Y79837D01*
X73349Y79938D01*
X73294Y80049D01*
X73229Y80179D01*
X73174Y80317D01*
X73127Y80475D01*
X73081Y80641D01*
X73053Y80817D01*
X73035Y81011D01*
X73026Y81214D01*
Y85070D01*
X74533D01*
Y81307D01*
Y81297D01*
Y81279D01*
Y81251D01*
Y81205D01*
X74542Y81094D01*
X74560Y80955D01*
X74588Y80798D01*
X74634Y80650D01*
X74690Y80502D01*
X74764Y80373D01*
X74773Y80364D01*
X74810Y80326D01*
X74865Y80280D01*
X74949Y80225D01*
X75060Y80160D01*
X75189Y80114D01*
X75356Y80077D01*
X75540Y80068D01*
X75587D01*
X75624Y80077D01*
X75716Y80086D01*
X75827Y80105D01*
X75957Y80142D01*
X76086Y80188D01*
X76206Y80262D01*
X76308Y80354D01*
X76317Y80373D01*
X76345Y80410D01*
X76391Y80484D01*
X76437Y80585D01*
X76474Y80715D01*
X76521Y80881D01*
X76548Y81075D01*
X76557Y81307D01*
Y85070D01*
X78064D01*
Y81223D01*
D02*
G37*
G36*
X82133Y80105D02*
X83371D01*
Y79051D01*
X79396D01*
Y80105D01*
X80662D01*
Y83276D01*
X79396D01*
Y84256D01*
X79571D01*
X79655Y84265D01*
X79747D01*
X79941Y84284D01*
X79951D01*
X79988Y84293D01*
X80034Y84302D01*
X80098Y84311D01*
X80246Y84348D01*
X80320Y84376D01*
X80385Y84404D01*
X80394Y84413D01*
X80413Y84422D01*
X80450Y84441D01*
X80496Y84478D01*
X80589Y84552D01*
X80681Y84663D01*
X80690Y84672D01*
X80700Y84691D01*
X80718Y84727D01*
X80737Y84774D01*
X80764Y84838D01*
X80783Y84912D01*
X80801Y84986D01*
X80810Y85079D01*
X82133D01*
Y80105D01*
D02*
G37*
G36*
X88161Y81538D02*
X88974D01*
Y80456D01*
X88161D01*
Y79032D01*
X86691D01*
Y80456D01*
X84056D01*
Y81575D01*
X86635Y85070D01*
X88161D01*
Y81538D01*
D02*
G37*
G36*
X156681Y461130D02*
X156802D01*
X156950Y461111D01*
X157107Y461093D01*
X157264Y461074D01*
X157412Y461037D01*
X157430D01*
X157477Y461019D01*
X157550Y461000D01*
X157643Y460973D01*
X157754Y460936D01*
X157865Y460889D01*
X157976Y460834D01*
X158087Y460769D01*
X158096Y460760D01*
X158133Y460732D01*
X158188Y460695D01*
X158262Y460640D01*
X158336Y460575D01*
X158410Y460492D01*
X158484Y460390D01*
X158549Y460288D01*
X158558Y460279D01*
X158577Y460233D01*
X158595Y460177D01*
X158632Y460094D01*
X158660Y459992D01*
X158679Y459882D01*
X158697Y459761D01*
X158706Y459623D01*
Y459613D01*
Y459604D01*
Y459576D01*
Y459539D01*
X158688Y459438D01*
X158669Y459318D01*
X158632Y459179D01*
X158577Y459031D01*
X158503Y458874D01*
X158401Y458726D01*
X158392Y458707D01*
X158346Y458661D01*
X158281Y458596D01*
X158198Y458522D01*
X158077Y458430D01*
X157948Y458356D01*
X157800Y458282D01*
X157625Y458227D01*
Y458171D01*
X157634D01*
X157662Y458162D01*
X157698Y458153D01*
X157754Y458143D01*
X157819Y458125D01*
X157893Y458106D01*
X158041Y458060D01*
X158050D01*
X158077Y458042D01*
X158115Y458023D01*
X158170Y458005D01*
X158290Y457921D01*
X158364Y457875D01*
X158438Y457811D01*
X158447Y457801D01*
X158466Y457783D01*
X158503Y457746D01*
X158549Y457700D01*
X158595Y457644D01*
X158642Y457570D01*
X158697Y457496D01*
X158743Y457404D01*
X158752Y457394D01*
X158762Y457357D01*
X158780Y457311D01*
X158808Y457237D01*
X158826Y457154D01*
X158845Y457052D01*
X158854Y456932D01*
X158863Y456812D01*
Y456803D01*
Y456793D01*
Y456738D01*
X158854Y456655D01*
X158845Y456544D01*
X158826Y456414D01*
X158789Y456285D01*
X158752Y456137D01*
X158697Y455998D01*
X158688Y455980D01*
X158669Y455943D01*
X158632Y455869D01*
X158577Y455786D01*
X158503Y455693D01*
X158429Y455582D01*
X158327Y455481D01*
X158216Y455379D01*
X158198Y455370D01*
X158161Y455342D01*
X158087Y455296D01*
X158004Y455240D01*
X157893Y455176D01*
X157763Y455111D01*
X157615Y455046D01*
X157458Y454991D01*
X157449D01*
X157440Y454981D01*
X157412D01*
X157384Y454972D01*
X157292Y454954D01*
X157171Y454926D01*
X157014Y454898D01*
X156839Y454880D01*
X156635Y454870D01*
X156413Y454861D01*
X156238D01*
X156164Y454870D01*
X155997Y454880D01*
X155812Y454889D01*
X155609Y454917D01*
X155406Y454944D01*
X155211Y454981D01*
X155202D01*
X155193Y454991D01*
X155165D01*
X155128Y455000D01*
X155036Y455028D01*
X154925Y455055D01*
X154795Y455092D01*
X154657Y455139D01*
X154527Y455185D01*
X154398Y455240D01*
Y456544D01*
X154536D01*
X154555Y456535D01*
X154592Y456507D01*
X154666Y456470D01*
X154758Y456414D01*
X154869Y456350D01*
X155008Y456294D01*
X155156Y456230D01*
X155313Y456165D01*
X155322D01*
X155332Y456156D01*
X155387Y456146D01*
X155479Y456119D01*
X155590Y456091D01*
X155711Y456063D01*
X155849Y456045D01*
X155997Y456026D01*
X156136Y456017D01*
X156219D01*
X156275Y456026D01*
X156349D01*
X156423Y456035D01*
X156608Y456054D01*
X156617D01*
X156654Y456063D01*
X156700Y456072D01*
X156755Y456091D01*
X156903Y456137D01*
X157042Y456220D01*
X157051Y456230D01*
X157070Y456239D01*
X157125Y456294D01*
X157190Y456368D01*
X157264Y456470D01*
Y456479D01*
X157273Y456498D01*
X157292Y456535D01*
X157310Y456581D01*
X157319Y456646D01*
X157338Y456720D01*
X157347Y456803D01*
Y456895D01*
Y456904D01*
Y456941D01*
X157338Y456988D01*
X157329Y457052D01*
X157301Y457191D01*
X157264Y457256D01*
X157227Y457311D01*
X157218Y457320D01*
X157208Y457339D01*
X157181Y457357D01*
X157144Y457394D01*
X157042Y457459D01*
X156913Y457524D01*
X156903D01*
X156876Y457533D01*
X156839Y457552D01*
X156783Y457561D01*
X156718Y457579D01*
X156635Y457589D01*
X156552Y457598D01*
X156450Y457607D01*
X156358D01*
X156293Y457616D01*
X155720D01*
Y458670D01*
X156117D01*
X156191Y458680D01*
X156275D01*
X156450Y458689D01*
X156460D01*
X156487Y458698D01*
X156533D01*
X156589Y458717D01*
X156718Y458744D01*
X156848Y458791D01*
X156857D01*
X156876Y458809D01*
X156903Y458818D01*
X156940Y458846D01*
X157023Y458911D01*
X157098Y459003D01*
Y459012D01*
X157116Y459031D01*
X157125Y459059D01*
X157144Y459105D01*
X157162Y459151D01*
X157171Y459216D01*
X157190Y459290D01*
Y459373D01*
Y459382D01*
Y459401D01*
Y459438D01*
X157181Y459484D01*
X157153Y459576D01*
X157098Y459669D01*
Y459678D01*
X157079Y459687D01*
X157042Y459734D01*
X156977Y459798D01*
X156894Y459854D01*
X156885D01*
X156866Y459863D01*
X156839Y459882D01*
X156792Y459891D01*
X156691Y459928D01*
X156552Y459955D01*
X156543D01*
X156524Y459965D01*
X156487D01*
X156441Y459974D01*
X156330Y459983D01*
X156136D01*
X156081Y459974D01*
X156016D01*
X155933Y459965D01*
X155766Y459928D01*
X155757D01*
X155729Y459919D01*
X155683Y459909D01*
X155627Y459891D01*
X155563Y459872D01*
X155489Y459845D01*
X155322Y459789D01*
X155313D01*
X155295Y459780D01*
X155258Y459761D01*
X155221Y459743D01*
X155100Y459687D01*
X154971Y459623D01*
X154962D01*
X154943Y459604D01*
X154906Y459586D01*
X154869Y459567D01*
X154777Y459521D01*
X154694Y459475D01*
X154573D01*
Y460760D01*
X154592Y460769D01*
X154629Y460778D01*
X154694Y460806D01*
X154795Y460843D01*
X154916Y460880D01*
X155054Y460917D01*
X155221Y460963D01*
X155406Y461009D01*
X155415D01*
X155433Y461019D01*
X155461D01*
X155498Y461028D01*
X155544Y461037D01*
X155600Y461046D01*
X155738Y461074D01*
X155905Y461102D01*
X156081Y461120D01*
X156284Y461130D01*
X156487Y461139D01*
X156580D01*
X156681Y461130D01*
D02*
G37*
G36*
X148175Y457163D02*
Y457154D01*
Y457117D01*
Y457062D01*
X148166Y456978D01*
X148157Y456886D01*
X148139Y456784D01*
X148120Y456664D01*
X148092Y456535D01*
X148064Y456396D01*
X148018Y456257D01*
X147972Y456119D01*
X147907Y455971D01*
X147833Y455832D01*
X147750Y455703D01*
X147648Y455573D01*
X147537Y455453D01*
X147528Y455444D01*
X147510Y455425D01*
X147473Y455397D01*
X147417Y455360D01*
X147353Y455314D01*
X147269Y455268D01*
X147177Y455212D01*
X147066Y455157D01*
X146937Y455102D01*
X146798Y455046D01*
X146641Y455000D01*
X146474Y454954D01*
X146289Y454917D01*
X146095Y454889D01*
X145883Y454870D01*
X145651Y454861D01*
X145531D01*
X145448Y454870D01*
X145346Y454880D01*
X145235Y454889D01*
X145106Y454907D01*
X144967Y454935D01*
X144662Y455000D01*
X144505Y455055D01*
X144357Y455111D01*
X144200Y455176D01*
X144052Y455249D01*
X143913Y455342D01*
X143784Y455444D01*
X143775Y455453D01*
X143756Y455471D01*
X143728Y455508D01*
X143682Y455555D01*
X143636Y455610D01*
X143580Y455684D01*
X143525Y455776D01*
X143460Y455878D01*
X143405Y455989D01*
X143340Y456119D01*
X143285Y456257D01*
X143238Y456414D01*
X143192Y456581D01*
X143164Y456757D01*
X143146Y456951D01*
X143137Y457154D01*
Y461009D01*
X144644D01*
Y457247D01*
Y457237D01*
Y457219D01*
Y457191D01*
Y457145D01*
X144653Y457034D01*
X144671Y456895D01*
X144699Y456738D01*
X144745Y456590D01*
X144801Y456442D01*
X144875Y456313D01*
X144884Y456303D01*
X144921Y456266D01*
X144977Y456220D01*
X145060Y456165D01*
X145171Y456100D01*
X145300Y456054D01*
X145466Y456017D01*
X145651Y456008D01*
X145698D01*
X145735Y456017D01*
X145827Y456026D01*
X145938Y456045D01*
X146067Y456082D01*
X146197Y456128D01*
X146317Y456202D01*
X146419Y456294D01*
X146428Y456313D01*
X146456Y456350D01*
X146502Y456424D01*
X146548Y456525D01*
X146585Y456655D01*
X146631Y456821D01*
X146659Y457015D01*
X146668Y457247D01*
Y461009D01*
X148175D01*
Y457163D01*
D02*
G37*
G36*
X152243Y456045D02*
X153482D01*
Y454991D01*
X149507D01*
Y456045D01*
X150773D01*
Y459216D01*
X149507D01*
Y460196D01*
X149683D01*
X149766Y460205D01*
X149858D01*
X150052Y460224D01*
X150062D01*
X150099Y460233D01*
X150145Y460242D01*
X150210Y460251D01*
X150357Y460288D01*
X150431Y460316D01*
X150496Y460344D01*
X150505Y460353D01*
X150524Y460362D01*
X150561Y460381D01*
X150607Y460418D01*
X150700Y460492D01*
X150792Y460603D01*
X150801Y460612D01*
X150810Y460630D01*
X150829Y460667D01*
X150848Y460714D01*
X150875Y460778D01*
X150894Y460852D01*
X150912Y460926D01*
X150921Y461019D01*
X152243D01*
Y456045D01*
D02*
G37*
G36*
X28231Y430223D02*
Y430214D01*
Y430177D01*
Y430122D01*
X28222Y430038D01*
X28212Y429946D01*
X28194Y429844D01*
X28175Y429724D01*
X28148Y429595D01*
X28120Y429456D01*
X28074Y429317D01*
X28028Y429179D01*
X27963Y429031D01*
X27889Y428892D01*
X27806Y428763D01*
X27704Y428633D01*
X27593Y428513D01*
X27584Y428504D01*
X27565Y428485D01*
X27528Y428457D01*
X27473Y428420D01*
X27408Y428374D01*
X27325Y428328D01*
X27232Y428273D01*
X27122Y428217D01*
X26992Y428162D01*
X26853Y428106D01*
X26696Y428060D01*
X26530Y428014D01*
X26345Y427977D01*
X26151Y427949D01*
X25938Y427930D01*
X25707Y427921D01*
X25587D01*
X25503Y427930D01*
X25402Y427940D01*
X25291Y427949D01*
X25161Y427967D01*
X25023Y427995D01*
X24718Y428060D01*
X24560Y428115D01*
X24413Y428171D01*
X24255Y428236D01*
X24107Y428310D01*
X23969Y428402D01*
X23839Y428504D01*
X23830Y428513D01*
X23812Y428531D01*
X23784Y428568D01*
X23738Y428615D01*
X23691Y428670D01*
X23636Y428744D01*
X23580Y428837D01*
X23516Y428938D01*
X23460Y429049D01*
X23396Y429179D01*
X23340Y429317D01*
X23294Y429474D01*
X23248Y429641D01*
X23220Y429817D01*
X23201Y430011D01*
X23192Y430214D01*
Y434070D01*
X24699D01*
Y430307D01*
Y430297D01*
Y430279D01*
Y430251D01*
Y430205D01*
X24708Y430094D01*
X24727Y429955D01*
X24755Y429798D01*
X24801Y429650D01*
X24856Y429502D01*
X24930Y429373D01*
X24939Y429364D01*
X24976Y429327D01*
X25032Y429280D01*
X25115Y429225D01*
X25226Y429160D01*
X25356Y429114D01*
X25522Y429077D01*
X25707Y429068D01*
X25753D01*
X25790Y429077D01*
X25882Y429086D01*
X25993Y429105D01*
X26123Y429142D01*
X26252Y429188D01*
X26373Y429262D01*
X26474Y429354D01*
X26484Y429373D01*
X26511Y429410D01*
X26558Y429484D01*
X26604Y429585D01*
X26641Y429715D01*
X26687Y429881D01*
X26715Y430075D01*
X26724Y430307D01*
Y434070D01*
X28231D01*
Y430223D01*
D02*
G37*
G36*
X37569Y429105D02*
X38808D01*
Y428051D01*
X34832D01*
Y429105D01*
X36099D01*
Y432276D01*
X34832D01*
Y433256D01*
X35008D01*
X35091Y433265D01*
X35184D01*
X35378Y433284D01*
X35387D01*
X35424Y433293D01*
X35470Y433302D01*
X35535Y433311D01*
X35683Y433348D01*
X35757Y433376D01*
X35822Y433404D01*
X35831Y433413D01*
X35849Y433422D01*
X35886Y433441D01*
X35933Y433478D01*
X36025Y433552D01*
X36117Y433663D01*
X36127Y433672D01*
X36136Y433690D01*
X36154Y433727D01*
X36173Y433774D01*
X36201Y433838D01*
X36219Y433912D01*
X36238Y433986D01*
X36247Y434079D01*
X37569D01*
Y429105D01*
D02*
G37*
G36*
X32299D02*
X33538D01*
Y428051D01*
X29562D01*
Y429105D01*
X30829D01*
Y432276D01*
X29562D01*
Y433256D01*
X29738D01*
X29821Y433265D01*
X29914D01*
X30108Y433284D01*
X30117D01*
X30154Y433293D01*
X30200Y433302D01*
X30265Y433311D01*
X30413Y433348D01*
X30487Y433376D01*
X30552Y433404D01*
X30561Y433413D01*
X30579Y433422D01*
X30616Y433441D01*
X30663Y433478D01*
X30755Y433552D01*
X30847Y433663D01*
X30857Y433672D01*
X30866Y433690D01*
X30884Y433727D01*
X30903Y433774D01*
X30931Y433838D01*
X30949Y433912D01*
X30968Y433986D01*
X30977Y434079D01*
X32299D01*
Y429105D01*
D02*
G37*
G36*
X35138Y285163D02*
Y285154D01*
Y285117D01*
Y285062D01*
X35129Y284978D01*
X35120Y284886D01*
X35101Y284784D01*
X35083Y284664D01*
X35055Y284535D01*
X35027Y284396D01*
X34981Y284257D01*
X34935Y284118D01*
X34870Y283971D01*
X34796Y283832D01*
X34713Y283703D01*
X34611Y283573D01*
X34501Y283453D01*
X34491Y283444D01*
X34473Y283425D01*
X34436Y283397D01*
X34380Y283360D01*
X34316Y283314D01*
X34232Y283268D01*
X34140Y283213D01*
X34029Y283157D01*
X33900Y283102D01*
X33761Y283046D01*
X33604Y283000D01*
X33437Y282954D01*
X33252Y282917D01*
X33058Y282889D01*
X32846Y282870D01*
X32614Y282861D01*
X32494D01*
X32411Y282870D01*
X32309Y282880D01*
X32198Y282889D01*
X32069Y282907D01*
X31930Y282935D01*
X31625Y283000D01*
X31468Y283055D01*
X31320Y283111D01*
X31163Y283176D01*
X31015Y283249D01*
X30876Y283342D01*
X30747Y283444D01*
X30738Y283453D01*
X30719Y283471D01*
X30691Y283508D01*
X30645Y283555D01*
X30599Y283610D01*
X30543Y283684D01*
X30488Y283776D01*
X30423Y283878D01*
X30368Y283989D01*
X30303Y284118D01*
X30248Y284257D01*
X30201Y284414D01*
X30155Y284581D01*
X30127Y284757D01*
X30109Y284951D01*
X30100Y285154D01*
Y289009D01*
X31607D01*
Y285247D01*
Y285237D01*
Y285219D01*
Y285191D01*
Y285145D01*
X31616Y285034D01*
X31634Y284895D01*
X31662Y284738D01*
X31708Y284590D01*
X31764Y284442D01*
X31838Y284313D01*
X31847Y284303D01*
X31884Y284266D01*
X31939Y284220D01*
X32023Y284165D01*
X32134Y284100D01*
X32263Y284054D01*
X32429Y284017D01*
X32614Y284008D01*
X32661D01*
X32698Y284017D01*
X32790Y284026D01*
X32901Y284045D01*
X33031Y284082D01*
X33160Y284128D01*
X33280Y284202D01*
X33382Y284294D01*
X33391Y284313D01*
X33419Y284350D01*
X33465Y284424D01*
X33511Y284525D01*
X33548Y284655D01*
X33595Y284821D01*
X33622Y285015D01*
X33631Y285247D01*
Y289009D01*
X35138D01*
Y285163D01*
D02*
G37*
G36*
X39207Y284045D02*
X40445D01*
Y282991D01*
X36470D01*
Y284045D01*
X37736D01*
Y287216D01*
X36470D01*
Y288196D01*
X36646D01*
X36729Y288205D01*
X36821D01*
X37015Y288224D01*
X37025D01*
X37062Y288233D01*
X37108Y288242D01*
X37173Y288251D01*
X37320Y288288D01*
X37394Y288316D01*
X37459Y288344D01*
X37468Y288353D01*
X37487Y288362D01*
X37524Y288381D01*
X37570Y288418D01*
X37662Y288492D01*
X37755Y288603D01*
X37764Y288612D01*
X37773Y288630D01*
X37792Y288667D01*
X37810Y288714D01*
X37838Y288778D01*
X37857Y288852D01*
X37875Y288926D01*
X37884Y289019D01*
X39207D01*
Y284045D01*
D02*
G37*
G36*
X43746Y289130D02*
X43811D01*
X43959Y289111D01*
X44125Y289083D01*
X44310Y289046D01*
X44495Y289000D01*
X44661Y288926D01*
X44671D01*
X44680Y288917D01*
X44735Y288889D01*
X44809Y288843D01*
X44911Y288778D01*
X45022Y288686D01*
X45142Y288584D01*
X45262Y288464D01*
X45373Y288316D01*
X45383Y288298D01*
X45420Y288242D01*
X45466Y288159D01*
X45531Y288048D01*
X45595Y287909D01*
X45660Y287743D01*
X45715Y287549D01*
X45771Y287336D01*
Y287327D01*
X45780Y287308D01*
Y287281D01*
X45789Y287234D01*
X45799Y287179D01*
X45808Y287114D01*
X45826Y287040D01*
X45836Y286948D01*
X45863Y286754D01*
X45882Y286522D01*
X45891Y286273D01*
X45900Y285995D01*
Y285986D01*
Y285958D01*
Y285921D01*
Y285866D01*
Y285801D01*
X45891Y285718D01*
Y285635D01*
X45882Y285533D01*
X45873Y285320D01*
X45845Y285089D01*
X45817Y284858D01*
X45771Y284627D01*
Y284618D01*
X45762Y284599D01*
Y284572D01*
X45743Y284535D01*
X45715Y284424D01*
X45669Y284285D01*
X45614Y284128D01*
X45549Y283971D01*
X45466Y283804D01*
X45373Y283647D01*
X45364Y283629D01*
X45327Y283582D01*
X45262Y283518D01*
X45179Y283425D01*
X45078Y283333D01*
X44948Y283231D01*
X44809Y283139D01*
X44652Y283055D01*
X44643D01*
X44634Y283046D01*
X44606Y283037D01*
X44578Y283028D01*
X44486Y282991D01*
X44356Y282963D01*
X44199Y282926D01*
X44014Y282889D01*
X43811Y282870D01*
X43580Y282861D01*
X43478D01*
X43422Y282870D01*
X43358D01*
X43210Y282889D01*
X43034Y282907D01*
X42859Y282944D01*
X42674Y282991D01*
X42498Y283055D01*
X42489D01*
X42480Y283064D01*
X42424Y283092D01*
X42350Y283139D01*
X42248Y283203D01*
X42128Y283296D01*
X42008Y283397D01*
X41888Y283518D01*
X41777Y283656D01*
Y283666D01*
X41768Y283675D01*
X41731Y283730D01*
X41684Y283813D01*
X41629Y283924D01*
X41564Y284072D01*
X41500Y284239D01*
X41435Y284424D01*
X41379Y284636D01*
Y284646D01*
X41370Y284664D01*
Y284692D01*
X41361Y284738D01*
X41351Y284793D01*
X41342Y284858D01*
X41333Y284941D01*
X41324Y285025D01*
X41296Y285228D01*
X41278Y285459D01*
X41268Y285718D01*
X41259Y285995D01*
Y286005D01*
Y286032D01*
Y286069D01*
Y286134D01*
Y286199D01*
X41268Y286282D01*
Y286374D01*
X41278Y286467D01*
X41287Y286680D01*
X41315Y286911D01*
X41342Y287142D01*
X41379Y287364D01*
Y287373D01*
X41389Y287391D01*
Y287419D01*
X41407Y287456D01*
X41435Y287567D01*
X41472Y287697D01*
X41527Y287854D01*
X41601Y288011D01*
X41684Y288187D01*
X41786Y288344D01*
Y288353D01*
X41795Y288362D01*
X41842Y288409D01*
X41897Y288482D01*
X41989Y288566D01*
X42091Y288667D01*
X42211Y288760D01*
X42359Y288852D01*
X42516Y288936D01*
X42526D01*
X42535Y288945D01*
X42563Y288954D01*
X42600Y288963D01*
X42692Y289000D01*
X42812Y289037D01*
X42969Y289074D01*
X43154Y289111D01*
X43358Y289130D01*
X43580Y289139D01*
X43691D01*
X43746Y289130D01*
D02*
G37*
G36*
X29815Y154163D02*
Y154154D01*
Y154117D01*
Y154062D01*
X29806Y153978D01*
X29797Y153886D01*
X29778Y153784D01*
X29760Y153664D01*
X29732Y153535D01*
X29704Y153396D01*
X29658Y153257D01*
X29612Y153118D01*
X29547Y152971D01*
X29473Y152832D01*
X29390Y152703D01*
X29288Y152573D01*
X29177Y152453D01*
X29168Y152444D01*
X29149Y152425D01*
X29112Y152397D01*
X29057Y152360D01*
X28992Y152314D01*
X28909Y152268D01*
X28817Y152212D01*
X28706Y152157D01*
X28576Y152101D01*
X28438Y152046D01*
X28280Y152000D01*
X28114Y151954D01*
X27929Y151917D01*
X27735Y151889D01*
X27522Y151870D01*
X27291Y151861D01*
X27171D01*
X27088Y151870D01*
X26986Y151880D01*
X26875Y151889D01*
X26746Y151907D01*
X26607Y151935D01*
X26302Y152000D01*
X26145Y152055D01*
X25997Y152111D01*
X25840Y152176D01*
X25691Y152249D01*
X25553Y152342D01*
X25423Y152444D01*
X25414Y152453D01*
X25396Y152471D01*
X25368Y152508D01*
X25322Y152555D01*
X25275Y152610D01*
X25220Y152684D01*
X25164Y152776D01*
X25100Y152878D01*
X25044Y152989D01*
X24980Y153118D01*
X24924Y153257D01*
X24878Y153414D01*
X24832Y153581D01*
X24804Y153757D01*
X24785Y153951D01*
X24776Y154154D01*
Y158009D01*
X26283D01*
Y154247D01*
Y154237D01*
Y154219D01*
Y154191D01*
Y154145D01*
X26293Y154034D01*
X26311Y153895D01*
X26339Y153738D01*
X26385Y153590D01*
X26440Y153442D01*
X26514Y153313D01*
X26524Y153303D01*
X26561Y153266D01*
X26616Y153220D01*
X26699Y153165D01*
X26810Y153100D01*
X26940Y153054D01*
X27106Y153017D01*
X27291Y153008D01*
X27337D01*
X27374Y153017D01*
X27467Y153026D01*
X27578Y153045D01*
X27707Y153082D01*
X27836Y153128D01*
X27957Y153202D01*
X28058Y153294D01*
X28068Y153313D01*
X28095Y153350D01*
X28142Y153424D01*
X28188Y153525D01*
X28225Y153655D01*
X28271Y153821D01*
X28299Y154015D01*
X28308Y154247D01*
Y158009D01*
X29815D01*
Y154163D01*
D02*
G37*
G36*
X33079Y158130D02*
X33208Y158120D01*
X33356Y158102D01*
X33513Y158074D01*
X33670Y158037D01*
X33828Y157991D01*
X33837D01*
X33846Y157982D01*
X33892Y157963D01*
X33976Y157926D01*
X34068Y157880D01*
X34179Y157815D01*
X34299Y157741D01*
X34419Y157649D01*
X34530Y157538D01*
X34549Y157519D01*
X34586Y157473D01*
X34650Y157399D01*
X34725Y157297D01*
X34808Y157168D01*
X34891Y157011D01*
X34974Y156835D01*
X35048Y156641D01*
Y156632D01*
X35057Y156613D01*
X35067Y156586D01*
X35076Y156549D01*
X35085Y156493D01*
X35104Y156428D01*
X35122Y156355D01*
X35141Y156280D01*
X35168Y156086D01*
X35196Y155864D01*
X35215Y155615D01*
X35224Y155337D01*
Y155328D01*
Y155301D01*
Y155264D01*
Y155208D01*
X35215Y155143D01*
Y155060D01*
X35205Y154968D01*
Y154875D01*
X35178Y154653D01*
X35150Y154413D01*
X35104Y154172D01*
X35039Y153923D01*
Y153914D01*
X35030Y153895D01*
X35020Y153858D01*
X35002Y153812D01*
X34983Y153766D01*
X34965Y153701D01*
X34900Y153544D01*
X34826Y153377D01*
X34734Y153193D01*
X34613Y153008D01*
X34484Y152832D01*
Y152823D01*
X34466Y152813D01*
X34419Y152758D01*
X34327Y152666D01*
X34216Y152564D01*
X34077Y152453D01*
X33911Y152333D01*
X33726Y152212D01*
X33523Y152111D01*
X33513D01*
X33495Y152101D01*
X33467Y152092D01*
X33421Y152074D01*
X33365Y152055D01*
X33301Y152037D01*
X33217Y152009D01*
X33134Y151991D01*
X33033Y151972D01*
X32922Y151944D01*
X32681Y151907D01*
X32413Y151880D01*
X32108Y151870D01*
X32006D01*
X31932Y151880D01*
X31840D01*
X31738Y151889D01*
X31516Y151907D01*
X31507D01*
X31470Y151917D01*
X31415D01*
X31350Y151926D01*
X31220Y151954D01*
X31165Y151963D01*
X31119Y151972D01*
Y153155D01*
X31239D01*
X31248Y153146D01*
X31276Y153128D01*
X31313Y153118D01*
X31359Y153100D01*
X31405Y153072D01*
X31544Y153026D01*
X31553D01*
X31581Y153017D01*
X31627Y153008D01*
X31701Y152998D01*
X31784Y152989D01*
X31877Y152980D01*
X31997Y152971D01*
X32237D01*
X32311Y152980D01*
X32395Y152989D01*
X32487Y152998D01*
X32690Y153045D01*
X32700D01*
X32737Y153063D01*
X32792Y153082D01*
X32857Y153109D01*
X32931Y153146D01*
X33014Y153183D01*
X33171Y153294D01*
X33180Y153303D01*
X33208Y153322D01*
X33245Y153368D01*
X33291Y153414D01*
X33347Y153479D01*
X33402Y153553D01*
X33458Y153645D01*
X33513Y153738D01*
X33523Y153747D01*
X33532Y153784D01*
X33560Y153849D01*
X33587Y153923D01*
X33624Y154025D01*
X33652Y154136D01*
X33680Y154265D01*
X33698Y154413D01*
X33680Y154404D01*
X33643Y154376D01*
X33578Y154339D01*
X33504Y154302D01*
X33412Y154247D01*
X33310Y154191D01*
X33097Y154099D01*
X33088D01*
X33051Y154080D01*
X32986Y154071D01*
X32912Y154052D01*
X32811Y154034D01*
X32690Y154015D01*
X32561Y154006D01*
X32413Y153997D01*
X32302D01*
X32219Y154006D01*
X32127Y154015D01*
X32025Y154025D01*
X31812Y154071D01*
X31803D01*
X31766Y154089D01*
X31710Y154108D01*
X31646Y154136D01*
X31562Y154172D01*
X31479Y154219D01*
X31294Y154330D01*
X31285Y154339D01*
X31248Y154376D01*
X31193Y154431D01*
X31119Y154505D01*
X31045Y154589D01*
X30961Y154699D01*
X30878Y154820D01*
X30804Y154958D01*
X30795Y154977D01*
X30777Y155023D01*
X30749Y155106D01*
X30721Y155226D01*
X30684Y155365D01*
X30656Y155532D01*
X30638Y155726D01*
X30629Y155948D01*
Y155957D01*
Y155966D01*
Y155994D01*
Y156031D01*
X30638Y156114D01*
X30647Y156234D01*
X30666Y156364D01*
X30693Y156512D01*
X30730Y156669D01*
X30786Y156817D01*
Y156826D01*
X30795Y156835D01*
X30814Y156882D01*
X30851Y156955D01*
X30906Y157057D01*
X30961Y157159D01*
X31045Y157279D01*
X31137Y157399D01*
X31239Y157510D01*
X31248Y157519D01*
X31294Y157556D01*
X31350Y157612D01*
X31433Y157677D01*
X31535Y157751D01*
X31664Y157834D01*
X31803Y157908D01*
X31951Y157972D01*
X31960D01*
X31969Y157982D01*
X32025Y158000D01*
X32117Y158028D01*
X32228Y158056D01*
X32367Y158083D01*
X32524Y158111D01*
X32709Y158130D01*
X32894Y158139D01*
X32986D01*
X33079Y158130D01*
D02*
G37*
G36*
X4746Y70168D02*
Y70159D01*
Y70122D01*
Y70066D01*
X4737Y69983D01*
X4727Y69890D01*
X4709Y69789D01*
X4690Y69669D01*
X4663Y69539D01*
X4635Y69401D01*
X4589Y69262D01*
X4542Y69123D01*
X4478Y68975D01*
X4404Y68836D01*
X4320Y68707D01*
X4219Y68578D01*
X4108Y68457D01*
X4099Y68448D01*
X4080Y68430D01*
X4043Y68402D01*
X3988Y68365D01*
X3923Y68319D01*
X3840Y68273D01*
X3747Y68217D01*
X3636Y68162D01*
X3507Y68106D01*
X3368Y68051D01*
X3211Y68004D01*
X3045Y67958D01*
X2860Y67921D01*
X2666Y67894D01*
X2453Y67875D01*
X2222Y67866D01*
X2102D01*
X2018Y67875D01*
X1917Y67884D01*
X1806Y67894D01*
X1676Y67912D01*
X1538Y67940D01*
X1232Y68004D01*
X1075Y68060D01*
X927Y68115D01*
X770Y68180D01*
X622Y68254D01*
X483Y68347D01*
X354Y68448D01*
X345Y68457D01*
X326Y68476D01*
X299Y68513D01*
X252Y68559D01*
X206Y68615D01*
X151Y68689D01*
X95Y68781D01*
X30Y68883D01*
X-25Y68994D01*
X-90Y69123D01*
X-145Y69262D01*
X-191Y69419D01*
X-238Y69585D01*
X-265Y69761D01*
X-284Y69955D01*
X-293Y70159D01*
Y74014D01*
X1214D01*
Y70251D01*
Y70242D01*
Y70223D01*
Y70196D01*
Y70149D01*
X1223Y70038D01*
X1242Y69900D01*
X1269Y69743D01*
X1316Y69595D01*
X1371Y69447D01*
X1445Y69317D01*
X1454Y69308D01*
X1491Y69271D01*
X1547Y69225D01*
X1630Y69169D01*
X1741Y69105D01*
X1870Y69058D01*
X2037Y69022D01*
X2222Y69012D01*
X2268D01*
X2305Y69022D01*
X2397Y69031D01*
X2508Y69049D01*
X2638Y69086D01*
X2767Y69132D01*
X2887Y69206D01*
X2989Y69299D01*
X2998Y69317D01*
X3026Y69354D01*
X3072Y69428D01*
X3119Y69530D01*
X3155Y69659D01*
X3202Y69826D01*
X3230Y70020D01*
X3239Y70251D01*
Y74014D01*
X4746D01*
Y70168D01*
D02*
G37*
G36*
X8111Y74134D02*
X8250Y74125D01*
X8398Y74116D01*
X8564Y74097D01*
X8731Y74060D01*
X8888Y74023D01*
X8897D01*
X8906Y74014D01*
X8962Y74005D01*
X9036Y73977D01*
X9128Y73940D01*
X9239Y73894D01*
X9350Y73838D01*
X9461Y73783D01*
X9563Y73709D01*
X9572Y73700D01*
X9609Y73672D01*
X9655Y73626D01*
X9720Y73570D01*
X9785Y73506D01*
X9859Y73422D01*
X9923Y73330D01*
X9988Y73228D01*
X9997Y73219D01*
X10016Y73182D01*
X10034Y73127D01*
X10062Y73053D01*
X10090Y72960D01*
X10117Y72858D01*
X10127Y72738D01*
X10136Y72618D01*
Y72600D01*
Y72544D01*
X10127Y72461D01*
X10108Y72359D01*
X10071Y72239D01*
X10034Y72109D01*
X9969Y71980D01*
X9886Y71841D01*
X9877Y71823D01*
X9840Y71786D01*
X9785Y71721D01*
X9701Y71638D01*
X9590Y71555D01*
X9461Y71453D01*
X9304Y71361D01*
X9128Y71268D01*
Y71240D01*
X9137D01*
X9156Y71231D01*
X9184Y71213D01*
X9230Y71194D01*
X9332Y71148D01*
X9461Y71074D01*
X9600Y70981D01*
X9748Y70871D01*
X9886Y70741D01*
X10007Y70602D01*
X10016Y70584D01*
X10053Y70538D01*
X10099Y70455D01*
X10154Y70344D01*
X10201Y70205D01*
X10247Y70048D01*
X10284Y69863D01*
X10293Y69669D01*
Y69650D01*
Y69604D01*
X10284Y69530D01*
X10275Y69437D01*
X10256Y69327D01*
X10219Y69197D01*
X10182Y69077D01*
X10127Y68948D01*
X10117Y68929D01*
X10099Y68892D01*
X10062Y68827D01*
X10007Y68753D01*
X9942Y68661D01*
X9868Y68559D01*
X9775Y68457D01*
X9664Y68365D01*
X9655Y68356D01*
X9609Y68328D01*
X9544Y68282D01*
X9461Y68226D01*
X9350Y68171D01*
X9221Y68106D01*
X9073Y68051D01*
X8916Y67995D01*
X8906D01*
X8897Y67986D01*
X8869D01*
X8842Y67977D01*
X8749Y67949D01*
X8620Y67930D01*
X8472Y67903D01*
X8305Y67875D01*
X8111Y67866D01*
X7908Y67856D01*
X7751D01*
X7695Y67866D01*
X7547Y67875D01*
X7381Y67894D01*
X7205Y67912D01*
X7020Y67949D01*
X6844Y67995D01*
X6835D01*
X6826Y68004D01*
X6770Y68023D01*
X6687Y68051D01*
X6586Y68097D01*
X6465Y68143D01*
X6336Y68208D01*
X6216Y68282D01*
X6096Y68365D01*
X6086Y68374D01*
X6049Y68411D01*
X5994Y68457D01*
X5938Y68522D01*
X5864Y68605D01*
X5800Y68707D01*
X5726Y68809D01*
X5670Y68929D01*
X5661Y68948D01*
X5652Y68984D01*
X5633Y69049D01*
X5606Y69132D01*
X5578Y69234D01*
X5559Y69354D01*
X5550Y69484D01*
X5541Y69613D01*
Y69622D01*
Y69641D01*
Y69659D01*
X5550Y69696D01*
X5559Y69798D01*
X5578Y69918D01*
X5606Y70048D01*
X5661Y70196D01*
X5726Y70334D01*
X5818Y70473D01*
X5828Y70491D01*
X5874Y70528D01*
X5938Y70593D01*
X6031Y70676D01*
X6142Y70760D01*
X6290Y70861D01*
X6456Y70954D01*
X6641Y71046D01*
Y71074D01*
X6632D01*
X6623Y71083D01*
X6595Y71102D01*
X6558Y71120D01*
X6465Y71176D01*
X6355Y71250D01*
X6225Y71342D01*
X6105Y71444D01*
X5994Y71564D01*
X5901Y71693D01*
X5892Y71712D01*
X5874Y71758D01*
X5837Y71832D01*
X5800Y71934D01*
X5763Y72054D01*
X5726Y72193D01*
X5707Y72350D01*
X5698Y72516D01*
Y72535D01*
Y72572D01*
X5707Y72636D01*
X5717Y72720D01*
X5735Y72812D01*
X5753Y72914D01*
X5791Y73025D01*
X5837Y73136D01*
X5846Y73145D01*
X5864Y73182D01*
X5901Y73237D01*
X5948Y73311D01*
X6012Y73395D01*
X6086Y73487D01*
X6170Y73570D01*
X6271Y73663D01*
X6281Y73672D01*
X6317Y73700D01*
X6382Y73737D01*
X6465Y73783D01*
X6567Y73838D01*
X6678Y73894D01*
X6817Y73949D01*
X6965Y74005D01*
X6974D01*
X6983Y74014D01*
X7039Y74023D01*
X7131Y74051D01*
X7242Y74079D01*
X7381Y74097D01*
X7547Y74125D01*
X7723Y74134D01*
X7917Y74144D01*
X8009D01*
X8111Y74134D01*
D02*
G37*
G36*
X70801Y365228D02*
Y365219D01*
Y365182D01*
Y365126D01*
X70792Y365043D01*
X70783Y364951D01*
X70764Y364849D01*
X70746Y364729D01*
X70718Y364599D01*
X70690Y364461D01*
X70644Y364322D01*
X70598Y364183D01*
X70533Y364035D01*
X70459Y363897D01*
X70376Y363767D01*
X70274Y363638D01*
X70163Y363518D01*
X70154Y363508D01*
X70135Y363490D01*
X70099Y363462D01*
X70043Y363425D01*
X69978Y363379D01*
X69895Y363333D01*
X69803Y363277D01*
X69692Y363222D01*
X69562Y363166D01*
X69424Y363111D01*
X69267Y363064D01*
X69100Y363018D01*
X68915Y362981D01*
X68721Y362954D01*
X68508Y362935D01*
X68277Y362926D01*
X68157D01*
X68074Y362935D01*
X67972Y362944D01*
X67861Y362954D01*
X67732Y362972D01*
X67593Y363000D01*
X67288Y363064D01*
X67131Y363120D01*
X66983Y363176D01*
X66826Y363240D01*
X66678Y363314D01*
X66539Y363407D01*
X66410Y363508D01*
X66400Y363518D01*
X66382Y363536D01*
X66354Y363573D01*
X66308Y363619D01*
X66262Y363675D01*
X66206Y363749D01*
X66151Y363841D01*
X66086Y363943D01*
X66031Y364054D01*
X65966Y364183D01*
X65910Y364322D01*
X65864Y364479D01*
X65818Y364646D01*
X65790Y364821D01*
X65772Y365015D01*
X65762Y365219D01*
Y369074D01*
X67269D01*
Y365311D01*
Y365302D01*
Y365284D01*
Y365256D01*
Y365210D01*
X67279Y365099D01*
X67297Y364960D01*
X67325Y364803D01*
X67371Y364655D01*
X67427Y364507D01*
X67501Y364377D01*
X67510Y364368D01*
X67547Y364331D01*
X67602Y364285D01*
X67685Y364230D01*
X67796Y364165D01*
X67926Y364118D01*
X68092Y364081D01*
X68277Y364072D01*
X68323D01*
X68360Y364081D01*
X68453Y364091D01*
X68564Y364109D01*
X68693Y364146D01*
X68823Y364193D01*
X68943Y364267D01*
X69045Y364359D01*
X69054Y364377D01*
X69082Y364414D01*
X69128Y364488D01*
X69174Y364590D01*
X69211Y364720D01*
X69257Y364886D01*
X69285Y365080D01*
X69294Y365311D01*
Y369074D01*
X70801D01*
Y365228D01*
D02*
G37*
G36*
X76238Y367872D02*
X73667Y363055D01*
X71994D01*
X74666Y367937D01*
X71809D01*
Y369074D01*
X76238D01*
Y367872D01*
D02*
G37*
G36*
X131962Y146120D02*
X132054D01*
X132156Y146111D01*
X132368Y146083D01*
X132378D01*
X132415Y146074D01*
X132470D01*
X132535Y146065D01*
X132664Y146046D01*
X132729Y146037D01*
X132775Y146028D01*
Y144845D01*
X132655D01*
X132646Y144854D01*
X132618Y144863D01*
X132581Y144872D01*
X132526Y144891D01*
X132470Y144909D01*
X132396Y144937D01*
X132313Y144955D01*
X132304D01*
X132267Y144965D01*
X132221Y144983D01*
X132156Y144992D01*
X132073Y145011D01*
X131980Y145020D01*
X131869Y145029D01*
X131694D01*
X131647Y145020D01*
X131583D01*
X131518Y145011D01*
X131361Y144983D01*
X131185Y144937D01*
X131000Y144872D01*
X130824Y144780D01*
X130667Y144650D01*
X130649Y144632D01*
X130603Y144586D01*
X130547Y144493D01*
X130464Y144382D01*
X130390Y144225D01*
X130307Y144049D01*
X130242Y143837D01*
X130196Y143587D01*
X130205Y143596D01*
X130251Y143615D01*
X130307Y143652D01*
X130381Y143698D01*
X130473Y143744D01*
X130575Y143791D01*
X130797Y143883D01*
X130815Y143892D01*
X130852Y143901D01*
X130917Y143920D01*
X131000Y143948D01*
X131102Y143966D01*
X131222Y143985D01*
X131351Y143994D01*
X131490Y144003D01*
X131610D01*
X131684Y143994D01*
X131777Y143985D01*
X131878Y143966D01*
X132091Y143911D01*
X132100D01*
X132137Y143892D01*
X132193Y143874D01*
X132267Y143846D01*
X132341Y143809D01*
X132424Y143772D01*
X132600Y143661D01*
X132618Y143652D01*
X132655Y143615D01*
X132711Y143569D01*
X132785Y143495D01*
X132859Y143402D01*
X132942Y143291D01*
X133025Y143171D01*
X133099Y143032D01*
X133108Y143014D01*
X133127Y142958D01*
X133154Y142875D01*
X133191Y142764D01*
X133228Y142616D01*
X133256Y142450D01*
X133275Y142256D01*
X133284Y142043D01*
Y142034D01*
Y141997D01*
Y141951D01*
X133275Y141886D01*
X133265Y141803D01*
X133256Y141710D01*
X133238Y141608D01*
X133210Y141488D01*
X133136Y141248D01*
X133090Y141109D01*
X133025Y140980D01*
X132960Y140850D01*
X132877Y140721D01*
X132785Y140601D01*
X132674Y140481D01*
X132664Y140471D01*
X132646Y140453D01*
X132609Y140425D01*
X132563Y140388D01*
X132507Y140342D01*
X132433Y140286D01*
X132341Y140231D01*
X132239Y140176D01*
X132128Y140120D01*
X132008Y140064D01*
X131869Y140009D01*
X131731Y139963D01*
X131564Y139926D01*
X131398Y139898D01*
X131222Y139880D01*
X131028Y139870D01*
X130935D01*
X130843Y139880D01*
X130714Y139889D01*
X130566Y139907D01*
X130408Y139935D01*
X130242Y139972D01*
X130085Y140018D01*
X130066Y140028D01*
X130020Y140046D01*
X129937Y140083D01*
X129845Y140129D01*
X129733Y140194D01*
X129623Y140268D01*
X129502Y140360D01*
X129391Y140462D01*
X129373Y140481D01*
X129336Y140527D01*
X129271Y140601D01*
X129197Y140702D01*
X129114Y140832D01*
X129022Y140989D01*
X128938Y141165D01*
X128864Y141359D01*
Y141368D01*
X128855Y141387D01*
X128846Y141414D01*
X128837Y141461D01*
X128827Y141507D01*
X128809Y141572D01*
X128791Y141645D01*
X128781Y141729D01*
X128744Y141923D01*
X128716Y142145D01*
X128698Y142394D01*
X128689Y142672D01*
Y142681D01*
Y142709D01*
Y142746D01*
Y142810D01*
X128698Y142875D01*
Y142958D01*
X128707Y143051D01*
Y143143D01*
X128726Y143365D01*
X128763Y143596D01*
X128800Y143846D01*
X128855Y144077D01*
Y144086D01*
X128864Y144105D01*
X128874Y144142D01*
X128892Y144179D01*
X128901Y144234D01*
X128929Y144299D01*
X128985Y144447D01*
X129068Y144613D01*
X129160Y144798D01*
X129271Y144983D01*
X129410Y145168D01*
Y145177D01*
X129428Y145187D01*
X129475Y145242D01*
X129558Y145325D01*
X129669Y145427D01*
X129798Y145538D01*
X129965Y145658D01*
X130150Y145769D01*
X130362Y145871D01*
X130372D01*
X130390Y145880D01*
X130427Y145899D01*
X130473Y145908D01*
X130529Y145935D01*
X130593Y145954D01*
X130677Y145972D01*
X130769Y146000D01*
X130862Y146028D01*
X130972Y146046D01*
X131213Y146093D01*
X131481Y146120D01*
X131777Y146130D01*
X131888D01*
X131962Y146120D01*
D02*
G37*
G36*
X127755Y142172D02*
Y142163D01*
Y142126D01*
Y142071D01*
X127746Y141988D01*
X127737Y141895D01*
X127718Y141793D01*
X127699Y141673D01*
X127672Y141544D01*
X127644Y141405D01*
X127598Y141266D01*
X127552Y141128D01*
X127487Y140980D01*
X127413Y140841D01*
X127330Y140712D01*
X127228Y140582D01*
X127117Y140462D01*
X127108Y140453D01*
X127089Y140434D01*
X127052Y140407D01*
X126997Y140370D01*
X126932Y140323D01*
X126849Y140277D01*
X126756Y140222D01*
X126645Y140166D01*
X126516Y140111D01*
X126377Y140055D01*
X126220Y140009D01*
X126054Y139963D01*
X125869Y139926D01*
X125675Y139898D01*
X125462Y139880D01*
X125231Y139870D01*
X125111D01*
X125028Y139880D01*
X124926Y139889D01*
X124815Y139898D01*
X124685Y139917D01*
X124547Y139944D01*
X124242Y140009D01*
X124085Y140064D01*
X123937Y140120D01*
X123779Y140185D01*
X123631Y140259D01*
X123493Y140351D01*
X123363Y140453D01*
X123354Y140462D01*
X123336Y140481D01*
X123308Y140518D01*
X123262Y140564D01*
X123215Y140619D01*
X123160Y140693D01*
X123104Y140786D01*
X123040Y140887D01*
X122984Y140998D01*
X122920Y141128D01*
X122864Y141266D01*
X122818Y141424D01*
X122772Y141590D01*
X122744Y141766D01*
X122725Y141960D01*
X122716Y142163D01*
Y146019D01*
X124223D01*
Y142256D01*
Y142247D01*
Y142228D01*
Y142200D01*
Y142154D01*
X124232Y142043D01*
X124251Y141904D01*
X124279Y141747D01*
X124325Y141599D01*
X124380Y141451D01*
X124454Y141322D01*
X124464Y141313D01*
X124501Y141276D01*
X124556Y141229D01*
X124639Y141174D01*
X124750Y141109D01*
X124880Y141063D01*
X125046Y141026D01*
X125231Y141017D01*
X125277D01*
X125314Y141026D01*
X125407Y141035D01*
X125518Y141054D01*
X125647Y141091D01*
X125776Y141137D01*
X125897Y141211D01*
X125998Y141303D01*
X126008Y141322D01*
X126035Y141359D01*
X126081Y141433D01*
X126128Y141535D01*
X126165Y141664D01*
X126211Y141830D01*
X126239Y142025D01*
X126248Y142256D01*
Y146019D01*
X127755D01*
Y142172D01*
D02*
G37*
G36*
X70067Y149937D02*
X67506D01*
Y148929D01*
X67552D01*
X67589Y148938D01*
X67681D01*
X67792Y148948D01*
X67848D01*
X67885Y148957D01*
X68208D01*
X68319Y148948D01*
X68439Y148938D01*
X68578Y148920D01*
X68855Y148864D01*
X68874D01*
X68920Y148846D01*
X68985Y148827D01*
X69077Y148800D01*
X69179Y148763D01*
X69281Y148716D01*
X69392Y148661D01*
X69503Y148596D01*
X69521Y148587D01*
X69558Y148559D01*
X69623Y148504D01*
X69697Y148439D01*
X69780Y148356D01*
X69872Y148245D01*
X69965Y148134D01*
X70039Y147995D01*
X70048Y147977D01*
X70067Y147931D01*
X70104Y147847D01*
X70141Y147746D01*
X70168Y147616D01*
X70205Y147459D01*
X70224Y147283D01*
X70233Y147089D01*
Y147080D01*
Y147071D01*
Y147043D01*
Y147006D01*
X70224Y146923D01*
X70215Y146803D01*
X70196Y146664D01*
X70159Y146516D01*
X70122Y146368D01*
X70067Y146211D01*
X70057Y146193D01*
X70039Y146146D01*
X70002Y146072D01*
X69946Y145980D01*
X69882Y145869D01*
X69798Y145758D01*
X69697Y145638D01*
X69586Y145527D01*
X69567Y145518D01*
X69530Y145481D01*
X69466Y145425D01*
X69373Y145360D01*
X69262Y145296D01*
X69142Y145222D01*
X68994Y145148D01*
X68837Y145083D01*
X68828D01*
X68818Y145074D01*
X68791Y145064D01*
X68763Y145055D01*
X68671Y145037D01*
X68541Y145009D01*
X68384Y144972D01*
X68208Y144954D01*
X67996Y144935D01*
X67774Y144926D01*
X67663D01*
X67607Y144935D01*
X67533D01*
X67376Y144944D01*
X67191Y144963D01*
X67006Y144981D01*
X66803Y145009D01*
X66618Y145046D01*
X66609D01*
X66599Y145055D01*
X66572D01*
X66535Y145064D01*
X66452Y145083D01*
X66341Y145111D01*
X66211Y145148D01*
X66082Y145194D01*
X65943Y145240D01*
X65823Y145286D01*
Y146599D01*
X65961D01*
X65971Y146590D01*
X66026Y146553D01*
X66109Y146498D01*
X66211Y146442D01*
X66220D01*
X66239Y146433D01*
X66267Y146414D01*
X66313Y146396D01*
X66359Y146368D01*
X66424Y146340D01*
X66498Y146313D01*
X66581Y146276D01*
X66590D01*
X66618Y146266D01*
X66664Y146248D01*
X66720Y146229D01*
X66784Y146202D01*
X66858Y146183D01*
X67016Y146137D01*
X67025D01*
X67052Y146128D01*
X67099Y146118D01*
X67164Y146109D01*
X67237Y146100D01*
X67321Y146091D01*
X67506Y146081D01*
X67598D01*
X67663Y146091D01*
X67737D01*
X67820Y146109D01*
X68014Y146137D01*
X68023D01*
X68060Y146146D01*
X68106Y146165D01*
X68171Y146183D01*
X68319Y146248D01*
X68384Y146294D01*
X68449Y146350D01*
X68458Y146359D01*
X68467Y146368D01*
X68523Y146433D01*
X68587Y146516D01*
X68643Y146618D01*
Y146627D01*
X68652Y146645D01*
X68671Y146683D01*
X68680Y146729D01*
X68698Y146784D01*
X68707Y146858D01*
X68717Y146941D01*
Y147034D01*
Y147043D01*
Y147071D01*
Y147108D01*
X68707Y147163D01*
X68680Y147274D01*
X68624Y147394D01*
Y147404D01*
X68606Y147422D01*
X68587Y147450D01*
X68569Y147487D01*
X68495Y147570D01*
X68393Y147644D01*
X68384Y147653D01*
X68356Y147662D01*
X68310Y147690D01*
X68254Y147718D01*
X68180Y147746D01*
X68097Y147774D01*
X68005Y147801D01*
X67894Y147820D01*
X67885D01*
X67848Y147829D01*
X67792Y147838D01*
X67727Y147847D01*
X67644D01*
X67561Y147857D01*
X67395Y147866D01*
X67274D01*
X67191Y147857D01*
X67090D01*
X66979Y147847D01*
X66747Y147810D01*
X66738D01*
X66692Y147801D01*
X66637Y147792D01*
X66562Y147774D01*
X66479Y147755D01*
X66387Y147737D01*
X66211Y147699D01*
X66082D01*
Y151074D01*
X70067D01*
Y149937D01*
D02*
G37*
G36*
X64806Y147228D02*
Y147219D01*
Y147182D01*
Y147126D01*
X64797Y147043D01*
X64787Y146951D01*
X64769Y146849D01*
X64750Y146729D01*
X64723Y146599D01*
X64695Y146461D01*
X64649Y146322D01*
X64602Y146183D01*
X64538Y146035D01*
X64464Y145897D01*
X64380Y145767D01*
X64279Y145638D01*
X64168Y145518D01*
X64159Y145508D01*
X64140Y145490D01*
X64103Y145462D01*
X64048Y145425D01*
X63983Y145379D01*
X63900Y145333D01*
X63807Y145277D01*
X63696Y145222D01*
X63567Y145166D01*
X63428Y145111D01*
X63271Y145064D01*
X63105Y145018D01*
X62920Y144981D01*
X62726Y144954D01*
X62513Y144935D01*
X62282Y144926D01*
X62162D01*
X62078Y144935D01*
X61977Y144944D01*
X61866Y144954D01*
X61736Y144972D01*
X61598Y145000D01*
X61293Y145064D01*
X61135Y145120D01*
X60987Y145176D01*
X60830Y145240D01*
X60682Y145314D01*
X60544Y145407D01*
X60414Y145508D01*
X60405Y145518D01*
X60386Y145536D01*
X60359Y145573D01*
X60312Y145619D01*
X60266Y145675D01*
X60211Y145749D01*
X60155Y145841D01*
X60091Y145943D01*
X60035Y146054D01*
X59970Y146183D01*
X59915Y146322D01*
X59869Y146479D01*
X59823Y146645D01*
X59795Y146821D01*
X59776Y147015D01*
X59767Y147219D01*
Y151074D01*
X61274D01*
Y147311D01*
Y147302D01*
Y147283D01*
Y147256D01*
Y147210D01*
X61283Y147099D01*
X61302Y146960D01*
X61329Y146803D01*
X61376Y146655D01*
X61431Y146507D01*
X61505Y146377D01*
X61514Y146368D01*
X61551Y146331D01*
X61607Y146285D01*
X61690Y146229D01*
X61801Y146165D01*
X61930Y146118D01*
X62097Y146081D01*
X62282Y146072D01*
X62328D01*
X62365Y146081D01*
X62457Y146091D01*
X62568Y146109D01*
X62698Y146146D01*
X62827Y146193D01*
X62948Y146266D01*
X63049Y146359D01*
X63058Y146377D01*
X63086Y146414D01*
X63132Y146488D01*
X63179Y146590D01*
X63216Y146720D01*
X63262Y146886D01*
X63290Y147080D01*
X63299Y147311D01*
Y151074D01*
X64806D01*
Y147228D01*
D02*
G37*
G36*
X227126Y322798D02*
Y322780D01*
Y322733D01*
X227117Y322650D01*
X227108Y322558D01*
X227089Y322438D01*
X227071Y322317D01*
X227034Y322179D01*
X226988Y322049D01*
X226978Y322031D01*
X226960Y321994D01*
X226932Y321929D01*
X226886Y321846D01*
X226830Y321753D01*
X226766Y321661D01*
X226682Y321559D01*
X226581Y321467D01*
X226572Y321457D01*
X226525Y321421D01*
X226470Y321374D01*
X226377Y321310D01*
X226276Y321245D01*
X226155Y321180D01*
X226017Y321115D01*
X225869Y321060D01*
X225850Y321051D01*
X225795Y321041D01*
X225712Y321023D01*
X225601Y321004D01*
X225462Y320977D01*
X225296Y320958D01*
X225120Y320949D01*
X224926Y320940D01*
X224778D01*
X224676Y320949D01*
X224565D01*
X224436Y320958D01*
X224168Y320977D01*
X224149D01*
X224112Y320986D01*
X224048D01*
X223964Y320995D01*
X223863Y321004D01*
X223761Y321023D01*
X223557Y321051D01*
Y322271D01*
X223696D01*
X223715Y322262D01*
X223752Y322243D01*
X223807Y322225D01*
X223927Y322179D01*
X224066Y322132D01*
X224075D01*
X224103Y322123D01*
X224149Y322114D01*
X224205Y322105D01*
X224279Y322095D01*
X224371Y322086D01*
X224473Y322077D01*
X224648D01*
X224722Y322086D01*
X224806Y322095D01*
X224907Y322105D01*
X225009Y322123D01*
X225111Y322151D01*
X225194Y322188D01*
X225203Y322197D01*
X225231Y322206D01*
X225268Y322234D01*
X225314Y322271D01*
X225370Y322317D01*
X225416Y322364D01*
X225462Y322428D01*
X225499Y322502D01*
Y322511D01*
X225518Y322539D01*
X225527Y322576D01*
X225545Y322632D01*
X225564Y322696D01*
X225582Y322780D01*
X225601Y322955D01*
Y322965D01*
Y323002D01*
X225610Y323057D01*
Y323122D01*
Y323214D01*
X225619Y323307D01*
Y323418D01*
Y323538D01*
Y325951D01*
X224242D01*
Y327051D01*
X227126D01*
Y322798D01*
D02*
G37*
G36*
X231204Y322086D02*
X232442D01*
Y321032D01*
X228467D01*
Y322086D01*
X229734D01*
Y325257D01*
X228467D01*
Y326237D01*
X228643D01*
X228726Y326247D01*
X228818D01*
X229012Y326265D01*
X229022D01*
X229059Y326274D01*
X229105Y326284D01*
X229170Y326293D01*
X229317Y326330D01*
X229391Y326358D01*
X229456Y326385D01*
X229465Y326395D01*
X229484Y326404D01*
X229521Y326422D01*
X229567Y326459D01*
X229660Y326533D01*
X229752Y326644D01*
X229761Y326654D01*
X229771Y326672D01*
X229789Y326709D01*
X229807Y326755D01*
X229835Y326820D01*
X229854Y326894D01*
X229872Y326968D01*
X229881Y327060D01*
X231204D01*
Y322086D01*
D02*
G37*
%LPC*%
G36*
X255276Y429465D02*
X253760Y427431D01*
X255276D01*
Y429465D01*
D02*
G37*
G36*
X5558Y353840D02*
X5548D01*
X5502D01*
X5447Y353831D01*
X5382Y353812D01*
X5308Y353794D01*
X5225Y353757D01*
X5142Y353701D01*
X5068Y353637D01*
X5058Y353627D01*
X5040Y353600D01*
X5012Y353553D01*
X4975Y353489D01*
X4938Y353415D01*
X4911Y353322D01*
X4892Y353211D01*
X4883Y353091D01*
Y353036D01*
X4892Y352971D01*
X4901Y352897D01*
X4920Y352814D01*
X4957Y352721D01*
X4994Y352638D01*
X5049Y352555D01*
X5058Y352546D01*
X5077Y352527D01*
X5114Y352490D01*
X5160Y352462D01*
X5225Y352425D01*
X5290Y352388D01*
X5373Y352370D01*
X5456Y352361D01*
X5465D01*
X5493D01*
X5539Y352370D01*
X5595Y352379D01*
X5724Y352416D01*
X5789Y352444D01*
X5844Y352481D01*
X5853Y352490D01*
X5872Y352509D01*
X5900Y352536D01*
X5937Y352573D01*
X5974Y352629D01*
X6020Y352694D01*
X6075Y352767D01*
X6122Y352860D01*
Y352869D01*
X6131Y352878D01*
X6159Y352934D01*
X6196Y353017D01*
X6242Y353119D01*
Y353128D01*
X6251Y353147D01*
X6260Y353184D01*
X6279Y353230D01*
X6307Y353285D01*
X6325Y353359D01*
X6353Y353442D01*
X6390Y353535D01*
X6381Y353544D01*
X6353Y353563D01*
X6316Y353590D01*
X6260Y353627D01*
X6140Y353701D01*
X6001Y353766D01*
X5992D01*
X5964Y353775D01*
X5928Y353794D01*
X5872Y353803D01*
X5807Y353821D01*
X5733Y353831D01*
X5558Y353840D01*
D02*
G37*
G36*
X8396Y353979D02*
X8387D01*
X8350D01*
X8294Y353969D01*
X8230Y353960D01*
X8082Y353923D01*
X8008Y353895D01*
X7943Y353849D01*
X7934Y353840D01*
X7915Y353821D01*
X7878Y353785D01*
X7841Y353738D01*
X7786Y353664D01*
X7730Y353572D01*
X7666Y353452D01*
X7592Y353313D01*
Y353304D01*
X7582Y353294D01*
X7573Y353267D01*
X7555Y353230D01*
X7536Y353174D01*
X7509Y353119D01*
X7481Y353054D01*
X7453Y352971D01*
Y352962D01*
X7434Y352934D01*
X7425Y352897D01*
X7398Y352841D01*
X7351Y352721D01*
X7296Y352583D01*
X7305Y352573D01*
X7324Y352555D01*
X7361Y352527D01*
X7407Y352490D01*
X7462Y352444D01*
X7527Y352398D01*
X7684Y352305D01*
X7693Y352296D01*
X7721Y352287D01*
X7767Y352268D01*
X7832Y352250D01*
X7906Y352222D01*
X7998Y352204D01*
X8091Y352194D01*
X8193Y352185D01*
X8211D01*
X8257D01*
X8341Y352204D01*
X8433Y352222D01*
X8535Y352250D01*
X8646Y352296D01*
X8757Y352361D01*
X8858Y352444D01*
X8868Y352453D01*
X8895Y352490D01*
X8942Y352555D01*
X8978Y352629D01*
X9025Y352731D01*
X9071Y352851D01*
X9099Y352989D01*
X9108Y353147D01*
Y353165D01*
X9099Y353230D01*
X9089Y353313D01*
X9071Y353415D01*
Y353424D01*
X9062Y353442D01*
X9053Y353470D01*
X9043Y353507D01*
X9006Y353590D01*
X8951Y353683D01*
Y353692D01*
X8932Y353701D01*
X8886Y353757D01*
X8821Y353831D01*
X8738Y353895D01*
X8729D01*
X8710Y353905D01*
X8683Y353923D01*
X8646Y353942D01*
X8600Y353951D01*
X8535Y353969D01*
X8396Y353979D01*
D02*
G37*
G36*
X266620Y114883D02*
X266273D01*
Y111131D01*
X266593D01*
X266724Y111138D01*
X267008D01*
X267147Y111145D01*
X267182D01*
X267210Y111152D01*
X267279Y111159D01*
X267362Y111180D01*
X267466Y111208D01*
X267577Y111242D01*
X267695Y111298D01*
X267813Y111360D01*
X267820D01*
X267827Y111374D01*
X267847Y111388D01*
X267875Y111402D01*
X267938Y111457D01*
X268021Y111526D01*
X268111Y111624D01*
X268208Y111735D01*
X268298Y111859D01*
X268375Y112005D01*
Y112012D01*
X268382Y112026D01*
X268395Y112047D01*
X268402Y112081D01*
X268423Y112116D01*
X268437Y112164D01*
X268451Y112220D01*
X268472Y112282D01*
X268492Y112352D01*
X268506Y112428D01*
X268541Y112601D01*
X268562Y112795D01*
X268569Y113010D01*
Y113017D01*
Y113038D01*
Y113066D01*
Y113108D01*
X268562Y113163D01*
X268555Y113218D01*
Y113288D01*
X268541Y113357D01*
X268520Y113517D01*
X268479Y113683D01*
X268430Y113856D01*
X268361Y114016D01*
Y114023D01*
X268354Y114037D01*
X268340Y114058D01*
X268326Y114085D01*
X268277Y114162D01*
X268208Y114259D01*
X268118Y114363D01*
X268014Y114473D01*
X267882Y114578D01*
X267737Y114675D01*
X267723Y114682D01*
X267681Y114702D01*
X267626Y114730D01*
X267542Y114765D01*
X267445Y114799D01*
X267341Y114827D01*
X267223Y114848D01*
X267099Y114862D01*
X267064D01*
X267036Y114869D01*
X266967D01*
X266877Y114876D01*
X266759D01*
X266620Y114883D01*
D02*
G37*
G36*
X66456Y426029D02*
X66438D01*
X66382Y426020D01*
X66308Y426002D01*
X66216Y425974D01*
X66114Y425919D01*
X66012Y425835D01*
X65966Y425789D01*
X65920Y425724D01*
X65874Y425660D01*
X65837Y425576D01*
Y425567D01*
X65827Y425558D01*
X65818Y425530D01*
X65809Y425484D01*
X65791Y425438D01*
X65781Y425373D01*
X65763Y425299D01*
X65744Y425206D01*
X65726Y425105D01*
X65707Y424994D01*
X65698Y424865D01*
X65679Y424716D01*
X65670Y424559D01*
X65661Y424384D01*
X65652Y424199D01*
Y423995D01*
Y423986D01*
Y423949D01*
Y423894D01*
Y423820D01*
X65661Y423727D01*
Y423616D01*
X65670Y423505D01*
X65679Y423385D01*
X65698Y423126D01*
X65726Y422867D01*
X65753Y422738D01*
X65772Y422627D01*
X65809Y422516D01*
X65837Y422424D01*
Y422414D01*
X65846Y422405D01*
X65874Y422350D01*
X65920Y422285D01*
X65985Y422202D01*
X66068Y422118D01*
X66179Y422044D01*
X66308Y421989D01*
X66382Y421980D01*
X66456Y421971D01*
X66475D01*
X66530Y421980D01*
X66604Y421998D01*
X66697Y422026D01*
X66789Y422081D01*
X66891Y422165D01*
X66946Y422211D01*
X66983Y422276D01*
X67029Y422340D01*
X67066Y422424D01*
Y422433D01*
X67076Y422442D01*
X67085Y422470D01*
X67094Y422516D01*
X67113Y422562D01*
X67131Y422627D01*
X67150Y422701D01*
X67168Y422793D01*
X67177Y422895D01*
X67196Y423015D01*
X67214Y423135D01*
X67233Y423284D01*
X67242Y423441D01*
X67251Y423607D01*
X67260Y423792D01*
Y423995D01*
Y424005D01*
Y424042D01*
Y424106D01*
Y424180D01*
X67251Y424273D01*
Y424374D01*
X67242Y424495D01*
Y424615D01*
X67214Y424874D01*
X67187Y425142D01*
X67159Y425262D01*
X67140Y425382D01*
X67113Y425484D01*
X67076Y425576D01*
Y425586D01*
X67066Y425595D01*
X67039Y425650D01*
X66992Y425724D01*
X66928Y425807D01*
X66845Y425891D01*
X66733Y425955D01*
X66604Y426011D01*
X66539Y426020D01*
X66456Y426029D01*
D02*
G37*
G36*
X93091Y285117D02*
X93036D01*
X92971Y285108D01*
X92897Y285099D01*
X92814Y285080D01*
X92721Y285043D01*
X92638Y285006D01*
X92555Y284951D01*
X92546Y284942D01*
X92527Y284923D01*
X92490Y284886D01*
X92463Y284840D01*
X92425Y284775D01*
X92388Y284710D01*
X92370Y284627D01*
X92361Y284544D01*
Y284535D01*
Y284507D01*
X92370Y284461D01*
X92379Y284405D01*
X92416Y284276D01*
X92444Y284211D01*
X92481Y284156D01*
X92490Y284146D01*
X92509Y284128D01*
X92536Y284100D01*
X92573Y284063D01*
X92629Y284026D01*
X92694Y283980D01*
X92768Y283925D01*
X92860Y283878D01*
X92869D01*
X92879Y283869D01*
X92934Y283841D01*
X93017Y283804D01*
X93119Y283758D01*
X93128D01*
X93147Y283749D01*
X93184Y283740D01*
X93230Y283721D01*
X93285Y283693D01*
X93359Y283675D01*
X93442Y283647D01*
X93535Y283610D01*
X93544Y283619D01*
X93563Y283647D01*
X93590Y283684D01*
X93627Y283740D01*
X93701Y283860D01*
X93766Y283999D01*
Y284008D01*
X93775Y284035D01*
X93794Y284072D01*
X93803Y284128D01*
X93822Y284193D01*
X93831Y284267D01*
X93840Y284442D01*
Y284452D01*
Y284498D01*
X93831Y284553D01*
X93812Y284618D01*
X93794Y284692D01*
X93757Y284775D01*
X93701Y284858D01*
X93637Y284932D01*
X93627Y284942D01*
X93600Y284960D01*
X93553Y284988D01*
X93489Y285025D01*
X93415Y285062D01*
X93322Y285089D01*
X93211Y285108D01*
X93091Y285117D01*
D02*
G37*
G36*
X92583Y282704D02*
X92573Y282695D01*
X92555Y282676D01*
X92527Y282639D01*
X92490Y282593D01*
X92444Y282538D01*
X92398Y282473D01*
X92305Y282316D01*
X92296Y282307D01*
X92287Y282279D01*
X92268Y282233D01*
X92250Y282168D01*
X92222Y282094D01*
X92204Y282001D01*
X92194Y281909D01*
X92185Y281807D01*
Y281789D01*
Y281743D01*
X92204Y281659D01*
X92222Y281567D01*
X92250Y281465D01*
X92296Y281354D01*
X92361Y281243D01*
X92444Y281142D01*
X92453Y281132D01*
X92490Y281105D01*
X92555Y281058D01*
X92629Y281021D01*
X92731Y280975D01*
X92851Y280929D01*
X92990Y280901D01*
X93147Y280892D01*
X93165D01*
X93230Y280901D01*
X93313Y280910D01*
X93415Y280929D01*
X93424D01*
X93442Y280938D01*
X93470Y280947D01*
X93507Y280957D01*
X93590Y280994D01*
X93683Y281049D01*
X93692D01*
X93701Y281068D01*
X93757Y281114D01*
X93831Y281179D01*
X93896Y281262D01*
Y281271D01*
X93905Y281290D01*
X93923Y281317D01*
X93942Y281354D01*
X93951Y281401D01*
X93969Y281465D01*
X93979Y281604D01*
Y281613D01*
Y281650D01*
X93969Y281706D01*
X93960Y281770D01*
X93923Y281918D01*
X93896Y281992D01*
X93849Y282057D01*
X93840Y282066D01*
X93822Y282085D01*
X93785Y282122D01*
X93738Y282159D01*
X93664Y282214D01*
X93572Y282270D01*
X93452Y282334D01*
X93313Y282408D01*
X93304D01*
X93295Y282418D01*
X93267Y282427D01*
X93230Y282445D01*
X93174Y282464D01*
X93119Y282491D01*
X93054Y282519D01*
X92971Y282547D01*
X92962D01*
X92934Y282565D01*
X92897Y282575D01*
X92842Y282602D01*
X92721Y282649D01*
X92583Y282704D01*
D02*
G37*
G36*
X24620Y268883D02*
X24274D01*
Y265131D01*
X24592D01*
X24724Y265138D01*
X25008D01*
X25147Y265145D01*
X25182D01*
X25210Y265152D01*
X25279Y265159D01*
X25362Y265180D01*
X25466Y265208D01*
X25577Y265242D01*
X25695Y265298D01*
X25813Y265360D01*
X25820D01*
X25827Y265374D01*
X25847Y265388D01*
X25875Y265402D01*
X25938Y265457D01*
X26021Y265527D01*
X26111Y265624D01*
X26208Y265735D01*
X26298Y265859D01*
X26374Y266005D01*
Y266012D01*
X26381Y266026D01*
X26395Y266047D01*
X26402Y266081D01*
X26423Y266116D01*
X26437Y266164D01*
X26451Y266220D01*
X26472Y266282D01*
X26492Y266352D01*
X26506Y266428D01*
X26541Y266601D01*
X26562Y266796D01*
X26569Y267010D01*
Y267017D01*
Y267038D01*
Y267066D01*
Y267108D01*
X26562Y267163D01*
X26555Y267218D01*
Y267288D01*
X26541Y267357D01*
X26520Y267517D01*
X26479Y267683D01*
X26430Y267856D01*
X26361Y268016D01*
Y268023D01*
X26354Y268037D01*
X26340Y268057D01*
X26326Y268085D01*
X26277Y268162D01*
X26208Y268259D01*
X26118Y268363D01*
X26014Y268473D01*
X25882Y268577D01*
X25737Y268675D01*
X25723Y268682D01*
X25681Y268702D01*
X25626Y268730D01*
X25542Y268765D01*
X25445Y268799D01*
X25341Y268827D01*
X25223Y268848D01*
X25099Y268862D01*
X25064D01*
X25036Y268869D01*
X24967D01*
X24877Y268876D01*
X24759D01*
X24620Y268883D01*
D02*
G37*
G36*
X209552Y341117D02*
X209496D01*
X209432Y341108D01*
X209358Y341099D01*
X209275Y341080D01*
X209182Y341043D01*
X209099Y341006D01*
X209016Y340951D01*
X209007Y340942D01*
X208988Y340923D01*
X208951Y340886D01*
X208923Y340840D01*
X208886Y340775D01*
X208849Y340710D01*
X208831Y340627D01*
X208822Y340544D01*
Y340535D01*
Y340507D01*
X208831Y340461D01*
X208840Y340405D01*
X208877Y340276D01*
X208905Y340211D01*
X208942Y340156D01*
X208951Y340146D01*
X208969Y340128D01*
X208997Y340100D01*
X209034Y340063D01*
X209090Y340026D01*
X209154Y339980D01*
X209228Y339925D01*
X209321Y339878D01*
X209330D01*
X209339Y339869D01*
X209395Y339841D01*
X209478Y339804D01*
X209580Y339758D01*
X209589D01*
X209608Y339749D01*
X209644Y339740D01*
X209691Y339721D01*
X209746Y339693D01*
X209820Y339675D01*
X209903Y339647D01*
X209996Y339610D01*
X210005Y339619D01*
X210023Y339647D01*
X210051Y339684D01*
X210088Y339740D01*
X210162Y339860D01*
X210227Y339999D01*
Y340008D01*
X210236Y340036D01*
X210255Y340073D01*
X210264Y340128D01*
X210282Y340193D01*
X210292Y340267D01*
X210301Y340442D01*
Y340452D01*
Y340498D01*
X210292Y340553D01*
X210273Y340618D01*
X210255Y340692D01*
X210218Y340775D01*
X210162Y340858D01*
X210098Y340932D01*
X210088Y340942D01*
X210061Y340960D01*
X210014Y340988D01*
X209949Y341025D01*
X209876Y341062D01*
X209783Y341090D01*
X209672Y341108D01*
X209552Y341117D01*
D02*
G37*
G36*
X209044Y338704D02*
X209034Y338695D01*
X209016Y338676D01*
X208988Y338639D01*
X208951Y338593D01*
X208905Y338538D01*
X208859Y338473D01*
X208766Y338316D01*
X208757Y338307D01*
X208748Y338279D01*
X208729Y338233D01*
X208711Y338168D01*
X208683Y338094D01*
X208664Y338002D01*
X208655Y337909D01*
X208646Y337807D01*
Y337789D01*
Y337743D01*
X208664Y337659D01*
X208683Y337567D01*
X208711Y337465D01*
X208757Y337354D01*
X208822Y337243D01*
X208905Y337142D01*
X208914Y337132D01*
X208951Y337105D01*
X209016Y337058D01*
X209090Y337021D01*
X209191Y336975D01*
X209312Y336929D01*
X209450Y336901D01*
X209608Y336892D01*
X209626D01*
X209691Y336901D01*
X209774Y336911D01*
X209876Y336929D01*
X209885D01*
X209903Y336938D01*
X209931Y336948D01*
X209968Y336957D01*
X210051Y336994D01*
X210144Y337049D01*
X210153D01*
X210162Y337068D01*
X210218Y337114D01*
X210292Y337179D01*
X210356Y337262D01*
Y337271D01*
X210366Y337290D01*
X210384Y337317D01*
X210403Y337354D01*
X210412Y337401D01*
X210430Y337465D01*
X210440Y337604D01*
Y337613D01*
Y337650D01*
X210430Y337706D01*
X210421Y337770D01*
X210384Y337918D01*
X210356Y337992D01*
X210310Y338057D01*
X210301Y338066D01*
X210282Y338085D01*
X210245Y338122D01*
X210199Y338159D01*
X210125Y338214D01*
X210033Y338270D01*
X209913Y338334D01*
X209774Y338408D01*
X209765D01*
X209755Y338418D01*
X209728Y338427D01*
X209691Y338445D01*
X209635Y338464D01*
X209580Y338492D01*
X209515Y338519D01*
X209432Y338547D01*
X209422D01*
X209395Y338565D01*
X209358Y338575D01*
X209302Y338602D01*
X209182Y338649D01*
X209044Y338704D01*
D02*
G37*
G36*
X166285Y1596D02*
X166229D01*
X166183Y1587D01*
X166081Y1577D01*
X165961Y1550D01*
X165952D01*
X165933Y1540D01*
X165896Y1531D01*
X165859Y1522D01*
X165758Y1494D01*
X165647Y1448D01*
Y1439D01*
Y1420D01*
Y1374D01*
Y1319D01*
Y1300D01*
Y1254D01*
Y1180D01*
Y1088D01*
Y1078D01*
Y1069D01*
Y1041D01*
Y1004D01*
X165656Y912D01*
Y792D01*
X165665Y653D01*
X165684Y514D01*
X165702Y385D01*
X165730Y255D01*
Y246D01*
X165748Y200D01*
X165767Y144D01*
X165795Y80D01*
X165869Y-77D01*
X165915Y-152D01*
X165961Y-216D01*
X165970Y-225D01*
X165980Y-235D01*
X166026Y-290D01*
X166100Y-346D01*
X166192Y-401D01*
X166201D01*
X166220Y-410D01*
X166248Y-420D01*
X166285Y-429D01*
X166368Y-447D01*
X166479Y-457D01*
X166525D01*
X166562Y-447D01*
X166645Y-429D01*
X166747Y-401D01*
X166756D01*
X166775Y-392D01*
X166830Y-355D01*
X166904Y-299D01*
X166978Y-216D01*
X166987Y-207D01*
X166997Y-188D01*
X167024Y-161D01*
X167043Y-124D01*
X167108Y-31D01*
X167163Y89D01*
Y98D01*
X167172Y126D01*
X167181Y163D01*
X167200Y218D01*
X167209Y292D01*
X167218Y385D01*
X167228Y496D01*
Y616D01*
Y625D01*
Y662D01*
Y718D01*
X167218Y782D01*
X167200Y940D01*
X167181Y1014D01*
X167154Y1088D01*
Y1097D01*
X167145Y1124D01*
X167126Y1152D01*
X167098Y1198D01*
X167034Y1300D01*
X166941Y1393D01*
X166932Y1402D01*
X166923Y1411D01*
X166895Y1429D01*
X166858Y1457D01*
X166765Y1504D01*
X166645Y1550D01*
X166636D01*
X166618Y1559D01*
X166581Y1568D01*
X166534Y1577D01*
X166423Y1587D01*
X166285Y1596D01*
D02*
G37*
G36*
X86691Y83572D02*
X85174Y81538D01*
X86691D01*
Y83572D01*
D02*
G37*
G36*
X43580Y288029D02*
X43561D01*
X43506Y288020D01*
X43432Y288002D01*
X43339Y287974D01*
X43238Y287918D01*
X43136Y287835D01*
X43090Y287789D01*
X43043Y287724D01*
X42997Y287660D01*
X42960Y287576D01*
Y287567D01*
X42951Y287558D01*
X42942Y287530D01*
X42933Y287484D01*
X42914Y287438D01*
X42905Y287373D01*
X42886Y287299D01*
X42868Y287207D01*
X42849Y287105D01*
X42831Y286994D01*
X42822Y286864D01*
X42803Y286716D01*
X42794Y286559D01*
X42785Y286384D01*
X42775Y286199D01*
Y285995D01*
Y285986D01*
Y285949D01*
Y285894D01*
Y285820D01*
X42785Y285727D01*
Y285616D01*
X42794Y285505D01*
X42803Y285385D01*
X42822Y285126D01*
X42849Y284867D01*
X42877Y284738D01*
X42895Y284627D01*
X42933Y284516D01*
X42960Y284424D01*
Y284414D01*
X42969Y284405D01*
X42997Y284350D01*
X43043Y284285D01*
X43108Y284202D01*
X43191Y284118D01*
X43302Y284045D01*
X43432Y283989D01*
X43506Y283980D01*
X43580Y283971D01*
X43598D01*
X43654Y283980D01*
X43728Y283998D01*
X43820Y284026D01*
X43913Y284082D01*
X44014Y284165D01*
X44070Y284211D01*
X44107Y284276D01*
X44153Y284340D01*
X44190Y284424D01*
Y284433D01*
X44199Y284442D01*
X44208Y284470D01*
X44218Y284516D01*
X44236Y284562D01*
X44255Y284627D01*
X44273Y284701D01*
X44292Y284793D01*
X44301Y284895D01*
X44319Y285015D01*
X44338Y285135D01*
X44356Y285284D01*
X44366Y285441D01*
X44375Y285607D01*
X44384Y285792D01*
Y285995D01*
Y286005D01*
Y286042D01*
Y286106D01*
Y286180D01*
X44375Y286273D01*
Y286374D01*
X44366Y286495D01*
Y286615D01*
X44338Y286874D01*
X44310Y287142D01*
X44282Y287262D01*
X44264Y287382D01*
X44236Y287484D01*
X44199Y287576D01*
Y287586D01*
X44190Y287595D01*
X44162Y287650D01*
X44116Y287724D01*
X44051Y287808D01*
X43968Y287891D01*
X43857Y287955D01*
X43728Y288011D01*
X43663Y288020D01*
X43580Y288029D01*
D02*
G37*
G36*
X32894Y157113D02*
X32848D01*
X32811Y157103D01*
X32718Y157094D01*
X32626Y157057D01*
X32617D01*
X32607Y157048D01*
X32552Y157011D01*
X32478Y156955D01*
X32385Y156863D01*
Y156854D01*
X32367Y156845D01*
X32348Y156817D01*
X32330Y156780D01*
X32302Y156734D01*
X32265Y156669D01*
X32237Y156604D01*
X32210Y156521D01*
Y156512D01*
X32200Y156484D01*
X32191Y156438D01*
X32182Y156373D01*
X32164Y156299D01*
X32154Y156216D01*
X32145Y156022D01*
Y156012D01*
Y155975D01*
Y155920D01*
X32154Y155855D01*
X32173Y155698D01*
X32219Y155541D01*
Y155532D01*
X32228Y155513D01*
X32247Y155476D01*
X32274Y155439D01*
X32330Y155337D01*
X32413Y155245D01*
X32422D01*
X32441Y155226D01*
X32459Y155208D01*
X32496Y155180D01*
X32589Y155134D01*
X32709Y155088D01*
X32718D01*
X32737Y155079D01*
X32774D01*
X32820Y155069D01*
X32875Y155060D01*
X32940D01*
X33079Y155051D01*
X33143D01*
X33180Y155060D01*
X33291Y155069D01*
X33421Y155097D01*
X33430D01*
X33449Y155106D01*
X33486Y155116D01*
X33523Y155125D01*
X33615Y155153D01*
X33707Y155190D01*
Y155199D01*
Y155226D01*
Y155264D01*
X33717Y155319D01*
Y155337D01*
X33726Y155384D01*
Y155458D01*
Y155559D01*
Y155569D01*
Y155578D01*
Y155606D01*
Y155643D01*
Y155735D01*
X33717Y155846D01*
X33707Y155975D01*
X33689Y156105D01*
X33670Y156243D01*
X33643Y156364D01*
Y156382D01*
X33624Y156419D01*
X33606Y156475D01*
X33587Y156549D01*
X33513Y156715D01*
X33467Y156789D01*
X33412Y156863D01*
X33402Y156872D01*
X33393Y156882D01*
X33338Y156937D01*
X33264Y156992D01*
X33171Y157048D01*
X33162D01*
X33153Y157057D01*
X33125Y157066D01*
X33088Y157085D01*
X32996Y157103D01*
X32894Y157113D01*
D02*
G37*
G36*
X7917Y73117D02*
X7861D01*
X7797Y73108D01*
X7723Y73099D01*
X7640Y73080D01*
X7547Y73043D01*
X7464Y73006D01*
X7381Y72951D01*
X7372Y72942D01*
X7353Y72923D01*
X7316Y72886D01*
X7288Y72840D01*
X7251Y72775D01*
X7214Y72710D01*
X7196Y72627D01*
X7187Y72544D01*
Y72535D01*
Y72507D01*
X7196Y72461D01*
X7205Y72405D01*
X7242Y72276D01*
X7270Y72211D01*
X7307Y72156D01*
X7316Y72147D01*
X7334Y72128D01*
X7362Y72100D01*
X7399Y72063D01*
X7455Y72026D01*
X7519Y71980D01*
X7593Y71925D01*
X7686Y71878D01*
X7695D01*
X7704Y71869D01*
X7760Y71841D01*
X7843Y71804D01*
X7945Y71758D01*
X7954D01*
X7972Y71749D01*
X8009Y71740D01*
X8056Y71721D01*
X8111Y71693D01*
X8185Y71675D01*
X8268Y71647D01*
X8361Y71610D01*
X8370Y71620D01*
X8389Y71647D01*
X8416Y71684D01*
X8453Y71740D01*
X8527Y71860D01*
X8592Y71999D01*
Y72008D01*
X8601Y72035D01*
X8620Y72073D01*
X8629Y72128D01*
X8647Y72193D01*
X8657Y72267D01*
X8666Y72442D01*
Y72452D01*
Y72498D01*
X8657Y72553D01*
X8638Y72618D01*
X8620Y72692D01*
X8583Y72775D01*
X8527Y72858D01*
X8462Y72932D01*
X8453Y72942D01*
X8425Y72960D01*
X8379Y72988D01*
X8314Y73025D01*
X8241Y73062D01*
X8148Y73089D01*
X8037Y73108D01*
X7917Y73117D01*
D02*
G37*
G36*
X7408Y70704D02*
X7399Y70695D01*
X7381Y70676D01*
X7353Y70639D01*
X7316Y70593D01*
X7270Y70538D01*
X7224Y70473D01*
X7131Y70316D01*
X7122Y70307D01*
X7113Y70279D01*
X7094Y70233D01*
X7076Y70168D01*
X7048Y70094D01*
X7029Y70002D01*
X7020Y69909D01*
X7011Y69807D01*
Y69789D01*
Y69743D01*
X7029Y69659D01*
X7048Y69567D01*
X7076Y69465D01*
X7122Y69354D01*
X7187Y69243D01*
X7270Y69142D01*
X7279Y69132D01*
X7316Y69105D01*
X7381Y69058D01*
X7455Y69022D01*
X7556Y68975D01*
X7677Y68929D01*
X7815Y68901D01*
X7972Y68892D01*
X7991D01*
X8056Y68901D01*
X8139Y68910D01*
X8241Y68929D01*
X8250D01*
X8268Y68938D01*
X8296Y68948D01*
X8333Y68957D01*
X8416Y68994D01*
X8509Y69049D01*
X8518D01*
X8527Y69068D01*
X8583Y69114D01*
X8657Y69179D01*
X8721Y69262D01*
Y69271D01*
X8731Y69290D01*
X8749Y69317D01*
X8768Y69354D01*
X8777Y69401D01*
X8795Y69465D01*
X8805Y69604D01*
Y69613D01*
Y69650D01*
X8795Y69706D01*
X8786Y69770D01*
X8749Y69918D01*
X8721Y69992D01*
X8675Y70057D01*
X8666Y70066D01*
X8647Y70085D01*
X8610Y70122D01*
X8564Y70159D01*
X8490Y70214D01*
X8398Y70270D01*
X8278Y70334D01*
X8139Y70408D01*
X8130D01*
X8120Y70417D01*
X8093Y70427D01*
X8056Y70445D01*
X8000Y70464D01*
X7945Y70491D01*
X7880Y70519D01*
X7797Y70547D01*
X7788D01*
X7760Y70566D01*
X7723Y70575D01*
X7667Y70602D01*
X7547Y70649D01*
X7408Y70704D01*
D02*
G37*
G36*
X130824Y142949D02*
X130769D01*
X130723Y142940D01*
X130621Y142931D01*
X130501Y142903D01*
X130492D01*
X130473Y142894D01*
X130436Y142884D01*
X130399Y142875D01*
X130297Y142847D01*
X130187Y142801D01*
Y142792D01*
Y142774D01*
Y142727D01*
Y142672D01*
Y142653D01*
Y142607D01*
Y142533D01*
Y142441D01*
Y142431D01*
Y142422D01*
Y142394D01*
Y142357D01*
X130196Y142265D01*
Y142145D01*
X130205Y142006D01*
X130224Y141867D01*
X130242Y141738D01*
X130270Y141608D01*
Y141599D01*
X130288Y141553D01*
X130307Y141498D01*
X130335Y141433D01*
X130408Y141276D01*
X130455Y141202D01*
X130501Y141137D01*
X130510Y141128D01*
X130519Y141118D01*
X130566Y141063D01*
X130640Y141008D01*
X130732Y140952D01*
X130741D01*
X130760Y140943D01*
X130787Y140934D01*
X130824Y140924D01*
X130908Y140906D01*
X131019Y140897D01*
X131065D01*
X131102Y140906D01*
X131185Y140924D01*
X131287Y140952D01*
X131296D01*
X131314Y140961D01*
X131370Y140998D01*
X131444Y141054D01*
X131518Y141137D01*
X131527Y141146D01*
X131536Y141165D01*
X131564Y141193D01*
X131583Y141229D01*
X131647Y141322D01*
X131703Y141442D01*
Y141451D01*
X131712Y141479D01*
X131721Y141516D01*
X131740Y141572D01*
X131749Y141645D01*
X131758Y141738D01*
X131768Y141849D01*
Y141969D01*
Y141978D01*
Y142015D01*
Y142071D01*
X131758Y142135D01*
X131740Y142293D01*
X131721Y142367D01*
X131694Y142441D01*
Y142450D01*
X131684Y142478D01*
X131666Y142505D01*
X131638Y142552D01*
X131573Y142653D01*
X131481Y142746D01*
X131472Y142755D01*
X131462Y142764D01*
X131435Y142783D01*
X131398Y142810D01*
X131305Y142857D01*
X131185Y142903D01*
X131176D01*
X131157Y142912D01*
X131120Y142921D01*
X131074Y142931D01*
X130963Y142940D01*
X130824Y142949D01*
D02*
G37*
%LPD*%
D10*
X74500Y430500D02*
Y433500D01*
X73000Y432000D02*
X76000D01*
X97000Y436000D02*
Y441000D01*
X111000D01*
Y431000D02*
Y441000D01*
X102000Y431000D02*
X111000D01*
X175000Y346000D02*
X219000D01*
X161000Y412000D02*
X219000D01*
X111000Y318000D02*
X169000D01*
X125000Y238000D02*
X169000D01*
X162000Y77000D02*
Y78000D01*
X180000D01*
Y77000D02*
Y78000D01*
Y47000D02*
X189000D01*
X180000Y46000D02*
Y47000D01*
X162000Y46000D02*
X180000D01*
X162000D02*
Y47000D01*
X88300Y157300D02*
X91300D01*
X88300Y185300D02*
X91300D01*
X65300D02*
X68300D01*
X65300Y157300D02*
X68300D01*
Y154300D02*
Y157300D01*
X150000Y152000D02*
X153000D01*
X150000Y180000D02*
X153000D01*
X127000D02*
X130000D01*
X127000Y152000D02*
X130000D01*
Y149000D02*
Y152000D01*
X88300Y377300D02*
X91300D01*
X88300Y405300D02*
X91300D01*
X65300D02*
X68300D01*
X65300Y377300D02*
X68300D01*
Y374300D02*
Y377300D01*
X143000Y419000D02*
Y420000D01*
Y419000D02*
X161000D01*
Y420000D01*
X170000D01*
X161000Y450000D02*
Y451000D01*
X143000D02*
X161000D01*
X143000Y450000D02*
Y451000D01*
X12250Y439000D02*
X23750D01*
X6000Y459000D02*
X7500D01*
X23500D01*
X6000Y126500D02*
Y142500D01*
Y125000D02*
Y126500D01*
X26000Y131250D02*
Y142750D01*
X162000Y7000D02*
Y8000D01*
Y7000D02*
X180000D01*
Y8000D01*
X189000D01*
X180000Y38000D02*
Y39000D01*
X162000D02*
X180000D01*
X162000Y38000D02*
Y39000D01*
X73000Y73000D02*
Y74000D01*
X91000D01*
Y73000D02*
Y74000D01*
Y43000D02*
X100000D01*
X91000Y42000D02*
Y43000D01*
X73000Y42000D02*
X91000D01*
X73000D02*
Y43000D01*
X5000Y276500D02*
Y292500D01*
Y275000D02*
Y276500D01*
X25000Y281250D02*
Y292750D01*
X19500Y47000D02*
X35500D01*
X37000D01*
X19250Y67000D02*
X30750D01*
X136000Y86000D02*
Y87000D01*
X164000Y86000D02*
Y106000D01*
X147000D02*
X153000D01*
X150000Y86000D02*
X153000D01*
X136000Y94000D02*
Y106000D01*
D11*
X154000Y413000D02*
Y417000D01*
X152000Y415000D02*
X156000D01*
X139000Y411000D02*
X141000D01*
X139000Y401000D02*
X141000D01*
X129000Y399000D02*
X156000D01*
Y413000D01*
X129000D02*
X156000D01*
X16600Y110000D02*
X17400D01*
X16600Y116000D02*
X17400D01*
X27000Y326600D02*
Y327400D01*
X21000Y326600D02*
Y327400D01*
X18000Y423600D02*
Y424400D01*
X12000Y423600D02*
Y424400D01*
X168000Y99600D02*
Y100400D01*
X174000Y99600D02*
Y100400D01*
X182600Y88000D02*
X183400D01*
X182600Y82000D02*
X183400D01*
X175600Y453000D02*
X176400D01*
X175600Y459000D02*
X176400D01*
X105600Y81000D02*
X106400D01*
X105600Y75000D02*
X106400D01*
X102000Y452600D02*
Y453400D01*
X96000Y452600D02*
Y453400D01*
X207600Y24000D02*
X208400D01*
X207600Y18000D02*
X208400D01*
X262000Y403850D02*
Y404650D01*
X268000Y403850D02*
Y404650D01*
X262000Y381600D02*
Y382400D01*
X268000Y381600D02*
Y382400D01*
X63000Y9600D02*
Y10400D01*
X57000Y9600D02*
Y10400D01*
X76000Y9600D02*
Y10400D01*
X82000Y9600D02*
Y10400D01*
X144600Y388000D02*
X145400D01*
X144600Y394000D02*
X145400D01*
X84600Y114000D02*
X85400D01*
X84600Y120000D02*
X85400D01*
X144600Y364000D02*
X145400D01*
X144600Y370000D02*
X145400D01*
X47600Y265000D02*
X48400D01*
X47600Y259000D02*
X48400D01*
X77850Y265000D02*
X78650D01*
X77850Y259000D02*
X78650D01*
X248600Y347000D02*
X249400D01*
X248600Y353000D02*
X249400D01*
X79000Y336600D02*
Y337400D01*
X73000Y336600D02*
Y337400D01*
X64000Y336600D02*
Y337400D01*
X70000Y336600D02*
Y337400D01*
X248600Y370000D02*
X249400D01*
X248600Y364000D02*
X249400D01*
X132000Y330600D02*
Y331400D01*
X126000Y330600D02*
Y331400D01*
X248600Y382000D02*
X249400D01*
X248600Y376000D02*
X249400D01*
X169000Y330600D02*
Y331400D01*
X175000Y330600D02*
Y331400D01*
X166000Y330600D02*
Y331400D01*
X160000Y330600D02*
Y331400D01*
X156000Y330600D02*
Y331400D01*
X150000Y330600D02*
Y331400D01*
X84600Y129600D02*
X85400D01*
X84600Y123600D02*
X85400D01*
X194600Y116000D02*
X195400D01*
X194600Y110000D02*
X195400D01*
X164350Y135000D02*
X165150D01*
X164350Y141000D02*
X165150D01*
X194600Y135000D02*
X195400D01*
X194600Y141000D02*
X195400D01*
X200600Y245000D02*
X201400D01*
X200600Y239000D02*
X201400D01*
X200600Y248000D02*
X201400D01*
X200600Y254000D02*
X201400D01*
X200600Y272000D02*
X201400D01*
X200600Y266000D02*
X201400D01*
X200600Y275000D02*
X201400D01*
X200600Y281000D02*
X201400D01*
X200600Y308000D02*
X201400D01*
X200600Y302000D02*
X201400D01*
X200600Y311000D02*
X201400D01*
X200600Y317000D02*
X201400D01*
X200600Y263000D02*
X201400D01*
X200600Y257000D02*
X201400D01*
X200600Y284000D02*
X201400D01*
X200600Y290000D02*
X201400D01*
X200600Y299000D02*
X201400D01*
X200600Y293000D02*
X201400D01*
X200600Y320000D02*
X201400D01*
X200600Y326000D02*
X201400D01*
X248600Y394000D02*
X249400D01*
X248600Y400000D02*
X249400D01*
X248600Y391000D02*
X249400D01*
X248600Y385000D02*
X249400D01*
X12600Y223000D02*
X13400D01*
X12600Y217000D02*
X13400D01*
X15000Y84600D02*
Y85400D01*
X21000Y84600D02*
Y85400D01*
X41000Y29600D02*
Y30400D01*
X47000Y29600D02*
Y30400D01*
X112600Y97000D02*
X113400D01*
X112600Y103000D02*
X113400D01*
X134000Y18600D02*
Y19400D01*
X128000Y18600D02*
Y19400D01*
X112600Y106000D02*
X113400D01*
X112600Y112000D02*
X113400D01*
X20000Y10600D02*
Y11400D01*
X14000Y10600D02*
Y11400D01*
X41600Y137000D02*
X42400D01*
X41600Y131000D02*
X42400D01*
X10000Y192600D02*
Y193400D01*
X4000Y192600D02*
Y193400D01*
X119850Y228000D02*
X120650D01*
X119850Y234000D02*
X120650D01*
X147000Y123600D02*
Y124400D01*
X141000Y123600D02*
Y124400D01*
X119850Y219000D02*
X120650D01*
X119850Y225000D02*
X120650D01*
X41600Y122000D02*
X42400D01*
X41600Y128000D02*
X42400D01*
X42000Y234600D02*
Y235400D01*
X48000Y234600D02*
Y235400D01*
X12000Y326600D02*
Y327400D01*
X18000Y326600D02*
Y327400D01*
X123000Y330600D02*
Y331400D01*
X117000Y330600D02*
Y331400D01*
X24000Y234600D02*
Y235400D01*
X18000Y234600D02*
Y235400D01*
X53600Y295000D02*
X54400D01*
X53600Y301000D02*
X54400D01*
X156000Y225600D02*
Y226400D01*
X150000Y225600D02*
Y226400D01*
X11000Y402600D02*
Y403400D01*
X17000Y402600D02*
Y403400D01*
X8000Y402600D02*
Y403400D01*
X2000Y402600D02*
Y403400D01*
X115600Y384000D02*
X116400D01*
X115600Y378000D02*
X116400D01*
X15000Y367600D02*
Y368400D01*
X21000Y367600D02*
Y368400D01*
X44000Y345600D02*
Y346400D01*
X50000Y345600D02*
Y346400D01*
X109000Y415600D02*
Y416400D01*
X103000Y415600D02*
Y416400D01*
X120000Y123600D02*
Y124400D01*
X114000Y123600D02*
Y124400D01*
X105000Y123600D02*
Y124400D01*
X111000Y123600D02*
Y124400D01*
X41600Y119000D02*
X42400D01*
X41600Y113000D02*
X42400D01*
X147000Y225600D02*
Y226400D01*
X141000Y225600D02*
Y226400D01*
X31000Y234600D02*
Y235400D01*
X37000Y234600D02*
Y235400D01*
X62000Y234600D02*
Y235400D01*
X56000Y234600D02*
Y235400D01*
X99000Y249600D02*
Y250400D01*
X93000Y249600D02*
Y250400D01*
X41000Y345600D02*
Y346400D01*
X35000Y345600D02*
Y346400D01*
X115600Y375000D02*
X116400D01*
X115600Y369000D02*
X116400D01*
X106000Y355600D02*
Y356400D01*
X112000Y355600D02*
Y356400D01*
X103000Y355600D02*
Y356400D01*
X97000Y355600D02*
Y356400D01*
X138000Y123600D02*
Y124400D01*
X132000Y123600D02*
Y124400D01*
X112600Y87000D02*
X113400D01*
X112600Y93000D02*
X113400D01*
X31000Y84600D02*
Y85400D01*
X25000Y84600D02*
Y85400D01*
X110000Y18600D02*
Y19400D01*
X116000Y18600D02*
Y19400D01*
X74600Y27000D02*
X75400D01*
X74600Y33000D02*
X75400D01*
X31300Y30900D02*
Y31700D01*
X25300Y30900D02*
Y31700D01*
X41600Y140000D02*
X42400D01*
X41600Y146000D02*
X42400D01*
X123000Y123600D02*
Y124400D01*
X129000Y123600D02*
Y124400D01*
X84600Y134000D02*
X85400D01*
X84600Y140000D02*
X85400D01*
X13000Y192600D02*
Y193400D01*
X19000Y192600D02*
Y193400D01*
X137000Y204600D02*
Y205400D01*
X143000Y204600D02*
Y205400D01*
X132000Y225600D02*
Y226400D01*
X138000Y225600D02*
Y226400D01*
X80600Y250000D02*
X81400D01*
X80600Y244000D02*
X81400D01*
X47600Y250000D02*
X48400D01*
X47600Y256000D02*
X48400D01*
X86600Y299000D02*
X87400D01*
X86600Y305000D02*
X87400D01*
X20000Y402600D02*
Y403400D01*
X26000Y402600D02*
Y403400D01*
X54600Y407000D02*
X55400D01*
X54600Y413000D02*
X55400D01*
X30000Y367600D02*
Y368400D01*
X24000Y367600D02*
Y368400D01*
X121000Y355600D02*
Y356400D01*
X115000Y355600D02*
Y356400D01*
X87000Y345600D02*
Y346400D01*
X93000Y345600D02*
Y346400D01*
X42000Y9600D02*
Y10400D01*
X36000Y9600D02*
Y10400D01*
X94000Y26600D02*
Y27400D01*
X88000Y26600D02*
Y27400D01*
X51000Y9600D02*
Y10400D01*
X45000Y9600D02*
Y10400D01*
X119000Y18600D02*
Y19400D01*
X125000Y18600D02*
Y19400D01*
X121000Y190600D02*
Y191400D01*
X127000Y190600D02*
Y191400D01*
X54600Y193000D02*
X55400D01*
X54600Y187000D02*
X55400D01*
X118000Y415600D02*
Y416400D01*
X112000Y415600D02*
Y416400D01*
X132000Y95600D02*
Y96400D01*
X126000Y95600D02*
Y96400D01*
X13000Y163600D02*
Y164400D01*
X19000Y163600D02*
Y164400D01*
X3000Y34600D02*
Y35400D01*
X9000Y34600D02*
Y35400D01*
X8000Y423600D02*
Y424400D01*
X2000Y423600D02*
Y424400D01*
X14600Y311000D02*
X15400D01*
X14600Y305000D02*
X15400D01*
X138000Y330600D02*
Y331400D01*
X144000Y330600D02*
Y331400D01*
X184000Y330600D02*
Y331400D01*
X178000Y330600D02*
Y331400D01*
X248600Y409000D02*
X249400D01*
X248600Y403000D02*
X249400D01*
X112000Y452600D02*
Y453400D01*
X106000Y452600D02*
Y453400D01*
X35000Y325572D02*
Y326372D01*
X41000Y325572D02*
Y326372D01*
X126000Y446000D02*
Y448000D01*
X116000Y446000D02*
Y448000D01*
X114000Y431000D02*
Y458000D01*
Y431000D02*
X128000D01*
Y458000D01*
X131000Y430000D02*
Y432000D01*
X130000Y431000D02*
X130000D01*
X130000Y431000D02*
X130000Y431000D01*
X130000Y431000D02*
X132000Y431000D01*
X90000Y446000D02*
Y448000D01*
X80000Y446000D02*
Y448000D01*
X78000Y431000D02*
Y458000D01*
Y431000D02*
X92000D01*
Y458000D01*
X189000Y416000D02*
X193000D01*
X191000Y414000D02*
Y418000D01*
X188000Y419000D02*
Y446000D01*
X174000Y419000D02*
X188000D01*
X174000D02*
Y446000D01*
X176000Y434000D02*
Y436000D01*
X186000Y434000D02*
Y436000D01*
X148000Y62000D02*
Y64000D01*
X138000Y62000D02*
Y64000D01*
X136000Y47000D02*
Y74000D01*
Y47000D02*
X150000D01*
Y74000D01*
X143000Y42000D02*
Y46000D01*
X141000Y44000D02*
X145000D01*
X213000Y77000D02*
X215000D01*
X213000Y87000D02*
X215000D01*
X198000Y89000D02*
X225000D01*
X198000Y75000D02*
Y89000D01*
Y75000D02*
X225000D01*
X193000Y82000D02*
X197000D01*
X195000Y80000D02*
Y84000D01*
X60000Y41000D02*
Y68000D01*
X46000Y41000D02*
X60000D01*
X46000D02*
Y68000D01*
X48000Y56000D02*
Y58000D01*
X58000Y56000D02*
Y58000D01*
X151000Y133000D02*
X174000D01*
X151000Y119000D02*
Y133000D01*
Y119000D02*
X174000D01*
X164000Y126000D02*
X166000Y124000D01*
X164000Y126000D02*
X166000Y128000D01*
Y124000D02*
Y128000D01*
X164000Y124000D02*
Y128000D01*
X186000Y119000D02*
X209000D01*
Y133000D01*
X186000D02*
X209000D01*
X194000Y128000D02*
X196000Y126000D01*
X194000Y124000D02*
X196000Y126000D01*
X194000Y124000D02*
Y128000D01*
X196000Y124000D02*
Y128000D01*
X148000Y23000D02*
Y25000D01*
X138000Y23000D02*
Y25000D01*
X136000Y8000D02*
Y35000D01*
Y8000D02*
X150000D01*
Y35000D01*
X143000Y3000D02*
Y7000D01*
X141000Y5000D02*
X145000D01*
X198000Y2000D02*
X225000D01*
X198000D02*
Y16000D01*
X225000D01*
X213000Y14000D02*
X215000D01*
X213000Y4000D02*
X215000D01*
X118000Y41000D02*
Y68000D01*
X104000Y41000D02*
X118000D01*
X104000D02*
Y68000D01*
X106000Y56000D02*
Y58000D01*
X116000Y56000D02*
Y58000D01*
X194000Y99000D02*
Y103000D01*
X196000Y99000D02*
Y103000D01*
X194000Y101000D02*
X196000Y103000D01*
X194000Y101000D02*
X196000Y99000D01*
X181000Y94000D02*
X204000D01*
X181000D02*
Y108000D01*
X204000D01*
D12*
X224000Y289700D02*
Y314500D01*
Y125500D02*
Y150300D01*
X276000Y125500D02*
Y314500D01*
X224000Y125500D02*
X237000D01*
X224000Y314500D02*
X237000D01*
X216480Y145450D02*
X222480D01*
X216480D02*
X219480Y150450D01*
X222480Y145450D01*
X273500Y125500D02*
X276000D01*
X273500Y314500D02*
X276000D01*
M02*
